<?xml version="1.0" encoding="UTF-8"?><svg id="Layer_2" xmlns="http://www.w3.org/2000/svg" xmlns:xlink="http://www.w3.org/1999/xlink" viewBox="0 0 33.85 15.39"><defs><style>.cls-1{fill:url(#linear-gradient);}.cls-1,.cls-2,.cls-3{stroke-width:0px;}.cls-2{fill:#ffc200;}.cls-3{fill:url(#linear-gradient-2);}.cls-4{filter:url(#outer-glow-1);}.cls-5{filter:url(#outer-glow-2);}</style><filter id="outer-glow-1" filterUnits="userSpaceOnUse"><feOffset dx="0" dy="0"/><feGaussianBlur result="blur" stdDeviation="2.57"/><feFlood flood-color="#fffa39" flood-opacity=".8"/><feComposite in2="blur" operator="in"/><feComposite in="SourceGraphic"/></filter><linearGradient id="linear-gradient" x1="-16.28" y1="-3.73" x2="-16.22" y2="6.99" gradientTransform="translate(23.4 2.09) rotate(-10.87)" gradientUnits="userSpaceOnUse"><stop offset="0" stop-color="#fff75a"/><stop offset=".17" stop-color="#ffed3c"/><stop offset=".37" stop-color="#ffe422"/><stop offset=".57" stop-color="#ffde0f"/><stop offset=".78" stop-color="#ffdb03"/><stop offset="1" stop-color="#ffda00"/></linearGradient><filter id="outer-glow-2" filterUnits="userSpaceOnUse"><feOffset dx="0" dy="0"/><feGaussianBlur result="blur-2" stdDeviation="2.57"/><feFlood flood-color="#fffa39" flood-opacity=".8"/><feComposite in2="blur-2" operator="in"/><feComposite in="SourceGraphic"/></filter><linearGradient id="linear-gradient-2" x1="51.87" y1="1.84" x2="51.94" y2="12.57" gradientTransform="translate(-23.27 -10.73) rotate(11.5)" xlink:href="#linear-gradient"/></defs><g id="Layer_2-2"><g class="cls-4"><path class="cls-2" d="M8.74.83l1.12,1.28c.4.46.97.74,1.58.79l1.7.12c1.72.12,2.71,2.02,1.82,3.5l-.87,1.46c-.31.52-.41,1.15-.26,1.74l.41,1.65c.41,1.67-1.08,3.2-2.76,2.81l-1.66-.38c-.6-.14-1.22-.03-1.74.29l-1.45.9c-1.46.91-3.37-.04-3.53-1.76l-.15-1.7c-.05-.61-.35-1.17-.81-1.56l-1.3-1.1c-1.32-1.11-1-3.22.58-3.9l1.57-.67c.56-.24,1.01-.69,1.23-1.26l.64-1.58c.65-1.6,2.75-1.95,3.89-.65Z"/><path class="cls-1" d="M8.26.69l1.33,1.52c.31.36.76.58,1.23.61l2.01.14c1.34.1,2.11,1.57,1.42,2.73l-1.03,1.73c-.24.41-.32.9-.2,1.36l.48,1.96c.32,1.3-.84,2.49-2.15,2.19l-1.96-.45c-.46-.11-.95-.02-1.36.23l-1.71,1.06c-1.14.71-2.63-.03-2.75-1.37l-.18-2.01c-.04-.47-.27-.91-.63-1.22l-1.54-1.3c-1.03-.87-.78-2.51.45-3.04l1.85-.79c.44-.19.78-.54.96-.98l.76-1.87C5.73-.05,7.37-.32,8.26.69Z"/></g><g class="cls-5"><path class="cls-2" d="M29.33,1.57l.55,1.61c.2.58.61,1.05,1.16,1.33l1.52.76c1.54.77,1.73,2.89.35,3.93l-1.36,1.02c-.49.37-.81.91-.9,1.51l-.25,1.68c-.25,1.71-2.22,2.54-3.62,1.55l-1.39-.98c-.5-.35-1.12-.49-1.72-.39l-1.68.28c-1.7.29-3.1-1.32-2.59-2.97l.5-1.63c.18-.58.12-1.21-.16-1.76l-.79-1.51c-.8-1.53.3-3.36,2.02-3.38l1.7-.02c.61,0,1.19-.26,1.62-.69l1.19-1.22c1.21-1.23,3.29-.76,3.84.88Z"/><path class="cls-3" d="M28.94,1.26l.65,1.91c.15.45.48.82.9,1.03l1.8.9c1.2.6,1.35,2.26.28,3.06l-1.61,1.21c-.38.28-.63.71-.7,1.18l-.3,1.99c-.2,1.33-1.73,1.98-2.83,1.21l-1.65-1.16c-.39-.27-.87-.38-1.34-.31l-1.99.33c-1.33.22-2.42-1.03-2.02-2.31l.6-1.92c.14-.45.1-.95-.12-1.37l-.93-1.79c-.62-1.19.23-2.62,1.58-2.64l2.01-.03c.48,0,.93-.2,1.26-.54l1.41-1.44c.94-.96,2.56-.59,3,.68Z"/></g></g></svg>