<svg id="Layer_2" xmlns="http://www.w3.org/2000/svg" viewBox="0 0 72.49 71.08"><defs><style>.cls-1,.cls-2{stroke:#031b7f}.cls-1,.cls-2,.cls-3,.cls-4{fill:none;stroke-linecap:round;stroke-linejoin:round;stroke-width:1.04px}.cls-11,.cls-12,.cls-13,.cls-6,.cls-7,.cls-9{stroke-width:0}.cls-2,.cls-3{stroke-dasharray:0 0 3.78 3.78}.cls-6{fill:#000}.cls-7{fill:#ba2569}.cls-9{fill:#fff5bf}.cls-3,.cls-4{stroke:#82023c}.cls-11{fill:#ffb300}.cls-12{fill:#223982}.cls-13{fill:#ffda00}</style></defs><g id="Layer_2-2"><circle class="cls-6" cx="36.99" cy="35.58" r="35.5" style="opacity:.5"/><path class="cls-6" d="m70.66 34.02-1-1.82-.41-.76v-.7c0-.74-.51-1.35-1.2-1.51l-1.74-3.18c-.35-.63-1.09-.95-1.78-.74-2.13.62-4.45-.1-5.87-1.83a5.574 5.574 0 0 1 1.64-5.92c.55-.48.69-1.27.34-1.9l-3.35-6.13-1-1.82a1.549 1.549 0 0 0-2.1-.62l-40.51 22.1h-3.33c-.86 0-1.55.69-1.55 1.55v1.11l-4.95 2.7c-.75.41-1.03 1.35-.62 2.1l3.35 6.13 1 1.82c.35.63 1.09.95 1.78.74 1.66-.48 3.43-.14 4.8.84a5.607 5.607 0 0 1-4.15 3.94c-.71.16-1.21.78-1.21 1.51v8.04c0 .86.69 1.55 1.55 1.55h6.29l.95 1.74c.41.75 1.35 1.03 2.1.62l4.33-2.36H67.7c.86 0 1.55-.69 1.55-1.55v-8.04c0-.72-.5-1.35-1.21-1.51-2.34-.52-4.1-2.5-4.33-4.93.23-2.43 1.99-4.42 4.33-4.93.71-.16 1.21-.78 1.21-1.51v-2.21l.79-.43c.75-.41 1.03-1.35.62-2.1Z" style="opacity:.6"/><path class="cls-12" d="M17.99 59.49c-.76 0-1.46-.41-1.82-1.08l-3.35-6.15c-.47-.86-.28-1.9.45-2.54a5.086 5.086 0 0 0 1.12-6.24 5.06 5.06 0 0 0-5.85-2.44 2.056 2.056 0 0 1-2.38-1l-3.34-6.13a2.07 2.07 0 0 1 .82-2.81L53.98 3.64c.3-.17.65-.25.99-.25.76 0 1.46.41 1.82 1.08l3.34 6.13c.46.84.27 1.91-.45 2.54a5.086 5.086 0 0 0-1.12 6.24 5.06 5.06 0 0 0 5.85 2.44 2.056 2.056 0 0 1 2.38 1l3.35 6.15c.26.49.33 1.04.17 1.58s-.51.97-.99 1.23L18.97 59.25c-.3.17-.65.25-.99.25Z"/><path class="cls-12" d="M54.97 3.9c.55 0 1.08.29 1.36.81l3.35 6.13c.35.63.21 1.43-.34 1.9a5.584 5.584 0 0 0-1.23 6.88 5.576 5.576 0 0 0 4.91 2.91c.52 0 1.04-.07 1.55-.22a1.54 1.54 0 0 1 1.78.74l3.35 6.15c.41.75.13 1.69-.62 2.1L18.73 58.77c-.24.13-.49.19-.74.19-.55 0-1.08-.29-1.36-.81L13.28 52c-.35-.64-.21-1.43.34-1.9a5.584 5.584 0 0 0 1.23-6.88 5.576 5.576 0 0 0-4.91-2.91c-.52 0-1.04.07-1.55.22a1.54 1.54 0 0 1-1.78-.74l-3.35-6.13c-.41-.75-.13-1.69.62-2.1L54.23 4.09c.24-.13.49-.19.74-.19m0-1.04c-.43 0-.86.11-1.24.32L3.38 30.65a2.585 2.585 0 0 0-1.03 3.51l3.35 6.13c.45.83 1.32 1.35 2.27 1.35.24 0 .48-.03.72-.1a4.531 4.531 0 0 1 5.25 2.19c1.01 1.86.59 4.21-1 5.6-.92.8-1.15 2.11-.57 3.18l3.35 6.15c.45.83 1.33 1.35 2.27 1.35.43 0 .86-.11 1.24-.32l50.35-27.47a2.54 2.54 0 0 0 1.24-1.54c.2-.66.12-1.36-.21-1.97l-3.35-6.15a2.581 2.581 0 0 0-2.27-1.35c-.24 0-.48.03-.72.1a4.531 4.531 0 0 1-5.25-2.19 4.578 4.578 0 0 1 1-5.6c.92-.8 1.15-2.11.57-3.18l-3.35-6.13a2.593 2.593 0 0 0-2.27-1.35Z"/><path d="M16.99 57.66c-.76 0-1.46-.41-1.82-1.08l-3.35-6.15c-.47-.86-.28-1.9.45-2.54a5.097 5.097 0 0 0 1.11-6.24 5.06 5.06 0 0 0-5.85-2.44 2.056 2.056 0 0 1-2.38-1L1.8 32.08c-.55-1-.18-2.26.83-2.81L52.98 1.81c.3-.17.65-.25.99-.25.76 0 1.46.41 1.82 1.08l3.35 6.13c.46.84.27 1.91-.45 2.54-1.78 1.55-2.24 4.17-1.11 6.24a5.06 5.06 0 0 0 5.85 2.44 2.056 2.056 0 0 1 2.38 1l3.35 6.14c.55 1 .17 2.26-.83 2.81L17.98 57.41c-.3.17-.65.25-.99.25Z" style="fill:#55baff;stroke-width:0"/><path class="cls-12" d="M53.97 2.08c.55 0 1.08.29 1.36.81l3.35 6.13c.35.63.21 1.43-.34 1.9a5.584 5.584 0 0 0-1.23 6.88 5.576 5.576 0 0 0 4.91 2.91c.52 0 1.04-.07 1.55-.22a1.54 1.54 0 0 1 1.78.74l3.35 6.15c.41.75.13 1.69-.62 2.1L17.73 56.95c-.24.13-.49.19-.74.19-.55 0-1.08-.29-1.36-.81l-3.35-6.15a1.53 1.53 0 0 1 .34-1.9 5.584 5.584 0 0 0 1.23-6.88 5.576 5.576 0 0 0-4.91-2.91c-.52 0-1.04.07-1.55.22a1.54 1.54 0 0 1-1.78-.74l-3.35-6.13c-.41-.75-.13-1.69.62-2.1L53.23 2.27c.24-.13.49-.19.74-.19m0-1.04c-.43 0-.86.11-1.24.32L2.39 28.83c-.61.33-1.05.88-1.24 1.54-.2.66-.12 1.36.21 1.97l3.35 6.13c.45.83 1.32 1.35 2.27 1.35.24 0 .48-.03.72-.1a4.531 4.531 0 0 1 5.25 2.19c1.01 1.86.59 4.21-1 5.6-.92.8-1.15 2.11-.57 3.18l3.35 6.15c.45.83 1.33 1.35 2.27 1.35.43 0 .86-.11 1.24-.32L68.59 30.4a2.585 2.585 0 0 0 1.03-3.51l-3.35-6.15A2.581 2.581 0 0 0 64 19.39c-.24 0-.48.03-.72.1a4.531 4.531 0 0 1-5.25-2.19 4.578 4.578 0 0 1 1-5.6c.92-.8 1.15-2.11.57-3.18l-3.35-6.13a2.593 2.593 0 0 0-2.27-1.35Z"/><path class="cls-1" d="m46.65 6.3.91 1.67"/><path class="cls-2" d="m49.37 11.28 9.94 18.23"/><path class="cls-1" d="m60.22 31.17.91 1.67M9.8 26.4l.91 1.67"/><path class="cls-2" d="m12.52 31.39 9.95 18.23"/><path class="cls-1" d="m23.37 51.27.91 1.68"/><path d="M9.38 56.93c-1.14 0-2.07-.93-2.07-2.07v-7c0-.98.66-1.8 1.62-2.01 2.3-.51 3.97-2.59 3.97-4.94s-1.67-4.44-3.97-4.94a2.054 2.054 0 0 1-1.62-2.01v-6.98c0-1.14.93-2.07 2.07-2.07h57.35c1.14 0 2.07.93 2.07 2.07v6.98c0 .98-.66 1.8-1.61 2.01-2.3.51-3.97 2.59-3.97 4.94s1.67 4.44 3.97 4.94c.95.21 1.61 1.04 1.61 2.01v7c0 1.14-.93 2.07-2.07 2.07H9.38Z" style="stroke-width:0;fill:#ba2267"/><path class="cls-7" d="M66.74 25.41c.86 0 1.55.69 1.55 1.55v6.98c0 .72-.5 1.35-1.21 1.51-2.5.55-4.38 2.78-4.38 5.45s1.87 4.9 4.38 5.45c.71.16 1.21.78 1.21 1.51v7c0 .86-.69 1.55-1.55 1.55H9.38c-.86 0-1.55-.69-1.55-1.55v-7c0-.72.5-1.35 1.21-1.51 2.5-.55 4.38-2.78 4.38-5.45s-1.87-4.9-4.38-5.45c-.71-.16-1.21-.78-1.21-1.51v-6.98c0-.86.69-1.55 1.55-1.55h57.35m.01-1.04H9.38a2.59 2.59 0 0 0-2.59 2.59v6.98c0 1.22.83 2.26 2.02 2.52 2.06.45 3.56 2.32 3.56 4.44s-1.5 3.98-3.56 4.44a2.56 2.56 0 0 0-2.02 2.52v7a2.59 2.59 0 0 0 2.59 2.59h57.35a2.59 2.59 0 0 0 2.59-2.59v-7c0-1.22-.83-2.26-2.02-2.52-2.06-.45-3.56-2.32-3.56-4.44s1.5-3.98 3.56-4.44a2.56 2.56 0 0 0 2.02-2.52v-6.98a2.59 2.59 0 0 0-2.59-2.59Z"/><path d="M9.38 55.9c-1.14 0-2.07-.93-2.07-2.07v-7c0-.98.66-1.8 1.62-2.01 2.3-.51 3.97-2.59 3.97-4.94s-1.67-4.44-3.97-4.94a2.054 2.054 0 0 1-1.62-2.01v-6.98c0-1.14.93-2.07 2.07-2.07h57.35c1.14 0 2.07.93 2.07 2.07v6.98c0 .96-.68 1.81-1.61 2.01-2.3.51-3.97 2.59-3.97 4.94s1.67 4.44 3.97 4.94c.95.21 1.61 1.04 1.61 2.01v7c0 1.14-.93 2.07-2.07 2.07H9.38Z" style="fill:#ef5e99;stroke-width:0"/><path class="cls-7" d="M66.74 24.37c.86 0 1.55.69 1.55 1.55v6.98c0 .72-.5 1.35-1.21 1.51-2.5.55-4.38 2.78-4.38 5.45s1.87 4.9 4.38 5.45c.71.16 1.21.78 1.21 1.51v7c0 .86-.69 1.55-1.55 1.55H9.38c-.86 0-1.55-.69-1.55-1.55v-7c0-.72.5-1.35 1.21-1.51 2.5-.55 4.38-2.78 4.38-5.45s-1.87-4.9-4.38-5.45c-.71-.16-1.21-.78-1.21-1.51v-6.98c0-.86.69-1.55 1.55-1.55h57.35m.01-1.03H9.38a2.59 2.59 0 0 0-2.59 2.59v6.98c0 1.22.83 2.26 2.02 2.52 2.06.45 3.56 2.32 3.56 4.44s-1.5 3.98-3.56 4.44a2.56 2.56 0 0 0-2.02 2.52v7a2.59 2.59 0 0 0 2.59 2.59h57.35a2.59 2.59 0 0 0 2.59-2.59v-7c0-1.22-.83-2.26-2.02-2.52-2.06-.45-3.56-2.32-3.56-4.44s1.5-3.98 3.56-4.44a2.56 2.56 0 0 0 2.02-2.52v-6.98a2.59 2.59 0 0 0-2.59-2.59Z"/><path class="cls-4" d="M59.03 24.76v1.9"/><path class="cls-3" d="M59.03 30.44V51.2"/><path class="cls-4" d="M59.03 53.09v1.9M17.05 24.76v1.9"/><path class="cls-3" d="M17.05 30.44V51.2"/><path class="cls-4" d="M17.05 53.09v1.9"/><rect class="cls-11" x="26.66" y="36.42" width="23.38" height="6.68" rx="3.34" ry="3.34" transform="rotate(-54.52 38.337 39.758)"/><rect class="cls-13" x="27.93" y="35.76" width="21.38" height="5.93" rx="2.96" ry="2.96" transform="rotate(-54.52 38.613 38.721)"/><rect class="cls-9" x="35.37" y="34.37" width="9.56" height="1.94" rx=".97" ry=".97" transform="rotate(-54.52 40.148 35.337)"/><circle class="cls-11" cx="30.28" cy="34.19" r="3.9"/><circle class="cls-13" cx="30.28" cy="33.67" r="3.38"/><circle class="cls-9" cx="30.28" cy="31.85" r="1.04"/><circle class="cls-11" cx="46.42" cy="45.32" r="3.9"/><circle class="cls-13" cx="46.42" cy="44.8" r="3.38"/><circle class="cls-9" cx="46.42" cy="42.98" r="1.04"/><path class="cls-6" d="M43.11 29.47c.6 0 1.2.18 1.72.55.03.02.06.06.09.08.07.04.14.09.21.13 1.5 1.07 1.85 3.16.78 4.66l-9.69 13.6a3.343 3.343 0 0 1-4.66.78 3.344 3.344 0 0 1-.78-4.66l9.69-13.6.22-.31c.58-.81 1.49-1.24 2.42-1.24m0-1.1c-1.32 0-2.56.64-3.32 1.71l-.22.31-9.69 13.6c-1.43 2-.96 4.79 1.04 6.21.76.54 1.65.83 2.58.83 1.44 0 2.79-.7 3.63-1.87l9.69-13.6c1.43-2 .96-4.78-1.04-6.21-.06-.04-.12-.08-.19-.12l-.12-.09c-.69-.49-1.51-.76-2.36-.76Z"/><path class="cls-6" d="M30.28 30.29c.12 0 .23 0 .35.02a3.899 3.899 0 0 1-.35 7.78c-2.16 0-3.9-1.74-3.9-3.9 0-2.04 1.56-3.7 3.55-3.88.11-.01.23-.02.35-.02m0-1.11c-.15 0-.31 0-.46.02a4.974 4.974 0 0 0-4.55 4.99c0 2.76 2.25 5.01 5.01 5.01s5.01-2.25 5.01-5.01c0-2.61-1.96-4.76-4.57-4.99-.14-.01-.29-.02-.44-.02ZM46.42 41.43c.12 0 .23 0 .35.02a3.899 3.899 0 0 1-.35 7.78c-2.16 0-3.9-1.74-3.9-3.9 0-2.04 1.56-3.7 3.55-3.88.11-.01.23-.02.35-.02m0-1.12c-.15 0-.31 0-.46.02a4.974 4.974 0 0 0-4.55 4.99c0 2.76 2.25 5.01 5.01 5.01s5.01-2.25 5.01-5.01c0-2.61-1.96-4.76-4.57-4.99-.14-.01-.29-.02-.44-.02Z"/><path class="cls-6" d="M53.97 2.08c.55 0 1.08.29 1.36.81l1 1.82 3.35 6.13c.35.63.21 1.43-.34 1.9a5.574 5.574 0 0 0-1.64 5.92 5.588 5.588 0 0 0 4.32 2.05c.51 0 1.03-.07 1.54-.22a1.54 1.54 0 0 1 1.78.74l1.74 3.18c.69.16 1.2.77 1.2 1.51v.7l.41.76 1 1.82c.41.75.13 1.69-.62 2.1l-.79.43v2.21c0 .72-.5 1.35-1.21 1.51-2.34.52-4.1 2.5-4.33 4.93.23 2.43 1.99 4.42 4.33 4.93.71.16 1.21.78 1.21 1.51v8.04c0 .86-.69 1.55-1.55 1.55H23.06l-4.33 2.36c-.24.13-.49.19-.74.19-.55 0-1.08-.29-1.36-.81l-.95-1.74H9.39c-.86 0-1.55-.69-1.55-1.55v-8.04c0-.72.5-1.35 1.21-1.51 2.01-.44 3.59-1.97 4.15-3.94-.96-.69-2.1-1.06-3.28-1.06-.51 0-1.02.07-1.52.22a1.54 1.54 0 0 1-1.78-.74l-1-1.82-3.35-6.13c-.41-.75-.13-1.69.62-2.1l4.95-2.7v-1.11c0-.86.69-1.55 1.55-1.55h3.33L53.23 2.27c.24-.13.49-.19.74-.19M53.98 0h-.01c-.6 0-1.2.15-1.74.44L12.19 22.3h-2.8c-1.96 0-3.56 1.56-3.63 3.51l-3.87 2.11a3.627 3.627 0 0 0-1.45 4.92l3.35 6.13 1 1.82a3.633 3.633 0 0 0 4.19 1.75c.31-.09.62-.13.94-.13.11 0 .21 0 .32.01-.45.43-1.01.73-1.63.87a3.6 3.6 0 0 0-2.84 3.54v8.04c0 2 1.63 3.63 3.63 3.63h5.06l.36.66a3.629 3.629 0 0 0 3.19 1.89c.6 0 1.2-.15 1.74-.44l3.86-2.11h43.15c2 0 3.63-1.63 3.63-3.63v-8.04c0-1.71-1.17-3.17-2.84-3.54-1.41-.31-2.47-1.47-2.69-2.9a3.46 3.46 0 0 1 2.69-2.9 3.6 3.6 0 0 0 2.84-3.54v-.99a3.622 3.622 0 0 0 1.15-4.74l-1-1.82-.16-.29v-.17c0-1.33-.71-2.5-1.8-3.14l-1.39-2.55A3.633 3.633 0 0 0 63 18.5c-.31.09-.64.14-.96.14-.92 0-1.8-.36-2.45-.99-.25-1.22.17-2.5 1.13-3.33a3.636 3.636 0 0 0 .8-4.46l-3.35-6.13-1-1.82A3.62 3.62 0 0 0 53.98 0Z"/></g></svg>