<svg width="50" height="48" viewBox="0 0 50 48" fill="none" xmlns="http://www.w3.org/2000/svg">
<g clip-path="url(#clip0_1_583)">
<path d="M25.0033 47.9997C35.9646 47.9997 44.8505 39.1286 44.8505 28.1855C44.8505 17.2424 35.9646 8.37122 25.0033 8.37122C14.042 8.37122 5.15613 17.2424 5.15613 28.1855C5.15613 39.1286 14.042 47.9997 25.0033 47.9997Z" fill="#439CF7"/>
<path d="M22.8041 36.0261C21.1696 36.1256 20.8373 38.1621 22.0001 38.9117C23.3224 39.7608 25.5151 39.9531 27.1031 39.5949C28.9038 39.1903 29.7676 38.5999 30.2858 37.4191C30.6048 36.6961 30.4918 35.4357 29.2692 35.1372C28.2858 34.8984 27.329 35.6613 25.947 35.973C25.1231 36.1588 22.8041 36.0327 22.8041 36.0327V36.0261Z" fill="white"/>
<path d="M25.4684 40.0794C24.1993 40.0794 22.8106 39.8075 21.8206 39.1773C21.1495 38.7461 20.8372 37.9103 21.0498 37.101C21.2624 36.2983 21.9202 35.7677 22.7774 35.7146C22.7907 35.7146 22.804 35.7146 22.8106 35.7146C23.4485 35.7478 25.2292 35.8075 25.8737 35.6615C26.3721 35.5488 26.8173 35.3763 27.2425 35.2038C27.9601 34.9186 28.6312 34.6532 29.3422 34.8257C29.8937 34.9584 30.3123 35.2834 30.5448 35.7544C30.804 36.2784 30.8106 36.9816 30.5648 37.5388C30.0066 38.8058 29.0498 39.4692 27.1628 39.8937C26.6644 40.0065 26.0797 40.0662 25.4684 40.0662V40.0794ZM22.804 36.3448C22.2325 36.3846 21.8073 36.7295 21.6678 37.2602C21.5481 37.7113 21.6545 38.3216 22.1661 38.6466C23.4817 39.4891 25.6079 39.6085 27.0299 39.2901C28.7442 38.9053 29.5149 38.3813 29.9933 37.2934C30.1329 36.9683 30.186 36.4575 29.98 36.0396C29.8272 35.7345 29.5614 35.5355 29.1893 35.4426C28.6777 35.3166 28.1462 35.5289 27.4751 35.7942C27.0498 35.9667 26.5581 36.159 26.0133 36.2784C25.1893 36.4642 23.0432 36.358 22.804 36.3448Z" fill="black"/>
<path d="M24.5448 38.0626C24.5448 38.0626 26.7774 38.3213 28.877 36.9415L24.5448 38.0626Z" fill="white"/>
<path d="M25.0099 38.3943C24.7176 38.3943 24.5382 38.3744 24.5116 38.3744C24.3388 38.3545 24.2192 38.202 24.2325 38.0295C24.2524 37.857 24.4119 37.731 24.578 37.7509C24.6046 37.7509 26.7309 37.9764 28.7043 36.6763C28.8505 36.5834 29.0431 36.6232 29.1428 36.7625C29.2358 36.9084 29.196 37.1008 29.0564 37.2003C27.4684 38.2484 25.8206 38.3943 25.0099 38.3943Z" fill="#D4D4D4"/>
<path d="M19.0367 33.2271C20.0973 33.2271 20.957 32.3688 20.957 31.31C20.957 30.2513 20.0973 29.3929 19.0367 29.3929C17.9762 29.3929 17.1165 30.2513 17.1165 31.31C17.1165 32.3688 17.9762 33.2271 19.0367 33.2271Z" fill="black"/>
<path d="M32.4518 32.8157C32.392 32.8157 32.3255 32.809 32.2657 32.7891L29.1959 31.887C28.9235 31.8074 28.7308 31.5619 28.7175 31.2833C28.7043 31.0047 28.8704 30.7394 29.1295 30.6333L32.1993 29.3928C32.5381 29.2535 32.9302 29.4193 33.0631 29.7576C33.2026 30.0959 33.0365 30.4807 32.6976 30.62L31.3953 31.144L32.6378 31.5089C32.99 31.615 33.1893 31.9799 33.0896 32.3314C33.0033 32.6233 32.7375 32.809 32.4518 32.809V32.8157Z" fill="black"/>
<path d="M32.5317 26.0626C32.4321 26.0626 32.3258 26.0361 32.2327 25.983C30.9437 25.2533 29.6613 25.9565 29.6081 25.983C29.3158 26.1488 28.9437 26.0427 28.7776 25.7508C28.6115 25.459 28.7111 25.0941 29.0035 24.9283C29.0832 24.8819 30.9304 23.8537 32.8307 24.9283C33.1231 25.0941 33.2228 25.4656 33.0566 25.7575C32.9437 25.9565 32.7377 26.0626 32.5251 26.0626H32.5317Z" fill="black"/>
<path d="M20.0132 25.8569C19.9135 25.8569 19.8072 25.8304 19.7142 25.7773C18.4251 25.0476 17.1427 25.7508 17.0896 25.7773C16.7972 25.9432 16.4251 25.837 16.259 25.5451C16.0929 25.2533 16.1926 24.8884 16.4849 24.7226C16.5647 24.6762 18.4118 23.648 20.3122 24.7226C20.6045 24.8884 20.7042 25.2599 20.5381 25.5518C20.4251 25.7508 20.2192 25.8569 20.0065 25.8569H20.0132Z" fill="black"/>
<path d="M31.1961 37.9369L30.6512 36.4643C30.5117 36.0795 30.206 35.781 29.8207 35.6351L28.3456 35.0911L29.8207 34.5472C30.206 34.4079 30.5051 34.1027 30.6512 33.718L31.1961 32.2454L31.7409 33.718C31.8805 34.1027 32.1861 34.4012 32.5715 34.5472L34.0466 35.0911L32.5715 35.6351C32.1861 35.7744 31.8871 36.0795 31.7409 36.4643L31.1961 37.9369Z" fill="white"/>
<path d="M1.26244 28.5037C0.192672 21.0277 2.63121 16.5567 4.87041 14.1222C7.30895 11.4688 9.99333 10.6131 10.1063 10.58L10.5183 11.9133L10.3123 11.2433L10.5183 11.9067C10.1196 12.0327 0.757456 15.1372 2.63785 28.298L1.25579 28.497L1.26244 28.5037Z" fill="#1B021A"/>
<path d="M4.0532 21.5918C4.0532 21.5918 0.717653 22.0694 0.086424 25.3132C-0.55145 28.5636 2.42529 30.5404 4.41201 30.7792L4.0532 21.5852V21.5918Z" fill="#343235"/>
<path d="M6.80382 22.3279C6.80382 21.3827 6.0378 20.6165 5.09286 20.6165C4.14792 20.6165 3.3819 21.3827 3.3819 22.3279V29.5849C3.3819 30.5301 4.14792 31.2964 5.09286 31.2964C6.0378 31.2964 6.80382 30.5301 6.80382 29.5849V22.3279Z" fill="#1B021A"/>
<path d="M48.7444 28.1656L47.3557 28.0064C47.967 22.7262 46.8175 18.4144 43.9271 15.1905C41.7942 12.8025 39.4819 11.9534 39.462 11.9467L39.9337 10.6333C40.04 10.6731 50.3191 14.5471 48.7377 28.1723L48.7444 28.1656Z" fill="#1B021A"/>
<path d="M45.9468 21.2732C45.9468 21.2732 49.2824 21.7508 49.9136 24.9946C50.5515 28.245 47.5747 30.2218 45.588 30.4606L45.9468 21.2666V21.2732Z" fill="#343235"/>
<path d="M43.2027 29.2734C43.2027 30.2186 43.9687 30.9849 44.9137 30.9849C45.8586 30.9849 46.6246 30.2186 46.6246 29.2734V22.0164C46.6246 21.0712 45.8586 20.3049 44.9137 20.3049C43.9687 20.3049 43.2027 21.0712 43.2027 22.0164V29.2734Z" fill="#1B021A"/>
<g opacity="0.26">
<path d="M8.97662 17.5186C8.97662 17.5186 10.0198 20.4705 10.8039 21.8503C12.5182 24.8685 37.269 23.9597 39.2424 21.9299C39.8736 21.2798 41.4816 16.8884 41.4816 16.8884L8.97662 17.5252V17.5186Z" fill="black"/>
</g>
<path d="M8.80402 17.0345L10.6113 8.29157C11.6014 3.46238 15.8605 -0.000305176 20.7974 -0.000305176H29.5017C34.3987 -0.000305176 38.6379 3.40931 39.6744 8.19207L41.5548 16.882C41.5548 16.882 28.6047 9.12739 8.80402 17.0345Z" fill="#343235"/>
<path d="M8.80402 17.0343L9.70767 20.0525C10.0798 21.0807 11.216 21.6048 12.2459 21.2267C16.4319 19.6877 27.1362 16.6827 37.8937 21.2996C38.9435 21.7507 40.1529 21.22 40.5316 20.1454L41.4884 16.8817C41.4884 16.8817 25.701 5.96299 8.81066 17.0343H8.80402Z" fill="#0A0A0A"/>
<path d="M8.84375 16.8886L9.7474 19.3761C10.1195 20.4043 11.2557 20.9284 12.2856 20.5502C16.4717 19.0113 27.176 16.0063 37.9334 20.6232C38.9833 21.0743 40.1926 20.5436 40.5713 19.469L41.5281 16.736C41.5281 16.736 25.7408 5.81724 8.85039 16.8886H8.84375Z" fill="#343235"/>
<path d="M39.6746 8.19214C39.5018 7.39612 39.236 6.64654 38.8972 5.93012C38.4121 7.7278 37.7011 9.63161 36.7709 10.3547C34.8174 11.8671 23.9138 11.3696 17.6879 9.63824C13.7144 8.53045 13.0101 5.52548 13.0101 3.50226C11.834 4.82896 10.9835 6.4608 10.6048 8.29164L8.79749 17.0346C27.1098 9.72448 39.5483 15.7941 41.3224 16.756C41.3888 16.756 41.4553 16.7427 41.5217 16.7361L39.6746 8.19214Z" fill="#1C1B1C"/>
<path d="M28.5514 11.7146C29.3037 11.7146 29.9135 11.1058 29.9135 10.3547C29.9135 9.60371 29.3037 8.99487 28.5514 8.99487C27.7991 8.99487 27.1893 9.60371 27.1893 10.3547C27.1893 11.1058 27.7991 11.7146 28.5514 11.7146Z" fill="white"/>
<path d="M27.0696 4.84881C27.8293 4.84881 28.445 4.23403 28.445 3.47567C28.445 2.71731 27.8293 2.10254 27.0696 2.10254C26.31 2.10254 25.6942 2.71731 25.6942 3.47567C25.6942 4.23403 26.31 4.84881 27.0696 4.84881Z" fill="white"/>
<path d="M27.3489 6.00297L26.7841 7.72768C26.6978 7.98638 26.9303 8.24509 27.1961 8.18539L28.9702 7.80728C29.236 7.74758 29.3423 7.42254 29.1629 7.22353L27.9469 5.87693C27.7609 5.67129 27.4287 5.74426 27.3423 6.00297H27.3489Z" fill="white"/>
<path d="M22.3848 5.8363L20.9124 6.31391C20.7344 6.37165 20.637 6.56251 20.6949 6.74021L21.1733 8.21017C21.2311 8.38786 21.4223 8.48511 21.6003 8.42737L23.0727 7.94976C23.2507 7.89202 23.3481 7.70116 23.2902 7.52346L22.8118 6.0535C22.754 5.87581 22.5628 5.77856 22.3848 5.8363Z" fill="white"/>
<path d="M26.1595 11.3762V8.41762C26.1595 8.22345 26.0019 8.06604 25.8074 8.06604H24.2592C24.0647 8.06604 23.9071 8.22345 23.9071 8.41762V11.3762C23.9071 11.5703 24.0647 11.7277 24.2592 11.7277H25.8074C26.0019 11.7277 26.1595 11.5703 26.1595 11.3762Z" fill="white"/>
<path d="M21.8085 3.04363C22.6793 2.41198 23.8951 2.60422 24.5278 3.47361C24.6489 3.63998 24.6161 3.87699 24.4441 4.00176L23.1701 4.92584C23.0034 5.04671 22.766 5.01392 22.641 4.84219L21.7154 3.5703C21.5943 3.40394 21.6272 3.16693 21.7992 3.04216L21.8085 3.04363Z" fill="white"/>
<path d="M24.8371 4.38426L23.4617 5.37928C23.3421 5.46552 23.2956 5.61809 23.3354 5.75739L23.8604 7.36933C23.9069 7.50863 24.0331 7.6015 24.1859 7.6015H25.8869C26.0331 7.6015 26.166 7.50863 26.2125 7.36933L26.7374 5.75739C26.7839 5.61809 26.7374 5.46552 26.6112 5.37928L25.2358 4.38426C25.1162 4.29802 24.9567 4.29802 24.8371 4.38426Z" fill="white"/>
<path d="M43.6345 42.8587C42.5515 42.8587 41.0365 42.4142 39.0166 41.5121C38.7442 41.3927 38.6179 41.0676 38.7442 40.7956C38.8638 40.5237 39.1893 40.3976 39.4618 40.5237C43.4086 42.2816 44.2657 41.7376 44.4385 41.5253C45.0764 40.7426 43.5149 37.8106 42.2591 36.0792C42.0863 35.8338 42.1395 35.4955 42.3787 35.323C42.6179 35.1439 42.9634 35.2036 43.1362 35.4424C43.7408 36.2716 46.6711 40.4905 45.2824 42.2086C44.9302 42.6398 44.392 42.8587 43.6345 42.8587Z" fill="black"/>
<path d="M35.7808 43.469C35.6546 43.469 35.5682 43.469 35.5283 43.469C35.0233 43.4425 34.638 43.0113 34.6645 42.5072C34.6911 42.003 35.123 41.5984 35.628 41.6448C36.2326 41.6714 37.2293 41.5321 37.5084 41.1739C37.5416 41.134 37.628 41.0213 37.5616 40.7029C37.3423 40.4707 36.7111 39.9533 35.6546 40.1722C35.1562 40.2717 34.6778 39.9533 34.5715 39.4624C34.4719 38.9649 34.7908 38.4873 35.2825 38.3811C37.7941 37.8637 39.0898 39.6747 39.1429 39.7543C39.1961 39.8339 39.2426 39.9201 39.2692 40.013C39.6081 41.134 39.2758 41.877 38.9436 42.3082C38.113 43.3629 36.4386 43.4757 35.7808 43.4757V43.469Z" fill="black"/>
<path d="M36.2592 41.9301C35.8871 41.9301 35.4685 41.897 35.0034 41.8174C34.5051 41.7378 34.1662 41.2601 34.2526 40.7626C34.3323 40.2651 34.8041 39.9334 35.3091 40.013C36.4187 40.1988 37.0499 40.0528 37.3755 39.9069C37.2426 39.1573 37.1164 37.8439 37.5283 36.4575C37.6745 35.9732 38.1795 35.6946 38.6645 35.8406C39.1496 35.9799 39.4287 36.4907 39.2825 36.9749C38.8307 38.5072 39.2692 39.9865 39.2758 40.0064C39.3556 40.2651 39.3157 40.5504 39.1629 40.7759C39.0765 40.9086 38.3323 41.9301 36.2659 41.9301H36.2592Z" fill="black"/>
</g>
<defs>
<clipPath id="clip0_1_583">
<rect width="50" height="48" fill="white"/>
</clipPath>
</defs>
</svg>
