<svg width="15" height="15" viewBox="0 0 15 15" fill="none" xmlns="http://www.w3.org/2000/svg">
<path fill-rule="evenodd" clip-rule="evenodd" d="M11.784 10.6316C13.7823 8.31123 13.7516 4.90695 11.5633 2.61216C9.13414 0.064811 4.96614 -0.15075 2.25384 2.13069C-0.458469 4.41213 -0.687989 8.32663 1.74119 10.874C3.92927 13.1685 7.52816 13.5711 10.2032 11.9611C10.2521 12.1051 10.3336 12.2421 10.4481 12.3621L11.9897 13.9788C12.4214 14.4314 13.1593 14.472 13.6379 14.0694C14.1166 13.6668 14.1547 12.9735 13.723 12.5208L12.1814 10.9042C12.0669 10.7842 11.931 10.6931 11.784 10.6316ZM10.4089 3.58306C12.2665 5.53103 12.091 8.52448 10.0169 10.2691C7.9428 12.0137 4.75551 11.8489 2.8979 9.90092C1.0403 7.95295 1.21581 4.95951 3.28993 3.21488C5.36404 1.47025 8.55133 1.63509 10.4089 3.58306ZM5.81592 6.95798C6.38749 7.55735 6.52749 8.31522 6.12863 8.65073C5.72976 8.98624 4.94306 8.77233 4.37149 8.17295C3.79992 7.57358 3.65992 6.81571 4.05878 6.4802C4.45765 6.14469 5.24435 6.3586 5.81592 6.95798ZM8.72852 6.46255C9.12739 6.12704 8.98738 5.36917 8.41581 4.7698C7.84424 4.17042 7.05754 3.95651 6.65868 4.29202C6.25981 4.62752 6.39981 5.38539 6.97138 5.98477C7.54295 6.58415 8.32965 6.79805 8.72852 6.46255Z" fill="#112D70"/>
</svg>
