<svg width="18" height="17" viewBox="0 0 18 17" fill="none" xmlns="http://www.w3.org/2000/svg">
<path d="M0.909191 8.42019C-0.103359 7.08506 0.706015 5.05469 2.44461 4.56339L14.745 1.08912C16.8756 0.487256 18.4913 2.61772 17.3371 4.50704L10.6735 15.4139C9.732 16.9561 7.55805 17.1873 6.54598 15.8528L5.62508 14.6385C5.52329 14.5043 5.47178 14.3374 5.47851 14.163L5.57208 11.7136L9.61582 8.6469C9.98979 8.36329 10.082 7.85589 9.8225 7.51368C9.56297 7.17147 9.0495 7.12344 8.67553 7.40705L4.60708 10.4925L2.27087 9.93338C2.10111 9.89282 1.95478 9.79879 1.85301 9.66459L0.909191 8.42019Z" fill="#112D70"/>
</svg>
