<?xml version="1.0" encoding="UTF-8"?><svg id="Layer_2" xmlns="http://www.w3.org/2000/svg" viewBox="0 0 273.97 67.51"><defs><style>.cls-1{fill:#0084ff;}</style></defs><g id="Layer_1-2"><rect class="cls-1" x="16.05" y="47.7" width="19.8" height="19.8" rx="3.02" ry="3.02" transform="translate(51.94 115.19) rotate(179.97)"/><path d="M85.61,44.71l-.1-.05c-1.65,1.18-3.75,1.85-6.02,1.85-6.69,0-12.14-5.09-12.14-12.96s5.66-13.68,13.73-13.68c2.62,0,4.99.67,7.1,1.85l5.25-1.34v36.88h-7.82v-12.55ZM81.5,26.45c-4.17,0-6.28,3.19-6.28,6.94s2.11,6.79,6.12,6.79c1.75,0,3.24-.62,4.27-1.39v-11.32c-1.13-.62-2.52-1.03-4.11-1.03Z"/><path d="M116.68,43.99l-.1-.05c-2.01,1.59-4.63,2.57-7.56,2.57s-5.2-.87-6.84-2.73-2.26-3.96-2.26-7.51v-15.84h7.82v14.56c0,1.85.26,2.98.98,3.75.72.77,1.95,1.08,3.14,1.08,1.75,0,3.4-.77,4.73-1.75v-17.64h7.82v25.51h-7.72v-1.96Z"/><path d="M129.28,33.19c0-7.51,6.02-13.32,14.09-13.32s14.09,5.81,14.09,13.32-6.02,13.32-14.09,13.32-14.09-5.81-14.09-13.32ZM149.65,33.19c0-3.65-2.73-6.58-6.28-6.58s-6.28,2.93-6.28,6.58,2.73,6.58,6.28,6.58,6.28-2.93,6.28-6.58Z"/><path d="M160.09,20.43h4.22v-6.28l7.77-1.9v8.18h6.79v6.48h-6.79v9c0,2.67,1.13,4.06,3.45,4.06,1.18,0,2.42-.36,3.34-.72v6.17c-1.29.62-3.4,1.08-5.56,1.08-6.07,0-9-3.45-9-9.77v-9.83h-4.22v-6.48Z"/><path d="M182.82,12.62c0-2.47,2.06-4.48,4.53-4.48s4.53,2.01,4.53,4.48-2.06,4.47-4.53,4.47-4.53-2.01-4.53-4.47ZM183.44,20.43h7.82v25.51h-7.82v-25.51Z"/><path d="M210.55,46.51c-8.49,0-14.4-5.14-14.4-13.27s6.07-13.37,13.22-13.37c6.38,0,12.14,4.01,12.14,12.71,0,.88-.05,2.01-.15,2.67h-17.23c.77,3.5,3.65,5.09,7.41,5.09,2.88,0,5.92-1.03,8.59-2.67v6.58c-2.42,1.44-6.17,2.26-9.57,2.26ZM214.3,30.41c-.41-3.14-2.52-4.58-5.04-4.58s-4.63,1.54-5.2,4.58h10.24Z"/><path d="M226.59,20.43h7.72v2.11l.1.05c1.95-1.59,4.63-2.73,7.77-2.73,2.83,0,5.09.88,6.69,2.62,1.59,1.75,2.21,4.01,2.21,7.41v16.05h-7.82v-14.97c0-1.49-.26-2.62-.98-3.34-.72-.72-1.7-1.03-2.93-1.03-1.85,0-3.7.82-4.94,1.9v17.44h-7.82v-25.51Z"/><path d="M255.19,20.43h4.22v-6.28l7.77-1.9v8.18h6.79v6.48h-6.79v9c0,2.67,1.13,4.06,3.45,4.06,1.18,0,2.42-.36,3.34-.72v6.17c-1.29.62-3.4,1.08-5.56,1.08-6.07,0-9-3.45-9-9.77v-9.83h-4.22v-6.48Z"/><circle cx="25.95" cy="11" r="10.99"/><rect class="cls-1" x="0" y="26.38" width="51.9" height="15.59" rx="2.23" ry="2.23"/></g></svg>