<?xml version="1.0" encoding="UTF-8"?><svg id="Layer_2" xmlns="http://www.w3.org/2000/svg" viewBox="0 0 47.5 44.93"><defs><style>.cls-1{fill:#73e1ff;}.cls-2{fill:#00abe0;}.cls-3{fill:#00cfff;}</style></defs><g id="Layer_1-2"><path class="cls-3" d="M39.93,1.11L12.68,0C8.34-.17,4.65,3.24,4.47,7.58c-.17,4.34,3.23,8.03,7.57,8.21l7.19.29L2.53,31.25c-3.19,2.94-3.39,7.96-.45,11.16,2.94,3.19,7.96,3.39,11.16.45l17.75-16.15-.37,9.22c-.18,4.34,3.23,8.03,7.57,8.21,4.34.18,8.03-3.23,8.21-7.57l1.1-27.25s0,0,0,0c.18-4.34-3.23-8.03-7.57-8.21Z"/><path class="cls-1" d="M16.14,2.43l-1.06-.04c-1.99-.08-3.69,1.48-3.78,3.48s1.48,3.69,3.48,3.78l1.06.04c1.99.08,3.69-1.48,3.78-3.48s-1.48-3.69-3.48-3.78Z"/><path class="cls-1" d="M43.33,7.18c.08-1.99-1.48-3.69-3.48-3.78l-14.51-.6c-1.99-.08-3.69,1.48-3.78,3.48h0c-.08,1.99,1.48,3.69,3.48,3.78l6.04.25c-.44,1.18-.28,2.55.57,3.58,1.27,1.54,3.57,1.77,5.11.5l5.1-4.19c.52-.43.88-.98,1.09-1.58.22-.44.35-.93.37-1.45h0Z"/><path class="cls-2" d="M30.87,26.82c.18-1.91-1.11-2.66-2.44-1.28l-15.18,14.33c-3.19,2.94-8.21,2.74-11.16-.45-1.03-1.12-1.65-2.46-1.92-3.85-.45,2.38.16,4.93,1.92,6.84,2.94,3.19,7.96,3.39,11.16.45l17.63-16.03h0Z"/><path class="cls-2" d="M12.04,15.78l6.88.19c.3,0,.53-.28.45-.58-.39-1.58-1.85-2.37-3.61-2.45l-3.72-.15c-3.71-.15-6.71-2.87-7.41-6.37-.07.38-.15.75-.16,1.15-.17,4.34,3.23,8.03,7.57,8.21Z"/><path class="cls-2" d="M47.42,8.13l-1.03,25.45c-.18,4.34-3.87,7.74-8.21,7.57-3.93-.16-7.07-3.22-7.5-7.02l-.07,1.8c-.18,4.34,3.23,8.03,7.57,8.21,4.34.18,8.03-3.23,8.21-7.57l1.1-27.25s0,0,0,0c.02-.4-.03-.8-.07-1.19Z"/></g></svg>