<?xml version="1.0" encoding="UTF-8"?><svg id="Layer_2" xmlns="http://www.w3.org/2000/svg" viewBox="0 0 71 80.15"><defs><style>.cls-1{fill:#ffeb31;}.cls-1,.cls-2,.cls-3,.cls-4,.cls-5,.cls-6,.cls-7,.cls-8{stroke-width:0px;}.cls-2{fill:#ea606e;}.cls-3{fill:#f4929c;}.cls-4{fill:#c54049;}.cls-5{fill:#ffd503;}.cls-6{fill:#ff6464;}.cls-7{fill:#000;}.cls-9{opacity:.5;}.cls-8{fill:#fff;}</style></defs><g id="Layer_2-2"><g class="cls-9"><circle class="cls-7" cx="35.5" cy="44.65" r="35.5"/></g><ellipse class="cls-4" cx="35.83" cy="55.87" rx="30.25" ry="16.57"/><ellipse class="cls-2" cx="35.83" cy="52.55" rx="23.34" ry="11.6"/><path class="cls-6" d="M40.62,12.48c4.14,1.66,10.22,3.67,15.53,3.66,2.12,0,3.85,1.69,3.85,3.82v9.83c0,1.99-1.51,3.65-3.49,3.81-2.83.23-12.32-.87-18.05-2.59-4.31-1.29-1.86-3.55-2.97-5.29-.44-.68-.63-1.48-.58-2.28l.48-7.65c.16-2.6,2.82-4.28,5.24-3.3Z"/><ellipse class="cls-4" cx="35.83" cy="50.9" rx="16.67" ry="8.29"/><ellipse class="cls-3" cx="35.83" cy="48.41" rx="10.91" ry="5.42"/><rect class="cls-8" x="32.66" y="10.29" width="5.8" height="39.78" rx="2.9" ry="2.9"/><path class="cls-5" d="M37,3.06l.57.91c.57.91,1.48,1.57,2.52,1.83l1.04.26c1.39.35,1.94,2.04,1.02,3.14l-.69.82c-.69.83-1.04,1.89-.96,2.96l.07,1.07c.1,1.43-1.34,2.48-2.67,1.94l-.99-.4c-1-.4-2.12-.4-3.12,0l-.99.4c-1.33.54-2.77-.51-2.67-1.94l.07-1.07c.07-1.08-.27-2.14-.96-2.96l-.69-.82c-.92-1.1-.37-2.79,1.02-3.14l1.04-.26c1.05-.26,1.95-.92,2.52-1.83l.57-.91c.76-1.22,2.54-1.22,3.3,0Z"/><path class="cls-1" d="M36.72,3.48l.47.75c.48.76,1.23,1.31,2.1,1.53l.86.22c1.16.29,1.62,1.7.85,2.61l-.57.68c-.58.69-.86,1.57-.8,2.47l.06.89c.08,1.19-1.11,2.06-2.22,1.61l-.83-.33c-.83-.34-1.76-.34-2.6,0l-.83.33c-1.11.45-2.3-.42-2.22-1.61l.06-.89c.06-.9-.23-1.78-.8-2.47l-.57-.68c-.77-.92-.31-2.32.85-2.61l.86-.22c.87-.22,1.62-.77,2.1-1.53l.47-.75c.64-1.01,2.11-1.01,2.75,0Z"/><ellipse class="cls-8" cx="37.21" cy="6.56" rx="1.24" ry="2.07" transform="translate(3.52 23.66) rotate(-36.91)"/><ellipse class="cls-4" cx="35.83" cy="55.87" rx="30.25" ry="16.57"/><ellipse class="cls-2" cx="35.83" cy="52.55" rx="23.34" ry="11.6"/><path class="cls-6" d="M40.62,12.48c4.14,1.66,10.22,3.67,15.53,3.66,2.12,0,3.85,1.69,3.85,3.82v9.83c0,1.99-1.51,3.65-3.49,3.81-2.83.23-12.32-.87-18.05-2.59-4.31-1.29-1.86-3.55-2.97-5.29-.44-.68-.63-1.48-.58-2.28l.48-7.65c.16-2.6,2.82-4.28,5.24-3.3Z"/><ellipse class="cls-4" cx="35.83" cy="50.9" rx="16.67" ry="8.29"/><ellipse class="cls-3" cx="35.83" cy="48.41" rx="10.91" ry="5.42"/><rect class="cls-8" x="32.66" y="10.29" width="5.8" height="39.78" rx="2.9" ry="2.9"/><path class="cls-5" d="M37,3.06l.57.91c.57.91,1.48,1.57,2.52,1.83l1.04.26c1.39.35,1.94,2.04,1.02,3.14l-.69.82c-.69.83-1.04,1.89-.96,2.96l.07,1.07c.1,1.43-1.34,2.48-2.67,1.94l-.99-.4c-1-.4-2.12-.4-3.12,0l-.99.4c-1.33.54-2.77-.51-2.67-1.94l.07-1.07c.07-1.08-.27-2.14-.96-2.96l-.69-.82c-.92-1.1-.37-2.79,1.02-3.14l1.04-.26c1.05-.26,1.95-.92,2.52-1.83l.57-.91c.76-1.22,2.54-1.22,3.3,0Z"/><path class="cls-1" d="M36.72,3.48l.47.75c.48.76,1.23,1.31,2.1,1.53l.86.22c1.16.29,1.62,1.7.85,2.61l-.57.68c-.58.69-.86,1.57-.8,2.47l.06.89c.08,1.19-1.11,2.06-2.22,1.61l-.83-.33c-.83-.34-1.76-.34-2.6,0l-.83.33c-1.11.45-2.3-.42-2.22-1.61l.06-.89c.06-.9-.23-1.78-.8-2.47l-.57-.68c-.77-.92-.31-2.32.85-2.61l.86-.22c.87-.22,1.62-.77,2.1-1.53l.47-.75c.64-1.01,2.11-1.01,2.75,0Z"/><ellipse class="cls-8" cx="37.21" cy="6.56" rx="1.24" ry="2.07" transform="translate(3.52 23.66) rotate(-36.91)"/><path class="cls-7" d="M35.35,2.15c.63,0,1.27.3,1.65.91l.57.91c.57.91,1.48,1.57,2.52,1.83l1.04.26c1.39.35,1.94,2.04,1.02,3.14l-.69.82c-.58.69-.9,1.54-.95,2.43.04.01.08.02.11.04,4.13,1.66,10.2,3.66,15.5,3.66,0,0,.02,0,.03,0h0c2.12,0,3.84,1.7,3.84,3.82v9.83c0,1.99-1.51,3.65-3.49,3.81-.25.02-.55.03-.89.03-3.57,0-11.93-1.05-17.16-2.62v8.35c15.48.73,27.62,7.84,27.62,16.51,0,9.15-13.54,16.57-30.25,16.57s-30.25-7.42-30.25-16.57c0-8.57,11.86-15.61,27.07-16.48v-23.37c-.2.06-.4.09-.59.09-1.07,0-2.01-.9-1.93-2.07l.07-1.07c.07-1.08-.27-2.14-.96-2.96l-.69-.82c-.92-1.1-.37-2.79,1.02-3.14l1.04-.26c1.05-.26,1.95-.92,2.52-1.83l.57-.91c.38-.61,1.02-.91,1.65-.91M35.35,0c-1.42,0-2.72.72-3.47,1.92l-.57.91c-.28.45-.71.76-1.22.89l-1.04.26c-1.38.34-2.46,1.36-2.9,2.71-.44,1.35-.16,2.81.75,3.89l.69.82c.34.4.5.91.47,1.44l-.07,1.07c-.08,1.14.31,2.23,1.08,3.06.4.43.9.77,1.43.99v19.45c-15.57,1.46-27.07,9.2-27.07,18.47,0,10.5,14.23,18.72,32.4,18.72s32.4-8.22,32.4-18.72c0-9.44-11.74-17.2-27.62-18.52v-3.56c5.34,1.24,11.93,1.98,15.01,1.98.41,0,.75-.01,1.06-.04,3.07-.24,5.47-2.86,5.47-5.95v-9.83c0-3.29-2.69-5.96-5.99-5.96-4.26,0-9.09-1.39-12.89-2.8l.52-.63c.91-1.09,1.19-2.54.75-3.89-.44-1.35-1.52-2.36-2.9-2.71l-1.04-.26c-.51-.13-.94-.44-1.22-.89l-.57-.91c-.75-1.2-2.05-1.92-3.47-1.92h0Z"/></g></svg>