<?xml version="1.0" encoding="UTF-8"?>
<svg id="Layer_2" data-name="Layer 2" xmlns="http://www.w3.org/2000/svg" xmlns:xlink="http://www.w3.org/1999/xlink" viewBox="0 0 71 71">
  <defs>
    <style>
      .cls-1, .cls-2, .cls-3, .cls-4, .cls-5, .cls-6 {
        stroke-width: 0px;
      }

      .cls-1, .cls-2, .cls-4 {
        fill: #000;
      }

      .cls-1, .cls-7 {
        opacity: .5;
      }

      .cls-1, .cls-3, .cls-4, .cls-5 {
        fill-rule: evenodd;
      }

      .cls-8 {
        stroke: #000;
        stroke-width: 2px;
      }

      .cls-8, .cls-6 {
        fill: #fff;
      }

      .cls-3 {
        fill: #eefc54;
      }

      .cls-5 {
        fill: #64dcfa;
      }

      .cls-9 {
        mask: url(#mask-1);
      }

      .cls-10 {
        mask: url(#mask);
      }
    </style>
    <mask id="mask" x="3.93" y="5.26" width="62.04" height="58.6" maskUnits="userSpaceOnUse">
      <g id="path-1-outside-1_3644_1089" data-name="path-1-outside-1 3644 1089">
        <rect class="cls-6" x="3.93" y="5.26" width="62.04" height="58.6"/>
        <path class="cls-4" d="M42.04,11.7c-3.44-4-9.63-4-13.07,0l-4.71,5.47c-.87,1.02-1.97,1.81-3.21,2.33l-6.66,2.79c-4.86,2.03-6.78,7.92-4.04,12.43l3.75,6.17c.7,1.15,1.12,2.44,1.23,3.77l.59,7.19c.43,5.26,5.44,8.89,10.57,7.68l7.03-1.66c1.3-.31,2.66-.31,3.97,0l7.03,1.66c5.13,1.21,10.14-2.43,10.57-7.68l.59-7.19c.11-1.34.53-2.63,1.23-3.77l3.75-6.17c2.74-4.51.83-10.39-4.04-12.43l-6.66-2.79c-1.24-.52-2.34-1.32-3.21-2.33l-4.71-5.47ZM35.51,52.92c9.33,0,16.9-7.57,16.9-16.9s-7.57-16.9-16.9-16.9-16.9,7.57-16.9,16.9,7.56,16.9,16.9,16.9Z"/>
      </g>
    </mask>
    <mask id="mask-1" x="17.98" y="18.47" width="36.19" height="36.21" maskUnits="userSpaceOnUse">
      <g id="path-3-outside-2_3644_1089-2" data-name="path-3-outside-2 3644 1089">
        <rect class="cls-6" x="17.98" y="18.49" width="36.19" height="36.19"/>
        <path class="cls-4" d="M35.51,50.1c7.78,0,14.08-6.3,14.08-14.08s-6.3-14.08-14.08-14.08-14.08,6.3-14.08,14.08,6.3,14.08,14.08,14.08ZM39.27,38.84c0,2.07-1.68,3.75-3.75,3.75s-3.75-1.68-3.75-3.75h7.51ZM32.69,34.14c0,1.56-1.26,2.82-2.82,2.82s-2.82-1.26-2.82-2.82,1.26-2.82,2.82-2.82,2.82,1.26,2.82,2.82ZM41.14,36.96c1.56,0,2.82-1.26,2.82-2.82s-1.26-2.82-2.82-2.82-2.82,1.26-2.82,2.82,1.26,2.82,2.82,2.82Z"/>
      </g>
    </mask>
  </defs>
  <g id="Layer_2-2" data-name="Layer 2">
    <g>
      <g class="cls-7">
        <circle class="cls-2" cx="35.5" cy="35.5" r="35.5"/>
      </g>
      <path class="cls-1" d="M35.49,19.65c-3.44-4-9.63-4-13.07,0l-4.71,5.47c-.87,1.02-1.97,1.81-3.21,2.33l-6.66,2.79c-4.86,2.03-6.78,7.92-4.04,12.43l3.75,6.17c.7,1.15,1.12,2.44,1.23,3.77l.59,7.19c.43,5.26,5.44,8.89,10.57,7.68l7.03-1.66c1.3-.31,2.66-.31,3.97,0l7.03,1.66c5.13,1.21,10.14-2.43,10.57-7.68l.59-7.19c.11-1.34.53-2.63,1.23-3.77l3.75-6.17c2.74-4.51.83-10.39-4.04-12.43l-6.66-2.79c-1.24-.52-2.34-1.32-3.21-2.33l-4.71-5.47Z"/>
      <g id="path-3-outside-2_3644_1089" data-name="path-3-outside-2 3644 1089">
        <rect class="cls-6" x="18" y="19" width="36" height="36"/>
        <path class="cls-4" d="M35.51,50.1c7.78,0,14.08-6.3,14.08-14.08s-6.3-14.08-14.08-14.08-14.08,6.3-14.08,14.08,6.3,14.08,14.08,14.08ZM39.27,39c0,2.07-1.68,3.75-3.75,3.75s-3.75-1.68-3.75-3.75h7.51ZM32.69,34.14c0,1.56-1.26,2.82-2.82,2.82s-2.82-1.26-2.82-2.82,1.26-2.82,2.82-2.82,2.82,1.26,2.82,2.82ZM41.14,36.96c1.56,0,2.82-1.26,2.82-2.82s-1.26-2.82-2.82-2.82-2.82,1.26-2.82,2.82,1.26,2.82,2.82,2.82Z"/>
      </g>
      <path class="cls-3" d="M42.04,11.7c-3.44-4-9.63-4-13.07,0l-4.71,5.47c-.87,1.02-1.97,1.81-3.21,2.33l-6.66,2.79c-4.86,2.03-6.78,7.92-4.04,12.43l3.75,6.17c.7,1.15,1.12,2.44,1.23,3.77l.59,7.19c.43,5.26,5.44,8.89,10.57,7.68l7.03-1.66c1.3-.31,2.66-.31,3.97,0l7.03,1.66c5.13,1.21,10.14-2.43,10.57-7.68l.59-7.19c.11-1.34.53-2.63,1.23-3.77l3.75-6.17c2.74-4.51.83-10.39-4.04-12.43l-6.66-2.79c-1.24-.52-2.34-1.32-3.21-2.33l-4.71-5.47ZM35.51,52.92c9.33,0,16.9-7.57,16.9-16.9s-7.57-16.9-16.9-16.9-16.9,7.57-16.9,16.9,7.56,16.9,16.9,16.9Z"/>
      <g class="cls-10">
        <path class="cls-2" d="M28.97,11.7l2.61,2.25-2.61-2.25ZM42.04,11.7l2.61-2.25h0l-2.61,2.25ZM24.27,17.17l2.61,2.25h0l-2.61-2.25ZM21.06,19.51l-1.33-3.18h0l1.33,3.18ZM14.4,22.29l1.33,3.18h0l-1.33-3.18ZM10.36,34.72l2.94-1.79-2.94,1.79ZM14.11,40.89l2.94-1.79-2.94,1.79ZM15.34,44.66l-3.44.28,3.44-.28ZM15.93,51.85l3.44-.28-3.44.28ZM26.5,59.53l-.79-3.35h0l.79,3.35ZM33.52,57.87l.79,3.35h0l-.79-3.35ZM37.49,57.87l-.79,3.35h0l.79-3.35ZM44.51,59.53l.79-3.35-.79,3.35ZM55.09,51.85l3.44.28-3.44-.28ZM55.68,44.66l-3.44-.28h0l3.44.28ZM56.9,40.89l2.94,1.79h0l-2.94-1.79ZM60.65,34.72l2.94,1.79-2.94-1.79ZM56.62,22.29l1.33-3.18-1.33,3.18ZM49.96,19.51l-1.33,3.18,1.33-3.18ZM46.75,17.17l2.61-2.25h0l-2.61,2.25ZM31.59,13.95c2.06-2.4,5.78-2.4,7.84,0l5.23-4.49c-4.81-5.6-13.48-5.6-18.29,0l5.23,4.49ZM26.88,19.42l4.71-5.47-5.23-4.49-4.71,5.47,5.23,4.49ZM22.39,22.69c1.73-.72,3.27-1.84,4.49-3.26l-5.23-4.49c-.52.61-1.18,1.09-1.93,1.4l2.66,6.36ZM15.73,25.47l6.66-2.79-2.66-6.36-6.66,2.79,2.66,6.36ZM13.3,32.93c-1.64-2.7-.5-6.24,2.42-7.46l-2.66-6.36c-6.81,2.85-9.49,11.09-5.65,17.4l5.89-3.58ZM17.05,39.1l-3.75-6.17-5.89,3.58,3.75,6.17,5.89-3.58ZM18.77,44.38c-.15-1.87-.74-3.68-1.72-5.28l-5.89,3.58c.42.69.67,1.46.74,2.26l6.87-.56ZM19.36,51.57l-.59-7.19-6.87.56.59,7.19,6.87-.56ZM25.7,56.18c-3.08.73-6.08-1.46-6.34-4.61l-6.87.56c.6,7.36,7.62,12.45,14.8,10.75l-1.59-6.71ZM32.73,54.52l-7.03,1.66,1.59,6.71,7.03-1.66-1.59-6.71ZM38.28,54.52c-1.83-.43-3.73-.43-5.55,0l1.59,6.71c.78-.19,1.6-.19,2.38,0l1.59-6.71ZM45.31,56.18l-7.03-1.66-1.59,6.71,7.03,1.66,1.59-6.71ZM51.65,51.57c-.26,3.15-3.26,5.34-6.34,4.61l-1.59,6.71c7.18,1.7,14.2-3.4,14.8-10.75l-6.87-.56ZM52.24,44.38l-.59,7.19,6.87.56.59-7.19-6.87-.56ZM53.96,39.1c-.97,1.6-1.56,3.41-1.72,5.28l6.87.56c.07-.8.32-1.58.74-2.26l-5.89-3.58ZM57.71,32.93l-3.75,6.17,5.89,3.58,3.75-6.17-5.89-3.58ZM55.29,25.47c2.92,1.22,4.07,4.75,2.42,7.46l5.89,3.58c3.84-6.31,1.16-14.55-5.65-17.4l-2.66,6.36ZM48.63,22.69l6.66,2.79,2.66-6.36-6.66-2.79-2.66,6.36ZM44.13,19.42c1.22,1.42,2.76,2.54,4.49,3.26l2.66-6.36c-.74-.31-1.4-.79-1.93-1.4l-5.23,4.49ZM39.43,13.95l4.71,5.47,5.23-4.49-4.71-5.47-5.23,4.49ZM36,49.45v6.89c11.24,0,20.34-9.11,20.34-20.34h-6.89c0,7.43-6.02,13.45-13.45,13.45ZM49.45,36h6.89c0-11.24-9.11-20.34-20.34-20.34v6.89c7.43,0,13.45,6.02,13.45,13.45ZM36,22.55v-6.89c-11.24,0-20.34,9.11-20.34,20.34h6.89c0-7.43,6.02-13.45,13.45-13.45ZM22.55,36h-6.89c0,11.24,9.11,20.34,20.34,20.34v-6.89c-7.43,0-13.45-6.02-13.45-13.45Z"/>
      </g>
      <path class="cls-5" d="M35.51,50.1c7.78,0,14.08-6.3,14.08-14.08s-6.3-14.08-14.08-14.08-14.08,6.3-14.08,14.08,6.3,14.08,14.08,14.08ZM39.27,39c0,2.07-1.68,3.75-3.75,3.75s-3.75-1.68-3.75-3.75h7.51ZM32.69,34.14c0,1.56-1.26,2.82-2.82,2.82s-2.82-1.26-2.82-2.82,1.26-2.82,2.82-2.82,2.82,1.26,2.82,2.82ZM41.14,36.96c1.56,0,2.82-1.26,2.82-2.82s-1.26-2.82-2.82-2.82-2.82,1.26-2.82,2.82,1.26,2.82,2.82,2.82Z"/>
      <g class="cls-9">
        <path class="cls-2" d="M39,39h3v-3h-3v3ZM32,39v-3h-3v3h3ZM36,46.63v6.89c9.68,0,17.53-7.85,17.53-17.53h-6.89c0,5.87-4.76,10.63-10.63,10.63ZM46.63,36h6.89c0-9.68-7.85-17.53-17.53-17.53v6.89c5.87,0,10.63,4.76,10.63,10.63ZM36,25.37v-6.89c-9.68,0-17.53,7.85-17.53,17.53h6.89c0-5.87,4.76-10.63,10.63-10.63ZM25.37,36h-6.89c0,9.68,7.85,17.53,17.53,17.53v-6.89c-5.87,0-10.63-4.76-10.63-10.63ZM36,46.2c3.98,0,7.2-3.22,7.2-7.2h-6.89c0,.17-.14.31-.31.31v6.89ZM28.8,39c0,3.98,3.22,7.2,7.2,7.2v-6.89c-.17,0-.31-.14-.31-.31h-6.89ZM40,35h-8v7h8v-7ZM30,40.26c3.46,0,6.26-2.8,6.26-6.26h-6.89c0-.35.28-.63.63-.63v6.89ZM23.74,34c0,3.46,2.8,6.26,6.26,6.26v-6.89c.35,0,.63.28.63.63h-6.89ZM30,27.74c-3.46,0-6.26,2.8-6.26,6.26h6.89c0,.35-.28.63-.63.63v-6.89ZM36.26,34c0-3.46-2.8-6.26-6.26-6.26v6.89c-.35,0-.63-.28-.63-.63h6.89ZM40.37,34c0-.35.28-.63.63-.63v6.89c3.46,0,6.26-2.8,6.26-6.26h-6.89ZM41,34.63c-.35,0-.63-.28-.63-.63h6.89c0-3.46-2.8-6.26-6.26-6.26v6.89ZM41.63,34c0,.35-.28.63-.63.63v-6.89c-3.46,0-6.26,2.8-6.26,6.26h6.89ZM41,33.37c.35,0,.63.28.63.63h-6.89c0,3.46,2.8,6.26,6.26,6.26v-6.89Z"/>
      </g>
      <circle class="cls-8" cx="53.34" cy="12.55" r="5.48"/>
      <circle class="cls-8" cx="17.67" cy="12.55" r="5.48"/>
      <circle class="cls-8" cx="9.22" cy="46.35" r="5.48"/>
      <circle class="cls-8" cx="61.37" cy="46.35" r="5.48"/>
    </g>
  </g>
</svg>