<svg width="14" height="14" viewBox="0 0 14 14" fill="none" xmlns="http://www.w3.org/2000/svg">
<path d="M13.4831 0.516897C13.3207 0.35311 13.1274 0.223109 12.9144 0.134392C12.7015 0.0456755 12.4731 0 12.2424 0C12.0117 0 11.7833 0.0456755 11.5704 0.134392C11.3574 0.223109 11.1642 0.35311 11.0017 0.516897L7 4.53607L2.9983 0.516897C2.66925 0.187843 2.22295 0.00298242 1.7576 0.00298243C1.29224 0.00298244 0.845952 0.187843 0.516897 0.516897C0.187843 0.845952 0.00298244 1.29224 0.00298243 1.7576C0.00298242 2.22295 0.187843 2.66925 0.516897 2.9983L4.53607 7L0.516897 11.0017C0.35311 11.1642 0.223109 11.3574 0.134392 11.5704C0.0456755 11.7833 0 12.0117 0 12.2424C0 12.4731 0.0456755 12.7015 0.134392 12.9144C0.223109 13.1274 0.35311 13.3207 0.516897 13.4831C0.679347 13.6469 0.872619 13.7769 1.08556 13.8656C1.29851 13.9543 1.52691 14 1.7576 14C1.98828 14 2.21669 13.9543 2.42963 13.8656C2.64258 13.7769 2.83585 13.6469 2.9983 13.4831L7 9.46393L11.0017 13.4831C11.1642 13.6469 11.3574 13.7769 11.5704 13.8656C11.7833 13.9543 12.0117 14 12.2424 14C12.4731 14 12.7015 13.9543 12.9144 13.8656C13.1274 13.7769 13.3207 13.6469 13.4831 13.4831C13.6469 13.3207 13.7769 13.1274 13.8656 12.9144C13.9543 12.7015 14 12.4731 14 12.2424C14 12.0117 13.9543 11.7833 13.8656 11.5704C13.7769 11.3574 13.6469 11.1642 13.4831 11.0017L9.46393 7L13.4831 2.9983C13.6469 2.83585 13.7769 2.64258 13.8656 2.42963C13.9543 2.21669 14 1.98828 14 1.7576C14 1.52691 13.9543 1.29851 13.8656 1.08556C13.7769 0.872619 13.6469 0.679347 13.4831 0.516897Z" fill="#ACACAC"/>
</svg>
