<?xml version="1.0" encoding="UTF-8"?><svg id="Layer_2" xmlns="http://www.w3.org/2000/svg" viewBox="0 0 100.58 67"><defs><style>.cls-1{fill:#fff;}.cls-2{fill:#e9e9e9;}.cls-3{opacity:.5;}.cls-4{fill:red;}.cls-5{fill:#b2b2b2;}</style></defs><g id="Layer_2-2"><g class="cls-3"><circle cx="33.5" cy="33.5" r="33.5"/></g><path class="cls-4" d="M97.63,38h-43.47c-1.62,0-2.94-1.32-2.94-2.94v-18.95c0-1.62,1.32-2.94,2.94-2.94h43.47c2.32,0,3.73,2.57,2.48,4.53l-4.03,6.31c-.62.97-.62,2.2,0,3.17l4.03,6.31c1.25,1.96-.16,4.53-2.48,4.53Z"/><path d="M54.75,15.64s0-.07-.01-.1c0-.02-.02-.09-.02-.11-.11-.65-.26-1.32-.45-1.97l-.04-.13-.02-.06c-.08-.26-.17-.52-.26-.78l-.08-.22c-.11-.31-.23-.61-.37-.91,0,0,0-.01,0-.02-.14-.31-.28-.61-.44-.92l-.08-.15-.03-.06c-.12-.23-.25-.46-.38-.69l-.03-.04-.11-.18c-.17-.27-.34-.55-.52-.81-.21-.3-.41-.57-.61-.83l-.12-.15-.05-.06c-.16-.2-.32-.39-.49-.58l-.04-.04-.15-.17c-.22-.24-.44-.47-.66-.69-.27-.27-.52-.49-.77-.71l-.17-.14-.05-.04c-.19-.16-.39-.32-.59-.47l-.04-.03-.2-.15c-.26-.19-.53-.38-.81-.56-.32-.21-.61-.38-.91-.55l-.21-.11-.06-.03c-.22-.12-.45-.24-.68-.35l-.06-.03c-.07-.04-.15-.07-.22-.11-.32-.15-.64-.29-.97-.41-1.98-.76-4.05-1.15-6.15-1.15-7,0-13.41,4.39-15.95,10.92l-2.64,6.83c-3.07.02-5.87,1.95-6.98,4.82l-.67,1.73-7.08,18.31c-.45,1.15-.58,2.35-.46,3.5-.34,3.3,1.53,6.55,4.77,7.8l26.73,10.33c.87.34,1.79.51,2.71.51,3.09,0,5.91-1.94,7.03-4.82l7.08-18.31.67-1.73c.44-1.15.58-2.35.45-3.51.21-2.14-.5-4.27-1.95-5.85l2.21-5.72c.85-2.2,1.22-4.54,1.12-6.88.06-1.14,0-2.28-.17-3.41ZM51.97,37.46c-.06.48-.16.96-.34,1.43l-.67,1.73-7.08,18.31c-.92,2.37-3.17,3.82-5.57,3.82-.72,0-1.44-.13-2.15-.4l-26.73-10.33c-2.1-.81-3.48-2.68-3.76-4.77.06-.47.17-.93.35-1.39l7.08-18.31.67-1.73c.92-2.37,3.17-3.82,5.57-3.82.33,0,.66.03,1,.08l3.06-7.91c2.39-6.15,8.26-9.92,14.49-9.92,1.86,0,3.75.34,5.58,1.04.3.12.59.24.88.38.09.04.17.08.26.12.21.1.42.21.62.32.08.04.16.09.24.13.27.15.54.31.8.48.01,0,.02.01.03.02.25.16.49.33.73.51.07.05.15.11.22.17.18.14.36.28.53.42.07.06.14.11.2.17.23.2.46.4.67.61,0,0,.02.02.03.03.21.2.41.41.6.63.06.06.12.13.17.19.15.17.3.35.45.53.05.06.1.12.15.19.19.24.37.48.54.73,0,0,0,.01.01.02.17.24.32.49.48.74.04.07.08.14.12.21.12.21.24.41.35.62.03.06.07.12.1.19.14.27.27.55.4.83,0,0,0,0,0,0,.12.28.23.56.34.84.02.07.05.13.07.2.08.24.16.47.23.71.02.06.04.12.05.17.17.59.31,1.2.41,1.81,0,.03.01.05.02.08,0,0,0-.01,0-.02.09.56.14,1.12.17,1.69-.08,1.6-.41,3.21-1.01,4.79l-3.06,7.91c.17.11.31.24.46.36l-.46,1.2c1.48.95,2.44,2.49,2.68,4.18ZM39.22,64.24c-.29.04-.58.07-.88.07.3,0,.59-.03.88-.07ZM18.42,20.51c.16-.02.32-.03.48-.04-.16,0-.32.02-.48.04ZM37.89,2.69c.46,0,.93.02,1.4.06-.46-.04-.93-.06-1.4-.06ZM37.88,2.68c-.4,0-.79.02-1.18.05.39-.03.79-.05,1.18-.05h0Z"/><path d="M46.22,18.18c0-.24-.01-.48-.03-.72-.28-3.07-2.24-5.87-5.3-7.05-.99-.38-2.01-.56-3.01-.56-3.35,0-6.52,2.03-7.8,5.35l-3.01,7.8.52.2-.52,1.36,15.59,6.03,3.01-7.8c.12-.3.21-.6.29-.9.02-.09.04-.18.06-.27.05-.22.09-.43.12-.65.01-.1.02-.2.03-.3.02-.22.04-.43.04-.65,0-.09,0-.18,0-.27,0-.24-.01-.48-.03-.72,0-.01,0-.03,0-.04.02-.18.03-.36.04-.53,0-.09,0-.18,0-.27ZM31.53,17.32c1.01-2.6,3.55-4.35,6.34-4.35.84,0,1.66.15,2.45.46,2.38.92,4.01,3.06,4.29,5.6,0,.05-.01.1-.02.14-.03.18-.06.35-.1.53l-.03.13-.02.09c-.07.27-.15.51-.23.74l-2.45,6.34-12.16-4.7,1.93-4.98Z"/><path class="cls-2" d="M43.46,3.73c-8-3.08-16.98.89-20.07,8.88l-3.44,8.91c-.24.62.07,1.31.68,1.54l4.45,1.72c.62.24,1.31-.07,1.54-.68l3.44-8.91c1.66-4.31,6.5-6.45,10.81-4.78s6.45,6.5,4.78,10.81l-3.44,8.91c-.24.62.07,1.31.68,1.54l4.45,1.72c.62.24,1.31-.07,1.54-.68l3.44-8.91c3.08-8-.89-16.98-8.88-20.07Z"/><path class="cls-1" d="M23.8,14.45c3.1-7.99,12.08-11.96,20.08-8.88,4.71,1.83,8.02,5.7,9.32,10.21-.84-5.28-4.39-9.98-9.73-12.05-8-3.08-16.98.89-20.07,8.88l-3.44,8.91c-.22.57.02,1.2.55,1.48l3.31-8.55Z"/><path class="cls-1" d="M46.07,23.06c.74-1.91.73-3.93.11-5.73.14,1.28-.02,2.61-.51,3.9l-3.44,8.91c-.22.57.02,1.2.55,1.48l3.31-8.55Z"/><path class="cls-5" d="M21.49,20.84l26.73,10.33c3.08,1.19,4.61,4.65,3.42,7.72l-7.75,20.05c-1.19,3.08-4.65,4.61-7.72,3.42l-26.73-10.33c-3.08-1.19-4.61-4.65-3.42-7.72l7.75-20.05c1.19-3.08,4.65-4.6,7.72-3.42Z"/><path d="M35.68,40.4c1.2-3.07-.31-6.53-3.38-7.74-3.07-1.2-6.53.31-7.74,3.38-.83,2.12-.38,4.53,1.16,6.21l-3.18,5.68c-.32.58-.12,1.3.46,1.62.05.03.1.05.15.07l4.45,1.72c.61.24,1.31-.05,1.55-.67.02-.06.04-.11.05-.17l1.46-6.35c2.25-.21,4.18-1.67,5.01-3.77Z"/><path class="cls-1" d="M48.22,31.17l-26.73-10.33c-3.08-1.19-6.53.34-7.72,3.42l-.67,1.73c1.19-3.08,4.65-4.6,7.72-3.42l26.73,10.33c3.08,1.19,4.61,4.65,3.42,7.72l.67-1.73c1.19-3.08-.34-6.53-3.42-7.72Z"/><path class="cls-1" d="M60.29,27.53c-.1-.02-.19-.04-.29-.04-.1,0-.18,0-.25-.02s-.11-.05-.15-.09-.06-.11-.07-.19c-.01-.08-.02-.19-.02-.31v-5.32c0-.16-.02-.3-.05-.43-.03-.13-.11-.24-.23-.33-.12-.09-.32-.13-.6-.13s-.48.04-.61.13c-.12.09-.2.19-.23.33s-.04.28-.04.43v5.4c0,.38.03.7.08.96s.13.47.24.64c.11.16.25.29.43.39.18.09.39.16.63.19.25.04.53.05.85.05.1,0,.2-.01.3-.03.1-.02.18-.1.25-.22.07-.12.11-.33.11-.61s-.04-.47-.11-.58c-.07-.12-.15-.19-.25-.21Z"/><path class="cls-1" d="M65.58,23.63c-.46-.27-.96-.4-1.53-.4-.41,0-.8.08-1.16.24s-.68.38-.96.66c-.28.28-.5.6-.65.96-.16.36-.23.75-.23,1.17,0,.45.09.86.26,1.23s.41.69.7.95c.3.27.63.47.99.61s.73.22,1.09.22.71-.07,1.07-.2c.35-.14.68-.34.97-.6.29-.26.53-.58.7-.95s.26-.79.26-1.27c0-.56-.14-1.07-.41-1.53-.27-.46-.64-.82-1.09-1.09ZM65.12,26.96c-.13.19-.3.33-.49.42-.19.09-.39.14-.57.14s-.38-.04-.57-.13c-.19-.09-.36-.23-.48-.42-.13-.19-.19-.43-.19-.71,0-.24.06-.46.17-.65.11-.19.26-.34.44-.45.18-.11.39-.16.62-.16.25,0,.47.05.66.16.19.11.34.25.45.44.11.19.16.41.16.65,0,.29-.07.53-.2.71Z"/><path class="cls-1" d="M72.28,27.08c-.12-.08-.23-.12-.34-.12-.09,0-.18.03-.27.08-.09.05-.18.11-.27.17-.04.02-.09.06-.16.1-.07.04-.15.08-.25.11s-.21.05-.34.05c-.22,0-.42-.05-.59-.16-.18-.1-.32-.25-.42-.43-.1-.18-.16-.38-.16-.61s.05-.44.16-.62c.11-.18.25-.32.43-.42s.38-.15.61-.15c.13,0,.25.02.35.06.1.04.2.09.29.15.09.06.18.11.28.17s.2.09.32.12c.23.03.47-.12.7-.44.07-.09.13-.19.18-.27.05-.09.07-.18.08-.26,0-.16-.04-.3-.14-.4s-.22-.2-.35-.3c-.07-.07-.19-.15-.34-.25-.16-.09-.35-.17-.58-.24-.23-.07-.49-.1-.78-.1-.34,0-.68.06-1.03.19-.35.13-.68.32-.98.57s-.53.56-.71.92c-.18.37-.27.79-.27,1.27s.09.91.27,1.28c.18.37.42.68.72.94.3.25.63.44.98.57.35.13.7.19,1.05.19.29,0,.55-.04.78-.1.23-.07.42-.15.58-.23.16-.09.27-.16.33-.21.18-.12.31-.24.4-.36.09-.12.12-.26.1-.4s-.09-.29-.22-.46c-.14-.18-.27-.31-.39-.39Z"/><path class="cls-1" d="M76.8,26.24l1.26-1.15c.23-.23.35-.43.36-.6s-.11-.39-.36-.66c-.15-.16-.29-.27-.42-.32-.13-.05-.27-.04-.4.01-.14.05-.28.16-.44.3l-1.31,1.26v-3.53c0-.16-.01-.3-.04-.44-.03-.14-.1-.25-.22-.33-.12-.08-.32-.12-.6-.12s-.48.04-.61.12c-.12.08-.2.19-.23.32s-.05.28-.05.43v6.74c0,.16.01.3.04.44s.1.25.23.33c.12.08.33.12.61.12s.49-.04.61-.12c.12-.08.19-.19.22-.32.03-.13.04-.28.04-.43v-1.01l1.85,1.61c.16.15.31.25.43.3.12.05.25.05.38,0,.13-.05.28-.17.45-.35.23-.25.33-.47.32-.66s-.14-.39-.39-.6l-1.73-1.36Z"/><path class="cls-1" d="M84.82,26.48c.21-.21.31-.52.31-.95,0-.24-.05-.49-.16-.76-.1-.26-.27-.51-.48-.74s-.49-.42-.82-.56c-.33-.14-.72-.22-1.17-.22-.61,0-1.15.13-1.61.39s-.83.62-1.1,1.07c-.27.45-.4.97-.4,1.55,0,.36.06.72.18,1.08.12.36.31.68.56.98.25.29.57.53.96.71s.86.27,1.41.27c.49,0,.91-.04,1.26-.13.35-.09.62-.2.81-.35.19-.15.29-.32.29-.5,0-.08-.01-.16-.03-.23-.02-.08-.06-.16-.11-.25-.08-.15-.17-.26-.26-.33-.1-.07-.2-.11-.32-.1-.06,0-.13.02-.19.05-.07.02-.14.05-.23.09-.09.04-.18.07-.28.1-.1.04-.22.06-.36.08-.14.02-.3.03-.49.03-.22,0-.42-.04-.62-.12-.19-.08-.36-.19-.48-.33s-.2-.31-.22-.51h2.78c.32,0,.58-.1.79-.31ZM83.37,25.77c-.06.04-.15.06-.27.06h-1.85c0-.18.05-.35.16-.5.11-.16.25-.28.44-.37.19-.09.4-.14.64-.14.19,0,.35.03.5.09.14.06.26.14.34.25.09.11.13.23.13.37,0,.12-.03.21-.09.25Z"/><path class="cls-1" d="M91.48,21.14c-.03-.13-.1-.24-.22-.32-.12-.08-.33-.12-.61-.12s-.49.04-.61.13c-.12.09-.19.2-.2.33s-.03.28-.03.43v2.32c-.13-.12-.28-.23-.44-.32-.28-.15-.61-.23-.99-.23-.35,0-.69.08-1.01.23-.32.16-.61.37-.86.64s-.45.58-.6.92c-.14.35-.22.71-.22,1.09s.07.77.22,1.13.34.67.59.94.54.48.86.64c.32.15.66.23,1.01.23.39,0,.73-.08,1.01-.24.15-.09.29-.19.41-.31v.03c.04.18.12.31.26.4.13.09.33.13.6.13.28,0,.48-.04.6-.13.12-.09.19-.2.22-.33s.04-.28.04-.43v-6.73c0-.16-.01-.3-.04-.43ZM89.59,26.86c-.1.18-.24.32-.41.43-.17.11-.36.16-.57.16s-.39-.05-.57-.16c-.18-.1-.32-.25-.42-.43-.1-.18-.15-.38-.15-.6s.05-.43.15-.6c.1-.18.23-.31.41-.42.18-.1.37-.15.58-.15s.41.05.58.15c.17.1.31.24.41.42.1.18.15.38.15.6s-.05.42-.16.6Z"/></g></svg>