<?xml version="1.0" encoding="UTF-8"?><svg id="Layer_2" xmlns="http://www.w3.org/2000/svg" viewBox="0 0 47.8 47.8"><defs><style>.cls-1{fill:#ff8a8a;}.cls-2{fill:#ff5f5f;}.cls-3{fill:#d12626;}</style></defs><g id="Layer_1-2"><path class="cls-2" d="M35.67,23.97l9.66-9.55c3.26-3.22,3.29-8.52.07-11.77h0c-3.22-3.26-8.52-3.29-11.77-.07l-9.66,9.55L14.42,2.46c-3.22-3.26-8.52-3.29-11.77-.07-3.26,3.22-3.29,8.52-.07,11.77l9.55,9.66-9.66,9.55c-3.26,3.22-3.29,8.52-.07,11.77s8.52,3.29,11.77.07l9.66-9.55,9.55,9.66c3.22,3.26,8.52,3.29,11.77.07,3.26-3.22,3.29-8.52.07-11.77l-9.55-9.66Z"/><path class="cls-3" d="M12.07,24.34s.99-1.89.06-4.01S2.58,10.66,2.58,10.66c-1.15-1.17-1.88-2.6-2.2-4.1-.57,2.66.16,5.54,2.2,7.61l9.49,10.17Z"/><path class="cls-3" d="M45.33,10.92s-8.84,8.3-9.66,9.55.06,3.87.06,3.87l9.6-9.92c2.09-2.06,2.84-4.98,2.27-7.67-.33,1.53-1.08,2.99-2.27,4.16Z"/><path class="cls-3" d="M44.52,42.46c-3.37,2.72-8.31,2.23-11.35-.84l-7.21-7.3c-1.18-1.19-3.09-1.2-4.28-.03l-7.3,7.21c-3.07,3.03-7.99,3.47-11.33.74-1.54-1.26-2.48-2.93-2.86-4.7-.63,2.93.32,6.13,2.87,8.22,3.33,2.72,8.23,2.31,11.29-.71l9.48-9.37,9.36,9.48c3.03,3.07,7.96,3.53,11.32.82,2.57-2.07,3.53-5.29,2.91-8.24-.38,1.79-1.35,3.47-2.91,4.73Z"/><path class="cls-1" d="M39.34,4.02c-1.31-1.31-3.46-1.31-4.77,0l-.7.7c-1.31,1.31-1.31,3.46,0,4.77,1.31,1.31,3.46,1.31,4.77,0l.7-.7c1.31-1.31,1.31-3.46,0-4.77Z"/><path class="cls-1" d="M32.4,10.56c-1.2-1.2-3.17-1.2-4.37,0l-4.91,4.91L12.49,4.83c-1.31-1.31-3.46-1.31-4.77,0s-1.31,3.46,0,4.77l12.42,12.42c.18.18.38.33.58.46l.28.28c1.2,1.2,3.17,1.2,4.37,0l7.43-7.43c1.2-1.2,1.2-3.17,0-4.37l-.4-.4Z"/><path class="cls-2" d="M35.67,23.97l9.66-9.55c3.26-3.22,3.29-8.52.07-11.77h0c-3.22-3.26-8.52-3.29-11.77-.07l-9.66,9.55L14.42,2.46c-3.22-3.26-8.52-3.29-11.77-.07-3.26,3.22-3.29,8.52-.07,11.77l9.55,9.66-9.66,9.55c-3.26,3.22-3.29,8.52-.07,11.77s8.52,3.29,11.77.07l9.66-9.55,9.55,9.66c3.22,3.26,8.52,3.29,11.77.07,3.26-3.22,3.29-8.52.07-11.77l-9.55-9.66Z"/><path class="cls-3" d="M12.07,24.34s.99-1.89.06-4.01S2.58,10.66,2.58,10.66c-1.15-1.17-1.88-2.6-2.2-4.1-.57,2.66.16,5.54,2.2,7.61l9.49,10.17Z"/><path class="cls-3" d="M45.33,10.92s-8.84,8.3-9.66,9.55.06,3.87.06,3.87l9.6-9.92c2.09-2.06,2.84-4.98,2.27-7.67-.33,1.53-1.08,2.99-2.27,4.16Z"/><path class="cls-3" d="M44.52,42.46c-3.37,2.72-8.31,2.23-11.35-.84l-7.21-7.3c-1.18-1.19-3.09-1.2-4.28-.03l-7.3,7.21c-3.07,3.03-7.99,3.47-11.33.74-1.54-1.26-2.48-2.93-2.86-4.7-.63,2.93.32,6.13,2.87,8.22,3.33,2.72,8.23,2.31,11.29-.71l9.48-9.37,9.36,9.48c3.03,3.07,7.96,3.53,11.32.82,2.57-2.07,3.53-5.29,2.91-8.24-.38,1.79-1.35,3.47-2.91,4.73Z"/><path class="cls-1" d="M39.34,4.02c-1.31-1.31-3.46-1.31-4.77,0l-.7.7c-1.31,1.31-1.31,3.46,0,4.77,1.31,1.31,3.46,1.31,4.77,0l.7-.7c1.31-1.31,1.31-3.46,0-4.77Z"/><path class="cls-1" d="M32.4,10.56c-1.2-1.2-3.17-1.2-4.37,0l-4.91,4.91L12.49,4.83c-1.31-1.31-3.46-1.31-4.77,0s-1.31,3.46,0,4.77l12.42,12.42c.18.18.38.33.58.46l.28.28c1.2,1.2,3.17,1.2,4.37,0l7.43-7.43c1.2-1.2,1.2-3.17,0-4.37l-.4-.4Z"/></g></svg>