<?xml version="1.0" encoding="UTF-8"?><svg id="Layer_2" xmlns="http://www.w3.org/2000/svg" viewBox="0 0 71 74.29"><defs><style>.cls-1{fill:#008e6c;}.cls-1,.cls-2,.cls-3,.cls-4,.cls-5,.cls-6,.cls-7,.cls-8,.cls-9,.cls-10{stroke-width:0px;}.cls-2{fill:#3bff8f;}.cls-3{fill:#000;}.cls-4{fill:#007249;}.cls-5{fill:#06ff94;}.cls-6{fill:#00d37d;}.cls-11{opacity:.5;}.cls-7{fill:#00996a;}.cls-8{fill:#57ffab;}.cls-9{fill:#ffe161;}.cls-10{fill:#fff;}</style></defs><g id="Layer_2-2"><g class="cls-11"><path class="cls-3" d="M51.68,69.54c-4.85,2.49-10.35,3.89-16.18,3.89C15.89,73.43,0,57.54,0,37.93S15.89,2.43,35.5,2.43s35.5,15.89,35.5,35.5c0,13.78-7.85,25.72-19.32,31.61"/></g><path class="cls-3" d="M69.99,36.26c0-.32,0-.64-.05-.95.29-1.94-.4-3.89-1.88-5.21l-5.25-4.69c-.65-.58-1.12-1.35-1.37-2.18l.19-3.32c.02-.34,0-.68-.04-1.03l.04-.65c0-.07,0-.13,0-.2v-.13c.02-.27,0-.55-.02-.83l.03-.52c.02-.27,0-.53-.02-.79,0-.19,0-.37-.02-.56l.04-.65c.09-1.6-.49-3.19-1.59-4.35-1.1-1.17-2.65-1.83-4.25-1.83-.08,0-.16,0-.24,0h-.01s-.1,0-.15,0l-7.03.4s-.12,0-.19,0c-1.36,0-2.65-.58-3.55-1.59l-4.69-5.25C38.8.71,37.21,0,35.54,0c0,0-.02,0-.04,0-.02,0-.03,0-.04,0-1.67,0-3.26.71-4.37,1.95l-4.69,5.25c-.9,1.01-2.19,1.59-3.55,1.59-.07,0-.15,0-.22,0l-7-.39c-.05,0-.1,0-.15,0h-.01c-.08,0-.16,0-.24,0-1.6,0-3.15.67-4.25,1.83-1.1,1.17-1.68,2.75-1.59,4.35l.04.62c0,.06.01.12.02.18-.06.39-.08.8-.06,1.2l.04.62c0,.12.02.25.05.36,0,.1,0,.2,0,.3,0,.02,0,.04,0,.06v.03c0,.1,0,.2,0,.3l.04.65c-.04.35-.06.69-.04,1.03l.17,3.04c-.22.95-.71,1.81-1.43,2.46l-5.25,4.69c-1.51,1.35-2.2,3.37-1.86,5.36-.12.67-.12,1.36,0,2.04-.01.18-.01.37,0,.55,0,.31,0,.62.05.92-.29,1.94.4,3.89,1.88,5.21l5.25,4.69c.61.54,1.04,1.23,1.31,2l-.2,3.51c-.02.41.02.77.04.98,0,.03,0,.05.01.08l-.05.94c-.02.41.02.77.04.98,0,.09.03.17.04.25v.12c-.02.27-.01.53.01.79,0,.19,0,.37.02.56l-.04.65c-.09,1.6.49,3.19,1.59,4.35,1.1,1.17,2.65,1.83,4.25,1.83.11,0,.22,0,.33,0l7.03-.4c.09,0,.18,0,.27,0,1.35,0,2.65.58,3.55,1.59l4.69,5.25c1.11,1.24,2.7,1.96,4.37,1.96s3.26-.71,4.37-1.96l4.69-5.25c.9-1.01,2.2-1.59,3.55-1.59.09,0,.18,0,.27,0l7.03.4c.11,0,.22,0,.33,0,1.6,0,3.15-.67,4.25-1.83,1.1-1.17,1.68-2.75,1.59-4.35l-.04-.65c.02-.19.01-.37.02-.56.02-.26.03-.53.02-.79l-.03-.52c.03-.28.04-.55.03-.83v-.13c0-.07,0-.13,0-.2l-.04-.65c.04-.35.06-.69.04-1.03l-.19-3.32c.25-.83.72-1.6,1.37-2.18l5.25-4.69c1.48-1.32,2.17-3.27,1.88-5.21.05-.32.06-.63.05-.95,0-.29,0-.59-.04-.88.04-.29.05-.59.04-.88Z"/><path class="cls-5" d="M58.48,46.97c-.16.68-.23,1.38-.19,2.09l.38,6.79c.16-.41.23-.85.21-1.32l-.4-7.03c-.01-.18,0-.35,0-.53Z"/><path class="cls-5" d="M12.4,48.17l-.36,6.35c-.01.18,0,.36.03.53l.34-6.01c.02-.3.01-.59,0-.88Z"/><path class="cls-5" d="M15.37,12.49l6.96.4c2.27.13,4.48-.79,5.99-2.49l4.65-5.24c1.27-1.43,3.5-1.43,4.76,0l4.65,5.24c1.51,1.7,3.72,2.62,5.99,2.49l6.96-.4c1.9-.11,3.47,1.46,3.36,3.36l-.4,7.1c-.13,2.25.78,4.44,2.45,5.95l5.26,4.74c.61.55.94,1.27,1.02,2.02.48-1.2.21-2.64-.82-3.56l-5.25-4.69c-1.69-1.51-2.6-3.7-2.47-5.97l.4-7.03c.11-1.9-1.46-3.46-3.36-3.36l-7.03.4c-2.26.13-4.46-.78-5.97-2.47l-4.69-5.25c-1.27-1.42-3.48-1.42-4.75,0l-4.69,5.25c-1.51,1.69-3.7,2.6-5.97,2.47l-7.03-.4c-1.9-.11-3.46,1.46-3.36,3.36l.04.62c.31-1.51,1.67-2.63,3.29-2.54Z"/><path class="cls-5" d="M4.69,33.64l5.26-4.74c1.68-1.51,2.58-3.7,2.45-5.95v-.26c-.22,1.8-1.07,3.48-2.44,4.71l-5.25,4.69c-.91.81-1.23,2.02-.97,3.11.15-.58.46-1.13.94-1.57Z"/><path class="cls-7" d="M38.05,3.42l4.46,5.3c1.56,1.86,3.91,2.87,6.33,2.72l6.65-.4c1.96-.12,3.58,1.49,3.47,3.45l-.42,7.86c-.12,2.24.75,4.42,2.38,5.97l5.51,5.23c1.36,1.29,1.36,3.47,0,4.76l-5.51,5.23c-1.63,1.55-2.5,3.73-2.38,5.97l.42,7.86c.1,1.96-1.52,3.57-3.47,3.45l-6.65-.4c-2.42-.15-4.77.86-6.33,2.72l-4.46,5.3c-1.31,1.56-3.71,1.56-5.02,0l-4.46-5.3c-1.56-1.86-3.91-2.87-6.33-2.72l-6.65.4c-1.96.12-3.58-1.49-3.47-3.45l.42-7.86c.12-2.24-.75-4.42-2.38-5.97l-5.51-5.23c-1.36-1.29-1.36-3.47,0-4.76l5.51-5.23c1.63-1.55,2.5-3.73,2.38-5.97l-.42-7.86c-.1-1.96,1.52-3.57,3.47-3.45l6.65.4c2.42.15,4.77-.86,6.33-2.72l4.46-5.3c1.31-1.56,3.71-1.56,5.02,0Z"/><path class="cls-6" d="M37.91,3.73l4.69,5.25c1.51,1.69,3.7,2.6,5.97,2.47l7.03-.4c1.9-.11,3.46,1.46,3.36,3.36l-.4,7.03c-.13,2.26.78,4.46,2.47,5.97l5.25,4.69c1.42,1.27,1.42,3.48,0,4.75l-5.25,4.69c-1.69,1.51-2.6,3.7-2.47,5.97l.4,7.03c.11,1.9-1.46,3.46-3.36,3.36l-7.03-.4c-2.26-.13-4.46.78-5.97,2.47l-4.69,5.25c-1.27,1.42-3.48,1.42-4.75,0l-4.69-5.25c-1.51-1.69-3.7-2.6-5.97-2.47l-7.03.4c-1.9.11-3.46-1.46-3.36-3.36l.4-7.03c.13-2.26-.78-4.46-2.47-5.97l-5.25-4.69c-1.42-1.27-1.42-3.48,0-4.75l5.25-4.69c1.69-1.51,2.6-3.7,2.47-5.97l-.4-7.03c-.11-1.9,1.46-3.46,3.36-3.36l7.03.4c2.26.13,4.46-.78,5.97-2.47l4.69-5.25c1.27-1.42,3.48-1.42,4.75,0Z"/><path class="cls-8" d="M58.55,23.44c-.13,2.26.78,4.46,2.47,5.97l5.25,4.69c.43.39.72.86.88,1.37.38-1.16.1-2.49-.88-3.37l-5.25-4.69c-1.38-1.23-2.23-2.93-2.43-4.74l-.04.78Z"/><path class="cls-8" d="M15.48,13.06l7.03.4c2.26.13,4.46-.78,5.97-2.47l4.69-5.25c1.27-1.42,3.48-1.42,4.75,0l4.69,5.25c1.51,1.69,3.7,2.6,5.97,2.47l7.03-.4c1.62-.09,2.99,1.04,3.29,2.55l.07-1.19c.11-1.9-1.46-3.46-3.36-3.36l-7.03.4c-2.26.13-4.46-.78-5.97-2.47l-4.69-5.25c-1.27-1.42-3.48-1.42-4.75,0l-4.69,5.25c-1.51,1.69-3.7,2.6-5.97,2.47l-7.03-.4c-1.9-.11-3.46,1.46-3.36,3.36l.07,1.19c.3-1.51,1.67-2.64,3.29-2.55Z"/><path class="cls-8" d="M4.8,34.1l5.25-4.69c1.69-1.51,2.6-3.7,2.47-5.97l-.04-.78c-.2,1.81-1.05,3.51-2.43,4.74l-5.25,4.69c-.98.88-1.27,2.21-.88,3.37.17-.51.45-.99.88-1.37Z"/><path class="cls-8" d="M12.48,48.27l-.35,6.25c-.02.28.01.55.07.81l.33-5.84c.02-.41,0-.82-.04-1.22Z"/><path class="cls-8" d="M58.55,49.5l.33,5.84c.05-.26.08-.53.07-.81l-.35-6.25c-.04.4-.07.81-.04,1.22Z"/><path class="cls-4" d="M37.3,11.63l3.49,3.9c1.12,1.26,2.75,1.93,4.43,1.84l5.22-.29c1.41-.08,2.57,1.09,2.49,2.49l-.29,5.22c-.09,1.68.58,3.31,1.84,4.43l3.9,3.49c1.05.94,1.05,2.59,0,3.53l-3.9,3.49c-1.26,1.12-1.93,2.75-1.84,4.43l.29,5.22c.08,1.41-1.09,2.57-2.49,2.49l-5.22-.29c-1.68-.09-3.31.58-4.43,1.84l-3.49,3.9c-.94,1.05-2.59,1.05-3.53,0l-3.49-3.9c-1.12-1.26-2.75-1.93-4.43-1.84l-5.22.29c-1.41.08-2.57-1.09-2.49-2.49l.29-5.22c.09-1.68-.58-3.31-1.84-4.43l-3.9-3.49c-1.05-.94-1.05-2.59,0-3.53l3.9-3.49c1.26-1.12,1.93-2.75,1.84-4.43l-.29-5.22c-.08-1.41,1.09-2.57,2.49-2.49l5.22.29c1.68.09,3.31-.58,4.43-1.84l3.49-3.9c.94-1.05,2.59-1.05,3.53,0Z"/><path class="cls-9" d="M20.63,51.87l5.22-.29c1.68-.09,3.31.58,4.43,1.84l3.49,3.9c.94,1.05,2.59,1.05,3.53,0l3.49-3.9c1.12-1.26,2.75-1.93,4.43-1.84l5.22.29c1.2.07,2.21-.77,2.44-1.88l-.24-4.27c-.01-.26.02-.52.04-.78l-.04-.79c-.09-1.68.58-3.31,1.84-4.43l3.9-3.49c.31-.28.52-.62.64-.98-.13-.36-.33-.7-.64-.98l-3.9-3.49c-1.25-1.12-1.93-2.75-1.84-4.43l.04-.79c-.02-.26-.06-.52-.04-.78l.24-4.27c-.23-1.11-1.24-1.95-2.44-1.88l-5.22.29c-1.68.09-3.31-.58-4.43-1.84l-3.49-3.9c-.94-1.05-2.59-1.05-3.53,0l-3.49,3.9c-1.12,1.26-2.75,1.93-4.43,1.84l-5.22-.29c-1.2-.07-2.21.77-2.44,1.88l.24,4.27c.01.26-.02.52-.04.78l.04.79c.09,1.68-.58,3.31-1.84,4.43l-3.9,3.49c-.31.28-.52.62-.64.98.13.36.33.7.64.98l3.9,3.49c1.26,1.12,1.93,2.75,1.84,4.43l-.04.79c.02.26.06.52.04.78l-.24,4.27c.23,1.11,1.24,1.95,2.44,1.88Z"/><path class="cls-6" d="M32.71,46.74c-1.07,0-2.14-.41-2.96-1.23l-7.94-7.94c-1.63-1.63-1.63-4.28,0-5.92s4.28-1.63,5.92,0l4.98,4.98,10.35-10.35c1.63-1.63,4.28-1.63,5.92,0s1.63,4.28,0,5.92l-13.31,13.31c-.82.82-1.89,1.23-2.96,1.23Z"/><path class="cls-1" d="M48.97,30.54l-13.31,13.31c-.82.82-1.89,1.23-2.96,1.23s-2.14-.41-2.96-1.23l-7.94-7.94c-.6-.6-.98-1.34-1.14-2.12-.27,1.33.11,2.76,1.14,3.8l7.94,7.94c.82.82,1.89,1.23,2.96,1.23s2.14-.41,2.96-1.23l13.31-13.31c1.03-1.03,1.41-2.47,1.14-3.8-.16.78-.54,1.52-1.14,2.12Z"/><rect class="cls-2" x="24.17" y="32.5" width="5.02" height="3.35" rx="1.67" ry="1.67" transform="translate(31.98 -8.86) rotate(45)"/><rect class="cls-2" x="42.13" y="27.06" width="3.84" height="3.35" rx="1.67" ry="1.67" transform="translate(95.5 17.9) rotate(135)"/><rect class="cls-2" x="33.48" y="32.6" width="10.04" height="3.35" rx="1.67" ry="1.67" transform="translate(89.96 31.28) rotate(135)"/><path class="cls-3" d="M46.02,25.07c1.07,0,2.14.41,2.96,1.23,1.63,1.63,1.63,4.28,0,5.92l-13.31,13.31c-.82.82-1.89,1.23-2.96,1.23s-2.14-.41-2.96-1.23l-7.94-7.94c-1.63-1.63-1.63-4.28,0-5.92.82-.82,1.89-1.23,2.96-1.23s2.14.41,2.96,1.23l4.98,4.98,10.35-10.35c.82-.82,1.89-1.23,2.96-1.23M46.02,23.39c-1.56,0-3.04.61-4.14,1.72l-9.17,9.17-3.8-3.8c-1.11-1.11-2.58-1.72-4.14-1.72s-3.04.61-4.14,1.72-1.72,2.58-1.72,4.14.61,3.04,1.72,4.14l7.94,7.94c1.11,1.11,2.58,1.72,4.14,1.72s3.04-.61,4.14-1.72l13.31-13.31c1.11-1.11,1.72-2.58,1.72-4.14s-.61-3.04-1.72-4.14c-1.11-1.11-2.58-1.72-4.14-1.72h0Z"/><path class="cls-10" d="M52.5,19.45l1.13,3.62,3.62,1.13c.28.09.28.48,0,.57l-3.62,1.13-1.13,3.62c-.09.28-.48.28-.57,0l-1.13-3.62-3.62-1.13c-.28-.09-.28-.48,0-.57l3.62-1.13,1.13-3.62c.09-.28.48-.28.57,0Z"/></g></svg>