<?xml version="1.0" encoding="UTF-8"?><svg id="Layer_2" xmlns="http://www.w3.org/2000/svg" viewBox="0 0 71 74.9"><defs><style>.cls-1{fill:#e3feff;}.cls-1,.cls-2,.cls-3,.cls-4,.cls-5,.cls-6,.cls-7,.cls-8,.cls-9,.cls-10,.cls-11{stroke-width:0px;}.cls-2{fill:#ffec00;}.cls-3{fill:#1b2e5e;}.cls-4,.cls-8{fill:#000;}.cls-5{fill:#e8e7d1;}.cls-6{fill:#80c6ff;}.cls-12{opacity:.53;}.cls-13{opacity:.5;}.cls-7{fill:#008cff;}.cls-8{opacity:.67;}.cls-9{fill:#97d0ff;}.cls-10{fill:#cecdb2;}.cls-11{fill:#fff;}</style></defs><g id="Layer_2-2"><g class="cls-13"><circle class="cls-4" cx="35.5" cy="39.4" r="35.5"/></g><g class="cls-12"><path class="cls-4" d="M63.25,25.47h2.01c.55,0,1-.53,1-1.19,0-.21-.06-.4-.14-.57.08-.14.14-.3.14-.48,0-.55-.45-1-1-1h-17.71l-10.35-7.53v-3.14l5.01.84v-4.01l-5.01-.84v-.17c0-.55-.45-1-1-1s-1,.45-1,1v7.32l-10.35,7.53H7.13c-.55,0-1,.45-1,1,0,.18.06.34.14.48-.08.17-.14.36-.14.57,0,.66.45,1.19,1,1.19h2v39.03h-2c-.55,0-1,.45-1,1,0,.23.09.43.22.6-.13.17-.22.37-.22.6,0,.55.45,1,1,1h58.13c.55,0,1-.45,1-1,0-.23-.09-.43-.22-.6.13-.17.22-.37.22-.6,0-.55-.45-1-1-1h-2.01V25.47Z"/></g><polygon class="cls-2" points="41.85 8.56 36.19 7.62 36.19 3.84 41.85 4.79 41.85 8.56"/><path class="cls-2" d="M36.19,14.22c-.52,0-.94-.42-.94-.94V3.84c0-.52.42-.94.94-.94s.94.42.94.94v9.43c0,.52-.42.94-.94.94Z"/><polygon class="cls-5" points="46.57 58.55 25.82 58.55 25.82 18.94 36.19 11.39 46.57 18.94 46.57 58.55"/><path class="cls-8" d="M46.57,19.84l-9.82-7.14c-.33-.24-.78-.24-1.11,0l-9.82,7.14v2.09c.19,0,.39-.04.55-.16l9.82-7.14,9.82,7.14c.16.12.36.18.55.18,0,0,0,0,0,0v-2.11Z"/><circle class="cls-3" cx="36.19" cy="24.59" r="4.72"/><rect class="cls-10" x="46.56" y="18.94" width="15.1" height="39.62"/><path class="cls-11" d="M37.14,25.54h-.94c-.52,0-.94-.42-.94-.94v-1.89c0-.52.42-.94.94-.94s.94.42.94.94v.94c.52,0,.94.42.94.94s-.42.94-.94.94Z"/><rect class="cls-7" x="29.59" y="33.08" width="13.21" height="3.77" rx="1.43" ry="1.43"/><path class="cls-3" d="M36.19,41.57c-3.13,0-5.66,2.53-5.66,5.66v11.32h11.32v-11.32c0-3.13-2.53-5.66-5.66-5.66Z"/><rect class="cls-10" x="10.72" y="18.94" width="15.1" height="39.62"/><rect class="cls-1" x="15.44" y="23.65" width="5.66" height="7.55" rx="1.44" ry="1.44"/><path class="cls-7" d="M22.04,32.14h-7.55c-.52,0-.94-.42-.94-.94s.42-.94.94-.94h7.55c.52,0,.94.42.94.94s-.42.94-.94.94Z"/><rect class="cls-1" x="15.44" y="34.97" width="5.66" height="7.55" rx="1.44" ry="1.44"/><path class="cls-7" d="M22.04,43.46h-7.55c-.52,0-.94-.42-.94-.94s.42-.94.94-.94h7.55c.52,0,.94.42.94.94s-.42.94-.94.94Z"/><path class="cls-9" d="M8.84,17.81c-.52,0-.94.42-.94.94s.42.94.94.94h16.98v-1.89H8.84Z"/><path class="cls-9" d="M63.55,17.81h-16.98v1.89h16.98c.52,0,.94-.42.94-.94s-.42-.94-.94-.94Z"/><path class="cls-9" d="M46.57,19.7c-.2,0-.39-.06-.55-.18l-9.82-7.14-9.82,7.14c-.42.31-1.01.21-1.32-.21-.31-.42-.21-1.01.21-1.32h0l10.38-7.55c.33-.24.78-.24,1.11,0l10.38,7.55c.42.31.51.9.21,1.32-.18.24-.46.39-.76.39Z"/><rect class="cls-1" x="15.44" y="46.29" width="5.66" height="7.55" rx="1.44" ry="1.44"/><path class="cls-7" d="M22.04,54.78h-7.55c-.52,0-.94-.42-.94-.94s.42-.94.94-.94h7.55c.52,0,.94.42.94.94s-.42.94-.94.94Z"/><rect class="cls-1" x="51.28" y="23.65" width="5.66" height="7.55" rx="1.44" ry="1.44"/><path class="cls-7" d="M57.89,32.14h-7.55c-.52,0-.94-.42-.94-.94s.42-.94.94-.94h7.55c.52,0,.94.42.94.94s-.42.94-.94.94Z"/><rect class="cls-1" x="51.28" y="34.97" width="5.66" height="7.55" rx="1.44" ry="1.44"/><path class="cls-7" d="M57.89,43.46h-7.55c-.52,0-.94-.42-.94-.94s.42-.94.94-.94h7.55c.52,0,.94.42.94.94s-.42.94-.94.94Z"/><rect class="cls-1" x="51.28" y="46.29" width="5.66" height="7.55" rx="1.44" ry="1.44"/><path class="cls-7" d="M57.89,54.78h-7.55c-.52,0-.94-.42-.94-.94s.42-.94.94-.94h7.55c.52,0,.94.42.94.94s-.42.94-.94.94Z"/><path class="cls-6" d="M63.55,59.5H8.84c-.52,0-.94-.42-.94-.94s.42-.94.94-.94h54.71c.52,0,.94.42.94.94s-.42.94-.94.94Z"/><rect class="cls-8" x="10.72" y="19.75" width="15.1" height="2.25"/><rect class="cls-8" x="46.56" y="19.75" width="15.1" height="2.25"/><path class="cls-7" d="M8.84,18.62c-.52,0-.94.5-.94,1.12s.42,1.12.94,1.12h16.98v-2.25H8.84Z"/><path class="cls-7" d="M63.55,18.62h-16.98v2.25h16.98c.52,0,.94-.5.94-1.12s-.42-1.12-.94-1.12Z"/><path class="cls-7" d="M46.57,20.82c-.2,0-.39-.07-.55-.19l-9.82-7.62-9.82,7.62c-.42.33-1.01.23-1.32-.22-.31-.45-.21-1.08.21-1.41h0l10.38-8.05c.33-.26.78-.26,1.11,0l10.38,8.05c.42.33.51.96.21,1.41-.18.26-.46.41-.76.41Z"/><path class="cls-7" d="M63.55,60.62H8.84c-.52,0-.94-.42-.94-.94s.42-.94.94-.94h54.71c.52,0,.94.42.94.94s-.42.94-.94.94Z"/><path class="cls-4" d="M36.19,2.9c.52,0,.94.42.94.94v.16l4.72.79v3.77l-4.72-.79v2.96l9.74,7.08h16.67c.52,0,.94.42.94.94,0,.17-.06.32-.13.45.08.16.13.34.13.54,0,.62-.42,1.12-.94,1.12h-1.89v36.74h1.89c.52,0,.94.42.94.94,0,.21-.08.4-.21.56.12.16.21.35.21.56,0,.52-.42.94-.94.94H8.84c-.52,0-.94-.42-.94-.94,0-.21.08-.4.21-.56-.12-.16-.21-.35-.21-.56,0-.52.42-.94.94-.94h1.88V20.87h-1.88c-.52,0-.94-.5-.94-1.12,0-.2.06-.38.13-.54-.08-.14-.13-.29-.13-.45,0-.52.42-.94.94-.94h16.67l9.74-7.08V3.84c0-.52.42-.94.94-.94M36.19,0c-2.12,0-3.84,1.72-3.84,3.84v5.41l-7.78,5.66h-15.73c-2.12,0-3.84,1.72-3.84,3.84,0,.16.01.33.03.49-.02.17-.03.34-.03.51,0,1.85,1.2,3.41,2.83,3.88v31.22c-1.63.45-2.83,1.94-2.83,3.71,0,.19.01.38.04.56-.03.18-.04.37-.04.56,0,2.12,1.72,3.84,3.84,3.84h54.71c2.12,0,3.84-1.72,3.84-3.84,0-.19-.01-.38-.04-.56.03-.18.04-.37.04-.56,0-1.77-1.2-3.26-2.83-3.71v-31.22c1.63-.47,2.83-2.03,2.83-3.88,0-.17-.01-.34-.03-.51.02-.16.03-.32.03-.49,0-2.12-1.72-3.84-3.84-3.84h-15.73l-4.99-3.63c.32-.12.63-.29.89-.52.65-.55,1.03-1.36,1.03-2.21v-3.77c0-1.42-1.02-2.63-2.42-2.86l-3.17-.53c-.71-.85-1.77-1.4-2.96-1.4h0Z"/></g></svg>