<svg width="44" height="44" viewBox="0 0 44 44" fill="none" xmlns="http://www.w3.org/2000/svg">
<g clip-path="url(#clip0_11857_204)">
<g opacity="0.5">
<path d="M22 44C34.1503 44 44 34.1503 44 22C44 9.84974 34.1503 0 22 0C9.84974 0 0 9.84974 0 22C0 34.1503 9.84974 44 22 44Z" fill="black"/>
</g>
<path d="M7.1826 21.3988C6.71781 21.3988 6.2902 21.1385 6.0671 20.7233C5.83781 20.3081 5.8626 19.8185 6.12288 19.4157L17.222 2.33009C17.4575 1.96446 17.8603 1.74756 18.3003 1.74756C18.5978 1.74756 18.8767 1.84671 19.106 2.03263L34.9088 14.898C35.3054 15.2202 35.4727 15.7284 35.3364 16.2242C35.2001 16.72 34.8034 17.0794 34.2953 17.1538L7.3871 21.374C7.31274 21.3864 7.24457 21.3926 7.1764 21.3926L7.1826 21.3988Z" fill="#C9C9C9"/>
<path d="M18.3004 2.00167C18.5359 2.00167 18.759 2.08223 18.9449 2.23097L34.7477 15.0963C35.07 15.3566 35.2001 15.7594 35.0886 16.156C34.977 16.5589 34.6672 16.8377 34.2581 16.8997L7.34997 21.12C7.2942 21.1262 7.23222 21.1324 7.17645 21.1324C6.80462 21.1324 6.46997 20.9279 6.28406 20.5932C6.09814 20.2524 6.11673 19.8743 6.32744 19.5459L17.439 2.47266C17.6311 2.18139 17.9534 2.00787 18.3004 2.00787M18.3004 1.4935C17.7984 1.4935 17.3088 1.73519 17.0114 2.19378L5.90603 19.2794C5.23053 20.3205 6.00518 21.6591 7.18265 21.6591C7.26321 21.6591 7.34997 21.6529 7.43053 21.6405L34.3387 17.4203C35.6525 17.2158 36.1049 15.5487 35.07 14.7059L19.2672 1.83435C18.9821 1.59885 18.635 1.4873 18.3004 1.4873V1.4935Z" fill="#C9C9C9"/>
<path d="M9.67381 38.6517C9.0417 38.6517 8.50874 38.1931 8.40959 37.5672L5.78818 20.8534C5.7386 20.5126 5.81916 20.1779 6.01747 19.899C6.22198 19.6202 6.51945 19.4405 6.85409 19.3847L34.2023 15.0962C34.2704 15.0838 34.3386 15.0776 34.4006 15.0776C35.0327 15.0776 35.5656 15.5362 35.6648 16.1621L38.2862 32.8759C38.3978 33.5762 37.9144 34.2331 37.2203 34.3385L9.87212 38.6269C9.80395 38.6393 9.73578 38.6455 9.67381 38.6455V38.6517Z" fill="#C9C9C9"/>
<path d="M34.4066 15.338C34.9024 15.338 35.3424 15.7098 35.4168 16.2056L38.0382 32.9194C38.125 33.4772 37.7407 34.0039 37.183 34.0907L9.83481 38.3791C9.77904 38.3853 9.72946 38.3915 9.67369 38.3915C9.17172 38.3915 8.73791 38.0197 8.66355 37.5239L6.04214 20.8101C5.95538 20.2524 6.3396 19.7256 6.89735 19.6388L34.2455 15.3504C34.3013 15.3442 34.3509 15.338 34.4066 15.338ZM34.4066 14.8298C34.3261 14.8298 34.2455 14.8298 34.165 14.8484L6.81679 19.1369C5.98017 19.267 5.40383 20.0541 5.53397 20.8969L8.15538 37.6107C8.27312 38.3667 8.93003 38.9121 9.67369 38.9121C9.75425 38.9121 9.83482 38.9121 9.91538 38.8935L37.2635 34.605C38.1002 34.4749 38.6765 33.6879 38.5464 32.845L35.925 16.1312C35.8072 15.3752 35.1503 14.8298 34.4066 14.8298Z" fill="#C9C9C9"/>
<path d="M30.8812 4.46046L6.56914 8.27197C5.73057 8.40344 5.15736 9.1898 5.28882 10.0284L8.70392 31.8119C8.83539 32.6504 9.62175 33.2236 10.4603 33.0922L34.7724 29.2807C35.6109 29.1492 36.1842 28.3628 36.0527 27.5243L32.6376 5.74077C32.5061 4.90221 31.7198 4.32899 30.8812 4.46046Z" fill="#72CC1D"/>
<g opacity="0.53">
<path d="M28.0423 22.9792L21.7831 17.8851C21.0766 17.3087 20.0231 17.4699 19.5211 18.2383L15.084 25.0676L5.32959 20.3516L7.96959 36.4332C8.09973 37.2699 8.88677 37.8462 9.72959 37.7161L9.95269 37.6789L36.8609 33.4586L37.084 33.4214C37.9206 33.2913 38.4969 32.5042 38.3668 31.6614L35.8755 15.5549L28.0485 22.9668L28.0423 22.9792Z" fill="black"/>
</g>
<path d="M9.67387 38.6519C9.04176 38.6519 8.5088 38.1934 8.40964 37.5674L5.79443 20.8846L22.5578 30.8869L35.6773 16.1934L38.2925 32.8824C38.404 33.5827 37.9206 34.2396 37.2265 34.3449L9.87838 38.6334C9.81021 38.6458 9.74204 38.6519 9.68007 38.6519H9.67387Z" fill="white"/>
<path d="M35.5038 16.7695L38.0384 32.9194C38.0818 33.1921 38.0136 33.4585 37.8525 33.6816C37.6914 33.9047 37.4559 34.0473 37.1832 34.0907L9.83502 38.3791C9.77925 38.3853 9.72967 38.3915 9.67389 38.3915C9.17192 38.3915 8.73812 38.0197 8.66375 37.5239L6.12911 21.3802L22.2418 30.9921L22.6074 31.209L22.8863 30.8929L35.5038 16.7633M35.8446 15.623L22.5083 30.5645L5.45361 20.3887L8.15558 37.6107C8.27333 38.3667 8.93023 38.9121 9.67389 38.9121C9.75446 38.9121 9.83502 38.9121 9.91559 38.8935L37.2638 34.605C38.1004 34.4749 38.6767 33.6878 38.5466 32.845L35.8446 15.623Z" fill="#C9C9C9"/>
<path d="M9.88474 38.6207C9.41995 38.6207 8.99235 38.3605 8.76925 37.9453C8.53995 37.53 8.56474 37.0405 8.82503 36.6376L19.9304 19.552C20.1659 19.1864 20.5687 18.9695 21.0087 18.9695C21.3062 18.9695 21.585 19.0686 21.8143 19.2546L37.6171 32.1199C38.0138 32.4422 38.1811 32.9503 38.0447 33.4461C37.9084 33.9419 37.5118 34.3013 37.0036 34.3757L10.0954 38.596C10.0211 38.6084 9.95291 38.6146 9.88474 38.6146V38.6207Z" fill="white"/>
<path d="M21.0021 19.2237C21.2375 19.2237 21.4606 19.3043 21.6466 19.453L37.4494 32.3184C37.7716 32.5787 37.9018 32.9815 37.7902 33.3781C37.6787 33.7809 37.3688 34.0598 36.9598 34.1218L10.0516 38.3421C9.99586 38.3483 9.93388 38.3544 9.87811 38.3544C9.50628 38.3544 9.17163 38.1499 8.98572 37.8153C8.7998 37.4744 8.81839 37.0964 9.0291 36.768L20.1344 19.6823C20.3266 19.3911 20.6488 19.2175 20.9959 19.2175M21.0021 18.7156C20.5001 18.7156 20.0105 18.9573 19.713 19.4159L8.60769 36.5015C7.93219 37.5426 8.70684 38.8812 9.88431 38.8812C9.96487 38.8812 10.0516 38.875 10.1322 38.8626L37.0404 34.6423C38.3542 34.4378 38.8066 32.7708 37.7716 31.928L21.9688 19.0626C21.6837 18.8271 21.3367 18.7156 21.0021 18.7156Z" fill="#C9C9C9"/>
<path opacity="0.45" d="M29.7286 5.69716L12.2675 8.43461C12.0612 8.46695 11.9203 8.66037 11.9526 8.86663L12.0198 9.2952C12.0521 9.50146 12.2455 9.64245 12.4518 9.61011L29.9129 6.87266C30.1191 6.84032 30.2601 6.6469 30.2278 6.44064L30.1606 6.01207C30.1283 5.80581 29.9349 5.66482 29.7286 5.69716Z" fill="white"/>
<g opacity="0.53">
<path d="M28.4162 9.97593L10.8694 12.7268C10.1255 12.8434 9.617 13.541 9.73363 14.2849L9.7365 14.3033C9.85313 15.0472 10.5507 15.5557 11.2946 15.439L28.8414 12.6882C29.5853 12.5715 30.0938 11.8739 29.9772 11.1301L29.9743 11.1117C29.8577 10.3678 29.1601 9.85931 28.4162 9.97593Z" fill="black"/>
</g>
<g opacity="0.53">
<path d="M29.0993 14.3233L11.5525 17.0742C10.8086 17.1909 10.3001 17.8884 10.4167 18.6323L10.4196 18.6507C10.5362 19.3946 11.2338 19.9031 11.9777 19.7865L29.5245 17.0356C30.2684 16.9189 30.7769 16.2214 30.6603 15.4775L30.6574 15.4591C30.5408 14.7152 29.8432 14.2067 29.0993 14.3233Z" fill="black"/>
</g>
<path d="M18.3003 1.49362C18.6412 1.49362 18.982 1.60517 19.2671 1.84066L23.8468 5.57136L30.8744 4.46826C30.955 4.45587 31.0355 4.44967 31.1161 4.44967C31.8598 4.44967 32.5167 4.98883 32.6344 5.75108L33.8862 13.7454L35.0637 14.706C35.2744 14.8733 35.4045 15.084 35.4975 15.3009C35.6029 15.4063 35.6834 15.5302 35.7578 15.6666L35.8631 15.5674L38.3544 31.6739L38.5403 32.8514C38.6705 33.688 38.1003 34.475 37.2575 34.6114L9.90934 38.8998C9.82877 38.9122 9.74821 38.9184 9.66765 38.9184C8.92399 38.9184 8.26708 38.3792 8.14934 37.617L7.96342 36.4395L5.32342 20.3578L5.44737 20.4198V20.395L5.52793 20.4446C5.55272 20.2897 5.5899 20.1409 5.65187 20.0046C5.67046 19.7629 5.74483 19.515 5.89356 19.2795L6.56286 18.2508L5.27384 10.0395C5.1437 9.20291 5.71384 8.41587 6.55666 8.27953L13.7826 7.14545L16.9989 2.1939C17.2964 1.73531 17.7922 1.49362 18.2879 1.49362M18.3003 0.526855C17.4451 0.526855 16.6643 0.954461 16.1995 1.66714L13.2186 6.25925L6.42032 7.32516C5.05694 7.54207 4.12117 8.82488 4.33187 10.1883L5.56511 18.0339L5.10032 18.7528C4.933 19.0131 4.81525 19.2919 4.75328 19.5894C4.46821 19.8063 4.32568 20.1595 4.38765 20.5128L7.02765 36.5945L7.21356 37.7595C7.40568 38.9866 8.4468 39.879 9.68624 39.879C9.81638 39.879 9.94652 39.8666 10.0767 39.848L37.4248 35.5595C38.0879 35.4542 38.6643 35.1009 39.0609 34.5618C39.4575 34.0226 39.6124 33.3595 39.5133 32.6964L39.3274 31.5252L36.8361 15.4249C36.7865 15.1088 36.582 14.8362 36.2969 14.6998C36.142 14.4085 35.9375 14.1607 35.6896 13.9623L34.7972 13.2373L33.6012 5.60855C33.4091 4.3815 32.3679 3.48911 31.1285 3.48911C30.9984 3.48911 30.8682 3.5015 30.7381 3.52009L24.1381 4.55502L19.893 1.097C19.4468 0.731363 18.8891 0.533053 18.3127 0.533053L18.3003 0.526855Z" fill="black"/>
</g>
<defs>
<clipPath id="clip0_11857_204">
<rect width="44" height="44" fill="white"/>
</clipPath>
</defs>
</svg>
