<?xml version="1.0" encoding="UTF-8"?><svg id="Layer_2" xmlns="http://www.w3.org/2000/svg" viewBox="0 0 74.59 71"><defs><style>.cls-1{fill:#a1f2ff;}.cls-1,.cls-2,.cls-3,.cls-4,.cls-5,.cls-6,.cls-7,.cls-8,.cls-9,.cls-10,.cls-11{stroke-width:0px;}.cls-2{fill:#fff19f;}.cls-3{fill:#2dc8e2;}.cls-4{fill:#ffb31a;}.cls-5{fill:#ca6e2a;}.cls-6{fill:#50deff;}.cls-7,.cls-11{fill:#000;}.cls-8{fill:#ffe20d;}.cls-9{fill:#dda300;}.cls-12{opacity:.4;}.cls-13{opacity:.6;}.cls-14{opacity:.5;}.cls-10{fill:#188a96;}.cls-11{opacity:.3;}</style></defs><g id="Layer_2-2"><g class="cls-14"><circle class="cls-7" cx="35.5" cy="35.5" r="35.5"/></g><g class="cls-13"><path class="cls-7" d="M70.78,33.74l.56-1.82-8.01-14.95-28.34-8.78c-2.64-.82-5.47.67-6.29,3.32l-1.16,3.76-17.79.17c-2.77.03-5.01,2.31-4.98,5.08l.18,19.13.17,17.59c.03,2.77,2.31,5.01,5.08,4.98h.51c.64.29,1.35.46,2.09.45l36.71-.35c.48,0,.95-.08,1.39-.22l5.33,1.65c2.64.82,5.47-.67,6.29-3.32l.56-1.82h0s4.43-14.3,4.43-14.3l3.27-10.55h0Z"/></g><path class="cls-9" d="M72.19,24.22l-5.75,27.33c-.57,2.71-3.25,4.46-5.96,3.89l-35.93-7.56c-2.71-.57-4.46-3.25-3.89-5.96L27.84,7.86c.57-2.71,3.25-4.46,5.96-3.89l29.03,6.1,9.37,14.14Z"/><path class="cls-8" d="M72.59,22.36l-5.75,27.33c-.57,2.71-3.25,4.46-5.96,3.89l-35.93-7.56c-2.71-.57-4.46-3.25-3.89-5.96L28.23,5.99c.57-2.71,3.25-4.46,5.96-3.89l29.03,6.1,9.37,14.14Z"/><path class="cls-4" d="M68.91,23.16l-4.9,23.32c-.49,2.31-2.77,3.8-5.08,3.32l-30.66-6.45c-2.31-.49-3.8-2.77-3.32-5.08l6.11-29.07c.49-2.31,2.77-3.8,5.08-3.32l24.77,5.21,8,12.07Z"/><rect class="cls-5" x="35.15" y="13.13" width="22.17" height="6.08" rx="1.91" ry="1.91" transform="translate(4.32 -9.17) rotate(11.88)"/><rect class="cls-5" x="32.77" y="24.8" width="29.57" height="6.08" rx="2.21" ry="2.21" transform="translate(6.75 -9.19) rotate(11.88)"/><path class="cls-11" d="M64.58,11.31l-5.27,6.41c-.89,3.29,1.77,6.47,5.17,6.16l8.07-1.53-7.97-11.03Z"/><rect class="cls-5" x="30.48" y="35.71" width="29.57" height="6.08" rx="2.21" ry="2.21" transform="translate(8.94 -8.48) rotate(11.88)"/><path class="cls-2" d="M63.22,8.21l-3.03,4.78c-1.83,2.88-.21,6.7,3.13,7.41l9.27,1.96-9.37-14.14Z"/><path class="cls-10" d="M72.19,24.22l-5.75,27.33c-.57,2.71-3.25,4.46-5.96,3.89l-35.93-7.56c-2.71-.57-4.46-3.25-3.89-5.96L27.84,7.86c.57-2.71,3.25-4.46,5.96-3.89l29.03,6.1,9.37,14.14Z"/><path class="cls-6" d="M72.59,22.36l-5.75,27.33c-.57,2.71-3.25,4.46-5.96,3.89l-35.93-7.56c-2.71-.57-4.46-3.25-3.89-5.96L28.23,5.99c.57-2.71,3.25-4.46,5.96-3.89l29.03,6.1,9.37,14.14Z"/><path class="cls-3" d="M68.91,23.16l-4.9,23.32c-.49,2.31-2.77,3.8-5.08,3.32l-30.66-6.45c-2.31-.49-3.8-2.77-3.32-5.08l6.11-29.07c.49-2.31,2.77-3.8,5.08-3.32l24.77,5.21,8,12.07Z"/><rect class="cls-10" x="35.15" y="13.13" width="22.17" height="6.08" rx="1.91" ry="1.91" transform="translate(4.32 -9.17) rotate(11.88)"/><rect class="cls-10" x="32.77" y="24.8" width="29.57" height="6.08" rx="2.21" ry="2.21" transform="translate(6.75 -9.19) rotate(11.88)"/><path class="cls-11" d="M64.58,11.31l-5.27,6.41c-.89,3.29,1.77,6.47,5.17,6.16l8.07-1.53-7.97-11.03Z"/><rect class="cls-10" x="30.48" y="35.71" width="29.57" height="6.08" rx="2.21" ry="2.21" transform="translate(8.94 -8.48) rotate(11.88)"/><path class="cls-1" d="M63.22,8.21l-3.03,4.78c-1.83,2.88-.21,6.7,3.13,7.41l9.27,1.96-9.37-14.14Z"/><path class="cls-9" d="M52.66,21.13l2.86,27.78c.28,2.75-1.73,5.23-4.49,5.52l-36.52,3.77c-2.75.28-5.23-1.73-5.52-4.49l-3.57-34.62c-.28-2.75,1.73-5.23,4.49-5.52l29.51-3.04,13.24,10.61Z"/><path class="cls-8" d="M52.47,19.24l2.86,27.78c.28,2.75-1.73,5.23-4.49,5.52l-36.52,3.77c-2.75.28-5.23-1.73-5.52-4.49l-3.57-34.62c-.28-2.75,1.73-5.23,4.49-5.52l29.51-3.04,13.24,10.61Z"/><path class="cls-4" d="M49.22,21.12l2.44,23.7c.24,2.35-1.48,4.47-3.83,4.71l-31.17,3.21c-2.35.24-4.47-1.48-4.71-3.83l-3.05-29.55c-.24-2.35,1.48-4.47,3.83-4.71l25.18-2.6,11.3,9.05Z"/><rect class="cls-5" x="14.4" y="18.34" width="22.17" height="6.08" rx="1.91" ry="1.91" transform="translate(-2.06 2.73) rotate(-5.89)"/><rect class="cls-5" x="15.52" y="29.06" width="29.57" height="6.08" rx="2.21" ry="2.21" transform="translate(-3.13 3.28) rotate(-5.89)"/><path class="cls-11" d="M41.47,11.16l-3.06,7.71c.15,3.41,3.66,5.62,6.8,4.29l7.22-3.92-10.96-8.07Z"/><rect class="cls-5" x="16.67" y="40.15" width="29.57" height="6.08" rx="2.21" ry="2.21" transform="translate(-4.26 3.45) rotate(-5.89)"/><g class="cls-12"><path class="cls-7" d="M55.19,20.36l2.95,28.61c.29,2.83-1.72,5.38-4.47,5.67l-36.52,3.77c-2.75.28-5.24-1.8-5.53-4.64l-3.68-35.66c-.29-2.83,1.72-5.38,4.47-5.67l29.51-3.04,13.27,10.97Z"/></g><path class="cls-2" d="M39.23,8.63l-1.42,5.48c-.86,3.3,1.84,6.45,5.24,6.1l9.43-.97-13.24-10.61Z"/><path class="cls-9" d="M52.66,21.13l2.86,27.78c.28,2.75-1.73,5.23-4.49,5.52l-36.52,3.77c-2.75.28-5.23-1.73-5.52-4.49l-3.57-34.62c-.28-2.75,1.73-5.23,4.49-5.52l29.51-3.04,13.24,10.61Z"/><path class="cls-8" d="M52.47,19.24l2.86,27.78c.28,2.75-1.73,5.23-4.49,5.52l-36.52,3.77c-2.75.28-5.23-1.73-5.52-4.49l-3.57-34.62c-.28-2.75,1.73-5.23,4.49-5.52l29.51-3.04,13.24,10.61Z"/><path class="cls-4" d="M49.22,21.12l2.44,23.7c.24,2.35-1.48,4.47-3.83,4.71l-31.17,3.21c-2.35.24-4.47-1.48-4.71-3.83l-3.05-29.55c-.24-2.35,1.48-4.47,3.83-4.71l25.18-2.6,11.3,9.05Z"/><rect class="cls-5" x="14.4" y="18.34" width="22.17" height="6.08" rx="1.91" ry="1.91" transform="translate(-2.06 2.73) rotate(-5.89)"/><rect class="cls-5" x="15.52" y="29.06" width="29.57" height="6.08" rx="2.21" ry="2.21" transform="translate(-3.13 3.28) rotate(-5.89)"/><path class="cls-11" d="M41.47,11.16l-3.06,7.71c.15,3.41,3.66,5.62,6.8,4.29l7.22-3.92-10.96-8.07Z"/><rect class="cls-5" x="16.67" y="40.15" width="29.57" height="6.08" rx="2.21" ry="2.21" transform="translate(-4.26 3.45) rotate(-5.89)"/><path class="cls-2" d="M39.23,8.63l-1.42,5.48c-.86,3.3,1.84,6.45,5.24,6.1l9.43-.97-13.24-10.61Z"/><path class="cls-7" d="M33.16,2c.34,0,.68.03,1.03.11l29.03,6.1,9.37,14.14-.39,1.87h0s-2.27,10.81-2.27,10.81l-3.08,14.65s0,0,0,0l-.39,1.87c-.5,2.36-2.6,3.99-4.93,3.99-.34,0-.68-.03-1.03-.11l-5.46-1.15c-.43.18-.88.3-1.36.35l-36.52,3.77c-.16.02-.33.03-.49.03-.57,0-1.12-.1-1.64-.29l-.5.05c-.17.02-.35.03-.52.03-2.54,0-4.74-1.93-5-4.51l-1.8-17.5-1.96-19.03c-.28-2.75,1.73-5.23,4.49-5.52l17.7-1.83.81-3.85c.5-2.36,2.6-3.99,4.93-3.99M33.16,0C29.85,0,26.95,2.35,26.27,5.58l-.51,2.42-16.25,1.68c-1.86.19-3.54,1.1-4.73,2.56s-1.73,3.29-1.54,5.15l1.96,19.03,1.8,17.5c.37,3.6,3.38,6.31,6.99,6.31.24,0,.48-.01.72-.04h.09c.6.16,1.22.24,1.84.24.23,0,.46-.01.7-.04l36.52-3.77c.44-.05.87-.13,1.3-.26l4.9,1.03c.47.1.96.15,1.44.15,3.31,0,6.2-2.35,6.88-5.58l.39-1.87,3.08-14.65,2.27-10.81.39-1.87c.11-.52,0-1.07-.29-1.52l-9.37-14.14c-.29-.44-.74-.74-1.26-.85L34.6.15C34.12.05,33.64,0,33.16,0h0Z"/></g></svg>