<?xml version="1.0" encoding="UTF-8"?><svg id="Layer_2" xmlns="http://www.w3.org/2000/svg" viewBox="0 0 73.27 71"><defs><style>.cls-1{fill:#dff1f2;}.cls-1,.cls-2,.cls-3,.cls-4,.cls-5,.cls-6,.cls-7,.cls-8,.cls-9,.cls-10{stroke-width:0px;}.cls-2{fill:#fff4bb;}.cls-3{fill:#193b7f;}.cls-4{fill:#ffe54d;}.cls-5{fill:#c9d6e2;}.cls-6{fill:#000;}.cls-11{opacity:.6;}.cls-12{opacity:.5;}.cls-7{fill:#97afb2;}.cls-8{fill:#ffb300;}.cls-9{fill:#fff;}.cls-10{fill:#6a8282;}</style></defs><g id="Layer_2-2"><g class="cls-12"><circle class="cls-6" cx="37.77" cy="35.5" r="35.5"/></g><g class="cls-11"><path class="cls-6" d="M62.8,17.64h-21.67l.23-1.59h.1c.4,0,.73-.33.73-.73h0c0-.37-.28-.66-.63-.71l.38-2.68s0,0,0,0l.03-.22c.01-.1.02-.19,0-.28,0,0,0,0,0,0-.02-.19-.07-.37-.16-.53-.22-.4-.65-.68-1.15-.68h-7.19c-.1,0-.2.01-.29.03-.54.12-.94.58-1.01,1.12,0,.02,0,.03,0,.05,0,.09,0,.19,0,.29v.08s.03.15.03.15h0l.38,2.68c-.35.05-.63.34-.63.71h0c0,.4.33.73.73.73h.1l.23,1.59H11.37c-2.98,0-5.39,2.41-5.39,5.39v23.76c-2.35,1.87-3.87,4.75-3.87,8,0,5.64,4.57,10.21,10.21,10.21,2.71,0,5.17-1.06,7-2.79h43.48c.74,0,1.45-.15,2.1-.42,1.93-.82,3.29-2.73,3.29-4.97h0V23.03c0-2.98-2.41-5.39-5.39-5.39Z"/></g><rect class="cls-9" x="5.98" y="11.43" width="62.21" height="44.57" rx="5.39" ry="5.39"/><rect class="cls-5" x="8.76" y="17" width="26" height="29.71" rx="2.52" ry="2.52"/><path class="cls-3" d="M28.47,26.27c-.71-2.87-3.11-5.07-6.08-5.48-.33-.05-.67-.07-1.02-.07-.48,0-.95.05-1.41.14-2.81.55-5.05,2.71-5.71,5.48-.13.55-.2,1.12-.2,1.7,0,4.04,3.28,7.32,7.32,7.32s7.32-3.28,7.32-7.32c0-.61-.07-1.2-.22-1.76ZM18.07,28.84c-.81,0-1.46-.66-1.46-1.46s.66-1.46,1.46-1.46,1.46.66,1.46,1.46-.66,1.46-1.46,1.46ZM23.53,30.27c-.64.75-1.45.98-2.16.98-.49,0-.92-.11-1.21-.23-.17-.07-.24-.26-.17-.42.07-.17.26-.24.42-.17.07.03,1.58.65,2.62-.57.11-.14.32-.15.45-.04.14.11.15.32.04.45ZM24.44,28.84c-.81,0-1.46-.66-1.46-1.46s.66-1.46,1.46-1.46,1.46.66,1.46,1.46-.66,1.46-1.46,1.46Z"/><path class="cls-5" d="M62.8,53.21H11.37c-2.98,0-5.39-2.41-5.39-5.39v2.79c0,2.98,2.41,5.39,5.39,5.39h51.43c2.98,0,5.39-2.41,5.39-5.39v-2.79c0,2.98-2.41,5.39-5.39,5.39Z"/><rect class="cls-3" x="37.55" y="18.14" width="18.57" height="8.86" rx="2.35" ry="2.35"/><rect class="cls-5" x="37.55" y="30" width="25.07" height="6.5" rx="1.86" ry="1.86"/><rect class="cls-5" x="37.55" y="39.29" width="25.07" height="6.5" rx="1.86" ry="1.86"/><path class="cls-3" d="M21.33,36.38h0c4.85,0,8.78,3.94,8.78,8.78v1.55H12.55v-1.55c0-4.85,3.94-8.78,8.78-8.78Z"/><rect class="cls-6" x="31.05" y="12.36" width="12.07" height="2.79" rx="1.1" ry="1.1"/><rect class="cls-1" x="31.98" y="8.38" width="10.21" height="1.46" rx=".73" ry=".73"/><path class="cls-7" d="M39.59,14.21h-5.02c-.65,0-1.21-.48-1.3-1.13l-1.08-7.59c-.11-.79.5-1.5,1.3-1.5h7.19c.8,0,1.41.71,1.3,1.5l-1.08,7.59c-.09.65-.65,1.13-1.3,1.13Z"/><path class="cls-1" d="M32.22,5.72c.14-.56.65-.99,1.27-.99h7.19c.62,0,1.12.43,1.27.99l.03-.22c.11-.79-.5-1.5-1.3-1.5h-7.19c-.8,0-1.41.71-1.3,1.5l.03.22Z"/><path class="cls-10" d="M39.66,8.61h-5.16c-.44,0-.83-.34-.88-.77v-.1c-.06-.45.28-.82.74-.82h5.44c.46,0,.8.37.75.82v.1c-.06.43-.45.77-.89.77Z"/><path class="cls-10" d="M39.48,10.83h-4.79c-.41,0-.77-.29-.81-.66v-.08c-.05-.38.26-.7.69-.7h5.03c.43,0,.74.32.7.7v.08c-.05.37-.41.66-.82.66Z"/><path class="cls-10" d="M39.31,12.76h-4.46c-.38,0-.72-.25-.75-.58v-.07c-.04-.33.25-.6.65-.6h4.67c.4,0,.69.27.65.6v.07c-.04.32-.38.58-.76.58Z"/><circle class="cls-8" cx="12.32" cy="48.57" r="10.21"/><circle class="cls-4" cx="12.32" cy="46.71" r="8.36"/><ellipse class="cls-2" cx="13.64" cy="41.68" rx="3.64" ry="3.32"/><path class="cls-6" d="M12.18,45.24c-.58,0-.99-.09-1.24-.26-.25-.17-.39-.4-.44-.67-.05-.27-.07-.55-.07-.83s.03-.58.08-.84c.05-.26.2-.48.44-.65.25-.17.66-.25,1.24-.25s.99.09,1.23.26c.24.17.38.4.43.67.05.27.08.55.08.83s-.03.56-.08.83c-.05.27-.2.49-.43.66-.24.17-.66.25-1.25.25ZM12.18,56c-.58,0-.99-.09-1.24-.26-.25-.17-.39-.4-.44-.67-.05-.27-.07-.55-.07-.83v-6.31c0-.28.03-.56.08-.82.05-.26.2-.48.44-.66.25-.17.66-.26,1.24-.26s.99.09,1.23.26.38.4.43.67c.05.27.08.55.08.85v6.29c0,.28-.03.56-.08.83-.05.27-.2.49-.43.66-.24.17-.66.25-1.25.25Z"/><path class="cls-6" d="M12.32,38.36c5.64,0,10.21,4.57,10.21,10.21s-4.57,10.21-10.21,10.21-10.21-4.57-10.21-10.21,4.57-10.21,10.21-10.21M12.32,36.5c-6.66,0-12.07,5.42-12.07,12.07s5.42,12.07,12.07,12.07,12.07-5.42,12.07-12.07-5.42-12.07-12.07-12.07h0Z"/><path class="cls-6" d="M40.68,4c.5,0,.92.28,1.15.68.09.16.14.34.16.53,0,0,0,0,0,0,0,.09,0,.19,0,.28l-.03.22s0,0,0,0l-.38,2.68c.35.05.63.34.63.71h0c0,.4-.33.73-.73.73h-.1l-.23,1.59h21.67c2.98,0,5.39,2.41,5.39,5.39v33.79h0c0,2.23-1.36,4.15-3.29,4.97-.64.27-1.35.42-2.1.42H19.32c-1.83,1.72-4.29,2.79-7,2.79-5.64,0-10.21-4.57-10.21-10.21,0-3.24,1.51-6.12,3.87-8v-23.76c0-2.98,2.41-5.39,5.39-5.39h21.67l-.23-1.59h-.1c-.4,0-.73-.33-.73-.73h0c0-.37.28-.66.63-.71l-.38-2.68-.02-.15v-.08c-.02-.1-.03-.2-.02-.29,0-.02,0-.03,0-.05.07-.55.47-1,1.01-1.12.09-.02.19-.03.29-.03h7.19M40.68,1.89h-7.19c-.25,0-.5.03-.75.08-1.37.31-2.42,1.44-2.62,2.82-.02.08-.03.16-.03.24-.02.25-.01.5.02.75v.08s.03.14.03.14l.22,1.51c-.31.45-.48,1-.48,1.58,0,.07,0,.14,0,.21H11.37c-4.13,0-7.5,3.36-7.5,7.5v22.8c-2.47,2.33-3.87,5.53-3.87,8.96,0,6.79,5.53,12.32,12.32,12.32,2.85,0,5.59-.98,7.79-2.79h42.69c1.01,0,1.99-.2,2.92-.59,2.78-1.18,4.58-3.89,4.58-6.91V16.82c0-4.13-3.36-7.5-7.5-7.5h-18.51c0-.07,0-.14,0-.21,0-.59-.18-1.13-.48-1.58l.22-1.51.03-.22c.03-.21.04-.43.03-.65,0-.03,0-.07,0-.1-.04-.49-.18-.96-.42-1.39-.6-1.09-1.75-1.76-2.99-1.76h0Z"/></g></svg>