<?xml version="1.0" encoding="UTF-8"?><svg id="Layer_2" xmlns="http://www.w3.org/2000/svg" viewBox="0 0 47 52.56"><defs><style>.cls-1{fill:#ffef92;}.cls-2{fill:#ffda00;}.cls-3{fill:#ffbc00;}</style></defs><g id="Layer_1-2"><path class="cls-2" d="M32.61,8.29c1-1.77,1.01-4.01-.19-5.81-1.7-2.56-5.16-3.24-7.71-1.54l-9.1,6.06c-2.55,1.7-3.24,5.15-1.54,7.71l6.06,9.1c1.07,1.61,2.83,2.48,4.63,2.48,1.06,0,2.13-.3,3.08-.93,2-1.33,2.83-3.72,2.3-5.93,3.42,2.01,5.73,5.72,5.73,9.96,0,2.56-.82,4.99-2.37,7.02-1.87,2.44-1.41,5.93,1.03,7.79,1.01.77,2.2,1.15,3.38,1.15,1.67,0,3.32-.75,4.42-2.18,3.05-3.98,4.67-8.75,4.67-13.78,0-9.58-5.97-17.78-14.39-21.1Z"/><path class="cls-1" d="M22.1,9.56c-.64,0-1.26-.3-1.66-.86-.64-.91-.42-2.17.49-2.82l5.69-4c.91-.64,2.17-.42,2.82.49.64.91.42,2.17-.49,2.82l-5.69,4c-.35.25-.76.37-1.16.37Z"/><path class="cls-1" d="M18.75,15.06c-.84.15-1.71-.25-2.13-1.04l-.97-1.8c-.53-.98-.16-2.21.83-2.74.99-.53,2.21-.16,2.74.83l.97,1.8c.53.98.16,2.21-.83,2.74-.2.11-.4.17-.61.21Z"/><circle class="cls-2" cx="23.75" cy="47" r="5.56"/><path class="cls-3" d="M23.75,51.55c-2.9,0-5.28-2.22-5.53-5.05-.02.17-.03.33-.03.51,0,3.07,2.49,5.56,5.56,5.56s5.56-2.49,5.56-5.56c0-.17-.01-.34-.03-.51-.26,2.83-2.63,5.05-5.53,5.05Z"/><circle class="cls-1" cx="23.25" cy="44.47" r="2.02"/><circle class="cls-2" cx="10.11" cy="42.45" r="5.05"/><path class="cls-3" d="M10.11,46.59c-2.64,0-4.8-2.02-5.03-4.59-.01.15-.02.3-.02.46,0,2.79,2.26,5.05,5.05,5.05s5.05-2.26,5.05-5.05c0-.16,0-.31-.02-.46-.23,2.58-2.39,4.59-5.03,4.59Z"/><circle class="cls-1" cx="9.65" cy="40.16" r="1.84"/><circle class="cls-2" cx="4.04" cy="32.34" r="4.04"/><path class="cls-3" d="M4.04,35.65c-2.11,0-3.84-1.62-4.02-3.68-.01.12-.02.24-.02.37,0,2.23,1.81,4.04,4.04,4.04s4.04-1.81,4.04-4.04c0-.12,0-.25-.02-.37-.19,2.06-1.92,3.68-4.02,3.68Z"/><circle class="cls-1" cx="3.68" cy="30.51" r="1.47"/><circle class="cls-2" cx="5.56" cy="22.74" r="2.53"/><path class="cls-3" d="M5.56,24.81c-1.32,0-2.4-1.01-2.52-2.3,0,.08-.01.15-.01.23,0,1.4,1.13,2.53,2.53,2.53s2.53-1.13,2.53-2.53c0-.08,0-.15-.01-.23-.12,1.29-1.2,2.3-2.52,2.3Z"/><circle class="cls-1" cx="5.33" cy="21.59" r=".92"/><circle class="cls-1" cx="36.39" cy="37.4" r="2.02"/><path class="cls-3" d="M33.24,6.54c.12-.67.13-1.36,0-2.04-.11.62-.31,1.21-.63,1.76.21.08.41.18.62.27Z"/><path class="cls-3" d="M29.31,17.18c.17.69,1.01,3.03.93,2.3,3.13,1.88,5.29,5.18,5.58,9.02.04-.37.06-.75.06-1.13,0-4.25-1.52-8.16-6.57-10.18Z"/><path class="cls-3" d="M27.85,23.32c-.95.63-2.02.93-3.08.93-1.8,0-3.56-.87-4.63-2.48l-6.06-9.1c-.43-.64-.7-1.33-.84-2.04-.25,1.36,0,2.82.84,4.06l6.06,9.1c1.07,1.61,2.83,2.48,4.63,2.48,1.06,0,2.13-.3,3.08-.93,1.9-1.27,2.73-3.49,2.35-5.61-.26,1.41-1.06,2.72-2.35,3.58Z"/><path class="cls-3" d="M42.33,41.14c-1.09,1.43-2.75,2.18-4.42,2.18-1.18,0-2.37-.37-3.38-1.15-1.13-.87-1.82-2.09-2.06-3.39-.36,1.99.35,4.1,2.06,5.42,1.01.77,2.2,1.15,3.38,1.15,1.67,0,3.32-.75,4.42-2.18,3.05-3.98,4.67-8.75,4.67-13.78,0-.35-.02-.69-.04-1.03-.2,4.66-1.78,9.07-4.63,12.79Z"/></g></svg>