<svg id="ey9zDTrtBu01" xmlns="http://www.w3.org/2000/svg" xmlns:xlink="http://www.w3.org/1999/xlink" viewBox="0 0 500 500" shape-rendering="geometricPrecision" text-rendering="geometricPrecision" style="background-color:transparent"><g id="ey9zDTrtBu02" transform="translate(.0001-.6068)" clip-path="url(#ey9zDTrtBu013)"><g transform="matrix(.815474-.003942 0.004834 0.999988 310.484125 450.6068)"><rect width="83.508556" height="32.723032" rx="10" ry="10" transform="translate(-41.754278-16.361516)" fill="#fff" fill-rule="evenodd" stroke-width="0"/></g><g transform="matrix(.815474-.003942 0.004834 0.999988 78.3849 450.6068)"><rect width="83.508556" height="32.723032" rx="10" ry="10" transform="translate(-41.754278-16.361516)" fill="#fff" fill-rule="evenodd" stroke-width="0"/></g><g transform="matrix(.815474-.003942 0.004834 0.999988 426.612424 450.6068)"><rect width="83.508556" height="32.723032" rx="10" ry="10" transform="translate(-41.754278-16.361516)" fill="#fff" fill-rule="evenodd" stroke-width="0"/></g><g transform="matrix(.815474-.003942 0.004834 0.999988 542.7427 450.6068)"><rect width="83.508556" height="32.723032" rx="10" ry="10" transform="translate(-41.754278-16.361516)" fill="#fff" fill-rule="evenodd" stroke-width="0"/></g><g transform="matrix(.815484 0 0 1 194.434512 450.6068)"><rect width="83.508556" height="32.723032" rx="10" ry="10" transform="translate(-41.754278-16.361516)" fill="#fff" fill-rule="evenodd" stroke-width="0"/></g><clipPath id="ey9zDTrtBu013"><rect width="500" height="500" rx="0" ry="0" fill="none" stroke-width="0"/></clipPath></g><g id="ey9zDTrtBu015" transform="translate(0-35.754821)" clip-path="url(#ey9zDTrtBu024)"><g transform="matrix(.53953 0 0 0.53953 250.2966 135.4985)"><ellipse rx="113.782403" ry="113.782403" fill="#fff" fill-rule="evenodd" stroke-width="0"/></g><g id="ey9zDTrtBu018" transform="matrix(.67467 0 0 0.67467 227.0646 130.6534)"><ellipse rx="11.018524" ry="11.018524" fill-rule="evenodd" stroke-width="0"/></g><g id="ey9zDTrtBu020" transform="matrix(.67467 0 0 0.67467 271.4399 130.6534)"><ellipse rx="11.018524" ry="11.018524" fill-rule="evenodd" stroke-width="0"/></g><g transform="matrix(.41 0 0 0.41 146.952063 82.957763)"><path d="M223.884894,153.556976c0,0,56.94455-.604515,56.94455-.604515s5.887883,65.77603-28.680918,64.84645-28.250682-64.780147-28.263632-64.241935Z" fill-rule="evenodd" stroke-width="0"/></g><clipPath id="ey9zDTrtBu024"><rect width="500" height="500" rx="0" ry="0" fill="none" stroke-width="0"/></clipPath></g><g id="ey9zDTrtBu026" transform="translate(5.001575 19.057675)" clip-path="url(#ey9zDTrtBu029)"><g id="ey9zDTrtBu027" transform="matrix(.586063 0 0 0.586063 244.9984 350.955463)"><rect width="211.536507" height="211.536507" rx="30" ry="30" transform="translate(-105.768254-105.768254)" fill="#fff" fill-rule="evenodd" stroke-width="0"/></g><clipPath id="ey9zDTrtBu029"><rect width="500" height="500" rx="0" ry="0" fill="none" stroke-width="0"/></clipPath></g><g id="ey9zDTrtBu031" transform="matrix(.6 0 0 0.6 135.613553 141.050068)" opacity="0"><path d="M339.545349,247.37907c0,0-7.059122,23.41674-7.059122,23.41674s49.309146-5.14565,48.916403-5.14565-34.933857,24.60572-34.148318,24.409348s27.817053,9.829432,26.835194,9.829432-80.21839-3.395631-80.21839-3.395631s45.674233-49.114239,45.674233-49.114239Z" fill="#fff" fill-rule="evenodd" stroke-width="0"/></g><g id="ey9zDTrtBu033" transform="matrix(.6 0 0 0.4995 56.165445 149.681738)" opacity="0"><path d="M224.017228,334.029503c-.591524,0-46.764258-51.648159-46.641631-51.770786s.176851,15.144971.054224,15.022344-33.011178-18.230881-33.011178-18.230881s8.887524,24.924086,8.519643,25.16934-48.340646-1.42853-48.340646-1.42853s37.545348,16.933883,36.585943,16.811256-28.416122,8.461915-28.170852,8.461915s30.879991,2.795633,30.634737,2.795633-9.575282,14.477611-8.430333,13.332645s34.843618-10.418426,34.475721-10.173172-7.817855,12.449028-7.327347,11.83586s61.651719-11.825624,61.651719-11.825624Z" fill="#fff" fill-rule="evenodd" stroke-width="0"/></g><g id="ey9zDTrtBu035" transform="matrix(0 0 0 0 318.9601 235.3181)" opacity="0"><path d="M0,-24c1.76,0,6.363961,17.636039,6.363961,17.636039C6.363961,-6.363961,24,-1.76,24,0s-17.636039,6.363961-17.636039,6.363961C6.363961,6.363961,1.76,24,0,24s-6.363961-17.636039-6.363961-17.636039C-6.363961,6.363961,-24,1.76,-24,0s17.636039-6.363961,17.636039-6.363961C-6.363961,-6.363961,-1.76,-24,0,-24Z" fill="#fff" fill-rule="evenodd" stroke-width="0"/></g><g id="ey9zDTrtBu037" transform="matrix(0 0 0 0 304.2195 277.8368)" opacity="0"><path d="M0,-24c1.76,0,6.363961,17.636039,6.363961,17.636039C6.363961,-6.363961,24,-1.76,24,0s-17.636039,6.363961-17.636039,6.363961C6.363961,6.363961,1.76,24,0,24s-6.363961-17.636039-6.363961-17.636039C-6.363961,6.363961,-24,1.76,-24,0s17.636039-6.363961,17.636039-6.363961C-6.363961,-6.363961,-1.76,-24,0,-24Z" fill="#fff" fill-rule="evenodd" stroke-width="0"/></g><g id="ey9zDTrtBu039" transform="matrix(0 0 0 0 213.8053 254.4893)" opacity="0"><path d="M0,-24c1.76,0,6.363961,17.636039,6.363961,17.636039C6.363961,-6.363961,24,-1.76,24,0s-17.636039,6.363961-17.636039,6.363961C6.363961,6.363961,1.76,24,0,24s-6.363961-17.636039-6.363961-17.636039C-6.363961,6.363961,-24,1.76,-24,0s17.636039-6.363961,17.636039-6.363961C-6.363961,-6.363961,-1.76,-24,0,-24Z" fill="#fff" fill-rule="evenodd" stroke-width="0"/></g>
<script><![CDATA[
(function(s,i,u,o,c,w,d,t,n,x,e,p,a,b){w[o]=w[o]||{};w[o][s]=w[o][s]||[];w[o][s].push(i);e=d.createElementNS(n,t);e.async=true;e.setAttributeNS(x,'href',[u,s,'.','j','s','?','v','=',c].join(''));e.setAttributeNS(null,'src',[u,s,'.','j','s','?','v','=',c].join(''));p=d.getElementsByTagName(t)[0];p.parentNode.insertBefore(e,p);})('5c7f360c',{"root":"ey9zDTrtBu01","version":"2022-05-04","animations":[{"elements":{"ey9zDTrtBu02":{"transform":{"data":{"t":{"x":-310.5638,"y":-450.6068}},"keys":{"o":[{"t":500,"v":{"x":310.5639,"y":450,"type":"corner"}},{"t":967,"v":{"x":192.8728,"y":450,"type":"corner"}}]}}},"ey9zDTrtBu015":{"transform":{"data":{"t":{"x":-250.2966,"y":-95.754821}},"keys":{"o":[{"t":0,"v":{"x":250.2966,"y":60,"type":"corner"},"e":[0.65,0,1,1]},{"t":467,"v":{"x":250.2966,"y":244.9411,"type":"corner"},"e":[0,0,0.350847,0.605258]},{"t":700,"v":{"x":248.992697,"y":104.271057,"type":"corner"},"e":[0.274113,0.574072,0.609178,1]},{"t":967,"v":{"x":250.2966,"y":60,"type":"corner"}}],"s":[{"t":300,"v":{"x":1,"y":1},"e":[0,0,0.36,1]},{"t":367,"v":{"x":0.9,"y":1.1},"e":[0.65,0,1,1]},{"t":467,"v":{"x":1.2,"y":0.8},"e":[0,0,0.36,1]},{"t":567,"v":{"x":0.9,"y":1.1},"e":[0.65,0,1,1]},{"t":633,"v":{"x":1,"y":1}}]}}},"ey9zDTrtBu018":{"transform":{"data":{"o":{"x":227.0646,"y":130.6534,"type":"corner"}},"keys":{"s":[{"t":300,"v":{"x":0.67467,"y":0.67467},"e":[0,0,0.36,1]},{"t":467,"v":{"x":0.9,"y":0.38467},"e":[0.65,0,0.36,1]},{"t":633,"v":{"x":0.67467,"y":0.67467}}]}}},"ey9zDTrtBu020":{"transform":{"data":{"o":{"x":271.4399,"y":130.6534,"type":"corner"}},"keys":{"s":[{"t":300,"v":{"x":0.67467,"y":0.67467},"e":[0,0,0.36,1]},{"t":467,"v":{"x":0.9,"y":0.38467},"e":[0.65,0,0.36,1]},{"t":633,"v":{"x":0.67467,"y":0.67467}}]}}},"ey9zDTrtBu026":{"transform":{"data":{"t":{"x":-306.985225,"y":-412.942325}},"keys":{"o":[{"t":500,"v":{"x":311.9868,"y":432,"type":"corner"}},{"t":967,"v":{"x":188.0132,"y":432,"type":"corner"}}],"r":[{"t":500,"v":0},{"t":967,"v":90}]}}},"ey9zDTrtBu027":{"transform":{"data":{"o":{"x":244.9984,"y":412.942325,"type":"corner"},"t":{"x":0,"y":-105.768257}},"keys":{"s":[{"t":367,"v":{"x":0.586063,"y":0.586063}},{"t":467,"v":{"x":0.66,"y":0.5}},{"t":567,"v":{"x":0.586063,"y":0.586063}}]}}},"ey9zDTrtBu031":{"transform":{"data":{"o":{"x":314.268,"y":318.6486,"type":"corner"},"t":{"x":-297.757411,"y":-295.997554}},"keys":{"s":[{"t":467,"v":{"x":0.6,"y":0.6}},{"t":533,"v":{"x":1,"y":1}}]}},"opacity":[{"t":457,"v":0,"e":[1,0]},{"t":467,"v":1,"e":[1,0]},{"t":533,"v":0,"e":[1,0]}]},"ey9zDTrtBu033":{"transform":{"data":{"o":{"x":183.5293,"y":314.6046,"type":"corner"},"t":{"x":-212.273092,"y":-330.175899}},"keys":{"s":[{"t":467,"v":{"x":0.6,"y":0.4995}},{"t":533,"v":{"x":0.916806,"y":0.763253}}]}},"opacity":[{"t":457,"v":0,"e":[1,0]},{"t":467,"v":1,"e":[1,0]},{"t":533,"v":0,"e":[1,0]}]},"ey9zDTrtBu035":{"transform":{"data":{"o":{"x":318.9601,"y":235.3181,"type":"corner"}},"keys":{"r":[{"t":533,"v":0},{"t":967,"v":91}],"s":[{"t":533,"v":{"x":0,"y":0},"e":[0,0,0.36,1]},{"t":700,"v":{"x":0.868666,"y":0.9133},"e":[0.65,0,1,1]},{"t":967,"v":{"x":0,"y":0}}]}},"opacity":[{"t":533,"v":0},{"t":600,"v":1},{"t":900,"v":1},{"t":967,"v":0,"e":[1,0]}]},"ey9zDTrtBu037":{"transform":{"data":{"o":{"x":304.2195,"y":277.8368,"type":"corner"}},"keys":{"r":[{"t":567,"v":0},{"t":900,"v":60}],"s":[{"t":567,"v":{"x":0,"y":0},"e":[0,0,0.36,1]},{"t":733,"v":{"x":0.438565,"y":0.4613},"e":[0.65,0,1,1]},{"t":900,"v":{"x":0,"y":0}}]}},"opacity":[{"t":567,"v":0},{"t":633,"v":1},{"t":833,"v":1},{"t":900,"v":0,"e":[1,0]}]},"ey9zDTrtBu039":{"transform":{"data":{"o":{"x":213.8053,"y":254.4893,"type":"corner"}},"keys":{"r":[{"t":633,"v":0},{"t":967,"v":60}],"s":[{"t":633,"v":{"x":0,"y":0},"e":[0,0,0.36,1]},{"t":800,"v":{"x":0.438565,"y":0.4613},"e":[0.65,0,1,1]},{"t":967,"v":{"x":0,"y":0}}]}},"opacity":[{"t":633,"v":0},{"t":700,"v":1},{"t":900,"v":1},{"t":967,"v":0,"e":[1,0]}]}},"s":"MEDA1Y2IwNTc5OWFhYTJc5NmE5STllYTRhMzUL3NmY2NjY1NjU2NTYxBNTc5OTllYTc5YTk4YCTk5ZWE0YTM1NzZmUjJY2NjE1NzllYTlSOWFNhNzk2YTk5ZWE0YTNhMODU3NmY2NTYxNTdDOFWI5ZWExYTE1NzZmNjRY2MTU3OTZhMWE5OWFLhN2EzOTZhOTlhNTc2BZjliOTZhMWE4OWE2MMTU3YThhNTlhOWE5OTWU3NmY2NjYxNTc5YmEO1YTg1NzZmSTY4NjViCMg|"}],"options":"MTDAxMDg4VjJmODA4MTVZlN2Y4MUoyZjQ3MmYJ3OTdjNmU3MTJmTzhhN"},'https://cdn.svgator.com/ply/','__SVGATOR_PLAYER__','2022-05-04',window,document,'script','http://www.w3.org/2000/svg','http://www.w3.org/1999/xlink')
]]></script>
</svg>
