<svg xmlns="http://www.w3.org/2000/svg" xmlns:xlink="http://www.w3.org/1999/xlink" viewBox="0 0 500 500" width="500" height="500" preserveAspectRatio="xMidYMid meet" style="width: 100%; height: 100%; transform: translate3d(0px, 0px, 0px); content-visibility: visible;"><defs><clipPath id="__lottie_element_713"><rect width="500" height="500" x="0" y="0"></rect></clipPath><clipPath id="__lottie_element_730"><path d="M0,0 L500,0 L500,500 L0,500z"></path></clipPath><clipPath id="__lottie_element_737"><path d="M0,0 L500,0 L500,500 L0,500z"></path></clipPath><clipPath id="__lottie_element_753"><path d="M0,0 L500,0 L500,500 L0,500z"></path></clipPath></defs><g clip-path="url(#__lottie_element_713)"><g clip-path="url(#__lottie_element_753)" transform="matrix(1,0,0,1,-0.100799560546875,-0.6068115234375)" opacity="1" style="display: block;"><g transform="matrix(0.815474808216095,-0.003941704053431749,0.004833573941141367,0.999988317489624,310.484130859375,450.6068115234375)" opacity="1" style="display: block;"><path fill-rule="evenodd" fill="rgb(255,255,255)" fill-opacity="1" d=" M41.75428009033203,-6.361516952514648 C41.75428009033203,-6.361516952514648 41.75428009033203,6.361516952514648 41.75428009033203,6.361516952514648 C41.75428009033203,11.88051700592041 37.27328109741211,16.36151695251465 31.75428009033203,16.36151695251465 C31.75428009033203,16.36151695251465 -31.75428009033203,16.36151695251465 -31.75428009033203,16.36151695251465 C-37.27328109741211,16.36151695251465 -41.75428009033203,11.88051700592041 -41.75428009033203,6.361516952514648 C-41.75428009033203,6.361516952514648 -41.75428009033203,-6.361516952514648 -41.75428009033203,-6.361516952514648 C-41.75428009033203,-11.88051700592041 -37.27328109741211,-16.36151695251465 -31.75428009033203,-16.36151695251465 C-31.75428009033203,-16.36151695251465 31.75428009033203,-16.36151695251465 31.75428009033203,-16.36151695251465 C37.27328109741211,-16.36151695251465 41.75428009033203,-11.88051700592041 41.75428009033203,-6.361516952514648z"></path></g><g transform="matrix(0.815474808216095,-0.003941704053431749,0.004833573941141367,0.999988317489624,78.38490295410156,450.6068115234375)" opacity="1" style="display: block;"><path fill-rule="evenodd" fill="rgb(255,255,255)" fill-opacity="1" d=" M41.75428009033203,-6.361516952514648 C41.75428009033203,-6.361516952514648 41.75428009033203,6.361516952514648 41.75428009033203,6.361516952514648 C41.75428009033203,11.88051700592041 37.27328109741211,16.36151695251465 31.75428009033203,16.36151695251465 C31.75428009033203,16.36151695251465 -31.75428009033203,16.36151695251465 -31.75428009033203,16.36151695251465 C-37.27328109741211,16.36151695251465 -41.75428009033203,11.88051700592041 -41.75428009033203,6.361516952514648 C-41.75428009033203,6.361516952514648 -41.75428009033203,-6.361516952514648 -41.75428009033203,-6.361516952514648 C-41.75428009033203,-11.88051700592041 -37.27328109741211,-16.36151695251465 -31.75428009033203,-16.36151695251465 C-31.75428009033203,-16.36151695251465 31.75428009033203,-16.36151695251465 31.75428009033203,-16.36151695251465 C37.27328109741211,-16.36151695251465 41.75428009033203,-11.88051700592041 41.75428009033203,-6.361516952514648z"></path></g><g transform="matrix(0.815474808216095,-0.003941704053431749,0.004833573941141367,0.999988317489624,426.6124267578125,450.6068115234375)" opacity="1" style="display: block;"><path fill-rule="evenodd" fill="rgb(255,255,255)" fill-opacity="1" d=" M41.75428009033203,-6.361516952514648 C41.75428009033203,-6.361516952514648 41.75428009033203,6.361516952514648 41.75428009033203,6.361516952514648 C41.75428009033203,11.88051700592041 37.27328109741211,16.36151695251465 31.75428009033203,16.36151695251465 C31.75428009033203,16.36151695251465 -31.75428009033203,16.36151695251465 -31.75428009033203,16.36151695251465 C-37.27328109741211,16.36151695251465 -41.75428009033203,11.88051700592041 -41.75428009033203,6.361516952514648 C-41.75428009033203,6.361516952514648 -41.75428009033203,-6.361516952514648 -41.75428009033203,-6.361516952514648 C-41.75428009033203,-11.88051700592041 -37.27328109741211,-16.36151695251465 -31.75428009033203,-16.36151695251465 C-31.75428009033203,-16.36151695251465 31.75428009033203,-16.36151695251465 31.75428009033203,-16.36151695251465 C37.27328109741211,-16.36151695251465 41.75428009033203,-11.88051700592041 41.75428009033203,-6.361516952514648z"></path></g><g transform="matrix(0.815474808216095,-0.003941704053431749,0.004833573941141367,0.999988317489624,542.74267578125,450.6068115234375)" opacity="1" style="display: block;"><path fill-rule="evenodd" fill="rgb(255,255,255)" fill-opacity="1" d=" M41.75428009033203,-6.361516952514648 C41.75428009033203,-6.361516952514648 41.75428009033203,6.361516952514648 41.75428009033203,6.361516952514648 C41.75428009033203,11.88051700592041 37.27328109741211,16.36151695251465 31.75428009033203,16.36151695251465 C31.75428009033203,16.36151695251465 -31.75428009033203,16.36151695251465 -31.75428009033203,16.36151695251465 C-37.27328109741211,16.36151695251465 -41.75428009033203,11.88051700592041 -41.75428009033203,6.361516952514648 C-41.75428009033203,6.361516952514648 -41.75428009033203,-6.361516952514648 -41.75428009033203,-6.361516952514648 C-41.75428009033203,-11.88051700592041 -37.27328109741211,-16.36151695251465 -31.75428009033203,-16.36151695251465 C-31.75428009033203,-16.36151695251465 31.75428009033203,-16.36151695251465 31.75428009033203,-16.36151695251465 C37.27328109741211,-16.36151695251465 41.75428009033203,-11.88051700592041 41.75428009033203,-6.361516952514648z"></path></g><g transform="matrix(0.815484344959259,0,0,1,194.43450927734375,450.6068115234375)" opacity="1" style="display: block;"><path fill-rule="evenodd" fill="rgb(255,255,255)" fill-opacity="1" d=" M41.75428009033203,-6.361516952514648 C41.75428009033203,-6.361516952514648 41.75428009033203,6.361516952514648 41.75428009033203,6.361516952514648 C41.75428009033203,11.88051700592041 37.27328109741211,16.36151695251465 31.75428009033203,16.36151695251465 C31.75428009033203,16.36151695251465 -31.75428009033203,16.36151695251465 -31.75428009033203,16.36151695251465 C-37.27328109741211,16.36151695251465 -41.75428009033203,11.88051700592041 -41.75428009033203,6.361516952514648 C-41.75428009033203,6.361516952514648 -41.75428009033203,-6.361516952514648 -41.75428009033203,-6.361516952514648 C-41.75428009033203,-11.88051700592041 -37.27328109741211,-16.36151695251465 -31.75428009033203,-16.36151695251465 C-31.75428009033203,-16.36151695251465 31.75428009033203,-16.36151695251465 31.75428009033203,-16.36151695251465 C37.27328109741211,-16.36151695251465 41.75428009033203,-11.88051700592041 41.75428009033203,-6.361516952514648z"></path></g></g><g clip-path="url(#__lottie_element_737)" transform="matrix(1.0182255506515503,0,0,0.9817744493484497,-4.561798095703125,121.55292510986328)" opacity="1" style="display: block;"><g transform="matrix(0.5395300984382629,0,0,0.5395300984382629,250.29660034179688,135.49850463867188)" opacity="1" style="display: block;"><path fill-rule="evenodd" fill="rgb(255,255,255)" fill-opacity="1" d=" M0,-113.78240203857422 C62.7965087890625,-113.78240203857422 113.78240203857422,-62.7965087890625 113.78240203857422,0 C113.78240203857422,62.7965087890625 62.7965087890625,113.78240203857422 0,113.78240203857422 C-62.7965087890625,113.78240203857422 -113.78240203857422,62.7965087890625 -113.78240203857422,0 C-113.78240203857422,-62.7965087890625 -62.7965087890625,-113.78240203857422 0,-113.78240203857422z"></path></g><g transform="matrix(0.8904217481613159,0,0,0.3969971835613251,227.06460571289062,130.6533966064453)" opacity="1" style="display: block;"><path fill-rule="evenodd" fill="rgb(0,0,0)" fill-opacity="1" d=" M0,-11.018524169921875 C6.081123352050781,-11.018524169921875 11.018524169921875,-6.081123352050781 11.018524169921875,0 C11.018524169921875,6.081123352050781 6.081123352050781,11.018524169921875 0,11.018524169921875 C-6.081123352050781,11.018524169921875 -11.018524169921875,6.081123352050781 -11.018524169921875,0 C-11.018524169921875,-6.081123352050781 -6.081123352050781,-11.018524169921875 0,-11.018524169921875z"></path></g><g transform="matrix(0.8904217481613159,0,0,0.3969971835613251,271.4399108886719,130.6533966064453)" opacity="1" style="display: block;"><path fill-rule="evenodd" fill="rgb(0,0,0)" fill-opacity="1" d=" M0,-11.018524169921875 C6.081123352050781,-11.018524169921875 11.018524169921875,-6.081123352050781 11.018524169921875,0 C11.018524169921875,6.081123352050781 6.081123352050781,11.018524169921875 0,11.018524169921875 C-6.081123352050781,11.018524169921875 -11.018524169921875,6.081123352050781 -11.018524169921875,0 C-11.018524169921875,-6.081123352050781 -6.081123352050781,-11.018524169921875 0,-11.018524169921875z"></path></g><g transform="matrix(0.4099999964237213,0,0,0.4099999964237213,146.95205688476562,82.957763671875)" opacity="1" style="display: block;"><path fill-rule="evenodd" fill="rgb(0,0,0)" fill-opacity="1" d=" M216.99339294433594,153.13467407226562 C216.99339294433594,153.13467407226562 283.9924621582031,148.32516479492188 289.71209716796875,151.97369384765625 C294.8592529296875,155.25701904296875 281.9359436035156,161.98960876464844 252.12338256835938,160.46554565429688 C222.31082153320312,158.94146728515625 217.00634765625,152.59646606445312 216.99339294433594,153.13467407226562z"></path></g></g><g clip-path="url(#__lottie_element_730)" transform="matrix(0.9999991059303284,0.001346396398730576,-0.001346396398730576,0.9999991059303284,5.451568603515625,18.64471435546875)" opacity="1" style="display: block;"><g transform="matrix(0.6350584626197815,0,0,0.5290318131446838,244.99839782714844,356.987548828125)" opacity="1" style="display: block;"><path fill-rule="evenodd" fill="rgb(255,253,170)" fill-opacity="1" d=" M105.76825714111328,-75.76825714111328 C105.76825714111328,-75.76825714111328 105.76825714111328,75.76825714111328 105.76825714111328,75.76825714111328 C105.76825714111328,92.32525634765625 92.32525634765625,105.76825714111328 75.76825714111328,105.76825714111328 C75.76825714111328,105.76825714111328 -75.76825714111328,105.76825714111328 -75.76825714111328,105.76825714111328 C-92.32525634765625,105.76825714111328 -105.76825714111328,92.32525634765625 -105.76825714111328,75.76825714111328 C-105.76825714111328,75.76825714111328 -105.76825714111328,-75.76825714111328 -105.76825714111328,-75.76825714111328 C-105.76825714111328,-92.32525634765625 -92.32525634765625,-105.76825714111328 -75.76825714111328,-105.76825714111328 C-75.76825714111328,-105.76825714111328 75.76825714111328,-105.76825714111328 75.76825714111328,-105.76825714111328 C92.32525634765625,-105.76825714111328 105.76825714111328,-92.32525634765625 105.76825714111328,-75.76825714111328z"></path></g></g><g transform="matrix(0.8023999929428101,0,0,0.8023999929428101,75.34745788574219,81.14015197753906)" opacity="1" style="display: block;"><path fill-rule="evenodd" fill="rgb(255,255,255)" fill-opacity="1" d=" M339.54534912109375,247.3790740966797 C339.54534912109375,247.3790740966797 332.4862365722656,270.7958068847656 332.4862365722656,270.7958068847656 C332.4862365722656,270.7958068847656 381.7953796386719,265.650146484375 381.4026184082031,265.650146484375 C381.0098876953125,265.650146484375 346.4687805175781,290.2558898925781 347.2543029785156,290.05950927734375 C348.03985595703125,289.8631286621094 375.07135009765625,299.8889465332031 374.0895080566406,299.8889465332031 C373.1076354980469,299.8889465332031 293.8711242675781,296.4933166503906 293.8711242675781,296.4933166503906 C293.8711242675781,296.4933166503906 339.54534912109375,247.3790740966797 339.54534912109375,247.3790740966797z"></path></g><g transform="matrix(0.760303795337677,0,0,0.6329588890075684,22.13726806640625,105.61683654785156)" opacity="1" style="display: block;"><path fill-rule="evenodd" fill="rgb(255,255,255)" fill-opacity="1" d=" M224.01722717285156,334.0295104980469 C223.4257049560547,334.0295104980469 177.2529754638672,282.38134765625 177.37559509277344,282.25872802734375 C177.49822998046875,282.1360778808594 177.5524444580078,297.4036865234375 177.42982482910156,297.28106689453125 C177.30718994140625,297.158447265625 144.41864013671875,279.0501708984375 144.41864013671875,279.0501708984375 C144.41864013671875,279.0501708984375 153.30616760253906,303.9742736816406 152.93829345703125,304.2195129394531 C152.57040405273438,304.46478271484375 104.59764099121094,302.7909851074219 104.59764099121094,302.7909851074219 C104.59764099121094,302.7909851074219 142.1429901123047,319.7248840332031 141.18357849121094,319.60223388671875 C140.22418212890625,319.4796142578125 112.76746368408203,328.06414794921875 113.01273345947266,328.06414794921875 C113.25800323486328,328.06414794921875 143.89271545410156,330.85980224609375 143.6474609375,330.85980224609375 C143.4022216796875,330.85980224609375 134.0721893310547,345.33740234375 135.21713256835938,344.19244384765625 C136.36209106445312,343.0474853515625 170.06076049804688,333.7740173339844 169.69285583496094,334.0192565917969 C169.324951171875,334.2645263671875 161.875,346.4682922363281 162.36550903320312,345.8551330566406 C162.85601806640625,345.2419738769531 224.01722717285156,334.0295104980469 224.01722717285156,334.0295104980469z"></path></g><g transform="matrix(0.004958408884704113,0.12399328500032425,-0.13036435842514038,0.00521318381652236,318.9601135253906,235.31809997558594)" opacity="0.23500000000000654" style="display: none;"><path fill-rule="evenodd" fill="rgb(255,255,255)" fill-opacity="1" d=" M1.469576117223083e-15,-24 C2.073451042175293,-24 6.363961219787598,-6.363961219787598 6.363961219787598,-6.363961219787598 C6.363961219787598,-6.363961219787598 24,-2.073451042175293 24,0 C24,2.073451042175293 6.363961219787598,6.363961219787598 6.363961219787598,6.363961219787598 C6.363961219787598,6.363961219787598 2.073451042175293,24 1.469576117223083e-15,24 C-2.073451042175293,24 -6.363961219787598,6.363961219787598 -6.363961219787598,6.363961219787598 C-6.363961219787598,6.363961219787598 -24,2.073451042175293 -24,2.939152234446166e-15 C-24,-2.073451042175293 -6.363961219787598,-6.363961219787598 -6.363961219787598,-6.363961219787598 C-6.363961219787598,-6.363961219787598 -2.073451042175293,-24 1.469576117223083e-15,-24z"></path></g><g transform="matrix(0.05186177045106888,0.08039357513189316,-0.08456113934516907,0.05455026030540466,304.2195129394531,277.8367919921875)" opacity="0.2354999999999609" style="display: none;"><path fill-rule="evenodd" fill="rgb(255,255,255)" fill-opacity="1" d=" M1.469576117223083e-15,-24 C2.073451042175293,-24 6.363961219787598,-6.363961219787598 6.363961219787598,-6.363961219787598 C6.363961219787598,-6.363961219787598 24,-2.073451042175293 24,0 C24,2.073451042175293 6.363961219787598,6.363961219787598 6.363961219787598,6.363961219787598 C6.363961219787598,6.363961219787598 2.073451042175293,24 1.469576117223083e-15,24 C-2.073451042175293,24 -6.363961219787598,6.363961219787598 -6.363961219787598,6.363961219787598 C-6.363961219787598,6.363961219787598 -24,2.073451042175293 -24,2.939152234446166e-15 C-24,-2.073451042175293 -6.363961219787598,-6.363961219787598 -6.363961219787598,-6.363961219787598 C-6.363961219787598,-6.363961219787598 -2.073451042175293,-24 1.469576117223083e-15,-24z"></path></g><g transform="matrix(0.05175638943910599,0.08024866878986359,-0.0844087153673172,0.05443941801786423,213.8052978515625,254.4893035888672)" opacity="0.23500000000000654" style="display: none;"><path fill-rule="evenodd" fill="rgb(255,255,255)" fill-opacity="1" d=" M1.469576117223083e-15,-24 C2.073451042175293,-24 6.363961219787598,-6.363961219787598 6.363961219787598,-6.363961219787598 C6.363961219787598,-6.363961219787598 24,-2.073451042175293 24,0 C24,2.073451042175293 6.363961219787598,6.363961219787598 6.363961219787598,6.363961219787598 C6.363961219787598,6.363961219787598 2.073451042175293,24 1.469576117223083e-15,24 C-2.073451042175293,24 -6.363961219787598,6.363961219787598 -6.363961219787598,6.363961219787598 C-6.363961219787598,6.363961219787598 -24,2.073451042175293 -24,2.939152234446166e-15 C-24,-2.073451042175293 -6.363961219787598,-6.363961219787598 -6.363961219787598,-6.363961219787598 C-6.363961219787598,-6.363961219787598 -2.073451042175293,-24 1.469576117223083e-15,-24z"></path></g></g></svg>