<svg xmlns="http://www.w3.org/2000/svg" viewBox="0 0 27 27"><title>b_symbol</title><path d="M13.5,0A13.50743,13.50743,0,0,0,0,13.5H0A13.5,13.5,0,1,0,13.5,0Zm0,24.5a11,11,0,1,1,11-11h0A10.96832,10.96832,0,0,1,13.5,24.5Z" style="fill:#f7c72e"/><path d="M17.2,13.1a3.21885,3.21885,0,0,0,1.5-2.8,5.01937,5.01937,0,0,0-.2-1.2,2.07492,2.07492,0,0,0-.6-1,6.46977,6.46977,0,0,0-.9-.8,5.78249,5.78249,0,0,0-1.4-.5,8.62219,8.62219,0,0,0-1.7-.1H9.7a1.70527,1.70527,0,0,0-1.5.4,2.07,2.07,0,0,0-.5,1.5v9.8a2.07,2.07,0,0,0,.5,1.5,2.07,2.07,0,0,0,1.5.5h4a11.483,11.483,0,0,0,1.9-.1,8.33089,8.33089,0,0,0,1.5-.4,3.90679,3.90679,0,0,0,1.7-1.4,4.03168,4.03168,0,0,0,.6-2.2A3.47562,3.47562,0,0,0,17.2,13.1Zm-2-1.8c-.1.3-.3.4-.6.5a4.63571,4.63571,0,0,1-1.4.2h-2V9.3H13a4.91817,4.91817,0,0,1,2,.3c.2.1.5.3.5,1A4.87524,4.87524,0,0,1,15.2,11.3Zm.7,4.8c0,.7-.2,1.6-2.3,1.6H11.1V14.6h2.4a3.36106,3.36106,0,0,1,1.9.4A1.29031,1.29031,0,0,1,15.9,16.1Z" style="fill:#f7c72e"/></svg>