<?xml version="1.0" encoding="utf-8"?>
<!-- Generator: Adobe Illustrator 22.0.1, SVG Export Plug-In . SVG Version: 6.00 Build 0)  -->
<svg version="1.1" id="Layer_1" xmlns="http://www.w3.org/2000/svg" xmlns:xlink="http://www.w3.org/1999/xlink" x="0px" y="0px"
	 viewBox="0 0 92 59.8" style="enable-background:new 0 0 92 59.8;" xml:space="preserve">
<style type="text/css">
	.st0{fill:#5D5D5D;}
	.st1{fill:#ffa31a;}
</style>
<g>
	<g>
		<g>
			<polygon class="st0" points="13.7,11.5 7.8,11.5 7.8,0 4.2,0 4.2,14.5 13.7,14.5 			"/>
			<polygon class="st0" points="33.7,11.5 27.8,11.5 27.8,8.7 32.3,8.7 32.3,5.7 27.8,5.7 27.8,3 33.4,3 33.4,0 24.2,0 24.2,14.5 
				33.7,14.5 			"/>
			<path class="st0" d="M61.8,9.6h1.7l2.6,4.9h4l-2.8-5.1c-0.3-0.6-0.6-0.9-0.6-0.9v0c1.5-0.7,2.2-2.4,2.2-4c0-2.1-1-3.6-2.7-4.2
				C65.5,0.1,64.8,0,63.3,0h-5.1v14.5h3.6V9.6z M61.8,3H63c1.8,0,2.2,0.6,2.2,1.7c0,1.2-0.7,1.8-1.9,1.8h-1.6V3z"/>
			<path class="st0" d="M82.1,7.8c0-0.9-0.2-2.5-0.2-2.5h0c0,0,0.7,1.5,1.2,2.5l4.1,6.8h3.6V0h-3.6v6.8c0,0.9,0.2,2.5,0.2,2.5h0
				c0,0-0.7-1.5-1.2-2.5L82.1,0h-3.6v14.5h3.6V7.8z"/>
			<path class="st0" d="M7.9,22.7c0-0.8,0.8-1.1,1.6-1.1c1.8,0,3.2,1.3,3.2,1.3l1.5-2.9c0,0-1.6-1.6-4.7-1.6c-2.9,0-5.2,1.8-5.2,4.4
				c0,4.5,6.6,4.4,6.6,6.1c0,0.9-0.8,1.2-1.5,1.2c-1.8,0-3.5-1.5-3.5-1.5L4,31.2c0,0,1.9,2.1,5.4,2.1c3.3,0,5.2-2.1,5.2-4.5
				C14.5,24.2,7.9,24.5,7.9,22.7z"/>
			<path class="st0" d="M32.3,18.5l-2.1,6.1c-0.3,0.9-0.7,2.4-0.7,2.4h0c0,0-0.4-1.5-0.7-2.4l-2.1-6.1h-3.9L21.4,33H25l0.4-6.5
				c0.1-1.1,0-2.4,0-2.4h0c0,0,0.5,1.5,0.8,2.4l1.5,4.2H31l1.5-4.2c0.3-0.9,0.8-2.4,0.8-2.4h0c0,0-0.1,1.3,0,2.4l0.5,6.5h3.6
				l-1.2-14.5H32.3z"/>
			<path class="st0" d="M66.8,27.1L66.8,27.1c1.5-0.8,2.2-2.5,2.2-4c0-2.1-1-3.6-2.7-4.2c-0.6-0.2-1.4-0.3-2.8-0.3h-5.1V33H62v-4.9
				h1.7l2.6,4.9h4l-2.8-5.1C67,27.3,66.8,27.1,66.8,27.1z M63.5,25.1H62v-3.5h1.2c1.8,0,2.2,0.6,2.2,1.7
				C65.4,24.4,64.7,25.1,63.5,25.1z"/>
			<polygon class="st0" points="78.5,18.5 78.5,21.5 82.9,21.5 82.9,33 86.5,33 86.5,21.5 90.9,21.5 90.9,18.5 			"/>
		</g>
	</g>
	<g>
		<path class="st1" d="M44.1,11.5h4.6l0.9,3h3.7L48.3,0h-3.8l-5,14.5h3.7L44.1,11.5z M45.8,5.8c0.3-0.9,0.6-2.5,0.6-2.5h0
			c0,0,0.3,1.6,0.6,2.5l0.8,2.8H45L45.8,5.8z"/>
		<path class="st1" d="M44.8,18.5l-5,14.5h3.7l0.9-3H49l0.9,3h3.7l-5-14.5H44.8z M45.3,27.1l0.8-2.8c0.3-0.9,0.6-2.5,0.6-2.5h0
			c0,0,0.3,1.6,0.6,2.5l0.8,2.8H45.3z"/>
		<path class="st1" d="M68.2,45.1L68.2,45.1c0,0-0.3,1.2-0.5,1.9l-0.6,2.2h2.2l-0.6-2.2C68.5,46.4,68.2,45.1,68.2,45.1z"/>
		<path class="st1" d="M9.6,44.9H8.2v3h1.3c1,0,1.4-0.6,1.4-1.5C11,45.5,10.5,44.9,9.6,44.9z"/>
		<path class="st1" d="M19.8,45.1L19.8,45.1c0,0-0.3,1.2-0.5,1.9l-0.6,2.2h2.2l-0.6-2.2C20,46.4,19.8,45.1,19.8,45.1z"/>
		<path class="st1" d="M0,37.1v22.7h92V37.1H0z M10.1,50.3H8.2v3.5H5.5V42.6h4.7c2.2,0,3.7,1.6,3.7,3.9
			C13.8,48.7,12.3,50.3,10.1,50.3z M22.2,53.8l-0.7-2.4H18l-0.7,2.4h-2.8l3.8-11.2h2.9L25,53.8H22.2z M33.3,53.8l-2.4-4.6h-1.1v4.6
			H27V42.6h2.7v4.3h1.1l2.3-4.3h2.9l-3,5.4v0l3.2,5.8H33.3z M41.3,53.8h-2.7V42.6h2.7V53.8z M48,54c-2.6,0-4.1-1.6-4.1-1.6l1.4-2.1
			c0,0,1.3,1.2,2.7,1.2c0.6,0,1.2-0.2,1.2-0.9c0-1.3-5-1.3-5-4.7c0-2.1,1.7-3.4,4-3.4c2.4,0,3.6,1.3,3.6,1.3l-1.2,2.2
			c0,0-1.1-1-2.5-1c-0.6,0-1.2,0.3-1.2,0.9c0,1.4,5.1,1.2,5.1,4.7C51.9,52.4,50.5,54,48,54z M62.8,44.9h-3.4v8.9h-2.7v-8.9h-3.4
			v-2.4h9.6V44.9z M70.6,53.8l-0.7-2.4h-3.5l-0.7,2.4h-2.8l3.8-11.2h2.9l3.8,11.2H70.6z M84.9,53.8h-2.8L79,48.6
			c-0.4-0.7-0.9-1.9-0.9-1.9h0c0,0,0.1,1.2,0.1,1.9v5.2h-2.7V42.6h2.8l3.1,5.2c0.4,0.7,0.9,1.9,0.9,1.9h0c0,0-0.1-1.2-0.1-1.9v-5.2
			h2.7V53.8z"/>
	</g>
</g>
</svg>
