<svg xmlns="http://www.w3.org/2000/svg" viewBox="0 0 27.02301 27.03101"><title>k_symbol</title><path d="M13.514,0A13.515,13.515,0,0,0,0,13.516v.001A13.51151,13.51151,0,1,0,13.514,0Zm0,24.525A11.00949,11.00949,0,1,1,24.523,13.517,11.011,11.011,0,0,1,13.514,24.525Z" style="fill:#f7c72e"/><path d="M13.63119,13.50528l5.09863-4.44677a1.77983,1.77983,0,0,0-1.25293-3.03272,1.78916,1.78916,0,0,0-1.26465.51563l-4.86377,4.25927V7.79435a1.78821,1.78821,0,0,0-3.05566-1.2417,1.70608,1.70608,0,0,0-.52637,1.2417V19.21378a1.69743,1.69743,0,0,0,.52881,1.25683,1.82569,1.82569,0,0,0,2.53809-.00292,1.71717,1.71717,0,0,0,.51513-1.25391V16.21085l4.86084,4.29883a1.84293,1.84293,0,0,0,1.26758.49511A1.76907,1.76907,0,0,0,18.7347,20.496a1.79715,1.79715,0,0,0,.52149-1.27051,1.71713,1.71713,0,0,0-.52637-1.25293Z" style="fill:#f7c72e"/></svg>