<svg width="593" height="593" viewBox="0 0 593 593" fill="none" xmlns="http://www.w3.org/2000/svg">
<g opacity="0.5">
<path d="M296.5 592.5C459.976 592.5 592.5 459.976 592.5 296.5C592.5 133.024 459.976 0.5 296.5 0.5C133.024 0.5 0.5 133.024 0.5 296.5C0.5 459.976 133.024 592.5 296.5 592.5Z" fill="black"/>
</g>
<path d="M390.905 107.059C365.974 76.6254 334.873 50.5273 300.937 50.5273H297.852V50.7775C265.334 52.2783 235.15 77.5426 211.22 107.059C195.378 126.403 186.206 150.417 184.872 175.514C181.287 240.885 230.398 296.833 294.517 300.501C358.72 304.17 413.667 254.142 417.253 188.855C417.42 186.521 417.42 184.186 417.42 181.935C417.42 154.586 408.081 128.154 390.905 107.143V107.059Z" fill="black"/>
<path opacity="0.5" d="M377.155 123.735C352.224 93.3011 321.123 67.2031 287.187 67.2031H284.102V67.4533C251.584 68.9541 221.4 94.2183 197.47 123.735C181.628 143.079 172.456 167.093 171.122 192.19C167.537 257.56 216.648 313.508 280.767 317.177C344.97 320.846 399.917 270.818 403.503 205.531C403.67 203.196 403.67 200.862 403.67 198.61C403.67 171.262 394.331 144.83 377.155 123.818V123.735Z" fill="black"/>
<path opacity="0.5" d="M134.591 305.586H406.244C451.853 305.586 474.615 336.687 474.615 398.972C474.615 461.257 451.853 492.358 406.244 492.358H134.591C88.9816 492.358 66.2188 461.257 66.2188 398.972C66.2188 336.687 88.9816 305.586 134.591 305.586Z" fill="black"/>
<path d="M381.662 117.397C359.733 91.0492 332.3 68.4531 302.284 68.4531H299.532V68.7033C270.849 69.954 244.251 91.883 223.156 117.481C209.231 134.24 201.06 155.002 199.976 176.764C196.808 233.379 240.082 281.823 296.697 284.992C353.312 288.16 401.756 244.886 404.925 188.271C405.008 186.269 405.091 184.268 405.091 182.267C405.091 158.587 396.837 135.658 381.662 117.481V117.397Z" fill="#F4B64F"/>
<path d="M298.105 75.8766C303.858 74.3758 309.612 77.7944 311.112 83.5476C311.112 83.7144 311.196 83.9645 311.279 84.1313C315.615 107.811 324.537 167.178 309.361 182.353C295.437 196.278 241.323 188.19 219.227 184.188C213.724 183.27 209.972 178.268 210.639 172.765C213.391 154.504 221.062 137.328 232.902 123.07C249.078 100.807 271.924 84.298 298.022 75.8766H298.105Z" fill="#DE74FF"/>
<path d="M157.125 300.668H451.708C501.152 300.668 525.833 328.434 525.833 384.048C525.833 439.663 501.152 467.429 451.708 467.429H157.125C107.681 467.429 83 439.663 83 384.048C83 328.434 107.681 300.668 157.125 300.668Z" fill="black"/>
<path d="M167.934 313.926H439.587C485.196 313.926 507.959 336.689 507.959 382.298C507.959 427.907 485.196 450.669 439.587 450.669H167.934C122.325 450.669 99.5625 427.907 99.5625 382.298C99.5625 336.689 122.325 313.926 167.934 313.926Z" fill="#5FFFF1"/>
</svg>
