<svg width="1171" height="1052" viewBox="0 0 1171 1052" fill="none" xmlns="http://www.w3.org/2000/svg">
<mask id="path-1-outside-1_5067_309" maskUnits="userSpaceOnUse" x="0" y="0" width="1171" height="1052" fill="black">
<rect fill="white" width="1171" height="1052"/>
<path fill-rule="evenodd" clip-rule="evenodd" d="M232.811 96.2903C288.204 39.9216 377.873 39.9005 433.093 96.2432L567.777 233.667L686.78 112.567C742.173 56.1987 831.843 56.1776 887.062 112.52C942.281 168.863 942.141 260.233 886.747 316.602L767.744 437.702L877.976 550.176C879.436 551.665 880.845 553.166 882.206 554.678L899.839 536.734C900.882 535.673 901.96 534.668 903.068 533.72C920.843 515.641 949.609 515.637 967.325 533.713L975.584 542.141C976.092 542.659 976.585 543.186 977.064 543.722L986.892 553.75C1006.29 573.543 1006.24 605.642 986.781 625.445L751.211 865.163C731.752 884.966 700.25 884.973 680.852 865.18L664.159 848.147C663.627 847.605 663.111 847.054 662.609 846.494L661.285 845.143C643.593 827.091 643.611 797.833 661.307 779.74C662.239 778.611 663.226 777.514 664.269 776.453L681.796 758.617C680.312 757.232 678.84 755.794 677.38 754.305L567.148 641.831L494.276 715.985C492.817 717.47 491.351 718.894 489.879 720.257L510.439 741.235C528.158 759.314 528.112 788.632 510.338 806.719L502.053 815.151C501.609 815.602 501.158 816.043 500.701 816.472L490.489 826.863C471.03 846.666 439.528 846.673 420.13 826.88L185.299 587.272C165.9 567.479 165.949 535.38 185.409 515.577L202.155 498.537C202.619 498.065 203.09 497.604 203.567 497.154L205.258 495.433C223.032 477.346 251.804 477.339 269.523 495.418L290.097 516.411C291.446 514.922 292.85 513.436 294.309 511.95L367.18 437.796L232.496 300.372C177.277 244.03 177.418 152.659 232.811 96.2903ZM438.438 510.503L361.269 589.031L418.477 647.403L495.646 568.875L438.438 510.503ZM696.243 364.746L796.678 262.541C811.947 247.003 811.986 221.817 796.765 206.286L794.678 204.157C779.457 188.626 754.739 188.632 739.47 204.17L639.035 306.374L696.243 364.746ZM382.777 190.494L810.858 627.282L753.208 685.947L325.127 249.159C309.282 232.991 309.322 206.771 325.217 190.596L325.305 190.507C341.2 174.332 366.931 174.326 382.777 190.494ZM942.305 971.939C942.429 972.061 942.553 972.181 942.678 972.301L955.898 985.791C972.464 1002.69 999.365 1002.69 1015.98 985.777L1104.86 895.339C1121.47 878.428 1121.52 851.017 1104.95 834.114L1086.69 815.485C1086.41 815.193 1086.12 814.905 1085.82 814.623L1083.08 811.829C1068.44 796.886 1044.66 796.891 1029.97 811.841L934.117 909.38C919.425 924.329 919.388 948.563 934.033 963.506L941.858 971.49C941.92 971.553 941.983 971.617 942.045 971.68C942.132 971.766 942.218 971.853 942.305 971.939ZM828.185 804.751L927.436 703.752C931.338 699.782 937.654 699.78 941.543 703.749L942.586 704.813C946.476 708.782 946.466 715.217 942.564 719.188L843.313 820.187C839.411 824.157 833.095 824.159 829.206 820.19L828.162 819.126C824.273 815.157 824.283 808.722 828.185 804.751ZM954.363 731.188L855.111 832.188C851.21 836.158 851.2 842.594 855.089 846.562L856.133 847.627C860.022 851.595 866.338 851.593 870.239 847.623L969.491 746.624C973.392 742.653 973.402 736.218 969.513 732.249L968.47 731.185C964.58 727.216 958.265 727.218 954.363 731.188ZM981.127 758.563L881.875 859.562C877.974 863.533 877.964 869.968 881.853 873.937L882.896 875.001C886.786 878.97 893.102 878.968 897.003 874.998L996.255 773.998C1000.16 770.028 1000.17 763.593 996.277 759.624L995.233 758.56C991.344 754.591 985.028 754.593 981.127 758.563ZM1007.95 785.836L908.7 886.835C904.799 890.806 904.789 897.241 908.678 901.21L909.721 902.274C913.611 906.243 919.926 906.241 923.828 902.271L1023.08 801.272C1026.98 797.301 1026.99 790.866 1023.1 786.897L1022.06 785.833C1018.17 781.864 1011.85 781.866 1007.95 785.836ZM233.485 867.654L144.891 777.258C144.71 777.073 144.527 776.89 144.343 776.709L141.51 773.818C126.865 758.875 103.083 758.881 88.3922 773.831L87.4068 774.833C86.5154 775.603 85.6478 776.416 84.8065 777.272L66.4912 795.91C49.8732 812.82 49.8309 840.231 66.3968 857.134L154.991 947.53C171.557 964.433 198.458 964.427 215.075 947.516L226.677 935.711C227.518 934.992 228.336 934.23 229.127 933.425L236.976 925.437C251.668 910.487 251.705 886.254 237.06 871.311L234.022 868.211C233.845 868.024 233.666 867.838 233.485 867.654ZM244.411 665.481L343.352 766.434C347.241 770.402 347.231 776.838 343.329 780.808L342.283 781.873C338.381 785.843 332.065 785.845 328.176 781.876L229.236 680.924C225.346 676.955 225.356 670.519 229.258 666.549L230.304 665.484C234.206 661.514 240.522 661.512 244.411 665.481ZM316.489 793.763L217.548 692.811C213.659 688.842 207.343 688.844 203.442 692.814L202.395 693.879C198.493 697.849 198.484 704.285 202.373 708.253L301.313 809.206C305.203 813.175 311.518 813.173 315.42 809.203L316.467 808.138C320.368 804.167 320.378 797.732 316.489 793.763ZM190.582 720.286L289.522 821.239C293.412 825.207 293.402 831.643 289.5 835.613L288.454 836.678C284.552 840.648 278.236 840.65 274.347 836.682L175.407 735.729C171.517 731.76 171.527 725.325 175.429 721.354L176.475 720.289C180.377 716.319 186.693 716.317 190.582 720.286ZM262.658 848.719L163.718 747.766C159.828 743.798 153.512 743.799 149.611 747.769L148.564 748.834C144.663 752.805 144.653 759.24 148.542 763.209L247.482 864.162C251.372 868.13 257.688 868.129 261.589 864.158L262.636 863.093C266.537 859.123 266.547 852.687 262.658 848.719Z"/>
</mask>
<path fill-rule="evenodd" clip-rule="evenodd" d="M232.811 96.2903C288.204 39.9216 377.873 39.9005 433.093 96.2432L567.777 233.667L686.78 112.567C742.173 56.1987 831.843 56.1776 887.062 112.52C942.281 168.863 942.141 260.233 886.747 316.602L767.744 437.702L877.976 550.176C879.436 551.665 880.845 553.166 882.206 554.678L899.839 536.734C900.882 535.673 901.96 534.668 903.068 533.72C920.843 515.641 949.609 515.637 967.325 533.713L975.584 542.141C976.092 542.659 976.585 543.186 977.064 543.722L986.892 553.75C1006.29 573.543 1006.24 605.642 986.781 625.445L751.211 865.163C731.752 884.966 700.25 884.973 680.852 865.18L664.159 848.147C663.627 847.605 663.111 847.054 662.609 846.494L661.285 845.143C643.593 827.091 643.611 797.833 661.307 779.74C662.239 778.611 663.226 777.514 664.269 776.453L681.796 758.617C680.312 757.232 678.84 755.794 677.38 754.305L567.148 641.831L494.276 715.985C492.817 717.47 491.351 718.894 489.879 720.257L510.439 741.235C528.158 759.314 528.112 788.632 510.338 806.719L502.053 815.151C501.609 815.602 501.158 816.043 500.701 816.472L490.489 826.863C471.03 846.666 439.528 846.673 420.13 826.88L185.299 587.272C165.9 567.479 165.949 535.38 185.409 515.577L202.155 498.537C202.619 498.065 203.09 497.604 203.567 497.154L205.258 495.433C223.032 477.346 251.804 477.339 269.523 495.418L290.097 516.411C291.446 514.922 292.85 513.436 294.309 511.95L367.18 437.796L232.496 300.372C177.277 244.03 177.418 152.659 232.811 96.2903ZM438.438 510.503L361.269 589.031L418.477 647.403L495.646 568.875L438.438 510.503ZM696.243 364.746L796.678 262.541C811.947 247.003 811.986 221.817 796.765 206.286L794.678 204.157C779.457 188.626 754.739 188.632 739.47 204.17L639.035 306.374L696.243 364.746ZM382.777 190.494L810.858 627.282L753.208 685.947L325.127 249.159C309.282 232.991 309.322 206.771 325.217 190.596L325.305 190.507C341.2 174.332 366.931 174.326 382.777 190.494ZM942.305 971.939C942.429 972.061 942.553 972.181 942.678 972.301L955.898 985.791C972.464 1002.69 999.365 1002.69 1015.98 985.777L1104.86 895.339C1121.47 878.428 1121.52 851.017 1104.95 834.114L1086.69 815.485C1086.41 815.193 1086.12 814.905 1085.82 814.623L1083.08 811.829C1068.44 796.886 1044.66 796.891 1029.97 811.841L934.117 909.38C919.425 924.329 919.388 948.563 934.033 963.506L941.858 971.49C941.92 971.553 941.983 971.617 942.045 971.68C942.132 971.766 942.218 971.853 942.305 971.939ZM828.185 804.751L927.436 703.752C931.338 699.782 937.654 699.78 941.543 703.749L942.586 704.813C946.476 708.782 946.466 715.217 942.564 719.188L843.313 820.187C839.411 824.157 833.095 824.159 829.206 820.19L828.162 819.126C824.273 815.157 824.283 808.722 828.185 804.751ZM954.363 731.188L855.111 832.188C851.21 836.158 851.2 842.594 855.089 846.562L856.133 847.627C860.022 851.595 866.338 851.593 870.239 847.623L969.491 746.624C973.392 742.653 973.402 736.218 969.513 732.249L968.47 731.185C964.58 727.216 958.265 727.218 954.363 731.188ZM981.127 758.563L881.875 859.562C877.974 863.533 877.964 869.968 881.853 873.937L882.896 875.001C886.786 878.97 893.102 878.968 897.003 874.998L996.255 773.998C1000.16 770.028 1000.17 763.593 996.277 759.624L995.233 758.56C991.344 754.591 985.028 754.593 981.127 758.563ZM1007.95 785.836L908.7 886.835C904.799 890.806 904.789 897.241 908.678 901.21L909.721 902.274C913.611 906.243 919.926 906.241 923.828 902.271L1023.08 801.272C1026.98 797.301 1026.99 790.866 1023.1 786.897L1022.06 785.833C1018.17 781.864 1011.85 781.866 1007.95 785.836ZM233.485 867.654L144.891 777.258C144.71 777.073 144.527 776.89 144.343 776.709L141.51 773.818C126.865 758.875 103.083 758.881 88.3922 773.831L87.4068 774.833C86.5154 775.603 85.6478 776.416 84.8065 777.272L66.4912 795.91C49.8732 812.82 49.8309 840.231 66.3968 857.134L154.991 947.53C171.557 964.433 198.458 964.427 215.075 947.516L226.677 935.711C227.518 934.992 228.336 934.23 229.127 933.425L236.976 925.437C251.668 910.487 251.705 886.254 237.06 871.311L234.022 868.211C233.845 868.024 233.666 867.838 233.485 867.654ZM244.411 665.481L343.352 766.434C347.241 770.402 347.231 776.838 343.329 780.808L342.283 781.873C338.381 785.843 332.065 785.845 328.176 781.876L229.236 680.924C225.346 676.955 225.356 670.519 229.258 666.549L230.304 665.484C234.206 661.514 240.522 661.512 244.411 665.481ZM316.489 793.763L217.548 692.811C213.659 688.842 207.343 688.844 203.442 692.814L202.395 693.879C198.493 697.849 198.484 704.285 202.373 708.253L301.313 809.206C305.203 813.175 311.518 813.173 315.42 809.203L316.467 808.138C320.368 804.167 320.378 797.732 316.489 793.763ZM190.582 720.286L289.522 821.239C293.412 825.207 293.402 831.643 289.5 835.613L288.454 836.678C284.552 840.648 278.236 840.65 274.347 836.682L175.407 735.729C171.517 731.76 171.527 725.325 175.429 721.354L176.475 720.289C180.377 716.319 186.693 716.317 190.582 720.286ZM262.658 848.719L163.718 747.766C159.828 743.798 153.512 743.799 149.611 747.769L148.564 748.834C144.663 752.805 144.653 759.24 148.542 763.209L247.482 864.162C251.372 868.13 257.688 868.129 261.589 864.158L262.636 863.093C266.537 859.123 266.547 852.687 262.658 848.719Z" fill="white"/>
<path d="M433.093 96.2432L471.064 59.0292L471.064 59.0292L433.093 96.2432ZM232.811 96.2903L194.89 59.0255L194.89 59.0255L232.811 96.2903ZM567.777 233.667L529.806 270.881L567.726 309.572L605.698 270.932L567.777 233.667ZM686.78 112.567L648.859 75.3025L648.859 75.3026L686.78 112.567ZM887.062 112.52L849.091 149.734L849.091 149.734L887.062 112.52ZM886.747 316.602L924.669 353.867L924.669 353.867L886.747 316.602ZM767.744 437.702L729.823 400.437L693.252 437.652L729.773 474.916L767.744 437.702ZM877.976 550.176L840.005 587.39L840.006 587.391L877.976 550.176ZM882.206 554.678L842.682 590.239L880.498 632.269L920.127 591.943L882.206 554.678ZM899.839 536.734L861.918 499.469L861.918 499.469L899.839 536.734ZM903.068 533.72L937.616 574.132L939.367 572.636L940.981 570.994L903.068 533.72ZM967.325 533.713L1005.3 496.499L1005.3 496.499L967.325 533.713ZM975.584 542.141L937.613 579.355L937.614 579.355L975.584 542.141ZM977.064 543.722L937.405 579.132L938.228 580.054L939.093 580.936L977.064 543.722ZM986.892 553.75L1024.86 516.536L1024.86 516.536L986.892 553.75ZM986.781 625.445L948.86 588.18L948.86 588.18L986.781 625.445ZM751.211 865.163L713.29 827.898L713.29 827.898L751.211 865.163ZM680.852 865.18L642.881 902.394L642.881 902.394L680.852 865.18ZM664.159 848.147L702.13 810.934L702.13 810.933L664.159 848.147ZM662.609 846.494L702.194 811.002L701.406 810.123L700.579 809.28L662.609 846.494ZM661.285 845.143L623.314 882.357L623.314 882.357L661.285 845.143ZM661.307 779.74L699.317 816.914L700.882 815.314L702.307 813.588L661.307 779.74ZM664.269 776.453L626.348 739.188L626.348 739.188L664.269 776.453ZM681.796 758.617L719.717 795.882L757.956 756.97L718.071 719.747L681.796 758.617ZM677.38 754.305L639.409 791.519L639.409 791.52L677.38 754.305ZM567.148 641.831L605.119 604.617L567.198 565.925L529.226 604.566L567.148 641.831ZM494.276 715.985L532.197 753.251L532.198 753.25L494.276 715.985ZM489.879 720.257L453.754 681.249L413.627 718.411L451.908 757.471L489.879 720.257ZM510.439 741.235L472.468 778.449L472.469 778.449L510.439 741.235ZM510.338 806.719L548.26 843.984L548.26 843.984L510.338 806.719ZM502.053 815.151L539.974 852.416L539.974 852.415L502.053 815.151ZM500.701 816.472L464.318 777.704L463.534 778.44L462.78 779.207L500.701 816.472ZM490.489 826.863L528.411 864.128L528.411 864.128L490.489 826.863ZM420.13 826.88L458.101 789.666L458.101 789.666L420.13 826.88ZM185.299 587.272L223.27 550.058L223.27 550.058L185.299 587.272ZM185.409 515.577L147.488 478.312L147.488 478.312L185.409 515.577ZM202.155 498.537L164.234 461.272L164.233 461.272L202.155 498.537ZM203.567 497.154L240.021 535.855L240.769 535.151L241.488 534.419L203.567 497.154ZM205.258 495.433L167.337 458.168L167.337 458.168L205.258 495.433ZM269.523 495.418L307.493 458.204L307.493 458.204L269.523 495.418ZM290.097 516.411L252.126 553.625L291.615 593.917L329.496 552.11L290.097 516.411ZM294.309 511.95L256.388 474.685L256.388 474.686L294.309 511.95ZM367.18 437.796L405.101 475.061L441.672 437.846L405.151 400.582L367.18 437.796ZM232.496 300.372L270.467 263.158L232.496 300.372ZM361.269 589.031L323.348 551.766L286.777 588.981L323.298 626.245L361.269 589.031ZM438.438 510.503L476.409 473.289L438.489 434.598L400.517 473.238L438.438 510.503ZM418.477 647.403L380.506 684.617L418.427 723.308L456.399 684.668L418.477 647.403ZM495.646 568.875L533.567 606.14L570.138 568.925L533.617 531.661L495.646 568.875ZM696.243 364.746L658.272 401.96L696.192 440.651L734.164 402.011L696.243 364.746ZM796.678 262.541L834.599 299.806L834.599 299.806L796.678 262.541ZM796.765 206.286L834.736 169.072L834.736 169.071L796.765 206.286ZM794.678 204.157L756.707 241.371L756.708 241.371L794.678 204.157ZM739.47 204.17L777.391 241.434L777.391 241.434L739.47 204.17ZM639.035 306.374L601.113 269.109L564.543 306.324L601.064 343.588L639.035 306.374ZM810.858 627.282L848.779 664.547L885.35 627.332L848.829 590.068L810.858 627.282ZM382.777 190.494L344.806 227.708L344.806 227.708L382.777 190.494ZM753.208 685.947L715.237 723.161L753.157 761.853L791.129 723.212L753.208 685.947ZM325.127 249.159L363.098 211.945L363.098 211.945L325.127 249.159ZM325.217 190.596L363.139 227.861L363.143 227.856L325.217 190.596ZM325.305 190.507L287.384 153.242L287.379 153.247L325.305 190.507ZM942.678 972.301L980.648 935.087L980.089 934.517L979.513 933.963L942.678 972.301ZM942.305 971.939L904.951 1009.77L904.955 1009.78L942.305 971.939ZM955.898 985.791L993.869 948.577L993.869 948.577L955.898 985.791ZM1015.98 985.777L1053.9 1023.04L1053.9 1023.04L1015.98 985.777ZM1104.86 895.339L1066.93 858.074L1066.93 858.074L1104.86 895.339ZM1104.95 834.114L1142.92 796.9L1104.95 834.114ZM1086.69 815.485L1048.72 852.697L1048.72 852.699L1086.69 815.485ZM1085.82 814.623L1047.85 851.837L1048.38 852.371L1048.91 852.89L1085.82 814.623ZM1083.08 811.829L1045.11 849.043L1045.11 849.043L1083.08 811.829ZM1029.97 811.841L1067.89 849.106L1067.89 849.106L1029.97 811.841ZM934.117 909.38L896.195 872.115L896.195 872.115L934.117 909.38ZM934.033 963.506L972.004 926.292L972.004 926.292L934.033 963.506ZM941.858 971.49L979.833 934.28L979.829 934.276L941.858 971.49ZM942.045 971.68L904.323 1009.15L904.334 1009.16L904.345 1009.17L942.045 971.68ZM927.436 703.752L965.357 741.017L965.357 741.017L927.436 703.752ZM828.185 804.751L790.263 767.487L790.263 767.487L828.185 804.751ZM941.543 703.749L903.572 740.963L903.573 740.964L941.543 703.749ZM942.586 704.813L980.557 667.599L980.556 667.598L942.586 704.813ZM942.564 719.188L980.485 756.452L980.485 756.452L942.564 719.188ZM843.313 820.187L805.391 782.922L805.391 782.922L843.313 820.187ZM829.206 820.19L867.177 782.977L867.175 782.975L829.206 820.19ZM828.162 819.126L790.191 856.34L790.193 856.342L828.162 819.126ZM855.111 832.188L817.19 794.923L817.19 794.923L855.111 832.188ZM954.363 731.188L916.442 693.923L916.442 693.923L954.363 731.188ZM855.089 846.562L817.118 883.776L817.119 883.777L855.089 846.562ZM856.133 847.627L894.103 810.412L894.103 810.412L856.133 847.627ZM870.239 847.623L908.16 884.888L908.16 884.888L870.239 847.623ZM969.491 746.624L931.57 709.359L931.57 709.359L969.491 746.624ZM969.513 732.249L1007.48 695.035L1007.48 695.033L969.513 732.249ZM968.47 731.185L930.498 768.398L930.501 768.401L968.47 731.185ZM881.875 859.562L843.954 822.297L843.954 822.298L881.875 859.562ZM981.127 758.563L943.206 721.298L943.206 721.298L981.127 758.563ZM881.853 873.937L919.824 836.723L919.824 836.723L881.853 873.937ZM882.896 875.001L844.925 912.215L844.925 912.215L882.896 875.001ZM897.003 874.998L934.924 912.263L934.924 912.263L897.003 874.998ZM996.255 773.998L958.334 736.733L958.334 736.734L996.255 773.998ZM996.277 759.624L1034.25 722.41L1034.25 722.409L996.277 759.624ZM995.233 758.56L957.263 795.774L957.263 795.774L995.233 758.56ZM908.7 886.835L946.621 924.101L946.621 924.1L908.7 886.835ZM1007.95 785.836L1045.87 823.101L1045.87 823.101L1007.95 785.836ZM908.678 901.21L870.707 938.424L870.708 938.425L908.678 901.21ZM909.721 902.274L947.692 865.061L947.691 865.06L909.721 902.274ZM923.828 902.271L885.907 865.006L885.907 865.007L923.828 902.271ZM1023.08 801.272L985.159 764.006L985.158 764.007L1023.08 801.272ZM1023.1 786.897L1061.07 749.683L1061.07 749.682L1023.1 786.897ZM1022.06 785.833L984.087 823.046L984.088 823.047L1022.06 785.833ZM144.891 777.258L106.918 814.47L106.92 814.472L144.891 777.258ZM233.485 867.654L195.514 904.868L195.516 904.87L233.485 867.654ZM144.343 776.709L106.372 813.922L106.704 814.261L107.042 814.594L144.343 776.709ZM141.51 773.818L179.481 736.604L179.481 736.604L141.51 773.818ZM88.3922 773.831L50.4711 736.566L50.4707 736.566L88.3922 773.831ZM87.4068 774.833L122.149 815.078L123.8 813.653L125.328 812.098L87.4068 774.833ZM84.8065 777.272L122.728 814.537L122.728 814.536L84.8065 777.272ZM66.4912 795.91L28.5701 758.645L28.5701 758.645L66.4912 795.91ZM66.3968 857.134L104.368 819.92L104.368 819.92L66.3968 857.134ZM154.991 947.53L192.962 910.316L192.962 910.316L154.991 947.53ZM215.075 947.516L252.997 984.781L252.997 984.781L215.075 947.516ZM226.677 935.711L192.145 895.285L190.381 896.791L188.755 898.446L226.677 935.711ZM229.127 933.425L191.206 896.16L191.205 896.161L229.127 933.425ZM236.976 925.437L274.898 962.702L274.898 962.702L236.976 925.437ZM237.06 871.311L275.031 834.097L275.031 834.097L237.06 871.311ZM234.022 868.211L195.396 904.745L195.72 905.088L196.051 905.425L234.022 868.211ZM343.352 766.434L305.381 803.648L305.381 803.648L343.352 766.434ZM244.411 665.481L282.382 628.267L282.382 628.267L244.411 665.481ZM343.329 780.808L305.409 743.543L305.408 743.543L343.329 780.808ZM342.283 781.873L380.204 819.138L380.204 819.138L342.283 781.873ZM328.176 781.876L366.147 744.663L366.147 744.662L328.176 781.876ZM229.236 680.924L191.265 718.137L191.265 718.138L229.236 680.924ZM229.258 666.549L267.179 703.814L267.179 703.814L229.258 666.549ZM230.304 665.484L268.226 702.749L268.226 702.749L230.304 665.484ZM217.548 692.811L179.577 730.024L179.577 730.025L217.548 692.811ZM316.489 793.763L278.518 830.977L278.518 830.978L316.489 793.763ZM203.442 692.814L241.363 730.079L241.363 730.079L203.442 692.814ZM202.395 693.879L164.474 656.614L164.474 656.614L202.395 693.879ZM202.373 708.253L164.402 745.467L164.402 745.467L202.373 708.253ZM301.313 809.206L339.284 771.992L339.284 771.992L301.313 809.206ZM315.42 809.203L277.499 771.938L277.499 771.938L315.42 809.203ZM316.467 808.138L354.388 845.403L354.388 845.403L316.467 808.138ZM289.522 821.239L251.551 858.453L251.551 858.453L289.522 821.239ZM190.582 720.286L152.611 757.5L152.611 757.5L190.582 720.286ZM289.5 835.613L251.579 798.348L251.579 798.349L289.5 835.613ZM288.454 836.678L326.375 873.943L326.375 873.943L288.454 836.678ZM274.347 836.682L236.376 873.896L236.376 873.896L274.347 836.682ZM175.407 735.729L137.435 772.943L137.436 772.943L175.407 735.729ZM175.429 721.354L137.508 684.088L137.507 684.089L175.429 721.354ZM176.475 720.289L214.395 757.555L214.396 757.554L176.475 720.289ZM163.718 747.766L201.689 710.552L201.688 710.552L163.718 747.766ZM262.658 848.719L224.687 885.933L224.687 885.933L262.658 848.719ZM149.611 747.769L187.531 785.035L187.532 785.034L149.611 747.769ZM148.564 748.834L110.644 711.569L110.643 711.57L148.564 748.834ZM148.542 763.209L110.571 800.423L110.571 800.423L148.542 763.209ZM247.482 864.162L285.454 826.948L285.453 826.948L247.482 864.162ZM261.589 864.158L223.669 826.893L223.668 826.894L261.589 864.158ZM262.636 863.093L300.556 900.359L300.557 900.358L262.636 863.093ZM471.064 59.0292C394.954 -18.6289 271.074 -18.5 194.89 59.0255L270.732 133.555C305.335 98.3433 360.793 98.43 395.122 133.457L471.064 59.0292ZM605.748 196.453L471.064 59.0292L395.122 133.457L529.806 270.881L605.748 196.453ZM605.698 270.932L724.701 149.832L648.859 75.3026L529.856 196.402L605.698 270.932ZM724.701 149.832C759.304 114.62 814.762 114.707 849.091 149.734L925.033 75.3062C848.923 -2.35191 725.043 -2.2229 648.859 75.3025L724.701 149.832ZM849.091 149.734C883.97 185.322 883.972 243.572 848.826 279.337L924.669 353.867C1000.31 276.895 1000.59 152.403 925.033 75.3062L849.091 149.734ZM848.826 279.337L729.823 400.437L805.665 474.966L924.669 353.867L848.826 279.337ZM915.947 512.962L805.715 400.488L729.773 474.916L840.005 587.39L915.947 512.962ZM921.729 519.117C919.856 517.035 917.928 514.983 915.947 512.962L840.006 587.391C840.944 588.348 841.835 589.298 842.682 590.239L921.729 519.117ZM861.918 499.469L844.284 517.413L920.127 591.943L937.76 573.999L861.918 499.469ZM868.52 493.309C866.242 495.256 864.039 497.311 861.918 499.469L937.76 573.999C937.725 574.035 937.677 574.08 937.616 574.132L868.52 493.309ZM1005.3 496.499C966.693 457.111 903.723 457.219 865.156 496.447L940.981 570.994C937.963 574.063 932.525 574.163 929.354 570.927L1005.3 496.499ZM1013.56 504.927L1005.3 496.499L929.354 570.927L937.613 579.355L1013.56 504.927ZM1016.72 508.311C1015.7 507.164 1014.64 506.035 1013.55 504.926L937.614 579.355C937.543 579.283 937.473 579.208 937.405 579.132L1016.72 508.311ZM1024.86 516.536L1015.03 506.508L939.093 580.936L948.921 590.964L1024.86 516.536ZM1024.7 662.71C1064.41 622.303 1064.6 557.084 1024.86 516.536L948.921 590.964C948.695 590.733 948.493 590.42 948.371 590.113C948.263 589.841 948.242 589.641 948.242 589.512C948.242 589.383 948.264 589.197 948.363 588.949C948.477 588.665 948.661 588.382 948.86 588.18L1024.7 662.71ZM789.133 902.428L1024.7 662.71L948.86 588.18L713.29 827.898L789.133 902.428ZM642.881 902.394C683.17 943.503 748.882 943.387 789.133 902.428L713.29 827.898C713.84 827.339 714.886 826.854 715.996 826.854C717.109 826.853 718.212 827.343 718.823 827.966L642.881 902.394ZM626.188 885.361L642.881 902.394L718.823 827.966L702.13 810.934L626.188 885.361ZM623.023 881.985C624.049 883.13 625.104 884.255 626.188 885.362L702.13 810.933C702.151 810.955 702.173 810.978 702.194 811.002L623.023 881.985ZM623.314 882.357L624.638 883.708L700.579 809.28L699.255 807.929L623.314 882.357ZM623.297 742.565C585.444 781.269 585.31 843.58 623.314 882.357L699.256 807.929C700.654 809.356 701.193 811.119 701.192 812.48C701.191 813.837 700.657 815.543 699.317 816.914L623.297 742.565ZM626.348 739.188C624.227 741.346 622.213 743.584 620.307 745.891L702.307 813.588C702.265 813.639 702.225 813.682 702.19 813.717L626.348 739.188ZM643.875 721.352L626.348 739.188L702.19 813.717L719.717 795.882L643.875 721.352ZM639.409 791.52C641.412 793.563 643.449 795.552 645.522 797.487L718.071 719.747C717.174 718.911 716.267 718.026 715.351 717.091L639.409 791.52ZM529.177 679.045L639.409 791.519L715.351 717.091L605.119 604.617L529.177 679.045ZM532.198 753.25L605.069 679.095L529.226 604.566L456.355 678.72L532.198 753.25ZM526.005 759.265C528.104 757.321 530.168 755.315 532.197 753.251L456.356 678.719C455.466 679.625 454.598 680.467 453.754 681.249L526.005 759.265ZM548.411 704.021L527.85 683.043L451.908 757.471L472.468 778.449L548.411 704.021ZM548.26 843.984C586.281 805.293 586.469 742.855 548.41 704.021L472.469 778.449C471.067 777.02 470.53 775.254 470.532 773.892C470.534 772.532 471.073 770.822 472.417 769.454L548.26 843.984ZM539.974 852.415L548.26 843.984L472.417 769.454L464.132 777.886L539.974 852.415ZM537.084 855.24C538.066 854.319 539.029 853.377 539.974 852.416L464.132 777.885C464.189 777.827 464.251 777.767 464.318 777.704L537.084 855.24ZM528.411 864.128L538.622 853.737L462.78 779.207L452.568 789.598L528.411 864.128ZM382.159 864.094C422.448 905.203 488.16 905.087 528.411 864.128L452.568 789.598C453.118 789.039 454.164 788.554 455.274 788.554C456.387 788.553 457.49 789.043 458.101 789.666L382.159 864.094ZM147.328 624.486L382.159 864.094L458.101 789.666L223.27 550.058L147.328 624.486ZM147.488 478.312C107.781 518.719 107.588 583.938 147.328 624.486L223.27 550.058C223.496 550.289 223.697 550.602 223.819 550.91C223.927 551.181 223.949 551.381 223.948 551.51C223.948 551.639 223.926 551.825 223.827 552.073C223.714 552.357 223.529 552.64 223.33 552.842L147.488 478.312ZM164.233 461.272L147.488 478.312L223.33 552.842L240.076 535.802L164.233 461.272ZM167.113 458.453C166.137 459.372 165.177 460.312 164.234 461.272L240.075 535.802C240.061 535.817 240.043 535.835 240.021 535.855L167.113 458.453ZM167.337 458.168L165.646 459.889L241.488 534.419L243.179 532.698L167.337 458.168ZM307.493 458.204C268.885 418.81 205.902 418.925 167.337 458.168L243.179 532.698C240.163 535.768 234.724 535.869 231.552 532.632L307.493 458.204ZM328.068 479.197L307.493 458.204L231.552 532.632L252.126 553.625L328.068 479.197ZM256.388 474.686C254.439 476.668 252.542 478.677 250.698 480.712L329.496 552.11C330.35 551.168 331.26 550.203 332.231 549.215L256.388 474.686ZM329.259 400.531L256.388 474.685L332.23 549.215L405.101 475.061L329.259 400.531ZM194.525 337.586L329.209 475.01L405.151 400.582L270.467 263.158L194.525 337.586ZM194.89 59.0255C119.25 135.998 118.965 260.489 194.525 337.586L270.467 263.158C235.589 227.57 235.586 169.32 270.732 133.555L194.89 59.0255ZM399.191 626.296L476.359 547.768L400.517 473.238L323.348 551.766L399.191 626.296ZM456.448 610.189L399.24 551.817L323.298 626.245L380.506 684.617L456.448 610.189ZM457.725 531.61L380.556 610.138L456.399 684.668L533.567 606.14L457.725 531.61ZM400.467 547.717L457.675 606.089L533.617 531.661L476.409 473.289L400.467 547.717ZM734.164 402.011L834.599 299.806L758.757 225.277L658.321 327.481L734.164 402.011ZM834.599 299.806C870.115 263.664 870.298 205.357 834.736 169.072L758.794 243.5C753.675 238.276 753.779 230.342 758.757 225.277L834.599 299.806ZM834.736 169.071L832.649 166.942L756.708 241.371L758.794 243.5L834.736 169.071ZM832.649 166.943C796.538 130.096 737.609 130.21 701.549 166.905L777.391 241.434C771.87 247.053 762.376 247.155 756.707 241.371L832.649 166.943ZM701.549 166.905L601.113 269.109L676.956 343.639L777.391 241.434L701.549 166.905ZM734.213 327.532L677.006 269.16L601.064 343.588L658.272 401.96L734.213 327.532ZM848.829 590.068L420.748 153.28L344.806 227.708L772.887 664.496L848.829 590.068ZM791.129 723.212L848.779 664.547L772.937 590.018L715.287 648.682L791.129 723.212ZM287.156 286.373L715.237 723.161L791.179 648.733L363.098 211.945L287.156 286.373ZM287.296 153.331C251.154 190.11 250.97 249.45 287.156 286.373L363.098 211.945C367.593 216.531 367.49 223.433 363.139 227.861L287.296 153.331ZM287.379 153.247L287.292 153.335L363.143 227.856L363.23 227.768L287.379 153.247ZM420.748 153.28C384.012 115.796 324.07 115.91 287.384 153.242L363.226 227.772C358.33 232.754 349.851 232.855 344.806 227.708L420.748 153.28ZM979.513 933.963C979.562 934.01 979.609 934.056 979.656 934.102L904.955 1009.78C905.248 1010.07 905.544 1010.35 905.842 1010.64L979.513 933.963ZM993.869 948.577L980.648 935.087L904.707 1009.52L917.927 1023L993.869 948.577ZM978.062 948.512C982.235 944.266 989.545 944.164 993.869 948.577L917.927 1023C955.383 1061.22 1016.5 1061.11 1053.9 1023.04L978.062 948.512ZM1066.93 858.074L978.062 948.512L1053.9 1023.04L1142.78 932.604L1066.93 858.074ZM1066.98 871.328C1063.2 867.477 1063.31 861.767 1066.93 858.074L1142.78 932.604C1179.64 895.089 1179.83 834.557 1142.92 796.9L1066.98 871.328ZM1048.72 852.699L1066.98 871.328L1142.92 796.9L1124.66 778.271L1048.72 852.699ZM1048.91 852.89C1048.85 852.826 1048.78 852.761 1048.72 852.697L1124.67 778.273C1124.03 777.624 1123.38 776.985 1122.73 776.356L1048.91 852.89ZM1045.11 849.043L1047.85 851.837L1123.79 777.409L1121.06 774.615L1045.11 849.043ZM1067.89 849.106C1061.79 855.313 1051.36 855.415 1045.11 849.043L1121.06 774.615C1085.52 738.356 1027.53 738.47 992.046 774.576L1067.89 849.106ZM972.038 946.644L1067.89 849.106L992.046 774.576L896.195 872.115L972.038 946.644ZM972.004 926.292C977.7 932.103 977.593 940.991 972.038 946.644L896.195 872.115C861.257 907.668 861.076 965.022 896.062 1000.72L972.004 926.292ZM979.829 934.276L972.004 926.292L896.062 1000.72L903.887 1008.7L979.829 934.276ZM979.767 934.213C979.79 934.236 979.812 934.258 979.833 934.28L903.883 1008.7C904.029 1008.85 904.176 1009 904.323 1009.15L979.767 934.213ZM979.66 934.106C979.698 934.143 979.727 934.172 979.745 934.191L904.345 1009.17C904.537 1009.36 904.739 1009.56 904.951 1009.77L979.66 934.106ZM889.515 666.487L790.263 767.487L866.106 842.016L965.357 741.017L889.515 666.487ZM979.514 666.535C954.735 641.251 914.208 641.359 889.515 666.487L965.357 741.017C948.468 758.204 920.572 758.309 903.572 740.963L979.514 666.535ZM980.556 667.598L979.513 666.534L903.573 740.964L904.616 742.028L980.556 667.598ZM980.485 756.452C1004.63 731.879 1004.79 692.322 980.557 667.599L904.616 742.028C888.164 725.241 888.298 698.556 904.643 681.923L980.485 756.452ZM881.234 857.452L980.485 756.452L904.643 681.923L805.391 782.922L881.234 857.452ZM791.234 857.404C816.015 882.689 856.542 882.579 881.234 857.452L805.391 782.922C822.28 765.736 850.175 765.629 867.177 782.977L791.234 857.404ZM790.193 856.342L791.237 857.406L867.175 782.975L866.132 781.91L790.193 856.342ZM790.263 767.487C766.115 792.06 765.961 831.617 790.191 856.34L866.134 781.912C882.585 798.698 882.451 825.383 866.106 842.016L790.263 767.487ZM893.033 869.452L992.284 768.453L916.442 693.923L817.19 794.923L893.033 869.452ZM893.06 809.348C909.512 826.134 909.378 852.819 893.033 869.452L817.19 794.923C793.042 819.496 792.888 859.053 817.118 883.776L893.06 809.348ZM894.103 810.412L893.059 809.347L817.119 883.777L818.162 884.841L894.103 810.412ZM832.318 810.358C849.207 793.172 877.102 793.065 894.103 810.412L818.162 884.841C842.942 910.125 883.469 910.014 908.16 884.888L832.318 810.358ZM931.57 709.359L832.318 810.358L908.16 884.888L1007.41 783.888L931.57 709.359ZM931.542 769.463C915.091 752.677 915.224 725.992 931.57 709.359L1007.41 783.889C1031.56 759.315 1031.71 719.758 1007.48 695.035L931.542 769.463ZM930.501 768.401L931.544 769.465L1007.48 695.033L1006.44 693.969L930.501 768.401ZM992.284 768.453C975.395 785.639 947.5 785.746 930.498 768.398L1006.44 693.971C981.661 668.686 941.134 668.796 916.442 693.923L992.284 768.453ZM919.796 896.827L1019.05 795.828L943.206 721.298L843.954 822.297L919.796 896.827ZM919.824 836.723C936.276 853.509 936.141 880.194 919.796 896.827L843.954 822.298C819.806 846.871 819.652 886.428 843.882 911.151L919.824 836.723ZM920.868 837.788L919.824 836.723L843.882 911.151L844.925 912.215L920.868 837.788ZM859.082 837.733C875.97 820.548 903.866 820.44 920.868 837.788L844.925 912.215C869.706 937.5 910.233 937.389 934.924 912.263L859.082 837.733ZM958.334 736.734L859.082 837.733L934.924 912.263L1034.18 811.263L958.334 736.734ZM958.306 796.838C941.855 780.052 941.988 753.367 958.334 736.733L1034.18 811.263C1058.32 786.689 1058.48 747.133 1034.25 722.41L958.306 796.838ZM957.263 795.774L958.307 796.839L1034.25 722.409L1033.2 721.345L957.263 795.774ZM1019.05 795.828C1002.16 813.014 974.264 813.12 957.263 795.774L1033.2 721.345C1008.42 696.062 967.898 696.171 943.206 721.298L1019.05 795.828ZM946.621 924.1L1045.87 823.101L970.031 748.571L870.779 849.571L946.621 924.1ZM946.649 863.996C963.1 880.782 962.967 907.467 946.621 924.101L870.779 849.57C846.63 874.144 846.477 913.701 870.707 938.424L946.649 863.996ZM947.691 865.06L946.648 863.995L870.708 938.425L871.751 939.489L947.691 865.06ZM885.907 865.007C902.796 847.819 930.691 847.714 947.692 865.061L871.75 939.488C896.53 964.772 937.057 964.663 961.749 939.536L885.907 865.007ZM985.158 764.007L885.907 865.006L961.749 939.536L1061 838.536L985.158 764.007ZM985.131 824.111C968.68 807.325 968.813 780.64 985.159 764.006L1061 838.537C1085.15 813.962 1085.3 774.406 1061.07 749.683L985.131 824.111ZM984.088 823.047L985.132 824.112L1061.07 749.682L1060.03 748.618L984.088 823.047ZM1045.87 823.101C1028.98 840.288 1001.09 840.393 984.087 823.046L1060.03 748.619C1035.25 723.335 994.723 723.444 970.03 748.571L1045.87 823.101ZM106.92 814.472L195.514 904.868L271.456 830.44L182.862 740.044L106.92 814.472ZM107.042 814.594C107.001 814.554 106.96 814.512 106.918 814.47L182.864 740.046C182.459 739.633 182.053 739.226 181.645 738.824L107.042 814.594ZM103.539 811.032L106.372 813.922L182.314 739.495L179.481 736.604L103.539 811.032ZM126.313 811.095C120.214 817.302 109.785 817.404 103.539 811.032L179.481 736.604C143.946 700.346 85.9529 700.459 50.4711 736.566L126.313 811.095ZM125.328 812.098L126.314 811.095L50.4707 736.566L49.4853 737.569L125.328 812.098ZM122.728 814.536C122.55 814.717 122.357 814.899 122.149 815.078L52.6643 734.589C50.6736 736.307 48.7453 738.114 46.8849 740.007L122.728 814.536ZM104.412 833.174L122.728 814.537L46.8854 740.007L28.5701 758.645L104.412 833.174ZM104.368 819.92C108.143 823.772 108.041 829.481 104.412 833.174L28.5701 758.645C-8.29489 796.159 -8.48079 856.691 28.4258 894.348L104.368 819.92ZM192.962 910.316L104.368 819.92L28.4258 894.348L117.02 984.744L192.962 910.316ZM177.154 910.251C181.327 906.005 188.637 905.904 192.962 910.316L117.02 984.744C154.476 1022.96 215.588 1022.85 252.997 984.781L177.154 910.251ZM188.755 898.446L177.154 910.251L252.997 984.781L264.598 972.976L188.755 898.446ZM191.205 896.161C191.499 895.862 191.813 895.569 192.145 895.285L261.208 976.137C263.223 974.415 265.172 972.599 267.049 970.689L191.205 896.161ZM199.055 888.172L191.206 896.16L267.048 970.69L274.898 962.702L199.055 888.172ZM199.089 908.525C193.393 902.714 193.499 893.826 199.055 888.172L274.898 962.702C309.836 927.148 310.017 869.795 275.031 834.097L199.089 908.525ZM196.051 905.425L199.089 908.525L275.031 834.097L271.993 830.997L196.051 905.425ZM195.516 904.87C195.474 904.827 195.434 904.786 195.396 904.745L272.648 831.678C272.255 831.263 271.857 830.849 271.454 830.438L195.516 904.87ZM381.323 729.22L282.382 628.267L206.44 702.695L305.381 803.648L381.323 729.22ZM381.25 818.073C405.399 793.499 405.553 753.942 381.322 729.219L305.381 803.648C288.929 786.862 289.063 760.177 305.409 743.543L381.25 818.073ZM380.204 819.138L381.251 818.073L305.408 743.543L304.362 744.608L380.204 819.138ZM290.205 819.09C314.985 844.375 355.512 844.265 380.204 819.138L304.362 744.608C321.251 727.422 349.146 727.315 366.147 744.663L290.205 819.09ZM191.265 718.138L290.205 819.09L366.147 744.662L267.207 643.71L191.265 718.138ZM191.337 629.284C167.188 653.858 167.035 693.415 191.265 718.137L267.207 643.71C283.658 660.496 283.525 687.181 267.179 703.814L191.337 629.284ZM192.383 628.219L191.337 629.284L267.179 703.814L268.226 702.749L192.383 628.219ZM282.382 628.267C257.602 602.983 217.076 603.092 192.383 628.219L268.226 702.749C251.336 719.936 223.442 720.042 206.441 702.695L282.382 628.267ZM179.577 730.025L278.518 830.977L354.46 756.549L255.519 655.597L179.577 730.025ZM241.363 730.079C224.474 747.265 196.578 747.371 179.577 730.024L255.52 655.597C230.74 630.313 190.213 630.422 165.521 655.549L241.363 730.079ZM240.316 731.144L241.363 730.079L165.521 655.549L164.474 656.614L240.316 731.144ZM240.344 671.039C256.795 687.825 256.662 714.51 240.316 731.144L164.474 656.614C140.325 681.188 140.172 720.744 164.402 745.467L240.344 671.039ZM339.284 771.992L240.344 671.039L164.402 745.467L263.342 846.42L339.284 771.992ZM277.499 771.938C294.388 754.752 322.283 754.645 339.284 771.992L263.342 846.42C288.122 871.704 328.649 871.595 353.341 846.468L277.499 771.938ZM278.545 770.873L277.499 771.938L353.341 846.468L354.388 845.403L278.545 770.873ZM278.518 830.978C262.066 814.192 262.2 787.506 278.545 770.873L354.388 845.403C378.536 820.829 378.69 781.272 354.46 756.549L278.518 830.978ZM327.493 784.025L228.553 683.072L152.611 757.5L251.551 858.453L327.493 784.025ZM327.421 872.878C351.57 848.304 351.723 808.747 327.493 784.025L251.551 858.453C235.1 841.667 235.233 814.982 251.579 798.348L327.421 872.878ZM326.375 873.943L327.422 872.878L251.579 798.349L250.532 799.414L326.375 873.943ZM236.376 873.896C261.156 899.18 301.683 899.07 326.375 873.943L250.533 799.413C267.421 782.227 295.316 782.12 312.318 799.467L236.376 873.896ZM137.436 772.943L236.376 873.896L312.318 799.468L213.378 698.515L137.436 772.943ZM137.507 684.089C113.359 708.664 113.206 748.22 137.435 772.943L213.378 698.515C229.829 715.3 229.695 741.985 213.35 758.619L137.507 684.089ZM138.555 683.023L137.508 684.088L213.349 758.62L214.395 757.555L138.555 683.023ZM228.553 683.072C203.773 657.788 163.246 657.897 138.554 683.024L214.396 757.554C197.507 774.741 169.612 774.847 152.611 757.5L228.553 683.072ZM125.747 784.98L224.687 885.933L300.629 811.505L201.689 710.552L125.747 784.98ZM187.532 785.034C170.643 802.221 142.747 802.326 125.747 784.98L201.688 710.552C176.909 685.269 136.382 685.377 111.69 710.505L187.532 785.034ZM186.485 786.1L187.531 785.035L111.69 710.504L110.644 711.569L186.485 786.1ZM186.513 725.995C202.964 742.781 202.831 769.466 186.485 786.099L110.643 711.57C86.4944 736.144 86.3413 775.7 110.571 800.423L186.513 725.995ZM285.453 826.948L186.513 725.995L110.571 800.423L209.511 901.376L285.453 826.948ZM223.668 826.894C240.557 809.707 268.452 809.6 285.454 826.948L209.511 901.376C234.292 926.66 274.818 926.55 299.51 901.423L223.668 826.894ZM224.716 825.828L223.669 826.893L299.51 901.424L300.556 900.359L224.716 825.828ZM224.687 885.933C208.236 869.147 208.369 842.462 224.715 825.829L300.557 900.358C324.706 875.784 324.859 836.228 300.629 811.505L224.687 885.933Z" fill="black" mask="url(#path-1-outside-1_5067_309)"/>
</svg>
