<?xml version="1.0" encoding="UTF-8"?>
<svg id="Layer_2" data-name="Layer 2" xmlns="http://www.w3.org/2000/svg" viewBox="0 0 73.44 74.46">
  <defs>
    <style>
      .cls-1 {
        fill: #000;
      }

      .cls-1, .cls-2, .cls-3, .cls-4, .cls-5, .cls-6, .cls-7, .cls-8 {
        stroke-width: 0px;
      }

      .cls-9 {
        opacity: .5;
      }

      .cls-2 {
        fill: #0097e2;
      }

      .cls-10 {
        opacity: .6;
      }

      .cls-3 {
        fill: #2074ef;
      }

      .cls-4 {
        fill: #50deff;
      }

      .cls-5 {
        fill: #c1c8d3;
      }

      .cls-6 {
        fill: #a9f3ff;
      }

      .cls-7 {
        fill: #558aff;
      }

      .cls-8 {
        fill: #fff;
      }
    </style>
  </defs>
  <g id="Layer_2-2" data-name="Layer 2">
    <g>
      <g class="cls-9">
        <circle class="cls-1" cx="35.5" cy="35.96" r="35.5"/>
      </g>
      <g>
        <g class="cls-10">
          <path class="cls-1" d="M68.77,62.26l-1.05-1.05-.33-.33-.27-.27c-.13-.13-.28-.25-.43-.35-.06-.04-.12-.07-.18-.1-.09-.05-.19-.11-.28-.15-.09-.04-.17-.06-.26-.09-.08-.02-.15-.05-.23-.07-.11-.02-.22-.04-.33-.05-.06,0-.11-.01-.16-.02-.13,0-.26,0-.39.01-.03,0-.07,0-.1,0-.14.02-.28.05-.42.09-.02,0-.03,0-.05.02-.15.05-.3.1-.44.18,0,0-.01,0-.02,0-.05.02-.1.05-.15.08-.11.02-.21.06-.29.14l-.02.02c-.18-.25-.37-.5-.6-.72l-.04-.04h0s0-.02,0-.04c.03-.07.04-.14.04-.22,0-.03,0-.06,0-.08,0-.06-.02-.12-.04-.18,0-.03-.01-.05-.03-.08-.04-.08-.08-.16-.15-.22,0,0,0,0,0,0l-.08-.08c-.07-.07-.14-.11-.22-.15-.03-.01-.05-.02-.08-.03-.06-.02-.12-.03-.18-.04-.03,0-.06,0-.08,0-.08,0-.15.02-.22.04-.01,0-.02,0-.04,0,0,0,0,0,0,0l-.97-.97h0s0-.02,0-.04c.03-.07.04-.15.04-.22,0-.03,0-.06,0-.08,0-.06-.02-.12-.04-.18,0-.03-.01-.05-.03-.08-.04-.08-.08-.16-.15-.22l-.08-.08c-.07-.07-.14-.11-.22-.15-.03-.01-.05-.02-.08-.03-.06-.02-.12-.03-.18-.04-.03,0-.06,0-.08,0-.08,0-.15.02-.22.04-.01,0-.02,0-.04,0,0,0,0,0,0,0l-.97-.97s0-.02,0-.04c.03-.07.04-.15.04-.22,0-.03,0-.06,0-.08,0-.06-.02-.12-.04-.18,0-.03-.01-.05-.03-.08-.04-.08-.08-.16-.15-.22l-.08-.08c-.07-.07-.14-.11-.22-.15-.03-.01-.05-.02-.08-.03-.06-.02-.12-.03-.18-.04-.03,0-.06,0-.08,0-.07,0-.15.02-.22.04-.01,0-.02,0-.04,0h0l-.97-.97h0s0-.02,0-.04c.03-.07.04-.15.04-.22,0-.03,0-.06,0-.08,0-.06-.02-.12-.04-.18,0-.03-.01-.05-.03-.08-.04-.08-.08-.16-.15-.22,0,0,0,0,0,0l-.04-.04-.04-.04c-.07-.07-.14-.11-.22-.15-.02-.01-.05-.02-.08-.03-.06-.02-.12-.03-.18-.04-.03,0-.06,0-.08,0-.07,0-.15.02-.22.04-.01,0-.02,0-.04,0l-.7-.7,4.95-4.95c1.46-1.46,1.46-3.86,0-5.32l-.87-.87-.4-.4-.23-.23c-1.34-1.34-3.52-1.34-4.86,0l-.23.23-1.34,1.34c-.11-.11-.2-.24-.31-.35L21.92,11.51c-.78-.78-1.66-1.42-2.59-1.91-.62-.33-1.27-.59-1.93-.78-.33-.1-.67-.18-1.01-.24-.68-.13-1.36-.2-2.05-.2-2.75,0-5.49,1.04-7.58,3.13h0c-.78.78-1.42,1.66-1.91,2.59-.33.62-.59,1.27-.78,1.93-.59,1.99-.59,4.12,0,6.11.2.66.46,1.31.78,1.93.49.93,1.12,1.81,1.91,2.59l29.66,29.66c.11.11.23.21.35.31l-1.34,1.34-.23.23c-1.34,1.34-1.34,3.52,0,4.86l.23.23.4.4.87.87c.37.37.79.64,1.24.82.91.37,1.93.37,2.84,0,.45-.18.88-.46,1.24-.82l4.95-4.95.56.56.14.14s0,0,0,0c0,.01,0,.02,0,.03-.03.07-.04.15-.04.22,0,.03,0,.06,0,.08,0,.06.02.12.04.18,0,.03.01.05.03.08.04.08.08.16.15.22,0,0,0,0,0,0l.04.04.04.04c.07.07.14.11.22.15.03.01.05.02.08.03.06.02.12.03.18.04.03,0,.06,0,.08,0,.07,0,.15-.02.22-.04.01,0,.02,0,.04,0l.97.97s0,0,0,0c0,.01,0,.02,0,.03-.03.07-.04.15-.04.22,0,.03,0,.06,0,.08,0,.06.02.12.04.18,0,.03.01.05.03.08.04.08.08.16.15.22l.08.08c.07.07.14.11.22.15.03.01.05.02.08.03.06.02.12.03.18.04.03,0,.06,0,.08,0,.07,0,.15-.02.22-.04.01,0,.02,0,.04,0l.97.97h0s0,.02,0,.03c-.03.07-.04.15-.04.22,0,.03,0,.06,0,.08,0,.06.02.12.04.18,0,.03.01.05.03.08.04.08.08.16.15.22l.08.08c.07.07.14.11.22.15.03.01.05.02.08.03.06.02.12.03.18.04.03,0,.06,0,.08,0,.07,0,.15-.02.22-.04.01,0,.02,0,.04,0h0l.97.97s0,0,0,0c0,.01,0,.02,0,.03-.03.07-.04.15-.04.22,0,.03,0,.06,0,.08,0,.06.02.12.04.18,0,.03.01.05.03.08.04.08.08.16.15.22l.08.08c.07.07.14.11.22.15.03.01.05.02.08.03.06.02.12.03.18.04.03,0,.06,0,.08,0,.07,0,.15-.02.22-.04.01,0,.02,0,.04,0h0l.04.04c.23.23.47.42.72.6l-.02.02c-.08.08-.12.18-.14.29-.03.05-.05.1-.08.15,0,0,0,.01,0,.02-.07.14-.13.29-.18.44,0,.02-.01.03-.02.05-.04.14-.07.28-.09.42,0,.03,0,.07,0,.1-.01.13-.02.26-.01.39,0,.06.01.11.02.16.01.11.02.22.05.33.02.08.04.15.07.23.03.09.05.18.09.26.04.1.1.19.15.29.03.06.06.12.1.18.1.15.21.29.35.43l.27.27.33.33,1.05,1.05h0c.94.94,2.33,1.17,3.49.7.39-.16.75-.39,1.06-.7l6.71-6.71c.16-.16.29-.33.41-.5.82-1.25.68-2.95-.41-4.05Z"/>
        </g>
        <path class="cls-1" d="M16.2,1.86c2.75,0,5.49,1.04,7.58,3.13l29.66,29.66c.11.11.21.23.31.35l1.34-1.34.23-.23c.67-.67,1.55-1,2.43-1s1.76.33,2.43,1l.23.23.4.4.87.87c1.46,1.46,1.46,3.86,0,5.32l-4.95,4.95.7.7c.09-.04.19-.06.29-.06.19,0,.39.07.53.22l.08.08c.22.22.27.55.16.82l.97.97c.09-.04.19-.06.29-.06.19,0,.39.07.53.22l.08.08c.22.22.27.55.16.82l.97.97c.09-.04.19-.06.29-.06.19,0,.39.07.53.22l.08.08c.22.22.27.55.16.82l.97.97c.09-.04.19-.06.29-.06.19,0,.39.07.53.22l.08.08c.22.22.27.55.16.82l.04.04c.23.23.44.49.62.75.51-.39,1.12-.58,1.73-.58.72,0,1.44.27,1.99.82l.27.27.33.33,1.05,1.05c1.25,1.25,1.25,3.3,0,4.55l-6.71,6.71c-.63.63-1.45.94-2.28.94s-1.65-.31-2.28-.94l-1.05-1.05-.33-.33-.27-.27c-1.01-1.01-1.09-2.61-.24-3.72-.26-.18-.52-.39-.75-.62l-.04-.04c-.09.04-.19.06-.29.06-.19,0-.39-.07-.53-.22l-.08-.08c-.22-.22-.27-.55-.16-.82l-.97-.97c-.09.04-.19.06-.29.06-.19,0-.39-.07-.53-.22l-.08-.08c-.22-.22-.27-.55-.16-.82l-.97-.97c-.09.04-.19.06-.29.06-.19,0-.39-.07-.53-.22l-.08-.08c-.22-.22-.27-.55-.16-.82l-.97-.97c-.09.04-.19.06-.29.06-.19,0-.39-.07-.53-.22l-.08-.08c-.22-.22-.27-.55-.16-.82l-.7-.7-4.95,4.95c-.73.73-1.7,1.1-2.66,1.1s-1.93-.37-2.66-1.1l-.87-.87-.4-.4-.23-.23c-1.34-1.34-1.34-3.52,0-4.86l.23-.23,1.34-1.34c-.11-.11-.24-.2-.35-.31L8.62,20.15c-4.17-4.17-4.17-10.99,0-15.16h0c2.08-2.08,4.83-3.13,7.58-3.13M16.2,0c-3.37,0-6.53,1.3-8.9,3.67-4.91,4.91-4.91,12.89,0,17.79l28.67,28.67h0s-.23.24-.23.24c-2.07,2.07-2.07,5.43,0,7.5l.23.23.4.4.87.87c1.06,1.06,2.47,1.64,3.98,1.64s2.92-.58,3.98-1.64l3.3-3.3c.34.33.76.55,1.21.65.11.47.34.9.7,1.26l.08.08c.35.35.78.59,1.26.7.11.47.34.9.7,1.26l.08.08c.35.35.78.59,1.26.7.11.47.34.9.7,1.26l.08.08c.17.17.35.31.56.42-.25,1.47.19,3.02,1.3,4.12l.27.27.33.33,1.05,1.05c.96.96,2.23,1.49,3.59,1.49s2.64-.53,3.59-1.49l6.71-6.71c1.98-1.98,1.98-5.21,0-7.19l-1.05-1.05-.33-.33-.27-.27c-.88-.88-2.06-1.37-3.31-1.37-.27,0-.55.02-.81.07-.11-.2-.26-.39-.42-.56l-.08-.08c-.35-.35-.78-.59-1.26-.7-.11-.47-.34-.9-.7-1.26l-.08-.08c-.35-.35-.78-.59-1.26-.7-.11-.47-.34-.9-.7-1.26l-.08-.08c-.35-.35-.78-.59-1.26-.7-.1-.45-.32-.86-.65-1.21l3.3-3.3c2.19-2.19,2.19-5.77,0-7.96l-.87-.87-.4-.4-.23-.23c-1-1-2.33-1.55-3.75-1.55s-2.75.55-3.75,1.55l-.23.23h0S25.1,3.67,25.1,3.67C22.73,1.3,19.57,0,16.2,0h0Z"/>
        <g>
          <path class="cls-1" d="M16.2,1.86c2.75,0,5.49,1.04,7.58,3.13l29.66,29.66c.11.11.21.23.31.35l1.34-1.34.23-.23c.67-.67,1.55-1,2.43-1s1.76.33,2.43,1l.23.23.4.4.87.87c1.46,1.46,1.46,3.86,0,5.32l-4.95,4.95.7.7c.09-.04.19-.06.29-.06.19,0,.39.07.53.22l.08.08c.22.22.27.55.16.82l.97.97c.09-.04.19-.06.29-.06.19,0,.39.07.53.22l.08.08c.22.22.27.55.16.82l.97.97c.09-.04.19-.06.29-.06.19,0,.39.07.53.22l.08.08c.22.22.27.55.16.82l.97.97c.09-.04.19-.06.29-.06.19,0,.39.07.53.22l.08.08c.22.22.27.55.16.82l.04.04c.23.23.44.49.62.75.51-.39,1.12-.58,1.73-.58.72,0,1.44.27,1.99.82l.27.27.33.33,1.05,1.05c1.25,1.25,1.25,3.3,0,4.55l-6.71,6.71c-.63.63-1.45.94-2.28.94s-1.65-.31-2.28-.94l-1.05-1.05-.33-.33-.27-.27c-1.01-1.01-1.09-2.61-.24-3.72-.26-.18-.52-.39-.75-.62l-.04-.04c-.09.04-.19.06-.29.06-.19,0-.39-.07-.53-.22l-.08-.08c-.22-.22-.27-.55-.16-.82l-.97-.97c-.09.04-.19.06-.29.06-.19,0-.39-.07-.53-.22l-.08-.08c-.22-.22-.27-.55-.16-.82l-.97-.97c-.09.04-.19.06-.29.06-.19,0-.39-.07-.53-.22l-.08-.08c-.22-.22-.27-.55-.16-.82l-.97-.97c-.09.04-.19.06-.29.06-.19,0-.39-.07-.53-.22l-.08-.08c-.22-.22-.27-.55-.16-.82l-.7-.7-4.95,4.95c-.73.73-1.7,1.1-2.66,1.1s-1.93-.37-2.66-1.1l-.87-.87-.4-.4-.23-.23c-1.34-1.34-1.34-3.52,0-4.86l.23-.23,1.34-1.34c-.11-.11-.24-.2-.35-.31L8.62,20.15c-4.17-4.17-4.17-10.99,0-15.16h0c2.08-2.08,4.83-3.13,7.58-3.13M16.2,0c-3.37,0-6.53,1.3-8.9,3.67-4.91,4.91-4.91,12.89,0,17.79l28.67,28.67h0s-.23.24-.23.24c-2.07,2.07-2.07,5.43,0,7.5l.23.23.4.4.87.87c1.06,1.06,2.47,1.64,3.98,1.64s2.92-.58,3.98-1.64l3.3-3.3c.34.33.76.55,1.21.65.11.47.34.9.7,1.26l.08.08c.35.35.78.59,1.26.7.11.47.34.9.7,1.26l.08.08c.35.35.78.59,1.26.7.11.47.34.9.7,1.26l.08.08c.17.17.35.31.56.42-.25,1.47.19,3.02,1.3,4.12l.27.27.33.33,1.05,1.05c.96.96,2.23,1.49,3.59,1.49s2.64-.53,3.59-1.49l6.71-6.71c1.98-1.98,1.98-5.21,0-7.19l-1.05-1.05-.33-.33-.27-.27c-.88-.88-2.06-1.37-3.31-1.37-.27,0-.55.02-.81.07-.11-.2-.26-.39-.42-.56l-.08-.08c-.35-.35-.78-.59-1.26-.7-.11-.47-.34-.9-.7-1.26l-.08-.08c-.35-.35-.78-.59-1.26-.7-.11-.47-.34-.9-.7-1.26l-.08-.08c-.35-.35-.78-.59-1.26-.7-.1-.45-.32-.86-.65-1.21l3.3-3.3c2.19-2.19,2.19-5.77,0-7.96l-.87-.87-.4-.4-.23-.23c-1-1-2.33-1.55-3.75-1.55s-2.75.55-3.75,1.55l-.23.23h0S25.1,3.67,25.1,3.67C22.73,1.3,19.57,0,16.2,0h0Z"/>
          <g>
            <rect class="cls-8" x="20.31" y="-4.29" width="21.44" height="63.38" rx="10.72" ry="10.72" transform="translate(-10.28 29.97) rotate(-45)"/>
            <rect class="cls-3" x="50.48" y="40.32" width="11.18" height="24.23" rx="5.59" ry="5.59" transform="translate(-20.66 55.01) rotate(-45)"/>
            <rect class="cls-5" x="28.38" y="3.82" width="6.61" height="48.46" rx="3.3" ry="3.3" transform="translate(-10.56 30.63) rotate(-45)"/>
            <rect class="cls-2" x="33.13" y="41.19" width="32.71" height="9.32" rx="3.77" ry="3.77" transform="translate(-17.93 48.42) rotate(-45)"/>
            <rect class="cls-4" x="32.58" y="41.42" width="32.71" height="7.77" rx="3.44" ry="3.44" transform="translate(-17.7 47.87) rotate(-45)"/>
            <rect class="cls-2" x="56.35" y="56.48" width="15.93" height="8.39" rx="3.22" ry="3.22" transform="translate(-24.07 63.25) rotate(-45)"/>
            <rect class="cls-4" x="55.69" y="56.76" width="15.93" height="6.52" rx="2.84" ry="2.84" transform="translate(-23.8 62.59) rotate(-45)"/>
            <g>
              <rect class="cls-7" x="47.95" y="49.57" width="12.12" height="1.62" rx=".75" ry=".75" transform="translate(-19.8 52.95) rotate(-45)"/>
              <rect class="cls-7" x="49.99" y="51.6" width="12.12" height="1.62" rx=".75" ry=".75" transform="translate(-20.65 54.98) rotate(-45)"/>
              <rect class="cls-7" x="52.02" y="53.64" width="12.12" height="1.62" rx=".75" ry=".75" transform="translate(-21.49 57.02) rotate(-45)"/>
              <rect class="cls-7" x="54.06" y="55.67" width="12.12" height="1.62" rx=".75" ry=".75" transform="translate(-22.33 59.05) rotate(-45)"/>
            </g>
            <rect class="cls-6" x="33.29" y="42.44" width="27.11" height="1.55" rx=".77" ry=".77" transform="translate(-16.84 45.78) rotate(-45)"/>
            <rect class="cls-6" x="55.9" y="57.44" width="12.2" height="1.86" rx=".57" ry=".57" transform="translate(-23.11 60.94) rotate(-45)"/>
          </g>
        </g>
      </g>
    </g>
  </g>
</svg>