<svg width="5760" height="3136" viewBox="0 0 5760 3136" fill="none" xmlns="http://www.w3.org/2000/svg">
<g opacity="0.1">
<path d="M1979.3 2460.21L1035.48 3136H1433L1979.3 2460.21Z" fill="black"/>
<path d="M0.00195312 567.351V758.47L1135.19 989.386L0.00195312 567.351Z" fill="black"/>
<path d="M0.00195312 1598.52V1682.48L1313.99 1545.91L0.00195312 1598.52Z" fill="black"/>
<path d="M0.00195312 2061.81V2408.09L1189.24 1863.93L0.00195312 2061.81Z" fill="black"/>
<path d="M2665.4 711.121L2495.87 0H2396.49L2665.4 711.121Z" fill="black"/>
<path d="M170.611 3136H361.098L1276.57 2363.04L170.611 3136Z" fill="black"/>
<path d="M1620.08 3136L2062.47 2486.72L1516.08 3136H1620.08Z" fill="black"/>
<path d="M2339.9 793.452L1871.31 0H1694.84L2339.9 793.452Z" fill="black"/>
<path d="M82.3342 3136L1472 2177.53L0.00195312 2889.36V3136H82.3342Z" fill="black"/>
<path d="M0.00195312 201.32V468.101L1463.69 1055.64L0.00195312 201.32Z" fill="black"/>
<path d="M2084.55 3136H2166.05L2407.6 2407.21L2084.55 3136Z" fill="black"/>
<path d="M2012.57 962.885L1138.51 0H644.479L2012.57 962.885Z" fill="black"/>
<path d="M0.00195312 1267.48V1406.87L1559.32 1466.41L0.00195312 1267.48Z" fill="black"/>
<path d="M523.683 0H265.127L1842.08 927.549L523.683 0Z" fill="black"/>
<path d="M1549.43 0H1481.4L2216.32 764.124L1549.43 0Z" fill="black"/>
</g>
<g opacity="0.1">
<path d="M3619.52 2296L4719.88 3136H4256.42L3619.52 2296Z" fill="black"/>
<path d="M5760 567.352V758.471L4620.3 989.387L5760 567.352Z" fill="black"/>
<path d="M5760 1598.52V1682.48L4440.79 1545.91L5760 1598.52Z" fill="black"/>
<path d="M5760 2061.81V2408.1L4566.03 1863.94L5760 2061.81Z" fill="black"/>
<path d="M3084 711.121L3254.21 0H3353.98L3084 711.121Z" fill="black"/>
<path d="M5588.71 3136H5397.47L4478.36 2363.05L5588.71 3136Z" fill="black"/>
<path d="M4143.18 3136L3739.99 2576L4237.97 3136H4143.18Z" fill="black"/>
<path d="M3410.8 793.452L3881.25 0H4058.42L3410.8 793.452Z" fill="black"/>
<path d="M5677.34 3136L4282.15 2177.53L5760 2889.36V3136H5677.34Z" fill="black"/>
<path d="M5760.01 201.328V468.109L4290.5 1055.65L5760.01 201.328Z" fill="black"/>
<path d="M3667.16 3136H3585.34L3258.09 2496L3667.16 3136Z" fill="black"/>
<path d="M3739.43 962.885L4616.96 0H5112.96L3739.43 962.885Z" fill="black"/>
<path d="M5760 1267.47V1406.87L4194.48 1466.41L5760 1267.47Z" fill="black"/>
<path d="M5234.23 0H5493.82L3910.6 927.549L5234.23 0Z" fill="black"/>
<path d="M4204.41 0H4272.71L3534.87 764.124L4204.41 0Z" fill="black"/>
</g>
</svg>
