<svg width="440" height="439" viewBox="0 0 440 439" fill="none" xmlns="http://www.w3.org/2000/svg">
<path d="M220 0C99 0 0 98.78 0 220.44C0 330.44 80.52 421.74 185.68 438.24V284.24H129.8V220.44H185.68V171.82C185.68 116.6 218.46 86.24 268.84 86.24C292.82 86.24 317.9 90.42 317.9 90.42V144.76H290.18C262.9 144.76 254.32 161.7 254.32 179.08V220.44H315.48L305.58 284.24H254.32V438.24C306.161 430.052 353.368 403.601 387.418 363.66C421.467 323.722 440.119 272.924 440 220.44C440 98.78 341 0 220 0Z" fill="white"/>
</svg>
