<svg width="62" height="32" viewBox="0 0 62 32" fill="none" xmlns="http://www.w3.org/2000/svg">
<path d="M30.7817 12.8311C34.3249 12.8311 37.1973 9.95873 37.1973 6.41553C37.1973 2.87233 34.3249 0 30.7817 0C27.2385 0 24.3662 2.87233 24.3662 6.41553C24.3662 9.95873 27.2385 12.8311 30.7817 12.8311Z" fill="#02BBFE"/>
<path d="M51.7134 14.9049C54.7591 14.9049 57.2864 12.4423 57.2864 9.39658C57.2864 6.35082 54.8239 3.82349 51.7134 3.82349C48.6676 3.82349 46.2051 6.28601 46.2051 9.39658C46.2051 12.5071 48.6676 14.9049 51.7134 14.9049Z" fill="#FCB401"/>
<path d="M58.6474 20.1539C57.481 18.9875 56.0553 18.145 54.5 17.6914C53.5928 18.0154 52.6855 18.145 51.7135 18.145C50.7414 18.145 49.7694 18.0154 48.9269 17.6914C47.0476 18.2746 45.4276 19.3115 44.1963 20.802C44.9091 22.5517 45.2979 24.431 45.2979 26.4399V31.3001H59.5547C60.6563 31.3001 61.5636 30.3929 61.5636 29.2912V27.1527C61.5636 24.4958 60.5267 22.0332 58.6474 20.1539Z" fill="#FCB401"/>
<path d="M33.8922 15.5527C32.9202 15.8768 31.8833 16.0712 30.7816 16.0712C29.68 16.0712 28.6431 15.8768 27.6711 15.5527C22.8756 16.9136 19.5059 21.3202 19.5059 26.3749V31.2351H42.0574V26.3749C42.0574 23.3939 40.891 20.5426 38.7525 18.4041C37.3916 17.0432 35.7067 16.0712 33.8922 15.5527Z" fill="#02BBFE"/>
<path d="M9.84945 14.9049C12.8952 14.9049 15.3577 12.4423 15.3577 9.39658C15.3577 6.35082 12.8952 3.82349 9.84945 3.82349C6.8037 3.82349 4.27637 6.28601 4.27637 9.39658C4.27637 12.5071 6.8037 14.9049 9.84945 14.9049Z" fill="#02BBFE"/>
<path d="M12.6367 17.6914C11.7294 18.0154 10.8222 18.145 9.85011 18.145C8.87806 18.145 7.97081 18.0154 7.06356 17.6914C5.50828 18.145 4.08261 18.9875 2.91615 20.1539C1.03685 22.0332 0 24.4958 0 27.0879V29.2264C0 30.3281 0.907247 31.2353 2.0089 31.2353H16.2656V26.3751C16.2656 24.3661 16.6545 22.4869 17.3673 20.7372C16.136 19.3115 14.5159 18.2098 12.6367 17.6914Z" fill="#02BBFE"/>
</svg>
