<svg width="36" height="44" viewBox="0 0 36 44" fill="none" xmlns="http://www.w3.org/2000/svg">
<path d="M16.2815 3.65607C16.907 2.30005 18.8342 2.30005 19.4597 3.65607L19.929 4.67353C20.1839 5.22619 20.7077 5.60671 21.3121 5.67837L22.4247 5.8103C23.9077 5.98612 24.5032 7.81905 23.4069 8.83294L22.5842 9.59367C22.1374 10.0069 21.9373 10.6226 22.056 11.2195L22.2743 12.3185C22.5654 13.7832 21.0062 14.916 19.7031 14.1866L18.7254 13.6393C18.1943 13.342 17.5469 13.342 17.0158 13.6393L16.0381 14.1866C14.735 14.916 13.1759 13.7832 13.4669 12.3185L13.6853 11.2195C13.8039 10.6226 13.6038 10.0069 13.157 9.59367L12.3344 8.83294C11.238 7.81905 11.8335 5.98612 13.3165 5.8103L14.4292 5.67837C15.0335 5.60671 15.5573 5.22619 15.8122 4.67353L16.2815 3.65607Z" fill="#FCB401"/>
<path d="M10.7315 29.6429H2.7828C2.04517 29.6443 1.33813 29.9379 0.816541 30.4595C0.294954 30.9811 0.00133751 31.6881 0 32.4257V41.3458C0 41.8155 0.186573 42.2659 0.518676 42.598C0.850779 42.9301 1.30121 43.1167 1.77087 43.1167H10.7315V29.6429ZM14.2732 19.7109V43.1167H21.468V19.7109H14.2732ZM32.9585 24.6491H25.0098V43.1167H33.9704C34.4401 43.1167 34.8905 42.9301 35.2226 42.598C35.5547 42.2659 35.7413 41.8155 35.7413 41.3458V27.4319C35.7399 26.6943 35.4463 25.9872 34.9247 25.4657C34.4031 24.9441 33.6961 24.6505 32.9585 24.6491Z" fill="#02BBFE"/>
</svg>
