<svg width="49" height="40" viewBox="0 0 49 40" fill="none" xmlns="http://www.w3.org/2000/svg">
<path d="M23.6484 29.8975C25.2895 29.4872 26.5715 28.2052 26.9818 26.5641C27.1356 25.9488 27.4433 25.3847 27.8536 24.9744C26.6228 21.6411 24.0074 19.077 20.7767 17.8462C19.0331 18.9744 16.9818 19.6411 14.7254 19.6411C12.5202 19.6411 10.4177 18.9744 8.67409 17.8462C5.44332 19.1282 2.82794 21.6923 1.59717 25.077C0.725372 27.4872 0.212551 30.0513 0.00742297 32.6154C-0.0951411 33.7949 0.879218 34.7693 2.0587 34.7693H21.392C21.1356 34.3077 21.0331 33.7949 21.0331 33.2308C21.0331 31.6411 22.11 30.2564 23.6484 29.8975Z" fill="#02BBFE"/>
<path d="M14.7765 17.0256C19.478 17.0256 23.2893 13.2143 23.2893 8.51282C23.2893 3.81132 19.478 0 14.7765 0C10.075 0 6.26367 3.81132 6.26367 8.51282C6.26367 13.2143 10.075 17.0256 14.7765 17.0256Z" fill="#02BBFE"/>
<path d="M41.3919 23.2309C41.6996 23.1283 41.956 22.8719 41.956 22.5129C41.956 22.154 41.6996 21.8975 41.3919 21.795C39.0842 21.2309 37.2894 19.436 36.7253 17.1283C36.6227 16.8206 36.3663 16.5642 36.0073 16.5642C35.6483 16.5642 35.3919 16.8206 35.2894 17.1283C34.7253 19.436 32.9304 21.2309 30.6227 21.795C30.315 21.8975 30.0586 22.154 30.0586 22.5129C30.0586 22.8719 30.2637 23.1283 30.6227 23.2309C32.9304 23.795 34.7253 25.5899 35.2894 27.8975C35.3919 28.2052 35.6483 28.4616 36.0073 28.4616C36.3663 28.4616 36.6227 28.2565 36.7253 27.8975C37.2894 25.5899 39.1355 23.7437 41.3919 23.2309Z" fill="#FCB401"/>
<path d="M36.469 32.4616C33.8536 31.8463 31.8023 29.795 31.1869 27.1796C31.0843 26.8206 30.7766 26.5642 30.3664 26.5642C29.9561 26.5642 29.6484 26.8206 29.5459 27.1796C28.9305 29.795 26.8792 31.8463 24.2638 32.4616C23.9048 32.5642 23.6484 32.8719 23.6484 33.2822C23.6484 33.6924 23.9048 34.0001 24.2638 34.1027C26.8279 34.7181 28.9305 36.8206 29.5459 39.3847C29.6484 39.7437 29.9561 40.0001 30.3664 40.0001C30.7766 40.0001 31.0843 39.7437 31.1869 39.3847C31.8023 36.8206 33.9048 34.7181 36.469 34.1027C36.8279 34.0001 37.0843 33.6924 37.0843 33.2822C37.0843 32.8719 36.8279 32.5642 36.469 32.4616Z" fill="#FCB401"/>
<path d="M48.2636 29.5897C46.2636 29.1282 44.7252 27.5384 44.2123 25.5384C44.1611 25.2307 43.9046 25.0769 43.597 25.0769C43.2893 25.0769 43.0329 25.282 42.9816 25.5384C42.52 27.5384 40.9303 29.1282 38.9303 29.5897C38.6226 29.641 38.4688 29.8974 38.4688 30.2051C38.4688 30.5128 38.6739 30.7692 38.9303 30.8205C40.9303 31.282 42.4688 32.8718 42.9816 34.8718C43.0329 35.1795 43.2893 35.3333 43.597 35.3333C43.9046 35.3333 44.1611 35.1282 44.2123 34.8718C44.6739 32.8718 46.2636 31.3333 48.2636 30.8205C48.5713 30.7692 48.7252 30.5128 48.7252 30.2051C48.7252 29.9487 48.52 29.6923 48.2636 29.5897Z" fill="#FCB401"/>
</svg>
