<svg width="320" height="321" viewBox="0 0 320 321" fill="none" xmlns="http://www.w3.org/2000/svg">
<g clip-path="url(#clip0_11728_330)">
<path d="M74.4956 103.481H10.255C7.40394 103.481 5.09375 105.792 5.09375 108.642V315.02C5.09375 317.871 7.40394 320.181 10.255 320.181H74.4956C77.3467 320.181 79.6569 317.871 79.6569 315.02V108.642C79.6569 105.792 77.3467 103.481 74.4956 103.481Z" fill="white"/>
<path d="M42.3907 -2.34766C19.0163 -2.34766 0 16.648 0 39.9966C0 63.3556 19.0163 82.3584 42.3907 82.3584C65.7466 82.3584 84.7474 63.3545 84.7474 39.9966C84.7484 16.648 65.7466 -2.34766 42.3907 -2.34766Z" fill="white"/>
<path d="M239.943 98.356C214.142 98.356 195.069 109.448 183.5 122.05V108.647C183.5 105.796 181.19 103.485 178.339 103.485H116.818C113.966 103.485 111.656 105.796 111.656 108.647V315.024C111.656 317.875 113.966 320.185 116.818 320.185H180.918C183.769 320.185 186.079 317.875 186.079 315.024V212.915C186.079 178.507 195.425 165.102 219.411 165.102C245.533 165.102 247.609 186.591 247.609 214.685V315.025C247.609 317.876 249.919 320.186 252.77 320.186H316.894C319.745 320.186 322.055 317.876 322.055 315.025V201.823C322.055 150.659 312.299 98.356 239.943 98.356Z" fill="white"/>
</g>
<defs>
<clipPath id="clip0_11728_330">
<rect width="320" height="320" fill="white" transform="translate(0 0.535645)"/>
</clipPath>
</defs>
</svg>
