<?xml version="1.0" encoding="UTF-8"?><svg id="Layer_2" xmlns="http://www.w3.org/2000/svg" viewBox="0 0 78.35 92.59"><defs><style>.cls-1{fill:#0cf;}.cls-2{fill:#fff;opacity:.53;}.cls-3{fill:#00a5e2;}</style></defs><g id="Layer_1-2"><path d="M77.7,55.78c-1.29-7.62-5.44-13.82-12.37-18.54C81.55,25.87,73.82-.32,46.6.07,12.96-1.7-19.08,31.4,13.72,55.93c-19.4,6.07-13.39,29.51,4.36,33.87,10.39,3.23,17.46,3.2,27.18,2.13l.14-.02h0c18.41-1.52,36.64-16.18,32.3-36.14Z"/><path d="M2.04,67.19s0,0,0,0c0-.02.01-.05.02-.06l-.02.06Z"/><path class="cls-1" d="M17.81,65.23c7.17-1.46,15.64,2.43,22.34-2.02,2.34-1.34,3.97-4.32,1.63-6.37-3.66-3.78-15.92-4.31-23.74-10.08-4.07-2.89-7.14-7.41-7.65-12.4-1.1-9.94,6.97-17.05,15.82-20.33,7.33-3.21,32.6-8.81,36.57,4.38,4.73,15.73-14.97,11.22-21.7,11.08-7.27-.15-9.02,2.25-7.38,5.01,1,1.88,4.47,3.16,8.79,4.26,10.25,2.26,23.35,6.83,25.36,18.68,3.53,20.81-20.06,25.96-35.31,25.01-8.08-.5-17.44-3.06-20.43-8.8-1.97-3.78.89-7.58,5.52-8.39l.19-.04Z"/><path class="cls-3" d="M42.22,26.14c-6.76-.14-8.75,1.93-7.67,4.44,1.25-.72,3.37-1.14,6.53-1.07,5.89.12,21.69,3.58,22.4-6.07-3.85,5.37-16.2,2.81-21.26,2.7Z"/><path class="cls-3" d="M33.68,79.1c-8.08-.5-17.44-3.06-20.43-8.8-.39-.76-.59-1.51-.62-2.25-1.24,1.57-1.58,3.59-.53,5.61,2.99,5.74,12.35,8.3,20.43,8.8,12.98.81,32.01-2.81,35.19-16.77-5.24,11.18-22.18,14.14-34.05,13.4Z"/><path class="cls-3" d="M18.04,46.77c7.82,5.77,20.08,6.3,23.74,10.08.61.53.94,1.13,1.07,1.74,1.34-1.5,1.83-3.56.07-5.11-3.66-3.78-15.92-4.31-23.74-10.08-4.07-2.89-7.14-7.41-7.65-12.4-.2-1.8-.09-3.5.26-5.1-1.19,2.53-1.75,5.36-1.4,8.47.5,4.99,3.58,9.51,7.65,12.4Z"/><path class="cls-2" d="M42,12.81c-4.91.77-5.91,2.52,0,4.07,5.91,1.55,15.02,2.14,15.52,0s-7.88-5.27-15.52-4.07Z"/><path class="cls-2" d="M39.25,41.02c-2.08-.69,17.04,8.7,19.5,10.91s4.09-3.11-19.5-10.91Z"/></g></svg>