<?xml version="1.0" encoding="UTF-8"?><svg id="Layer_2" xmlns="http://www.w3.org/2000/svg" viewBox="0 0 202.16 71.78"><defs><style>.cls-1{fill:#151c72;}.cls-2{fill:#fff;}.cls-3{fill:#f65800;}</style></defs><g id="Layer_1-2"><path class="cls-1" d="M78.09,27.78v6.81c0,1.58-1.26,2.84-2.84,2.84s-2.84-1.26-2.84-2.84V11.08c0-1.58,1.26-2.84,2.84-2.84,1.3,0,2.39.85,2.71,2.03,1.66-1.26,3.73-2.03,6-2.03,5.71,0,10.01,4.74,10.01,10.74s-4.3,10.74-10.01,10.74c-2.23,0-4.25-.69-5.88-1.95ZM88.26,18.99c0-3.12-2.23-5.47-5.11-5.47s-4.98,2.27-5.07,5.27v.2c0,3.16,2.23,5.47,5.07,5.47s5.11-2.31,5.11-5.47Z"/><path class="cls-1" d="M97.22,18.99c0-6,4.54-10.74,10.82-10.74s10.82,4.74,10.82,10.74-4.54,10.74-10.82,10.74-10.82-4.74-10.82-10.74ZM113.11,18.99c0-2.96-2.11-5.47-5.07-5.47s-5.11,2.51-5.11,5.47,2.15,5.47,5.11,5.47,5.07-2.51,5.07-5.47Z"/><path class="cls-1" d="M122.11,18.99c0-6,4.54-10.74,10.82-10.74,3.4,0,6.28,1.46,7.66,3.12.53.61.81,1.34.81,1.9,0,1.58-1.22,2.67-2.8,2.67-1.13,0-1.7-.61-2.43-1.22-.73-.61-1.7-1.22-3.24-1.22-2.88,0-5.11,2.43-5.11,5.47s2.23,5.47,5.11,5.47c1.42,0,2.47-.57,3.2-1.18s1.34-1.3,2.47-1.3c1.58,0,2.8,1.13,2.8,2.72,0,.57-.28,1.26-.81,1.86-1.38,1.66-4.17,3.16-7.66,3.16-6.28,0-10.82-4.74-10.82-10.74Z"/><path class="cls-1" d="M145.25,3.38c0-1.58,1.26-2.84,2.84-2.84s2.84,1.26,2.84,2.84v23.51c0,1.58-1.26,2.84-2.84,2.84s-2.84-1.26-2.84-2.84V3.38ZM152.5,21.05c-.45-.53-.77-1.26-.77-2.07,0-.61.28-1.42.73-1.95l6.61-7.86c.57-.65,1.17-.93,1.95-.93,1.54,0,2.71,1.09,2.71,2.59,0,.61-.16,1.18-.61,1.7l-5.19,6.16,5.35,6.36c.45.53.69,1.22.69,1.82,0,1.62-1.38,2.84-2.88,2.84-.77,0-1.62-.36-2.15-1.01l-6.44-7.66Z"/><path class="cls-1" d="M165.96,18.99c0-6,4.54-10.74,10.82-10.74,3.32,0,5.84,1.38,6.97,2.43.65.57,1.01,1.38,1.01,2.19,0,.69-.2,1.3-.77,1.99l-5.23,6.24c-.57.65-1.17.93-1.95.93-1.54,0-2.72-1.09-2.72-2.59,0-.61.16-1.22.61-1.7l3.49-4.01c-.28-.12-.97-.2-1.42-.2-2.88,0-5.11,2.43-5.11,5.47s2.19,5.47,5.11,5.47c1.5,0,2.51-.61,3.2-1.18.81-.69,1.38-1.3,2.47-1.3,1.58,0,2.8,1.13,2.8,2.72,0,.57-.28,1.26-.81,1.86-1.38,1.66-4.17,3.16-7.66,3.16-6.24,0-10.82-4.7-10.82-10.74Z"/><path class="cls-1" d="M186.27,11.29c0-1.46,1.17-2.63,2.63-2.63h.77v-2.43c0-1.58,1.26-2.84,2.84-2.84s2.84,1.26,2.84,2.84v2.43h4.17c1.46,0,2.63,1.18,2.63,2.63s-1.17,2.63-2.63,2.63h-4.17v5.55c0,3.36,1.86,4.98,4.17,4.98,1.46,0,2.63,1.18,2.63,2.63s-1.17,2.63-2.63,2.63c-5.47,0-9.85-3.97-9.85-10.25v-5.55h-.77c-1.46,0-2.63-1.18-2.63-2.63Z"/><path class="cls-3" d="M71.6,53.28c0-6,4.3-10.74,10.01-10.74,2.23,0,4.29.77,5.96,2.03.37-1.18,1.46-2.03,2.76-2.03,1.58,0,2.84,1.26,2.84,2.84v15.6c0,6-4.86,10.74-11.02,10.74-3.49,0-6.28-1.5-7.66-3.16-.53-.61-.81-1.3-.81-1.86,0-1.58,1.21-2.72,2.8-2.72,1.13,0,1.74.69,2.47,1.3.69.57,1.7,1.18,3.2,1.18,2.63,0,4.7-1.86,5.23-4.3-1.62,1.18-3.61,1.86-5.75,1.86-5.71,0-10.01-4.74-10.01-10.74ZM87.49,53.28v-.2c-.12-3-2.31-5.27-5.07-5.27s-5.11,2.35-5.11,5.47,2.23,5.47,5.11,5.47,5.07-2.31,5.07-5.47Z"/><path class="cls-3" d="M97.22,53.28c0-6,4.3-10.74,10.01-10.74,2.23,0,4.29.77,5.96,2.03.37-1.18,1.46-2.03,2.76-2.03,1.58,0,2.84,1.26,2.84,2.84v15.81c0,1.58-1.26,2.84-2.84,2.84-1.3,0-2.39-.85-2.76-2.03-1.66,1.3-3.73,2.03-5.96,2.03-5.71,0-10.01-4.74-10.01-10.74ZM113.11,53.28c0-3.12-2.23-5.47-5.07-5.47s-5.11,2.35-5.11,5.47,2.23,5.47,5.11,5.47,5.07-2.31,5.07-5.47Z"/><path class="cls-3" d="M123.65,51.01c0-5.11,3.49-8.47,7.9-8.47,2.35,0,4.42.77,5.88,3.04,1.42-2.27,3.53-3.04,5.88-3.04,4.42,0,7.9,3.36,7.9,8.47v10.17c0,1.58-1.26,2.84-2.84,2.84s-2.84-1.26-2.84-2.84v-10.25c0-2.11-1.18-3.12-2.63-3.12s-2.63,1.01-2.63,3.12v10.25c0,1.58-1.26,2.84-2.84,2.84s-2.84-1.26-2.84-2.84v-10.25c0-2.11-1.17-3.12-2.63-3.12s-2.63,1.01-2.63,3.12v10.25c0,1.58-1.26,2.84-2.84,2.84s-2.84-1.26-2.84-2.84v-10.17Z"/><path class="cls-3" d="M155.26,53.28c0-6,4.54-10.74,10.82-10.74,3.32,0,5.84,1.38,6.97,2.43.65.57,1.01,1.38,1.01,2.19,0,.69-.2,1.3-.77,1.99l-5.23,6.24c-.57.65-1.17.93-1.95.93-1.54,0-2.72-1.09-2.72-2.59,0-.61.16-1.22.61-1.7l3.49-4.01c-.28-.12-.97-.2-1.42-.2-2.88,0-5.11,2.43-5.11,5.47s2.19,5.47,5.11,5.47c1.5,0,2.51-.61,3.2-1.18.81-.69,1.38-1.3,2.47-1.3,1.58,0,2.8,1.13,2.8,2.72,0,.57-.28,1.26-.81,1.86-1.38,1.66-4.17,3.16-7.66,3.16-6.24,0-10.82-4.7-10.82-10.74Z"/><path class="cls-3" d="M180.23,56.68c.73,0,1.26.24,1.7.61.85.69,1.46,1.66,2.76,1.66.77,0,1.42-.65,1.42-1.42,0-1.3-1.42-1.7-3.08-2.27-2.35-.81-5.23-1.9-5.23-6.28,0-3.53,3-6.44,6.89-6.44,3.45,0,6.89,1.99,6.89,4.34,0,1.46-1.18,2.63-2.63,2.63-.49,0-.85-.12-1.22-.28-1.05-.53-1.78-1.62-3.04-1.62-.77,0-1.42.65-1.42,1.42,0,1.13,1.46,1.5,3.16,2.07,2.43.77,5.35,1.95,5.35,6.24,0,3.65-3.12,6.69-7.09,6.69-3.69,0-7.09-2.27-7.09-4.7,0-1.46,1.18-2.63,2.63-2.63Z"/><rect class="cls-3" x="7.24" y="11.26" width="49.31" height="32.6" rx="5.09" ry="5.09" transform="translate(-6.58 44.78) rotate(-64.94)"/><path class="cls-1" d="M44.45,67.03l-19.91,4.6c-1.55.36-3.18.08-4.53-.77L2.76,59.91c-1.87-1.19-2.93-3.32-2.74-5.53L3.22,16.81c.3-3.47,3.5-5.95,6.93-5.36l43.41,7.42c3.43.59,5.63,3.98,4.76,7.36l-9.45,36.5c-.56,2.15-2.26,3.81-4.42,4.31Z"/><rect class="cls-2" x="7.79" y="36.71" width="18.94" height="6.25" rx="3.13" ry="3.13" transform="translate(8.17 -2.62) rotate(11.35)"/><rect class="cls-2" x="7.79" y="36.71" width="18.94" height="6.25" rx="3.13" ry="3.13" transform="translate(59.71 30.75) rotate(101.35)"/><circle class="cls-2" cx="33.74" cy="47.92" r="4.38"/><circle class="cls-2" cx="43.03" cy="40.85" r="4.38"/></g></svg>