<?xml version="1.0" encoding="UTF-8"?><svg id="Layer_2" xmlns="http://www.w3.org/2000/svg" viewBox="0 0 71 72.58"><defs><style>.cls-1{fill:#22c68b;}.cls-1,.cls-2,.cls-3,.cls-4,.cls-5,.cls-6,.cls-7,.cls-8,.cls-9{stroke-width:0px;}.cls-2{fill:#337c03;}.cls-3{fill:#000;}.cls-4{fill:#d4f7ff;}.cls-5{fill:#b4ff48;}.cls-6{fill:#f9da4a;}.cls-10{opacity:.53;}.cls-11{opacity:.5;}.cls-7{fill:#fff;}.cls-8{fill:#4da514;}.cls-9{fill:#e29813;}</style></defs><g id="Layer_2-2"><g class="cls-11"><circle class="cls-3" cx="35.5" cy="37.08" r="35.5"/></g></g><g id="Layer_6"><g class="cls-10"><path class="cls-3" d="M64.78,36.92c0-16.29-13.2-29.49-29.49-29.49S5.8,20.63,5.8,36.92c0,.44.01.88.03,1.31-.02.43-.03.87-.03,1.31,0,16.29,13.2,29.49,29.49,29.49s29.49-13.2,29.49-29.49c0-.44-.01-.88-.03-1.31.02-.43.03-.87.03-1.31Z"/></g><circle class="cls-8" cx="35.29" cy="34.2" r="29.04"/><circle class="cls-5" cx="35.29" cy="31.62" r="29.04"/><circle class="cls-1" cx="35.29" cy="31.62" r="21.29"/><rect class="cls-9" x="30.95" y="27.98" width="9.06" height="19.77" rx="4.53" ry="4.53" transform="translate(70.96 75.72) rotate(180)"/><rect class="cls-6" x="31.77" y="28.83" width="7.41" height="16.18" rx="3.71" ry="3.71" transform="translate(70.96 73.83) rotate(-180)"/><circle class="cls-9" cx="35.48" cy="21.33" r="4.53"/><circle class="cls-6" cx="35.48" cy="20.85" r="3.71"/><circle class="cls-7" cx="34.59" cy="19.49" r="1.65"/><rect class="cls-7" x="32.95" y="30.5" width="3.29" height="7.19" rx="1.65" ry="1.65" transform="translate(69.19 68.19) rotate(-180)"/><path class="cls-3" d="M35.48,27.98c2.49,0,4.53,2.04,4.53,4.53v10.71c0,2.49-2.04,4.53-4.53,4.53s-4.53-2.04-4.53-4.53v-10.71c0-2.49,2.04-4.53,4.53-4.53M35.48,26.33c-3.41,0-6.18,2.77-6.18,6.18v10.71c0,3.41,2.77,6.18,6.18,6.18s6.18-2.77,6.18-6.18v-10.71c0-3.41-2.77-6.18-6.18-6.18h0Z"/><path class="cls-3" d="M35.48,16.8c2.5,0,4.53,2.03,4.53,4.53s-2.03,4.53-4.53,4.53-4.53-2.03-4.53-4.53,2.03-4.53,4.53-4.53M35.48,15.15c-3.41,0-6.18,2.77-6.18,6.18s2.77,6.18,6.18,6.18,6.18-2.77,6.18-6.18-2.77-6.18-6.18-6.18h0Z"/><path class="cls-2" d="M35.29,11.61c11.54,0,20.92,9.19,21.26,20.65,0-.22.03-.43.03-.65,0-11.76-9.53-21.29-21.29-21.29S13.99,19.86,13.99,31.62c0,.22.03.43.03.65.34-11.46,9.72-20.65,21.26-20.65Z"/><path class="cls-4" d="M35.29,52.91c-11.54,0-20.92-9.19-21.26-20.65,0,.22-.03.43-.03.65,0,11.76,9.53,21.29,21.29,21.29s21.29-9.53,21.29-21.29c0-.22-.03-.43-.03-.65-.34,11.46-9.72,20.65-21.26,20.65Z"/><path class="cls-3" d="M35.29,2.58c16.04,0,29.04,13,29.04,29.04,0,.43-.01.86-.03,1.29.02.43.03.86.03,1.29,0,16.04-13,29.04-29.04,29.04S6.25,50.23,6.25,34.2c0-.43.01-.86.03-1.29-.02-.43-.03-.86-.03-1.29C6.25,15.58,19.25,2.58,35.29,2.58M35.29,0C17.85,0,3.67,14.18,3.67,31.62c0,.43.01.86.03,1.29-.02.43-.03.86-.03,1.29,0,17.43,14.18,31.62,31.62,31.62s31.62-14.18,31.62-31.62c0-.43-.01-.86-.03-1.29.02-.43.03-.86.03-1.29C66.9,14.18,52.72,0,35.29,0h0Z"/></g></svg>