<?xml version="1.0" encoding="UTF-8"?><svg id="Layer_2" xmlns="http://www.w3.org/2000/svg" viewBox="0 0 61.99 65.68"><defs><style>.cls-1{fill:#a54f0f;}.cls-1,.cls-2,.cls-3,.cls-4,.cls-5,.cls-6,.cls-7,.cls-8,.cls-9,.cls-10{stroke-width:0px;}.cls-2{fill:#350e08;}.cls-3{fill:#542404;}.cls-4{opacity:.61;}.cls-4,.cls-8,.cls-9{fill:#fff;}.cls-5{fill:#000;}.cls-6{fill:#c15f1e;}.cls-7{fill:#e87400;}.cls-11{opacity:.32;}.cls-12{opacity:.4;}.cls-13{opacity:.48;}.cls-14{opacity:.82;}.cls-15{opacity:.72;}.cls-8{opacity:.84;}.cls-10{fill:#ffce00;}</style></defs><g id="Layer_2-2"><path class="cls-5" d="M42.66,3.9s-.04-.02-.05-.02c-.4-.17-.83-.34-1.26-.49l-.2-.07-.09-.03c-.36-.13-.72-.25-1.08-.36-.11-.03-.22-.07-.34-.1l-.15-.04c-.33-.1-.63-.18-.93-.26-.15-.04-.31-.08-.47-.11l-.17-.04-.19-.05c-.19-.05-.39-.09-.58-.13-.02,0-.06-.01-.08-.01-.16-.03-.35-.07-.54-.1l-.18-.03-.2-.04c-.16-.03-.33-.06-.49-.09-.01,0-.05,0-.06,0-.21-.03-.43-.06-.65-.09l-.19-.02-.2-.03c-.14-.02-.29-.04-.43-.05,0,0-.04,0-.05,0-.27-.03-.56-.05-.84-.07h-.14s-.17-.02-.17-.02c-.12-.01-.24-.02-.36-.03-.55-.03-1.07-.04-1.58-.04s-1.04.01-1.57.04c-.12,0-.25.02-.37.03h-.17s-.19.03-.19.03c-.25.02-.51.03-.76.06-.02,0-.05,0-.08,0-.15.02-.29.03-.44.05l-.2.03-.18.02c-.23.03-.46.06-.68.09-.18.03-.36.06-.55.1l-.19.03-.2.04c-.15.03-.31.05-.46.08-.02,0-.09.02-.12.03-.2.04-.41.09-.63.14l-.16.04-.17.04c-.16.04-.32.07-.47.11-.29.08-.59.16-.88.25l-.19.06c-.11.03-.23.07-.34.1-.36.11-.72.24-1.07.36-.11.04-.17.06-.23.08-.02,0-.07.03-.1.04-.39.14-.8.31-1.21.48-.01,0-.02,0-.03.01-.02,0-.03.01-.05.02C7.58,8.86,0,20.51,0,33.61c0,17.68,13.9,32.07,30.99,32.07s30.99-14.38,30.99-32.07c0-13.11-7.59-24.77-19.33-29.71Z"/><ellipse class="cls-7" cx="30.99" cy="31.61" rx="28.56" ry="29.61"/><circle class="cls-10" cx="30.99" cy="29.53" r="27.53"/><g class="cls-15"><g class="cls-13"><path class="cls-9" d="M30.99,2C15.79,2,3.46,14.32,3.46,29.53c0,5.52,1.63,10.67,4.44,14.98,11.19-8.7,33.55-26.59,42.9-34.08-5.01-5.19-12.03-8.42-19.81-8.42Z"/></g><g class="cls-11"><path class="cls-9" d="M54.08,14.55c-.35-.54-.72-1.07-1.11-1.59L11.96,49.41c1.09,1.04,2.26,2,3.51,2.85L54.08,14.55Z"/></g><g class="cls-11"><path class="cls-9" d="M58.21,25.37c-.32-2.11-.89-4.15-1.66-6.07L21.88,55.51c1.76.62,3.6,1.06,5.51,1.31l30.82-31.45Z"/></g></g><path class="cls-6" d="M30.99,48.49c-10.45,0-18.96-8.5-18.96-18.96S20.54,10.57,30.99,10.57s18.96,8.5,18.96,18.96-8.51,18.96-18.96,18.96Z"/><path class="cls-1" d="M30.99,10.94c10.25,0,18.59,8.34,18.59,18.59s-8.34,18.59-18.59,18.59-18.59-8.34-18.59-18.59S20.74,10.94,30.99,10.94M30.99,10.2c-10.67,0-19.33,8.65-19.33,19.33s8.65,19.33,19.33,19.33,19.33-8.65,19.33-19.33-8.65-19.33-19.33-19.33h0Z"/><path class="cls-9" d="M45,7.98c-.17,0-.34-.04-.5-.14-.71-.42-1.45-.81-2.2-1.17-.49-.23-.71-.82-.47-1.32.23-.49.82-.71,1.31-.47.8.38,1.6.8,2.36,1.25.47.28.62.88.35,1.35-.18.31-.51.48-.85.48Z"/><path class="cls-9" d="M16.38,8.35c-.33,0-.65-.16-.84-.46-.29-.46-.15-1.07.31-1.36,4.53-2.84,9.76-4.35,15.14-4.35,2.62,0,5.22.36,7.73,1.06.52.15.83.69.68,1.22s-.69.83-1.22.68c-2.33-.65-4.75-.99-7.19-.99-5,0-9.87,1.4-14.09,4.04-.16.1-.34.15-.52.15Z"/><path class="cls-9" d="M23.19,49.38c-.13,0-.27-.03-.4-.08-.9-.4-1.78-.87-2.62-1.39-.46-.29-.6-.9-.31-1.36.29-.46.9-.6,1.36-.31.75.48,1.55.9,2.36,1.26.5.22.72.8.5,1.3-.16.37-.52.59-.91.59Z"/><path class="cls-9" d="M30.99,51.02c-1.26,0-2.51-.12-3.74-.34-.54-.1-.89-.62-.79-1.15.1-.54.62-.89,1.15-.79,4.23.79,8.75.03,12.49-2.11.47-.27,1.08-.11,1.35.36.27.47.11,1.08-.36,1.35-3.06,1.76-6.55,2.68-10.1,2.68Z"/><path class="cls-3" d="M30.99,13.71c10.08,0,18.35,7.72,19.24,17.57.05-.58.09-1.16.09-1.76,0-10.67-8.65-19.33-19.33-19.33S11.66,18.85,11.66,29.53c0,.59.04,1.18.09,1.76.89-9.85,9.16-17.57,19.24-17.57Z"/><circle class="cls-2" cx="40.35" cy="39.83" r="3.96"/><circle class="cls-2" cx="36.04" cy="19.76" r="4.01"/><path class="cls-2" d="M36.85,27.13l-1.64,5.03c-.25.76.42,1.5,1.2,1.34l5.18-1.1c.78-.17,1.09-1.12.56-1.71l-3.54-3.93c-.53-.59-1.51-.39-1.76.37Z"/><rect class="cls-2" x="17.99" y="27.19" width="6.48" height="6.48" rx=".99" ry=".99" transform="translate(-8.37 8.05) rotate(-18)"/><rect class="cls-2" x="24.77" y="35.21" width="10.69" height="6.55" rx="1.03" ry="1.03" transform="translate(68.6 8.37) rotate(90)"/><path class="cls-2" d="M22.25,16.5h0c3.13,0,5.67,2.54,5.67,5.67h0c0,.61-.49,1.1-1.1,1.1h-4.58c-.61,0-1.1-.49-1.1-1.1v-4.58c0-.61.49-1.1,1.1-1.1Z" transform="translate(-7 18.22) rotate(-36)"/><circle class="cls-2" cx="40.35" cy="39.83" r="4.44"/><path class="cls-2" d="M36.04,24.24c2.47,0,4.48-2.01,4.48-4.48s-2.01-4.48-4.48-4.48-4.48,2.01-4.48,4.48,2.01,4.48,4.48,4.48Z"/><path class="cls-2" d="M36.2,33.99c.11,0,.21-.01.32-.03l5.18-1.1c.53-.11.95-.49,1.12-1.01.17-.52.05-1.07-.31-1.48l-3.54-3.93c-.29-.32-.69-.5-1.12-.5-.66,0-1.24.42-1.44,1.04l-1.64,5.03c-.15.47-.07.96.21,1.35.28.39.74.63,1.22.63h0Z"/><path class="cls-2" d="M24.07,27.14c-.2-.6-.75-1.01-1.39-1.01-.15,0-.31.02-.45.07l-4.29,1.39c-.77.25-1.19,1.08-.94,1.84l1.39,4.29c.2.6.75,1.01,1.39,1.01.15,0,.31-.02.45-.07l4.29-1.39c.37-.12.67-.38.85-.73.18-.35.21-.74.09-1.12l-1.39-4.29Z"/><rect class="cls-2" x="26.36" y="32.67" width="7.5" height="11.63" rx="1.5" ry="1.5"/><path class="cls-2" d="M22.77,24.01c.29.41.77.65,1.27.65.33,0,.65-.1.92-.3l3.7-2.69c.7-.51.86-1.49.35-2.19-1.15-1.59-3.01-2.53-4.98-2.53-1.3,0-2.55.41-3.61,1.17-.7.51-.86,1.49-.35,2.19l2.69,3.7Z"/><path class="cls-2" d="M34.97,24.93l-4-2.91c-.25-.18-.55-.28-.86-.28s-.61.1-.86.28l-4,2.91c-.51.37-.73,1.03-.53,1.63l1.53,4.7c.2.6.76,1.01,1.39,1.01h4.95c.64,0,1.19-.41,1.39-1.01l1.53-4.7c.2-.6-.02-1.26-.53-1.64Z"/><path class="cls-2" d="M29.53,22.41l-4,2.91c-.35.25-.49.7-.36,1.11l1.53,4.7c.13.41.51.68.94.68h4.95c.43,0,.81-.28.94-.68l1.53-4.7c.13-.41-.01-.85-.36-1.11l-4-2.91c-.35-.25-.82-.25-1.16,0Z"/><circle class="cls-7" cx="40.35" cy="38.41" r="3.96"/><circle class="cls-7" cx="36.04" cy="18.34" r="4.01"/><path class="cls-7" d="M36.85,25.71l-1.64,5.03c-.25.76.42,1.5,1.2,1.34l5.18-1.1c.78-.17,1.09-1.12.56-1.71l-3.54-3.93c-.53-.59-1.51-.39-1.76.37Z"/><rect class="cls-7" x="17.99" y="25.77" width="6.48" height="6.48" rx=".99" ry=".99" transform="translate(-7.93 7.98) rotate(-18)"/><rect class="cls-7" x="24.77" y="33.79" width="10.69" height="6.55" rx="1.03" ry="1.03" transform="translate(67.17 6.95) rotate(90)"/><path class="cls-7" d="M22.25,15.08h0c3.13,0,5.67,2.54,5.67,5.67h0c0,.61-.49,1.1-1.1,1.1h-4.58c-.61,0-1.1-.49-1.1-1.1v-4.58c0-.61.49-1.1,1.1-1.1Z" transform="translate(-6.17 17.95) rotate(-36)"/><circle class="cls-7" cx="40.35" cy="38.41" r="4.44"/><path class="cls-7" d="M36.04,22.82c2.47,0,4.48-2.01,4.48-4.48s-2.01-4.48-4.48-4.48-4.48,2.01-4.48,4.48,2.01,4.48,4.48,4.48Z"/><path class="cls-7" d="M36.2,32.57c.11,0,.21-.01.32-.03l5.18-1.1c.53-.11.95-.49,1.12-1.01.17-.52.05-1.07-.31-1.48l-3.54-3.93c-.29-.32-.69-.5-1.12-.5-.66,0-1.24.42-1.44,1.04l-1.64,5.03c-.15.47-.07.96.21,1.35.28.39.74.63,1.22.63h0Z"/><path class="cls-7" d="M24.07,25.72c-.2-.6-.75-1.01-1.39-1.01-.15,0-.31.02-.45.07l-4.29,1.39c-.77.25-1.19,1.08-.94,1.84l1.39,4.29c.2.6.75,1.01,1.39,1.01.15,0,.31-.02.45-.07l4.29-1.39c.37-.12.67-.38.85-.73.18-.35.21-.74.09-1.12l-1.39-4.29Z"/><rect class="cls-7" x="26.36" y="31.25" width="7.5" height="11.63" rx="1.5" ry="1.5"/><path class="cls-7" d="M22.77,22.59c.29.41.77.65,1.27.65.33,0,.65-.1.92-.3l3.7-2.69c.7-.51.86-1.49.35-2.19-1.15-1.59-3.01-2.53-4.98-2.53-1.3,0-2.55.41-3.61,1.17-.7.51-.86,1.49-.35,2.19l2.69,3.7Z"/><path class="cls-7" d="M34.97,23.51l-4-2.91c-.25-.18-.55-.28-.86-.28s-.61.1-.86.28l-4,2.91c-.51.37-.73,1.03-.53,1.63l1.53,4.7c.2.6.76,1.01,1.39,1.01h4.95c.64,0,1.19-.41,1.39-1.01l1.53-4.7c.2-.6-.02-1.26-.53-1.64Z"/><path class="cls-7" d="M29.53,20.99l-4,2.91c-.35.25-.49.7-.36,1.11l1.53,4.7c.13.41.51.68.94.68h4.95c.43,0,.81-.28.94-.68l1.53-4.7c.13-.41-.01-.85-.36-1.11l-4-2.91c-.35-.25-.82-.25-1.16,0Z"/><circle class="cls-10" cx="40.35" cy="37.94" r="3.96"/><circle class="cls-10" cx="36.04" cy="17.86" r="4.01"/><path class="cls-10" d="M36.85,25.23l-1.64,5.03c-.25.76.42,1.5,1.2,1.34l5.18-1.1c.78-.17,1.09-1.12.56-1.71l-3.54-3.93c-.53-.59-1.51-.39-1.76.37Z"/><rect class="cls-10" x="17.99" y="25.3" width="6.48" height="6.48" rx=".99" ry=".99" transform="translate(-7.78 7.96) rotate(-18)"/><rect class="cls-10" x="26.84" y="31.25" width="6.55" height="10.69" rx="1.03" ry="1.03"/><path class="cls-10" d="M28.38,19.39l-3.7,2.69c-.49.36-1.18.25-1.53-.24l-2.69-3.7c-.36-.49-.25-1.18.24-1.53h0c2.54-1.84,6.08-1.28,7.93,1.26h0c.36.49.25,1.18-.24,1.53Z"/><path class="cls-10" d="M29.53,20.52l-4,2.91c-.35.25-.49.7-.36,1.11l1.53,4.7c.13.41.51.68.94.68h4.95c.43,0,.81-.28.94-.68l1.53-4.7c.13-.41-.01-.85-.36-1.11l-4-2.91c-.35-.25-.82-.25-1.16,0Z"/><path class="cls-4" d="M32.99,29.82l.45-.43c-.09.19-.26.34-.45.43Z"/><g class="cls-12"><path class="cls-8" d="M24.37,30.93l-4.28,1.39c-.52.17-1.08-.11-1.25-.63l-1.39-4.29c-.17-.51.11-1.07.63-1.24l4.29-1.39c.52-.17,1.07.11,1.24.63l1.39,4.28c.17.52-.11,1.08-.63,1.25Z"/><path class="cls-4" d="M20.45,18.14c-.35-.49-.25-1.17.25-1.53,1-.73,2.18-1.09,3.33-1.09,1.75,0,3.48.81,4.59,2.35.14.19.21.42.21.63,0,.34-.16.68-.45.9l-3.7,2.69c-.48.35-1.17.25-1.52-.25l-2.7-3.7Z"/><path class="cls-8" d="M34.16,23.03l-7.41,6.31s-.04-.07-.05-.1l-1.52-4.71c-.13-.41,0-.85.36-1.11l4-2.91c.35-.25.82-.25,1.16,0l3.47,2.52Z"/><path class="cls-8" d="M40.05,17.86c0,.06,0,.11,0,.17l-4.47,3.81c-2-.24-3.53-1.92-3.53-3.98,0-2.21,1.79-4.01,4.01-4.01s4.01,1.8,4.01,4.01Z"/><path class="cls-4" d="M33.39,32.27v1.57l-6.55,6.27v-4.52l4.64-4.35h.88c.57,0,1.03.45,1.03,1.02Z"/><path class="cls-4" d="M40.54,27.01l-4.74,4.54c-.46-.2-.76-.74-.58-1.28l1.17-3.63,2.05-1.92c.06.04.11.09.16.14l1.93,2.15Z"/><path class="cls-4" d="M43.93,36.23c-1.8,1.9-3.58,3.79-5.08,5.37-.99-.4-1.78-1.2-2.17-2.21l4.82-5.25c1.08.32,1.96,1.08,2.43,2.08Z"/></g><g class="cls-14"><path class="cls-9" d="M44.32,37.94c0,.16,0,.32-.03.47-.24-1.96-1.9-3.48-3.94-3.48s-3.69,1.52-3.93,3.48c-.02-.15-.03-.31-.03-.47,0-2.19,1.77-3.96,3.96-3.96s3.97,1.77,3.97,3.96Z"/></g><path class="cls-9" d="M40.05,17.86c0,.16,0,.32-.03.47-.24-1.99-1.93-3.53-3.98-3.53s-3.74,1.54-3.98,3.53c-.02-.15-.03-.31-.03-.47,0-2.21,1.79-4.01,4.01-4.01s4.01,1.8,4.01,4.01Z"/><path class="cls-9" d="M42.31,29.96c-.04-.08-.09-.15-.16-.23l-3.54-3.93c-.53-.6-1.51-.39-1.76.37l-1.57,4.87c-.11-.23-.14-.5-.06-.78l1.63-5.04c.26-.76,1.23-.97,1.76-.37l3.54,3.93c.31.35.34.81.16,1.17Z"/><path class="cls-9" d="M24.95,30.44l-1.34-4.09c-.17-.52-.72-.8-1.24-.63l-4.29,1.39c-.26.09-.45.26-.57.48l-.07-.19c-.17-.51.11-1.07.63-1.24l4.29-1.39c.52-.17,1.07.11,1.24.63l1.39,4.28c.09.26.06.53-.06.76Z"/><g class="cls-14"><path class="cls-9" d="M33.39,32.27v.95c0-.57-.46-1.02-1.03-1.02h-4.5c-.57,0-1.02.45-1.02,1.02v-.95c0-.57.45-1.02,1.02-1.02h4.5c.57,0,1.03.45,1.03,1.02Z"/></g><path class="cls-9" d="M28.83,18.5c0,.16-.04.33-.1.47-.04-.06-.07-.11-.1-.16-1.11-1.53-2.84-2.35-4.59-2.35-1.16,0-2.33.36-3.33,1.09-.15.11-.27.26-.35.42-.22-.47-.09-1.04.35-1.36,1-.73,2.18-1.09,3.33-1.09,1.75,0,3.48.81,4.59,2.35.14.19.21.42.21.63Z"/><path class="cls-9" d="M35.06,24.53l-.07.19c-.07-.14-.17-.26-.29-.35l-4.01-2.91c-.34-.25-.81-.25-1.16,0l-4,2.91c-.13.09-.23.21-.29.35l-.07-.19c-.13-.41,0-.85.36-1.11l4-2.91c.35-.25.82-.25,1.16,0l4.01,2.91c.34.26.49.7.36,1.11Z"/><path class="cls-5" d="M30.99,2c.48,0,.96.01,1.43.04,0,0,.02,0,.02,0,.16,0,.32.03.48.04.3.02.61.04.91.07.01,0,.03,0,.04,0,.19.02.39.05.58.07.26.03.52.06.78.1.02,0,.03,0,.05,0,.22.03.43.08.64.12.23.04.46.08.69.13.02,0,.03,0,.05,0,.24.05.47.11.71.16.2.05.39.09.59.14.29.07.57.16.85.24.15.04.3.09.45.13.33.1.66.22.99.33.09.03.18.06.26.09.39.14.78.3,1.17.46,0,0,.02,0,.03.01,10.46,4.4,17.83,15.03,17.83,27.45,0,16.35-12.78,29.61-28.56,29.61S2.44,47.97,2.44,31.61c0-12.42,7.38-23.05,17.83-27.45,0,0,0,0,0,0,0,0,.01,0,.02,0,.39-.16.77-.32,1.17-.46.02,0,.04-.02.06-.02.07-.02.14-.05.21-.07.33-.12.66-.23.99-.33.15-.05.3-.09.45-.13.28-.08.56-.17.85-.24.2-.05.39-.09.59-.14.25-.06.5-.12.75-.17.03,0,.06-.01.09-.02.2-.04.41-.07.61-.11.23-.04.45-.09.68-.12.26-.04.53-.07.79-.1.2-.03.4-.06.61-.08.02,0,.03,0,.05,0,.29-.03.58-.05.87-.07.17-.01.33-.03.5-.04.48-.02.96-.04,1.44-.04M30.99,0c-.5,0-1.02.01-1.55.04-.12,0-.24.02-.36.03h-.17s-.19.03-.19.03c-.25.02-.5.03-.75.06-.02,0-.05,0-.08,0-.15.02-.29.03-.43.05l-.19.03-.17.02c-.23.03-.45.06-.68.09-.18.03-.36.06-.54.09l-.19.03-.2.03c-.15.03-.3.05-.45.08-.02,0-.09.02-.12.03-.19.04-.41.09-.62.14l-.15.04-.17.04c-.16.04-.31.07-.47.11-.29.08-.57.16-.86.24,0,0-.05.01-.05.01l-.14.04c-.11.03-.23.07-.34.1-.35.11-.71.23-1.06.36-.11.03-.16.05-.22.08-.02,0-.07.03-.09.04-.38.14-.79.3-1.2.47-.02,0-.03.01-.04.02-.01,0-.02,0-.03.01C7.91,7.21.44,18.7.44,31.61c0,17.43,13.71,31.61,30.56,31.61s30.56-14.18,30.56-31.61c0-12.92-7.48-24.42-19.06-29.29-.01,0-.04-.02-.05-.02-.4-.17-.81-.33-1.24-.49l-.19-.07-.09-.03c-.35-.13-.7-.25-1.06-.36-.11-.03-.22-.07-.33-.1l-.14-.04c-.33-.1-.62-.18-.91-.26-.15-.04-.31-.08-.46-.11l-.17-.04-.19-.04c-.19-.05-.38-.09-.57-.13-.02,0-.06-.01-.08-.02-.16-.03-.34-.07-.53-.1l-.18-.03-.2-.04c-.16-.03-.32-.06-.49-.09-.01,0-.05,0-.06,0-.21-.03-.43-.06-.64-.09l-.18-.02-.19-.03c-.14-.02-.28-.04-.43-.05,0,0-.04,0-.05,0-.27-.03-.55-.05-.83-.07h-.14s-.17-.02-.17-.02c-.12-.01-.23-.02-.35-.03-.54-.03-1.06-.04-1.56-.04h0Z"/></g></svg>