<?xml version="1.0" encoding="utf-8"?>
<!-- Generator: Adobe Illustrator 25.3.0, SVG Export Plug-In . SVG Version: 6.00 Build 0)  -->
<svg version="1.1" id="Layer_1" xmlns="http://www.w3.org/2000/svg" xmlns:xlink="http://www.w3.org/1999/xlink" x="0px" y="0px"
	 viewBox="0 0 28 31" style="enable-background:new 0 0 28 31;" xml:space="preserve">
<style type="text/css">
	.st0{fill:#FFFFFF;}
</style>
<path class="st0" d="M4.9,21c1.3,0,2.5-0.6,3.4-1.5l9.8,5.4c0,0.2,0,0.4,0,0.7c0,3,2.2,5.5,4.9,5.5c2.7,0,4.9-2.4,4.9-5.5
	c0-3-2.2-5.5-4.9-5.5c-1.3,0-2.5,0.6-3.4,1.5l-9.8-5.4c0-0.2,0-0.4,0-0.7c0-0.2,0-0.5,0-0.7l9.8-5.4c0.9,0.9,2.1,1.5,3.4,1.5
	c2.7,0,4.9-2.4,4.9-5.5S25.8,0,23.1,0c-2.7,0-4.9,2.4-4.9,5.5c0,0.2,0,0.5,0,0.7l-9.8,5.4C7.5,10.6,6.3,10,4.9,10
	C2.2,10,0,12.5,0,15.5C0,18.5,2.2,21,4.9,21z"/>
</svg>
