<?xml version="1.0" encoding="UTF-8"?><svg id="Layer_2" xmlns="http://www.w3.org/2000/svg" viewBox="0 0 39.54 39.55"><defs><style>.cls-1{fill:#00f726;}.cls-2{fill:#00a185;}</style></defs><g id="Layer_1-2"><path class="cls-1" d="M38.91,23.8c-.54-1.36-1.58-2.43-2.93-3.01-1.59-.68-3.43-.57-4.92.3-.22.13-.42.26-.62.42.16-.93.19-1.86.1-2.79l-3.66,2.12c-2.14,1.25-4.89.51-6.13-1.63s-.52-4.89,1.63-6.13l8.37-4.86c2.14-1.25,4.89-.52,6.13,1.63,2.52,4.35,3.27,9.5,2.17,14.34-.04-.13-.08-.26-.14-.39Z"/><path class="cls-2" d="M35.59,21.71c2.28.98,3.33,3.62,2.35,5.9-.02.06-.05.12-.08.17-1.69,3.84-4.51,6.99-8.15,9.1-9.43,5.48-21.56,2.26-27.03-7.17S.41,8.16,9.84,2.68C13.65.47,17.97-.4,22.33.17c2.46.32,4.19,2.57,3.87,5.03-.19,1.44-1.04,2.62-2.2,3.3-.82.48-1.81.7-2.83.56-2.38-.31-4.74.16-6.82,1.37-5.15,2.99-6.91,9.62-3.92,14.77,2.99,5.15,9.62,6.91,14.77,3.91,2.02-1.17,3.57-2.93,4.49-5.06.4-.92,1.06-1.64,1.86-2.1,1.19-.69,2.67-.83,4.03-.25Z"/></g></svg>