<?xml version="1.0" encoding="UTF-8"?><svg id="Layer_2" xmlns="http://www.w3.org/2000/svg" viewBox="0 0 58.52 71.78"><defs><style>.cls-1{fill:#151c72;}.cls-2{fill:#fff;}.cls-3{fill:#f65800;}</style></defs><g id="Layer_1-2"><rect class="cls-3" x="7.24" y="11.26" width="49.31" height="32.6" rx="5.09" ry="5.09" transform="translate(-6.58 44.78) rotate(-64.94)"/><path class="cls-1" d="M44.45,67.03l-19.91,4.6c-1.55.36-3.18.08-4.53-.77L2.76,59.91c-1.87-1.19-2.93-3.32-2.74-5.53L3.22,16.81c.3-3.47,3.5-5.95,6.93-5.36l43.41,7.42c3.43.59,5.63,3.98,4.76,7.36l-9.45,36.5c-.56,2.15-2.26,3.81-4.42,4.31Z"/><rect class="cls-2" x="7.79" y="36.71" width="18.94" height="6.25" rx="3.13" ry="3.13" transform="translate(8.17 -2.62) rotate(11.35)"/><rect class="cls-2" x="7.79" y="36.71" width="18.94" height="6.25" rx="3.13" ry="3.13" transform="translate(59.71 30.75) rotate(101.35)"/><circle class="cls-2" cx="33.74" cy="47.92" r="4.38"/><circle class="cls-2" cx="43.03" cy="40.85" r="4.38"/></g></svg>