<svg xmlns="http://www.w3.org/2000/svg" width="114.015" height="114" viewBox="0 0 114.015 114"><g transform="translate(-4089.879 -2729)"><g transform="translate(4089.879 2729)"><g transform="translate(15.208 68.399)"><path d="M77.992,232.122h-7.6v-7.6a1.9,1.9,0,0,0-1.9-1.9h-7.6a1.9,1.9,0,0,0-1.9,1.9v7.6h-7.6a1.9,1.9,0,0,0-1.9,1.9v7.6a1.9,1.9,0,0,0,1.9,1.9h7.6v7.6a1.9,1.9,0,0,0,1.9,1.9h7.6a1.9,1.9,0,0,0,1.9-1.9v-7.6h7.6a1.9,1.9,0,0,0,1.9-1.9v-7.6A1.9,1.9,0,0,0,77.992,232.122Zm-1.9,7.6h-7.6a1.9,1.9,0,0,0-1.9,1.9v7.6h-3.8v-7.6a1.9,1.9,0,0,0-1.9-1.9h-7.6v-3.8h7.6a1.9,1.9,0,0,0,1.9-1.9v-7.6h3.8v7.6a1.9,1.9,0,0,0,1.9,1.9h7.6Z" transform="translate(-49.492 -222.622)" fill="#fff"/></g><g transform="translate(0 0)"><path d="M113.817,80.152C112.359,67.06,100.063,54.81,86.959,53.414a31.542,31.542,0,0,0-3.352-.19h-20.9v-7.6h-3.8v-3.8a7.6,7.6,0,0,0-7.6-7.6h-9.5a3.8,3.8,0,1,1,0-7.6h30.4a7.6,7.6,0,1,0,0-15.2h-9.5a3.8,3.8,0,0,1-3.8-3.8V.025h-3.8v7.6a7.6,7.6,0,0,0,7.6,7.6h9.5a3.8,3.8,0,1,1,0,7.6h-30.4a7.6,7.6,0,0,0,0,15.2h9.5a3.8,3.8,0,0,1,3.8,3.8v3.8h-3.8v7.6h-20.9a30.994,30.994,0,0,0-3.355.19C13.943,54.82,1.654,67.069.2,80.162a30.4,30.4,0,0,0,46.207,29.3,18.608,18.608,0,0,1,8.339-2.947,29.3,29.3,0,0,1,4.417-.015,18.749,18.749,0,0,1,8.47,2.979,30.4,30.4,0,0,0,46.183-29.328ZM55.107,49.424h3.8v3.8h-3.8Zm48.326,51.934a26.582,26.582,0,0,1-33.8,4.892,22.42,22.42,0,0,0-10.2-3.54q-1.2-.087-2.428-.087c-.864,0-1.71.036-2.561.1A22.35,22.35,0,0,0,44.4,106.233,26.6,26.6,0,0,1,3.977,80.584C5.227,69.332,16.2,58.4,27.461,57.193a27.331,27.331,0,0,1,2.947-.169h53.2a27.949,27.949,0,0,1,2.947.158c11.261,1.21,22.23,12.139,23.484,23.391A26.41,26.41,0,0,1,103.433,101.358Z" transform="translate(0 -0.025)" fill="#fff"/></g><g transform="translate(76.007 64.599)"><path d="M254.956,210.255a7.6,7.6,0,1,0,7.6,7.6A7.6,7.6,0,0,0,254.956,210.255Zm0,11.4a3.8,3.8,0,1,1,3.8-3.8A3.8,3.8,0,0,1,254.956,221.655Z" transform="translate(-247.356 -210.255)" fill="#fff"/></g><g transform="translate(76.007 87.399)"><path d="M254.956,284.454a7.6,7.6,0,1,0,7.6,7.6A7.6,7.6,0,0,0,254.956,284.454Zm0,11.4a3.8,3.8,0,1,1,3.8-3.8A3.8,3.8,0,0,1,254.956,295.854Z" transform="translate(-247.356 -284.454)" fill="#fff"/></g><g transform="translate(62.707 75.999)"><path d="M211.673,247.355a7.6,7.6,0,1,0,7.6,7.6A7.6,7.6,0,0,0,211.673,247.355Zm0,11.4a3.8,3.8,0,1,1,3.8-3.8A3.8,3.8,0,0,1,211.673,258.755Z" transform="translate(-204.074 -247.355)" fill="#fff"/></g><g transform="translate(89.307 75.999)"><path d="M298.239,247.355a7.6,7.6,0,1,0,7.6,7.6A7.6,7.6,0,0,0,298.239,247.355Zm0,11.4a3.8,3.8,0,1,1,3.8-3.8A3.8,3.8,0,0,1,298.239,258.755Z" transform="translate(-290.639 -247.355)" fill="#fff"/></g></g></g></svg>