<svg width="40" height="39" viewBox="0 0 40 39" fill="none" xmlns="http://www.w3.org/2000/svg">
<g filter="url(#filter0_d_3517_1805)">
<mask id="path-1-outside-1_3517_1805" maskUnits="userSpaceOnUse" x="1.60815" y="0" width="36" height="34" fill="black">
<rect fill="white" x="1.60815" width="36" height="34"/>
<path fill-rule="evenodd" clip-rule="evenodd" d="M23.7206 3.73994C21.7256 1.42002 18.1335 1.42002 16.1385 3.73994L13.4074 6.91594C12.9003 7.50556 12.2628 7.96878 11.5453 8.26879L7.6808 9.88485C4.85794 11.0653 3.74792 14.4816 5.33781 17.0958L7.51439 20.6748C7.91847 21.3392 8.162 22.0887 8.22563 22.8637L8.56838 27.0385C8.81874 30.088 11.7248 32.1994 14.7024 31.4951L18.7788 30.531C19.5355 30.3521 20.3236 30.3521 21.0804 30.531L25.1568 31.4951C28.1343 32.1994 31.0404 30.088 31.2908 27.0385L31.6335 22.8637C31.6972 22.0887 31.9407 21.3392 32.3448 20.6748L34.5214 17.0958C36.1112 14.4816 35.0012 11.0653 32.1784 9.88485L28.3138 8.26879C27.5964 7.96878 26.9588 7.50556 26.4518 6.91595L23.7206 3.73994ZM19.9294 27.6551C25.3442 27.6551 29.7338 23.2655 29.7338 17.8507C29.7338 12.4359 25.3442 8.04628 19.9294 8.04628C14.5146 8.04628 10.125 12.4359 10.125 17.8507C10.125 23.2655 14.5146 27.6551 19.9294 27.6551Z"/>
</mask>
<path fill-rule="evenodd" clip-rule="evenodd" d="M23.7206 3.73994C21.7256 1.42002 18.1335 1.42002 16.1385 3.73994L13.4074 6.91594C12.9003 7.50556 12.2628 7.96878 11.5453 8.26879L7.6808 9.88485C4.85794 11.0653 3.74792 14.4816 5.33781 17.0958L7.51439 20.6748C7.91847 21.3392 8.162 22.0887 8.22563 22.8637L8.56838 27.0385C8.81874 30.088 11.7248 32.1994 14.7024 31.4951L18.7788 30.531C19.5355 30.3521 20.3236 30.3521 21.0804 30.531L25.1568 31.4951C28.1343 32.1994 31.0404 30.088 31.2908 27.0385L31.6335 22.8637C31.6972 22.0887 31.9407 21.3392 32.3448 20.6748L34.5214 17.0958C36.1112 14.4816 35.0012 11.0653 32.1784 9.88485L28.3138 8.26879C27.5964 7.96878 26.9588 7.50556 26.4518 6.91595L23.7206 3.73994ZM19.9294 27.6551C25.3442 27.6551 29.7338 23.2655 29.7338 17.8507C29.7338 12.4359 25.3442 8.04628 19.9294 8.04628C14.5146 8.04628 10.125 12.4359 10.125 17.8507C10.125 23.2655 14.5146 27.6551 19.9294 27.6551Z" fill="white"/>
<path d="M16.1385 3.73994L17.655 5.04396L16.1385 3.73994ZM23.7206 3.73994L25.237 2.43591V2.43591L23.7206 3.73994ZM13.4074 6.91594L14.9238 8.21997V8.21997L13.4074 6.91594ZM11.5453 8.26879L10.7737 6.42363H10.7737L11.5453 8.26879ZM7.6808 9.88485L8.4524 11.73H8.4524L7.6808 9.88485ZM5.33781 17.0958L7.04661 16.0566L5.33781 17.0958ZM7.51439 20.6748L9.22319 19.6355L7.51439 20.6748ZM8.22563 22.8637L6.23233 23.0274L8.22563 22.8637ZM8.56838 27.0385L10.5617 26.8749L8.56838 27.0385ZM14.7024 31.4951L14.2421 29.5488L14.2421 29.5488L14.7024 31.4951ZM18.7788 30.531L19.2391 32.4774H19.2391L18.7788 30.531ZM21.0804 30.531L20.6201 32.4773L20.6201 32.4774L21.0804 30.531ZM25.1568 31.4951L25.6171 29.5488L25.1568 31.4951ZM31.2908 27.0385L33.2841 27.2022L31.2908 27.0385ZM31.6335 22.8637L29.6403 22.7001V22.7001L31.6335 22.8637ZM32.3448 20.6748L34.0536 21.714V21.714L32.3448 20.6748ZM34.5214 17.0958L36.2302 18.1351L34.5214 17.0958ZM32.1784 9.88485L32.95 8.03969L32.1784 9.88485ZM28.3138 8.26879L27.5422 10.114L28.3138 8.26879ZM26.4518 6.91595L27.9682 5.61192V5.61192L26.4518 6.91595ZM17.655 5.04396C18.852 3.65201 21.0072 3.65201 22.2042 5.04396L25.237 2.43591C22.4441 -0.811969 17.4151 -0.811973 14.6221 2.43591L17.655 5.04396ZM14.9238 8.21997L17.655 5.04396L14.6221 2.43591L11.891 5.61192L14.9238 8.21997ZM12.3169 10.114C13.3214 9.69394 14.214 9.04543 14.9238 8.21997L11.891 5.61192C11.5867 5.96569 11.2042 6.24362 10.7737 6.42363L12.3169 10.114ZM8.4524 11.73L12.3169 10.114L10.7737 6.42363L6.9092 8.03968L8.4524 11.73ZM7.04661 16.0566C6.09268 14.4881 6.75869 12.4383 8.4524 11.73L6.9092 8.03968C2.9572 9.69231 1.40316 14.4751 3.62901 18.1351L7.04661 16.0566ZM9.22319 19.6355L7.04661 16.0566L3.62901 18.1351L5.80559 21.714L9.22319 19.6355ZM10.2189 22.7001C10.1298 21.615 9.7889 20.5657 9.22319 19.6355L5.80559 21.714C6.04804 22.1127 6.19416 22.5624 6.23233 23.0274L10.2189 22.7001ZM10.5617 26.8749L10.2189 22.7001L6.23233 23.0274L6.57509 27.2022L10.5617 26.8749ZM14.2421 29.5488C12.4555 29.9714 10.7119 28.7045 10.5617 26.8749L6.57509 27.2022C6.9256 31.4714 10.9941 34.4274 15.1627 33.4415L14.2421 29.5488ZM18.3185 28.5847L14.2421 29.5488L15.1627 33.4415L19.2391 32.4774L18.3185 28.5847ZM21.5407 28.5847C20.4812 28.3342 19.3779 28.3342 18.3185 28.5847L19.2391 32.4774C19.6932 32.37 20.166 32.37 20.6201 32.4773L21.5407 28.5847ZM25.6171 29.5488L21.5407 28.5847L20.6201 32.4774L24.6964 33.4415L25.6171 29.5488ZM29.2975 26.8749C29.1473 28.7045 27.4036 29.9714 25.6171 29.5488L24.6964 33.4415C28.8651 34.4274 32.9336 31.4714 33.2841 27.2022L29.2975 26.8749ZM29.6403 22.7001L29.2975 26.8749L33.2841 27.2022L33.6268 23.0274L29.6403 22.7001ZM30.636 19.6355C30.0703 20.5657 29.7293 21.615 29.6403 22.7001L33.6268 23.0274C33.665 22.5624 33.8111 22.1127 34.0536 21.714L30.636 19.6355ZM32.8126 16.0566L30.636 19.6355L34.0536 21.714L36.2302 18.1351L32.8126 16.0566ZM31.4068 11.73C33.1005 12.4383 33.7665 14.4881 32.8126 16.0566L36.2302 18.1351C38.456 14.4751 36.902 9.69232 32.95 8.03969L31.4068 11.73ZM27.5422 10.114L31.4068 11.73L32.95 8.03969L29.0854 6.42363L27.5422 10.114ZM24.9354 8.21997C25.6452 9.04543 26.5378 9.69394 27.5422 10.114L29.0854 6.42363C28.655 6.24362 28.2724 5.96569 27.9682 5.61192L24.9354 8.21997ZM22.2042 5.04396L24.9354 8.21997L27.9682 5.61192L25.237 2.43591L22.2042 5.04396ZM27.7338 17.8507C27.7338 22.1609 24.2397 25.6551 19.9294 25.6551V29.6551C26.4488 29.6551 31.7338 24.3701 31.7338 17.8507H27.7338ZM19.9294 10.0463C24.2397 10.0463 27.7338 13.5404 27.7338 17.8507H31.7338C31.7338 11.3313 26.4488 6.04628 19.9294 6.04628V10.0463ZM12.125 17.8507C12.125 13.5404 15.6192 10.0463 19.9294 10.0463V6.04628C13.41 6.04628 8.12501 11.3313 8.12501 17.8507H12.125ZM19.9294 25.6551C15.6192 25.6551 12.125 22.1609 12.125 17.8507H8.12501C8.12501 24.3701 13.41 29.6551 19.9294 29.6551V25.6551Z" fill="black" mask="url(#path-1-outside-1_3517_1805)"/>
<mask id="path-3-outside-2_3517_1805" maskUnits="userSpaceOnUse" x="9.76172" y="7.68103" width="21" height="21" fill="black">
<rect fill="white" x="9.76172" y="7.68103" width="21" height="21"/>
<path fill-rule="evenodd" clip-rule="evenodd" d="M19.9321 26.0217C24.4444 26.0217 28.1024 22.3637 28.1024 17.8514C28.1024 13.339 24.4444 9.68103 19.9321 9.68103C15.4197 9.68103 11.7617 13.339 11.7617 17.8514C11.7617 22.3637 15.4197 26.0217 19.9321 26.0217ZM22.1114 19.4857C22.1114 20.689 21.136 21.6645 19.9327 21.6645C18.7294 21.6645 17.7539 20.689 17.7539 19.4857H22.1114ZM18.2974 16.7624C18.2974 17.6648 17.5658 18.3964 16.6634 18.3964C15.7609 18.3964 15.0293 17.6648 15.0293 16.7624C15.0293 15.8599 15.7609 15.1283 16.6634 15.1283C17.5658 15.1283 18.2974 15.8599 18.2974 16.7624ZM23.1995 18.3964C24.102 18.3964 24.8336 17.6648 24.8336 16.7624C24.8336 15.8599 24.102 15.1283 23.1995 15.1283C22.297 15.1283 21.5654 15.8599 21.5654 16.7624C21.5654 17.6648 22.297 18.3964 23.1995 18.3964Z"/>
</mask>
<path fill-rule="evenodd" clip-rule="evenodd" d="M19.9321 26.0217C24.4444 26.0217 28.1024 22.3637 28.1024 17.8514C28.1024 13.339 24.4444 9.68103 19.9321 9.68103C15.4197 9.68103 11.7617 13.339 11.7617 17.8514C11.7617 22.3637 15.4197 26.0217 19.9321 26.0217ZM22.1114 19.4857C22.1114 20.689 21.136 21.6645 19.9327 21.6645C18.7294 21.6645 17.7539 20.689 17.7539 19.4857H22.1114ZM18.2974 16.7624C18.2974 17.6648 17.5658 18.3964 16.6634 18.3964C15.7609 18.3964 15.0293 17.6648 15.0293 16.7624C15.0293 15.8599 15.7609 15.1283 16.6634 15.1283C17.5658 15.1283 18.2974 15.8599 18.2974 16.7624ZM23.1995 18.3964C24.102 18.3964 24.8336 17.6648 24.8336 16.7624C24.8336 15.8599 24.102 15.1283 23.1995 15.1283C22.297 15.1283 21.5654 15.8599 21.5654 16.7624C21.5654 17.6648 22.297 18.3964 23.1995 18.3964Z" fill="white"/>
<path d="M22.1114 19.4857H24.1114V17.4857H22.1114V19.4857ZM17.7539 19.4857V17.4857H15.7539V19.4857H17.7539ZM26.1024 17.8514C26.1024 21.2591 23.3398 24.0217 19.9321 24.0217V28.0217C25.549 28.0217 30.1024 23.4683 30.1024 17.8514H26.1024ZM19.9321 11.681C23.3398 11.681 26.1024 14.4436 26.1024 17.8514H30.1024C30.1024 12.2344 25.549 7.68103 19.9321 7.68103V11.681ZM13.7617 17.8514C13.7617 14.4436 16.5243 11.681 19.9321 11.681V7.68103C14.3151 7.68103 9.76172 12.2344 9.76172 17.8514H13.7617ZM19.9321 24.0217C16.5243 24.0217 13.7617 21.2591 13.7617 17.8514H9.76172C9.76172 23.4683 14.3151 28.0217 19.9321 28.0217V24.0217ZM19.9327 23.6645C22.2405 23.6645 24.1114 21.7936 24.1114 19.4857H20.1114C20.1114 19.5844 20.0314 19.6645 19.9327 19.6645V23.6645ZM15.7539 19.4857C15.7539 21.7936 17.6248 23.6645 19.9327 23.6645V19.6645C19.8339 19.6645 19.7539 19.5844 19.7539 19.4857H15.7539ZM22.1114 17.4857H17.7539V21.4857H22.1114V17.4857ZM16.6634 20.3964C18.6704 20.3964 20.2974 18.7694 20.2974 16.7624H16.2974C16.2974 16.5603 16.4613 16.3964 16.6634 16.3964V20.3964ZM13.0293 16.7624C13.0293 18.7694 14.6563 20.3964 16.6634 20.3964V16.3964C16.8655 16.3964 17.0293 16.5603 17.0293 16.7624H13.0293ZM16.6634 13.1283C14.6563 13.1283 13.0293 14.7553 13.0293 16.7624H17.0293C17.0293 16.9645 16.8655 17.1283 16.6634 17.1283V13.1283ZM20.2974 16.7624C20.2974 14.7553 18.6704 13.1283 16.6634 13.1283V17.1283C16.4613 17.1283 16.2974 16.9645 16.2974 16.7624H20.2974ZM22.8336 16.7624C22.8336 16.5603 22.9974 16.3964 23.1995 16.3964V20.3964C25.2065 20.3964 26.8336 18.7694 26.8336 16.7624H22.8336ZM23.1995 17.1283C22.9974 17.1283 22.8336 16.9645 22.8336 16.7624H26.8336C26.8336 14.7553 25.2065 13.1283 23.1995 13.1283V17.1283ZM23.5654 16.7624C23.5654 16.9645 23.4016 17.1283 23.1995 17.1283V13.1283C21.1925 13.1283 19.5654 14.7553 19.5654 16.7624H23.5654ZM23.1995 16.3964C23.4016 16.3964 23.5654 16.5603 23.5654 16.7624H19.5654C19.5654 18.7694 21.1925 20.3964 23.1995 20.3964V16.3964Z" fill="black" mask="url(#path-3-outside-2_3517_1805)"/>
<circle cx="30.2784" cy="4.23479" r="3.17876" fill="white" stroke="black" stroke-width="2"/>
<circle cx="9.58012" cy="4.23479" r="3.17876" fill="white" stroke="black" stroke-width="2"/>
<circle cx="4.67876" cy="23.8442" r="3.17876" fill="white" stroke="black" stroke-width="2"/>
<circle cx="34.9356" cy="23.8422" r="3.17876" fill="white" stroke="black" stroke-width="2"/>
</g>
<defs>
<filter id="filter0_d_3517_1805" x="0.5" y="0" width="38.6143" height="38.6318" filterUnits="userSpaceOnUse" color-interpolation-filters="sRGB">
<feFlood flood-opacity="0" result="BackgroundImageFix"/>
<feColorMatrix in="SourceAlpha" type="matrix" values="0 0 0 0 0 0 0 0 0 0 0 0 0 0 0 0 0 0 127 0" result="hardAlpha"/>
<feOffset dy="5"/>
<feComposite in2="hardAlpha" operator="out"/>
<feColorMatrix type="matrix" values="0 0 0 0 0 0 0 0 0 0 0 0 0 0 0 0 0 0 0.4 0"/>
<feBlend mode="normal" in2="BackgroundImageFix" result="effect1_dropShadow_3517_1805"/>
<feBlend mode="normal" in="SourceGraphic" in2="effect1_dropShadow_3517_1805" result="shape"/>
</filter>
</defs>
</svg>
