<?xml version="1.0" encoding="UTF-8"?><svg id="Layer_2" xmlns="http://www.w3.org/2000/svg" viewBox="0 0 67 60.03"><defs><style>.cls-1{fill:#e84242;}.cls-1,.cls-2,.cls-3,.cls-4,.cls-5,.cls-6,.cls-7,.cls-8,.cls-9,.cls-10,.cls-11,.cls-12,.cls-13,.cls-14,.cls-15{stroke-width:0px;}.cls-2{fill:#8e8e8e;}.cls-3{fill:#5b5b5b;}.cls-4{fill:#d8d8d8;}.cls-5{fill:#686868;}.cls-6{fill:#ffe529;}.cls-7{fill:#ff6464;}.cls-8{fill:#000;}.cls-16{opacity:.3;}.cls-9{fill:#fdfeff;}.cls-17{opacity:.5;}.cls-10{fill:#bcbcbc;}.cls-11{fill:#303030;}.cls-12{fill:#0086ea;}.cls-13{fill:#009eff;}.cls-14{fill:#491010;}.cls-15{fill:#fff;}</style></defs><g id="Layer_2-2"><path class="cls-3" d="M28.43,48.5c-.69-.52-1.58-.81-2.51-.81-.28,0-.55.03-.83.08l-6.74,1.26-2.04-5.43c-.36-.96-1.27-1.71-2.44-2l-6.61-1.67,1.54-5.53c.27-.98-.06-2-.89-2.74l-4.71-4.16,4.7-4.16c.83-.74,1.17-1.76.89-2.74l-1.54-5.53,6.61-1.67c1.17-.29,2.08-1.04,2.44-2l2.04-5.42,6.74,1.27c.27.05.55.08.82.08h0c.93,0,1.82-.29,2.51-.81l5.07-3.86,5.07,3.86c.69.52,1.58.81,2.51.81.28,0,.55-.03.83-.08l6.74-1.26,2.04,5.43c.36.96,1.27,1.71,2.44,2l6.61,1.67-1.54,5.53c-.27.97.06,2,.89,2.73l4.71,4.16-4.7,4.16c-.83.74-1.17,1.76-.89,2.74l1.54,5.53-6.61,1.67c-1.17.29-2.08,1.04-2.44,2l-2.04,5.42-6.74-1.27c-.27-.05-.55-.08-.82-.08-.93,0-1.82.29-2.51.81l-5.07,3.86-5.07-3.86Z"/><path class="cls-10" d="M33.5,5.66l3.23,2.46c1.19.9,2.73,1.4,4.35,1.4.48,0,.96-.04,1.42-.13l4.3-.81,1.3,3.46c.62,1.66,2.2,2.95,4.22,3.47l4.22,1.07-.98,3.53c-.47,1.69.11,3.46,1.55,4.74l3,2.65-3,2.65c-1.44,1.27-2.02,3.04-1.55,4.74l.98,3.53-4.22,1.07c-2.02.51-3.6,1.81-4.22,3.47l-1.3,3.46-4.3-.81c-.47-.09-.94-.13-1.42-.13-1.62,0-3.16.5-4.35,1.4l-3.23,2.46-3.23-2.46c-1.19-.9-2.73-1.4-4.35-1.4-.48,0-.96.04-1.42.13l-4.3.81-1.3-3.46c-.62-1.66-2.2-2.95-4.22-3.47l-4.22-1.07.98-3.53c.47-1.69-.11-3.46-1.55-4.74l-3-2.65,3-2.65c1.44-1.27,2.02-3.04,1.55-4.74l-.98-3.53,4.22-1.07c2.02-.51,3.6-1.81,4.22-3.47l1.3-3.46,4.3.81c.47.09.94.13,1.42.13,1.62,0,3.16-.5,4.35-1.4l3.23-2.46M33.5,0c-.31,0-.62.09-.86.28l-6.04,4.6c-.19.14-.43.22-.68.22-.07,0-.15,0-.22-.02l-8.03-1.51c-.09-.02-.19-.03-.28-.03-.54,0-1.04.29-1.21.73l-2.43,6.47c-.1.26-.34.46-.66.54l-7.88,1.99c-.63.16-1.01.69-.86,1.22l1.84,6.6c.07.26-.02.54-.24.74L.34,26.79c-.45.4-.45,1.02,0,1.41l5.61,4.96c.22.2.31.47.24.74l-1.84,6.6c-.15.53.23,1.06.86,1.22l7.88,1.99c.32.08.56.28.66.54l2.43,6.47c.17.44.66.73,1.21.73.09,0,.19,0,.28-.03l8.03-1.51c.07-.01.15-.02.22-.02.25,0,.49.08.68.22l6.04,4.6c.24.19.55.28.86.28s.62-.09.86-.28l6.04-4.6c.19-.14.43-.22.68-.22.07,0,.15,0,.22.02l8.03,1.51c.09.02.19.03.28.03.54,0,1.04-.29,1.21-.73l2.43-6.47c.1-.26.34-.46.66-.54l7.88-1.99c.63-.16,1.01-.69.86-1.22l-1.84-6.6c-.07-.26.02-.54.24-.74l5.61-4.96c.45-.4.45-1.02,0-1.41l-5.61-4.96c-.22-.2-.31-.47-.24-.74l1.84-6.6c.15-.53-.23-1.06-.86-1.22l-7.88-1.99c-.32-.08-.56-.28-.66-.54l-2.43-6.47c-.17-.44-.66-.73-1.21-.73-.09,0-.19,0-.28.03l-8.03,1.51c-.07.01-.15.02-.22.02-.25,0-.49-.08-.68-.22L34.36.28c-.24-.19-.55-.28-.86-.28h0Z"/><circle class="cls-13" cx="21.73" cy="23.95" r="14.12"/><path class="cls-12" d="M8.55,26.77c0-7.8,6.32-14.12,14.12-14.12,5.72,0,10.64,3.41,12.86,8.3-1.38-6.36-7.03-11.12-13.8-11.12-7.8,0-14.12,6.32-14.12,14.12,0,2.08.46,4.05,1.27,5.83-.21-.97-.33-1.97-.33-3Z"/><path class="cls-8" d="M22.13,23.45c.53.14,1.01-.09,1.21-.25.16-.12.18-.35.06-.51-.12-.16-.35-.18-.51-.06-.02.01-.28.2-.6.12-.71-.21-.96-.96-.96-.97-.06-.19-.26-.29-.46-.23-.19.06-.3.26-.24.45.01.05.36,1.12,1.45,1.44.01,0,.03,0,.04.01Z"/><path class="cls-8" d="M27.42,24.84c.09.02.19.04.29.05.79.05,1.84-.22,1.88-.23.19-.05.31-.25.26-.44-.05-.19-.25-.31-.44-.26,0,0-.98.25-1.66.21-.49-.03-.66-.48-.67-.5-.07-.19-.28-.28-.46-.21-.19.07-.28.27-.22.46.01.03.27.74,1.01.93Z"/><g class="cls-16"><path class="cls-8" d="M23.52,24.15s.02,0,.03,0c.44.03.67-.33.74-.53.03-.1-.02-.2-.12-.23-.1-.03-.2.02-.23.11,0,.01-.11.3-.37.28-.1,0-.19.07-.19.17,0,.09.05.17.13.19Z"/></g><g class="cls-16"><path class="cls-8" d="M25.89,24.77c.07.02.16-.01.2-.08.05-.08.03-.2-.06-.25-.36-.23-.35-.44-.35-.45,0-.1-.06-.19-.16-.2-.1-.01-.19.05-.2.15,0,.05-.06.46.51.81.02,0,.03.02.05.02Z"/></g><circle class="cls-8" cx="28.44" cy="25.53" r="1.11"/><circle class="cls-8" cx="21.23" cy="23.64" r="1.11"/><path class="cls-15" d="M23.55,26.98l-4.66-2.07c-.43-.19-.91.14-.9.61.02.77.36,1.85,1.81,2.61,1.53.79,2.9.45,3.78.01.49-.24.47-.94-.02-1.16Z"/><path class="cls-8" d="M19.7,28.3c-1.53-.79-1.88-1.94-1.91-2.77,0-.29.13-.56.37-.72.24-.16.54-.19.8-.07l4.66,2.07c.3.13.49.42.5.74,0,.33-.17.62-.46.76-.73.36-1.8.67-3.02.35-.3-.08-.62-.2-.94-.36ZM18.37,25.13c-.13.09-.2.23-.2.39.02.72.34,1.73,1.7,2.44,1.46.76,2.77.42,3.61.01.16-.08.25-.23.25-.41,0-.18-.1-.33-.27-.4h0s-4.66-2.07-4.66-2.07c-.02-.01-.05-.02-.07-.03-.12-.03-.25-.01-.36.06ZM23.54,26.98h0s0,0,0,0Z"/><path class="cls-15" d="M20.84,26.97s-1.02-.4-1.94-.92"/><path class="cls-4" d="M20.79,27.15c.09.02.19-.02.23-.12.04-.1,0-.21-.11-.25-.01,0-1.02-.4-1.92-.91-.09-.05-.21-.02-.26.07-.05.09-.02.21.07.26.92.52,1.92.92,1.96.94,0,0,.01,0,.02,0Z"/><rect class="cls-7" x="33.03" y="9.82" width="23.54" height="27.31" rx="3.82" ry="3.82" transform="translate(-5.36 17.01) rotate(-20.31)"/><path class="cls-1" d="M31.67,15.32l14.91-5.52c1.98-.73,4.18.28,4.91,2.26l6.82,18.44c.25.67.28,1.36.16,2.02.94-1.02,1.3-2.51.78-3.9l-6.82-18.44c-.73-1.98-2.93-2.99-4.91-2.26l-14.91,5.52c-1.31.48-2.18,1.61-2.42,2.89.4-.43.89-.79,1.48-1.01Z"/><path class="cls-15" d="M42.2,27.23c-.91.3-.8,1.5-.03,1.75.87.29,2.14.08,2.99-.36.96-.49,1.36-.95,1.48-1.7.07-.46-.17-1.16-.91-1.15-.59,0-1.02.58-1.76.96-.44.23-1.77.49-1.77.49Z"/><path class="cls-8" d="M43.08,29.29c-.34,0-.67-.04-.97-.14-.44-.15-.74-.57-.74-1.06,0-.49.3-.88.77-1.04,0,0,.01,0,.02,0,.36-.07,1.38-.3,1.72-.48.27-.14.49-.3.71-.46.36-.26.71-.51,1.13-.52.33,0,.61.12.82.35.22.26.33.66.28,1.01-.13.8-.57,1.32-1.58,1.84-.57.29-1.39.51-2.16.51ZM42.25,27.4c-.32.11-.51.36-.51.69,0,.27.15.6.49.71.87.29,2.09.04,2.84-.35.91-.47,1.27-.88,1.38-1.57.03-.21-.01-.5-.19-.71-.13-.15-.33-.22-.53-.22-.31,0-.58.2-.92.45-.22.16-.46.34-.76.49-.44.23-1.67.48-1.81.51Z"/><path class="cls-15" d="M43.49,28.12s1.3-.18,2.29-1.27"/><path class="cls-4" d="M43.49,28.3c-.09,0-.17-.07-.18-.16-.01-.1.06-.19.16-.21.01,0,1.25-.19,2.17-1.21.07-.08.19-.08.26-.01.08.07.08.18.01.26-1.02,1.13-2.34,1.32-2.4,1.33,0,0-.02,0-.03,0Z"/><path class="cls-8" d="M44.62,24.01c-.15,0-.29-.1-.34-.24-.05-.15,0-.31.11-.41l2.01-1.65c.15-.13.39-.11.52.05.13.16.11.39-.05.52l-1.19.98,1.46-.02c.21,0,.37.16.37.36,0,.2-.16.37-.36.37l-2.51.04h0Z"/><path class="cls-8" d="M38.94,26.73c-.1,0-.21-.05-.27-.14-.11-.15-.08-.37.07-.48l1.09-.82-1.44-.04c-.19,0-.34-.16-.33-.35s.17-.33.35-.33l2.43.06c.15,0,.27.1.32.24.04.14,0,.29-.12.38l-1.88,1.41c-.06.05-.13.07-.21.07Z"/><g class="cls-17"><path class="cls-8" d="M59.19,31.41c-.63-.25-1.32-.39-2.03-.39H10.79c-.41,0-.81.05-1.2.14,2.46,4.14,6.97,6.93,12.14,6.93,3,0,5.77-.94,8.06-2.53l7.51,1.5c.83,1.8,2.9,2.7,4.78,2l14.91-5.52c1.04-.38,1.8-1.17,2.19-2.12Z"/></g><rect class="cls-5" x="3.5" y="33.5" width="61" height="26" rx="5.88" ry="5.88"/><path class="cls-11" d="M58.62,60.03H9.38c-3.53,0-6.41-2.88-6.41-6.41v-14.24c0-3.53,2.88-6.41,6.41-6.41h49.24c3.53,0,6.41,2.88,6.41,6.41v14.24c0,3.53-2.88,6.41-6.41,6.41ZM9.38,34.03c-2.95,0-5.36,2.4-5.36,5.36v14.24c0,2.95,2.4,5.36,5.36,5.36h49.24c2.95,0,5.36-2.4,5.36-5.36v-14.24c0-2.95-2.4-5.36-5.36-5.36H9.38Z"/><path class="cls-8" d="M57.59,42.76c-.41-.67-1.06-1.22-1.96-1.62-.56-.25-1.1-.38-1.62-.38-.55,0-1.06.14-1.51.4-.27.15-.51.34-.73.57-.11-.1-.23-.19-.35-.27-.56-.39-1.25-.59-2.07-.59s-1.47.2-2.02.6c-.09.07-.18.14-.27.21-.46-.47-.97-.69-1.31-.79-.29-.08-.59-.12-.9-.12-.58,0-1.17.14-1.74.39-.39.15-.71.33-1,.54-.06-.05-.12-.11-.18-.16-.58-.43-1.34-.63-2.34-.63-.69,0-1.28.1-1.78.3-.5-.19-1.07-.29-1.69-.29-.85,0-1.68.2-2.46.58-.55.27-1.04.65-1.51,1.08-.02-.04-.04-.09-.07-.13-.27-.41-.62-.75-1.06-1.02-.32-.19-.67-.33-1.04-.43-.29-.08-.56-.12-.81-.15-.25-.03-.47-.04-.63-.04-.59,0-1.15.11-1.66.32-.03.01-.07.03-.1.04-.47-.18-1.02-.27-1.7-.27s-1.19.09-1.65.27v-.79c0-.4-.04-.8-.11-1.18-.15-.76-.57-1.4-1.22-1.86-.58-.41-1.32-.6-2.32-.6s-1.76.21-2.34.65c-.65.49-1.06,1.2-1.16,1.99-.04.33-.06.67-.06,1.02v.53c-.79.02-1.56.22-2.29.59-.71.36-1.36.85-1.91,1.45-.56.6-1,1.29-1.32,2.05-.33.79-.5,1.62-.5,2.47s.17,1.71.5,2.51c.32.77.76,1.47,1.31,2.07.56.61,1.21,1.1,1.93,1.46.78.38,1.6.58,2.46.58.62,0,1.19-.09,1.72-.27.48.2,1.04.29,1.7.29.99,0,1.75-.21,2.34-.63.1-.08.19-.16.28-.25.1.1.21.2.33.28.58.42,1.34.62,2.32.62s1.72-.19,2.32-.59c.66-.45,1.1-1.12,1.25-1.9.07-.38.11-.77.11-1.15v-2.21c.12,0,.25.01.4.01.28,0,.56-.04.82-.11.07.62.22,1.22.46,1.8.32.76.75,1.45,1.3,2.05.56.62,1.22,1.12,1.94,1.48.78.38,1.6.58,2.46.58.65,0,1.24-.1,1.74-.29.49.19,1.05.29,1.71.29,1,0,1.74-.19,2.32-.6.66-.46,1.08-1.11,1.23-1.89.04-.24.05-.48.07-.72l.34.84c.06.14.15.32.25.53.24.51.6.95,1.09,1.31.56.42,1.27.63,2.09.63.77,0,1.38-.14,1.89-.42.21-.12.41-.26.58-.43.13.12.28.23.43.33.53.35,1.2.52,1.98.52s1.5-.21,2.06-.62c.47-.35.83-.78,1.08-1.3.11-.23.19-.42.27-.61l2.4-5.83c.67-1.45.25-2.54-.06-3.06Z"/><path class="cls-9" d="M20.96,38.97c-.22-.16-.62-.24-1.17-.24s-.93.08-1.14.25c-.22.16-.34.37-.37.63-.03.25-.05.51-.05.78v3.14c-.11-.08-.21-.18-.33-.25-.42-.25-.93-.37-1.51-.37-.53,0-1.05.13-1.55.38-.5.25-.95.6-1.35,1.03-.4.43-.72.92-.95,1.46-.23.55-.35,1.11-.35,1.69s.12,1.19.35,1.74c.23.56.54,1.05.94,1.48.39.43.84.77,1.34,1.02.5.25,1.03.37,1.57.37.61,0,1.12-.13,1.55-.39.14-.08.25-.19.38-.29.09.2.22.38.4.48.24.14.61.22,1.09.22.54,0,.93-.08,1.15-.25.22-.16.36-.37.41-.63.05-.25.07-.51.07-.78v-10.09c0-.28-.02-.54-.07-.79-.05-.25-.19-.45-.41-.61ZM17.94,48.15c-.12.2-.28.36-.47.48-.19.12-.41.18-.64.18s-.45-.06-.65-.18c-.21-.12-.37-.28-.49-.48-.12-.2-.18-.42-.18-.65,0-.24.06-.46.17-.66s.27-.36.47-.47c.2-.12.42-.17.66-.17.25,0,.48.06.67.18.19.12.35.28.46.47.12.19.17.41.17.65s-.06.45-.18.65Z"/><path class="cls-9" d="M30.01,43.15c-.16-.1-.34-.17-.53-.22s-.36-.08-.53-.1c-.16-.02-.3-.03-.41-.03-.33,0-.62.05-.88.16s-.48.24-.67.38c-.11.09-.22.21-.34.32,0-.03,0-.05-.02-.08-.05-.18-.19-.34-.41-.48s-.6-.22-1.14-.22-.93.08-1.16.24c-.23.16-.37.36-.42.61s-.07.51-.07.79v5.92c0,.27.02.53.06.79.04.26.18.47.41.64.23.16.62.25,1.16.25s.95-.08,1.18-.24c.23-.16.37-.36.42-.62.05-.25.07-.51.07-.78v-3.54c0-.13.03-.26.09-.37s.15-.21.26-.3.25-.15.4-.19c.15-.04.32-.06.5-.06.14,0,.24.02.3.05s.1.06.14.09c.04.03.11.06.21.09.1.03.26.04.49.04.42,0,.77-.21,1.03-.64.26-.42.39-.94.39-1.54,0-.23-.05-.42-.16-.58-.1-.16-.24-.28-.4-.38Z"/><path class="cls-9" d="M40.75,43.14c-.22-.16-.61-.25-1.15-.25s-.95.08-1.21.25c-.2.13-.29.31-.33.52-.05-.05-.12-.11-.19-.18-.18-.15-.41-.28-.69-.4-.29-.12-.63-.18-1.04-.18-.55,0-1.07.12-1.56.37-.5.25-.94.59-1.34,1.02s-.71.92-.95,1.46c-.23.54-.35,1.11-.35,1.71s.12,1.18.35,1.74c.23.55.54,1.04.94,1.48.39.44.84.78,1.35,1.03.5.25,1.03.37,1.57.37.42,0,.78-.06,1.07-.17.29-.11.53-.24.7-.38.06-.05.11-.09.15-.13.05.15.14.29.32.41.26.18.66.27,1.21.27s.95-.08,1.17-.24c.22-.16.36-.36.41-.62.05-.25.07-.51.07-.78v-5.91c0-.27-.03-.53-.07-.78-.05-.25-.19-.46-.41-.63ZM37.66,48.14c-.12.2-.27.36-.46.48s-.4.18-.63.18c-.24,0-.47-.06-.67-.18-.21-.12-.37-.28-.5-.47-.13-.19-.19-.41-.19-.64,0-.24.06-.46.18-.66s.28-.36.48-.48.42-.18.66-.18.46.06.65.18c.2.12.35.28.46.47.12.19.17.41.17.65s-.06.45-.17.65Z"/><path class="cls-9" d="M55.88,43.79c-.19-.32-.54-.6-1.05-.83-.54-.24-.98-.27-1.32-.07-.33.19-.6.56-.81,1.09l-.87,2.42-.84-2.33c-.04-.12-.11-.28-.22-.46-.11-.19-.27-.36-.49-.51-.22-.15-.53-.23-.93-.23-.36,0-.65.08-.86.23-.21.15-.37.32-.46.5-.1.18-.17.33-.22.46l-.85,2.34-.98-2.71c-.16-.48-.41-.78-.77-.88s-.81-.03-1.37.21c-.35.13-.61.29-.77.45-.16.17-.25.37-.25.61,0,.24.04.52.14.86l2.42,5.94c.06.13.14.3.24.51.1.21.25.39.46.54.21.16.51.24.9.24.41,0,.71-.05.91-.16.19-.11.33-.26.42-.45.08-.19.18-.42.27-.67l.84-2.24.84,2.24c.07.19.16.39.26.59.1.2.26.37.46.5.21.13.5.2.89.2s.67-.08.87-.23c.21-.15.36-.33.46-.54.1-.21.17-.38.24-.53l2.43-5.91c.22-.47.23-.87.04-1.19Z"/><path class="cls-6" d="M33.66,8.23l1.13,5.16,4.45-2.85c.15-.09.32.08.23.23l-2.85,4.45,5.16,1.13c.17.04.17.28,0,.32l-5.16,1.13,2.85,4.45c.09.15-.08.32-.23.23l-4.45-2.85-1.13,5.16c-.04.17-.28.17-.32,0l-1.13-5.16-4.45,2.85c-.15.09-.32-.08-.23-.23l2.85-4.45-5.16-1.13c-.17-.04-.17-.28,0-.32l5.16-1.13-2.85-4.45c-.09-.15.08-.32.23-.23l4.45,2.85,1.13-5.16c.04-.17.28-.17.32,0Z"/><path class="cls-14" d="M33.5,25.4c-.31,0-.58-.21-.65-.52l-.98-4.46-3.84,2.46c-.26.17-.61.13-.83-.09s-.26-.56-.09-.83l2.46-3.84-4.46-.98c-.31-.07-.52-.33-.52-.65s.21-.58.52-.65l4.46-.98-2.46-3.84c-.17-.26-.13-.6.09-.83.22-.22.56-.26.83-.09l3.84,2.46.98-4.46c.07-.31.33-.52.65-.52s.58.21.65.52h0s.98,4.46.98,4.46l3.84-2.46c.26-.17.61-.13.83.09.22.22.26.56.09.83l-2.46,3.84,4.46.98c.31.07.52.33.52.65s-.21.58-.52.65l-4.46.98,2.46,3.84c.17.26.13.6-.09.83-.22.22-.56.26-.83.09l-3.84-2.46-.98,4.46c-.07.31-.33.52-.65.52ZM32.55,18.8l.95,4.36.95-4.36,3.76,2.41-2.41-3.76,4.36-.95-4.36-.95,2.41-3.76-3.76,2.41-.95-4.36-.95,4.36-3.76-2.41,2.41,3.76-4.36.95,4.36.95-2.41,3.76,3.76-2.41Z"/><path class="cls-9" d="M35.56,28.24l.64,2.55,2.55.64c.06.02.06.11,0,.12l-2.55.64-.64,2.55c-.02.06-.11.06-.12,0l-.64-2.55-2.55-.64c-.06-.02-.06-.11,0-.12l2.55-.64.64-2.55c.02-.06.11-.06.12,0Z"/><path class="cls-9" d="M33.53,27.1l.28,1.09,1.09.28s.03.05,0,.05l-1.09.28-.28,1.09s-.05.03-.05,0l-.28-1.09-1.09-.28s-.03-.05,0-.05l1.09-.28.28-1.09s.05-.03.05,0Z"/><path class="cls-9" d="M35.53,23.1l.28,1.09,1.09.28s.03.05,0,.05l-1.09.28-.28,1.09s-.05.03-.05,0l-.28-1.09-1.09-.28s-.03-.05,0-.05l1.09-.28.28-1.09s.05-.03.05,0Z"/><path class="cls-2" d="M58.18,58.42c-.54,0-.99-.43-1-.98-.01-.55.43-1.01.98-1.02,2.79-.06,3.31-3.56,3.32-3.59.08-.55.58-.93,1.13-.85.55.08.93.58.85,1.13-.25,1.81-1.67,5.24-5.26,5.32h-.02Z"/><path class="cls-2" d="M52.45,58.42H16.07c-.55,0-1-.45-1-1s.45-1,1-1h36.38c.55,0,1,.45,1,1s-.45,1-1,1Z"/></g></svg>