<svg id="b9a2b3c9-81f3-4224-94a5-451e84b5fab1" data-name="Layer 1" xmlns="http://www.w3.org/2000/svg" viewBox="0 0 256 256"><title>friends_list_circle</title><g id="7f2d87b9-5c0c-430b-a699-fb3e5772c638" data-name="Group 1067"><g id="4f59c9be-17f2-401a-b08c-2af55221af6f" data-name="Group 1063"><circle id="ea5cffda-8be7-4f47-9b9e-7601cffba0fe" data-name="Ellipse 40" cx="128" cy="128" r="112" style="fill:#f9b700"/></g></g><g id="e052d33a-db7d-4c76-93f1-ac693ec1def4" data-name="friend"><g id="656ae9ba-a2e0-48af-8490-f0dcc4296513" data-name="Group 1190"><g id="20505ed3-99ab-47e9-8ef8-3ac93b9e62ff" data-name="Group 1189"><path id="61684b5d-f599-4738-91a1-81870432bf95" data-name="Path 897" d="M77.61491,94.37758A39.37173,39.37173,0,1,0,114.596,136.00286q.06845-1.15913.06853-2.32074A38.28161,38.28161,0,0,0,77.61491,94.37758Z" style="fill:#fff"/></g></g><g id="78a813b6-e79c-4bce-bdf8-99dd4f6040f3" data-name="Group 1192"><g id="2f688198-e0fb-4369-8d0b-c1614bc897b9" data-name="Group 1191"><path id="8ce2dae4-3b55-4011-81dd-85bc88946246" data-name="Path 898" d="M161.92854,100h-.25384a30.75506,30.75506,0,0,0-22.56429,10.19945,35.09341,35.09341,0,0,0,.38828,47.33117,30.7627,30.7627,0,0,0,22.47474,9.82615h.25384a30.755,30.755,0,0,0,22.56429-10.19945,34.51147,34.51147,0,0,0,8.96009-23.744A32.85322,32.85322,0,0,0,161.92854,100Z" style="fill:#fff"/></g></g><path d="M211.90891,202.17425a55.67119,55.67119,0,0,0-48.44953-28.37375h-3.07622a55.43879,55.43879,0,0,0-37.29589,14.38077,71.57329,71.57329,0,0,1,27.64379,49.50863A111.88448,111.88448,0,0,0,211.90891,202.17425Z" style="fill:#fff"/><path d="M79.46656,185.27675H75.73344a59.46731,59.46731,0,0,0-35.80676,11.91853A111.80175,111.80175,0,0,0,128,240q5.54385,0,10.95285-.534A59.72272,59.72272,0,0,0,79.46656,185.27675Z" style="fill:#fff"/></g></svg>