<svg width="126" height="126" fill="none" xmlns="http://www.w3.org/2000/svg"><g clip-path="url(#a)"><path d="m75.59 12.602-12.603-2.1V2.1L75.59 4.2v8.402Z" fill="#009EFF"/><path d="M62.987 25.205c-1.15 0-2.1-.95-2.1-2.1V2.1c0-1.15.95-2.1 2.1-2.1 1.15 0 2.1.95 2.1 2.1v21.005c0 1.15-.95 2.1-2.1 2.1Z" fill="#000"/><path d="M86.092 123.9H39.908V35.707l23.08-16.803 23.104 16.803V123.9Z" fill="#57D0FF"/><path d="M62.987 58.812c5.8 0 10.503-4.702 10.503-10.502 0-5.8-4.702-10.502-10.502-10.502-5.8 0-10.503 4.702-10.503 10.502 0 5.8 4.702 10.502 10.502 10.502Z" fill="#fff"/><path d="M119.699 35.707H86.092V123.9H119.7V35.707Z" fill="#3BF"/><path d="M65.088 50.385h-2.1c-1.15 0-2.1-.95-2.1-2.1v-4.201c0-1.15.95-2.1 2.1-2.1 1.15 0 2.1.95 2.1 2.1v2.1c1.15 0 2.1.95 2.1 2.1 0 1.15-.95 2.101-2.1 2.101ZM74.54 67.188H51.485a3.176 3.176 0 0 0-3.175 3.176v2.05a3.176 3.176 0 0 0 3.175 3.176H74.54a3.176 3.176 0 0 0 3.175-3.176v-2.05a3.176 3.176 0 0 0-3.175-3.176Z" fill="#3688EA"/><path d="M62.987 86.092c6.952 0 12.603 5.651 12.603 12.603V123.9H50.385V98.694c0-6.95 5.651-12.602 12.602-12.602Z" fill="#000"/><path d="M75.59 98.695V123.9H62.987V86.092c6.952 0 12.603 5.651 12.603 12.603Z" fill="#000"/><path d="M39.908 35.707H6.3V123.9h33.607V35.707Z" fill="#3BF"/><path d="M26.205 46.21h-6.201a3.2 3.2 0 0 0-3.2 3.2v10.402a3.2 3.2 0 0 0 3.2 3.2h6.201a3.2 3.2 0 0 0 3.2-3.2V49.41a3.2 3.2 0 0 0-3.2-3.2Z" fill="#D2FCFF"/><path d="M31.506 65.088H14.703c-1.15 0-2.1-.95-2.1-2.1 0-1.15.95-2.101 2.1-2.101h16.803c1.15 0 2.1.95 2.1 2.1 0 1.15-.95 2.1-2.1 2.1Z" fill="#1659A8" stroke="#104E91" stroke-width=".22" stroke-linecap="round" stroke-linejoin="round"/><path d="M26.205 71.39h-6.201a3.2 3.2 0 0 0-3.2 3.2v10.402a3.2 3.2 0 0 0 3.2 3.2h6.201a3.2 3.2 0 0 0 3.2-3.2V74.59a3.2 3.2 0 0 0-3.2-3.2Z" fill="#D2FCFF"/><path d="M31.506 90.293H14.703c-1.15 0-2.1-.95-2.1-2.1 0-1.15.95-2.101 2.1-2.101h16.803c1.15 0 2.1.95 2.1 2.1 0 1.15-.95 2.1-2.1 2.1Z" fill="#1659A8" stroke="#104E91" stroke-width=".22" stroke-linecap="round" stroke-linejoin="round"/><path d="M26.205 96.594h-6.201a3.2 3.2 0 0 0-3.2 3.2v10.403a3.2 3.2 0 0 0 3.2 3.201h6.201a3.2 3.2 0 0 0 3.2-3.201V99.795a3.2 3.2 0 0 0-3.2-3.2Z" fill="#D2FCFF"/><path d="M31.506 115.498H14.703c-1.15 0-2.1-.95-2.1-2.1 0-1.151.95-2.101 2.1-2.101h16.803c1.15 0 2.1.95 2.1 2.101 0 1.15-.95 2.1-2.1 2.1Z" fill="#1659A8" stroke="#104E91" stroke-width=".22" stroke-linecap="round" stroke-linejoin="round"/><path d="M105.996 46.21h-6.201a3.2 3.2 0 0 0-3.2 3.2v10.402a3.2 3.2 0 0 0 3.2 3.2h6.201a3.2 3.2 0 0 0 3.201-3.2V49.41a3.2 3.2 0 0 0-3.201-3.2Z" fill="#D2FCFF"/><path d="M111.297 65.088H94.494c-1.15 0-2.1-.95-2.1-2.1 0-1.15.95-2.101 2.1-2.101h16.803c1.15 0 2.101.95 2.101 2.1 0 1.15-.951 2.1-2.101 2.1Z" fill="#1659A8" stroke="#104E91" stroke-width=".22" stroke-linecap="round" stroke-linejoin="round"/><path d="M105.996 71.39h-6.201a3.2 3.2 0 0 0-3.2 3.2v10.402a3.2 3.2 0 0 0 3.2 3.2h6.201a3.2 3.2 0 0 0 3.201-3.2V74.59a3.2 3.2 0 0 0-3.201-3.2Z" fill="#D2FCFF"/><path d="M111.297 90.293H94.494c-1.15 0-2.1-.95-2.1-2.1 0-1.15.95-2.101 2.1-2.101h16.803c1.15 0 2.101.95 2.101 2.1 0 1.15-.951 2.1-2.101 2.1Z" fill="#1659A8" stroke="#104E91" stroke-width=".22" stroke-linecap="round" stroke-linejoin="round"/><path d="M105.996 96.594h-6.201a3.2 3.2 0 0 0-3.2 3.2v10.403a3.2 3.2 0 0 0 3.2 3.201h6.201a3.2 3.2 0 0 0 3.201-3.201V99.795a3.2 3.2 0 0 0-3.201-3.2Z" fill="#D2FCFF"/><path d="M111.297 115.498H94.494c-1.15 0-2.1-.95-2.1-2.1 0-1.151.95-2.101 2.1-2.101h16.803c1.15 0 2.101.95 2.101 2.101 0 1.15-.951 2.1-2.101 2.1Z" fill="#1659A8" stroke="#104E91" stroke-width=".22" stroke-linecap="round" stroke-linejoin="round"/><path d="M123.9 126H2.1c-1.15 0-2.1-.95-2.1-2.101 0-1.15.95-2.1 2.1-2.1h121.8c1.15 0 2.1.95 2.1 2.1 0 1.151-.95 2.101-2.1 2.101ZM2.1 35.707c-1.15 0-2.1.95-2.1 2.1 0 1.15.95 2.1 2.1 2.1h37.808v-4.2H2.1ZM123.9 35.707H86.092v4.2H123.9c1.15 0 2.1-.95 2.1-2.1 0-1.15-.95-2.1-2.1-2.1Z" fill="#000"/><path d="M86.092 39.908c-.45 0-.875-.15-1.225-.4L63.012 23.605 41.159 39.508c-.95.675-2.25.475-2.925-.475-.675-.95-.475-2.25.475-2.926l23.104-16.803c.725-.525 1.726-.525 2.476 0l23.104 16.803c.95.675 1.15 2 .475 2.926-.4.55-1.025.875-1.7.875h-.075Z" fill="#000"/></g><defs><clipPath id="a"><path fill="#fff" d="M0 0h126v126H0z"/></clipPath></defs></svg>