<svg xmlns="http://www.w3.org/2000/svg" viewBox="0 0 256 256"><title>invitations</title><circle cx="128.42245" cy="128" r="128" style="fill:#e4be2d"/><circle cx="128.42245" cy="128" r="127.60856" style="fill:#e4be2d"/><path d="M213.22693,223.34247q4.20849-3.746,8.077-7.8476V141.29309a12.06066,12.06066,0,0,0-.48211-3.3316l-.004-.01416a12.07668,12.07668,0,0,0-3.86749-5.96186L205.15,122.15771v-49.269a4.04038,4.04038,0,0,0-4.03881-4.03888H55.73059a4.04045,4.04045,0,0,0-4.03888,4.03888V122.1554L39.886,131.991a12.10681,12.10681,0,0,0-3.83179,5.868c-.01294.04663-.028.09222-.03919.13922a12.09085,12.09085,0,0,0-.474,3.29724v74.19946q3.86169,4.09791,8.07379,7.84479V146.78088l67.7821,51.29755L60.94714,236.31921q3.70881,2.31519,7.58277,4.38007l53.244-40.36023a10.882,10.882,0,0,1,13.2948.00781l53.24305,40.35419q3.87276-2.06232,7.58227-4.37952l-50.44922-38.23535,67.78217-51.29687ZM51.69171,142.77081l-6.35583-4.81,6.35583-5.29657Zm145.38141,6.12049-58.35095,44.15985a18.834,18.834,0,0,0-20.60163-.00782l-58.35186-44.16V124.623a4.02528,4.02528,0,0,0,0-1.24244V76.9267H197.07312Zm8.0769-6.11255V132.6676l6.35865,5.29889Z" style="fill:#fff"/><path d="M144.37024,254.6181H112.47461a128.89165,128.89165,0,0,0,31.89563,0Z" style="fill:#fff"/><path d="M124.38245,153.65546a4.03884,4.03884,0,0,0,8.0769,0v-20.1919h20.1919a4.03884,4.03884,0,0,0,0-8.0769h-20.1919v-20.1911a4.03845,4.03845,0,1,0-8.0769,0v20.1911H104.19128a4.03884,4.03884,0,0,0,0,8.0769h20.19117Z" style="fill:#fff"/></svg>