<svg id="8e5b951b-1b5d-478a-9bfe-c00a11f60b5e" data-name="Layer 1" xmlns="http://www.w3.org/2000/svg" viewBox="0 0 256 256"><title>last_played_circle</title><g id="b02f4774-fb40-4971-9d57-0cb95aac2993" data-name="Group 1067"><g id="05cd3e07-061f-4ce2-8088-9f9fa2516484" data-name="Group 1063"><circle id="4bcc9599-f46a-4b4d-a800-5470c1ba8015" data-name="Ellipse 40" cx="128" cy="128" r="112" style="fill:#7b42d4"/></g></g><g id="bf741d66-0cad-49e1-8e42-4335e67d243f" data-name="book"><path id="da86fe19-abce-4b65-ac28-43fefdf8279d" data-name="Path 890" d="M126.20123,189.74256a7.03913,7.03913,0,0,1-4.98909-2.03638L110.62306,177.1171a7.02562,7.02562,0,0,1-2.03638-4.98909V150.94986a7.0594,7.0594,0,0,1,14.1188,0v18.25941l8.46444,8.478a7.0594,7.0594,0,0,1-4.98909,12.04845Z" style="fill:#fff"/></g><polygon points="184.435 101.487 184.445 101.487 184.448 101.487 184.435 101.487" style="fill:#fff"/><path d="M184.44485,101.48712a3.7676,3.7676,0,0,0-.84546.20983,5.66146,5.66146,0,0,0-.9299-.21042h-7.05926V80.30835a7.07987,7.07987,0,0,0-7.05254-7.05939H62.66A21.16446,21.16446,0,0,0,41.83478,90.89744a4.91557,4.91557,0,0,0-.35312,1.76485V199.1261A112.01336,112.01336,0,0,0,189.729,221.45882V106.78107A5.335,5.335,0,0,0,184.44485,101.48712ZM55.59932,94.42832a7.0594,7.0594,0,0,1,7.05814-7.06058h98.8407v14.11879H62.66A7.05938,7.05938,0,0,1,55.59932,94.42832Zm60.01273,123.55179a45.88606,45.88606,0,1,1,45.89282-45.886A45.88583,45.88583,0,0,1,115.61205,217.98011Z" style="fill:#fff"/></svg>