<svg xmlns="http://www.w3.org/2000/svg" viewBox="0 0 30 30"><defs><style>.cls-1{fill:#746ffe;}.cls-2{fill:#fff;}</style></defs><title>leaderboard_tb_icon</title><g id="Layer_2" data-name="Layer 2"><g id="Layer_1-2" data-name="Layer 1"><circle id="Ellipse_40" data-name="Ellipse 40" class="cls-1" cx="15" cy="15" r="15"/><path class="cls-2" d="M19.421,27.177a1.15093,1.15093,0,0,0-1.078.839l-.59851,1.72174a14.95942,14.95942,0,0,0,8.4757-4.80621L26.13,24.661c.16138-.03613.3089-.101.46558-.14746A14.97588,14.97588,0,0,0,27.55829,6.811H17.384v1.2H13.792a1.132,1.132,0,0,0-1.2,1.05963,1.14547,1.14547,0,0,0,0,.14038v2.871a5.43393,5.43393,0,0,0,4.792,5.391v.12A7.20619,7.20619,0,0,0,23.015,24.661l-.839,2.516ZM17.384,15.078a3.2,3.2,0,0,1-2.4-3V10.405h2.4ZM22.168,18.792l.6-2.4-1.8-2.4h2.524l1.078-2.4,1.078,2.4h2.516l-1.8,2.4.604,2.4-2.4-1.318Z"/></g></g></svg>