<svg xmlns="http://www.w3.org/2000/svg" viewBox="0 0 30 30"><title>topiccircle</title><circle cx="15" cy="15" r="15" style="fill:#f9be3d"/><path d="M17.67343,23.34932l4.28924-2.85948a.71519.71519,0,0,0,0-1.1896l-4.28924-2.85949a.71532.71532,0,0,0-1.11138.59478v5.719A.71537.71537,0,0,0,17.67343,23.34932Zm.31836-4.978L20.27738,19.895l-2.28559,1.52373Z" style="fill:#fff"/><path d="M24.23633,27.277a4.52535,4.52535,0,0,1,.68085-.74121.7011.7011,0,0,0-.49152-.207H17.86884a2.1442,2.1442,0,0,0-4.04334,0h-.83783a.71488.71488,0,0,0,0,1.42975h.83783a2.1442,2.1442,0,0,0,4.04334,0h5.56158A4.33665,4.33665,0,0,1,24.23633,27.277Zm-8.38916.48157a.71488.71488,0,1,1,.7149-.71485A.71566.71566,0,0,1,15.84717,27.75861Z" style="fill:#fff"/><path d="M28,22.462V12.651a.71488.71488,0,0,0-.71484-.7149h-.71491V10.50635h.71491a.71488.71488,0,0,0,0-1.42975H11.55792a2.14708,2.14708,0,0,0-2.14459,2.14465v17.6922a14.866,14.866,0,0,0,1.42975.49024V13.24335a2.134,2.134,0,0,0,.71484.12249H26.57025V24.54633A15.0354,15.0354,0,0,0,28,22.462ZM25.1405,11.9361H11.55792a.71488.71488,0,0,1,0-1.42975H25.1405Z" style="fill:#fff"/></svg>