<?xml version="1.0" encoding="UTF-8"?><svg id="Layer_2" xmlns="http://www.w3.org/2000/svg" viewBox="0 0 62.49 66"><defs><style>.cls-1{fill:#6f4dff;}.cls-1,.cls-2,.cls-3,.cls-4,.cls-5,.cls-6,.cls-7,.cls-8{stroke-width:0px;}.cls-2{fill:#af5eea;}.cls-3{fill:#e9f9ff;}.cls-4{fill:#d080ff;}.cls-5{fill:#000;}.cls-6{fill:#dedcff;}.cls-7{fill:#a697ff;}.cls-9{opacity:.25;}.cls-10{opacity:.54;}.cls-11{opacity:.5;}.cls-8{fill:#3d2ca3;}</style></defs><g id="Layer_2-2"><circle class="cls-2" cx="31.25" cy="19.5" r="19.5"/><ellipse class="cls-4" cx="30.75" cy="13.5" rx="16" ry="13.5"/><rect class="cls-1" x="32.25" y="40.5" width="13" height="25" rx="6.5" ry="6.5"/><path class="cls-8" d="M38.75,66c-3.86,0-7-3.14-7-7v-12c0-3.86,3.14-7,7-7s7,3.14,7,7v12c0,3.86-3.14,7-7,7ZM38.75,41c-3.31,0-6,2.69-6,6v12c0,3.31,2.69,6,6,6s6-2.69,6-6v-12c0-3.31-2.69-6-6-6Z"/><path class="cls-6" d="M21.75,10s-3,2-2.31,4.94c.55,2.38.1,3.26-1.69,5.06-2,2-2,4-1,7,.39,1.17,2,3,2,3l6-1.55s-2-4.45-1-6.45c.63-1.26,1-2,1-4s-1-2.59-1-4,2.58-4,2.58-4h-4.58Z"/><rect class="cls-1" x="10.25" y="41.5" width="12" height="17" rx="6" ry="6"/><path class="cls-8" d="M16.25,59c-3.58,0-6.5-2.92-6.5-6.5v-5c0-3.58,2.92-6.5,6.5-6.5s6.5,2.92,6.5,6.5v5c0,3.58-2.92,6.5-6.5,6.5ZM16.25,42c-3.03,0-5.5,2.47-5.5,5.5v5c0,3.03,2.47,5.5,5.5,5.5s5.5-2.47,5.5-5.5v-5c0-3.03-2.47-5.5-5.5-5.5Z"/><path class="cls-6" d="M41.67,10s3,2,2.31,4.94c-.55,2.38-.1,3.26,1.69,5.06,2,2,2,4,1,7-.39,1.17-2,3-2,3l-6-1.55s2-4.45,1-6.45c-.63-1.26-1-2-1-4s1-2.59,1-4c0-2-2.58-4-2.58-4h4.58Z"/><g class="cls-11"><path class="cls-5" d="M45.25,47v12c0,.85-.17,1.67-.47,2.42-3.12-.46-5.53-3.17-5.53-6.42v-4.04c-2.34-.22-4.67-.35-7-.38v-3.58c0-3.58,2.92-6.5,6.5-6.5,1.79,0,3.42.73,4.59,1.91,1.18,1.17,1.91,2.8,1.91,4.59Z"/></g><g class="cls-11"><path class="cls-5" d="M22.25,47.5v3.53c-4,.42-7.98,1.11-11.97,2.1-.02-.21-.03-.42-.03-.63v-5c0-3.3,2.7-6,6-6,1.65,0,3.15.68,4.24,1.76,1.08,1.09,1.76,2.59,1.76,4.24Z"/></g><g class="cls-9"><path class="cls-5" d="M20.49,43.26c1.08,1.09,1.76,2.59,1.76,4.24v3.53c-4,.42-7.98,1.11-11.97,2.1-.02-.21-.03-.42-.03-.63v-5c0-3.3,2.7-6,6-6,1.65,0,3.15.68,4.24,1.76Z"/></g><g class="cls-9"><path class="cls-5" d="M45.25,47v12c0,.85-.17,1.67-.47,2.42-3.12-.46-5.53-3.17-5.53-6.42v-4.04c-2.34-.22-4.67-.35-7-.38v-3.58c0-3.58,2.92-6.5,6.5-6.5,1.79,0,3.42.73,4.59,1.91,1.18,1.17,1.91,2.8,1.91,4.59Z"/></g><g class="cls-11"><path class="cls-5" d="M50.51,23.38c-13.18-3-26.02-2.95-38.54-.08,1.36,9.44,9.46,16.7,19.28,16.7s17.87-7.22,19.26-16.62Z"/></g><path class="cls-1" d="M57.71,27.3c-18.35-5.66-36.03-5.46-53.11,0-2.81.9-4.51,3.77-4.02,6.68l2.06,12.38c.58,3.47,4,5.67,7.41,4.82,9.7-2.42,19.43-3.15,29.19-2.22v4.04c0,3.58,2.92,6.5,6.5,6.5s6.5-2.92,6.5-6.5v-1.83c.07.02.14.03.21.05,3.41.84,6.81-1.36,7.39-4.82l2.06-12.36c.5-2.98-1.31-5.85-4.2-6.74Z"/><path class="cls-8" d="M45.75,60c-3.86,0-7-3.14-7-7v-3.58c-9.55-.86-19.16-.1-28.57,2.25-1.77.44-3.67.13-5.19-.87-1.53-1-2.53-2.55-2.83-4.35L.09,34.07c-.53-3.16,1.35-6.28,4.36-7.24,17.4-5.57,35.37-5.56,53.41,0h0c3.12.96,5.08,4.1,4.54,7.3l-2.06,12.36c-.3,1.8-1.3,3.34-2.83,4.35-1.4.92-3.12,1.27-4.77.97v1.2c0,3.86-3.14,7-7,7ZM31.12,48.08c2.73,0,5.45.13,8.17.39l.45.04v4.49c0,3.31,2.69,6,6,6s6-2.69,6-6v-2.46l.83.2c1.5.37,3.1.1,4.38-.75,1.29-.85,2.14-2.15,2.39-3.67l2.06-12.36c.45-2.71-1.21-5.36-3.85-6.18h0c-17.84-5.5-35.6-5.5-52.81,0-2.54.81-4.13,3.45-3.68,6.12l2.06,12.38c.25,1.52,1.1,2.83,2.4,3.68,1.29.85,2.89,1.12,4.4.74,6.99-1.75,14.09-2.62,21.19-2.62Z"/><path class="cls-5" d="M55.56,36.46c-.1-.77-.38-1.54-.82-2.27-.45-.75-1.1-1.42-1.92-2-.83-.57-1.85-.99-3.04-1.24-.68-.14-1.35-.21-2-.21-.79,0-1.57.11-2.29.32-1.12.32-2.08.87-2.88,1.61-.11-.68-.52-1.63-1.84-2.27-.31-.15-.61-.29-.91-.42-.34-.14-.68-.26-1.02-.35-.33-.09-.66-.16-.99-.22-.33-.05-.66-.09-.99-.11-.24-.01-.48-.02-.7-.02-.99,0-1.89.12-2.67.36-1.11.34-1.99.92-2.61,1.72-.23.29-.41.62-.55.96-.75-.91-1.69-1.64-2.82-2.13-.99-.43-2.07-.65-3.2-.65-.3,0-.61.02-.93.05-1.09.11-2.1.42-3.02.92-.9.49-1.68,1.12-2.32,1.88-.64.77-1.11,1.64-1.39,2.59-.05.19-.09.37-.13.56l-1.17-5.31c-.1-.45-.24-.87-.43-1.26-.25-.53-.78-1.24-1.87-1.59-.33-.11-.7-.16-1.1-.16-.46,0-.98.07-1.57.22-1.09.27-1.85.64-2.38,1.18-.82.82-.96,1.69-.94,2.28.01.43.08.88.21,1.32l2.33,8.53c.23.83.48,1.52.76,2.09.34.68.75,1.23,1.24,1.65.54.46,1.16.76,1.84.9.33.07.69.11,1.06.11.26,0,.53-.02.82-.05.52-.06,1.11-.17,1.79-.31.31-.07.64-.17.95-.32.5-.22,1.16-.71,1.5-1.74.04-.12.06-.24.09-.37.07.04.12.1.19.14.78.48,1.61.83,2.47,1.04.63.16,1.27.24,1.87.24.24,0,.48-.01.72-.04.81-.08,1.63-.31,2.45-.69.8-.37,1.54-.87,2.21-1.5.18-.17.32-.37.48-.55.19.31.43.6.74.84.44.35.96.64,1.59.88.53.21,1.08.38,1.65.5.58.13,1.1.2,1.59.22.22,0,.44.02.64.02,1.62,0,2.91-.31,3.94-.96.42-.26.88-.65,1.29-1.18.03.06.06.11.09.17.5.81,1.2,1.53,2.07,2.13.86.59,1.9,1,3.17,1.27,1.04.21,1.91.32,2.66.33,0,0,.11,0,.12,0,.89,0,1.63-.14,2.26-.42.94-.42,1.61-1.18,1.87-2.15.08-.3.12-.63.12-.96,0-.3-.04-.62-.11-.89.62-.43,1.35-1.2,1.72-2.56.18-.65.22-1.36.11-2.12Z"/><path class="cls-3" d="M16.68,43.16c-.61.13-1.15.22-1.61.28-.47.06-.88.05-1.24-.03-.36-.07-.67-.23-.95-.47-.28-.24-.53-.58-.75-1.02-.22-.44-.43-1.02-.62-1.72-.93-3.41-1.4-5.12-2.33-8.53-.08-.29-.13-.58-.14-.86,0-.28.11-.55.36-.8.25-.25.73-.47,1.44-.65.71-.18,1.23-.2,1.57-.1.33.11.56.29.68.55.12.26.22.54.28.84.74,3.36,1.11,5.04,1.86,8.4.04.2.08.35.11.46.03.11.07.19.12.23.05.04.11.06.19.05.08,0,.19-.03.32-.06.18-.04.38-.06.59-.05.21,0,.41.11.6.31.19.2.34.58.45,1.14.11.59.13,1.02.03,1.3-.09.28-.23.46-.42.54-.19.09-.37.15-.54.19Z"/><path class="cls-3" d="M24.68,42.08c-.62.06-1.25.01-1.91-.15-.66-.16-1.29-.43-1.9-.8-.61-.37-1.13-.85-1.56-1.43-.43-.58-.72-1.26-.86-2.05-.13-.72-.1-1.42.1-2.11.2-.68.53-1.31,1-1.87.47-.56,1.05-1.03,1.73-1.41.68-.37,1.44-.6,2.27-.69,1.13-.12,2.18.04,3.12.45.94.41,1.7,1.01,2.26,1.79.57.78.85,1.66.88,2.65.03.84-.12,1.59-.44,2.25-.31.66-.72,1.23-1.23,1.71-.51.48-1.06.86-1.67,1.14-.61.28-1.21.45-1.81.51ZM24.27,38.45c.21-.02.45-.1.71-.22.27-.12.49-.31.68-.57.19-.26.26-.59.23-1-.03-.33-.13-.61-.3-.84s-.4-.39-.69-.5c-.29-.11-.62-.14-.98-.11-.32.03-.61.14-.85.3-.25.17-.43.39-.56.65-.13.26-.17.55-.13.87.05.4.19.7.42.91.23.21.48.35.76.42.28.07.52.09.73.07Z"/><path class="cls-3" d="M35.69,41.78c-.38-.02-.79-.08-1.25-.18-.46-.1-.91-.24-1.35-.41-.44-.17-.8-.37-1.09-.59-.29-.23-.43-.48-.44-.78,0-.13.03-.28.09-.45.06-.17.15-.35.26-.55.11-.2.25-.41.42-.64.1-.13.22-.23.35-.3.13-.07.29-.1.48-.1.25,0,.5.06.74.16.24.1.47.22.71.36.23.13.48.26.73.37.25.11.53.17.82.19.26.01.47,0,.6-.05.14-.05.21-.12.21-.23,0-.11-.03-.19-.12-.27-.09-.07-.21-.14-.37-.19-.16-.06-.34-.11-.55-.16-.21-.05-.43-.11-.67-.17-.24-.06-.49-.14-.74-.22-.32-.1-.64-.23-.95-.39-.31-.16-.59-.36-.84-.62-.25-.25-.45-.56-.6-.92-.15-.36-.23-.8-.23-1.32,0-.69.17-1.27.54-1.74.36-.46.91-.81,1.63-1.04.72-.22,1.62-.32,2.68-.26.26.01.52.04.78.09.26.04.52.1.78.17.26.07.53.16.79.27.26.11.52.23.78.36.54.26.8.59.77.97-.02.38-.22.76-.59,1.14-.2.23-.4.41-.59.52-.2.11-.39.16-.58.14-.23-.02-.49-.1-.76-.24-.27-.14-.56-.28-.86-.42-.3-.14-.61-.22-.92-.23-.18,0-.33,0-.46.03-.13.03-.22.07-.28.13-.06.06-.09.13-.1.21,0,.15.04.26.15.36.11.09.25.17.43.23.18.06.39.12.63.17.24.05.5.11.77.17.37.08.76.19,1.15.33.39.14.74.34,1.05.58.31.24.55.56.71.95.16.39.21.89.14,1.48-.12,1.12-.61,1.93-1.42,2.45-.82.51-1.95.71-3.43.64Z"/><path class="cls-3" d="M47.21,43.27c-.99-.2-1.8-.52-2.44-.96s-1.14-.95-1.5-1.53c-.36-.58-.61-1.19-.74-1.83-.13-.63-.16-1.24-.09-1.8.14-1.04.51-1.93,1.13-2.65.63-.72,1.45-1.23,2.45-1.52,1.01-.29,2.13-.32,3.34-.07.94.19,1.71.51,2.3.92.6.42,1.05.88,1.35,1.38.3.5.48,1.01.55,1.51.07.5.04.94-.06,1.33-.2.73-.55,1.23-1.04,1.52s-1.04.35-1.65.2c-1.77-.43-2.67-.62-4.46-.95.02.22.1.42.25.6.15.18.34.34.59.48.25.14.52.24.82.3.3.06.57.1.82.12.24.02.45.02.64,0,.18-.01.35-.03.51-.04.16-.02.3-.03.42-.03.13,0,.24,0,.35.03.25.06.46.19.62.4.17.21.29.49.37.84.05.19.08.37.08.53,0,.16-.02.3-.05.43-.1.39-.35.66-.74.84-.39.17-.91.25-1.54.24-.64,0-1.4-.11-2.28-.29ZM46.7,36.97c.96.18,1.45.27,2.41.48.2.04.35.04.46-.02.11-.06.18-.16.22-.32.04-.17.02-.32-.07-.46-.08-.14-.21-.26-.39-.36-.18-.1-.39-.18-.66-.23-.35-.07-.67-.07-.95,0-.29.07-.51.19-.69.36-.17.16-.29.35-.34.56Z"/><path class="cls-5" d="M35.75,16.69c-.24,0-.49-.11-.64-.32-.05-.06-1.21-1.56-3.28-1.56s-2.94,1.44-2.98,1.51c-.23.37-.72.49-1.1.26-.37-.23-.5-.71-.27-1.09.06-.09,1.4-2.28,4.35-2.28s4.5,2.12,4.57,2.21c.26.35.19.85-.17,1.12-.14.11-.31.16-.47.16Z"/><path class="cls-5" d="M27.26,10.9h-.01l-6.51-.1c-.44,0-.79-.37-.79-.81,0-.44.36-.79.8-.79h.01l6.51.1c.44,0,.79.37.79.81,0,.44-.36.79-.8.79Z"/><path class="cls-5" d="M42.26,10.9h-.01l-6.51-.1c-.44,0-.79-.37-.79-.81,0-.44.35-.83.81-.79l6.51.1c.44,0,.79.37.79.81,0,.44-.36.79-.8.79Z"/><path class="cls-7" d="M47.75,57c-.37,0-.72-.2-.9-.55-.25-.49-.05-1.09.45-1.34,1.4-.7,1.45-2.06,1.45-2.12.01-.54.46-.98,1-.98,0,0,0,0,.01,0,.55,0,.99.45.99.99,0,.11-.03,2.63-2.55,3.89-.14.07-.3.11-.45.11Z"/><g class="cls-10"><path class="cls-7" d="M38.59,64.4c-.64,0-1.12-.16-1.18-.19-.52-.19-.79-.76-.6-1.28.19-.52.75-.79,1.27-.6.02,0,.33.1.69.06.54-.06,1.04.33,1.1.88.06.55-.33,1.04-.88,1.1-.14.01-.27.02-.4.02Z"/></g><g class="cls-10"><path class="cls-7" d="M16.13,57.44c-.97,0-1.69-.37-2.06-.71-.41-.37-.43-1.01-.06-1.41.37-.4.98-.43,1.39-.08.08.06.71.49,1.93-.14.49-.25,1.09-.05,1.35.44.25.49.06,1.09-.44,1.35-.79.4-1.5.55-2.12.55Z"/></g><path class="cls-7" d="M58.75,33c-.55,0-1-.45-1-1,0-1.21-1.2-1.66-1.34-1.7-.52-.18-.8-.74-.63-1.26.17-.52.73-.8,1.25-.64,1.01.33,2.72,1.45,2.72,3.6,0,.55-.45,1-1,1Z"/></g></svg>