<?xml version="1.0" encoding="UTF-8"?><svg id="Layer_2" xmlns="http://www.w3.org/2000/svg" viewBox="0 0 80.6 73.56"><defs><style>.cls-1{fill:#558aff;}.cls-1,.cls-2,.cls-3,.cls-4,.cls-5,.cls-6,.cls-7,.cls-8,.cls-9,.cls-10,.cls-11,.cls-12,.cls-13,.cls-14{stroke-width:0px;}.cls-2{fill:#ffbbc8;}.cls-3{fill:#a9f3ff;}.cls-4{fill:#ff485a;}.cls-5{fill:#2074ef;}.cls-6{fill:#d8257b;}.cls-7{fill:#50deff;}.cls-8{fill:#e8469c;}.cls-9,.cls-14{fill:#000;}.cls-10{fill:#0bf;}.cls-11{fill:#ff768a;}.cls-12{fill:#c1c8d3;}.cls-15{opacity:.6;}.cls-16{opacity:.5;}.cls-13{fill:#fff;}.cls-14{opacity:.3;}</style></defs><g id="Layer_2-2"><g class="cls-16"><circle class="cls-9" cx="40.28" cy="38.06" r="35.5"/></g><g class="cls-15"><path class="cls-9" d="M78.73,62.71c-.14-.58-.45-1.12-.92-1.55l-1-.91-.29-.26-.08-.07-.28-.25s0,0,0,0c-.13-.12-.27-.22-.42-.31-.06-.04-.12-.06-.18-.09-.09-.05-.18-.09-.28-.13-.08-.03-.17-.05-.26-.07-.07-.02-.14-.04-.22-.05-.11-.02-.21-.03-.32-.03-.05,0-.1,0-.15,0-.13,0-.25.01-.37.03-.03,0-.06,0-.09.01-.14.02-.27.06-.41.11-.01,0-.03,0-.04.01-.14.05-.28.11-.42.19,0,0,0,0-.01,0-.14.08-.27.17-.4.28h0s0,0,0,0c-.19-.24-.39-.48-.62-.69l-.04-.04h0s0-.02,0-.03c.02-.07.03-.14.03-.21,0-.03,0-.05,0-.08,0-.06-.02-.12-.04-.17,0-.02-.02-.05-.03-.07-.04-.08-.09-.15-.15-.21l-.08-.07c-.07-.06-.14-.1-.22-.13-.02,0-.05-.01-.07-.02-.06-.02-.12-.02-.17-.03-.03,0-.05,0-.08,0-.07,0-.14.02-.21.05-.01,0-.02,0-.03,0h0l-.97-.89h0s0-.02,0-.03c.02-.07.03-.14.03-.21,0-.03,0-.05,0-.08,0-.06-.02-.12-.04-.17,0-.02-.02-.05-.03-.07-.04-.08-.09-.15-.15-.21,0,0,0,0,0,0l-.04-.04-.04-.04c-.07-.06-.14-.1-.22-.13-.02,0-.05-.01-.07-.02-.06-.02-.12-.02-.17-.03-.03,0-.05,0-.08,0-.07,0-.14.02-.21.05-.01,0-.02,0-.03,0,0,0,0,0,0,0l-.97-.89s0-.02,0-.03c.02-.07.03-.14.03-.21,0-.03,0-.05,0-.08,0-.06-.02-.12-.04-.17,0-.02-.02-.05-.03-.07-.04-.08-.09-.15-.15-.21l-.08-.07s0,0,0,0c-.07-.06-.14-.1-.22-.13-.02,0-.05-.01-.07-.02-.06-.02-.12-.02-.17-.03-.03,0-.05,0-.08,0-.07,0-.14.02-.21.05-.01,0-.02,0-.03.01l-.75-.68-.22-.2h0s0-.02,0-.03c.02-.07.03-.14.03-.21,0-.03,0-.05,0-.08,0-.06-.02-.12-.04-.17,0-.02-.02-.05-.03-.07-.04-.08-.09-.15-.15-.21l-.08-.07c-.07-.06-.14-.1-.22-.13-.02,0-.05-.01-.07-.02-.06-.02-.12-.02-.17-.03-.03,0-.05,0-.08,0-.07,0-.14.02-.21.05-.01,0-.02,0-.03.01l-.24-.22-.46-.42,4.51-4.95c.83-.92,1.1-2.15.83-3.28-.16-.68-.52-1.31-1.07-1.81l-.83-.76-.03-.03h0s-.11-.1-.11-.1h0s-.02-.03-.02-.03l-.27-.24h0s-.23-.21-.23-.21c-.67-.61-1.53-.89-2.37-.85-.84.04-1.67.4-2.28,1.07l-1.43,1.57c-.11-.11-.2-.22-.31-.32l-8.37-7.62,8.19-8.99c1.19-1.3,1.97-2.84,2.36-4.44.24-.96.33-1.96.28-2.94-.03-.66-.12-1.31-.28-1.95-.08-.32-.17-.64-.28-.95-.54-1.56-1.47-3.02-2.77-4.2h0c-2.35-2.14-5.44-2.97-8.37-2.55-.65.09-1.29.25-1.92.46s-1.23.49-1.81.83c-.87.51-1.68,1.16-2.39,1.94l-8.19,8.99-10.21-9.29c-.78-.71-1.65-1.28-2.56-1.7-1.83-.85-3.85-1.13-5.8-.85-.65.09-1.29.25-1.92.46-.94.32-1.84.79-2.66,1.39-.55.4-1.07.86-1.54,1.38-.95,1.04-1.64,2.23-2.08,3.49-.55,1.57-.7,3.25-.47,4.88.28,1.95,1.12,3.84,2.5,5.38.23.26.48.51.74.74l6.24,5.68,3.97,3.61-5.02,5.51c-.1.11-.19.23-.28.35l-1.34-1.22s0,0,0,0l-.09-.08-.14-.13c-.5-.46-1.11-.73-1.74-.82-.21-.03-.42-.04-.63-.03-.84.04-1.67.4-2.28,1.07l-.21.23s0,0,0,0l-.15.16-.22.24s0,0,0,0l-.16.18-.63.69c-.17.18-.31.38-.43.58-.37.62-.53,1.32-.5,2.01.04.92.44,1.83,1.17,2.49l1.98,1.8,2.97,2.71-.44.48-.2.22s-.02,0-.03,0c-.07-.02-.14-.03-.21-.03-.03,0-.05,0-.08,0-.06,0-.12.02-.17.04-.02,0-.05.02-.07.03-.08.04-.15.09-.21.15l-.07.08c-.06.07-.1.14-.13.22,0,.02-.01.05-.02.07-.02.06-.02.12-.03.17,0,.03,0,.05,0,.08,0,.07.02.14.05.21,0,.01,0,.02.01.03l-.89.97s-.02,0-.03,0c-.07-.02-.14-.03-.21-.03-.03,0-.05,0-.08,0-.06,0-.12.02-.17.04-.02,0-.05.02-.07.03-.08.04-.15.09-.21.15l-.07.08s0,0,0,0c-.06.07-.1.14-.13.22,0,.02-.01.05-.02.07-.02.06-.02.12-.03.17,0,.03,0,.05,0,.08,0,.07.02.14.05.21,0,.01,0,.02.01.03h0l-.23.26-.65.72s-.02,0-.03,0c-.07-.02-.14-.03-.21-.03-.03,0-.05,0-.08,0-.06,0-.12.02-.17.04-.02,0-.05.02-.07.03-.08.04-.15.09-.21.15l-.07.08c-.06.07-.1.14-.13.22,0,.02-.01.05-.02.07-.02.06-.02.12-.03.18,0,.03,0,.05,0,.08,0,.07.02.14.05.21,0,.01,0,.02.01.03h0l-.26.29-.62.68s-.02,0-.03,0c-.07-.02-.14-.03-.21-.03-.03,0-.05,0-.08,0-.06,0-.12.02-.17.04-.02,0-.05.02-.07.03-.08.04-.15.09-.21.15l-.07.08c-.06.07-.1.14-.13.22,0,.02-.01.05-.02.07-.02.06-.02.11-.03.17,0,.03,0,.05,0,.08,0,.07.02.14.05.21,0,.01,0,.02.01.03l-.04.04s0,0,0,0c-.21.23-.39.49-.55.75-.14-.09-.28-.17-.42-.24,0,0,0,0-.01,0-.14-.06-.28-.11-.43-.15-.02,0-.03,0-.05-.01-.14-.03-.28-.06-.42-.07-.03,0-.06,0-.09,0-.13,0-.25,0-.38,0-.05,0-.1.01-.15.02-.11.02-.21.03-.32.06-.07.02-.14.05-.21.07-.08.03-.17.06-.25.1-.09.04-.18.1-.26.15-.06.04-.12.07-.17.11-.14.1-.27.22-.39.35l-.54.6s0,0,0,0l-.96,1.05c-.14.16-.27.32-.37.5-.73,1.23-.52,2.85.57,3.85l6.72,6.11c.47.43,1.04.68,1.63.77.2.03.39.04.59.03.59-.03,1.18-.22,1.67-.58.17-.12.32-.26.46-.42l.96-1.05s0,0,0,0l.54-.6c.12-.13.22-.27.31-.42.03-.06.06-.12.09-.18.05-.09.09-.18.13-.28.03-.08.05-.17.07-.26.02-.07.04-.14.05-.22.02-.11.03-.21.03-.32,0-.05,0-.1,0-.15,0-.13-.01-.25-.03-.37,0-.03,0-.06-.01-.09-.02-.14-.06-.27-.11-.41,0-.01,0-.03-.02-.04-.05-.14-.11-.28-.19-.42,0,0,0,0,0-.01-.08-.14-.17-.27-.28-.4h0s0,0,0,0c.24-.19.48-.39.69-.62l.04-.04h0s.02,0,.03,0c.07.02.14.03.21.03.03,0,.05,0,.08,0,.06,0,.12-.02.17-.04.02,0,.05-.02.07-.03.08-.04.15-.09.21-.15,0,0,0,0,0,0l.04-.04.04-.04c.06-.07.1-.14.13-.22,0-.02.01-.05.02-.07.02-.06.02-.12.03-.17,0-.03,0-.05,0-.08,0-.07-.02-.14-.05-.21,0-.01,0-.02-.01-.03l.62-.68.26-.29h0s.02,0,.03,0c.07.02.14.03.21.03.03,0,.05,0,.08,0,.06,0,.12-.02.17-.04.02,0,.05-.02.07-.03.08-.04.15-.09.21-.15l.04-.04.04-.04s0,0,0,0c.06-.07.1-.14.13-.22,0-.02.01-.05.02-.07.02-.06.02-.12.03-.17,0-.03,0-.05,0-.08,0-.07-.02-.14-.05-.21,0-.01,0-.02-.01-.03l.65-.72.23-.26s.02,0,.03,0c.07.02.14.03.21.03.03,0,.05,0,.08,0,.06,0,.12-.02.17-.04.02,0,.05-.02.07-.03.08-.04.15-.09.21-.15l.07-.08c.06-.07.1-.14.13-.22,0-.02.01-.05.02-.07.02-.06.02-.12.03-.17,0-.03,0-.05,0-.08,0-.07-.02-.14-.05-.21,0-.01,0-.02-.01-.03l.68-.75.2-.22s.02,0,.03,0c.07.02.14.03.21.03.03,0,.05,0,.08,0,.06,0,.12-.02.17-.04.02,0,.05-.02.07-.03.08-.04.15-.09.21-.15l.07-.08s0,0,0,0c.06-.07.1-.14.13-.22,0-.02.01-.05.02-.07.02-.06.02-.12.03-.17,0-.03,0-.05,0-.08,0-.07-.02-.14-.05-.21,0-.01,0-.02-.01-.03l.64-.7,3.04,2.77,1.91,1.74c.37.33.78.58,1.23.73,1.1.39,2.36.22,3.32-.49.19-.14.37-.3.54-.49l.58-.63.58-.63s0,0,0,0l.21-.23c.3-.33.53-.72.67-1.12.21-.6.24-1.26.09-1.87-.1-.41-.28-.81-.53-1.16-.13-.18-.28-.34-.44-.49l-.14-.13-.09-.08s0,0,0,0l-1.34-1.22s.08-.08.12-.12c.07-.06.13-.13.2-.2l2.39-2.63,2.63-2.89,8.37,7.62c.11.1.22.18.33.27,0,0,.01,0,.02.01l-1.22,1.34h0s-.21.23-.21.23c-.15.17-.28.35-.39.53-.56.94-.6,2.09-.16,3.06.18.39.44.75.77,1.05l.2.18.03.03s0,0,0,0l.25.23.15.14h0s.87.79.87.79c.73.67,1.67.97,2.59.93.46-.02.92-.13,1.34-.33.43-.2.82-.48,1.15-.84l4.51-4.95.17.15.53.49h0s0,.02,0,.03c-.02.07-.03.14-.03.21,0,.03,0,.05,0,.08,0,.06.02.12.04.17,0,.02.02.05.03.07.04.08.09.15.15.21l.08.07c.07.06.14.1.22.13.02,0,.05.01.07.02.06.02.12.02.17.03.03,0,.05,0,.08,0,.07,0,.14-.02.21-.05.01,0,.02,0,.03-.01l.87.79.1.09s0,.02,0,.03c-.02.07-.03.14-.03.21,0,.03,0,.05,0,.08,0,.06.02.12.04.17,0,.02.02.05.03.07.04.08.09.15.15.21,0,0,0,0,0,0l.08.07c.07.06.14.1.22.13.02,0,.05.01.07.02.06.02.12.02.17.03.03,0,.05,0,.08,0,.07,0,.14-.02.21-.05.01,0,.02,0,.03-.01,0,0,0,0,0,0l.87.79.1.09h0s0,.02,0,.03c-.02.07-.03.14-.03.21,0,.03,0,.05,0,.08,0,.06.02.12.04.17,0,.02.02.05.03.07.04.08.09.15.15.21l.08.07s0,0,0,0c.07.06.14.1.22.13.02,0,.05.01.07.02.06.02.12.02.17.03.03,0,.05,0,.08,0,.07,0,.14-.02.21-.05.01,0,.02,0,.03-.01l.97.89h0s0,.02,0,.03c-.02.07-.03.14-.03.21,0,.03,0,.05,0,.08,0,.06.02.12.04.17,0,.02.02.05.03.07.04.08.09.15.15.21l.08.07c.07.06.14.1.22.13.02,0,.05.01.07.02.06.02.12.02.17.03.03,0,.05,0,.08,0,.07,0,.14-.02.21-.05.01,0,.02,0,.03-.01l.04.04c.23.21.49.39.75.55,0,0,0,0,0,0-.09.14-.17.28-.24.42,0,0,0,0,0,.01-.06.14-.11.28-.15.43,0,.02,0,.03-.01.05-.03.14-.06.27-.07.41,0,.03,0,.06,0,.09,0,.13,0,.25,0,.37,0,.05.01.1.02.15.02.11.03.21.06.32.02.07.05.14.07.21.03.08.06.17.1.25.04.09.1.18.15.26.04.06.06.12.1.17.1.14.22.27.35.39l.6.54s0,0,0,0h0s.15.14.15.14l.9.82c.63.57,1.43.83,2.22.8.2,0,.39-.04.59-.08.38-.09.75-.26,1.08-.5.17-.12.32-.26.46-.42l6.11-6.72c.29-.31.49-.67.63-1.05.2-.57.23-1.18.09-1.76Z"/></g><path class="cls-9" d="M52.67,1.78c2.47,0,4.94.88,6.89,2.66,4.17,3.8,4.48,10.31.68,14.49l-8.19,8.99,8.37,7.62c.11.1.21.21.31.32l1.43-1.57c.65-.71,1.54-1.07,2.43-1.07.79,0,1.58.28,2.21.85l.23.21s0,0,0,0l.29.26.11.1h0s.87.79.87.79c1.47,1.33,1.57,3.62.24,5.09l-4.51,4.95.7.64c.1-.05.2-.07.31-.07.17,0,.35.06.48.19l.08.07c.22.2.29.51.19.78l.97.89c.1-.05.2-.07.31-.07.17,0,.35.06.48.19l.08.07c.22.2.29.51.19.78l.97.89c.1-.05.2-.07.31-.07.17,0,.35.06.48.19l.08.07c.22.2.29.51.19.78l.97.89c.1-.05.2-.07.31-.07.17,0,.35.06.48.19l.08.07c.22.2.29.51.19.78l.04.04c.23.21.43.45.62.69.5-.43,1.13-.64,1.76-.64s1.3.23,1.81.7l.36.33,1.29,1.17c1.25,1.14,1.35,3.1.2,4.35l-6.11,6.72c-.61.67-1.44,1-2.28,1-.74,0-1.48-.26-2.07-.8l-1.05-.96s0,0,0,0l-.6-.54c-1.02-.92-1.16-2.45-.39-3.55-.26-.16-.51-.34-.75-.55l-.04-.04c-.1.05-.2.07-.31.07-.17,0-.35-.06-.48-.19l-.08-.07c-.22-.2-.29-.51-.19-.78l-.97-.89c-.1.05-.2.07-.31.07-.17,0-.35-.06-.48-.19l-.08-.07c-.22-.2-.29-.51-.19-.78l-.97-.89c-.1.05-.2.07-.31.07-.17,0-.35-.06-.48-.19l-.08-.07c-.22-.2-.29-.51-.19-.78l-.97-.89c-.1.05-.2.07-.31.07-.17,0-.35-.06-.48-.19l-.08-.07c-.22-.2-.29-.51-.19-.78l-.7-.64-4.51,4.95c-.71.78-1.69,1.17-2.67,1.17-.87,0-1.73-.31-2.42-.93l-.87-.79h0s-.15-.14-.15-.14l-.25-.23s0,0,0,0l-.23-.21c-1.34-1.22-1.44-3.31-.22-4.65l.21-.23h0s1.22-1.34,1.22-1.34c-.11-.1-.23-.18-.35-.28l-8.37-7.62-5.02,5.51c-.1.11-.21.21-.32.31l1.34,1.22s0,0,0,0l.23.21c1.34,1.22,1.44,3.31.22,4.65l-.21.23s0,0,0,0l-1.15,1.27c-.71.78-1.69,1.17-2.67,1.17-.87,0-1.73-.31-2.42-.93l-4.95-4.51-.64.7c.12.26.08.57-.12.79l-.07.08c-.14.16-.34.23-.53.23-.08,0-.17-.01-.24-.04l-.89.97c.12.26.08.57-.12.79l-.07.08c-.14.16-.34.23-.53.23-.08,0-.17-.01-.24-.04l-.89.97c.12.26.08.57-.12.79l-.07.08c-.14.16-.34.23-.53.23-.08,0-.17-.01-.24-.04l-.89.97c.12.26.08.57-.12.79l-.07.08c-.14.16-.34.23-.53.23-.08,0-.17-.01-.24-.04l-.04.04c-.21.23-.45.43-.69.62.86,1.02.87,2.56-.06,3.57l-.54.6s0,0,0,0l-.96,1.05c-.61.67-1.44,1-2.28,1-.74,0-1.48-.26-2.07-.8l-6.72-6.11c-1.25-1.14-1.35-3.1-.2-4.35l.96-1.05s0,0,0,0l.54-.6c.53-.58,1.26-.88,2-.88.54,0,1.09.16,1.56.49.16-.26.34-.51.55-.75l.04-.04c-.12-.26-.08-.57.12-.79l.07-.08c.14-.16.34-.23.53-.23.08,0,.17.01.24.04l.89-.97c-.12-.26-.08-.57.12-.79l.07-.08c.14-.16.34-.23.53-.23.08,0,.17.01.24.04l.89-.97c-.12-.26-.08-.57.12-.79l.07-.08c.14-.16.34-.23.53-.23.08,0,.17.01.24.04l.89-.97c-.12-.26-.08-.57.12-.79l.07-.08c.14-.16.34-.23.53-.23.08,0,.17.01.24.04l.64-.7-4.95-4.51c-1.47-1.33-1.57-3.62-.24-5.09l.79-.87s0,0,0,0l.22-.24.15-.16s0,0,0,0l.21-.23c.65-.71,1.54-1.07,2.43-1.07.79,0,1.58.28,2.21.85l.23.21s0,0,0,0l1.34,1.22c.1-.11.18-.23.28-.35l5.02-5.51-10.21-9.29c-4.17-3.8-4.48-10.32-.68-14.49,2.02-2.22,4.8-3.34,7.59-3.34,2.47,0,4.94.88,6.9,2.66l10.21,9.29,8.19-8.99c2.02-2.22,4.8-3.34,7.59-3.34M52.67,0h0c-3.39,0-6.64,1.43-8.91,3.92l-6.99,7.68L27.88,3.51C25.67,1.49,22.79.39,19.78.38c-3.39,0-6.64,1.43-8.91,3.92-2.16,2.37-3.26,5.45-3.11,8.67.15,3.22,1.54,6.18,3.91,8.34l8.89,8.09-2.92,3.21h0s-.23-.22-.23-.22c-.93-.85-2.14-1.32-3.41-1.32-1.43,0-2.8.6-3.75,1.65l-.21.23-.15.16-.22.24-.79.87c-2,2.2-1.84,5.61.36,7.61l3.3,3.01c-.3.35-.49.76-.57,1.19-.45.13-.85.37-1.17.72l-.07.08c-.32.35-.53.78-.61,1.23-.45.13-.85.37-1.17.72l-.07.08c-.32.36-.53.78-.61,1.24-.45.13-.85.37-1.17.72l-.07.08c-.15.17-.28.35-.38.55-.19-.02-.38-.04-.57-.04-1.26,0-2.47.53-3.31,1.46l-.54.6-.96,1.05c-.87.96-1.32,2.2-1.26,3.5.06,1.3.62,2.5,1.58,3.37l6.72,6.11c.89.81,2.06,1.26,3.27,1.26,1.37,0,2.68-.58,3.6-1.59l.96-1.05.54-.6c1.01-1.11,1.36-2.61,1.05-4,.19-.12.36-.26.51-.43l.07-.08c.32-.36.53-.78.61-1.24.45-.13.85-.37,1.17-.72l.07-.08c.32-.35.53-.78.61-1.23.45-.13.85-.37,1.17-.72l.07-.08c.32-.36.53-.78.61-1.24.43-.12.82-.35,1.13-.68l3.3,3.01c.99.9,2.28,1.4,3.62,1.4,1.52,0,2.97-.64,3.99-1.76l1.15-1.27.21-.23c1.88-2.07,1.73-5.28-.34-7.16l-.23-.21h0s2.92-3.21,2.92-3.21l6.06,5.52h0s-.21.24-.21.24c-.91,1-1.37,2.3-1.31,3.65.06,1.36.65,2.6,1.65,3.51l.23.21.25.23.15.14.87.79c.99.9,2.28,1.4,3.62,1.4,1.52,0,2.97-.64,3.99-1.76l3.01-3.3c.34.29.75.49,1.18.57.12.44.37.85.72,1.17l.08.07c.35.32.78.53,1.23.61.12.44.37.85.72,1.17l.08.07c.35.32.77.53,1.23.61.12.44.37.85.72,1.17l.08.07c.17.15.35.28.55.38-.18,1.41.32,2.88,1.42,3.88l.6.54,1.05.96c.89.81,2.06,1.26,3.27,1.26,1.37,0,2.68-.58,3.6-1.59l6.11-6.72c.87-.96,1.32-2.2,1.26-3.5-.06-1.3-.62-2.5-1.58-3.37l-1.29-1.17-.36-.33c-.82-.75-1.89-1.16-3.01-1.16-.33,0-.67.04-.99.11-.12-.19-.26-.36-.43-.51l-.08-.07c-.35-.32-.77-.53-1.23-.61-.12-.44-.37-.85-.72-1.17l-.08-.07c-.35-.32-.78-.53-1.23-.61-.12-.44-.37-.85-.72-1.17l-.08-.07c-.35-.32-.77-.53-1.23-.61-.12-.42-.35-.81-.68-1.13l3.01-3.3c.97-1.06,1.46-2.44,1.39-3.88-.07-1.44-.69-2.76-1.75-3.73l-.87-.79-.11-.1-.29-.26-.23-.21c-.93-.85-2.14-1.32-3.41-1.32-1.43,0-2.8.6-3.75,1.65l-.21.24-6.06-5.52,6.99-7.68c4.47-4.91,4.11-12.54-.8-17.01C58.55,1.11,55.67,0,52.67,0h0Z"/><rect class="cls-13" x="28.9" y="-3.45" width="20.51" height="60.64" rx="10.25" ry="10.25" transform="translate(28.28 -19.36) rotate(42.3)"/><rect class="cls-5" x="11" y="40.33" width="10.7" height="23.18" rx="5.35" ry="5.35" transform="translate(39.21 2.52) rotate(42.3)"/><rect class="cls-12" x="34.28" y="5.13" width="5.87" height="47.74" rx="2.82" ry="2.82" transform="translate(29.21 -17.5) rotate(42.3)"/><rect class="cls-10" x="6.7" y="40.87" width="31.29" height="8.92" rx="3.6" ry="3.6" transform="translate(36.33 -3.24) rotate(42.3)"/><rect class="cls-7" x="7.2" y="41.07" width="31.29" height="7.43" rx="3.29" ry="3.29" transform="translate(36.09 -3.72) rotate(42.3)"/><rect class="cls-10" x="1.22" y="56.16" width="15.24" height="8.03" rx="3.08" ry="3.08" transform="translate(42.8 9.72) rotate(42.3)"/><rect class="cls-7" x="1.83" y="56.39" width="15.24" height="6.24" rx="2.72" ry="2.72" transform="translate(42.51 9.14) rotate(42.3)"/><rect class="cls-1" x="12.43" y="49.09" width="11.59" height="1.55" rx=".72" ry=".72" transform="translate(38.31 .72) rotate(42.3)"/><rect class="cls-1" x="10.58" y="51.12" width="11.59" height="1.55" rx=".72" ry=".72" transform="translate(39.19 2.49) rotate(42.3)"/><rect class="cls-1" x="8.72" y="53.16" width="11.59" height="1.55" rx=".72" ry=".72" transform="translate(40.08 4.27) rotate(42.3)"/><rect class="cls-1" x="6.87" y="55.19" width="11.59" height="1.55" rx=".72" ry=".72" transform="translate(40.97 6.05) rotate(42.3)"/><rect class="cls-3" x="11.75" y="42.08" width="25.56" height="1.69" rx=".84" ry=".84" transform="translate(35.28 -5.34) rotate(42.3)"/><rect class="cls-3" x="6.74" y="57.13" width="8.43" height="1.62" rx=".81" ry=".81" transform="translate(41.85 7.72) rotate(42.3)"/><rect class="cls-14" x="25.62" y="20.21" width="20.51" height="20.51" transform="translate(-10.8 36.49) rotate(-47.7)"/><rect class="cls-13" x="26.4" y="-5.3" width="20.51" height="66.14" rx="10.25" ry="10.25" transform="translate(-8.55 36.18) rotate(-47.7)"/><rect class="cls-6" x="58.4" y="40.83" width="10.7" height="23.18" rx="5.35" ry="5.35" transform="translate(-17.93 64.29) rotate(-47.7)"/><rect class="cls-12" x="35.89" y="3.21" width="5.89" height="53.1" rx="2.95" ry="2.95" transform="translate(-9.31 38.45) rotate(-47.7)"/><rect class="cls-4" x="41.51" y="41.97" width="31.29" height="8.92" rx="3.6" ry="3.6" transform="translate(-15.65 57.45) rotate(-47.7)"/><rect class="cls-11" x="40.96" y="42.21" width="31.29" height="7.43" rx="3.29" ry="3.29" transform="translate(-15.46 56.88) rotate(-47.7)"/><rect class="cls-4" x="64.37" y="55.92" width="15.24" height="8.03" rx="3.08" ry="3.08" transform="translate(-20.79 72.84) rotate(-47.7)"/><rect class="cls-11" x="63.71" y="56.21" width="15.24" height="6.24" rx="2.72" ry="2.72" transform="translate(-20.56 72.15) rotate(-47.7)"/><rect class="cls-8" x="55.89" y="49.77" width="11.59" height="1.55" rx=".72" ry=".72" transform="translate(-17.22 62.15) rotate(-47.7)"/><rect class="cls-8" x="57.92" y="51.63" width="11.59" height="1.55" rx=".72" ry=".72" transform="translate(-17.92 64.26) rotate(-47.7)"/><rect class="cls-8" x="59.96" y="53.48" width="11.59" height="1.55" rx=".72" ry=".72" transform="translate(-18.63 66.37) rotate(-47.7)"/><rect class="cls-8" x="62" y="55.33" width="11.59" height="1.55" rx=".72" ry=".72" transform="translate(-19.33 68.48) rotate(-47.7)"/><rect class="cls-2" x="42.46" y="43.02" width="25.85" height="2.33" rx="1.12" ry="1.12" transform="translate(-14.57 55.41) rotate(-47.7)"/><rect class="cls-2" x="65.61" y="56.2" width="10.74" height="2.04" rx=".72" ry=".72" transform="translate(-19.12 71.2) rotate(-47.7)"/></g></svg>