<svg id="Layer_2" xmlns="http://www.w3.org/2000/svg" viewBox="0 0 176.39 127"><defs><linearGradient id="linear-gradient" x1="86.46" y1="113.47" x2="80.86" y2="20.28" gradientUnits="userSpaceOnUse"><stop offset="0" stop-color="#dcffc7"/><stop offset="1" stop-color="#fff7d4"/></linearGradient><linearGradient id="linear-gradient-2" x1="82.46" y1="26.1" x2="81.68" y2="125.98" gradientUnits="userSpaceOnUse"><stop offset="0" stop-color="#ff6e6e"/><stop offset="1" stop-color="#ef5050"/></linearGradient><clipPath id="clippath"><path class="cls-14" d="M135.07 84.01c-.24 5.63-2.2 9.24-4.51 12.11-.92 1.16-1.9 2.2-2.84 3.19-2.11 2.23-3.93 4.15-4.66 6.85-1.18 4.33-.73 7.79.13 10.27-.93.31-1.89.61-2.88.89-1-2.95-1.5-6.98-.15-11.95.94-3.43 3.2-5.81 5.38-8.12.76-.8 1.53-1.61 2.25-2.47 2.21-2.64 4.07-5.8 4.29-10.9.21-5.03-1.21-8.14-2.86-11.74-2.41-5.27-5.41-11.82-4.21-26.48.07-.82.79-1.44 1.62-1.37.83.07 1.44.79 1.37 1.62-1.14 13.88 1.56 19.77 3.95 24.98 1.73 3.79 3.37 7.36 3.12 13.12Z"/></clipPath><clipPath id="clippath-1"><path class="cls-14" d="M29.18 84.13c.42 5.62 2.49 9.17 4.89 11.96.96 1.13 1.97 2.14 2.94 3.1 2.18 2.16 4.06 4.03 4.87 6.7 1.31 4.29.92 7.68.13 10.19.98.33 1.85.64 2.96.96.91-2.98 1.29-7.11-.22-12.03-1.05-3.4-3.38-5.71-5.63-7.95-.78-.78-1.58-1.56-2.33-2.4-2.29-2.57-4.25-5.67-4.63-10.76-.37-5.02.96-8.17 2.49-11.82 2.24-5.34 5.04-11.98 3.38-26.6-.1-.82-.83-1.41-1.66-1.32-.83.1-1.41.83-1.32 1.66 1.57 13.84-.94 19.81-3.17 25.09-1.61 3.84-3.14 7.46-2.71 13.21Z"/></clipPath><radialGradient id="radial-gradient" cx="83.11" cy="104.73" fx="83.11" fy="104.73" r="63.01" gradientTransform="matrix(1 0 0 .55 0 46.91)" gradientUnits="userSpaceOnUse"><stop offset=".2" stop-color="#b7b7b7"/><stop offset=".48" stop-color="#b1b1b1"/><stop offset=".84" stop-color="#a0a2a3"/><stop offset="1" stop-color="#97999b"/></radialGradient><style>.cls-1{fill:#1f6bb4}.cls-1,.cls-10,.cls-11,.cls-12,.cls-13,.cls-14,.cls-15,.cls-16,.cls-17,.cls-19,.cls-2,.cls-20,.cls-22,.cls-24,.cls-25,.cls-26,.cls-27,.cls-29,.cls-3,.cls-30,.cls-31,.cls-32,.cls-33,.cls-34,.cls-35,.cls-36,.cls-37,.cls-38,.cls-39,.cls-4,.cls-40,.cls-41,.cls-42,.cls-43,.cls-44,.cls-45,.cls-46,.cls-47,.cls-48,.cls-49,.cls-5,.cls-50,.cls-51,.cls-52,.cls-53,.cls-54,.cls-56,.cls-57,.cls-58,.cls-59,.cls-6,.cls-60,.cls-61,.cls-62,.cls-63,.cls-65,.cls-66,.cls-67,.cls-68,.cls-69,.cls-7,.cls-70,.cls-72,.cls-73,.cls-74,.cls-75,.cls-76,.cls-77,.cls-78,.cls-79,.cls-8,.cls-80,.cls-81,.cls-82,.cls-83,.cls-84,.cls-85,.cls-86,.cls-9{stroke-width:0}.cls-2{fill:#237bc1}.cls-3{fill:#299cdb}.cls-4{fill:#299ada}.cls-5{fill:#299ddc}.cls-6{fill:#2894d5}.cls-7{fill:#2ca9e6}.cls-8{fill:#2174bb}.cls-9{fill:#2db1ed}.cls-10{fill:#2484c8}.cls-11{fill:#227ac0}.cls-12{fill:#237dc2}.cls-13{fill:#2ba7e4}.cls-14{fill:none}.cls-15{fill:#2a9edd}.cls-16{fill:#2ba5e3}.cls-17{fill:#206eb6}.cls-19{fill:#2aa1df}.cls-20{fill:#2a9fde}.cls-22{fill:#268dd0}.cls-24{fill:#2caae7}.cls-25{fill:#2db0ec}.cls-26{fill:#237fc4}.cls-27{fill:#206cb4}.cls-29{fill:#2ba6e3}.cls-30{fill:#2898d8}.cls-31{fill:#2792d3}.cls-32{fill:#2586ca}.cls-33{fill:#2173ba}.cls-34{fill:#2172b9}.cls-35{fill:#2585c9}.cls-36{fill:#2790d1}.cls-37{fill:#2483c7}.cls-38{fill:#2eb4ef}.cls-39{fill:#1f6ab3}.cls-40{fill:#268ccf}.cls-41{fill:#000}.cls-42{fill:#fa0}.cls-43{fill:#2895d5}.cls-44{fill:#2ba4e2}.cls-45{fill:#2175bc}.cls-46{fill:#2588cc}.cls-47{fill:#2daeea}.cls-48{fill:#2999d9}.cls-49{fill:#268bce}.cls-50{fill:#2dade9}.cls-51{fill:#2279bf}.cls-52{fill:#2897d7}.cls-53{fill:#2cace8}.cls-54{fill:#2480c5}.cls-56{fill:#2cabe8}.cls-57{fill:#2896d6}.cls-58{fill:#2278be}.cls-59{fill:#1f69b2}.cls-60{fill:#2482c7}.cls-61{fill:#268ed0}.cls-62{fill:#206db5}.cls-63{fill:#2ca8e5}.cls-65{fill:#2eb3ee}.cls-66{fill:#206fb7}.cls-67{fill:#2793d4}.cls-68{fill:#2aa2e0}.cls-69{fill:#2171b9}.cls-70{fill:#2dafeb}.cls-72{fill:#2587cb}.cls-73{fill:#237ec3}.cls-74{fill:#2070b8}.cls-75{fill:#2481c6}.cls-76{fill:#2277be}.cls-77{fill:#2ba3e1}.cls-78{fill:#2276bd}.cls-79{fill:#2791d2}.cls-80{fill:#fff}.cls-81{fill:#2aa0df}.cls-82{fill:#2eb2ed}.cls-83{fill:#299bda}.cls-84{fill:#268acd}.cls-85{fill:#237cc2}.cls-86{fill:#2589cc}</style></defs><g id="Layer_2-2"><path d="M19.62 33c-27 17-22.58 57.42-8 72 17 17 31.96 22 79 22 51 0 77-25.86 77-60 0-19.21-9.3-47.8-38-51-25.67-2.86-31.95 5.66-55 8-23.76 2.41-37.87-1.79-55 9Z" style="fill:url(#linear-gradient);stroke-width:0"/><rect x="152.02" width="5.33" height="114.71" rx="2.21" ry="2.21" style="fill:#7c460b;stroke-width:0"/><rect x="133.61" y="4.59" width="42.79" height="26.46" rx="4.85" ry="4.85" style="fill:#ff4343;stroke-width:0"/><path class="cls-80" d="M154.98 8.32c-.65 0-1.18.55-1.17 1.2v11.27a1.184 1.184 0 1 0 2.37.03V9.52c0-.66-.51-1.19-1.17-1.2h-.03Zm-3.51 1.05c-.11 0-.21.01-.32.04-3.25.82-6.09 2.65-8.18 5.13-.42.5-.36 1.25.14 1.67s1.25.36 1.67-.14a13.34 13.34 0 0 1 6.95-4.36 1.185 1.185 0 0 0-.26-2.34Zm7.03 0a1.2 1.2 0 0 0-1.14 1.24c.02.53.39.98.91 1.1 2.76.69 5.17 2.25 6.95 4.36.42.5 1.17.57 1.67.14s.57-1.17.14-1.67a15.743 15.743 0 0 0-8.18-5.13c-.11-.03-.23-.04-.35-.04Zm-7.06 4.97c-.15 0-.29.03-.43.09-1.87.73-3.49 1.97-4.69 3.53-.4.52-.3 1.26.21 1.66.52.4 1.26.3 1.66-.21.95-1.23 2.22-2.2 3.68-2.77.61-.23.92-.91.7-1.53-.18-.47-.63-.78-1.13-.77Zm7.09 0c-.66 0-1.18.54-1.17 1.2 0 .49.31.93.77 1.1 1.46.57 2.73 1.54 3.68 2.77.4.52 1.15.61 1.66.21s.61-1.15.21-1.66c-1.21-1.56-2.82-2.8-4.69-3.53-.15-.06-.3-.09-.46-.09Zm-7.11 5.55c-.31 0-.6.14-.82.36-.37.37-.69.79-.96 1.24a1.184 1.184 0 1 0 2.02 1.24c0-.01.01-.02.02-.03.17-.28.37-.54.6-.77.47-.46.48-1.21.02-1.68-.23-.24-.55-.37-.89-.36Zm7.13 0a1.186 1.186 0 0 0-.83 2.04c.23.23.43.49.6.77.33.56 1.06.75 1.62.42s.75-1.06.42-1.62c-.27-.45-.59-.87-.96-1.24a1.18 1.18 0 0 0-.85-.36ZM155 23.76c-.98 0-1.78.8-1.78 1.78s.8 1.78 1.78 1.78 1.78-.8 1.78-1.78-.8-1.78-1.78-1.78Z"/><ellipse cx="83.11" cy="104.73" rx="54.89" ry="17.13" style="fill:url(#radial-gradient);stroke-width:0"/><path d="M100.27 27.54H63.8c-7.73 0-14 6.27-14 14v76.8c9.23 2.21 20.77 3.52 33.3 3.52 11.58 0 22.32-1.12 31.17-3.03V41.54c0-7.73-6.27-14-14-14Z" style="fill:url(#linear-gradient-2);stroke-width:0"/><path class="cls-41" d="M114.27 95.97c-.33 0-.66-.16-.85-.46-.29-.47-.16-1.08.31-1.38.15-.1 11.22-7.49 12.6-29.39.03-.55.5-.96 1.06-.94.55.04.97.51.94 1.06-1.45 23.04-13.03 30.64-13.52 30.95-.17.11-.35.16-.54.16Z"/><path class="cls-41" d="M127.52 66.17c-.67 0-1.27-.45-1.45-1.12-.33-1.25-.99-3.29-1.42-3.92-.47-.68-.29-1.62.39-2.08.68-.47 1.62-.29 2.08.39.54.79 1.05 2.22 1.4 3.34.16-.06.31-.12.44-.17a1.5 1.5 0 0 1 1.96.8 1.5 1.5 0 0 1-.8 1.96c-.15.06-1.46.61-2.36.77-.09.02-.18.02-.26.02Z"/><path class="cls-41" d="M127.16 66.37c-1.09 0-1.97-.97-2.7-1.92a1.497 1.497 0 0 1 2.16-2.05c0-.22 0-.47-.04-.76a1.497 1.497 0 0 1 2.97-.37c.34 2.77-.71 4.13-1.13 4.56-.29.32-.71.52-1.17.54h-.1Z"/><g style="clip-path:url(#clippath)"><path class="cls-38" d="m135.32 46.61-16.51-.27v-2.12h16.51v2.39z"/><path class="cls-38" d="m135.32 47.51-16.51-.27v-.9l16.51.27v.9z"/><path class="cls-65" d="m135.32 48.41-16.51-.27v-.9l16.51.27v.9z"/><path class="cls-82" d="m135.32 49.32-16.51-.27v-.91l16.51.27v.91z"/><path class="cls-9" d="m135.32 50.22-16.51-.27v-.9l16.51.27v.9z"/><path class="cls-25" d="m135.32 51.12-16.51-.27v-.9l16.51.27v.9z"/><path class="cls-70" d="m135.32 52.02-16.51-.27v-.9l16.51.27v.9z"/><path class="cls-47" d="m135.32 52.92-16.51-.26v-.91l16.51.27v.9z"/><path class="cls-50" d="m135.32 53.83-16.51-.27v-.9l16.51.26v.91z"/><path class="cls-53" d="m135.32 54.73-16.51-.27v-.9l16.51.27v.9z"/><path class="cls-56" d="m135.32 55.63-16.51-.27v-.9l16.51.27v.9z"/><path class="cls-24" d="m135.32 56.53-16.51-.27v-.9l16.51.27v.9z"/><path class="cls-7" d="m135.32 57.44-16.51-.27v-.91l16.51.27v.91z"/><path class="cls-63" d="m135.32 58.34-16.51-.27v-.9l16.51.27v.9z"/><path class="cls-13" d="m135.32 59.24-16.51-.27v-.9l16.51.27v.9z"/><path class="cls-29" d="m135.32 60.14-16.51-.27v-.9l16.51.27v.9z"/><path class="cls-16" d="m135.32 61.04-16.51-.26v-.91l16.51.27v.9z"/><path class="cls-44" d="m135.32 61.95-16.51-.27v-.9l16.51.26v.91z"/><path class="cls-77" d="m135.32 62.85-16.51-.27v-.9l16.51.27v.9z"/><path class="cls-68" d="m135.32 63.75-16.51-.27v-.9l16.51.27v.9z"/><path class="cls-19" d="m135.32 64.65-16.51-.27v-.9l16.51.27v.9z"/><path class="cls-81" d="m135.32 65.56-16.51-.27v-.91l16.51.27v.91z"/><path class="cls-20" d="m135.32 66.46-16.51-.27v-.9l16.51.27v.9z"/><path class="cls-15" d="m135.32 67.36-16.51-.27v-.9l16.51.27v.9z"/><path class="cls-5" d="m135.32 68.26-16.51-.27v-.9l16.51.27v.9z"/><path class="cls-3" d="m135.32 69.16-16.51-.26v-.91l16.51.27v.9z"/><path class="cls-83" d="m135.32 70.07-16.51-.27v-.9l16.51.26v.91z"/><path class="cls-4" d="m135.32 70.97-16.51-.27v-.9l16.51.27v.9z"/><path class="cls-48" d="m135.32 71.87-16.51-.27v-.9l16.51.27v.9z"/><path class="cls-30" d="m135.32 72.77-16.51-.26v-.91l16.51.27v.9z"/><path class="cls-52" d="m135.32 73.68-16.51-.27v-.9l16.51.26v.91z"/><path class="cls-57" d="m135.32 74.58-16.51-.27v-.9l16.51.27v.9z"/><path class="cls-43" d="m135.32 75.48-16.51-.27v-.9l16.51.27v.9z"/><path class="cls-6" d="m135.32 76.38-16.51-.27v-.9l16.51.27v.9z"/><path class="cls-67" d="m135.32 77.28-16.51-.26v-.91l16.51.27v.9z"/><path class="cls-31" d="m135.32 78.19-16.51-.27v-.9l16.51.26v.91z"/><path class="cls-79" d="m135.32 79.09-16.51-.27v-.9l16.51.27v.9z"/><path class="cls-36" d="m135.32 79.99-16.51-.27v-.9l16.51.27v.9z"/><path class="cls-61" d="m135.32 80.89-16.51-.26v-.91l16.51.27v.9z"/><path class="cls-22" d="m135.32 81.8-16.51-.27v-.9l16.51.26v.91z"/><path class="cls-40" d="m135.32 82.7-16.51-.27v-.9l16.51.27v.9z"/><path class="cls-49" d="m135.32 83.6-16.51-.27v-.9l16.51.27v.9z"/><path class="cls-84" d="m135.32 84.5-16.51-.27v-.9l16.51.27v.9z"/><path class="cls-86" d="m135.32 85.4-16.51-.26v-.91l16.51.27v.9z"/><path class="cls-46" d="m135.32 86.31-16.51-.27v-.9l16.51.26v.91z"/><path class="cls-72" d="m135.32 87.21-16.51-.27v-.9l16.51.27v.9z"/><path class="cls-32" d="m135.32 88.11-16.51-.27v-.9l16.51.27v.9z"/><path class="cls-35" d="m135.32 89.01-16.51-.26v-.91l16.51.27v.9z"/><path class="cls-10" d="m135.32 89.92-16.51-.27v-.9l16.51.26v.91z"/><path class="cls-37" d="m135.32 90.82-16.51-.27v-.9l16.51.27v.9z"/><path class="cls-60" d="m135.32 91.72-16.51-.27v-.9l16.51.27v.9z"/><path class="cls-75" d="m135.32 92.62-16.51-.27v-.9l16.51.27v.9z"/><path class="cls-54" d="m135.32 93.52-16.51-.26v-.91l16.51.27v.9z"/><path class="cls-26" d="m135.32 94.43-16.51-.27v-.9l16.51.26v.91z"/><path class="cls-73" d="m135.32 95.33-16.51-.27v-.9l16.51.27v.9z"/><path class="cls-12" d="m135.32 96.23-16.51-.27v-.9l16.51.27v.9z"/><path class="cls-85" d="m135.32 97.13-16.51-.26v-.91l16.51.27v.9z"/><path class="cls-2" d="m135.32 98.04-16.51-.27v-.9l16.51.26v.91z"/><path class="cls-11" d="m135.32 98.94-16.51-.27v-.9l16.51.27v.9z"/><path class="cls-51" d="m135.32 99.84-16.51-.27v-.9l16.51.27v.9z"/><path class="cls-58" d="m135.32 100.74-16.51-.27v-.9l16.51.27v.9z"/><path class="cls-76" d="m135.32 101.64-16.51-.26v-.91l16.51.27v.9z"/><path class="cls-78" d="m135.32 102.55-16.51-.27v-.9l16.51.26v.91z"/><path class="cls-45" d="m135.32 103.45-16.51-.27v-.9l16.51.27v.9z"/><path class="cls-8" d="m135.32 104.35-16.51-.27v-.9l16.51.27v.9z"/><path class="cls-33" d="m135.32 105.25-16.51-.26v-.91l16.51.27v.9z"/><path class="cls-34" d="m135.32 106.16-16.51-.27v-.9l16.51.26v.91z"/><path class="cls-69" d="m135.32 107.06-16.51-.27v-.9l16.51.27v.9z"/><path class="cls-74" d="m135.32 107.96-16.51-.27v-.9l16.51.27v.9z"/><path class="cls-66" d="m135.32 108.86-16.51-.27v-.9l16.51.27v.9z"/><path class="cls-17" d="m135.32 109.76-16.51-.26v-.91l16.51.27v.9z"/><path class="cls-62" d="m135.32 110.67-16.51-.27v-.9l16.51.26v.91z"/><path class="cls-27" d="m135.32 111.57-16.51-.27v-.9l16.51.27v.9z"/><path class="cls-1" d="m135.32 112.47-16.51-.27v-.9l16.51.27v.9z"/><path class="cls-39" d="m135.32 113.37-16.51-.26v-.91l16.51.27v.9z"/><path class="cls-59" d="m135.32 114.28-16.51-.27v-.9l16.51.26v.91z"/><path class="cls-59" d="m118.81 114.01 16.51.27v3.04h-16.51v-3.31z"/></g><path class="cls-42" d="M122.32 45.79h-.07l-3.57-.24a.996.996 0 1 1 .13-1.99l3.57.24a.996.996 0 0 1-.07 1.99ZM123.65 42.69c-.25 0-.5-.09-.69-.28l-2.59-2.46a.996.996 0 1 1 1.37-1.45l2.59 2.46a.996.996 0 0 1-.68 1.72ZM134.84 46.78h-.09l-3.56-.33a1 1 0 0 1-.9-1.09c.05-.55.54-.96 1.09-.9l3.56.33a1 1 0 0 1 .9 1.09 1 1 0 0 1-1 .91ZM130.46 43.17c-.32 0-.63-.15-.83-.43a.997.997 0 0 1 .26-1.39l2.95-2.02c.46-.31 1.08-.19 1.39.26.31.46.2 1.08-.26 1.39L131.02 43c-.17.12-.37.17-.56.17ZM127.12 41.15h-.06c-.55-.03-.97-.51-.94-1.06l.22-3.54c.03-.55.52-.96 1.06-.94.55.03.97.51.94 1.06l-.22 3.54c-.03.53-.47.94-1 .94Z"/><circle class="cls-41" cx="128.12" cy="61.35" r="1.06"/><circle class="cls-41" cx="125.65" cy="63.35" r="1.06"/><path class="cls-41" d="M50.31 95.44a.96.96 0 0 1-.51-.14c-.5-.3-12.31-7.53-14.48-30.51a1 1 0 1 1 1.99-.19c2.07 21.89 13.4 28.91 13.51 28.98.47.28.63.9.35 1.37-.19.31-.52.49-.86.49Z"/><path class="cls-41" d="M36.12 66.07c-.07 0-.14 0-.22-.02-.9-.13-2.23-.64-2.38-.69-.77-.3-1.16-1.17-.86-1.94.3-.77 1.17-1.16 1.94-.86.13.05.28.1.44.16.32-1.13.79-2.58 1.3-3.38.44-.7 1.37-.9 2.07-.46.7.44.9 1.37.46 2.07-.41.64-1 2.7-1.29 3.96-.16.69-.77 1.16-1.46 1.16Z"/><path class="cls-41" d="M36.47 66.26h-.04c-.46 0-.88-.19-1.19-.51-.43-.41-1.53-1.74-1.27-4.52.08-.83.81-1.43 1.63-1.35a1.5 1.5 0 0 1 1.35 1.63c-.03.29-.03.54-.02.76.51-.46 1.29-.53 1.88-.11.67.48.83 1.42.35 2.09-.71.99-1.58 2-2.7 2Z"/><g style="clip-path:url(#clippath-1)"><path class="cls-38" d="m45.12 44.07.09 1.86-16.46.78v-2.64h16.37z"/><path class="cls-38" d="m45.21 45.93.04.9-16.5.79v-.91l16.46-.78z"/><path class="cls-65" d="m45.25 46.83.05.9-16.55.79v-.9l16.5-.79z"/><path class="cls-82" d="m45.3 47.73.04.91-16.59.79v-.91l16.55-.79z"/><path class="cls-9" d="m45.34 48.64.04.9-16.63.79v-.9l16.59-.79z"/><path class="cls-25" d="m45.38 49.54.05.9-16.68.79v-.9l16.63-.79z"/><path class="cls-70" d="m45.43 50.44.04.9-16.72.8v-.91l16.68-.79z"/><path class="cls-47" d="m45.47 51.34.04.91-16.76.79v-.9l16.72-.8z"/><path class="cls-50" d="m45.51 52.25.04.9-16.8.8v-.91l16.76-.79z"/><path class="cls-53" d="m45.55 53.15.05.9-16.85.8v-.9l16.8-.8z"/><path class="cls-56" d="m45.6 54.05.04.9-16.89.8v-.9l16.85-.8z"/><path class="cls-24" d="m45.64 54.95.04.9-16.93.81v-.91l16.89-.8z"/><path class="cls-7" d="m45.68 55.85.05.91-16.98.8v-.9l16.93-.81z"/><path class="cls-63" d="m45.73 56.76.04.9-17.02.81v-.91l16.98-.8z"/><path class="cls-13" d="m45.77 57.66.04.9-17.06.81v-.9l17.02-.81z"/><path class="cls-29" d="m45.81 58.56.04.9-17.1.81v-.9l17.06-.81z"/><path class="cls-16" d="m45.85 59.46.05.9-17.15.82v-.91l17.1-.81z"/><path class="cls-44" d="m45.9 60.36.04.91-17.19.81v-.9l17.15-.82z"/><path class="cls-77" d="m45.94 61.27.04.9-17.23.82v-.91l17.19-.81z"/><path class="cls-68" d="m45.98 62.17.05.9-17.28.82v-.9l17.23-.82z"/><path class="cls-19" d="m46.03 63.07.04.9-17.32.83v-.91l17.28-.82z"/><path class="cls-81" d="m46.07 63.97.04.9-17.36.83v-.9l17.32-.83z"/><path class="cls-20" d="m46.11 64.87.04.91-17.4.82v-.9l17.36-.83z"/><path class="cls-15" d="m46.15 65.78.05.9-17.45.83v-.91l17.4-.82z"/><path class="cls-5" d="m46.2 66.68.04.9-17.49.83v-.9l17.45-.83z"/><path class="cls-3" d="m46.24 67.58.01.21v.69l-17.5.84v-.91l17.49-.83z"/><path class="cls-83" d="m46.25 69.39-17.5.83v-.9l17.5-.84v.91z"/><path class="cls-4" d="m46.25 70.29-17.5.83v-.9l17.5-.83v.9z"/><path class="cls-48" d="m46.25 71.2-17.5.83v-.91l17.5-.83v.91z"/><path class="cls-30" d="m46.25 72.1-17.5.83v-.9l17.5-.83v.9z"/><path class="cls-52" d="m46.25 73.01-17.5.83v-.91l17.5-.83v.91z"/><path class="cls-57" d="m46.25 73.91-17.5.83v-.9l17.5-.83v.9z"/><path class="cls-43" d="m46.25 74.81-17.5.84v-.91l17.5-.83v.9z"/><path class="cls-6" d="m46.25 75.72-17.5.83v-.9l17.5-.84v.91z"/><path class="cls-67" d="m46.25 76.62-17.5.83v-.9l17.5-.83v.9z"/><path class="cls-31" d="m46.25 77.53-17.5.83v-.91l17.5-.83v.91z"/><path class="cls-79" d="m46.25 78.43-17.5.83v-.9l17.5-.83v.9z"/><path class="cls-36" d="m46.25 79.33-17.5.84v-.91l17.5-.83v.9z"/><path class="cls-61" d="m46.25 80.24-17.5.83v-.9l17.5-.84v.91z"/><path class="cls-22" d="m46.25 81.14-17.5.83v-.9l17.5-.83v.9z"/><path class="cls-40" d="m46.25 82.05-17.5.83v-.91l17.5-.83v.91z"/><path class="cls-49" d="m46.25 82.95-17.5.83v-.9l17.5-.83v.9z"/><path class="cls-84" d="m46.25 83.86-17.5.83v-.91l17.5-.83v.91z"/><path class="cls-86" d="m46.25 84.76-17.5.83v-.9l17.5-.83v.9z"/><path class="cls-46" d="m46.25 85.66-17.5.83v-.9l17.5-.83v.9z"/><path class="cls-72" d="m46.25 86.57-17.5.83v-.91l17.5-.83v.91z"/><path class="cls-32" d="m46.25 87.47-17.5.83v-.9l17.5-.83v.9z"/><path class="cls-35" d="m46.25 88.38-17.5.83v-.91l17.5-.83v.91z"/><path class="cls-10" d="m46.25 89.28-17.5.83v-.9l17.5-.83v.9z"/><path class="cls-37" d="m46.25 90.18-17.5.84v-.91l17.5-.83v.9z"/><path class="cls-60" d="m46.25 91.09-17.5.83v-.9l17.5-.84v.91z"/><path class="cls-75" d="m46.25 91.99-17.5.83v-.9l17.5-.83v.9z"/><path class="cls-54" d="m46.25 92.9-17.5.83v-.91l17.5-.83v.91z"/><path class="cls-26" d="m46.25 93.8-17.5.83v-.9l17.5-.83v.9z"/><path class="cls-73" d="m46.25 94.7-17.5.84v-.91l17.5-.83v.9z"/><path class="cls-12" d="m46.25 95.61-17.5.83v-.9l17.5-.84v.91z"/><path class="cls-85" d="m46.25 96.51-17.5.83v-.9l17.5-.83v.9z"/><path class="cls-2" d="m46.25 97.42-17.5.83v-.91l17.5-.83v.91z"/><path class="cls-11" d="m46.25 98.32-17.5.83v-.9l17.5-.83v.9z"/><path class="cls-51" d="m46.25 99.23-17.5.83v-.91l17.5-.83v.91z"/><path class="cls-58" d="m46.25 100.13-17.5.83v-.9l17.5-.83v.9z"/><path class="cls-76" d="m46.25 101.03-17.5.84v-.91l17.5-.83v.9z"/><path class="cls-78" d="m46.25 101.94-17.5.83v-.9l17.5-.84v.91z"/><path class="cls-45" d="m46.25 102.84-17.5.83v-.9l17.5-.83v.9z"/><path class="cls-8" d="m46.25 103.75-17.5.83v-.91l17.5-.83v.91z"/><path class="cls-33" d="m46.25 104.65-17.5.83v-.9l17.5-.83v.9z"/><path class="cls-34" d="m46.25 105.55-17.5.84v-.91l17.5-.83v.9z"/><path class="cls-69" d="m46.25 106.46-17.5.83v-.9l17.5-.84v.91z"/><path class="cls-74" d="m46.25 107.36-17.5.83v-.9l17.5-.83v.9z"/><path class="cls-66" d="m46.25 108.27-17.5.83v-.91l17.5-.83v.91z"/><path class="cls-17" d="m46.25 109.17-17.5.83v-.9l17.5-.83v.9z"/><path class="cls-62" d="m46.25 110.08-17.5.83V110l17.5-.83v.91z"/><path class="cls-27" d="m46.25 110.98-17.5.83v-.9l17.5-.83v.9z"/><path class="cls-1" d="m46.25 111.88-17.5.84v-.91l17.5-.83v.9z"/><path class="cls-39" d="m46.25 112.79-17.5.83v-.9l17.5-.84v.91z"/><path class="cls-59" d="m46.25 113.69-17.5.83v-.9l17.5-.83v.9z"/><path class="cls-59" d="m28.75 114.52 17.5-.83v3.36h-17.5v-2.53z"/></g><path class="cls-42" d="M40.69 45.54a.998.998 0 0 1-.09-1.99l3.56-.35a1 1 0 1 1 .19 1.99l-3.56.35h-.1ZM39.27 42.47a1.001 1.001 0 0 1-.7-1.71l2.51-2.54a.999.999 0 0 1 1.42 0c.39.39.4 1.02 0 1.42l-2.51 2.54c-.2.2-.45.3-.71.3ZM28.22 46.92c-.5 0-.93-.37-.99-.88-.07-.55.32-1.05.87-1.12l3.55-.44a1.002 1.002 0 1 1 .25 1.99l-3.55.44h-.12ZM32.48 43.17c-.18 0-.37-.05-.54-.16l-3.01-1.93c-.46-.3-.6-.92-.3-1.38.3-.47.92-.6 1.38-.3l3.01 1.93c.46.3.6.92.3 1.38-.19.3-.51.46-.84.46ZM35.76 41.04c-.51 0-.95-.39-1-.91l-.33-3.53a1 1 0 1 1 1.99-.19l.33 3.53a1 1 0 0 1-.9 1.09h-.09Z"/><circle class="cls-41" cx="35.41" cy="61.27" r="1.06"/><circle class="cls-41" cx="37.94" cy="63.19" r="1.06"/><path d="M82.29 68.11c-4.92 0-6.98 7.87-.49 8.37s6.65-8.36.49-8.37Z" style="fill:#3f1010;stroke-width:0"/><path class="cls-41" d="M82.33 76.94c-.18 0-.37 0-.57-.02-3.43-.26-4.57-2.41-4.5-4.33.09-2.37 2.04-4.92 5.01-4.92 1.96 0 3.56.88 4.38 2.4.81 1.5.75 3.38-.17 4.8-.52.8-1.73 2.08-4.17 2.08Zm-.05-8.39c-2.45 0-4.04 2.11-4.12 4.07-.08 1.95 1.3 3.23 3.67 3.41 1.75.14 3.14-.45 3.92-1.66.74-1.15.8-2.67.14-3.89-.67-1.24-1.95-1.93-3.6-1.93Z"/><path d="M82.04 73.37c-1.44 0-2.07 1.83-1.67 2.23s3.18.72 3.74 0-.47-2.23-2.06-2.23Z" style="fill:#ff7878;stroke-width:0"/><path class="cls-80" d="M80.26 69.12s.27 1.23 1.1 1.31c.49.05 1.01-.18 1.01-.18s.36.24 1.1.18.99-1.35.99-1.35-.87-.62-2.22-.56-1.99.6-1.99.6Z"/><circle class="cls-41" cx="71.75" cy="61.74" r="3.06"/><circle class="cls-41" cx="92.32" cy="61.74" r="3.06"/><path class="cls-41" d="M94.99 57.49c-.17 0-.34-.04-.49-.13-2.12-1.2-4.23-.05-4.32 0a1 1 0 0 1-1.36-.38.999.999 0 0 1 .37-1.36c.13-.07 3.16-1.78 6.3 0a1 1 0 0 1-.49 1.87ZM74.4 57.15c-.17 0-.34-.04-.49-.13-2.12-1.2-4.23-.05-4.32 0a1 1 0 0 1-1.36-.38.999.999 0 0 1 .37-1.36c.13-.07 3.16-1.78 6.3 0a1 1 0 0 1-.49 1.87Z"/></g></svg>