<svg xmlns="http://www.w3.org/2000/svg" viewBox="0 0 252.8 69.5" xmlns:v="https://vecta.io/nano"><style>.A{isolation:isolate}</style><path d="M80.6 54.1V10.9h8.3v15.6c2.6-2.9 5.6-4.4 9.1-4.4s7 1.4 9.5 4.1 3.7 6.7 3.7 11.9-1.3 9.5-3.8 12.3c-2.5 2.9-5.6 4.3-9.3 4.3s-3.5-.4-5.3-1.3c-1.7-.9-3.2-2.2-4.5-4V54h-7.7 0zm8.2-16.4c0 3.2.5 5.6 1.5 7.2 1.4 2.2 3.3 3.3 5.7 3.3s3.4-.8 4.7-2.3c1.3-1.6 1.9-4 1.9-7.4s-.6-6.2-1.9-7.7c-1.3-1.6-3-2.4-5-2.4s-3.6.8-4.9 2.3-2 3.9-2 7zm27.1.3c0-2.7.7-5.4 2-8 1.4-2.6 3.3-4.5 5.8-5.9s5.3-2 8.3-2c4.7 0 8.6 1.5 11.6 4.6s4.5 7 4.5 11.6-1.5 8.7-4.6 11.8-6.9 4.7-11.5 4.7-5.6-.6-8.2-1.9-4.6-3.2-5.9-5.7c-1.4-2.5-2-5.6-2-9.1h0zm8.5.4c0 3.1.7 5.5 2.2 7.1s3.3 2.5 5.4 2.5 4-.8 5.4-2.5 2.2-4 2.2-7.2-.7-5.4-2.2-7.1-3.3-2.5-5.4-2.5-4 .8-5.4 2.5-2.2 4-2.2 7.1h0zm58.7 15.7h-8.3v-16c0-3.4-.2-5.6-.5-6.6-.4-1-.9-1.8-1.7-2.3s-1.8-.8-2.9-.8-2.7.4-3.9 1.2c-1.1.8-1.9 1.8-2.3 3.1s-.6 3.7-.6 7.2v14.2h-8.3V22.8h7.7v4.6c2.7-3.5 6.2-5.3 10.3-5.3s3.5.3 5 1 2.7 1.5 3.4 2.5c.8 1 1.3 2.2 1.6 3.5s.5 3.2.5 5.6v19.4z" class="A" fill="#fff"/><g fill="#fff"><path class="A" d="M187.2 54.1v-6.5l11.7-13.5 4.3-4.7-3.8.1h-11v-6.8h25.9v5.9l-12 13.8-4.2 4.6 4.3-.2h12.8v7.3h-28zM218.1 38c0-2.7.7-5.4 2-8 1.4-2.6 3.3-4.5 5.8-5.9s5.3-2 8.3-2c4.7 0 8.6 1.5 11.6 4.6s4.5 7 4.5 11.6-1.5 8.7-4.6 11.8-6.9 4.7-11.5 4.7-5.6-.6-8.2-1.9-4.6-3.2-5.9-5.7c-1.4-2.5-2-5.6-2-9.1h0zm8.5.4c0 3.1.7 5.5 2.2 7.1s3.3 2.5 5.4 2.5 4-.8 5.4-2.5c1.5-1.6 2.2-4 2.2-7.2s-.7-5.4-2.2-7.1c-1.5-1.6-3.3-2.5-5.4-2.5s-4 .8-5.4 2.5-2.2 4-2.2 7.1h0z"/><circle cx="55.6" cy="59.9" r="9.6"/></g><g fill="#009eff"><circle cx="45.2" cy="11.2" r="9.7"/><path d="M47.1,29.1l-4,12.2c-.6,1.8,1,3.6,2.9,3.2l12.5-2.7c1.9-.4,2.6-2.7,1.3-4.2l-8.6-9.5c-1.3-1.4-3.7-.9-4.3.9h.2Z"/><rect x="1.4" y="29.2" width="15.7" height="15.7" rx="2.4" transform="matrix(.951057 -.309017 .309017 .951057 -11 4.7)"/><rect x="22.9" y="43.6" width="15.9" height="25.9" rx="2.5"/><path d="M8 8.2h0c6.1-4.5 14.8-3.1 19.2 3h0c.9 1.2.6 2.9-.6 3.7l-9 6.5c-1.2.9-2.9.6-3.7-.6l-6.5-9c-.9-1.2-.6-2.9.6-3.7h0zm21.4 9.4l-9.7 7c-.8.6-1.2 1.7-.9 2.7l3.7 11.4a2.37 2.37 0 0 0 2.3 1.7h12c1 0 2-.7 2.3-1.7l3.7-11.4c.3-1 0-2.1-.9-2.7l-9.7-7.1c-.8-.6-2-.6-2.8 0h0z"/></g></svg>