<svg id="c2113948-1d01-463c-8360-7908a62a5da5" data-name="Layer 1" xmlns="http://www.w3.org/2000/svg" viewBox="0 0 256 256"><title>friends_add_circle</title><g id="022ed2d3-572b-4916-a62d-8d885eb4f871" data-name="Group 1067"><g id="5889927e-843f-4266-943d-94a085e1f71f" data-name="Group 1063"><circle id="73f8248c-79bc-424c-aa4c-375e51a9da32" data-name="Ellipse 40" cx="128" cy="128" r="112" style="fill:#fc5e5e"/></g></g><g id="315fb40b-3ef0-49fe-ad13-1efe84545793" data-name="Group 1167"><g id="34f10630-db01-42d2-a0ae-012cbd7a5bdf" data-name="Group 1145"><g id="3b1506e3-9bd1-481e-a180-216d4958ac5e" data-name="Group 973"><g id="9ecb9da1-14ba-441d-a31a-d6debaa7b601" data-name="Group 242"><ellipse id="b28ddd7d-7256-4aa1-b648-9525d9c03d3d" data-name="Ellipse 7" cx="75.73333" cy="131.73333" rx="37.33333" ry="33.6" style="fill:#fff"/></g><g id="4bbb7e27-eb55-4aae-b22c-4cf9eb3577f3" data-name="Group 243"><g id="c9eb2519-2526-4b1b-a44d-5c275e03f7e8" data-name="Line 5"><path d="M196.90282,107.75781H132.0324a14.93334,14.93334,0,0,1,0-29.86668h64.87042a14.93334,14.93334,0,0,1,0,29.86668Z" style="fill:#fff"/></g><g id="eb8cade8-d8f4-4ff0-a45f-419370e02525" data-name="Line 6"><path d="M164.46761,140.19247a14.93211,14.93211,0,0,1-14.93278-14.93279V60.38926a14.93279,14.93279,0,1,1,29.86557,0v64.87042A14.93211,14.93211,0,0,1,164.46761,140.19247Z" style="fill:#fff"/></g></g></g></g></g><path d="M121.02618,208.10987c0-13.1264-16.70326-23.75895-30.9492-23.75895H43.64173a34.49405,34.49405,0,0,0-11.24821,2.01134,111.9305,111.9305,0,0,0,93.57635,53.612Z" style="fill:#fff"/></svg>