<svg id="68ea7bc0-edb5-436b-96bb-e2123ae54698" data-name="Layer 1" xmlns="http://www.w3.org/2000/svg" viewBox="0 0 256 256"><title>their_turn_circle</title><g id="3f139992-579a-4532-adaa-98d913ed6496" data-name="Group 1063"><circle id="aba589ea-a808-496f-b68a-4b00c3dff08b" data-name="Ellipse 40" cx="128" cy="128" r="112" style="fill:#1cb6c6"/></g><path d="M179.99291,150.56511l-47.26074,22.9671-18.11343-37.26774a9.23837,9.23837,0,0,0-16.55443,8.18884l22.0768,45.42871a9.24984,9.24984,0,0,0,12.34789,4.27145l55.56417-27.00229a9.25185,9.25185,0,0,0,4.27651-12.33749l-.0101-.0208A9.25835,9.25835,0,0,0,179.99291,150.56511Z" style="fill:#fff"/><path d="M233.68408,165.14575a106.1576,106.1576,0,0,0-211.36816.00006,112.04487,112.04487,0,0,0,26.95361,42.50495,85.17166,85.17166,0,1,1,157.43408.02588A112.04328,112.04328,0,0,0,233.68408,165.14575Z" style="fill:#fff"/></svg>