<?xml version="1.0" encoding="UTF-8"?><svg id="Layer_2" xmlns="http://www.w3.org/2000/svg" viewBox="0 0 62.48 66.23"><defs><style>.cls-1{fill:#fffee6;}.cls-1,.cls-2,.cls-3,.cls-4,.cls-5,.cls-6,.cls-7,.cls-8,.cls-9{stroke-width:0px;}.cls-2{fill:#c14000;}.cls-3{fill:#d8d8d8;}.cls-4{fill:#ffc5c5;}.cls-5{fill:#ffbc00;}.cls-6{fill:#000;}.cls-7{fill:#f50;}.cls-10{opacity:.5;}.cls-8{fill:#ffe000;}.cls-9{fill:#fff;}</style></defs><g id="Layer_2-2"><path class="cls-5" d="M35.94,13.33l3,3.66c.67.82,1.54,1.45,2.53,1.84l4.41,1.72c3.63,1.42,5.06,5.81,2.95,9.09l-2.55,3.98c-.57.89-.91,1.92-.97,2.98l-.27,4.72c-.23,3.89-3.96,6.61-7.73,5.62l-4.57-1.2c-1.03-.27-2.1-.27-3.13,0l-4.57,1.2c-3.77.99-7.51-1.72-7.73-5.62l-.27-4.72c-.06-1.06-.39-2.08-.97-2.98l-2.55-3.98c-2.11-3.28-.68-7.67,2.95-9.09l4.41-1.72c.99-.39,1.86-1.02,2.53-1.84l3-3.66c2.47-3.02,7.08-3.02,9.56,0Z"/><rect class="cls-8" x="6.8" y="8.55" width="5.98" height="9.4" rx="2.99" ry="2.99" transform="translate(-6.59 11.48) rotate(-47.38)"/><rect class="cls-8" x="2.52" y="27.36" width="5.98" height="9.4" rx="2.99" ry="2.99" transform="translate(-26.88 35.04) rotate(-85.5)"/><rect class="cls-8" x="27.31" y="0" width="5.98" height="9.4" rx="2.99" ry="2.99"/><rect class="cls-8" x="5.09" y="21.37" width="4.27" height="4.27" rx="2.14" ry="2.14"/><rect class="cls-8" x="17.91" y="8.55" width="4.27" height="4.27" rx="2.14" ry="2.14"/><rect class="cls-8" x="46.98" y="10.26" width="9.4" height="5.98" rx="2.99" ry="2.99" transform="translate(4.68 38.5) rotate(-42.62)"/><rect class="cls-8" x="51.25" y="29.07" width="9.4" height="5.98" rx="2.99" ry="2.99" transform="translate(-2.34 4.49) rotate(-4.5)"/><rect class="cls-8" x="52.1" y="21.37" width="4.27" height="4.27" rx="2.14" ry="2.14"/><rect class="cls-8" x="39.28" y="8.55" width="4.27" height="4.27" rx="2.14" ry="2.14"/><path class="cls-8" d="M35.59,14.57l2.78,3.39c.62.76,1.43,1.35,2.35,1.71l4.08,1.59c3.37,1.31,4.69,5.38,2.74,8.43l-2.37,3.69c-.53.83-.84,1.78-.9,2.76l-.25,4.38c-.21,3.61-3.67,6.12-7.17,5.21l-4.24-1.11c-.95-.25-1.95-.25-2.9,0l-4.24,1.11c-3.5.92-6.96-1.6-7.17-5.21l-.25-4.38c-.06-.98-.37-1.93-.9-2.76l-2.37-3.69c-1.95-3.04-.63-7.11,2.74-8.43l4.08-1.59c.92-.36,1.73-.95,2.35-1.71l2.78-3.39c2.29-2.8,6.57-2.8,8.86,0Z"/><g class="cls-10"><path class="cls-6" d="M37.3,47.93c3.77.99,7.51-1.72,7.73-5.62l.27-4.72c0-.13.03-.25.05-.38-9.15,1.46-18.61,1.46-28.4-.14.02.17.05.34.06.51l.27,4.72c.23,3.89,3.96,6.61,7.73,5.62l4.57-1.2c1.03-.27,2.1-.27,3.13,0l4.57,1.2Z"/></g><path class="cls-7" d="M9.96,37.68c14.88,3.54,29,3.4,42.47.11,3.41-.84,6.83,1.36,7.41,4.82l2.07,12.4c.49,2.96-1.28,5.82-4.14,6.72-17.36,5.49-35.05,5.26-53.03-.11-2.88-.86-4.64-3.76-4.15-6.72l2.06-12.38c.57-3.43,3.93-5.65,7.32-4.84Z"/><path class="cls-2" d="M31.89,66.23c-8.97,0-18.09-1.38-27.3-4.13-3.1-.93-5.03-4.06-4.5-7.28l2.06-12.38c.3-1.79,1.3-3.33,2.81-4.34,1.5-.99,3.36-1.33,5.12-.91,14.36,3.42,28.57,3.45,42.23.11,1.78-.44,3.68-.11,5.2.89,1.52,1,2.52,2.54,2.82,4.34l2.07,12.4c.53,3.18-1.4,6.31-4.49,7.28-8.48,2.68-17.17,4.02-26.02,4.02ZM8.55,38.02c-1.07,0-2.12.31-3.03.92-1.28.85-2.12,2.15-2.38,3.67l-2.06,12.38c-.46,2.73,1.18,5.38,3.8,6.16,18.11,5.42,35.85,5.45,52.73.11,2.62-.83,4.25-3.48,3.8-6.17l-2.07-12.4c-.25-1.52-1.1-2.82-2.38-3.67-1.29-.85-2.9-1.12-4.41-.75-13.81,3.38-28.18,3.35-42.7-.1h0c-.43-.1-.87-.15-1.3-.15Z"/><path class="cls-6" d="M51.35,54.78l-.71-3.19c-.2-.89-.51-1.71-.94-2.45-.44-.76-.99-1.42-1.63-1.94-.68-.56-1.47-.95-2.34-1.17-.48-.12-.98-.18-1.51-.18-.4,0-.81.04-1.23.11-.48.08-.97.24-1.44.46-.23.11-.45.23-.67.36-.03-.01-.07-.03-.1-.04-.4-.15-.86-.23-1.4-.23-.24,0-.51.01-.81.05-1.03.11-1.76.35-2.32.76-.03.02-.05.05-.08.07,0-.03.02-.07.03-.1.06-.41.08-.83.06-1.25-.02-.42-.08-.83-.18-1.23-.19-.77-.65-1.41-1.33-1.86-.58-.38-1.28-.55-2.23-.55h-.21c-1.02.03-1.77.23-2.37.64-.69.47-1.13,1.14-1.29,1.94-.08.4-.12.82-.12,1.25,0,.41.04.82.1,1.2,0,.03.02.05.02.08-.18-.11-.36-.21-.56-.3-.66-.31-1.27-.46-1.86-.46-.49,0-.95.1-1.37.3-.4.19-.75.44-1.08.77-.18-.21-.38-.42-.61-.61-.54-.43-1.21-.7-2.07-.8-.21-.03-.4-.04-.59-.04-.57,0-1.1.11-1.57.34-.23.11-.44.24-.63.38-.42-.74-1.01-1.13-1.41-1.32-.5-.24-1.08-.36-1.71-.36-.35,0-.73.04-1.05.1-.72.1-1.3.28-1.77.57-.68.41-1.15,1.05-1.34,1.8-.12.48-.15,1.01-.1,1.63,0,.08.02.15.03.23.59,2.84.94,4.31,1.75,7.22.06.17.13.38.22.64.2.58.56,1.09,1.07,1.54.54.47,1.26.79,2.14.93.38.06.72.09,1.03.09.4,0,.75-.05,1.08-.15.53-.16.99-.43,1.36-.81.26.39.6.73,1.01,1,.55.37,1.24.59,2.1.66.17.01.33.02.48.02.67,0,1.27-.13,1.77-.39.59-.31,1.06-.72,1.4-1.23.17-.26.3-.48.41-.66.72-1.26,1.25-2.22,1.75-3.18v1.9c0,.43.05.85.13,1.25.17.84.7,1.56,1.5,2.02.6.35,1.37.51,2.35.51h.25c1.13-.03,1.95-.23,2.57-.63.41-.27.74-.61.98-1,.29.34.65.62,1.08.83.49.23,1.08.35,1.78.35.25,0,.54-.02.85-.05,1.12-.12,1.92-.38,2.51-.83.6-.46,1-1.07,1.16-1.75.28.48.77,1,1.62,1.31.39.14.81.21,1.3.21.41,0,.86-.05,1.38-.15,1.11-.22,1.88-.55,2.43-1.05.66-.6,1.03-1.4,1.03-2.25,0-.44-.05-.87-.14-1.31Z"/><path class="cls-1" d="M16.47,58.09c-.51-.08-.89-.23-1.14-.45-.25-.22-.41-.45-.5-.7-.09-.24-.15-.45-.21-.61-.77-2.8-1.11-4.2-1.69-7-.03-.39-.02-.71.05-.96.06-.25.21-.45.44-.59.23-.14.56-.24,1-.3.7-.13,1.24-.1,1.63.09.39.19.63.56.73,1.12.26,1.25.39,1.88.68,3.13.58-.95.86-1.43,1.41-2.39.08-.12.19-.27.33-.46.14-.18.35-.34.62-.47.27-.13.62-.17,1.04-.12.47.06.82.18,1.05.37.24.19.41.4.52.62.11.22.18.4.21.53.3,1.06.45,1.58.78,2.64.52-1.02.77-1.53,1.26-2.56.29-.57.63-.94,1.03-1.13.4-.19.92-.14,1.54.16.59.27.99.59,1.22.95.22.36.2.79-.08,1.31-1.24,2.56-1.91,3.84-3.34,6.35-.09.16-.2.34-.34.56-.14.22-.35.4-.64.55-.28.15-.68.2-1.17.16-.51-.04-.9-.15-1.15-.33-.26-.17-.44-.38-.55-.61-.11-.23-.2-.46-.27-.68-.33-1.02-.48-1.54-.79-2.56-.54.92-.82,1.38-1.38,2.3-.16.26-.31.49-.45.68-.14.2-.35.34-.62.42-.27.08-.68.08-1.22,0Z"/><path class="cls-1" d="M32.44,48.01c-.63.02-1.08-.07-1.35-.25-.27-.18-.42-.41-.47-.69-.05-.28-.07-.57-.07-.86,0-.31.03-.59.08-.87.05-.27.21-.5.46-.67.25-.18.68-.27,1.28-.28.6-.02,1.03.06,1.29.22.26.17.42.39.49.67.07.28.11.56.12.85.01.29,0,.58-.04.86-.04.28-.19.52-.44.7-.25.18-.7.29-1.35.31ZM32.73,59.1c-.72.02-1.24-.07-1.54-.24-.31-.18-.49-.41-.54-.69-.06-.28-.08-.57-.08-.86,0-2.6,0-3.9-.01-6.51,0-.29.03-.58.08-.85.06-.27.22-.5.49-.68.27-.18.72-.28,1.36-.29.64-.02,1.09.05,1.37.22.27.17.44.39.52.67.07.28.11.57.13.87.13,2.59.2,3.89.33,6.48.01.29,0,.58-.05.86-.05.28-.22.52-.51.7s-.8.29-1.54.31Z"/><path class="cls-1" d="M39.84,58.61c-.72.08-1.24.03-1.56-.12-.32-.15-.52-.37-.6-.64-.08-.27-.13-.56-.15-.85-.21-2.62-.32-3.93-.54-6.55-.02-.29-.02-.57.02-.84.03-.27.18-.5.44-.69.25-.19.7-.31,1.34-.38.58-.06,1.01-.04,1.29.06.28.11.47.25.57.44.1.19.15.37.17.53.01.17.04.27.07.3-.06.06-.09.09-.16.14-.04-.2.02-.4.17-.63.15-.22.36-.43.63-.64.27-.21.56-.38.88-.53.32-.15.62-.25.92-.3.7-.12,1.34-.1,1.93.04.58.15,1.1.4,1.56.78.46.37.85.84,1.17,1.39.32.56.56,1.18.72,1.89.29,1.28.43,1.92.71,3.19.06.29.1.57.09.86s-.13.55-.38.78-.75.43-1.47.57c-.73.14-1.26.15-1.59.03-.33-.12-.55-.32-.66-.58-.11-.26-.19-.54-.24-.83-.22-1.28-.33-1.92-.55-3.21-.05-.3-.16-.55-.32-.73-.16-.19-.37-.32-.61-.39-.25-.07-.54-.08-.88-.03-.32.05-.6.15-.83.3-.23.15-.39.34-.5.57-.11.23-.14.49-.1.78.17,1.3.26,1.95.43,3.25.04.29.04.58.02.86-.03.29-.18.53-.45.74-.27.21-.78.36-1.51.44Z"/><path class="cls-4" d="M5.98,60.19c-.09,0-.19-.01-.28-.04-3.32-.98-3.87-4.36-3.89-4.5-.08-.55.29-1.06.84-1.14.54-.08,1.05.29,1.14.84.02.11.4,2.27,2.48,2.88.53.16.83.71.68,1.24-.13.44-.53.72-.96.72Z"/><path class="cls-4" d="M57.51,59.91c-.44,0-.85-.3-.97-.75-.14-.53.18-1.08.71-1.22.74-.19.96-.81.98-.88.17-.52.72-.81,1.24-.66.52.16.82.69.68,1.22-.18.65-.9,1.86-2.4,2.26-.08.02-.17.03-.25.03Z"/><path class="cls-9" d="M29.23,31.22c-1.4.08-1.69,1.83-.69,2.47,1.13.73,3.01.9,4.37.59,1.54-.35,2.28-.85,2.73-1.87.27-.62.18-1.7-.87-1.96-.84-.21-1.66.45-2.84.72-.71.16-2.69.05-2.69.05Z"/><path class="cls-6" d="M31.52,34.69c-1.09,0-2.27-.23-3.12-.77-.58-.37-.84-1.08-.66-1.78.18-.69.75-1.14,1.48-1.19,0,0,.02,0,.03,0,.54.03,2.07.08,2.62-.04.43-.1.81-.25,1.17-.39.61-.24,1.19-.47,1.79-.32.47.12.83.39,1.03.8.22.45.23,1.05.02,1.53-.48,1.09-1.29,1.66-2.91,2.02-.43.1-.93.15-1.45.15ZM29.23,31.49c-.49.03-.85.33-.97.79-.1.39,0,.91.43,1.19,1.13.73,2.95.83,4.16.55,1.46-.33,2.13-.78,2.54-1.71.12-.28.17-.72,0-1.08-.13-.26-.36-.44-.68-.51-.44-.1-.89.07-1.47.3-.37.15-.78.31-1.25.42-.71.16-2.54.07-2.75.06Z"/><path class="cls-9" d="M30.73,32.96s1.91.22,3.71-.96"/><path class="cls-3" d="M31.12,33.25c-.25,0-.41-.02-.43-.02-.15-.02-.25-.15-.24-.3.02-.15.15-.25.3-.24.02,0,1.84.19,3.53-.92.13-.08.29-.05.37.08.08.12.05.29-.08.37-1.36.9-2.77,1.03-3.46,1.03Z"/><path class="cls-9" d="M42.25,29.82l-.48-1.29c-.12-.33-.39-.6-.72-.72l-1.29-.48,1.29-.48c.33-.12.6-.39.72-.72l.48-1.29.48,1.29c.12.33.39.6.72.72l1.29.48-1.29.48c-.33.12-.6.39-.72.72l-.48,1.29Z"/><circle class="cls-6" cx="25.52" cy="27.02" r="2.35"/><path class="cls-6" d="M38.73,29.07c-.07,0-.13,0-.2-.03l-4.64-1.36c-.29-.08-.49-.34-.51-.64-.02-.3.16-.58.44-.69l4.64-1.87c.36-.15.77.03.92.39.15.36-.03.77-.39.92l-2.75,1.11,2.69.79c.37.11.59.5.48.88-.09.31-.37.51-.68.51Z"/></g></svg>