<svg id="08c7091e-1f9b-48a2-9b4d-72e16d1af94f" data-name="Layer 1" xmlns="http://www.w3.org/2000/svg" viewBox="0 0 256 256"><title>your_turn_circle</title><g id="beb9b380-b605-47e7-aeaa-d260cc95a87b" data-name="Group 1063"><circle id="31f5d83a-9fb3-4248-ab92-0624807938c0" data-name="Ellipse 40" cx="128" cy="128" r="112" style="fill:#e55ecc"/></g><path d="M160.43967,137.65724a13.34272,13.34272,0,0,0-9.497,3.93369L118.5046,174.0306a13.42966,13.42966,0,1,0,18.9916,18.99322l32.43967-32.43967a13.4299,13.4299,0,0,0-9.4962-22.92691Z" style="fill:#fff"/><path d="M203.75928,126.7608l5.04931-5.04919a13.42976,13.42976,0,1,0-18.99267-18.99243l-5.04688,5.04718a93.626,93.626,0,0,0-43.33886-17.95124v-6.852h2.81591a13.4303,13.4303,0,0,0,0-26.86059H111.75391a13.4303,13.4303,0,0,0,0,26.86059h2.81591v6.8537a94.62882,94.62882,0,0,0-81.228,93.71q0,2.27253.10742,4.52723a112.51981,112.51981,0,0,0,42.936,39.36254,67.79868,67.79868,0,1,1,103.22657.00159,112.518,112.518,0,0,0,42.939-39.36413q.10547-2.25468.10742-4.52723A94.68406,94.68406,0,0,0,203.75928,126.7608Z" style="fill:#fff"/></svg>