<svg width="107" height="99" fill="none" xmlns="http://www.w3.org/2000/svg"><path d="M85.102 94.801c-.286 0-.573-.131-.77-.35L69.13 75.972a.97.97 0 0 1 .133-1.378.987.987 0 0 1 1.387.132l15.201 18.479a.97.97 0 0 1-.132 1.377.927.927 0 0 1-.617.22Z" fill="#000"/><path d="M85.102 93.817s7.865 0 8.68 2.646c.815 2.646-8.68 1.64-8.68-2.646Z" fill="#000"/><path d="M91.49 98.89c-1.343 0-2.863-.35-4.075-.874-2.115-.962-3.304-2.45-3.304-4.199 0-.547.418-.984 1.035-.984 1.52 0 8.614.175 9.605 3.324.22.744.044 1.465-.55 1.968-.617.547-1.609.766-2.732.766h.022Zm-5.088-4.067c.529.831 1.63 1.334 2.18 1.553 2.094.809 4.032.59 4.319.262-.353-.94-3.415-1.662-6.5-1.815ZM45.03 93.073a.972.972 0 0 1-.97-.852l-1.432-10.585a.97.97 0 0 1 .837-1.093c.551-.066 1.036.306 1.102.83l1.432 10.585a.97.97 0 0 1-.837 1.094h-.133v.021Z" fill="#000"/><path d="M45.03 92.111s-7.557 2.143-7.623 4.92c-.066 2.778 8.812-.808 7.622-4.92Z" fill="#000"/><path d="M38.729 99c-.463 0-.881-.066-1.234-.24-.683-.329-1.08-.963-1.057-1.728.066-3.324 6.94-5.467 8.327-5.86a.965.965 0 0 1 1.212.677c.484 1.684-.22 3.455-1.983 4.942-1.432 1.225-3.59 2.21-5.265 2.21Zm5.331-5.555c-2.908 1.006-5.64 2.537-5.662 3.609.287.153 2.225-.175 4.01-1.531.462-.35 1.366-1.137 1.652-2.078Z" fill="#000"/><path d="M57.146 86.644c24.103 0 43.642-19.396 43.642-43.322C100.788 19.396 81.248 0 57.146 0 33.043 0 13.504 19.396 13.504 43.322c0 23.926 19.54 43.322 43.642 43.322Z" fill="#009EFF"/><path d="M55.714 36.236c-1.939 0-3.393-1.224-3.965-1.968a1.28 1.28 0 0 1 .264-1.793 1.322 1.322 0 0 1 1.806.24c.044.066.793.941 1.961.941 2.644-.087 4.186-2.427 4.208-2.45.374-.59 1.19-.765 1.784-.393.595.372.793 1.16.397 1.771-.088.153-2.247 3.5-6.3 3.652h-.155ZM36.195 36.236c-.33 0-.683-.043-1.057-.109-2.776-.547-6.146-2.384-6.279-2.471a1.303 1.303 0 0 1-.506-1.75 1.324 1.324 0 0 1 1.762-.502c.022 0 3.15 1.727 5.53 2.186 1.718.328 2.731-1.05 2.775-1.115a1.307 1.307 0 0 1 1.807-.306 1.28 1.28 0 0 1 .33 1.771c-.066.11-1.586 2.275-4.34 2.275l-.022.021Z" fill="#000"/><path d="M50.273 37.374h-.11c-1.52-.285-2.027-1.75-2.071-2.493a.64.64 0 0 1 1.278-.087c0 .043.11 1.136 1.013 1.311a.628.628 0 0 1 .506.744.657.657 0 0 1-.638.525h.022ZM41.527 37.374a.634.634 0 0 1-.617-.46c-.11-.328.088-.7.418-.809 1.454-.459 1.609-1.202 1.609-1.246a.658.658 0 0 1 .727-.547.633.633 0 0 1 .572.678c0 .175-.198 1.618-2.511 2.318-.066 0-.132.022-.198.022v.044Z" fill="#000" opacity=".3"/><path d="M32.054 41.616c2.19 0 3.965-1.762 3.965-3.936s-1.775-3.936-3.965-3.936-3.966 1.762-3.966 3.936 1.776 3.936 3.966 3.936ZM58.666 41.616c2.19 0 3.965-1.762 3.965-3.936s-1.775-3.936-3.965-3.936-3.965 1.762-3.965 3.936 1.775 3.936 3.965 3.936Z" fill="#000"/><path d="m41.703 48.155 16.919-2.733a2.138 2.138 0 0 1 2.401 2.733c-.749 2.471-2.732 5.686-8.085 6.889-5.662 1.268-9.803-1.006-12.315-3.15-1.387-1.18-.727-3.433 1.058-3.717l.022-.022Z" fill="#fff"/><path d="M49.744 56.028c-4.23 0-7.424-1.88-9.517-3.674-.837-.722-1.168-1.815-.86-2.843a2.794 2.794 0 0 1 2.248-1.99l16.919-2.734c.97-.153 1.916.175 2.555.897.64.722.86 1.706.573 2.646-.793 2.646-2.908 6.058-8.57 7.326-1.19.263-2.29.372-3.348.372Zm9.252-10.016h-.264l-16.919 2.734c-.595.087-1.035.503-1.212 1.071-.154.569 0 1.137.463 1.531 2.38 2.034 6.345 4.22 11.742 3.018 5.045-1.137 6.918-4.111 7.622-6.43a1.513 1.513 0 0 0-.308-1.421 1.462 1.462 0 0 0-1.123-.503Z" fill="#000"/><path d="M50.515 50.386s3.657-.438 7.094-1.334l-7.094 1.334Z" fill="#fff"/><path d="M50.515 51.02a.642.642 0 0 1-.639-.569.659.659 0 0 1 .573-.721c.044 0 3.657-.438 7.005-1.313.33-.087.705.11.794.46.088.35-.11.7-.463.787-3.437.897-7.028 1.334-7.182 1.356h-.088Z" fill="#D8D8D8"/><path d="m21.964 35.887-1.63-2.21a2.427 2.427 0 0 0-1.785-.983l-2.753-.219 2.225-1.618a2.4 2.4 0 0 0 .99-1.772l.221-2.733 1.63 2.209c.419.568 1.08.94 1.785.984l2.754.218-2.225 1.619a2.401 2.401 0 0 0-.992 1.771l-.22 2.734Z" fill="#fff"/><path d="M6.41 28.889H6.3a1.273 1.273 0 0 1-1.123-.897c-.485-1.596 0-2.755.485-3.433 1.762-2.45 6.366-2.712 6.895-2.734.661-.044 1.212.437 1.322 1.072.44.022.925.065 1.41.153.705.109 1.19.765 1.08 1.465-.11.7-.772 1.18-1.477 1.072-5.441-.853-7.248 2.47-7.314 2.624-.22.437-.683.7-1.145.7l-.022-.022Z" fill="#000"/><path d="M6.389 28.889a1.281 1.281 0 0 1-.11-2.559l4.736-.46c.705-.087 1.344.46 1.41 1.16.066.7-.44 1.334-1.168 1.4l-4.736.459h-.132Z" fill="#000"/><path d="M13.57 47.127c-.154 0-.308-.044-.462-.11-1.212-.611-11.808-6.21-12.998-11-1.035-4.242 5.001-8.703 5.706-9.206a1.016 1.016 0 0 1 1.388.219c.33.437.22 1.05-.22 1.378-1.587 1.137-5.552 4.614-4.935 7.15.815 3.325 8.922 8.158 11.984 9.732.485.24.683.831.419 1.312a1.012 1.012 0 0 1-.882.525Z" fill="#000"/><path d="m101.977 55.35-16.434 4.57c1.586.11 3.326 1.903 3.194 3.5l-1.19 15.789 18.219-7.633.97-12.793c.22-2.82-2.38-4.09-4.737-3.433h-.022Z" fill="#1659A8"/><path d="M87.547 79.471s-.11 0-.154-.044c-.088-.065-.11-.153-.11-.24l1.19-15.79c.044-.655-.287-1.443-.882-2.099-.594-.634-1.365-1.05-2.07-1.115a.244.244 0 0 1-.243-.24c0-.132.066-.263.199-.285l16.434-4.57c1.41-.394 2.886-.132 3.877.677.86.7 1.3 1.794 1.212 3.04l-.969 12.793s-.066.197-.177.22l-18.218 7.631h-.11l.022.022ZM86.579 59.9c1.388.612 2.534 2.143 2.423 3.52l-1.167 15.352 17.646-7.391.947-12.64c.088-1.072-.264-1.969-1.013-2.581-.859-.7-2.159-.919-3.393-.59l-15.465 4.286.022.044Z" fill="#104E91"/><path d="m87.547 79.209-5.64-2.559 1.036-13.82c.132-1.707 1.586-2.975 3.239-2.866 1.542.11 2.71 1.487 2.577 3.062l-1.212 16.161v.022Z" fill="#F4F0E1"/><path d="M87.547 79.471s-.088 0-.11-.022l-5.64-2.558s-.176-.153-.154-.263l1.036-13.82c.132-1.772 1.586-3.128 3.304-3.128h.243c1.696.131 2.952 1.64 2.841 3.368l-1.211 16.16s-.066.176-.132.22c-.044.021-.088.043-.133.043h-.044Zm-5.375-2.996 5.111 2.318 1.19-15.789c.11-1.421-.948-2.668-2.335-2.777-1.52-.11-2.842 1.05-2.953 2.602L82.15 76.453l.022.022Z" fill="#D8D3BF"/><path d="M83.207 77.547a.243.243 0 0 1-.242-.284l.925-12.16c0-.153.11-.262.287-.24.154 0 .264.131.242.284l-.925 12.16c0 .13-.132.24-.264.24h-.023ZM84.728 78.115a.243.243 0 0 1-.243-.284l.595-7.742c0-.153.132-.262.287-.24.154 0 .264.131.242.284l-.595 7.742c0 .131-.132.24-.264.24h-.022ZM85.675 77.219a.243.243 0 0 1-.242-.285l.594-7.741c0-.153.133-.263.287-.24.154 0 .264.13.242.284l-.595 7.741c0 .131-.132.24-.264.24h-.022Z" fill="#D8D3BF"/><path d="M87.547 79.471a.243.243 0 0 1-.242-.284l1.212-16.161c.11-1.422-.947-2.668-2.335-2.778-1.52-.109-2.842 1.05-2.953 2.603l-1.035 13.821c0 .153-.11.24-.286.24a.243.243 0 0 1-.243-.284l1.036-13.82c.132-1.772 1.586-3.128 3.304-3.128h.243c1.696.131 2.952 1.64 2.841 3.368l-1.211 16.16c0 .132-.132.241-.264.241l-.067.022Z" fill="#27396B"/><path d="M95.787 73.304c-.199 0-.397-.065-.595-.175a1.045 1.045 0 0 1-.286-1.443c6.851-10.06-.441-15.483-.75-15.702a1.015 1.015 0 0 1-.22-1.443c.353-.46.991-.569 1.454-.219.088.066 9.209 6.845 1.256 18.545-.198.306-.529.46-.86.46v-.023Z" fill="#000"/><path d="M92.13 80.237c-.353 0-.705-.132-.97-.394a1.346 1.346 0 0 1 0-1.925c.838-.83 2.291-3.564 2.996-5.073a1.394 1.394 0 0 1 1.719-.7c1.212.46 2.621 2.69 3.613 4.483.352.656.11 1.487-.551 1.837-.66.35-1.498.11-1.85-.547a23.013 23.013 0 0 0-1.322-2.143c-.727 1.378-1.763 3.193-2.644 4.068a1.395 1.395 0 0 1-.97.415l-.021-.021Z" fill="#000"/><path d="M94.95 81.024c-.133 0-.265 0-.419-.066a1.359 1.359 0 0 1-.903-1.705c.462-1.466.484-2.996.418-4.09-.617.35-1.388.853-2.18 1.597-.551.502-1.433.459-1.94-.088a1.367 1.367 0 0 1 .089-1.924c2.49-2.253 4.692-2.843 4.802-2.865a1.39 1.39 0 0 1 1.058.153c.308.197.55.503.617.853.044.153.88 3.674-.243 7.195a1.36 1.36 0 0 1-1.3.962v-.022Z" fill="#000"/></svg>