<?xml version="1.0" encoding="UTF-8"?><svg id="Layer_2" xmlns="http://www.w3.org/2000/svg" viewBox="0 0 258.57 48.55"><defs><style>.cls-1{fill:#fff;}</style></defs><g id="Layer_1-2"><path class="cls-1" d="M47.75,29.22c-.67-1.67-1.94-2.98-3.6-3.69-1.95-.84-4.21-.7-6.04.36-.26.15-.52.32-.76.51.19-1.14.23-2.28.12-3.42l-4.49,2.61c-2.63,1.53-6,.63-7.53-2-1.53-2.63-.64-6,2-7.53l10.27-5.97c2.63-1.53,6-.64,7.53,2,3.1,5.33,4.01,11.66,2.66,17.6-.05-.16-.1-.32-.17-.47Z"/><path class="cls-1" d="M43.68,26.65c2.79,1.2,4.09,4.44,2.88,7.24-.03.07-.06.14-.09.21-2.08,4.72-5.53,8.58-10.01,11.17-11.57,6.72-26.46,2.78-33.18-8.8C-3.44,24.9.5,10.01,12.08,3.29,16.75.57,22.05-.49,27.4.21c3.02.39,5.14,3.16,4.75,6.18-.23,1.76-1.27,3.22-2.7,4.05-1.01.59-2.22.86-3.48.69-2.92-.38-5.81.2-8.37,1.68-6.32,3.67-8.48,11.8-4.81,18.13,3.67,6.32,11.8,8.48,18.13,4.8,2.48-1.44,4.39-3.59,5.51-6.21.49-1.13,1.3-2.01,2.29-2.58,1.46-.85,3.28-1.02,4.95-.3Z"/><path class="cls-1" d="M172.42,18.49c-.23-.05-.44-.08-.66-.08-.23,0-.42-.02-.57-.05s-.26-.11-.34-.22c-.08-.11-.14-.26-.16-.44-.03-.19-.04-.43-.04-.71V4.73c0-.36-.04-.69-.11-1-.07-.31-.25-.56-.52-.75-.28-.2-.74-.3-1.39-.3s-1.11.1-1.4.3c-.29.2-.46.45-.52.75s-.09.64-.09,1v12.44c0,.88.06,1.62.17,2.22.12.6.3,1.09.55,1.47.25.38.58.67.98.89.4.22.89.36,1.45.44s1.22.12,1.95.12c.23,0,.46-.03.69-.08.22-.05.42-.22.58-.51.16-.29.24-.75.24-1.4s-.08-1.08-.24-1.35c-.16-.27-.35-.43-.58-.48Z"/><path class="cls-1" d="M178.41,3.04c-.29-.2-.76-.3-1.43-.3s-1.17.09-1.45.28c-.29.19-.47.44-.54.75s-.11.66-.11,1.04.03.7.09,1.02c.06.32.24.58.52.78s.77.3,1.45.3,1.17-.09,1.45-.28c.29-.19.46-.44.52-.77.06-.32.09-.66.09-1.02s-.03-.7-.09-1.02c-.06-.32-.24-.58-.52-.78Z"/><path class="cls-1" d="M178.37,9.18c-.28-.2-.74-.3-1.39-.3s-1.14.09-1.43.28c-.29.19-.46.44-.52.74s-.09.64-.09,1v9.39c0,.34.03.67.09.98.06.31.23.57.51.75.28.19.75.28,1.41.28s1.14-.09,1.41-.27c.28-.18.45-.43.51-.74s.09-.64.09-.98v-9.37c0-.38-.03-.72-.09-1.02s-.23-.56-.51-.75Z"/><path class="cls-1" d="M198.72,9.62c-.73-.53-1.61-.79-2.65-.79-.61,0-1.16.12-1.66.35-.49.23-.92.52-1.28.86-.36.34-.66.69-.92,1.05-.29-.5-.62-.92-1.01-1.25-.39-.33-.82-.58-1.29-.75-.48-.17-1.01-.26-1.6-.26-.45,0-.87.09-1.25.26-.39.17-.72.37-1.01.61-.28.23-.51.45-.68.66-.03-.5-.17-.87-.45-1.1-.31-.26-.79-.39-1.45-.39s-1.14.09-1.43.28c-.29.19-.46.43-.52.73-.06.3-.09.62-.09.98v9.42c0,.36.03.69.08,1s.22.56.51.75c.29.2.75.3,1.4.3s1.14-.09,1.43-.28.46-.43.52-.74c.06-.31.09-.64.09-1v-4.85c0-.48.07-.92.2-1.31.13-.39.35-.7.63-.93.29-.23.65-.35,1.1-.35.41,0,.74.1,1,.3.25.2.44.49.57.88s.19.86.19,1.41v4.82c0,.32.03.64.08.96.05.31.22.57.48.77s.73.31,1.37.32,1.12-.07,1.41-.26c.3-.19.49-.44.58-.75.09-.31.13-.65.13-1.01v-4.82c0-.59.07-1.08.22-1.47.14-.39.36-.67.65-.86.29-.19.64-.28,1.05-.28s.72.1.98.31c.26.21.45.5.58.87.12.38.19.84.19,1.4v4.82c0,.34.03.67.09.98.06.31.23.57.51.77.28.2.75.3,1.41.3s1.14-.09,1.43-.28c.29-.19.46-.44.52-.75.06-.31.09-.64.09-.98v-4.82c0-1.4-.19-2.59-.57-3.58-.38-.99-.93-1.75-1.66-2.27Z"/><path class="cls-1" d="M215.6,9.15c-.28-.2-.74-.3-1.39-.3-.68,0-1.18.11-1.49.34-.31.22-.46.55-.44.98l.22.38c-.16-.23-.4-.48-.71-.73-.31-.25-.71-.47-1.17-.66-.47-.19-1.03-.28-1.7-.28-.83,0-1.61.18-2.34.54-.74.36-1.4.85-1.98,1.47-.58.62-1.04,1.33-1.37,2.13-.33.8-.5,1.64-.5,2.52s.17,1.75.5,2.56c.33.81.78,1.53,1.36,2.17.57.64,1.23,1.14,1.98,1.49.74.36,1.53.54,2.36.54.72,0,1.32-.1,1.8-.31s.88-.44,1.18-.7c.3-.26.51-.48.62-.66l-.27.46c0,.34.16.63.47.86.31.23.8.35,1.47.35s1.13-.09,1.41-.28c.28-.19.45-.44.51-.77s.09-.65.09-1v-9.29c0-.36-.03-.7-.09-1.02s-.23-.58-.51-.78ZM211.69,16.93c-.23.41-.53.74-.92.98-.39.24-.81.36-1.28.36-.52,0-.99-.12-1.41-.36-.42-.24-.75-.57-1-.97s-.36-.85-.36-1.33c0-.52.12-.99.36-1.4s.57-.74.97-1c.4-.25.87-.38,1.39-.38.47,0,.9.12,1.29.36.39.24.71.57.94.97.23.4.35.87.35,1.39s-.11.96-.34,1.37Z"/><path class="cls-1" d="M226.97,9.05c-.31-.06-.63-.09-.97-.09l-1.8.05v-2.61c0-.36-.03-.69-.09-1-.06-.31-.24-.56-.52-.75-.29-.2-.75-.3-1.4-.3s-1.11.09-1.4.28c-.29.19-.46.43-.52.71-.06.29-.09.61-.09.97v2.75h-.83c-.5,0-.88.16-1.13.47-.25.31-.38.79-.38,1.44,0,.7.1,1.2.31,1.49.21.3.57.45,1.09.47h.94v4.31c0,.88.1,1.64.31,2.27.21.64.52,1.16.96,1.57s.97.72,1.63.91c.66.2,1.44.3,2.36.3.34,0,.67-.03.98-.08.31-.05.57-.22.77-.51.2-.29.3-.75.3-1.4,0-.59-.09-1.01-.26-1.27-.17-.25-.41-.41-.71-.48-.31-.07-.66-.11-1.05-.11-.23,0-.43-.02-.59-.05-.16-.04-.29-.1-.38-.19-.09-.09-.16-.23-.2-.42-.05-.19-.07-.43-.07-.71v-4.11l1.8.04c.36,0,.69-.04,1-.12s.55-.26.74-.55c.19-.29.28-.74.28-1.35,0-.66-.1-1.14-.3-1.43-.2-.29-.45-.46-.75-.52Z"/><path class="cls-1" d="M241.45,19.19c-.18-.34-.38-.6-.61-.77-.22-.17-.47-.25-.74-.23-.14.02-.29.05-.44.11-.15.05-.33.12-.53.2-.2.08-.41.16-.65.24s-.51.14-.83.19c-.32.05-.7.07-1.13.07-.5,0-.98-.09-1.43-.27-.45-.18-.82-.43-1.12-.75-.3-.32-.46-.72-.5-1.18h6.41c.74,0,1.34-.24,1.82-.71.48-.48.71-1.21.71-2.19,0-.56-.12-1.14-.36-1.75-.24-.61-.61-1.18-1.1-1.71-.49-.53-1.12-.96-1.88-1.29-.76-.33-1.66-.5-2.71-.5-1.4,0-2.64.3-3.72.9-1.08.6-1.92,1.42-2.53,2.46-.61,1.04-.92,2.23-.92,3.58,0,.83.14,1.65.42,2.48.28.83.7,1.57,1.28,2.25.57.67,1.31,1.22,2.22,1.63s1.99.62,3.24.62c1.13,0,2.1-.1,2.89-.3.8-.2,1.42-.47,1.86-.81.44-.34.66-.73.66-1.16,0-.18-.02-.36-.07-.54-.05-.18-.13-.37-.26-.57ZM233.85,13.43c.24-.36.58-.65,1.01-.86.43-.22.92-.32,1.48-.32.43,0,.81.07,1.14.2.33.13.6.32.79.57.2.24.3.52.3.85,0,.29-.07.48-.2.58-.13.1-.35.15-.63.15h-4.25c0-.41.12-.8.36-1.16Z"/><path class="cls-1" d="M73.77,16.72c-.16-.71-.59-1.32-1.21-1.71-.73-.46-1.65-.55-2.46-.24-.12.05-.23.1-.34.16.15-.45.24-.91.26-1.37l-1.97.76c-1.16.45-2.46-.13-2.9-1.28-.45-1.16.13-2.46,1.28-2.9l4.52-1.75c1.16-.45,2.46.13,2.9,1.28.91,2.35.87,4.95-.05,7.26,0-.07-.02-.13-.04-.2Z"/><path class="cls-1" d="M72.29,15.43c1.05.66,1.36,2.05.7,3.1-.02.03-.03.05-.05.08-1.14,1.77-2.77,3.1-4.74,3.86-5.09,1.97-10.83-.56-12.8-5.65-1.97-5.09.57-10.83,5.65-12.81,2.05-.8,4.26-.89,6.37-.27,1.19.35,1.87,1.6,1.52,2.79-.21.69-.72,1.22-1.34,1.46-.45.17-.95.2-1.44.06-1.15-.34-2.35-.29-3.48.15-2.78,1.08-4.17,4.21-3.09,7,1.08,2.78,4.22,4.16,6.99,3.09,1.09-.42,2-1.17,2.62-2.15.27-.42.65-.73,1.09-.9.64-.25,1.39-.2,2.01.19Z"/><path class="cls-1" d="M163.82,14.69c1.05.66,1.36,2.05.7,3.1-.02.03-.03.05-.05.08-1.14,1.77-2.77,3.1-4.74,3.86-5.09,1.97-10.83-.56-12.8-5.65-1.97-5.09.57-10.83,5.65-12.81,2.05-.8,4.26-.89,6.37-.27,1.19.35,1.87,1.6,1.52,2.79-.21.69-.72,1.22-1.34,1.46-.45.17-.95.2-1.44.06-1.15-.34-2.35-.29-3.48.15-2.78,1.08-4.17,4.21-3.09,7s4.22,4.16,6.99,3.09c1.09-.42,2-1.17,2.62-2.15.27-.42.65-.73,1.09-.9.64-.25,1.39-.2,2.01.19Z"/><path class="cls-1" d="M58.94,43.55c-.49,0-.84-.07-1.06-.21s-.35-.34-.41-.58c-.05-.24-.08-.5-.08-.75v-11.16c0-.27.02-.52.07-.75.05-.23.18-.42.4-.57.22-.15.58-.22,1.08-.22s.88.07,1.09.22c.21.15.34.34.39.57.05.23.07.48.07.75v10.01h5.59c.23,0,.45.02.65.06.2.04.37.16.5.35s.19.5.19.94-.07.73-.2.93-.3.32-.5.36-.41.06-.64.06h-7.14Z"/><path class="cls-1" d="M71.46,28.95c-.22-.15-.58-.22-1.08-.22s-.88.07-1.1.21c-.22.14-.35.33-.41.57s-.08.5-.08.78.02.53.07.78c.05.24.18.44.4.59s.58.22,1.1.22.88-.07,1.1-.21c.22-.14.35-.34.4-.58.05-.24.07-.5.07-.77s-.02-.53-.07-.77c-.05-.24-.18-.44-.4-.59Z"/><path class="cls-1" d="M71.43,33.6c-.21-.15-.56-.22-1.05-.22s-.86.07-1.08.21c-.22.14-.35.33-.4.56s-.07.48-.07.75v7.12c0,.26.02.51.07.74.05.24.18.43.39.57.21.14.57.21,1.07.21s.86-.07,1.07-.2c.21-.14.34-.32.39-.56s.07-.49.07-.74v-7.1c0-.29-.02-.54-.07-.77s-.18-.42-.39-.57Z"/><path class="cls-1" d="M80.19,33.51c-.23-.05-.48-.07-.73-.07l-1.37.04v-1.98c0-.27-.02-.52-.07-.75-.05-.23-.18-.42-.4-.57-.22-.15-.57-.22-1.06-.22s-.84.07-1.06.21c-.22.14-.35.32-.4.54-.05.22-.07.46-.07.73v2.08h-.63c-.38,0-.67.12-.86.36-.19.24-.29.6-.29,1.09,0,.53.08.91.23,1.13.16.22.43.34.83.36h.71v3.26c0,.67.08,1.24.23,1.72.16.48.4.88.72,1.19s.74.54,1.23.69c.5.15,1.09.22,1.78.22.26,0,.51-.02.74-.06.24-.04.43-.17.58-.39.15-.22.22-.57.22-1.06,0-.45-.06-.77-.19-.96-.13-.19-.31-.31-.54-.37-.23-.05-.5-.08-.8-.08-.18,0-.33-.01-.45-.04-.12-.03-.22-.07-.29-.14-.07-.07-.12-.17-.15-.32-.03-.14-.05-.32-.05-.54v-3.11l1.37.03c.27,0,.52-.03.75-.09s.42-.2.56-.42c.14-.22.21-.56.21-1.02,0-.5-.07-.86-.22-1.08-.15-.22-.34-.35-.57-.4Z"/><path class="cls-1" d="M91.35,38.83c.36-.36.54-.91.54-1.66,0-.42-.09-.86-.28-1.33-.18-.46-.46-.89-.84-1.29-.37-.4-.85-.73-1.43-.98-.58-.25-1.26-.38-2.05-.38-1.06,0-2,.23-2.81.68-.82.46-1.45,1.08-1.92,1.87-.46.79-.69,1.69-.69,2.71,0,.63.11,1.25.32,1.88.21.63.53,1.19.97,1.7.43.51,1,.92,1.68,1.23s1.51.47,2.46.47c.86,0,1.59-.07,2.19-.22.61-.15,1.07-.35,1.41-.61.33-.26.5-.55.5-.88,0-.14-.02-.27-.05-.41-.03-.14-.1-.28-.19-.43-.14-.26-.29-.45-.46-.58-.17-.13-.36-.19-.56-.17-.11.01-.22.04-.34.08-.12.04-.25.09-.4.15-.15.06-.31.12-.49.18s-.39.11-.63.14c-.24.03-.53.05-.86.05-.38,0-.74-.07-1.08-.2-.34-.14-.62-.33-.85-.57-.22-.24-.35-.54-.38-.9h4.85c.56,0,1.02-.18,1.38-.54ZM88.82,37.59c-.1.08-.26.11-.48.11h-3.22c0-.31.09-.6.28-.88s.44-.49.77-.65c.33-.16.7-.25,1.12-.25.33,0,.61.05.87.15.25.1.45.24.6.43.15.18.22.4.22.64,0,.22-.05.36-.15.44Z"/><path class="cls-1" d="M100.17,33.65c-.16-.1-.34-.18-.54-.25s-.39-.1-.57-.12c-.18-.02-.35-.03-.5-.03-.38,0-.72.05-1.01.16-.29.11-.54.24-.74.4-.2.16-.36.31-.48.45,0,0,0,0,0,0-.01-.09-.02-.16-.05-.27-.05-.17-.19-.32-.4-.45-.21-.13-.55-.19-1.03-.19-.5,0-.86.07-1.07.21-.21.14-.34.33-.4.56-.05.23-.08.48-.08.75v7.12c0,.26.02.51.07.75s.18.44.39.58c.21.14.57.21,1.07.21s.86-.07,1.08-.2c.22-.14.35-.32.4-.56.05-.24.07-.49.07-.74v-4.49c0-.2.04-.39.13-.56s.21-.31.37-.43c.16-.12.33-.2.51-.25.18-.05.38-.08.58-.08.22,0,.37.02.45.05.08.03.15.07.21.11.06.04.14.08.23.12.1.04.26.06.49.06.39,0,.72-.19.98-.58.26-.39.39-.86.39-1.42,0-.22-.05-.4-.15-.55-.1-.15-.23-.28-.4-.38Z"/><path class="cls-1" d="M111.42,33.58c-.21-.15-.56-.22-1.05-.22-.52,0-.89.08-1.13.25-.24.17-.35.42-.34.74l.16.29c-.12-.18-.3-.36-.54-.55-.24-.19-.53-.36-.89-.5-.35-.14-.78-.21-1.28-.21-.63,0-1.22.14-1.77.41-.56.27-1.06.64-1.5,1.11-.44.47-.79,1.01-1.04,1.61-.25.6-.38,1.24-.38,1.91s.13,1.33.38,1.94c.25.61.59,1.16,1.03,1.64.43.48.93.86,1.5,1.13s1.16.41,1.78.41c.54,0,1-.08,1.37-.23s.67-.33.9-.53c.23-.2.39-.36.47-.5l-.2.35c0,.26.12.48.36.65.24.18.61.27,1.11.27s.86-.07,1.07-.21c.21-.14.34-.34.39-.58s.07-.5.07-.75v-7.04c0-.27-.02-.53-.07-.77s-.18-.44-.39-.59ZM108.46,39.47c-.17.31-.4.56-.69.74-.29.18-.62.28-.97.28-.39,0-.75-.09-1.07-.28-.32-.18-.57-.43-.75-.73s-.28-.64-.28-1.01c0-.39.09-.75.28-1.06s.43-.56.73-.75c.31-.19.66-.29,1.05-.29.35,0,.68.09.98.28.3.18.54.43.71.73.18.31.27.66.27,1.05s-.09.73-.25,1.04Z"/><path class="cls-1" d="M121.42,39.87c-.2-.14-.4-.21-.59-.21-.16,0-.32.04-.47.13-.15.09-.31.19-.47.3-.07.04-.16.1-.29.17-.12.08-.27.14-.44.19-.17.05-.37.08-.6.08-.38,0-.72-.09-1.03-.28s-.55-.43-.73-.74c-.18-.31-.28-.67-.28-1.06s.09-.77.28-1.08c.18-.31.43-.56.74-.73.31-.18.67-.26,1.06-.26.23,0,.44.03.61.1.18.07.34.15.5.25.16.1.32.2.49.3.17.1.36.16.56.2.41.05.82-.2,1.22-.77.12-.16.22-.32.31-.48.08-.16.13-.31.14-.46.01-.29-.07-.52-.25-.69-.18-.18-.38-.35-.61-.53-.12-.12-.32-.27-.6-.43-.28-.16-.62-.3-1.02-.42-.4-.12-.85-.17-1.36-.17-.58,0-1.19.11-1.8.34-.62.22-1.19.55-1.7.99-.52.44-.93.97-1.24,1.61-.31.64-.47,1.38-.47,2.22s.16,1.59.47,2.23c.31.65.73,1.19,1.25,1.63.52.44,1.09.78,1.71,1,.62.22,1.23.34,1.83.34.5,0,.95-.06,1.36-.18s.74-.26,1.02-.41c.28-.15.47-.27.58-.37.31-.2.54-.41.69-.63.15-.22.21-.45.17-.69-.03-.24-.16-.51-.38-.8-.24-.31-.47-.54-.67-.68Z"/><path class="cls-1" d="M134.24,34.25c-.09-.29-.4-.56-.95-.82-.56-.22-.98-.28-1.25-.17s-.53.42-.76.95l-1.9,4.25-2.91-4.46c-.3-.46-.59-.73-.89-.81-.29-.07-.7.05-1.23.38-.48.31-.74.62-.81.92-.06.3.06.67.36,1.12l4.02,6.12-1.75,3.92c-.23.5-.3.9-.21,1.2.09.3.41.57.97.82.56.24.97.31,1.24.2.27-.11.52-.43.75-.96l5.14-11.52c.22-.48.28-.86.19-1.14Z"/><path class="cls-1" d="M154.56,38.47c.79.5,1.03,1.55.53,2.35-.01.02-.03.04-.04.06-.86,1.34-2.1,2.35-3.59,2.93-3.86,1.49-8.21-.43-9.7-4.28-1.49-3.86.43-8.21,4.28-9.7,1.56-.6,3.23-.67,4.82-.2.9.27,1.42,1.21,1.15,2.11-.16.53-.54.92-1.02,1.11-.34.13-.72.15-1.09.04-.87-.26-1.78-.22-2.63.11-2.11.82-3.16,3.19-2.34,5.3s3.19,3.15,5.3,2.34c.83-.32,1.51-.88,1.98-1.63.2-.32.49-.55.82-.68.49-.19,1.05-.15,1.52.15Z"/><path class="cls-1" d="M161.07,43.96c-.61,0-1.21-.12-1.81-.36-.6-.24-1.15-.58-1.64-1.02s-.88-.97-1.16-1.58c-.28-.61-.43-1.3-.43-2.05,0-.7.13-1.35.39-1.95.26-.6.62-1.13,1.08-1.6.47-.46,1-.83,1.6-1.09s1.24-.4,1.93-.4c.93,0,1.77.22,2.53.67.75.45,1.36,1.05,1.81,1.81.45.76.68,1.61.68,2.54,0,.79-.14,1.49-.44,2.1-.29.61-.68,1.14-1.16,1.58-.48.44-1.02.77-1.61,1-.59.23-1.18.34-1.77.34ZM161.03,41.04c.31,0,.63-.08.95-.23.32-.15.6-.39.82-.7.22-.31.33-.7.33-1.18,0-.41-.09-.78-.27-1.09-.18-.31-.43-.55-.75-.73-.32-.17-.68-.26-1.09-.26-.39,0-.73.09-1.04.27-.3.18-.55.43-.74.75s-.28.68-.28,1.08c0,.46.11.86.32,1.17s.48.55.81.7c.32.15.64.22.95.22Z"/><path class="cls-1" d="M168.66,43.81c-.46,0-.8-.07-1.01-.21-.21-.14-.33-.32-.37-.54-.04-.22-.06-.46-.06-.72v-6.78c0-.26.02-.5.07-.71s.17-.39.38-.52.55-.2,1.03-.2.83.09,1.05.28c.22.19.33.49.33.92l-.25.21c.03-.06.1-.17.23-.33.13-.15.3-.32.5-.48.21-.17.45-.31.73-.44.28-.12.58-.18.9-.18.43,0,.81.06,1.15.18s.65.3.93.54.52.54.73.9c.18-.26.4-.51.66-.76.26-.24.56-.45.92-.62.36-.17.75-.25,1.19-.25.75,0,1.39.19,1.91.57.52.38.92.93,1.19,1.64s.41,1.57.41,2.58v3.47c0,.25-.02.48-.07.71-.05.23-.17.41-.38.54-.21.14-.55.2-1.03.2s-.82-.07-1.02-.21c-.2-.14-.32-.33-.37-.55-.05-.23-.07-.46-.07-.71v-3.47c0-.4-.05-.74-.13-1.01-.09-.27-.23-.48-.42-.63s-.42-.22-.71-.22-.55.07-.75.2c-.21.14-.36.34-.47.62-.1.28-.15.63-.15,1.06v3.47c0,.26-.03.5-.1.73-.07.23-.21.41-.42.54s-.55.2-1.02.18c-.47-.01-.8-.09-.99-.23-.19-.14-.31-.33-.35-.55-.04-.23-.06-.46-.06-.69v-3.47c0-.4-.05-.74-.14-1.02-.09-.28-.23-.49-.41-.63-.18-.14-.42-.21-.72-.21-.32,0-.59.08-.79.25-.21.17-.36.39-.46.67s-.14.59-.14.94v3.49c0,.26-.02.5-.07.72-.05.22-.17.4-.38.53-.21.14-.55.2-1.03.2Z"/><path class="cls-1" d="M184.15,47.82c-.47,0-.8-.07-1-.2-.2-.14-.32-.31-.37-.52-.05-.21-.07-.44-.07-.69v-10.83c0-.26.02-.49.06-.71.04-.21.16-.39.36-.53.2-.14.53-.21,1-.21.4,0,.72.06.96.17.24.12.41.3.51.54v11.55c.01.24,0,.48-.06.7-.05.22-.18.4-.38.53s-.54.2-1.02.2ZM187.89,43.63c-.63,0-1.19-.13-1.68-.38-.48-.25-.88-.59-1.2-1.03s-.55-.93-.72-1.5-.24-1.18-.22-1.84c0-.63.08-1.24.25-1.81.17-.58.41-1.09.73-1.53s.71-.79,1.18-1.05,1.02-.38,1.66-.38c.57,0,1.12.13,1.66.39.54.26,1.01.61,1.43,1.06.41.45.74.96.98,1.54.24.58.36,1.19.36,1.84s-.12,1.26-.36,1.83c-.24.58-.56,1.08-.98,1.5-.42.43-.89.76-1.42,1s-1.08.36-1.67.36ZM187.48,40.9c.36,0,.69-.09.97-.26s.51-.41.69-.71c.17-.3.26-.63.26-.99s-.08-.71-.25-1c-.17-.29-.39-.52-.68-.69-.29-.17-.61-.25-.97-.25s-.67.09-.96.26c-.29.17-.52.41-.68.7-.16.29-.24.62-.24.98s.08.69.25.99c.17.3.4.53.68.71s.6.26.93.26Z"/><path class="cls-1" d="M198.32,43.98c-.9,0-1.68-.15-2.34-.45-.65-.3-1.19-.69-1.6-1.17-.41-.49-.72-1.02-.92-1.62-.2-.59-.3-1.19-.3-1.78,0-.97.22-1.83.66-2.58.44-.75,1.05-1.34,1.82-1.77.78-.43,1.67-.65,2.68-.65.75,0,1.4.12,1.95.36s1,.55,1.36.93c.36.38.62.79.8,1.23s.26.86.26,1.26c0,.71-.17,1.24-.51,1.58-.34.34-.78.51-1.31.51h-4.61c.03.34.15.62.36.85.21.23.48.41.8.54.32.13.67.19,1.03.19.31,0,.58-.02.81-.05.23-.03.43-.08.6-.14.17-.06.32-.12.47-.17s.27-.11.38-.15c.11-.04.22-.06.32-.08.2-.01.37.04.53.16.16.12.31.31.44.55.09.14.15.28.18.41.03.13.05.26.05.39,0,.31-.16.59-.48.83s-.76.44-1.34.58-1.27.21-2.08.21ZM196.24,38.24h3.06c.21,0,.36-.04.46-.11s.14-.21.14-.42c0-.23-.07-.44-.21-.61-.14-.17-.33-.31-.57-.41-.24-.1-.51-.15-.82-.15-.4,0-.75.08-1.06.23-.31.15-.55.36-.73.62-.17.26-.26.54-.26.83Z"/><path class="cls-1" d="M204.52,34.27h2.13l2.68-.08c.25,0,.48.02.7.07.22.05.4.17.54.38.14.21.21.55.21,1.03,0,.44-.07.76-.2.97-.14.21-.31.34-.53.4s-.46.09-.72.09l-2.54-.06h-2.35c-.37-.01-.64-.13-.79-.34-.15-.21-.22-.57-.22-1.08,0-.46.09-.81.27-1.04.18-.23.45-.34.81-.34ZM208.9,43.81c-.66,0-1.22-.07-1.7-.21-.47-.14-.86-.36-1.17-.66-.31-.3-.54-.68-.69-1.13s-.22-1-.22-1.64v-7.87c0-.26.02-.49.07-.7s.17-.38.38-.51c.21-.14.54-.2,1.01-.2s.8.07,1.01.21c.21.14.33.32.38.54.05.22.07.46.07.72v7.69c0,.21.02.38.05.51.03.14.08.24.14.3s.15.11.27.14c.12.03.26.04.43.04.29,0,.54.03.76.08s.39.17.51.35c.12.18.18.49.18.91,0,.47-.07.8-.21,1.01s-.33.33-.55.37c-.23.04-.46.06-.71.06Z"/><path class="cls-1" d="M213.43,32.72c-.49,0-.84-.07-1.05-.21-.21-.14-.33-.33-.38-.56-.05-.23-.07-.48-.07-.74,0-.27.03-.52.08-.75.05-.23.18-.41.39-.54.21-.14.55-.2,1.05-.2s.82.07,1.03.21c.21.14.33.33.38.56s.07.48.07.74-.02.5-.07.74c-.05.23-.17.42-.38.55-.21.14-.56.2-1.05.2ZM213.43,43.81c-.48,0-.82-.07-1.02-.2s-.32-.32-.37-.54c-.05-.23-.07-.46-.07-.71v-6.76c0-.26.02-.5.07-.72.05-.22.17-.4.38-.53.21-.14.55-.2,1.03-.2s.8.07,1,.21.32.32.37.54c.05.22.07.47.07.74v6.74c0,.25-.02.48-.07.71-.05.23-.17.4-.37.53s-.54.19-1.02.19Z"/><path class="cls-1" d="M217.17,34.27h2.13l2.68-.08c.25,0,.48.02.7.07.22.05.4.17.54.38.14.21.21.55.21,1.03,0,.44-.07.76-.2.97-.14.21-.31.34-.53.4s-.46.09-.72.09l-2.54-.06h-2.35c-.37-.01-.64-.13-.79-.34-.15-.21-.22-.57-.22-1.08,0-.46.09-.81.27-1.04.18-.23.45-.34.81-.34ZM221.55,43.81c-.66,0-1.22-.07-1.7-.21-.47-.14-.86-.36-1.17-.66-.31-.3-.54-.68-.69-1.13s-.22-1-.22-1.64v-7.87c0-.26.02-.49.07-.7s.17-.38.38-.51c.21-.14.54-.2,1.01-.2s.8.07,1.01.21c.21.14.33.32.38.54.05.22.07.46.07.72v7.69c0,.21.02.38.05.51.03.14.08.24.14.3s.15.11.27.14c.12.03.26.04.43.04.29,0,.54.03.76.08s.39.17.51.35c.12.18.18.49.18.91,0,.47-.07.8-.21,1.01s-.33.33-.55.37c-.23.04-.46.06-.71.06Z"/><path class="cls-1" d="M226.09,32.72c-.49,0-.84-.07-1.05-.21-.21-.14-.33-.33-.38-.56-.05-.23-.07-.48-.07-.74,0-.27.03-.52.08-.75.05-.23.18-.41.39-.54.21-.14.55-.2,1.05-.2s.82.07,1.03.21c.21.14.33.33.38.56s.07.48.07.74-.02.5-.07.74c-.05.23-.17.42-.38.55-.21.14-.56.2-1.05.2ZM226.09,43.81c-.48,0-.82-.07-1.02-.2s-.32-.32-.37-.54c-.05-.23-.07-.46-.07-.71v-6.76c0-.26.02-.5.07-.72.05-.22.17-.4.38-.53.21-.14.55-.2,1.03-.2s.8.07,1,.21.32.32.37.54c.05.22.07.47.07.74v6.74c0,.25-.02.48-.07.71-.05.23-.17.4-.37.53s-.54.19-1.02.19Z"/><path class="cls-1" d="M233.88,43.96c-.61,0-1.21-.12-1.81-.36-.6-.24-1.15-.58-1.64-1.02s-.88-.97-1.16-1.58c-.28-.61-.43-1.3-.43-2.05,0-.7.13-1.35.39-1.95.26-.6.62-1.13,1.08-1.6.47-.46,1-.83,1.6-1.09s1.24-.4,1.93-.4c.93,0,1.77.22,2.53.67.75.45,1.36,1.05,1.81,1.81.45.76.68,1.61.68,2.54,0,.79-.14,1.49-.44,2.1-.29.61-.68,1.14-1.16,1.58-.48.44-1.02.77-1.61,1-.59.23-1.18.34-1.77.34ZM233.84,41.04c.31,0,.63-.08.95-.23.32-.15.6-.39.82-.7.22-.31.33-.7.33-1.18,0-.41-.09-.78-.27-1.09-.18-.31-.43-.55-.75-.73-.32-.17-.68-.26-1.09-.26-.39,0-.73.09-1.04.27-.3.18-.55.43-.74.75s-.28.68-.28,1.08c0,.46.11.86.32,1.17s.48.55.81.7c.32.15.64.22.95.22Z"/><path class="cls-1" d="M241.51,43.79c-.48,0-.82-.07-1.02-.2s-.32-.32-.37-.54c-.04-.23-.07-.46-.07-.71v-6.82c0-.25.03-.47.08-.69.05-.21.18-.39.38-.51s.54-.19,1.02-.19c.41,0,.72.06.91.16.19.11.32.24.38.4s.09.3.09.44.01.23.04.28l-.12.37c.03-.19.12-.39.3-.59s.4-.38.66-.54c.27-.16.55-.29.85-.38.3-.09.6-.14.9-.14.62,0,1.17.11,1.66.34.48.23.89.55,1.23.98.33.43.59.93.77,1.5s.26,1.2.26,1.89v3.53c0,.25-.02.48-.07.71-.05.23-.17.4-.37.53-.2.13-.54.19-1.02.19s-.84-.07-1.04-.2-.33-.32-.38-.54c-.05-.23-.08-.46-.08-.71v-3.51c0-.39-.06-.72-.19-.99s-.32-.48-.58-.63-.58-.22-.95-.22-.7.08-.97.23c-.27.16-.48.37-.63.64-.15.27-.22.6-.22.97v3.53c0,.25-.02.48-.07.71-.04.23-.17.4-.37.53-.2.13-.54.19-1.02.19Z"/><path class="cls-1" d="M254.46,43.96c-.35,0-.73-.04-1.13-.12-.41-.08-.8-.19-1.19-.34-.39-.15-.71-.32-.97-.52-.26-.2-.41-.43-.45-.69-.03-.13-.02-.27.01-.42.03-.15.09-.3.18-.46.09-.16.2-.33.33-.51.1-.14.22-.23.35-.27.13-.04.28-.03.45.02.21.04.42.11.63.2.21.1.43.2.64.31.21.11.44.21.67.29.23.08.47.13.72.13.36,0,.64-.05.84-.16s.3-.26.3-.46c0-.14-.04-.26-.13-.35-.08-.09-.2-.17-.35-.24-.15-.07-.32-.13-.51-.18-.2-.05-.41-.11-.63-.16s-.46-.12-.69-.18c-.32-.09-.63-.21-.93-.35-.3-.14-.57-.33-.81-.55-.25-.23-.44-.5-.58-.83-.14-.33-.21-.73-.21-1.21,0-.63.15-1.16.45-1.59.3-.43.73-.75,1.3-.98.57-.23,1.26-.34,2.07-.34.23,0,.47.01.7.04.23.03.46.07.69.14.23.06.45.14.67.23.22.09.44.2.66.33.39.18.59.43.6.74s-.1.63-.33.95c-.14.22-.29.38-.45.47-.16.1-.32.13-.49.09-.21-.05-.43-.14-.67-.25-.24-.12-.49-.23-.75-.33-.26-.1-.53-.15-.79-.15-.22,0-.41.03-.56.09-.15.06-.27.14-.35.23-.08.1-.12.21-.12.34,0,.17.05.3.14.4.1.1.23.18.4.24s.36.12.58.17c.22.05.46.1.72.15.35.06.71.15,1.07.26.37.11.7.27,1.01.47s.55.48.74.83c.19.35.28.81.28,1.38,0,1.02-.36,1.8-1.07,2.34-.71.54-1.73.81-3.04.81Z"/><path class="cls-1" d="M82.81,19.23c-.23-.05-.44-.08-.66-.08-.23,0-.42-.02-.57-.05s-.26-.11-.34-.22c-.08-.11-.14-.26-.16-.44-.03-.19-.04-.43-.04-.71V5.47c0-.36-.04-.69-.11-1-.07-.31-.25-.56-.52-.75-.28-.2-.74-.3-1.39-.3s-1.11.1-1.4.3c-.29.2-.46.45-.52.75-.06.31-.09.64-.09,1v12.44c0,.88.06,1.62.17,2.22.12.6.3,1.09.55,1.47.25.38.58.67.98.89.4.22.89.36,1.45.44s1.22.12,1.95.12c.23,0,.46-.03.69-.08.22-.05.42-.22.58-.51.16-.29.24-.75.24-1.4s-.08-1.08-.24-1.35c-.16-.27-.35-.43-.58-.48Z"/><path class="cls-1" d="M95.11,10.25c-1.05-.62-2.22-.93-3.51-.93-.95,0-1.84.18-2.68.55-.83.37-1.58.88-2.22,1.52s-1.15,1.39-1.51,2.22c-.36.83-.54,1.74-.54,2.71,0,1.04.2,1.99.59,2.84.39.85.93,1.58,1.61,2.19.68.61,1.44,1.08,2.27,1.41s1.67.5,2.52.5,1.65-.16,2.46-.47c.82-.31,1.56-.78,2.23-1.39.67-.61,1.21-1.34,1.61-2.19s.61-1.83.61-2.92c0-1.29-.31-2.47-.94-3.53-.63-1.06-1.47-1.9-2.52-2.52ZM94.05,17.91c-.31.43-.68.75-1.13.97s-.89.32-1.32.32-.87-.1-1.32-.31c-.45-.21-.82-.53-1.12-.97-.3-.44-.44-.98-.44-1.63,0-.56.13-1.05.39-1.49.26-.44.6-.78,1.02-1.04.42-.25.9-.38,1.44-.38.57,0,1.08.12,1.52.36.44.24.78.58,1.04,1.01.25.43.38.93.38,1.51,0,.66-.15,1.21-.46,1.64Z"/><path class="cls-1" d="M111.87,11.62c-.57-.62-1.23-1.11-1.98-1.47-.74-.36-1.51-.54-2.3-.54-.88,0-1.65.18-2.3.53-.38.2-.71.46-1.01.74v-5.36c.02-.34,0-.67-.05-.98-.05-.31-.22-.57-.48-.77-.27-.2-.73-.3-1.37-.3s-1.14.09-1.41.28c-.28.19-.45.44-.52.74-.07.31-.11.65-.11,1.02v15.48c0,.34.03.67.09.98.06.31.24.57.52.77.29.2.75.3,1.4.3s1.09-.1,1.37-.3c.29-.2.48-.5.57-.91v-.09c.3.27.62.52.98.72.67.37,1.45.55,2.33.55.81,0,1.58-.18,2.31-.52.74-.35,1.39-.84,1.97-1.47.57-.63,1.03-1.35,1.36-2.17.33-.82.5-1.68.5-2.6s-.17-1.72-.5-2.52c-.33-.8-.78-1.51-1.36-2.13ZM109.32,17.69c-.24.41-.56.74-.96.98-.4.24-.84.36-1.35.36-.47,0-.9-.12-1.29-.36-.39-.24-.71-.57-.94-.98-.23-.41-.35-.87-.35-1.37s.11-.98.34-1.39.54-.72.94-.96c.4-.23.85-.35,1.33-.35s.95.12,1.35.35c.39.23.71.55.94.96.23.4.35.87.35,1.39s-.12.96-.36,1.37Z"/><path class="cls-1" d="M128.06,9.89c-.28-.2-.74-.3-1.39-.3-.68,0-1.18.11-1.49.34-.31.22-.46.55-.44.98l.22.38c-.16-.23-.4-.48-.71-.73-.31-.25-.71-.47-1.17-.66-.47-.19-1.03-.28-1.7-.28-.83,0-1.61.18-2.34.54-.74.36-1.4.85-1.98,1.47-.58.62-1.04,1.33-1.37,2.13-.33.8-.5,1.64-.5,2.52s.17,1.75.5,2.56c.33.81.78,1.53,1.36,2.17.57.64,1.23,1.14,1.98,1.49s1.53.54,2.36.54c.72,0,1.32-.1,1.8-.31s.88-.44,1.18-.7c.3-.26.51-.48.62-.66l-.27.46c0,.34.16.63.47.86.31.23.8.35,1.47.35s1.13-.09,1.41-.28c.28-.19.45-.44.51-.77s.09-.65.09-1v-9.29c0-.36-.03-.7-.09-1.02s-.23-.58-.51-.78ZM124.16,17.67c-.23.41-.53.74-.92.98-.39.24-.81.36-1.28.36-.52,0-.99-.12-1.41-.36-.42-.24-.75-.57-1-.97s-.36-.85-.36-1.33c0-.52.12-.99.36-1.4s.57-.74.97-1c.4-.25.87-.38,1.39-.38.47,0,.9.12,1.29.36.39.24.71.57.94.97.23.4.35.87.35,1.39s-.11.96-.34,1.37Z"/><path class="cls-1" d="M137.39,19.71c-.16-.27-.35-.43-.58-.48-.23-.05-.44-.08-.66-.08-.23,0-.42-.02-.57-.05s-.26-.11-.34-.22c-.08-.11-.14-.26-.16-.44-.03-.19-.04-.43-.04-.71V5.47c0-.36-.04-.69-.11-1-.07-.31-.25-.56-.52-.75-.28-.2-.74-.3-1.39-.3s-1.11.1-1.4.3c-.29.2-.46.45-.52.75s-.09.64-.09,1v12.44c0,.88.06,1.62.17,2.22.12.6.3,1.09.55,1.47.25.38.58.67.98.89.4.22.89.36,1.45.44s1.22.12,1.95.12c.23,0,.46-.03.69-.08.22-.05.42-.22.58-.51.16-.29.24-.75.24-1.4s-.08-1.08-.24-1.35Z"/></g></svg>