<?xml version="1.0" encoding="UTF-8"?><svg id="Layer_2" xmlns="http://www.w3.org/2000/svg" xmlns:xlink="http://www.w3.org/1999/xlink" viewBox="0 0 222.69 179"><defs><style>.cls-1{filter:url(#outer-glow-4);opacity:.8;}.cls-1,.cls-2,.cls-3,.cls-4,.cls-5,.cls-6,.cls-7,.cls-8,.cls-9,.cls-10{stroke-width:0px;}.cls-1,.cls-4,.cls-5,.cls-6,.cls-7,.cls-8,.cls-9,.cls-10{fill:#fff;}.cls-2{fill:url(#radial-gradient);}.cls-3{fill:url(#radial-gradient-2);}.cls-4{filter:url(#outer-glow-5);}.cls-4,.cls-5,.cls-6,.cls-7,.cls-8{opacity:.44;}.cls-5{filter:url(#outer-glow-7);}.cls-6{filter:url(#outer-glow-8);}.cls-7{filter:url(#outer-glow-6);}.cls-8{filter:url(#outer-glow-3);}.cls-9{filter:url(#outer-glow-1);}.cls-10{filter:url(#outer-glow-2);}</style><radialGradient id="radial-gradient" cx="104.46" cy="139.23" fx="104.46" fy="139.23" r="71.7" gradientTransform="translate(8.39 -47.06) scale(.96 .98)" gradientUnits="userSpaceOnUse"><stop offset="0" stop-color="#fff"/><stop offset=".06" stop-color="rgba(255,255,255,.91)" stop-opacity=".91"/><stop offset=".25" stop-color="rgba(255,255,255,.64)" stop-opacity=".64"/><stop offset=".43" stop-color="rgba(255,255,255,.41)" stop-opacity=".41"/><stop offset=".6" stop-color="rgba(255,255,255,.23)" stop-opacity=".23"/><stop offset=".74" stop-color="rgba(255,255,255,.11)" stop-opacity=".11"/><stop offset=".87" stop-color="rgba(255,255,255,.03)" stop-opacity=".03"/><stop offset=".95" stop-color="#fff" stop-opacity="0"/></radialGradient><radialGradient id="radial-gradient-2" cx="107.26" cy="67.65" fx="107.26" fy="67.65" r="116" gradientTransform="translate(8.39 37.3) scale(.96 .77)" xlink:href="#radial-gradient"/><filter id="outer-glow-1" filterUnits="userSpaceOnUse"><feOffset dx="0" dy="0"/><feGaussianBlur result="blur" stdDeviation="2.33"/><feFlood flood-color="#fff92c" flood-opacity="1"/><feComposite in2="blur" operator="in"/><feComposite in="SourceGraphic"/></filter><filter id="outer-glow-2" filterUnits="userSpaceOnUse"><feOffset dx="0" dy="0"/><feGaussianBlur result="blur-2" stdDeviation="2.17"/><feFlood flood-color="#fff92c" flood-opacity="1"/><feComposite in2="blur-2" operator="in"/><feComposite in="SourceGraphic"/></filter><filter id="outer-glow-3" filterUnits="userSpaceOnUse"><feOffset dx="0" dy="0"/><feGaussianBlur result="blur-3" stdDeviation="2"/><feFlood flood-color="#fff92c" flood-opacity="1"/><feComposite in2="blur-3" operator="in"/><feComposite in="SourceGraphic"/></filter><filter id="outer-glow-4" filterUnits="userSpaceOnUse"><feOffset dx="0" dy="0"/><feGaussianBlur result="blur-4" stdDeviation="2"/><feFlood flood-color="#fff92c" flood-opacity="1"/><feComposite in2="blur-4" operator="in"/><feComposite in="SourceGraphic"/></filter><filter id="outer-glow-5" filterUnits="userSpaceOnUse"><feOffset dx="0" dy="0"/><feGaussianBlur result="blur-5" stdDeviation="1.17"/><feFlood flood-color="#fff92c" flood-opacity="1"/><feComposite in2="blur-5" operator="in"/><feComposite in="SourceGraphic"/></filter><filter id="outer-glow-6" filterUnits="userSpaceOnUse"><feOffset dx="0" dy="0"/><feGaussianBlur result="blur-6" stdDeviation="1.17"/><feFlood flood-color="#fff92c" flood-opacity="1"/><feComposite in2="blur-6" operator="in"/><feComposite in="SourceGraphic"/></filter><filter id="outer-glow-7" filterUnits="userSpaceOnUse"><feOffset dx="0" dy="0"/><feGaussianBlur result="blur-7" stdDeviation="1.17"/><feFlood flood-color="#fff92c" flood-opacity="1"/><feComposite in2="blur-7" operator="in"/><feComposite in="SourceGraphic"/></filter><filter id="outer-glow-8" filterUnits="userSpaceOnUse"><feOffset dx="0" dy="0"/><feGaussianBlur result="blur-8" stdDeviation="1.17"/><feFlood flood-color="#fff92c" flood-opacity="1"/><feComposite in2="blur-8" operator="in"/><feComposite in="SourceGraphic"/></filter></defs><g id="Layer_2-2"><ellipse class="cls-2" cx="108.66" cy="88.96" rx="68.82" ry="70.04"/><path class="cls-3" d="M222.69,100.36v-21.73l-95.21,9.29c-.36-2.43-1.55-4.65-3.34-6.48l75.5-47.55-19.11-15.36-59.15,60.68c-2.28-1.44-5.04-2.39-8.06-2.69L124.86,0h-27.03l11.56,76.53c-3.02.29-5.79,1.25-8.06,2.69L42.17,18.53l-19.11,15.36,75.5,47.55c-1.79,1.83-2.98,4.05-3.34,6.48L0,78.64v21.73l95.21-9.29c.36,2.43,1.55,4.65,3.34,6.48l-75.5,47.55,19.11,15.36,59.15-60.68c2.28,1.44,5.04,2.39,8.06,2.69l-11.56,76.53h27.03l-11.56-76.53c3.02-.29,5.79-1.25,8.06-2.69l59.15,60.68,19.11-15.36-75.5-47.55c1.79-1.83,2.98-4.05,3.34-6.48l95.21,9.29Z"/><path class="cls-9" d="M172.03,33.57l1.33,4.26,4.26,1.33c.33.1.33.57,0,.67l-4.26,1.33-1.33,4.26c-.1.33-.57.33-.67,0l-1.33-4.26-4.26-1.33c-.33-.1-.33-.57,0-.67l4.26-1.33,1.33-4.26c.1-.33.57-.33.67,0Z"/><path class="cls-10" d="M63,130l1.23,3.96,3.96,1.23c.31.1.31.53,0,.62l-3.96,1.23-1.23,3.96c-.1.31-.53.31-.62,0l-1.23-3.96-3.96-1.23c-.31-.1-.31-.53,0-.62l3.96-1.23,1.23-3.96c.1-.31.53-.31.62,0Z"/><path class="cls-8" d="M200.98,46.92l1.14,3.65,3.65,1.14c.28.09.28.49,0,.57l-3.65,1.14-1.14,3.65c-.09.28-.49.28-.57,0l-1.14-3.65-3.65-1.14c-.28-.09-.28-.49,0-.57l3.65-1.14,1.14-3.65c.09-.28.49-.28.57,0Z"/><path class="cls-1" d="M45.98,53.92l1.14,3.65,3.65,1.14c.28.09.28.49,0,.57l-3.65,1.14-1.14,3.65c-.09.28-.49.28-.57,0l-1.14-3.65-3.65-1.14c-.28-.09-.28-.49,0-.57l3.65-1.14,1.14-3.65c.09-.28.49-.28.57,0Z"/><path class="cls-4" d="M17.36,48.54l.66,2.13,2.13.66c.16.05.16.28,0,.34l-2.13.66-.66,2.13c-.05.16-.28.16-.34,0l-.66-2.13-2.13-.66c-.16-.05-.16-.28,0-.34l2.13-.66.66-2.13c.05-.16.28-.16.34,0Z"/><path class="cls-7" d="M70.36,8.54l.66,2.13,2.13.66c.16.05.16.28,0,.34l-2.13.66-.66,2.13c-.05.16-.28.16-.34,0l-.66-2.13-2.13-.66c-.16-.05-.16-.28,0-.34l2.13-.66.66-2.13c.05-.16.28-.16.34,0Z"/><path class="cls-5" d="M36.36,130.54l.66,2.13,2.13.66c.16.05.16.28,0,.34l-2.13.66-.66,2.13c-.05.16-.28.16-.34,0l-.66-2.13-2.13-.66c-.16-.05-.16-.28,0-.34l2.13-.66.66-2.13c.05-.16.28-.16.34,0Z"/><path class="cls-6" d="M182.36,134.54l.66,2.13,2.13.66c.16.05.16.28,0,.34l-2.13.66-.66,2.13c-.05.16-.28.16-.34,0l-.66-2.13-2.13-.66c-.16-.05-.16-.28,0-.34l2.13-.66.66-2.13c.05-.16.28-.16.34,0Z"/></g></svg>