<svg width="496" height="561" viewBox="0 0 496 561" fill="none" xmlns="http://www.w3.org/2000/svg">
<g clip-path="url(#clip0_5053_32)">
<path d="M431.855 335.541C437.519 331.901 440.213 326.133 440.213 320.365C440.213 312.468 435.171 304.639 426.054 302.579C417.213 300.588 411.826 292.828 411.826 284.863C411.826 281.086 413 277.309 415.555 273.944C424.811 261.79 415.763 244.828 401.12 244.828C400.36 244.828 399.532 244.897 398.703 244.966C387.514 246.339 378.19 237.481 378.19 227.043C378.19 225.258 378.466 223.472 379.018 221.618C382.817 209.189 373.009 197.996 361.544 197.996C358.85 197.996 356.019 198.682 353.256 200.056C350.562 201.429 347.661 202.116 344.899 202.116C335.644 202.116 327.217 194.974 326.665 184.811C326.112 174.305 317.34 167.575 308.293 167.575C303.596 167.575 298.761 169.429 295.031 173.412C286.053 183.026 270.029 180.21 264.849 168.124C261.672 160.708 254.903 157 247.996 157C241.089 157 234.321 160.708 231.212 168.124C228.173 175.266 221.267 179.18 214.291 179.18C209.525 179.18 204.621 177.326 200.961 173.412C197.231 169.429 192.396 167.575 187.7 167.575C178.652 167.575 169.949 174.305 169.396 184.811C168.844 194.974 160.418 202.116 151.162 202.116C148.4 202.116 145.499 201.429 142.805 200.056C130.166 193.67 116.214 203.283 116.214 216.124C116.214 217.91 116.49 219.764 117.043 221.618C120.703 233.429 111.655 245.103 99.5685 245.103C98.8088 245.103 98.049 245.034 97.2893 244.966C85.5477 243.524 76.776 252.863 76.776 263.094C76.776 266.734 77.9502 270.511 80.5057 273.944C83.0612 277.309 84.2354 281.086 84.2354 284.863C84.2354 292.828 78.8481 300.588 70.0073 302.579C60.8903 304.639 55.7793 312.468 55.7793 320.365C55.7793 326.133 58.473 331.901 64.1365 335.541C69.662 339.112 72.4938 344.948 72.4938 350.785C72.4938 356.622 69.662 362.459 64.1365 366.03C58.473 369.67 55.7793 375.438 55.7793 381.137C55.7793 389.034 60.8903 396.863 70.0073 398.923C78.8481 400.914 84.2354 408.674 84.2354 416.708C84.2354 420.485 83.0612 424.262 80.5057 427.627C71.2506 439.781 80.3676 456.742 94.941 456.742C95.7007 456.742 96.5295 456.674 97.2893 456.605C108.616 455.163 117.872 464.09 117.872 474.597C117.872 476.313 117.595 478.167 117.043 479.953C113.175 492.313 122.983 503.506 134.448 503.506C137.211 503.506 140.042 502.82 142.805 501.446C145.499 500.073 148.331 499.455 151.093 499.455C160.418 499.455 168.844 506.528 169.396 516.691C169.949 527.266 178.721 533.996 187.769 533.996C192.465 533.996 197.231 532.142 200.961 528.159C204.69 524.176 209.525 522.322 214.291 522.322C221.267 522.322 228.173 526.236 231.212 533.446C234.321 540.863 241.227 544.502 247.996 544.502C254.765 544.502 261.672 540.863 264.849 533.446C267.888 526.236 274.794 522.322 281.701 522.322C286.536 522.322 291.371 524.176 295.031 528.159C298.761 532.142 303.527 533.996 308.223 533.996C317.34 533.996 326.112 527.266 326.665 516.691C327.217 506.528 335.644 499.455 344.968 499.455C347.73 499.455 350.562 500.073 353.256 501.446C365.895 507.833 379.847 498.219 379.847 485.378C379.847 483.661 379.571 481.807 379.018 479.953C375.289 468.073 384.337 456.468 396.354 456.468C397.114 456.468 397.874 456.468 398.703 456.605C410.444 458.047 419.285 448.639 419.285 438.476C419.285 434.768 418.111 430.991 415.555 427.627C413 424.262 411.826 420.485 411.826 416.708C411.826 408.674 417.213 400.914 426.054 398.923C435.171 396.863 440.213 389.034 440.213 381.137C440.213 375.438 437.519 369.67 431.855 366.03C426.33 362.459 423.498 356.554 423.498 350.785C423.498 345.017 426.33 339.112 431.855 335.541ZM248.065 492.725C169.189 492.725 105.232 429.137 105.232 350.785C105.232 339.455 106.544 328.399 109.1 317.824C122.016 263.987 165.598 222.03 220.507 211.455C229.486 209.738 238.603 208.777 248.065 208.777C254.834 208.777 261.395 209.189 267.888 210.219C325.905 218.185 372.802 260.897 386.616 316.588C389.379 327.575 390.829 339.043 390.829 350.785C390.829 429.137 326.872 492.725 248.065 492.725Z" fill="#FFE500"/>
<path d="M264.006 237.702C258.757 236.878 253.438 236.534 248.051 236.534C240.454 236.534 233.063 237.29 225.88 238.663C181.746 247.247 146.59 280.963 136.23 324.225C134.158 332.809 133.122 341.667 133.122 350.8C133.122 413.839 184.577 464.998 248.051 464.998C311.525 464.998 362.911 413.839 362.911 350.8C362.911 341.324 361.737 332.122 359.527 323.264C348.407 278.491 310.696 244.088 264.006 237.702ZM196.181 363.435C183.541 363.435 173.25 353.204 173.25 340.637C173.25 328.071 183.541 317.77 196.181 317.77C208.82 317.77 219.181 328.002 219.181 340.637C219.181 353.272 208.889 363.435 196.181 363.435ZM281.963 385.684C271.949 397.427 259.171 400.998 248.12 400.998C240.454 400.998 233.616 399.281 229.195 397.358C226.571 396.259 225.397 393.307 226.502 390.766C227.607 388.156 230.577 386.989 233.132 388.088C234.168 388.5 257.997 398.182 274.228 379.161C276.024 377.032 279.27 376.757 281.342 378.611C283.483 380.397 283.759 383.556 281.963 385.684ZM296.261 363.435C283.552 363.435 273.261 353.204 273.261 340.637C273.261 328.071 283.552 317.77 296.261 317.77C308.969 317.77 319.191 328.002 319.191 340.637C319.191 353.272 308.9 363.435 296.261 363.435Z" fill="white"/>
<path d="M471.23 16.5039H440.702C437.732 16.5039 434.969 18.0146 433.38 20.4181L340.967 160.641C339.517 162.839 339.102 165.585 340 168.058C341.036 170.873 341.658 173.963 341.796 177.122C341.934 179.251 343.73 180.281 344.973 180.281C345.111 180.281 345.733 180.212 346.562 179.8C351.397 177.397 356.577 176.161 361.619 176.161C365.348 176.161 369.078 176.779 372.531 178.015C376.537 179.388 380.889 178.221 383.237 174.719L478.551 30.0318C482.35 24.1949 478.206 16.5039 471.23 16.5039Z" fill="#00BCFF"/>
<path d="M123.527 178.015C127.05 176.779 130.71 176.161 134.509 176.161C139.758 176.161 144.8 177.397 149.704 179.869C150.395 180.212 151.016 180.281 151.155 180.281C152.398 180.281 154.194 179.251 154.332 177.191C154.539 174.032 155.092 171.01 156.128 168.126C156.956 165.654 156.542 162.976 155.092 160.779L62.6783 20.4181C61.0897 17.946 58.327 16.5039 55.3571 16.5039H24.7599C17.784 16.5039 13.6399 24.1949 17.4387 30.0318L112.822 174.787C115.17 178.289 119.521 179.457 123.527 178.083V178.015Z" fill="#00BCFF"/>
<path d="M166.027 144.298C168.306 147.8 172.727 148.967 176.733 147.594C180.186 146.358 183.916 145.74 187.715 145.74C196.97 145.74 205.603 149.448 212.027 156.315C212.786 157.139 213.684 157.345 214.306 157.345C214.72 157.345 217.759 157.139 217.483 153.637C217.276 150.959 218.381 148.418 220.384 146.564C231.366 136.401 244.42 133.585 255.263 135.852C258.855 136.607 262.585 135.234 264.587 132.212L273.774 118.272L331.929 30.0318C335.728 24.1949 331.584 16.5039 324.608 16.5039H294.08C291.11 16.5039 288.347 18.0146 286.758 20.4181L255.401 68.0061C251.948 73.2936 244.212 73.2936 240.69 68.0061L209.333 20.4181C207.744 17.946 204.982 16.5039 202.012 16.5039H171.484C164.508 16.5039 160.295 24.1949 164.162 30.0318L219.141 113.534C221.075 116.418 221.075 120.195 219.141 123.148L218.726 123.766C215.273 128.985 207.537 128.985 204.084 123.766L135.983 20.4181C134.394 17.946 131.631 16.5039 128.661 16.5039H98.1332C91.1573 16.5039 86.9441 24.1949 90.812 30.0318L166.096 144.298H166.027Z" fill="#00BCFF"/>
<path d="M275.278 149.105C276.59 151.028 277.764 153.088 278.731 155.354C279.491 157.208 281.218 157.345 281.77 157.345C283.083 157.345 283.773 156.59 283.98 156.315C290.404 149.448 299.037 145.74 308.292 145.74C312.16 145.74 315.821 146.358 319.274 147.594C323.211 148.967 327.632 147.8 329.911 144.298L405.264 30.0318C409.063 24.1949 404.919 16.5039 397.943 16.5039H367.415C364.445 16.5039 361.682 18.0146 360.094 20.4181L284.74 134.822L275.347 149.105H275.278Z" fill="#00BCFF"/>
</g>
<defs>
<clipPath id="clip0_5053_32">
<rect width="464" height="528" fill="white" transform="translate(15.9966 16.5039)"/>
</clipPath>
</defs>
</svg>
