<?xml version="1.0" encoding="UTF-8"?><svg id="Layer_2" xmlns="http://www.w3.org/2000/svg" viewBox="0 0 64.36 47.1"><defs><style>.cls-1{fill:#00a848;}.cls-2{fill:#06ff94;}.cls-3{fill:#00e26b;}</style></defs><g id="Layer_1-2"><path class="cls-3" d="M26.35,47.1c-2.33,0-4.65-.89-6.43-2.66L2.66,27.19c-3.55-3.55-3.55-9.31,0-12.86s9.31-3.55,12.86,0l10.83,10.83L48.84,2.66c3.55-3.55,9.31-3.55,12.86,0,3.55,3.55,3.55,9.31,0,12.86l-28.92,28.92c-1.78,1.78-4.1,2.66-6.43,2.66Z"/><path class="cls-1" d="M61.69,11.88l-28.92,28.92c-1.78,1.78-4.1,2.66-6.43,2.66s-4.65-.89-6.43-2.66L2.66,23.55c-1.31-1.31-2.13-2.92-2.47-4.61-.59,2.89.23,6.01,2.47,8.25l17.25,17.25c1.78,1.78,4.1,2.66,6.43,2.66s4.65-.89,6.43-2.66l28.92-28.92c2.24-2.24,3.06-5.36,2.47-8.25-.34,1.69-1.16,3.3-2.47,4.61Z"/><rect class="cls-2" x="7.81" y="16.15" width="10.91" height="7.27" rx="3.64" ry="3.64" transform="translate(17.87 -3.58) rotate(45)"/><rect class="cls-2" x="46.81" y="4.33" width="8.34" height="7.27" rx="3.64" ry="3.64" transform="translate(92.66 -22.46) rotate(135)"/><rect class="cls-2" x="28.03" y="16.37" width="21.82" height="7.27" rx="3.64" ry="3.64" transform="translate(80.62 6.61) rotate(135)"/></g></svg>