<svg width="435" height="435" viewBox="0 0 435 435" fill="none" xmlns="http://www.w3.org/2000/svg">
<path d="M0 217.5C0 275.185 22.9151 330.507 63.7043 371.296C104.493 412.085 159.815 435 217.5 435C275.185 435 330.507 412.085 371.296 371.296C412.085 330.507 435 275.185 435 217.5C435 159.815 412.085 104.493 371.296 63.7043C330.507 22.9151 275.185 0 217.5 0C159.815 0 104.493 22.9151 63.7043 63.7043C22.9151 104.493 0 159.815 0 217.5Z" fill="black" fill-opacity="0.5"/>
<path d="M135.397 349.318C107.941 349.318 85.6831 327.061 85.6831 299.604V138.773C85.6831 131.336 91.073 125.227 97.6681 125.227H337.368C340.532 125.247 343.562 126.681 345.8 129.217C348.037 131.753 349.302 135.187 349.319 138.773V299.604C349.319 327.061 327.062 349.318 299.605 349.318H135.397Z" fill="#FFC700"/>
<path d="M105.455 180.026C105.455 138.842 138.842 105.455 180.026 105.455H254.974C296.159 105.455 329.546 138.841 329.546 180.026V254.974C329.546 296.159 296.159 329.546 254.974 329.546H180.026C138.842 329.546 105.455 296.159 105.455 254.974V180.026Z" fill="#FEEAB8"/>
<path d="M295.394 85.6825C325.176 85.6825 349.319 109.826 349.319 139.608V139.608C349.302 142.781 348.034 145.819 345.79 148.062C343.546 150.306 340.508 151.574 337.334 151.592H97.6346C94.4645 151.574 91.4298 150.305 89.1913 148.06C86.9528 145.816 85.6919 142.778 85.6831 139.608V139.608C85.6831 109.826 109.826 85.6825 139.609 85.6825H295.394Z" fill="#FC5B5B"/>
<path d="M112.045 125.227C112.045 126.092 112.216 126.949 112.547 127.749C112.878 128.549 113.364 129.275 113.976 129.887C114.588 130.499 115.314 130.985 116.114 131.316C116.913 131.647 117.771 131.818 118.636 131.818C119.502 131.818 120.359 131.647 121.158 131.316C121.958 130.985 122.685 130.499 123.297 129.887C123.909 129.275 124.394 128.549 124.725 127.749C125.057 126.949 125.227 126.092 125.227 125.227C125.227 124.361 125.057 123.504 124.725 122.705C124.394 121.905 123.909 121.178 123.297 120.566C122.685 119.954 121.958 119.469 121.158 119.138C120.359 118.806 119.502 118.636 118.636 118.636C117.771 118.636 116.913 118.806 116.114 119.138C115.314 119.469 114.588 119.954 113.976 120.566C113.364 121.178 112.878 121.905 112.547 122.705C112.216 123.504 112.045 124.361 112.045 125.227Z" fill="white"/>
<path d="M131.817 125.227C131.817 126.092 131.987 126.949 132.319 127.749C132.65 128.549 133.135 129.275 133.747 129.887C134.359 130.499 135.086 130.985 135.886 131.316C136.685 131.647 137.542 131.818 138.408 131.818C139.273 131.818 140.13 131.647 140.93 131.316C141.73 130.985 142.456 130.499 143.068 129.887C143.68 129.275 144.166 128.549 144.497 127.749C144.828 126.949 144.999 126.092 144.999 125.227C144.999 124.361 144.828 123.504 144.497 122.705C144.166 121.905 143.68 121.178 143.068 120.566C142.456 119.954 141.73 119.469 140.93 119.138C140.13 118.806 139.273 118.636 138.408 118.636C137.542 118.636 136.685 118.806 135.886 119.138C135.086 119.469 134.359 119.954 133.747 120.566C133.135 121.178 132.65 121.905 132.319 122.705C131.987 123.504 131.817 124.361 131.817 125.227Z" fill="white"/>
<path d="M151.592 125.227C151.592 126.975 152.286 128.651 153.522 129.887C154.758 131.123 156.434 131.818 158.182 131.818C159.93 131.818 161.607 131.123 162.843 129.887C164.079 128.651 164.773 126.975 164.773 125.227C164.773 123.479 164.079 121.802 162.843 120.566C161.607 119.33 159.93 118.636 158.182 118.636C156.434 118.636 154.758 119.33 153.522 120.566C152.286 121.802 151.592 123.479 151.592 125.227Z" fill="white"/>
<path d="M289.999 175.275C289.999 177.5 289.101 179.633 287.503 181.206C285.904 182.78 283.736 183.663 281.476 183.663H127.16C124.899 183.663 122.731 182.78 121.132 181.206C119.534 179.633 118.636 177.5 118.636 175.275V173.161C118.636 170.936 119.534 168.803 121.132 167.229C122.731 165.656 124.899 164.773 127.16 164.773H281.476C283.736 164.773 285.904 165.656 287.503 167.229C289.101 168.803 289.999 170.936 289.999 173.161V175.275ZM240.459 211.949C240.459 214.174 239.561 216.308 237.962 217.881C236.364 219.454 234.196 220.338 231.935 220.338H127.16C124.899 220.338 122.731 219.454 121.132 217.881C119.534 216.308 118.636 214.174 118.636 211.949V209.869C118.636 207.644 119.534 205.51 121.132 203.937C122.731 202.364 124.899 201.48 127.16 201.48H231.935C234.196 201.48 236.364 202.364 237.962 203.937C239.561 205.51 240.459 207.644 240.459 209.869V211.949ZM268.144 248.657C268.144 250.882 267.246 253.015 265.648 254.588C264.049 256.162 261.881 257.045 259.62 257.045H127.16C124.899 257.045 122.731 256.162 121.132 254.588C119.534 253.015 118.636 250.882 118.636 248.657V246.577C118.636 244.352 119.534 242.218 121.132 240.645C122.731 239.072 124.899 238.188 127.16 238.188H259.62C261.881 238.188 264.049 239.072 265.648 240.645C267.246 242.218 268.144 244.352 268.144 246.577V248.657Z" fill="#FFB703" fill-opacity="0.23"/>
<path d="M289.999 355.908C289.999 365.429 291.874 374.857 295.518 383.653C299.161 392.449 304.502 400.441 311.234 407.174C317.966 413.906 325.958 419.246 334.754 422.89C343.551 426.533 352.978 428.408 362.499 428.408C372.02 428.408 381.447 426.533 390.244 422.89C399.04 419.246 407.032 413.906 413.764 407.174C420.497 400.441 425.837 392.449 429.48 383.653C433.124 374.857 434.999 365.429 434.999 355.908C434.999 346.388 433.124 336.96 429.48 328.164C425.837 319.368 420.497 311.375 413.764 304.643C407.032 297.911 399.04 292.571 390.244 288.927C381.447 285.284 372.02 283.408 362.499 283.408C352.978 283.408 343.551 285.284 334.754 288.927C325.958 292.571 317.966 297.911 311.234 304.643C304.502 311.375 299.161 319.368 295.518 328.164C291.874 336.96 289.999 346.388 289.999 355.908Z" fill="white"/>
<path d="M364.695 377.439C371.477 377.439 377.316 373.566 377.765 366.368L380.055 322.816C380.159 321.127 379.838 319.439 379.112 317.854C378.386 316.269 377.269 314.822 375.831 313.601C374.393 312.38 372.663 311.41 370.748 310.752C368.833 310.094 366.773 309.76 364.695 309.772C362.618 309.766 360.561 310.103 358.649 310.763C356.737 311.423 355.01 312.392 353.573 313.613C352.136 314.833 351.019 316.278 350.291 317.86C349.562 319.442 349.236 321.128 349.334 322.816L351.714 366.368C352.074 373.566 357.912 377.439 364.695 377.439Z" fill="#FC5B5B"/>
<path d="M355.47 392.818C355.47 395.266 356.443 397.613 358.173 399.343C359.904 401.073 362.251 402.046 364.698 402.046C367.145 402.046 369.492 401.073 371.222 399.343C372.953 397.613 373.925 395.266 373.925 392.818C373.925 390.371 372.953 388.024 371.222 386.294C369.492 384.563 367.145 383.591 364.698 383.591C362.251 383.591 359.904 384.563 358.173 386.294C356.443 388.024 355.47 390.371 355.47 392.818Z" fill="#FC5B5B"/>
</svg>
