<svg width="32" height="32" viewBox="0 0 32 32" fill="none" xmlns="http://www.w3.org/2000/svg">
<g opacity="0.5">
<path d="M16.3907 31.5357C24.9705 31.5357 31.9258 24.5804 31.9258 16.0005C31.9258 7.42066 24.9705 0.465317 16.3907 0.465317C7.81081 0.465317 0.855469 7.42066 0.855469 16.0005C0.855469 24.5804 7.81081 31.5357 16.3907 31.5357Z" fill="black"/>
</g>
<path d="M17.3056 13.5235H4.88183C3.32831 13.5235 2.06799 14.7838 2.06799 16.3373V22.1094C2.06799 23.663 3.32831 24.9233 4.88183 24.9233H4.93435L5.9321 27.1157C6.17716 27.6496 6.88609 27.7634 7.28432 27.3258L9.47237 24.9189H17.3056C18.8591 24.9189 20.1194 23.6586 20.1194 22.1051V16.333C20.1194 14.7795 18.8591 13.5191 17.3056 13.5191V13.5235Z" fill="#FF768A"/>
<path d="M17.3056 23.9734H9.47237L7.28432 26.3802C6.89047 26.8135 6.17716 26.7041 5.9321 26.1702L4.93435 23.9778H4.88183C3.32831 23.9778 2.06799 22.7174 2.06799 21.1639V22.1135C2.06799 23.6671 3.32831 24.9274 4.88183 24.9274H4.93435L5.9321 27.1198C6.17716 27.6537 6.88609 27.7675 7.28432 27.3299L9.47237 24.923H17.3056C18.8591 24.923 20.1194 23.6627 20.1194 22.1092V21.1595C20.1194 22.7131 18.8591 23.9734 17.3056 23.9734Z" fill="#EA4766"/>
<path d="M22.1196 16.3721H28.57C29.6728 16.3721 30.5699 17.2692 30.5699 18.372V22.4724C30.5699 23.5752 29.6728 24.4723 28.57 24.4723H28.5306L27.8217 26.0302C27.651 26.4109 27.1434 26.4897 26.8633 26.179L25.3098 24.4679H22.1196C21.0169 24.4679 20.1198 23.5708 20.1198 22.468V18.3676C20.1198 17.2649 21.0169 16.3678 22.1196 16.3678V16.3721Z" fill="#FFE20D"/>
<path d="M28.57 23.5228H28.5306L27.8217 25.0807C27.651 25.4614 27.1434 25.5402 26.8633 25.2294L25.3098 23.5184H22.1196C21.0169 23.5184 20.1198 22.6213 20.1198 21.5185V22.4681C20.1198 23.5709 21.0169 24.468 22.1196 24.468H25.3098L26.8633 26.1791C27.1434 26.4898 27.651 26.4066 27.8217 26.0303L28.5306 24.4724H28.57C29.6728 24.4724 30.5699 23.5753 30.5699 22.4725V21.5229C30.5699 22.6257 29.6728 23.5228 28.57 23.5228Z" fill="#F7C800"/>
<path d="M17.061 4.59177H28.0713C29.4498 4.59177 30.5657 5.70768 30.5657 7.08616V12.2018C30.5657 13.5803 29.4498 14.6962 28.0713 14.6962H28.0232L27.1392 16.6392C26.9248 17.1118 26.2946 17.2125 25.9445 16.8274L24.0059 14.6962H17.061C15.6826 14.6962 14.5667 13.5803 14.5667 12.2018V7.08616C14.5667 5.70768 15.6826 4.59177 17.061 4.59177Z" fill="#50DEFF"/>
<path d="M28.0713 13.633H28.0232L27.1392 15.576C26.9248 16.0487 26.2946 16.1493 25.9445 15.7642L24.0059 13.633H17.061C15.6826 13.633 14.5667 12.5171 14.5667 11.1387V12.2064C14.5667 13.5849 15.6826 14.7008 17.061 14.7008H24.0059L25.9445 16.832C26.2946 17.2171 26.9248 17.1164 27.1392 16.6438L28.0232 14.7008H28.0713C29.4498 14.7008 30.5657 13.5849 30.5657 12.2064V11.1387C30.5657 12.5171 29.4498 13.633 28.0713 13.633Z" fill="#05C1E0"/>
<g opacity="0.65">
<path d="M23.3494 19.9781H22.8636L21.7215 22.4856C21.4414 23.0982 20.6318 23.2252 20.1767 22.7263L17.678 19.9737H9.14454C7.36784 19.9737 5.9281 18.534 5.9281 16.7573V18.3852C5.9281 20.1619 7.36784 21.6016 9.14454 21.6016H17.678L20.1767 24.3542C20.6275 24.8531 21.4414 24.7218 21.7215 24.1135L22.8636 21.606H23.3494C25.1261 21.606 26.5658 20.1663 26.5658 18.3896V16.7616C26.5658 18.5383 25.1261 19.9781 23.3494 19.9781Z" fill="black"/>
</g>
<path d="M23.3495 7.52345H9.14466C7.36796 7.52345 5.92822 8.96319 5.92822 10.7399V17.3391C5.92822 19.1158 7.36796 20.5555 9.14466 20.5555H17.6781L20.1768 23.3081C20.6276 23.807 21.4415 23.6757 21.7216 23.0674L22.8638 20.5599H23.3495C25.1262 20.5599 26.566 19.1201 26.566 17.3434V10.7443C26.566 8.96757 25.1262 7.52783 23.3495 7.52783V7.52345Z" fill="white"/>
<path d="M23.3495 18.9323H22.8638L21.7216 21.4398C21.4415 22.0525 20.632 22.1794 20.1768 21.6805L17.6781 18.928H9.14466C7.36796 18.928 5.92822 17.4882 5.92822 15.7115V17.3394C5.92822 19.1161 7.36796 20.5559 9.14466 20.5559H17.6781L20.1768 23.3084C20.6276 23.8073 21.4415 23.676 21.7216 23.0678L22.8638 20.5602H23.3495C25.1262 20.5602 26.566 19.1205 26.566 17.3438V15.7159C26.566 17.4926 25.1262 18.9323 23.3495 18.9323Z" fill="#EAEAEA"/>
<g opacity="0.65">
<path d="M8.40498 10.4075H8.37873L7.84922 11.576C7.71794 11.8604 7.34159 11.9217 7.13154 11.6897L5.96749 10.4075H3.57376C2.74667 10.4075 2.07275 9.73799 2.07275 8.90652V9.61983C2.07275 10.4469 2.7423 11.1208 3.57376 11.1208H5.96749L7.13154 12.403C7.34159 12.635 7.72231 12.5737 7.84922 12.2893L8.37873 11.1208H8.40498C9.23207 11.1208 9.90599 10.4513 9.90599 9.61983V8.90652C9.90599 9.73361 9.23645 10.4075 8.40498 10.4075Z" fill="black"/>
</g>
<path d="M3.56916 4.52592H8.40913C9.23622 4.52592 9.91014 5.19546 9.91014 6.02692V9.10333C9.91014 9.93041 9.2406 10.6043 8.40913 10.6043H8.38288L7.85337 11.7728C7.72209 12.0572 7.34574 12.1185 7.13569 11.8865L5.97164 10.6043H3.57791C2.75083 10.6043 2.0769 9.93479 2.0769 9.10333V6.02692C2.0769 5.19984 2.74645 4.52592 3.57791 4.52592H3.56916Z" fill="#36E012"/>
<path d="M8.40498 9.88718H8.37873L7.84922 11.0556C7.71794 11.34 7.34159 11.4013 7.13154 11.1694L5.96749 9.88718H3.57376C2.74667 9.88718 2.07275 9.21763 2.07275 8.38617V9.09947C2.07275 9.92656 2.7423 10.6005 3.57376 10.6005H5.96749L7.13154 11.8827C7.34159 12.1146 7.72231 12.0533 7.84922 11.7689L8.37873 10.6005H8.40498C9.23207 10.6005 9.90599 9.93094 9.90599 9.09947V8.38617C9.90599 9.21325 9.23645 9.88718 8.40498 9.88718Z" fill="#22AF00"/>
<path d="M12.3607 11.3485C12.2557 11.3266 12.1419 11.3179 12.0237 11.3179H9.19238C8.91668 11.3179 8.72851 11.366 8.62348 11.4666C8.51846 11.5673 8.46594 11.7511 8.46594 12.018V16.0178C8.46594 16.1316 8.47469 16.2454 8.49658 16.3548C8.51846 16.4642 8.57535 16.5561 8.676 16.6261C8.77227 16.6961 8.93856 16.7311 9.1705 16.7311C9.40243 16.7311 9.5731 16.6961 9.67375 16.6261C9.77002 16.5561 9.83129 16.4685 9.85317 16.3591C9.87505 16.2497 9.8838 16.1403 9.8838 16.0266V14.6262H11.2973C11.4154 14.6262 11.5248 14.6174 11.6167 14.6043C11.713 14.5912 11.7874 14.5387 11.8443 14.4555C11.9012 14.3724 11.9274 14.2323 11.9274 14.0398C11.9274 13.8341 11.9012 13.6853 11.8487 13.6022C11.7962 13.5147 11.7218 13.4665 11.6255 13.449C11.5292 13.4315 11.4242 13.4228 11.306 13.4228H9.8838V12.7357H12.0106C12.1287 12.7357 12.2425 12.727 12.3519 12.7051C12.4613 12.6832 12.5489 12.6263 12.6189 12.5257C12.6889 12.4294 12.7239 12.2631 12.7239 12.0312C12.7239 11.7992 12.6889 11.6242 12.6232 11.5279C12.5576 11.4316 12.4701 11.3704 12.3651 11.3485H12.3607Z" fill="black"/>
<path d="M16.3125 11.7377C16.2731 11.6502 16.2163 11.5758 16.1506 11.5146C16.085 11.4533 16.0106 11.4052 15.9318 11.3701C15.853 11.3351 15.7655 11.322 15.6736 11.322C15.5467 11.322 15.4198 11.3614 15.2973 11.4358C15.1747 11.5102 15.0828 11.6108 15.0216 11.7334L13.0786 15.755C12.9998 15.9082 12.9604 16.0395 12.9561 16.1489C12.9517 16.2583 12.9867 16.3545 13.0611 16.4377C13.1355 16.5208 13.2536 16.5996 13.4112 16.6784C13.6519 16.7965 13.84 16.8359 13.9757 16.7921C14.1113 16.7484 14.2383 16.604 14.3608 16.3633L14.7196 15.6193H16.6189L16.9777 16.3545C17.0959 16.6083 17.2228 16.7571 17.3584 16.8009C17.4941 16.8447 17.6823 16.8053 17.9317 16.6871C18.0936 16.604 18.2074 16.5208 18.2818 16.4421C18.3518 16.3589 18.3868 16.2626 18.3824 16.1532C18.3781 16.0438 18.3343 15.9125 18.2599 15.7594L16.3169 11.7421L16.3125 11.7377ZM15.3016 14.4072L15.6649 13.6545L16.0325 14.4072H15.306H15.3016Z" fill="black"/>
<path d="M24.3517 15.8733C24.3254 15.7333 24.2029 15.5889 23.9797 15.4445L23.6296 15.2125C23.7128 15.0331 23.774 14.8449 23.8178 14.648C23.8615 14.4511 23.8834 14.2498 23.8834 14.0441C23.8834 13.6503 23.8134 13.287 23.6734 12.9501C23.5333 12.6131 23.3408 12.3155 23.0913 12.0661C22.8419 11.8167 22.5575 11.6154 22.2293 11.4753C21.901 11.3353 21.551 11.2609 21.1746 11.2609C20.7983 11.2609 20.4657 11.3353 20.1418 11.4753C19.818 11.6197 19.5379 11.821 19.2929 12.0792C19.0522 12.3374 18.8596 12.635 18.724 12.9763C18.5883 13.3177 18.5183 13.6809 18.5183 14.0747C18.5183 14.4686 18.5883 14.8055 18.7327 15.1381C18.8728 15.4707 19.0697 15.7639 19.3148 16.0177C19.5642 16.2715 19.8486 16.4685 20.1769 16.6085C20.5051 16.7485 20.8552 16.8229 21.2315 16.8229C21.5116 16.8229 21.7741 16.7792 22.028 16.6916C22.2818 16.6041 22.5137 16.4816 22.7238 16.3284L23.157 16.6085C23.3014 16.7004 23.4283 16.7617 23.5333 16.7923C23.6384 16.8229 23.739 16.8098 23.8309 16.7529C23.9228 16.696 24.0278 16.5866 24.1416 16.4291C24.3035 16.2015 24.3692 16.0177 24.3429 15.8777L24.3517 15.8733ZM22.3737 14.5824C22.308 14.7487 22.2205 14.8931 22.1023 15.0156C21.9886 15.1381 21.8529 15.23 21.6954 15.3044C21.5422 15.3744 21.3759 15.4094 21.2009 15.4094C21.0258 15.4094 20.8683 15.3744 20.7195 15.3044C20.5663 15.2344 20.4307 15.1381 20.3169 15.0156C20.2031 14.8931 20.1112 14.7487 20.0412 14.5824C19.9756 14.4161 19.9405 14.241 19.9405 14.0485C19.9405 13.8559 19.9712 13.6809 20.0368 13.5146C20.1025 13.3483 20.19 13.2039 20.3081 13.077C20.4219 12.9501 20.5576 12.8538 20.7151 12.7838C20.8683 12.7138 21.0346 12.6788 21.2096 12.6788C21.3847 12.6788 21.5422 12.7138 21.691 12.7838C21.8398 12.8538 21.9754 12.9501 22.0936 13.077C22.2074 13.2039 22.2993 13.3483 22.3693 13.5146C22.4349 13.6809 22.4699 13.8559 22.4699 14.0485C22.4699 14.241 22.4393 14.4204 22.3737 14.5867V14.5824Z" fill="black"/>
<path d="M8.40508 4.52634C9.23216 4.52634 9.90609 5.19589 9.90609 6.02735V7.52835H14.5666V7.09074C14.5666 5.71227 15.6825 4.59636 17.061 4.59636H28.0713C29.4498 4.59636 30.5657 5.71227 30.5657 7.09074V12.2064C30.5657 13.5849 29.4498 14.7008 28.0713 14.7008H28.0232L27.2617 16.3768H28.5658C29.6686 16.3768 30.5657 17.274 30.5657 18.3767V22.4771C30.5657 23.5799 29.6686 24.477 28.5658 24.477H28.5264L27.8175 26.0349C27.7737 26.1312 27.7081 26.2056 27.6337 26.2625C27.5681 26.3106 27.4893 26.3456 27.4061 26.3588C27.393 26.3588 27.3843 26.3675 27.3711 26.3675C27.3405 26.3675 27.3142 26.3719 27.2836 26.3719C27.1305 26.3719 26.9729 26.3106 26.8548 26.1837L25.3012 24.4727H22.1111C21.971 24.4727 21.8397 24.4595 21.7085 24.4333C21.6472 24.4201 21.5903 24.3983 21.529 24.3764C21.3496 24.5602 21.1045 24.6608 20.8551 24.6608C20.6057 24.6608 20.3606 24.5645 20.1724 24.3589L19.5948 23.7243C19.0872 24.4508 18.247 24.9234 17.293 24.9234H9.45972L7.27167 27.3303C7.10537 27.5097 6.88657 27.5972 6.66776 27.5972C6.36144 27.5972 6.06386 27.4309 5.91945 27.1158L4.9217 24.9234H4.86918C3.31566 24.9234 2.05534 23.6631 2.05534 22.1096V16.3375C2.05534 14.7839 3.31566 13.5236 4.86918 13.5236H5.91507V11.1211H3.55635C2.72927 11.1211 2.05534 10.4516 2.05534 9.62014V6.02297C2.05534 5.19589 2.72489 4.52197 3.55635 4.52197H8.39633M8.40508 3.48045H3.56948C2.16475 3.48045 1.02258 4.62262 1.02258 6.02297V9.62014C1.02258 11.0249 2.16475 12.167 3.56948 12.167H4.88231V12.4777C2.75552 12.4777 1.02258 14.2107 1.02258 16.3375V22.1096C1.02258 24.0175 2.41419 25.6061 4.23902 25.9168L4.98296 27.5534C5.28491 28.2186 5.95008 28.6475 6.68089 28.6475C7.20165 28.6475 7.7049 28.4243 8.05937 28.0392L9.93672 25.978H17.3105C18.1375 25.978 18.9296 25.7111 19.5817 25.2341C19.9361 25.5404 20.3956 25.7155 20.8682 25.7155C21.1789 25.7155 21.4809 25.6411 21.7522 25.5054C21.8747 25.5185 21.9973 25.5273 22.1198 25.5273H24.8505L26.0933 26.8926C26.3996 27.2296 26.8373 27.4265 27.2967 27.4265C27.3755 27.4265 27.4587 27.4221 27.5374 27.409C27.5724 27.4046 27.6206 27.3959 27.66 27.3828C27.8831 27.3302 28.0888 27.2384 28.2639 27.1071C28.487 26.9452 28.6621 26.722 28.7802 26.4725L29.2441 25.4529C30.6007 25.1466 31.6203 23.93 31.6203 22.4815V18.3811C31.6203 17.0114 30.7101 15.8517 29.4629 15.4666C30.7276 14.9284 31.6203 13.668 31.6203 12.2064V7.09074C31.6203 5.139 30.0318 3.55047 28.0801 3.55047H17.0698C15.3237 3.55047 13.8708 4.81954 13.582 6.48246H10.9607V6.02735C10.9607 4.62262 9.81856 3.48045 8.41383 3.48045H8.40508Z" fill="black"/>
</svg>
