<?xml version="1.0" encoding="UTF-8"?><svg id="Layer_2" xmlns="http://www.w3.org/2000/svg" viewBox="0 0 72.31 71"><defs><style>.cls-1{fill:#c9d6e2;}.cls-1,.cls-2,.cls-3,.cls-4,.cls-5{stroke-width:0px;}.cls-2{fill:#36e012;}.cls-3{fill:#000;}.cls-6{opacity:.6;}.cls-7{opacity:.5;}.cls-4{fill:#fff;}.cls-5{fill:#1dc100;}</style></defs><g id="Layer_2-2"><g class="cls-7"><circle class="cls-3" cx="36.81" cy="35.5" r="35.5"/></g><g class="cls-6"><path class="cls-3" d="M58.97,16.07h-1.11v-3.54c0-1.42-1.16-2.59-2.59-2.59h-.61c-1.42,0-2.59,1.16-2.59,2.59v3.54h-13.89v-3.54c0-1.42-1.16-2.59-2.59-2.59h-.61c-1.42,0-2.59,1.16-2.59,2.59v3.54h-13.89v-3.54c0-1.42-1.16-2.59-2.59-2.59h-.61c-1.42,0-2.59,1.16-2.59,2.59v3.54h-1.11c-5.14,0-9.3,4.17-9.3,9.3v31.97c0,5.14,4.17,9.3,9.3,9.3h47.36c5.14,0,9.3-4.17,9.3-9.3v-31.97c0-5.14-4.17-9.3-9.3-9.3Z"/></g><rect class="cls-1" x="2.31" y="14.18" width="65.96" height="45.52" rx="9.3" ry="9.3"/><rect class="cls-4" x="2.31" y="9.12" width="65.96" height="45.52" rx="9.3" ry="9.3"/><rect class="cls-1" x="40.5" y="18.33" width="21.34" height="7.24" rx="2.11" ry="2.11"/><rect class="cls-1" x="40.5" y="29.59" width="21.34" height="7.24" rx="2.11" ry="2.11"/><rect class="cls-1" x="40.5" y="41.16" width="21.34" height="7.24" rx="2.11" ry="2.11"/><path class="cls-2" d="M32.82,29.89c-1.22-4.92-5.34-8.71-10.44-9.41-.57-.09-1.16-.13-1.74-.13-.83,0-1.64.08-2.42.23-4.82.94-8.67,4.65-9.8,9.41-.23.94-.34,1.92-.34,2.92,0,6.93,5.62,12.56,12.56,12.56s12.56-5.62,12.56-12.56c0-1.04-.13-2.05-.37-3.03ZM14.97,34.31c-1.38,0-2.51-1.12-2.51-2.51s1.13-2.51,2.51-2.51,2.51,1.12,2.51,2.51-1.12,2.51-2.51,2.51ZM24.35,36.76c-1.09,1.29-2.49,1.68-3.7,1.68-.84,0-1.59-.19-2.07-.4-.29-.12-.42-.45-.29-.72.12-.29.45-.42.72-.29.11.05,2.72,1.11,4.49-.98.2-.23.55-.26.78-.06.23.2.26.54.07.78ZM25.91,34.31c-1.39,0-2.51-1.12-2.51-2.51s1.12-2.51,2.51-2.51,2.51,1.12,2.51,2.51-1.12,2.51-2.51,2.51Z"/><rect class="cls-5" x="12.73" y="3" width="5.79" height="11.57" rx="2.89" ry="2.89"/><rect class="cls-2" x="12.73" y="3" width="5.79" height="9.26" rx="2.59" ry="2.59"/><rect class="cls-5" x="32.4" y="3" width="5.79" height="11.57" rx="2.89" ry="2.89"/><rect class="cls-2" x="32.4" y="3" width="5.79" height="9.26" rx="2.59" ry="2.59"/><rect class="cls-5" x="52.08" y="3" width="5.79" height="11.57" rx="2.89" ry="2.89"/><rect class="cls-2" x="52.08" y="3" width="5.79" height="9.26" rx="2.59" ry="2.59"/><path class="cls-3" d="M55.27,3c1.42,0,2.59,1.16,2.59,2.59v3.54h1.11c5.14,0,9.3,4.17,9.3,9.3v31.97c0,5.14-4.16,9.3-9.3,9.3H11.62c-5.14,0-9.3-4.17-9.3-9.3v-31.97c0-5.14,4.16-9.3,9.3-9.3h1.11v-3.54c0-1.42,1.16-2.59,2.59-2.59h.61c1.42,0,2.59,1.16,2.59,2.59v3.54h13.89v-3.54c0-1.42,1.16-2.59,2.59-2.59h.61c1.42,0,2.59,1.16,2.59,2.59v3.54h13.89v-3.54c0-1.42,1.16-2.59,2.59-2.59h.61M55.27.69h-.61c-2.7,0-4.9,2.2-4.9,4.9v1.22h-9.26v-1.22c0-2.7-2.2-4.9-4.9-4.9h-.61c-2.7,0-4.9,2.2-4.9,4.9v1.22h-9.26v-1.22c0-2.7-2.2-4.9-4.9-4.9h-.61c-2.7,0-4.9,2.2-4.9,4.9v1.28C4.57,7.48,0,12.43,0,18.43v31.97c0,6.41,5.21,11.62,11.62,11.62h47.36c6.41,0,11.62-5.21,11.62-11.62v-31.97c0-6-4.57-10.95-10.42-11.56v-1.28c0-2.7-2.2-4.9-4.9-4.9h0Z"/></g></svg>