<?xml version="1.0" encoding="UTF-8"?><svg id="Layer_2" xmlns="http://www.w3.org/2000/svg" viewBox="0 0 71 75.83"><defs><style>.cls-1{fill:#ffe566;}.cls-1,.cls-2,.cls-3,.cls-4,.cls-5,.cls-6,.cls-7,.cls-8,.cls-9,.cls-10{stroke-width:0px;}.cls-2{fill:#ebede8;}.cls-3{fill:#edc45d;}.cls-4{fill:#b2aca3;}.cls-5{fill:#9f322c;}.cls-6{fill:#000;}.cls-7{fill:#2aad2d;}.cls-8{fill:#d0d8dd;}.cls-11{opacity:.5;}.cls-9{fill:#2475b2;}.cls-10{fill:#c4941c;}</style></defs><g id="Layer_2-2"><g class="cls-11"><circle class="cls-6" cx="35.5" cy="38.33" r="35.5"/></g><g class="cls-11"><polygon class="cls-6" points="31.21 3.91 31.21 3.91 31.21 3.91 17.11 11.48 3 19.05 6.53 56.67 40.37 75.83 65.3 55.49 67.3 19.05 31.21 3.91"/></g><polygon class="cls-1" points="5.61 16.52 31.53 2.61 64.69 16.52 39.95 32.37 5.61 16.52"/><polygon class="cls-10" points="39.95 32.37 39.95 68.69 62.85 50 64.69 16.52 39.95 32.37"/><polygon class="cls-3" points="5.61 16.52 8.85 51.08 39.95 68.69 39.95 32.37 5.61 16.52"/><path class="cls-9" d="M9.92,25.08l1.93,20.56c.2,2.14,1.44,4.05,3.31,5.11l18.67,10.57c.9.51,2.02-.14,2.02-1.18v-21.12c0-2.57-1.49-4.9-3.82-5.98l-20.19-9.32c-.95-.44-2.01.32-1.91,1.35Z"/><path class="cls-5" d="M43.02,37.28v22c0,1.17,1.36,1.82,2.27,1.08l13.47-10.99c.94-.77,1.52-1.9,1.58-3.11l1.13-20.55c.06-1.13-1.18-1.86-2.14-1.25l-14.32,9.17c-1.24.79-1.99,2.16-1.99,3.64Z"/><path class="cls-7" d="M14.22,15.4l15.18-7.99c2.03-1.07,4.43-1.16,6.52-.24l19.48,8.47c.86.37.95,1.56.15,2.06l-13.59,8.41c-2.11,1.31-4.74,1.49-7.01.49l-20.67-9.09c-.89-.39-.93-1.64-.07-2.09Z"/><path class="cls-2" d="M39.47,21.08c-.06.55.3,1.02,1.05,1.36,1.06.47,2.21.46,2.98.37,1.06-.12,2-.41,2.78-.85.77-.43,1.21-.93,1.31-1.47.1-.56-.28-1.05-1.12-1.41-.75-.33-1.72-.45-2.8-.36-2.16.18-4.09,1.29-4.21,2.37Z"/><path class="cls-2" d="M33.96,9.83c-1.46-.01-3.01.19-4.61.61-1.55.41-3.04,1.02-4.43,1.8-1.5.85-2.56,1.73-3.15,2.63-.6.9-.77,1.73-.52,2.47.26.75.84,1.34,1.73,1.74.57.26,1.38.36,2.34.28.98-.08,1.88-.34,2.62-.76.73-.41,1.78-1.26.68-2.31-.46-.48-.68-.9-.67-1.26.01-.27.37-.6,1.06-1,.59-.33,1.18-.53,1.82-.6.61-.07,1.08-.02,1.48.16.18.08.3.18.36.3.08.17.11.34.09.52-.02.23-.09.6-.21,1.09-.14.62-.21,1.12-.22,1.52-.01.45.14.89.45,1.3.32.42.88.81,1.66,1.16.78.35,1.66.48,2.6.39.92-.09,1.77-.34,2.48-.74,1.35-.76,1.54-1.6.56-2.27-.29-.22-.48-.37-.59-.46-.07-.06-.13-.14-.18-.22-.03-.05-.07-.14-.07-.31,0-.17.01-.37.05-.62.2-1,.32-1.72.36-2.13.05-.46-.05-.92-.29-1.37-.26-.48-.81-.91-1.63-1.25-1.03-.44-2.3-.66-3.79-.68Z"/><path class="cls-8" d="M20.68,48.65c-.56.21-.83.71-.78,1.46.06,1.05.61,1.96,1.06,2.53.61.79,1.33,1.42,2.13,1.87s1.49.61,2.08.48c.62-.14.93-.65.91-1.48-.03-.76-.37-1.61-.98-2.47-1.24-1.71-3.29-2.8-4.4-2.39Z"/><path class="cls-8" d="M30.03,37.59c-.77-1.4-1.86-2.73-3.23-3.95-1.32-1.18-2.82-2.15-4.44-2.88-1.73-.78-3.23-1.12-4.47-1.01-1.22.11-2.13.54-2.72,1.28-.58.74-.84,1.64-.76,2.67.05.66.37,1.42.92,2.19.56.79,1.27,1.41,2.04,1.8.76.38,2.14.78,2.63-.82.25-.71.58-1.18.96-1.4.29-.17.83-.06,1.61.31.67.32,1.19.73,1.61,1.27.39.51.58.97.6,1.44,0,.22-.04.38-.14.51-.14.18-.31.31-.52.4-.26.12-.69.28-1.27.47-.72.24-1.27.47-1.69.69-.46.25-.82.63-1.08,1.12-.26.5-.37,1.19-.32,2.04s.35,1.63.9,2.37c.53.72,1.2,1.31,1.94,1.7,1.44.76,2.4.53,2.61-.64.09-.35.15-.6.2-.73.03-.1.08-.19.14-.27.04-.05.12-.13.3-.22.18-.09.41-.19.7-.28,1.21-.36,2.08-.64,2.57-.82.56-.21,1.05-.55,1.45-1.02.44-.52.66-1.27.64-2.24-.02-1.22-.42-2.57-1.2-3.98Z"/><path class="cls-4" d="M51.06,49.88c-.54.93-.82,1.82-.83,2.56,0,1.03.47,1.25.86,1.26.52,0,1.14-.28,1.82-.86s1.24-1.26,1.74-2.11c.51-.87.79-1.74.81-2.5.02-.7-.22-1.13-.68-1.25-.95-.24-2.68,1.1-3.72,2.92Z"/><path class="cls-4" d="M59.13,29.64c-.48-.61-1.21-.91-2.17-.88-.96.03-2.12.41-3.44,1.16-1.48.84-2.85,1.96-4.06,3.34-1.24,1.41-2.21,2.88-2.89,4.37-.69,1.52-1.03,2.84-1.01,3.92,0,.69.32,1.14.87,1.31.56.18,1.26-.01,2.04-.54s2.06-1.67,2.61-3.89c.28-1.01.6-1.83.96-2.45.27-.46.74-.91,1.41-1.32.55-.34.97-.45,1.29-.33.3.11.43.37.42.81,0,.2-.05.4-.14.62-.12.31-.27.6-.44.9-.22.38-.59.97-1.1,1.76-.64,1.01-1.14,1.84-1.52,2.52-.44.77-.79,1.58-1.06,2.39-.27.83-.41,1.67-.42,2.51s.24,1.28.71,1.37c.45.09,1.03-.12,1.66-.61,1.19-.91,2-2.22,2.24-3.59.09-.44.15-.74.2-.92.03-.13.07-.26.13-.41.03-.09.1-.25.25-.53.14-.27.33-.6.56-.98.94-1.55,1.6-2.64,1.96-3.28.41-.71.77-1.46,1.07-2.24.32-.84.5-1.69.53-2.53.04-1.06-.18-1.9-.66-2.5Z"/><path class="cls-6" d="M31.53,2.61l33.16,13.91-1.84,33.48-22.91,18.69-31.1-17.61-3.24-34.56L31.53,2.61M31.53,0c-.43,0-.85.1-1.23.31L4.38,14.22c-.92.5-1.46,1.5-1.36,2.54l3.24,34.56c.08.85.57,1.61,1.31,2.03l31.1,17.61c.4.23.84.34,1.29.34.59,0,1.17-.2,1.65-.59l22.91-18.69c.57-.46.92-1.15.96-1.88l1.84-33.48c.06-1.1-.58-2.12-1.6-2.55L32.54.2c-.32-.14-.67-.2-1.01-.2h0Z"/></g></svg>