<?xml version="1.0" encoding="UTF-8"?><svg id="Layer_2" xmlns="http://www.w3.org/2000/svg" viewBox="0 0 35.67 40.86"><defs><style>.cls-1{fill:#73e1ff;}.cls-2{fill:#00abe0;}.cls-3{fill:#00cfff;}</style></defs><g id="Layer_1-2"><path class="cls-3" d="M0,7.67v25.51c0,6.11,6.81,9.76,11.9,6.38l20.34-13.5c4.71-3.13,4.53-10.11-.34-12.98L11.56,1.08C6.45-1.94,0,1.74,0,7.67Z"/><path class="cls-2" d="M32.24,22.84l-20.34,13.5c-5.09,3.38-11.9-.27-11.9-6.38v3.24c0,6.11,6.81,9.76,11.9,6.38l20.34-13.5c2.8-1.85,3.85-5.06,3.25-7.97-.4,1.84-1.48,3.56-3.25,4.73Z"/><rect class="cls-1" x="21.49" y="14.23" width="8.34" height="7.27" rx="3.64" ry="3.64" transform="translate(38.34 46.45) rotate(-148.79)"/><rect class="cls-1" x="3.61" y="6.18" width="18.04" height="7.27" rx="3.33" ry="3.33" transform="translate(18.34 24.76) rotate(-148.79)"/></g></svg>