<?xml version="1.0" encoding="UTF-8"?>
<svg id="Layer_2" data-name="Layer 2" xmlns="http://www.w3.org/2000/svg" viewBox="0 0 71 71">
  <defs>
    <style>
      .cls-1, .cls-2, .cls-3, .cls-4, .cls-5 {
        stroke-width: 0px;
      }

      .cls-1, .cls-5 {
        fill: #000;
      }

      .cls-6, .cls-5 {
        opacity: .5;
      }

      .cls-2 {
        fill: #5ffff1;
      }

      .cls-3 {
        fill: #f4b64f;
      }

      .cls-4 {
        fill: #de74ff;
      }
    </style>
  </defs>
  <g id="Layer_2-2" data-name="Layer 2">
    <g>
      <g class="cls-6">
        <circle class="cls-1" cx="35.5" cy="35.5" r="35.5"/>
      </g>
      <g>
        <path class="cls-1" d="M46.82,12.78c-2.99-3.65-6.72-6.78-10.79-6.78h-.37v.03c-3.9.18-7.52,3.21-10.39,6.75-1.9,2.32-3,5.2-3.16,8.21-.43,7.84,5.46,14.55,13.15,14.99,7.7.44,14.29-5.56,14.72-13.39.02-.28.02-.56.02-.83,0-3.28-1.12-6.45-3.18-8.97h0Z"/>
        <path class="cls-5" d="M45.17,14.78c-2.99-3.65-6.72-6.78-10.79-6.78h-.37v.03c-3.9.18-7.52,3.21-10.39,6.75-1.9,2.32-3,5.2-3.16,8.21-.43,7.84,5.46,14.55,13.15,14.99,7.7.44,14.29-5.56,14.72-13.39.02-.28.02-.56.02-.83,0-3.28-1.12-6.45-3.18-8.97h0Z"/>
        <path class="cls-5" d="M16.08,36.59h32.58c5.47,0,8.2,3.73,8.2,11.2h0c0,7.47-2.73,11.2-8.2,11.2H16.08c-5.47,0-8.2-3.73-8.2-11.2h0c0-7.47,2.73-11.2,8.2-11.2Z"/>
        <path class="cls-3" d="M45.71,14.02c-2.63-3.16-5.92-5.87-9.52-5.87h-.33v.03c-3.44.15-6.63,2.78-9.16,5.85-1.67,2.01-2.65,4.5-2.78,7.11-.38,6.79,4.81,12.6,11.6,12.98,6.79.38,12.6-4.81,12.98-11.6.01-.24.02-.48.02-.72,0-2.84-.99-5.59-2.81-7.77h0Z"/>
        <path class="cls-4" d="M35.69,9.04c.69-.18,1.38.23,1.56.92,0,.02.01.05.02.07.52,2.84,1.59,9.96-.23,11.78-1.67,1.67-8.16.7-10.81.22-.66-.11-1.11-.71-1.03-1.37.33-2.19,1.25-4.25,2.67-5.96,1.94-2.67,4.68-4.65,7.81-5.66Z"/>
        <path class="cls-1" d="M18.78,36h35.33c5.93,0,8.89,3.33,8.89,10h0c0,6.67-2.96,10-8.89,10H18.78c-5.93,0-8.89-3.33-8.89-10h0c0-6.67,2.96-10,8.89-10Z"/>
        <path class="cls-2" d="M20.08,37.59h32.58c5.47,0,8.2,2.73,8.2,8.2h0c0,5.47-2.73,8.2-8.2,8.2H20.08c-5.47,0-8.2-2.73-8.2-8.2h0c0-5.47,2.73-8.2,8.2-8.2Z"/>
      </g>
    </g>
  </g>
</svg>