<?xml version="1.0" encoding="UTF-8"?><svg id="Layer_2" xmlns="http://www.w3.org/2000/svg" viewBox="0 0 71.75 71"><defs><style>.cls-1{fill:#d31338;}.cls-2,.cls-3{fill:#fff;}.cls-2,.cls-4{opacity:.81;}.cls-5{fill:#c9c9c9;}.cls-6{fill:#ff768a;}.cls-7{opacity:.53;}.cls-8{opacity:.5;}.cls-4{fill:#ffc2c2;}.cls-9{fill:#ff5c7b;}</style></defs><g id="Layer_1-2"><g class="cls-8"><circle cx="36.25" cy="35.5" r="35.5"/></g><path d="M69.67,53l-.39-1.84-5.23-25.5c-.17-.84-.73-1.54-1.49-1.9-.3-.39-.65-.74-1.04-1.03l-.74-.54-2.54-11.97c-.5-2.37-2.63-4.1-5.05-4.1-.36,0-.72.04-1.08.11l-5.71,1.21-1.14-2.57c-.82-1.86-2.67-3.05-4.7-3.05h0c-.72,0-1.42.15-2.08.44l-3.14,1.39-.12-.09c-.89-.65-1.94-.99-3.04-.99-1.84,0-3.56.99-4.48,2.59l-.19.32-5.54-2.49c-.67-.3-1.37-.45-2.1-.45-2.23,0-4.19,1.42-4.88,3.55l-2.5,7.69-9.42,4.17c-2.59,1.15-3.76,4.19-2.61,6.77l4.88,11.01-.28.85c-.15.48-.24.96-.25,1.44-.39.73-.42,1.61-.07,2.38l10.56,23.38.75,1.69c.82,1.86,2.67,3.05,4.7,3.05.42,0,.83-.07,1.23-.16.16-.02.31-.04.47-.07l21.63-4.59,21.28-4.52.35-.07c1.35-.29,2.51-1.08,3.26-2.24.75-1.16,1.01-2.54.72-3.89Z"/><path class="cls-5" d="M62.79,44.78l-10.79-24.35c-.21-.47-.55-.84-.96-1.08-.23-.3-.52-.56-.91-.74L20.85,5.47c-.32-.14-.66-.21-.99-.21-1.01,0-1.97.64-2.3,1.67l-9.93,30.5c-.14.42-.15.83-.08,1.21-.08.46-.03.95.17,1.4l10.79,24.35c.4.9,1.29,1.44,2.22,1.44.33,0,.66-.07.98-.21l39.85-17.66c1.22-.54,1.77-1.97,1.23-3.19Z"/><rect class="cls-6" x="8.08" y="10.89" width="43.59" height="39.55" rx="2.42" ry="2.42" transform="translate(-9.86 14.73) rotate(-23.9)"/><g class="cls-7"><path d="M42.8,34.05l-11.59-5.2c-1.31-.59-2.85.09-3.29,1.46l-3.97,12.2-16.75-3.2,10.56,23.38c.54,1.22,1.97,1.77,3.19,1.23l.32-.14,39.2-17.37.32-.14c1.22-.54,1.77-1.97,1.23-3.2l-10.34-23.48-8.88,14.46Z"/></g><path class="cls-3" d="M20.72,65.44c-.8,0-1.52-.47-1.85-1.2l-10.77-24.3,29.57,8.38,13.97-27.69,10.77,24.31c.45,1.02,0,2.21-1.03,2.66l-39.85,17.66c-.26.12-.54.17-.82.17Z"/><path class="cls-5" d="M51.62,21.57l10.43,23.53c.36.81,0,1.77-.82,2.13l-39.85,17.66c-.21.09-.43.14-.65.14-.64,0-1.22-.38-1.48-.96l-10.42-23.52,28.42,8.06.64.18.3-.59,13.43-26.63M51.67,19.69l-14.2,28.15-30.08-8.53,11.12,25.09c.4.9,1.29,1.44,2.22,1.44.33,0,.66-.07.98-.21l39.85-17.66c1.22-.54,1.77-1.97,1.23-3.19l-11.12-25.09h0Z"/><path class="cls-3" d="M21.04,65.3c-.64,0-1.25-.32-1.63-.85-.38-.53-.48-1.17-.28-1.8l9.93-30.5c.27-.83,1.04-1.39,1.92-1.39.28,0,.56.06.83.18l29.27,13.13c.74.33,1.19,1.04,1.19,1.85,0,.81-.46,1.51-1.2,1.84l-39.2,17.37c-.27.12-.55.18-.83.18h0Z"/><path class="cls-5" d="M30.98,31.16c.23,0,.45.05.66.14l29.27,13.13c.6.27.95.82.95,1.48,0,.66-.36,1.21-.96,1.47l-39.2,17.37c-.22.1-.44.14-.66.14-.51,0-1-.26-1.31-.68-.18-.24-.44-.76-.22-1.44l9.93-30.5c.22-.67.83-1.12,1.54-1.12M30.98,30.35c-1.01,0-1.97.64-2.3,1.67l-9.93,30.5c-.54,1.65.75,3.18,2.29,3.18.32,0,.66-.07.99-.21l39.2-17.37c1.92-.85,1.92-3.57.01-4.42l-29.27-13.13c-.32-.14-.66-.21-.99-.21h0Z"/><rect class="cls-4" x="15.59" y="12.76" width="24.95" height="3.26" rx="1.52" ry="1.52" transform="translate(-3.42 12.6) rotate(-23.9)"/><path class="cls-1" d="M39.47,47.26l8.28-8.28c1.32-1.32,3.48-1.32,4.8,0,1.32,1.32,1.32,3.48,0,4.8l-2.19,2.19h11.5c1.87,0,3.39,1.53,3.39,3.39,0,1.87-1.53,3.39-3.39,3.39h-12.12s2.8,2.8,2.8,2.8c1.32,1.32,1.32,3.48,0,4.8-1.32,1.32-3.48,1.32-4.8,0l-8.28-8.28s0,0,0,0c-1.32-1.32-1.32-3.48,0-4.8Z"/><path class="cls-9" d="M39.04,46.76l7.89-7.89c1.26-1.26,3.31-1.26,4.57,0s1.26,3.31,0,4.57l-2.67,2.67h12.02c1.57,0,2.86,1.29,2.86,2.86v.09c0,1.57-1.29,2.86-2.86,2.86h-12.07s2.72,2.72,2.72,2.72c1.26,1.26,1.26,3.31,0,4.57s-3.31,1.26-4.57,0l-7.89-7.89s0,0,0,0c-1.26-1.26-1.26-3.31,0-4.57Z"/><rect class="cls-2" x="47.7" y="39.11" width="2.93" height="2.99" rx="1.47" ry="1.47" transform="translate(55.22 104.08) rotate(-135)"/><rect class="cls-2" x="53.55" y="47.1" width="8.56" height="2.48" rx="1.24" ry="1.24" transform="translate(115.66 96.68) rotate(180)"/><path d="M49.2,37.94c.23,0,.47.02.7.07.09,0,.18,0,.26,0,.87,0,1.73.32,2.39.97,1.32,1.32,1.32,3.48,0,4.8l-2.19,2.19h11.5c1.87,0,3.39,1.53,3.39,3.39s-1.53,3.39-3.39,3.39h-12.12l2.8,2.8c1.32,1.32,1.32,3.48,0,4.8-.66.66-1.53.99-2.4.99s-1.74-.33-2.4-.99l-8.28-8.28s0,0,0,0h0c-.31-.31-.55-.68-.71-1.06-.96-1.26-.87-3.08.28-4.23l7.89-7.89c.63-.63,1.45-.94,2.28-.94M49.2,36.36h0c-1.28,0-2.49.5-3.39,1.4l-7.89,7.89c-1.64,1.64-1.85,4.24-.53,6.13.24.52.57.99.97,1.38l8.28,8.28c.93.93,2.18,1.45,3.51,1.45s2.57-.51,3.51-1.45c1.94-1.94,1.94-5.08,0-7.02l-.12-.12h8.32c2.74,0,4.96-2.23,4.96-4.96s-2.23-4.96-4.96-4.96h-7.77c1.49-1.94,1.34-4.74-.44-6.52-.93-.93-2.17-1.44-3.5-1.44-.05,0-.1,0-.16,0-.27-.04-.54-.07-.81-.07h0Z"/></g></svg>