<?xml version="1.0" encoding="UTF-8"?><svg id="Layer_2" xmlns="http://www.w3.org/2000/svg" viewBox="0 0 71 71"><defs><style>.cls-1{opacity:.78;}.cls-1,.cls-2,.cls-3,.cls-4,.cls-5,.cls-6,.cls-7{stroke-width:0px;}.cls-1,.cls-7{fill:#fff;}.cls-2{fill:#c9c9c9;}.cls-3{fill:#ff5c7b;}.cls-4{fill:#d31338;}.cls-5{fill:#000;}.cls-6{fill:#ff768a;}.cls-8{opacity:.53;}.cls-9{opacity:.5;}</style></defs><g id="Layer_2-2"><g class="cls-9"><circle class="cls-5" cx="35.5" cy="35.5" r="35.5"/></g><path class="cls-5" d="M70.22,18.81c-.55-1.27-1.56-2.25-2.84-2.76l-9.44-3.74-2.85-7.71c-.75-2.02-2.7-3.38-4.85-3.38-.79,0-1.59.19-2.3.54l-3.98,1.98c-.91-.74-2.06-1.17-3.26-1.17-1.1,0-2.15.34-3.04.99l-.62.45-6.19-2.45c-.61-.24-1.25-.36-1.91-.36h0c-2.13,0-4.02,1.28-4.81,3.26l-.91,2.29-2.46-.52c-.35-.08-.72-.11-1.08-.11-2.43,0-4.55,1.72-5.05,4.1l-2.54,11.97-.74.54c-.39.29-.74.63-1.04,1.03-.76.36-1.32,1.06-1.49,1.9l-5.23,25.5-.39,1.84c-.29,1.35-.03,2.73.72,3.89.75,1.16,1.91,1.95,3.26,2.24l.35.07,21.28,4.52,21.63,4.59c.35.08.72.11,1.08.11,2.28,0,4.27-1.53,4.93-3.68l.66-1.67,9.65-24.17c.28-.7.25-1.47-.05-2.13-.01-.56-.12-1.11-.32-1.65l-.48-1.31,4.38-11.05c.51-1.28.49-2.69-.06-3.96Z"/><path class="cls-2" d="M63.96,37.3c.06-.39.03-.81-.13-1.23l-11.21-30.53c-.37-1-1.3-1.61-2.29-1.61-.36,0-.73.08-1.08.26l-28.93,14.49c-.28.14-.5.32-.69.53-.64.23-1.19.71-1.47,1.4l-9.96,25.12c-.5,1.26.12,2.69,1.38,3.19l41.11,16.31c.3.12.6.17.91.17.98,0,1.9-.59,2.28-1.55l9.96-25.12c.19-.47.22-.96.12-1.42Z"/><rect class="cls-6" x="18.59" y="9.92" width="44.23" height="40.13" rx="2.46" ry="2.46" transform="translate(13.92 -12.9) rotate(21.63)"/><g class="cls-8"><path class="cls-5" d="M47.44,41.75l-4.47-12.09c-.51-1.37-2.09-2-3.4-1.35l-11.66,5.79-9.59-14.41-9.43,24.26c-.5,1.26.12,2.69,1.38,3.19l.34.13,40.44,16.04.34.13c1.26.5,2.69-.12,3.19-1.38l9.65-24.18-16.78,3.84Z"/></g><path class="cls-7" d="M51.59,64.99c-.26,0-.51-.05-.75-.15L9.73,48.54c-1.05-.42-1.56-1.61-1.15-2.66l9.94-25.07,14.95,27.37,29.97-9.56-9.95,25.08c-.31.79-1.06,1.29-1.9,1.29Z"/><path class="cls-2" d="M18.58,21.77l14.37,26.31.32.59.64-.21,28.83-9.2-9.63,24.28c-.25.63-.85,1.03-1.52,1.03-.21,0-.41-.04-.6-.12L9.88,48.15c-.41-.16-.73-.47-.9-.87-.17-.4-.18-.85-.02-1.25l9.62-24.26M18.47,19.84l-10.27,25.89c-.5,1.26.12,2.69,1.38,3.19l41.11,16.31c.3.12.6.17.91.17.98,0,1.9-.59,2.28-1.55l10.27-25.89-30.48,9.73-15.2-27.84h0Z"/><path class="cls-7" d="M51.27,64.86c-.26,0-.52-.05-.77-.15L10.06,48.67c-.76-.3-1.26-1-1.29-1.82-.03-.82.4-1.55,1.13-1.92l29.15-14.49c.29-.14.59-.21.91-.21.85,0,1.63.54,1.92,1.34l11.29,30.53c.24.64.15,1.32-.23,1.87-.39.56-1.02.89-1.68.89h0Z"/><path class="cls-2" d="M39.96,30.64c.68,0,1.3.43,1.54,1.07l11.29,30.53c.26.7,0,1.24-.18,1.49-.31.45-.81.72-1.34.72-.21,0-.41-.04-.62-.12L10.21,48.29c-.62-.25-1-.79-1.03-1.45-.03-.67.31-1.24.91-1.54l29.15-14.49c.23-.11.47-.17.73-.17M39.96,29.82c-.37,0-.74.08-1.09.26l-29.15,14.49c-1.9.95-1.79,3.7.19,4.48l40.44,16.04c.31.12.62.18.92.18,1.61,0,2.91-1.63,2.29-3.32l-11.29-30.53c-.37-1-1.31-1.61-2.31-1.61h0Z"/><rect class="cls-1" x="40.2" y="14.95" width="24.29" height="3.89" rx="1.95" ry="1.95" transform="translate(9.92 -18.11) rotate(21.63)"/><path class="cls-4" d="M33.55,46.42l-8.28-8.28c-1.32-1.32-3.48-1.32-4.8,0-1.32,1.32-1.32,3.48,0,4.8l2.19,2.19h-11.5c-1.87,0-3.39,1.53-3.39,3.39s1.53,3.39,3.39,3.39h12.12l-2.8,2.8c-1.32,1.32-1.32,3.48,0,4.8,1.32,1.32,3.48,1.32,4.8,0l8.28-8.28s0,0,0,0c1.32-1.32,1.32-3.48,0-4.8Z"/><path class="cls-3" d="M33.99,45.92l-7.89-7.89c-1.26-1.26-3.31-1.26-4.57,0s-1.26,3.31,0,4.57l2.67,2.67h-12.02c-1.57,0-2.86,1.29-2.86,2.86v.09c0,1.57,1.29,2.86,2.86,2.86h12.07l-2.72,2.72c-1.26,1.26-1.26,3.31,0,4.57s3.31,1.26,4.57,0l7.89-7.89s0,0,0,0c1.26-1.26,1.26-3.31,0-4.57Z"/><rect class="cls-1" x="23.49" y="38.26" width="2.93" height="2.99" rx="1.47" ry="1.47" transform="translate(30.48 86.38) rotate(-154.63)"/><rect class="cls-1" x="18.65" y="46.26" width="8.56" height="2.48" rx="1.24" ry="1.24"/><path class="cls-5" d="M23.82,37.09c.83,0,1.65.31,2.28.94l7.89,7.89c1.15,1.15,1.23,2.97.28,4.23-.16.39-.4.75-.71,1.06h0s0,0,0,0l-8.28,8.28c-.66.66-1.53.99-2.4.99s-1.74-.33-2.4-.99c-1.32-1.32-1.32-3.48,0-4.8l2.8-2.8h-12.12c-1.87,0-3.39-1.53-3.39-3.39s1.53-3.39,3.39-3.39h11.5l-2.19-2.19c-1.32-1.32-1.32-3.48,0-4.8.66-.66,1.52-.97,2.39-.97.09,0,.18,0,.27,0,.23-.05.46-.07.7-.07M23.82,35.52c-.27,0-.54.02-.81.07-.05,0-.1,0-.16,0-1.33,0-2.57.51-3.5,1.44-1.78,1.78-1.92,4.58-.44,6.52h-7.77c-2.74,0-4.96,2.23-4.96,4.96s2.23,4.96,4.96,4.96h8.33l-.12.12c-1.94,1.94-1.94,5.08,0,7.02.93.93,2.18,1.45,3.51,1.45s2.57-.51,3.51-1.45l8.28-8.28c.4-.4.72-.86.97-1.39,1.32-1.89,1.1-4.5-.53-6.13l-7.89-7.89c-.9-.9-2.1-1.4-3.39-1.4h0Z"/></g></svg>