<?xml version="1.0" encoding="UTF-8"?><svg id="Layer_2" xmlns="http://www.w3.org/2000/svg" viewBox="0 0 71 72.24"><defs><style>.cls-1{fill:#e51b0c;}.cls-1,.cls-2,.cls-3,.cls-4,.cls-5,.cls-6,.cls-7,.cls-8,.cls-9{stroke-width:0px;}.cls-2{opacity:.72;}.cls-2,.cls-8{fill:#fff;}.cls-3{fill:#000;}.cls-4{fill:#af6800;}.cls-10{opacity:.53;}.cls-11{opacity:.5;}.cls-5{fill:#ff9327;}.cls-6{fill:#b25000;}.cls-7{fill:#f4ef56;}.cls-9{fill:#ff5148;}</style></defs><g id="Layer_2-2"><g class="cls-11"><circle class="cls-3" cx="35.5" cy="36.74" r="35.5"/></g></g><g id="Layer_6"><g class="cls-10"><path class="cls-3" d="M64.89,48.72c-.24-1.24-.67-2.48-1.37-3.66l-18.19-31.09c-4.54-7.76-15.79-7.64-20.16.21l-17.1,30.68c-.63,1.14-1.03,2.31-1.26,3.49-3.78,7.42,1.51,16.34,9.94,16.44l37.97.45c8.6.1,14.07-9.01,10.17-16.51Z"/></g><path class="cls-6" d="M25.6,8.94L7.56,41.29c-4.1,7.35,1.15,16.41,9.57,16.51l37.22.44c8.63.1,14.07-9.26,9.71-16.71L44.88,8.74c-4.34-7.42-15.1-7.3-19.28.2Z"/><path class="cls-5" d="M25.38,8.18l-16.76,30.07c-4.2,7.54,1.18,16.82,9.81,16.92l34.6.41c8.85.1,14.43-9.49,9.96-17.13L45.15,7.97c-4.45-7.6-15.48-7.49-19.77.21Z"/><path class="cls-7" d="M29.66,15.84l-12.71,22.81c-2.46,4.42.69,9.86,5.75,9.92l26.23.31c5.19.06,8.46-5.56,5.84-10.04l-13.52-23.11c-2.61-4.46-9.08-4.39-11.59.12Z"/><path class="cls-4" d="M16.95,40.8l12.71-22.81c2.52-4.51,8.98-4.58,11.59-.12l13.52,23.11c.44.75.7,1.53.82,2.3.25-1.45.02-3.01-.82-4.46l-13.52-23.11c-2.61-4.46-9.08-4.39-11.59.12l-12.71,22.81c-.79,1.41-1,2.93-.75,4.35.12-.74.36-1.48.75-2.19Z"/><path class="cls-2" d="M48.94,47.7l-26.23-.25c-3.56-.03-6.17-2.24-6.55-4.79-.47,3.05,2.4,6.03,6.55,6.07l26.23.25c4.24.04,7.19-2.99,6.71-6.08-.38,2.59-3.06,4.83-6.71,4.8Z"/><rect class="cls-1" x="32.03" y="17.47" width="8.16" height="17.81" rx="4.08" ry="4.08"/><rect class="cls-9" x="32.77" y="17.6" width="6.68" height="14.57" rx="3.34" ry="3.34"/><circle class="cls-1" cx="36.11" cy="41.26" r="4.08"/><circle class="cls-9" cx="36.11" cy="40.52" r="3.34"/><circle class="cls-8" cx="35.74" cy="39.41" r="1.48"/><rect class="cls-8" x="34.25" y="18.34" width="2.97" height="6.48" rx="1.48" ry="1.48"/><path class="cls-3" d="M36.11,17.47c2.24,0,4.08,1.84,4.08,4.08v9.65c0,2.24-1.84,4.08-4.08,4.08s-4.08-1.84-4.08-4.08v-9.65c0-2.24,1.84-4.08,4.08-4.08M36.11,15.98c-3.07,0-5.57,2.5-5.57,5.57v9.65c0,3.07,2.5,5.57,5.57,5.57s5.57-2.5,5.57-5.57v-9.65c0-3.07-2.5-5.57-5.57-5.57h0Z"/><path class="cls-3" d="M36.11,37.18c2.25,0,4.08,1.83,4.08,4.08s-1.83,4.08-4.08,4.08-4.08-1.83-4.08-4.08,1.83-4.08,4.08-4.08M36.11,35.7c-3.07,0-5.57,2.5-5.57,5.57s2.5,5.57,5.57,5.57,5.57-2.5,5.57-5.57-2.5-5.57-5.57-5.57h0Z"/><path class="cls-3" d="M35.32,2.34c3.81,0,7.62,1.87,9.82,5.64l17.83,30.48c.68,1.17,1.1,2.38,1.34,3.59,3.81,7.32-1.48,16.19-9.83,16.19-.05,0-.09,0-.14,0l-37.22-.44c-8.27-.1-13.46-8.84-9.75-16.12.22-1.16.61-2.31,1.23-3.43L25.38,8.18c2.17-3.89,6.05-5.84,9.95-5.84M35.32,0c-5.05,0-9.53,2.63-11.99,7.04L6.57,37.12c-.65,1.17-1.13,2.44-1.42,3.8-1.97,4.1-1.74,8.84.63,12.75,2.42,4,6.65,6.41,11.32,6.47l37.22.44h.17c4.72,0,9.01-2.41,11.46-6.44,2.4-3.95,2.62-8.74.6-12.86-.31-1.43-.84-2.77-1.55-4L47.16,6.79c-2.49-4.25-6.91-6.79-11.84-6.79h0Z"/></g></svg>