<svg width="640" height="449" viewBox="0 0 640 449" fill="none" xmlns="http://www.w3.org/2000/svg">
<g clip-path="url(#clip0_5053_27)">
<path d="M165.117 224.066H43.605C26.8539 224.066 13.2935 237.432 13.2935 253.942V418.65C13.2935 435.16 26.8539 448.525 43.605 448.525H165.117C181.868 448.525 195.429 435.16 195.429 418.65V253.942C195.429 237.432 181.868 224.066 165.117 224.066ZM72.1883 334.658C64.2116 334.658 57.8302 323.258 57.8302 309.238C57.8302 295.217 64.2116 283.817 72.1883 283.817C80.1651 283.817 86.5465 295.217 86.5465 309.238C86.5465 323.258 80.1651 334.658 72.1883 334.658ZM136.534 334.658C128.557 334.658 122.176 323.258 122.176 309.238C122.176 295.217 128.557 283.817 136.534 283.817C144.511 283.817 150.892 295.217 150.892 309.238C150.892 323.258 144.511 334.658 136.534 334.658Z" fill="#00BCFF"/>
<path d="M397.101 104.284H245.277C228.526 104.284 214.965 117.649 214.965 134.16V418.631C214.965 435.141 228.526 448.506 245.277 448.506H397.101C413.852 448.506 427.412 435.141 427.412 418.631V134.16C427.412 117.649 413.852 104.284 397.101 104.284ZM265.618 200.462C265.618 188.669 275.323 179.104 287.288 179.104C299.253 179.104 308.958 188.669 308.958 200.462C308.958 212.255 299.253 221.82 287.288 221.82C275.323 221.82 265.618 212.255 265.618 200.462ZM354.425 236.234C344.986 247.241 332.888 250.516 322.518 250.516C315.339 250.516 308.825 248.944 304.704 247.11C302.311 246.061 301.114 243.31 302.178 240.951C303.241 238.592 306.033 237.413 308.426 238.461C309.357 238.855 331.824 247.896 347.113 230.075C348.842 228.11 351.899 227.848 353.893 229.551C355.888 231.255 356.154 234.268 354.425 236.234ZM361.338 221.82C349.373 221.82 339.668 212.255 339.668 200.462C339.668 188.669 349.373 179.104 361.338 179.104C373.304 179.104 383.009 188.669 383.009 200.462C383.009 212.255 373.304 221.82 361.338 221.82Z" fill="white"/>
<path d="M596.383 283.941H474.871C458.12 283.941 444.559 297.307 444.559 313.817V418.643C444.559 435.153 458.12 448.518 474.871 448.518H596.383C613.134 448.518 626.695 435.153 626.695 418.643V313.817C626.695 297.307 613.134 283.941 596.383 283.941ZM505.182 373.699C496.807 373.699 490.026 367.016 490.026 358.761C490.026 350.506 496.807 343.823 505.182 343.823C513.558 343.823 520.338 350.506 520.338 358.761C520.338 367.016 513.558 373.699 505.182 373.699ZM565.938 373.699C557.563 373.699 550.783 367.016 550.783 358.761C550.783 350.506 557.563 343.823 565.938 343.823C574.314 343.823 581.094 350.506 581.094 358.761C581.094 367.016 574.314 373.699 565.938 373.699Z" fill="#FFE500"/>
<path d="M403.757 45.8396L397.775 51.7361C392.324 57.1084 383.549 57.1084 378.232 51.7361L330.371 4.5644C324.92 -0.807926 316.146 -0.807926 310.828 4.5644L262.968 51.7361C257.517 57.1084 248.743 57.1084 243.425 51.7361L237.442 45.8396C228.668 37.1915 213.778 43.35 213.778 55.536V89.3424H427.687V55.536C427.687 43.35 412.797 37.3225 404.023 45.8396H403.757Z" fill="#FFE500"/>
</g>
<defs>
<clipPath id="clip0_5053_27">
<rect width="640" height="448" fill="white" transform="translate(-0.00341797 0.503906)"/>
</clipPath>
</defs>
</svg>
