<svg width="560" height="399" viewBox="0 0 560 399" fill="none" xmlns="http://www.w3.org/2000/svg">
<g clip-path="url(#clip0_5053_40)">
<path d="M212.637 162.27H23.8366C10.7166 162.27 -0.00341797 172.99 -0.00341797 186.11V375.07C-0.00341797 388.19 10.7166 398.91 23.8366 398.91H212.797C225.917 398.91 236.637 388.19 236.637 375.07V186.11C236.637 172.99 225.917 162.27 212.797 162.27H212.637ZM153.597 295.71L110.397 318.27C97.9166 324.83 82.8766 315.71 82.8766 301.63V256.51C82.8766 242.43 97.9166 233.31 110.397 239.87L153.597 262.43C167.037 269.47 167.037 288.67 153.597 295.71Z" fill="#FFE500"/>
<path d="M536.172 162.27H347.212C334.092 162.27 323.372 172.99 323.372 186.11V375.07C323.372 388.19 334.092 398.91 347.212 398.91H536.172C549.292 398.91 560.012 388.19 560.012 375.07V186.11C560.012 172.99 549.292 162.27 536.172 162.27ZM504.012 245.63C510.892 245.63 516.492 251.23 516.492 258.11C516.492 264.99 510.892 270.59 504.012 270.59C497.132 270.59 491.532 264.99 491.532 258.11C491.532 251.23 497.132 245.63 504.012 245.63ZM410.732 295.39H398.252V307.87C398.252 314.75 392.652 320.35 385.772 320.35C378.892 320.35 373.292 314.75 373.292 307.87V295.39H360.812C353.932 295.39 348.332 289.79 348.332 282.91C348.332 276.03 353.932 270.43 360.812 270.43H373.292V257.95C373.292 251.07 378.892 245.47 385.772 245.47C392.652 245.47 398.252 251.07 398.252 257.95V270.43H410.732C417.612 270.43 423.212 276.03 423.212 282.91C423.212 289.79 417.612 295.39 410.732 295.39ZM479.052 295.39C472.172 295.39 466.572 289.79 466.572 282.91C466.572 276.03 472.172 270.43 479.052 270.43C485.932 270.43 491.532 276.03 491.532 282.91C491.532 289.79 485.932 295.39 479.052 295.39ZM504.012 320.35C497.132 320.35 491.532 314.75 491.532 307.87C491.532 300.99 497.132 295.39 504.012 295.39C510.892 295.39 516.492 300.99 516.492 307.87C516.492 314.75 510.892 320.35 504.012 320.35ZM528.972 295.39C522.092 295.39 516.492 289.79 516.492 282.91C516.492 276.03 522.092 270.43 528.972 270.43C535.852 270.43 541.452 276.03 541.452 282.91C541.452 289.79 535.852 295.39 528.972 295.39Z" fill="white"/>
<path d="M374.39 0.50293H185.43C172.31 0.50293 161.59 11.2229 161.59 24.3429V137.463H223.03C243.99 137.463 261.11 154.583 261.11 175.543V274.423H298.39V175.543C298.39 154.583 315.51 137.463 336.47 137.463H397.91V24.3429C397.91 11.2229 387.19 0.50293 374.07 0.50293H374.39ZM354.71 106.103C354.71 111.063 350.71 115.063 345.75 115.063H214.23C209.27 115.063 205.27 111.063 205.27 106.103V94.1029C205.27 89.1429 209.27 85.1429 214.23 85.1429H345.75C350.71 85.1429 354.71 89.1429 354.71 94.1029V106.103ZM354.71 61.3029C354.71 66.2629 350.71 70.2629 345.75 70.2629H214.23C209.27 70.2629 205.27 66.2629 205.27 61.3029V49.3029C205.27 44.3429 209.27 40.3429 214.23 40.3429H345.75C350.71 40.3429 354.71 44.3429 354.71 49.3029V61.3029Z" fill="#00BCFF"/>
</g>
<defs>
<clipPath id="clip0_5053_40">
<rect width="560" height="398.24" fill="white" transform="translate(-0.00341797 0.50293)"/>
</clipPath>
</defs>
</svg>
