<svg width="465" height="448" viewBox="0 0 465 448" fill="none" xmlns="http://www.w3.org/2000/svg">
<path d="M429.281 0H35.1542C15.9119 0 0.217773 15.6098 0.217773 34.7487V93.2513C0.217773 112.39 15.9119 128 35.1542 128H429.281C448.524 128 464.218 112.39 464.218 93.2513V34.7487C464.218 15.6098 448.524 0 429.281 0ZM180.905 78.8632C168.486 78.8632 158.251 68.8187 158.251 56.3309C158.251 43.8431 168.35 33.7985 180.905 33.7985C193.46 33.7985 203.559 43.8431 203.559 56.3309C203.559 68.8187 193.46 78.8632 180.905 78.8632ZM259.102 87.2789C249.277 98.8165 236.585 102.346 225.804 102.346C218.298 102.346 211.611 100.717 207.244 98.8165C204.651 97.7306 203.559 94.7444 204.651 92.3012C205.742 89.7222 208.608 88.6363 211.201 89.7222C212.157 90.1294 235.63 99.631 251.597 80.8993C253.371 78.8632 256.51 78.5917 258.693 80.3563C260.74 82.1209 261.013 85.2428 259.239 87.4146L259.102 87.2789ZM279.3 78.8632C266.881 78.8632 256.646 68.8187 256.646 56.3309C256.646 43.8431 266.745 33.7985 279.3 33.7985C291.855 33.7985 301.954 43.8431 301.954 56.3309C301.954 68.8187 291.855 78.8632 279.3 78.8632Z" fill="white"/>
<path d="M429.281 320H35.1542C15.9119 320 0.217773 335.61 0.217773 354.749V413.251C0.217773 432.39 15.9119 448 35.1542 448H429.281C448.524 448 464.218 432.39 464.218 413.251V354.749C464.218 335.61 448.524 320 429.281 320ZM175.582 393.705C163.164 393.705 152.928 384.611 152.928 373.345C152.928 362.078 161.253 366.558 173.808 366.558C186.364 366.558 198.1 362.078 198.1 373.345C198.1 384.611 188.001 393.705 175.446 393.705H175.582ZM240.542 407.279H213.248C209.427 407.279 206.425 404.157 206.425 400.492C206.425 396.827 209.427 393.705 213.248 393.705H240.542C244.364 393.705 247.366 396.691 247.366 400.492C247.366 404.293 244.364 407.279 240.542 407.279ZM271.112 393.705C258.693 393.705 248.458 384.611 248.458 373.345C248.458 362.078 256.782 366.558 269.338 366.558C281.893 366.558 293.63 362.078 293.63 373.345C293.63 384.611 283.531 393.705 270.975 393.705H271.112Z" fill="#FFE500"/>
<path d="M429.281 160H35.1542C15.9119 160 0.217773 175.61 0.217773 194.749V253.251C0.217773 272.39 15.9119 288 35.1542 288H429.281C448.524 288 464.218 272.39 464.218 253.251V194.749C464.218 175.61 448.524 160 429.281 160ZM180.905 244.293C168.486 244.293 158.251 232.076 158.251 217.145C158.251 202.214 168.35 189.998 180.905 189.998C193.46 189.998 203.559 202.214 203.559 217.145C203.559 232.076 193.46 244.293 180.905 244.293ZM232.218 266.146C223.893 266.146 217.07 259.359 217.07 251.08C217.07 242.8 223.893 236.013 232.218 236.013C240.542 236.013 247.366 242.8 247.366 251.08C247.366 259.359 240.542 266.146 232.218 266.146ZM279.3 244.293C266.881 244.293 256.646 232.076 256.646 217.145C256.646 202.214 266.745 189.998 279.3 189.998C291.855 189.998 301.954 202.214 301.954 217.145C301.954 232.076 291.855 244.293 279.3 244.293Z" fill="#00BCFF"/>
</svg>
