<svg width="576" height="503" viewBox="0 0 576 503" fill="none" xmlns="http://www.w3.org/2000/svg">
<path d="M440.3 313.765V313.481C439.59 310.642 438.88 307.803 437.887 304.964C420.854 250.317 373.303 208.87 316.526 199.786C315.533 199.644 314.539 199.502 313.404 199.36C311.559 199.076 309.571 198.792 307.584 198.65C304.603 198.366 301.481 198.082 298.358 197.94C296.371 197.94 294.242 197.94 292.254 197.94C287.428 197.94 282.744 198.224 277.918 198.65C274.938 198.934 271.957 199.218 268.834 199.786C266.847 200.07 264.86 200.353 262.731 200.779C261.879 200.921 260.885 201.063 260.034 201.347C205.954 212.986 162.378 253.156 146.338 305.674C145.487 308.513 144.635 311.494 143.925 314.475C143.925 314.617 143.925 314.758 143.925 314.9C143.216 317.739 142.648 320.436 142.222 323.275C140.519 332.075 139.809 341.16 139.809 350.386C139.809 434.415 208.367 502.831 292.396 502.831C376.426 502.831 444.842 434.415 444.842 350.386C444.842 341.018 443.99 331.791 442.287 322.565C441.719 319.726 441.151 316.746 440.442 313.907L440.3 313.765ZM392.181 289.351C394.169 291.196 394.311 294.461 392.465 296.448C390.478 298.435 387.355 298.435 385.368 296.59C384.517 295.88 370.464 282.964 352.154 283.815C361.664 285.235 371.884 289.493 381.11 299.429C382.813 301.132 384.375 302.977 385.936 305.106C387.072 306.668 387.213 308.513 386.504 310.074C386.22 310.926 385.652 311.494 384.942 312.062C384.091 312.771 382.955 313.197 381.962 313.197C380.4 313.197 378.981 312.487 377.987 311.21C376.852 309.649 375.574 308.229 374.439 306.81C364.645 296.164 353.715 293.183 344.347 293.325H344.063C338.953 293.325 334.411 294.461 330.721 295.596H330.579C325.611 297.3 322.204 299.145 321.778 299.429C319.649 300.706 316.81 300.138 315.249 298.151C313.688 296.164 313.83 293.325 315.533 291.48C316.81 290.061 318.23 288.783 319.507 287.648C321.92 285.377 324.333 283.673 326.746 282.112C329.727 280.125 332.708 278.563 335.547 277.286C365.638 264.653 391.898 289.067 392.323 289.209L392.181 289.351ZM192.328 289.351C192.328 289.351 215.748 267.776 243.427 275.441C246.691 276.292 249.814 277.57 253.079 279.273C255.775 280.692 258.33 282.254 261.027 284.241C263.724 286.228 266.421 288.783 269.118 291.48C270.821 293.325 270.963 296.164 269.402 298.151C267.84 300.138 265.002 300.564 262.873 299.429C262.305 299.145 256.343 295.596 247.827 294.177C242.717 293.183 236.613 292.899 230.368 294.461C225.542 295.738 220.574 297.867 215.748 301.7C212.625 304.113 209.644 307.236 206.664 311.21C205.67 312.487 204.109 313.197 202.689 313.197C201.554 313.197 200.56 312.913 199.708 312.062C198.431 311.068 197.721 309.649 197.721 308.087C197.721 306.952 198.005 305.958 198.857 305.106C201.838 301.132 204.96 297.867 208.083 295.029C215.322 288.925 222.987 285.518 230.368 284.241C231.078 283.957 231.929 283.815 232.639 283.815H231.078C213.619 283.815 200.418 295.88 199.425 296.59C197.437 298.435 194.173 298.435 192.328 296.448C190.482 294.461 190.482 291.196 192.611 289.351H192.328ZM363.083 343.147C359.535 361.031 346.476 397.794 297.506 397.794C248.536 397.794 234.342 361.315 230.226 343.289C229.09 338.179 233.207 333.495 238.884 333.495H354.425C359.819 333.495 364.077 338.037 363.083 343.147Z" fill="white"/>
<path d="M571.604 116.327C556.842 56.428 505.885 10.5808 444.708 2.06429C438.037 0.928755 431.081 0.50293 423.559 0.50293C413.765 0.50293 403.971 1.49652 394.177 3.34176C354.859 11.0066 320.793 33.8592 298.65 65.5122C307.308 79.8483 313.838 95.4619 317.954 111.927C321.361 125.27 322.922 139.18 322.922 152.948C322.922 162.742 322.07 172.536 320.367 181.904C384.099 192.55 437.327 239.817 455.637 301.987C524.337 287.225 576.004 226.048 576.004 152.948C576.004 140.457 574.443 128.109 571.462 116.185L571.604 116.327ZM360.111 118.315C345.065 118.315 332.716 106.108 332.716 91.0617C332.716 76.0159 344.923 63.667 360.111 63.667C375.298 63.667 387.363 75.874 387.363 91.0617C387.363 106.25 375.156 118.315 360.111 118.315ZM453.792 145C442.011 159.052 426.681 163.31 413.623 163.31C404.538 163.31 396.448 161.323 391.054 158.91C388.073 157.632 386.654 154.084 387.789 150.961C389.067 147.98 392.615 146.419 395.738 147.696C396.874 148.122 425.262 159.762 444.566 137.051C446.695 134.496 450.528 134.212 453.082 136.341C455.637 138.47 455.921 142.303 453.792 144.858V145ZM454.36 118.315C439.314 118.315 427.107 106.108 427.107 91.0617C427.107 76.0159 439.314 63.667 454.36 63.667C469.406 63.667 481.755 75.874 481.755 91.0617C481.755 106.25 469.548 118.315 454.36 118.315Z" fill="#00BCFF"/>
<path d="M255.917 183.608C257.053 183.324 258.189 183.182 259.324 182.898C261.169 182.614 262.873 182.188 264.718 182.046C267.699 181.621 270.679 181.195 273.66 180.911C283.596 179.633 293.39 179.491 302.758 180.059C304.32 171.401 305.171 162.316 305.171 153.09C305.171 140.599 303.61 128.25 300.629 116.327C297.79 104.688 293.532 93.6167 287.996 83.113C286.293 79.9903 284.59 77.0095 282.744 73.8868C281.041 71.048 279.196 68.2091 277.209 65.5122C253.363 31.5882 216.032 7.8839 173.733 2.06429C167.062 0.928755 160.107 0.50293 152.584 0.50293C142.79 0.50293 132.996 1.49652 123.202 3.34176C64.722 14.839 18.0232 59.6926 4.25483 117.605C1.416 128.96 -0.00341797 140.883 -0.00341797 153.09C-0.00341797 228.887 55.6377 291.909 128.17 303.548C145.203 243.223 194.457 196.808 255.917 183.608ZM237.749 62.2476C250.666 62.2476 261.169 76.5837 261.169 94.1844C261.169 111.785 250.666 125.979 237.749 125.979C224.832 125.979 214.329 111.643 214.329 94.1844C214.329 76.7256 224.832 62.2476 237.749 62.2476ZM116.815 126.121C103.898 126.121 93.3942 111.785 93.3942 94.3264C93.3942 76.8676 103.898 62.3895 116.815 62.3895C129.731 62.3895 140.235 76.7256 140.235 94.3264C140.235 111.927 129.731 126.121 116.815 126.121ZM146.48 133.786C145.913 130.947 147.9 128.25 150.455 128.25H204.109C206.664 128.25 208.651 130.805 208.083 133.644C206.522 143.58 200.418 164.02 177.566 164.02C154.713 164.02 148.184 143.722 146.338 133.786H146.48Z" fill="#FFE500"/>
</svg>
