<?xml version="1.0" encoding="UTF-8"?>
<svg xmlns="http://www.w3.org/2000/svg" version="1.1" viewBox="0 0 34 33">
  <defs>
    <style>
      .cls-1 {
        fill: #00bcff;
      }

      .cls-2 {
        fill: #fff;
      }

      .cls-3 {
        fill: #ffe500;
      }
    </style>
  </defs>
  <!-- Generator: Adobe Illustrator 28.7.4, SVG Export Plug-In . SVG Version: 1.2.0 Build 166)  -->
  <g>
    <g id="Layer_2">
      <g id="Layer_1-2">
        <path class="cls-1" d="M31.4,0H2.6C1.1,0,0,1.1,0,2.6v4.3c0,1.4,1.1,2.6,2.6,2.6h28.9c1.4,0,2.6-1.1,2.6-2.6V2.6c0-1.4-1.2-2.6-2.6-2.6ZM13.2,5.8c-.9,0-1.7-.7-1.7-1.7s.7-1.7,1.7-1.7,1.7.7,1.7,1.7-.7,1.7-1.7,1.7ZM19,6.4c-.7.8-1.6,1.1-2.4,1.1s-1-.1-1.4-.3c-.2,0-.3-.3-.2-.5,0-.2.3-.3.5-.2,0,0,1.8.7,3-.7.1-.2.4-.2.5,0,.1.1.2.4,0,.5h0ZM20.5,5.8c-.9,0-1.7-.7-1.7-1.7s.7-1.7,1.7-1.7,1.7.7,1.7,1.7-.7,1.7-1.7,1.7Z"/>
        <path class="cls-3" d="M31.4,23.6H2.6c-1.4,0-2.6,1.1-2.6,2.6v4.3c0,1.4,1.1,2.6,2.6,2.6h28.9c1.4,0,2.6-1.1,2.6-2.6v-4.3c0-1.4-1.2-2.6-2.6-2.6ZM12.9,29c-.9,0-1.7-.7-1.7-1.5s.6-.5,1.5-.5,1.8-.3,1.8.5-.7,1.5-1.7,1.5h0ZM17.6,30h-2c-.3,0-.5-.2-.5-.5s.2-.5.5-.5h2c.3,0,.5.2.5.5s-.2.5-.5.5ZM19.9,29c-.9,0-1.7-.7-1.7-1.5s.6-.5,1.5-.5,1.8-.3,1.8.5-.7,1.5-1.7,1.5h0Z"/>
        <path class="cls-2" d="M31.4,11.8H2.6c-1.4,0-2.6,1.1-2.6,2.6v4.3c0,1.4,1.1,2.6,2.6,2.6h28.9c1.4,0,2.6-1.1,2.6-2.6v-4.3c0-1.4-1.2-2.6-2.6-2.6ZM13.2,18c-.9,0-1.7-.9-1.7-2s.7-2,1.7-2,1.7.9,1.7,2-.7,2-1.7,2ZM17,19.6c-.6,0-1.1-.5-1.1-1.1s.5-1.1,1.1-1.1,1.1.5,1.1,1.1-.5,1.1-1.1,1.1ZM20.5,18c-.9,0-1.7-.9-1.7-2s.7-2,1.7-2,1.7.9,1.7,2-.7,2-1.7,2Z"/>
      </g>
    </g>
  </g>
</svg>