<svg width="497" height="577" viewBox="0 0 497 577" fill="none" xmlns="http://www.w3.org/2000/svg">
<path d="M488.814 213.977L406.533 86.2489C405.923 85.2702 404.461 85.7596 404.461 86.8607V100.93C404.461 128.825 381.788 151.581 353.995 151.581C326.203 151.581 303.53 128.825 303.53 100.93V63.9822L300.726 59.9448C295.972 58.3543 291.218 57.6202 286.464 57.6202C283.051 57.3755 280.125 57.9873 277.078 58.7213C275.25 59.0884 273.543 59.5777 271.958 60.0671C268.911 61.1682 265.62 61.1682 262.572 60.0671C253.186 56.8862 242.825 56.8862 233.439 60.0671C230.391 61.1682 227.1 61.1682 224.053 60.0671C222.468 59.5777 220.64 59.0884 218.933 58.599C215.886 57.9873 212.351 57.6202 209.547 57.6202C204.549 57.6202 199.673 58.4766 194.919 60.0671C191.872 61.1682 188.581 61.1682 185.655 60.0671C176.513 57.0085 166.395 56.8862 157.131 60.0671C153.718 61.1682 150.305 61.1682 146.892 60.0671C127.876 53.5828 105.69 61.2906 94.7197 78.4189L7.19745 213.977C0.736891 224.132 -1.45726 236.244 1.10258 247.989C3.54053 259.734 10.4887 269.766 20.6061 276.373C27.7981 281.022 36.0871 283.347 44.498 283.469C53.8841 283.469 63.1483 280.9 70.8278 275.394C75.5818 271.969 81.7986 271.724 86.5526 275.15C89.1124 276.985 92.038 278.575 94.8416 279.921C108.86 285.916 125.194 284.325 137.871 275.884C143.235 272.213 149.939 272.213 155.303 275.884C160.057 279.065 165.176 281.267 171.027 282.613C183.095 285.182 195.773 282.613 206.134 275.394C211.132 271.846 217.592 271.969 222.59 275.394C237.705 285.916 258.672 285.916 273.665 275.394C278.663 271.846 285.123 271.724 290.121 275.394C300.36 282.613 313.038 285.182 325.349 282.49C331.2 281.267 336.686 278.942 341.562 275.517C344 273.804 346.803 272.947 349.729 272.947C352.654 272.947 355.458 273.804 357.896 275.517C370.451 284.325 387.029 286.038 401.291 279.921C403.607 278.82 405.923 277.596 407.996 276.251C413.603 272.58 421.039 272.703 426.768 276.251C434.082 281.022 442.858 283.347 451.635 283.347C460.046 283.224 468.457 280.9 475.527 276.251C485.644 269.644 492.592 259.612 495.152 247.867C497.59 235.999 495.396 224.009 488.936 213.855L488.814 213.977Z" fill="white"/>
<path d="M417.137 304.034C415.674 304.891 414.089 305.625 412.504 306.359C403.24 310.274 393.488 312.354 383.371 312.354C371.547 312.354 359.967 309.54 349.605 304.034C343.754 307.093 337.66 309.295 331.199 310.641C314.499 314.311 296.946 311.864 281.952 304.034C261.108 314.923 235.022 314.923 214.178 304.034C199.062 311.864 181.509 314.311 164.809 310.641C158.349 309.295 152.254 307.093 146.525 304.034C127.265 314.066 103.739 315.045 83.5037 306.359C81.919 305.625 80.4563 304.891 78.8716 304.034C68.2665 309.54 56.3206 312.231 44.4966 312.109V479.966C44.4966 533.309 87.5263 576.496 140.674 576.496H355.335C408.482 576.496 451.512 533.309 451.512 479.966V312.109C439.688 312.231 427.742 309.54 417.137 304.034ZM159.69 459.29C137.26 459.29 119.22 441.061 119.22 418.671C119.22 396.282 137.382 378.053 159.69 378.053C181.997 378.053 200.159 396.282 200.159 418.671C200.159 441.061 181.997 459.29 159.69 459.29ZM310.964 498.93C293.289 519.851 270.738 526.09 251.234 526.09C237.704 526.09 225.758 523.032 217.835 519.728C213.324 517.771 211.13 512.51 213.081 507.983C215.031 503.456 220.272 501.254 224.783 503.212C226.611 503.946 268.544 521.196 297.19 487.307C300.359 483.514 306.088 483.025 309.867 486.206C313.646 489.387 314.133 495.137 310.964 498.93ZM336.197 459.29C313.768 459.29 295.727 441.061 295.727 418.671C295.727 396.282 313.89 378.053 336.197 378.053C358.504 378.053 376.667 396.282 376.667 418.671C376.667 441.061 358.504 459.29 336.197 459.29Z" fill="#00BCFF"/>
<path d="M381.311 0.50293H326.701C314.145 0.50293 304.028 10.7799 304.028 23.3814C304.028 35.983 314.145 46.1376 326.701 46.1376V101.927C326.701 116.486 338.525 128.231 352.909 128.231H355.103C369.487 128.231 381.311 116.486 381.311 101.927V46.1376C393.866 46.1376 403.984 35.8606 403.984 23.3814C403.984 10.9022 393.866 0.50293 381.311 0.50293Z" fill="#FFE210"/>
</svg>
