<svg width="456" height="448" viewBox="0 0 456 448" fill="none" xmlns="http://www.w3.org/2000/svg">
<g clip-path="url(#clip0_5053_51)">
<path d="M447.992 409.279L395.477 361.243C405.806 343.323 411.654 322.541 411.654 300.39C411.654 232.692 356.774 177.688 288.952 177.688C221.13 177.688 166.25 232.567 166.25 300.39C166.25 368.212 221.13 423.092 288.952 423.092C318.446 423.092 345.45 412.639 366.606 395.341L417.752 442.132C426.837 450.47 441.023 449.847 449.237 440.763C457.574 431.679 456.952 417.492 447.868 409.279H447.992ZM289.077 389.616C239.797 389.616 199.85 349.67 199.85 300.39C199.85 251.11 239.797 211.163 289.077 211.163C338.357 211.163 378.303 251.11 378.303 300.39C378.303 349.67 338.357 389.616 289.077 389.616Z" fill="white"/>
<path d="M254.37 251.625C246.032 251.625 239.188 260.958 239.188 272.407C239.188 283.856 245.908 293.189 254.37 293.189C262.832 293.189 269.552 283.856 269.552 272.407C269.552 260.958 262.832 251.625 254.37 251.625Z" fill="white"/>
<path d="M320.307 251.625C311.969 251.625 305.125 260.958 305.125 272.407C305.125 283.856 311.845 293.189 320.307 293.189C328.769 293.189 335.489 283.856 335.489 272.407C335.489 260.958 328.769 251.625 320.307 251.625Z" fill="white"/>
<path d="M154.56 0H37.0844C16.5511 0 0 16.5511 0 37.0844V154.56C0 175.093 16.5511 191.644 37.0844 191.644H154.56C175.093 191.644 191.644 175.093 191.644 154.56V37.0844C191.644 16.5511 175.093 0 154.56 0ZM149.333 123.449C149.333 127.556 145.973 130.916 141.867 130.916H49.7778C45.6711 130.916 42.3111 127.556 42.3111 123.449V120.462C42.3111 116.356 45.6711 112.996 49.7778 112.996H141.867C145.973 112.996 149.333 116.356 149.333 120.462V123.449ZM149.333 89.2267C149.333 96.32 143.484 102.169 136.391 102.169H55.1289C48.0356 102.169 42.1867 96.32 42.1867 89.2267V61.4756C42.1867 54.3822 48.0356 48.5333 55.1289 48.5333H136.391C143.484 48.5333 149.333 54.3822 149.333 61.4756V89.2267Z" fill="#00BCFF"/>
<path d="M131.787 299.523C131.787 273.514 138.258 249.123 149.458 227.594H37.0844C16.5511 227.594 0 244.145 0 264.678V382.154C0 402.687 16.5511 419.238 37.0844 419.238H154.56C163.644 419.238 171.858 415.878 178.329 410.403C149.582 382.154 131.787 342.829 131.787 299.398V299.523ZM47.9111 353.283C47.9111 356.145 45.6711 358.385 42.8089 358.385H29.12C26.2578 358.385 24.0178 356.145 24.0178 353.283V339.594C24.0178 336.732 26.2578 334.491 29.12 334.491H42.8089C45.6711 334.491 47.9111 336.732 47.9111 339.594V353.283ZM47.9111 307.238C47.9111 310.1 45.6711 312.34 42.8089 312.34H29.12C26.2578 312.34 24.0178 310.1 24.0178 307.238V293.549C24.0178 290.687 26.2578 288.447 29.12 288.447H42.8089C45.6711 288.447 47.9111 290.687 47.9111 293.549V307.238ZM119.84 350.42C119.84 354.9 116.231 358.509 111.751 358.509H67.9467C63.4667 358.509 59.8578 354.9 59.8578 350.42V342.58C59.8578 338.1 63.4667 334.491 67.9467 334.491H111.751C116.231 334.491 119.84 338.1 119.84 342.58V350.42ZM119.84 304.252C119.84 308.732 116.231 312.34 111.751 312.34H67.9467C63.4667 312.34 59.8578 308.732 59.8578 304.252V296.412C59.8578 291.932 63.4667 288.323 67.9467 288.323H111.751C116.231 288.323 119.84 291.932 119.84 296.412V304.252Z" fill="white"/>
<path d="M382.185 0H264.709C244.176 0 227.625 16.5511 227.625 37.0844V154.56C227.625 154.56 227.625 155.307 227.625 155.68C246.043 147.964 266.203 143.733 287.358 143.733C329.918 143.733 368.621 160.907 396.745 188.658C409.936 182.933 419.145 169.867 419.145 154.56V37.0844C419.145 16.5511 402.594 0 382.061 0H382.185ZM360.905 87.1111C360.905 107.769 344.229 124.444 323.572 124.444C302.914 124.444 286.238 107.769 286.238 87.1111C286.238 66.4533 302.914 49.7778 323.572 49.7778V87.1111H360.905Z" fill="#FFE500"/>
</g>
<defs>
<clipPath id="clip0_5053_51">
<rect width="455.218" height="448" fill="white"/>
</clipPath>
</defs>
</svg>
