<svg width="41" height="42" viewBox="0 0 41 42" fill="none" xmlns="http://www.w3.org/2000/svg">
<g clip-path="url(#clip0_5670_205)">
<g opacity="0.5">
<path d="M20.8718 40.6986C31.9885 40.6986 41.0004 32.0438 41.0004 21.3676C41.0004 10.6913 31.9885 2.03656 20.8718 2.03656C9.75505 2.03656 0.743164 10.6913 0.743164 21.3676C0.743164 32.0438 9.75505 40.6986 20.8718 40.6986Z" fill="black"/>
</g>
<g opacity="0.6">
<path d="M39.2251 22.3423C39.2308 22.2606 39.2421 22.1843 39.2478 22.1027C39.2818 21.7215 39.2988 21.3458 39.3045 20.97C39.3045 20.9156 39.3045 20.8557 39.3045 20.8012C39.3045 20.4418 39.2931 20.0879 39.2648 19.7339C39.2648 19.6904 39.2648 19.6468 39.2591 19.6032C39.2308 19.2221 39.1797 18.8463 39.123 18.4706C39.1117 18.4107 39.106 18.3508 39.0947 18.2909C38.9643 17.5177 38.7772 16.7662 38.5333 16.0311C38.522 15.993 38.5107 15.9549 38.4937 15.9113C38.3689 15.541 38.2272 15.1762 38.0741 14.8168C38.0684 14.8004 38.0571 14.7787 38.0514 14.7623C35.9365 9.85062 31.3211 6.05521 25.4582 5.10228C24.483 4.94436 23.5531 5.48345 23.2243 6.34382C22.816 5.9572 22.283 5.67948 21.6763 5.58147L14.2089 4.36715C12.627 4.11122 11.1244 5.13495 10.8579 6.6542L8.23269 21.52C5.46571 22.7942 3.36213 25.2773 2.81781 28.3866C1.91627 33.4943 5.52241 38.3407 10.8806 39.212C10.8919 39.212 10.9033 39.212 10.9203 39.212C10.9316 39.212 10.9486 39.2174 10.96 39.2174C13.1486 39.5714 15.2805 39.1902 17.1063 38.2754C17.248 38.5204 17.4068 38.7546 17.5996 38.9669C18.0022 39.4134 18.5125 39.7728 19.1021 40.007C19.1532 40.0288 19.2042 40.0451 19.2552 40.0669C19.4877 40.1486 19.7315 40.2139 19.9867 40.2575L30.3912 41.951C32.0468 42.2178 33.6344 41.4881 34.4849 40.2085C34.7684 39.7837 34.9669 39.2936 35.0633 38.7654L35.2107 37.9432L36.8323 28.7732C37.1158 27.1668 36.3334 25.6313 34.9782 24.8199L36.7586 25.1085C36.8947 25.1303 37.0308 25.1412 37.1669 25.1357C37.5694 25.1248 37.9493 24.9941 38.2668 24.7763C38.6921 24.4877 38.9983 24.0467 39.089 23.513C39.157 23.1209 39.2081 22.7343 39.2478 22.3423H39.2251ZM21.6083 22.6145L21.6253 22.5111C21.6763 22.5383 21.7274 22.5601 21.7784 22.5873C21.7217 22.5982 21.665 22.6091 21.6083 22.62V22.6145Z" fill="black"/>
</g>
<path d="M8.64062 26.0615L8.72001 27.8258" stroke="black" stroke-width="0.56" stroke-linecap="round" stroke-linejoin="round"/>
<path d="M8.72042 27.8258C8.72042 27.8258 7.47301 27.6188 7.27456 28.0055C7.07611 28.3921 8.60702 28.4846 8.72042 27.8258Z" fill="black" stroke="black" stroke-width="0.56" stroke-linecap="round" stroke-linejoin="round"/>
<path d="M15.6267 27.1995L14.9463 28.8386" stroke="black" stroke-width="0.56" stroke-linecap="round" stroke-linejoin="round"/>
<path d="M14.9463 28.8386C14.9463 28.8386 16.1937 29.04 16.2504 29.4648C16.3071 29.8895 14.8272 29.492 14.9463 28.8386Z" fill="black" stroke="black" stroke-width="0.56" stroke-linecap="round" stroke-linejoin="round"/>
<path d="M19.0952 24.9429L22.5149 5.56699C22.7833 4.0459 21.717 2.6038 20.1332 2.34598L12.6701 1.13115C11.0863 0.873326 9.58465 1.89741 9.3162 3.41851L5.89654 22.7944C5.62808 24.3155 6.69442 25.7576 8.27828 26.0154L15.7413 27.2303C17.3252 27.4881 18.8268 26.464 19.0952 24.9429Z" fill="#FF6E6E"/>
<path d="M13.1653 8.40219C13.516 8.40219 13.8004 8.12914 13.8004 7.79231C13.8004 7.45549 13.516 7.18243 13.1653 7.18243C12.8146 7.18243 12.5303 7.45549 12.5303 7.79231C12.5303 8.12914 12.8146 8.40219 13.1653 8.40219Z" fill="black"/>
<path d="M17.3782 9.08829C17.7289 9.08829 18.0133 8.81524 18.0133 8.47841C18.0133 8.14158 17.7289 7.86853 17.3782 7.86853C17.0275 7.86853 16.7432 8.14158 16.7432 8.47841C16.7432 8.81524 17.0275 9.08829 17.3782 9.08829Z" fill="black"/>
<path d="M14.9919 10.0249C14.2491 10.0413 13.3646 13.6243 14.4646 13.804C15.8367 14.0273 15.729 10.014 14.9919 10.0249Z" fill="#3F1010" stroke="black" stroke-width="0.37" stroke-linecap="round" stroke-linejoin="round"/>
<path d="M14.5547 13.0743C14.3166 13.0525 14.0501 13.5752 14.498 13.6188C14.8609 13.6569 14.9857 13.1178 14.5547 13.0743Z" fill="#FF9292"/>
<path d="M6.92844 19.6523C6.92844 19.6523 5.93619 20.676 6.19701 21.972" stroke="black" stroke-width="0.56" stroke-linecap="round" stroke-linejoin="round"/>
<path d="M5.91406 22.6745C5.91406 22.6745 6.04447 22.1081 6.17488 22.0156C6.17488 22.0156 6.63416 22.522 6.87797 22.6581" stroke="black" stroke-width="0.73" stroke-linecap="round" stroke-linejoin="round"/>
<path d="M6.92322 22.168C6.50364 21.9666 6.20312 21.9775 6.20312 21.9775C6.20312 21.9775 6.22581 22.473 6.50364 22.8814" stroke="black" stroke-width="0.73" stroke-linecap="round" stroke-linejoin="round"/>
<path d="M19.46 21.1497C19.46 21.1497 19.8739 22.6853 19.6244 23.9323" stroke="black" stroke-width="0.56" stroke-linecap="round" stroke-linejoin="round"/>
<path d="M20.0887 24.5476C20.0887 24.5476 19.8222 24.0249 19.6748 23.965C19.6748 23.965 19.3516 24.5585 19.1475 24.7437" stroke="black" stroke-width="0.73" stroke-linecap="round" stroke-linejoin="round"/>
<path d="M18.9893 24.2808C19.3465 23.9922 19.647 23.9323 19.647 23.9323C19.647 23.9323 19.749 24.4169 19.5733 24.8798" stroke="black" stroke-width="0.73" stroke-linecap="round" stroke-linejoin="round"/>
<path d="M20.6604 28.3058C21.5616 23.1999 17.9521 18.3543 12.5985 17.4829C7.24488 16.6114 2.1744 20.0441 1.27326 25.15C0.372119 30.2559 3.98157 35.1015 9.33518 35.9729C14.6888 36.8444 19.7593 33.4117 20.6604 28.3058Z" fill="#009EFF"/>
<path d="M11.8047 23.8615C11.8047 23.8615 12.0031 24.2264 12.4227 24.2808C13.1825 24.3789 13.7041 23.8234 13.7041 23.8234" stroke="black" stroke-width="1.02" stroke-linecap="round" stroke-linejoin="round"/>
<path d="M8.85055 23.3279C8.85055 23.3279 8.44231 23.7309 7.88098 23.5294C7.31964 23.3279 6.65625 22.816 6.65625 22.816" stroke="black" stroke-width="1.02" stroke-linecap="round" stroke-linejoin="round"/>
<path opacity="0.3" d="M10.8464 23.9977C10.8464 23.9977 10.8067 24.3462 11.1185 24.4551" stroke="black" stroke-width="0.51" stroke-linecap="round" stroke-linejoin="round"/>
<path opacity="0.3" d="M9.70133 23.8397C9.70133 23.8397 9.63329 24.0848 9.17969 24.1447" stroke="black" stroke-width="0.51" stroke-linecap="round" stroke-linejoin="round"/>
<path d="M7.91684 24.1464C7.99848 23.6839 7.67171 23.245 7.18698 23.1661C6.70225 23.0871 6.24312 23.3982 6.16149 23.8607C6.07985 24.3233 6.40662 24.7622 6.89135 24.8411C7.37608 24.92 7.83521 24.609 7.91684 24.1464Z" fill="black"/>
<path d="M13.8221 25.1115C13.9038 24.649 13.577 24.21 13.0923 24.1311C12.6075 24.0522 12.1484 24.3632 12.0668 24.8258C11.9851 25.2884 12.3119 25.7273 12.7966 25.8062C13.2813 25.8851 13.7405 25.5741 13.8221 25.1115Z" fill="black"/>
<path d="M8.78898 26.5842L12.6503 26.6115C13.0075 26.6115 13.24 26.9708 13.0812 27.2812C12.826 27.7822 12.259 28.3975 11.023 28.4574C9.71887 28.5228 8.8797 27.8911 8.40909 27.3411C8.14827 27.0362 8.37507 26.5842 8.78898 26.5842Z" fill="white" stroke="black" stroke-width="0.51" stroke-linecap="round" stroke-linejoin="round"/>
<path d="M10.6592 27.3846C10.6592 27.3846 11.487 27.4228 12.2865 27.3574L10.6592 27.3846Z" fill="white"/>
<path d="M10.6592 27.3846C10.6592 27.3846 11.487 27.4228 12.2865 27.3574" stroke="#D8D8D8" stroke-width="0.51" stroke-linecap="round" stroke-linejoin="round"/>
<path d="M3.74174 23.5838L3.46391 23.0502C3.3902 22.914 3.25978 22.8106 3.10669 22.7724L2.5 22.6254L3.05566 22.364C3.20308 22.2932 3.30514 22.168 3.34483 22.021L3.49793 21.4492L3.77576 21.9829C3.84947 22.119 3.97988 22.2225 4.13297 22.2606L4.73966 22.4076L4.184 22.669C4.03658 22.7398 3.93452 22.865 3.89483 23.012L3.74174 23.5838Z" fill="white"/>
<path d="M17.3271 31.4905C17.3271 31.4905 19.2266 32.7538 20.1508 34.2894" stroke="black" stroke-width="0.78" stroke-linecap="round" stroke-linejoin="round"/>
<path d="M21.2344 34.5398C21.2344 34.5398 20.4576 34.2186 20.2422 34.2839C20.2422 34.2839 20.469 35.1933 20.4236 35.569" stroke="black" stroke-width="1.02" stroke-linecap="round" stroke-linejoin="round"/>
<path d="M19.8115 35.2205C19.9193 34.6052 20.1744 34.2785 20.1744 34.2785C20.1744 34.2785 20.7414 34.7032 21.0022 35.3458" stroke="black" stroke-width="1.02" stroke-linecap="round" stroke-linejoin="round"/>
<path d="M20.7635 25.8436C20.7409 26.1867 20.7068 26.5352 20.6445 26.8837C19.7429 31.9914 14.7023 35.4274 9.38378 34.5616C4.93281 33.8374 1.70089 30.3252 1.29265 26.2085C1.00915 30.9187 4.45653 35.177 9.40646 35.9829C14.725 36.8487 19.7656 33.4127 20.6671 28.3049C20.8146 27.4718 20.8372 26.6441 20.7579 25.8436H20.7635Z" fill="#0079B5"/>
<path d="M25.0274 20.0334L24.7949 22.4839" stroke="black" stroke-width="0.78" stroke-linecap="round" stroke-linejoin="round"/>
<path d="M24.795 22.4838C24.795 22.4838 23.1167 21.9774 22.7595 22.4729C22.4022 22.9685 24.5058 23.3714 24.795 22.4838Z" fill="black" stroke="black" stroke-width="0.78" stroke-linecap="round" stroke-linejoin="round"/>
<path d="M28.0889 20.7631L27.8564 23.2135" stroke="black" stroke-width="0.78" stroke-linecap="round" stroke-linejoin="round"/>
<path d="M27.8565 23.2136C27.8565 23.2136 26.1782 22.7071 25.821 23.2027C25.4638 23.6982 27.5673 24.1012 27.8565 23.2136Z" fill="black" stroke="black" stroke-width="0.78" stroke-linecap="round" stroke-linejoin="round"/>
<path d="M23.9186 1.86448C32.9693 3.33775 39.0699 11.5881 37.5358 20.2801C37.3491 21.3378 36.3031 22.0512 35.2018 21.8719L20.8012 19.5278C19.6999 19.3485 18.9571 18.3439 19.1437 17.2862L21.5846 3.45627C21.7712 2.39862 22.8173 1.68521 23.9186 1.86448Z" fill="#B37DFF"/>
<path d="M25.6289 12.8401C24.8804 12.7639 24.5686 13.6297 25.0392 14.0381C25.5722 14.5064 26.5531 14.7514 27.3015 14.7133C28.152 14.6698 28.5886 14.4737 28.9175 14C29.1159 13.7059 29.167 13.1451 28.634 12.9272C28.2031 12.7475 27.7098 13.0144 27.0634 13.047C26.6722 13.0688 25.6289 12.8401 25.6289 12.8401Z" fill="white" stroke="black" stroke-width="0.51" stroke-linecap="round" stroke-linejoin="round"/>
<path d="M26.2637 13.8584C26.2637 13.8584 27.2616 14.1362 28.3162 13.6896L26.2637 13.8584Z" fill="white"/>
<path d="M26.2637 13.8584C26.2637 13.8584 27.2616 14.1362 28.3162 13.6896" stroke="#D8D8D8" stroke-width="0.51" stroke-linecap="round" stroke-linejoin="round"/>
<path d="M31.6271 13.8312L31.491 13.1451C31.457 12.9654 31.3436 12.8129 31.1792 12.7203L30.5498 12.3718L31.2642 12.2411C31.4513 12.2085 31.6101 12.0996 31.7065 11.9417L32.0694 11.3372L32.2055 12.0233C32.2395 12.203 32.3529 12.3555 32.5173 12.4481L33.1467 12.7966L32.4323 12.9273C32.2451 12.9599 32.0864 13.0688 31.99 13.2268L31.6271 13.8312Z" fill="white"/>
<path d="M24.2849 11.3481C24.7734 11.3481 25.1694 10.9678 25.1694 10.4986C25.1694 10.0295 24.7734 9.64917 24.2849 9.64917C23.7964 9.64917 23.4004 10.0295 23.4004 10.4986C23.4004 10.9678 23.7964 11.3481 24.2849 11.3481Z" fill="black"/>
<path d="M33.005 16.5811C33.005 16.5811 34.0994 20.0716 30.9922 18.8409" stroke="black" stroke-width="0.78" stroke-linecap="round" stroke-linejoin="round"/>
<path d="M17.4746 10.3407C17.4746 10.3407 18.3932 10.9342 18.5973 10.1174C18.5973 10.1174 18.5236 9.60013 17.9225 9.43677" stroke="black" stroke-width="1.02" stroke-linecap="round" stroke-linejoin="round"/>
<path d="M19.1133 9.15906C18.6937 9.57835 18.5973 10.1174 18.5973 10.1174C18.5973 10.1174 18.2458 10.308 17.5938 9.83973" stroke="black" stroke-width="1.02" stroke-linecap="round" stroke-linejoin="round"/>
<path d="M29.8359 18.8409C29.8359 18.8409 30.9359 19.0805 30.8339 18.3018C30.8339 18.3018 30.6014 17.8335 29.972 17.8553" stroke="black" stroke-width="1.02" stroke-linecap="round" stroke-linejoin="round"/>
<path d="M31.0261 17.2346C30.7596 17.7573 30.8333 18.3018 30.8333 18.3018C30.8333 18.3018 30.5555 18.585 29.79 18.3291" stroke="black" stroke-width="1.02" stroke-linecap="round" stroke-linejoin="round"/>
<path d="M30.5162 10.7654L28.5146 11.1902L30.295 12.0233" stroke="black" stroke-width="1.02" stroke-linecap="round" stroke-linejoin="round"/>
<path d="M19.8844 13.0852C19.8844 13.0852 18.0246 13.2975 17.6787 12.5897C17.3385 11.8818 18.2627 10.6075 18.2627 10.6075" stroke="black" stroke-width="0.78" stroke-linecap="round" stroke-linejoin="round"/>
<path d="M35.993 10.4387C37.0533 13.0416 37.4161 15.9494 36.8945 18.9117C36.7074 19.9735 35.6641 20.6814 34.5585 20.5072L20.1566 18.1602C19.7483 18.0949 19.3911 17.9152 19.1133 17.6593C19.136 18.5741 19.822 19.3745 20.7973 19.5325L35.1992 21.8794C36.3048 22.0591 37.3481 21.3458 37.5352 20.2839C38.1532 16.7934 37.5352 13.3738 35.993 10.4387Z" fill="#8A4FE8"/>
<path d="M31.9575 21.0474L21.5596 19.3549C19.352 18.9955 17.2592 20.4229 16.885 22.5429L15.1226 32.5288C14.7484 34.6489 16.2347 36.6588 18.4422 37.0181L28.8401 38.7107C31.0476 39.0701 33.1405 37.6427 33.5147 35.5227L35.2771 25.5368C35.6513 23.4167 34.165 21.4068 31.9575 21.0474Z" fill="#FFA300"/>
<path d="M28.9852 37.8942L18.5807 36.2007C16.375 35.8413 14.8895 33.832 15.2637 31.7137L15.1163 32.536C14.7421 34.6542 16.2276 36.6636 18.4333 37.023L28.8378 38.7165C31.0434 39.0759 33.1356 37.6492 33.5099 35.5309L33.6573 34.7087C33.2831 36.8269 31.1908 38.2536 28.9852 37.8942Z" fill="#C16000"/>
<path d="M22.9639 34.0661C22.9639 34.0661 23.8597 33.4835 24.9824 34.1206" stroke="black" stroke-width="0.51" stroke-linecap="round" stroke-linejoin="round"/>
<path d="M25.691 32.8409C25.3452 33.1622 25.0049 33.6087 24.9936 34.126C24.9766 34.8993 25.4472 35.9067 26.275 36.2661" stroke="black" stroke-width="0.51" stroke-linecap="round" stroke-linejoin="round"/>
<path d="M22.1582 32.89C22.1582 32.89 22.9123 33.5271 22.9577 34.0607C23.003 34.5943 22.4927 35.1389 22.4927 35.1389" stroke="black" stroke-width="0.51" stroke-linecap="round" stroke-linejoin="round"/>
<path d="M26.4453 34.7304C26.6238 34.7304 26.7685 34.5915 26.7685 34.4201C26.7685 34.2486 26.6238 34.1097 26.4453 34.1097C26.2668 34.1097 26.1221 34.2486 26.1221 34.4201C26.1221 34.5915 26.2668 34.7304 26.4453 34.7304Z" fill="#FFEEA6"/>
<path d="M24.5338 34.7904C24.6528 34.7904 24.7493 34.6977 24.7493 34.5834C24.7493 34.4692 24.6528 34.3765 24.5338 34.3765C24.4148 34.3765 24.3184 34.4692 24.3184 34.5834C24.3184 34.6977 24.4148 34.7904 24.5338 34.7904Z" fill="#FFEEA6"/>
<path d="M21.3191 31.1039C21.8076 31.1039 22.2036 30.7235 22.2036 30.2544C22.2036 29.7852 21.8076 29.4049 21.3191 29.4049C20.8306 29.4049 20.4346 29.7852 20.4346 30.2544C20.4346 30.7235 20.8306 31.1039 21.3191 31.1039Z" fill="black"/>
<path d="M27.1882 32.0568C27.6767 32.0568 28.0728 31.6765 28.0728 31.2073C28.0728 30.7382 27.6767 30.3578 27.1882 30.3578C26.6997 30.3578 26.3037 30.7382 26.3037 31.2073C26.3037 31.6765 26.6997 32.0568 27.1882 32.0568Z" fill="black"/>
<path d="M26.626 29.5519C26.626 29.5519 27.4084 28.9856 28.0378 29.7806" stroke="black" stroke-width="1.02" stroke-linecap="round" stroke-linejoin="round"/>
<path d="M21.2969 27.4609C21.2969 27.4609 21.9206 26.7258 23.0432 27.744" stroke="black" stroke-width="1.02" stroke-linecap="round" stroke-linejoin="round"/>
<path d="M21.3476 33.9518C21.3646 33.8538 21.4157 33.7667 21.4894 33.7068C21.4327 33.7068 21.376 33.7068 21.3193 33.6904C21.0358 33.6087 20.877 33.3256 20.9621 33.0533C20.9791 32.9989 21.0074 32.9498 21.0415 32.9063L19.7544 32.5414C19.4709 32.4598 19.176 32.6177 19.091 32.89L18.5977 34.4909C18.5126 34.7632 18.677 35.0463 18.9549 35.128L20.6162 35.6017C20.8997 35.6834 21.1945 35.5255 21.2796 35.2532L21.5461 34.3929C21.4043 34.3003 21.3193 34.1315 21.3476 33.9572V33.9518Z" fill="#FFEEA6"/>
<path d="M19.788 33.6359C19.8538 33.6359 19.9071 33.5847 19.9071 33.5216C19.9071 33.4584 19.8538 33.4072 19.788 33.4072C19.7223 33.4072 19.6689 33.4584 19.6689 33.5216C19.6689 33.5847 19.7223 33.6359 19.788 33.6359Z" fill="#E5CA57"/>
<path d="M20.747 33.9082C20.8128 33.9082 20.8661 33.857 20.8661 33.7939C20.8661 33.7307 20.8128 33.6795 20.747 33.6795C20.6812 33.6795 20.6279 33.7307 20.6279 33.7939C20.6279 33.857 20.6812 33.9082 20.747 33.9082Z" fill="#E5CA57"/>
<path d="M19.6406 34.1097C19.7063 34.1097 19.7596 34.0585 19.7596 33.9953C19.7596 33.9322 19.7063 33.881 19.6406 33.881C19.5748 33.881 19.5215 33.9322 19.5215 33.9953C19.5215 34.0585 19.5748 34.1097 19.6406 34.1097Z" fill="#E5CA57"/>
<path d="M20.5995 34.3874C20.6653 34.3874 20.7186 34.3362 20.7186 34.273C20.7186 34.2099 20.6653 34.1587 20.5995 34.1587C20.5338 34.1587 20.4805 34.2099 20.4805 34.273C20.4805 34.3362 20.5338 34.3874 20.5995 34.3874Z" fill="#E5CA57"/>
<path d="M19.4931 34.5889C19.5589 34.5889 19.6122 34.5377 19.6122 34.4745C19.6122 34.4114 19.5589 34.3602 19.4931 34.3602C19.4273 34.3602 19.374 34.4114 19.374 34.4745C19.374 34.5377 19.4273 34.5889 19.4931 34.5889Z" fill="#E5CA57"/>
<path d="M20.4521 34.8612C20.5178 34.8612 20.5711 34.81 20.5711 34.7468C20.5711 34.6836 20.5178 34.6324 20.4521 34.6324C20.3863 34.6324 20.333 34.6836 20.333 34.7468C20.333 34.81 20.3863 34.8612 20.4521 34.8612Z" fill="#E5CA57"/>
<path d="M15.3433 33.576C15.3433 33.576 15.0825 36.0373 18.5526 35.4166" stroke="black" stroke-width="0.78" stroke-linecap="round" stroke-linejoin="round"/>
<path d="M19.7773 35.4928C19.7773 35.4928 18.9608 35.6562 18.7227 35.2804C18.7227 35.2804 19.0345 34.5344 19.233 34.2077" stroke="black" stroke-width="1.02" stroke-linecap="round" stroke-linejoin="round"/>
<path d="M18.3253 34.4528C17.9964 34.7686 18.6655 35.2478 18.6655 35.2478C18.6655 35.2478 19.2212 35.1824 19.8222 34.8122" stroke="black" stroke-width="1.02" stroke-linecap="round" stroke-linejoin="round"/>
<path d="M12.1788 1.08907C12.3375 1.08907 12.502 1.09996 12.6664 1.12719L20.1338 2.3415C20.7405 2.43952 21.2735 2.71723 21.6817 3.10385C21.9766 2.34695 22.7307 1.83508 23.5755 1.83508C23.6889 1.83508 23.8023 1.84597 23.9157 1.86231C29.7785 2.81525 34.3939 6.61066 36.5089 11.5224C36.5145 11.5387 36.5259 11.5605 36.5316 11.5768C36.6846 11.9362 36.8264 12.3011 36.9511 12.6713C36.9625 12.7095 36.9738 12.7476 36.9908 12.7911C37.2346 13.5263 37.4217 14.2832 37.5522 15.051C37.5635 15.1109 37.5748 15.1708 37.5805 15.2306C37.6372 15.6064 37.6882 15.9821 37.7166 16.3633C37.7166 16.4068 37.7166 16.4504 37.7223 16.494C37.7449 16.8479 37.7619 17.2019 37.7619 17.5613C37.7619 17.6157 37.7619 17.6756 37.7619 17.7301C37.7619 18.1058 37.7393 18.4815 37.7052 18.8627C37.6996 18.9444 37.6882 19.0206 37.6826 19.1023C37.6429 19.4889 37.5975 19.881 37.5238 20.273C37.4331 20.8012 37.1212 21.2478 36.7017 21.5364C36.3841 21.7542 36.0042 21.8794 35.6017 21.8958C35.579 21.8958 35.5563 21.8958 35.5336 21.8958C35.4202 21.8958 35.3068 21.8849 35.1934 21.8685L33.413 21.5799C34.7682 22.3913 35.5506 23.9269 35.2671 25.5333L33.6455 34.7032L33.4981 35.5255C33.4074 36.0537 33.2032 36.5438 32.9197 36.9685C32.1883 38.0685 30.9069 38.7655 29.5064 38.7655C29.2796 38.7655 29.0528 38.7491 28.826 38.711L18.4215 37.0175C18.1663 36.9739 17.9225 36.9086 17.69 36.8269C17.639 36.8106 17.588 36.7888 17.5369 36.767C16.9473 36.5329 16.437 36.1735 16.0344 35.727C15.8416 35.5146 15.6828 35.2859 15.5411 35.0354C14.1746 35.7215 12.6324 36.1081 11.0221 36.1081C10.4834 36.1081 9.94477 36.0646 9.39477 35.9774C9.38343 35.9774 9.36642 35.972 9.35508 35.972C9.34374 35.972 9.3324 35.972 9.31539 35.972C3.96288 35.1007 0.351074 30.2544 1.25261 25.1466C1.8026 22.0373 3.90618 19.5488 6.66749 18.28L9.29271 3.41424C9.53086 2.0529 10.7613 1.08907 12.1561 1.08907M20.0771 19.3855C20.1338 19.3746 20.1905 19.3637 20.2472 19.3528C20.1962 19.331 20.1452 19.3038 20.0941 19.2765L20.0771 19.38M12.1788 0C10.1999 0 8.52726 1.36134 8.1984 3.23454L5.66956 17.5613C2.75517 19.0968 0.713956 21.825 0.158293 24.9669C-0.32933 27.7223 0.339734 30.4994 2.04074 32.781C3.73608 35.0626 6.26492 36.5764 9.15096 37.0447C9.1623 37.0447 9.17364 37.0447 9.18498 37.0447C9.19632 37.0447 9.21333 37.0447 9.22467 37.0502C9.8257 37.1482 10.4381 37.1972 11.0391 37.1972C12.4453 37.1972 13.8571 36.9249 15.1669 36.4076C15.1725 36.4185 15.1839 36.424 15.1895 36.4349C15.7055 37.0121 16.3746 37.4695 17.1117 37.769C17.1797 37.7962 17.2421 37.8234 17.3101 37.8452C17.622 37.9541 17.9338 38.0358 18.2457 38.0902L28.6502 39.7837C28.9394 39.8327 29.2342 39.8545 29.5234 39.8545C31.2981 39.8545 32.9311 38.9942 33.8893 37.5511C34.2635 36.9903 34.513 36.3695 34.6264 35.7052L34.7738 34.8829L36.3955 25.713C36.5656 24.7546 36.4408 23.7962 36.0609 22.9413C36.5315 22.865 36.9738 22.6908 37.365 22.424C38.0511 21.9557 38.5104 21.2587 38.6521 20.4582C38.7202 20.0825 38.7712 19.6849 38.8166 19.2112V19.1567C38.8279 19.0914 38.8336 19.0206 38.8393 18.9553C38.8733 18.536 38.896 18.133 38.896 17.7464C38.896 17.7028 38.896 17.6647 38.896 17.6212V17.5613C38.896 17.1746 38.8789 16.7935 38.8563 16.4177V16.3742L38.8449 16.2762C38.8109 15.8841 38.7655 15.4866 38.6975 15.0618L38.6692 14.8985V14.8713C38.5274 14.0545 38.3233 13.2431 38.0625 12.4535L38.0511 12.41L38.0228 12.3283C37.8867 11.9253 37.7336 11.5333 37.5748 11.1575L37.5522 11.1085C35.2048 5.63594 30.1754 1.78063 24.1085 0.789576C23.9327 0.762349 23.757 0.746013 23.5812 0.746013C22.7534 0.746013 21.9709 1.06184 21.3982 1.59549C21.0637 1.44302 20.7008 1.32867 20.3323 1.26877L12.8592 0.0544535C12.6324 0.0163361 12.4056 0 12.1788 0Z" fill="black"/>
</g>
<defs>
<clipPath id="clip0_5670_205">
<rect width="41" height="42" fill="white"/>
</clipPath>
</defs>
</svg>
