<?xml version="1.0" encoding="UTF-8"?><svg id="Layer_2" xmlns="http://www.w3.org/2000/svg" viewBox="0 0 61.11 63.23"><defs><style>.cls-1{fill:#fc0;}.cls-2{fill:#5b2100;}.cls-3{opacity:.33;}.cls-3,.cls-4{fill:#fff;}.cls-5{fill:#b04900;}.cls-6{fill:#3a0a05;}.cls-7{fill:#ce5900;}.cls-8{opacity:.72;}.cls-9{opacity:.48;}.cls-10{opacity:.32;}.cls-11{fill:#f76c00;}</style></defs><g id="Layer_1-2"><ellipse class="cls-11" cx="30.56" cy="31.61" rx="28.56" ry="29.61"/><circle class="cls-1" cx="30.56" cy="29.53" r="27.53"/><g class="cls-8"><g class="cls-9"><path class="cls-4" d="M30.56,2C15.35,2,3.03,14.32,3.03,29.53c0,5.52,1.63,10.67,4.44,14.98,11.19-8.7,33.55-26.59,42.9-34.08-5.01-5.19-12.03-8.42-19.81-8.42Z"/></g><g class="cls-10"><path class="cls-4" d="M53.65,14.55c-.35-.54-.72-1.07-1.11-1.59L11.52,49.41c1.09,1.04,2.26,2,3.51,2.85L53.65,14.55Z"/></g><g class="cls-10"><path class="cls-4" d="M57.77,25.37c-.32-2.11-.89-4.15-1.66-6.07L21.45,55.51c1.76.62,3.6,1.06,5.51,1.31l30.82-31.45Z"/></g></g><path class="cls-7" d="M30.55,48.49c-10.45,0-18.96-8.5-18.96-18.96S20.1,10.57,30.55,10.57s18.96,8.5,18.96,18.96-8.51,18.96-18.96,18.96Z"/><path class="cls-5" d="M30.56,10.94c10.25,0,18.59,8.34,18.59,18.59s-8.34,18.59-18.59,18.59-18.59-8.34-18.59-18.59S20.31,10.94,30.56,10.94M30.56,10.2c-10.67,0-19.33,8.65-19.33,19.33s8.65,19.33,19.33,19.33,19.33-8.65,19.33-19.33-8.65-19.33-19.33-19.33h0Z"/><path class="cls-4" d="M44.56,7.98c-.17,0-.34-.04-.5-.14-.71-.42-1.45-.81-2.2-1.17-.49-.23-.71-.82-.47-1.32.23-.49.82-.71,1.31-.47.8.38,1.6.8,2.36,1.25.47.28.62.88.35,1.35-.18.31-.51.48-.85.48Z"/><path class="cls-4" d="M15.94,8.35c-.33,0-.65-.16-.84-.46-.29-.46-.15-1.07.31-1.36,4.53-2.84,9.76-4.35,15.14-4.35,2.62,0,5.22.36,7.73,1.06.52.15.83.69.68,1.22s-.69.83-1.22.68c-2.33-.65-4.75-.99-7.19-.99-5,0-9.87,1.4-14.09,4.04-.16.1-.34.15-.52.15Z"/><path class="cls-4" d="M22.76,49.38c-.13,0-.27-.03-.4-.08-.9-.4-1.78-.87-2.62-1.39-.46-.29-.6-.9-.31-1.36.29-.46.9-.6,1.36-.31.75.48,1.55.9,2.36,1.26.5.22.72.8.5,1.3-.16.37-.52.59-.91.59Z"/><path class="cls-4" d="M30.55,51.02c-1.26,0-2.51-.12-3.74-.34-.54-.1-.89-.62-.79-1.15.1-.54.62-.89,1.15-.79,4.23.79,8.75.03,12.49-2.11.47-.27,1.08-.11,1.35.36.27.47.11,1.08-.36,1.35-3.06,1.76-6.55,2.68-10.1,2.68Z"/><path class="cls-2" d="M30.56,13.71c10.08,0,18.35,7.72,19.24,17.57.05-.58.09-1.16.09-1.76,0-10.67-8.65-19.33-19.33-19.33S11.23,18.85,11.23,29.53c0,.59.04,1.18.09,1.76.89-9.85,9.16-17.57,19.24-17.57Z"/><path class="cls-6" d="M41.45,23.32l.45-.97c.52-1.12.04-2.44-1.08-2.97l-8.9-4.16c-1.12-.52-2.44-.04-2.97,1.08l-2.11,4.52-4.58-.78c-1.5-.26-2.91.83-3.04,2.35l-1.4,16.47c-.08.97.38,1.9,1.2,2.42l7.56,4.8c.59.37,1.3.5,1.98.34l8.72-2.01c.95-.22,1.69-.95,1.94-1.89l4.14-16c.37-1.43-.52-2.86-1.93-3.19ZM34.49,36.39c-.21,1.04-1.22,1.71-2.26,1.5-1.04-.21-1.71-1.22-1.5-2.26.21-1.04,1.22-1.71,2.26-1.5,1.04.21,1.71,1.22,1.5,2.26ZM38.56,33.3c-.21,1.04-1.22,1.71-2.26,1.5s-1.71-1.22-1.5-2.26c.21-1.04,1.22-1.71,2.26-1.5s1.71,1.22,1.5,2.26Z"/><path class="cls-11" d="M41.36,21.59l.45-.97c.52-1.12.04-2.44-1.08-2.97l-8.9-4.16c-1.12-.52-2.44-.04-2.97,1.08l-2.11,4.52-4.58-.78c-1.5-.26-2.91.83-3.04,2.35l-1.4,16.47c-.08.97.38,1.9,1.2,2.42l7.56,4.8c.59.37,1.3.5,1.98.34l8.72-2.01c.95-.22,1.69-.95,1.94-1.89l4.14-16c.37-1.43-.52-2.86-1.93-3.19ZM29.37,31.56c-.15.74-.87,1.22-1.61,1.07l-1.38-.28-.28,1.38c-.15.74-.87,1.22-1.61,1.07-.74-.15-1.22-.87-1.07-1.61l.28-1.38-1.38-.28c-.74-.15-1.22-.87-1.07-1.61.15-.74.87-1.22,1.61-1.07l1.38.28.28-1.38c.15-.74.87-1.22,1.61-1.07.74.15,1.22.87,1.07,1.61l-.28,1.38,1.38.28c.74.15,1.22.87,1.07,1.61ZM34.4,34.66c-.21,1.04-1.22,1.71-2.26,1.5-1.04-.21-1.71-1.22-1.5-2.26.21-1.04,1.22-1.71,2.26-1.5,1.04.21,1.71,1.22,1.5,2.26ZM38.47,31.57c-.21,1.04-1.22,1.71-2.26,1.5s-1.71-1.22-1.5-2.26c.21-1.04,1.22-1.71,2.26-1.5s1.71,1.22,1.5,2.26Z"/><path class="cls-1" d="M41.41,20.7l.45-.97c.52-1.12.04-2.44-1.08-2.97l-8.9-4.16c-1.12-.52-2.44-.04-2.97,1.08l-2.11,4.52-4.58-.78c-1.5-.26-2.91.83-3.04,2.35l-1.4,16.47c-.08.97.38,1.9,1.2,2.42l7.56,4.8c.59.37,1.3.5,1.98.34l8.72-2.01c.95-.22,1.69-.95,1.94-1.89l4.14-16c.37-1.43-.52-2.86-1.93-3.19ZM29.41,30.68c-.15.74-.87,1.22-1.61,1.07l-1.38-.28-.28,1.38c-.15.74-.87,1.22-1.61,1.07-.74-.15-1.22-.87-1.07-1.61l.28-1.38-1.38-.28c-.74-.15-1.22-.87-1.07-1.61.15-.74.87-1.22,1.61-1.07l1.38.28.28-1.38c.15-.74.87-1.22,1.61-1.07.74.15,1.22.87,1.07,1.61l-.28,1.38,1.38.28c.74.15,1.22.87,1.07,1.61ZM34.45,33.78c-.21,1.04-1.22,1.71-2.26,1.5-1.04-.21-1.71-1.22-1.5-2.26.21-1.04,1.22-1.71,2.26-1.5,1.04.21,1.71,1.22,1.5,2.26ZM38.52,30.68c-.21,1.04-1.22,1.71-2.26,1.5s-1.71-1.22-1.5-2.26c.21-1.04,1.22-1.71,2.26-1.5s1.71,1.22,1.5,2.26Z"/><path class="cls-4" d="M22.44,31.54l1.13.23.17-.83-1.38-.28c-.45-.09-.79-.39-.97-.77,0,.02-.01.03-.01.04-.15.74.33,1.46,1.07,1.61Z"/><path class="cls-4" d="M41.5,21.59c.96.22,1.67.96,1.91,1.85.09-1.11-.55-2.15-1.57-2.59l-.34.74Z"/><path class="cls-4" d="M24.61,34.81c.74.15,1.46-.33,1.61-1.07l.28-1.38,1.38.28c.74.15,1.46-.33,1.61-1.07.06-.3.02-.59-.1-.84-.17.72-.87,1.17-1.6,1.03l-1.38-.28-.28,1.38c-.15.74-.87,1.22-1.61,1.07-.45-.09-.8-.39-.97-.78v.05c-.16.74.32,1.46,1.06,1.61Z"/><path class="cls-4" d="M19.28,20.65c.13-1.52,1.53-2.61,3.04-2.35l4.58.78,2.11-4.52c.52-1.12,1.85-1.6,2.97-1.08l8.9,4.16c.59.28,1,.78,1.18,1.36.09-.92-.38-1.83-1.27-2.24l-8.9-4.16c-1.12-.52-2.44-.04-2.97,1.08l-2.11,4.52-4.58-.78c-1.5-.26-2.91.83-3.04,2.35l-1.4,16.47c-.03.3.02.59.09.87l1.4-16.45Z"/><path class="cls-4" d="M36.35,33.07c1.04.21,2.05-.47,2.26-1.5.07-.35.03-.69-.08-1.01,0,.04,0,.08-.01.12-.21,1.04-1.22,1.71-2.26,1.5-.69-.14-1.21-.63-1.43-1.25-.13.99.52,1.94,1.52,2.14Z"/><path class="cls-4" d="M32.28,36.17c1.04.21,2.05-.46,2.26-1.5.07-.35.03-.69-.08-1.01,0,.04,0,.08-.01.12-.21,1.04-1.22,1.71-2.26,1.5-.69-.14-1.21-.63-1.43-1.25-.13.99.52,1.94,1.52,2.14Z"/><path class="cls-4" d="M26.95,28.79l.26.05.11-.55c.06-.29.02-.58-.1-.83l-.27,1.33Z"/><path d="M30.56,2c.48,0,.96.01,1.43.04,0,0,.02,0,.02,0,.16,0,.32.03.48.04.3.02.61.04.91.07.01,0,.03,0,.04,0,.19.02.39.05.58.07.26.03.52.06.78.1.02,0,.03,0,.05,0,.22.03.43.08.64.12.23.04.46.08.69.13.02,0,.03,0,.05,0,.24.05.47.11.71.16.2.05.39.09.59.14.29.07.57.16.85.24.15.04.3.09.45.13.33.1.66.22.99.33.09.03.18.06.26.09.39.14.78.3,1.17.46,0,0,.02,0,.03.01,10.46,4.4,17.83,15.03,17.83,27.45,0,16.35-12.78,29.61-28.56,29.61S2,47.97,2,31.61c0-12.42,7.38-23.05,17.83-27.45,0,0,0,0,0,0,0,0,.01,0,.02,0,.39-.16.77-.32,1.17-.46.02,0,.04-.02.06-.02.07-.02.14-.05.21-.07.33-.12.66-.23.99-.33.15-.05.3-.09.45-.13.28-.08.56-.17.85-.24.2-.05.39-.09.59-.14.25-.06.5-.12.75-.17.03,0,.06-.01.09-.02.2-.04.41-.07.61-.11.23-.04.45-.09.68-.12.26-.04.53-.07.79-.1.2-.03.4-.06.61-.08.02,0,.03,0,.05,0,.29-.03.58-.05.87-.07.17-.01.33-.03.5-.04.48-.02.96-.04,1.44-.04M30.56,0c-.5,0-1.02.01-1.55.04-.12,0-.24.02-.36.03h-.17s-.19.03-.19.03c-.25.02-.5.03-.75.06-.02,0-.05,0-.08,0-.15.02-.29.03-.43.05l-.19.03-.17.02c-.23.03-.45.06-.68.09-.18.03-.36.06-.54.09l-.19.03-.2.03c-.15.03-.3.05-.45.08-.02,0-.09.02-.12.03-.19.04-.41.09-.62.14l-.15.04-.17.04c-.16.04-.31.07-.47.11-.29.08-.57.16-.86.24,0,0-.05.01-.05.01l-.14.04c-.11.03-.23.07-.34.1-.35.11-.71.23-1.06.36-.11.03-.16.05-.22.08-.02,0-.07.03-.09.04-.38.14-.79.3-1.2.47-.02,0-.03.01-.04.02-.01,0-.02,0-.03.01C7.47,7.21,0,18.7,0,31.61c0,17.43,13.71,31.61,30.56,31.61s30.56-14.18,30.56-31.61c0-12.92-7.48-24.42-19.06-29.29-.01,0-.04-.02-.05-.02-.4-.17-.81-.33-1.24-.49l-.19-.07-.09-.03c-.35-.13-.7-.25-1.06-.36-.11-.03-.22-.07-.33-.1l-.14-.04c-.33-.1-.62-.18-.91-.26-.15-.04-.31-.08-.46-.11l-.17-.04-.19-.04c-.19-.05-.38-.09-.57-.13-.02,0-.06-.01-.08-.02-.16-.03-.34-.07-.53-.1l-.18-.03-.2-.04c-.16-.03-.32-.06-.49-.09-.01,0-.05,0-.06,0-.21-.03-.43-.06-.64-.09l-.18-.02-.19-.03c-.14-.02-.28-.04-.43-.05,0,0-.04,0-.05,0-.27-.03-.55-.05-.83-.07h-.14s-.17-.02-.17-.02c-.12-.01-.23-.02-.35-.03-.54-.03-1.06-.04-1.56-.04h0Z"/><path class="cls-3" d="M41.77,17.7l-23.95,18.07,1.36-16c.13-1.52,1.54-2.61,3.04-2.35l4.58.78,2.11-4.51c.52-1.12,1.85-1.6,2.97-1.08l8.9,4.16c.44.21.78.53.99.93Z"/><path class="cls-3" d="M33.29,42.69l7.04-7.19-1.14,4.39c-.24.94-.99,1.67-1.94,1.89l-3.96.91Z"/><path class="cls-3" d="M43.33,23.89l-.86,3.34-17.3,15.35-3.09-1.95,20.84-18.9c.44.6.61,1.38.41,2.16Z"/></g></svg>