<?xml version="1.0" encoding="UTF-8"?><svg id="Layer_2" xmlns="http://www.w3.org/2000/svg" viewBox="0 0 71 71"><defs><style>.cls-1{fill:#c9d6e2;}.cls-1,.cls-2,.cls-3,.cls-4,.cls-5{stroke-width:0px;}.cls-2{fill:#000;}.cls-3{fill:#ffb000;}.cls-6{opacity:.6;}.cls-7{opacity:.5;}.cls-4{fill:#fff;}.cls-5{fill:#ffda00;}</style></defs><g id="Layer_2-2"><g class="cls-7"><circle class="cls-2" cx="35.5" cy="35.5" r="35.5"/></g><g class="cls-6"><path class="cls-2" d="M66.73,21.44c-.69-1.64-1.85-3.04-3.31-4.02-1.46-.99-3.22-1.56-5.11-1.56h-1.09v-3.48c0-1.4-1.15-2.54-2.54-2.54h-.6c-1.4,0-2.54,1.15-2.54,2.54v3.48h-13.66v-3.48c0-1.4-1.15-2.54-2.54-2.54h-.6c-1.4,0-2.54,1.15-2.54,2.54v3.48h-13.66v-3.48c0-1.4-1.15-2.54-2.54-2.54h-.6c-1.4,0-2.54,1.15-2.54,2.54v3.48h-1.09c-1.89,0-3.65.58-5.11,1.56-1.46.99-2.62,2.38-3.31,4.02-.46,1.09-.72,2.3-.72,3.56v31.44c0,1.26.26,2.47.72,3.56.69,1.64,1.85,3.04,3.31,4.02,1.46.99,3.22,1.56,5.11,1.56h46.57c1.89,0,3.65-.58,5.11-1.56,1.46-.99,2.62-2.38,3.31-4.02.46-1.09.72-2.3.72-3.56v-31.44c0-1.26-.26-2.47-.72-3.56Z"/></g><path class="cls-2" d="M54.67,3c1.4,0,2.54,1.15,2.54,2.54v3.48h1.09c5.05,0,9.15,4.1,9.15,9.15v31.44c0,5.05-4.1,9.15-9.15,9.15H11.73c-5.05,0-9.15-4.1-9.15-9.15v-31.44c0-5.05,4.1-9.15,9.15-9.15h1.09v-3.48c0-1.4,1.15-2.54,2.54-2.54h.6c1.4,0,2.54,1.15,2.54,2.54v3.48h13.66v-3.48c0-1.4,1.15-2.54,2.54-2.54h.6c1.4,0,2.54,1.15,2.54,2.54v3.48h13.66v-3.48c0-1.4,1.15-2.54,2.54-2.54h.6M54.67.72h-.6c-2.66,0-4.82,2.16-4.82,4.82v1.2h-9.1v-1.2c0-2.66-2.16-4.82-4.82-4.82h-.6c-2.66,0-4.82,2.16-4.82,4.82v1.2h-9.1v-1.2c0-2.66-2.16-4.82-4.82-4.82h-.6c-2.66,0-4.82,2.16-4.82,4.82v1.26C4.81,7.4.31,12.27.31,18.17v31.44c0,6.3,5.12,11.42,11.42,11.42h46.57c6.3,0,11.42-5.12,11.42-11.42v-31.44c0-5.9-4.5-10.77-10.24-11.36v-1.26c0-2.66-2.16-4.82-4.82-4.82h0Z"/><rect class="cls-1" x="2.59" y="14" width="64.87" height="44.77" rx="9.15" ry="9.15"/><rect class="cls-4" x="2.59" y="9.02" width="64.87" height="44.77" rx="9.15" ry="9.15"/><rect class="cls-1" x="38.53" y="16.93" width="22.09" height="7.12" rx="2.13" ry="2.13"/><rect class="cls-1" x="38.53" y="28.01" width="22.09" height="7.12" rx="2.13" ry="2.13"/><rect class="cls-1" x="38.53" y="39.39" width="22.09" height="7.12" rx="2.13" ry="2.13"/><rect class="cls-3" x="12.83" y="3" width="5.69" height="11.38" rx="2.85" ry="2.85"/><rect class="cls-5" x="12.83" y="3" width="5.69" height="9.1" rx="2.54" ry="2.54"/><rect class="cls-3" x="32.17" y="3" width="5.69" height="11.38" rx="2.85" ry="2.85"/><rect class="cls-5" x="32.17" y="3" width="5.69" height="9.1" rx="2.54" ry="2.54"/><rect class="cls-3" x="51.52" y="3" width="5.69" height="11.38" rx="2.85" ry="2.85"/><rect class="cls-5" x="51.52" y="3" width="5.69" height="9.1" rx="2.54" ry="2.54"/><path class="cls-3" d="M21.29,25.1l1.5,1.85c.32.39.74.69,1.21.88l2.22.86c1.24.48,1.73,1.98,1.01,3.1l-1.29,2c-.27.42-.43.91-.46,1.42l-.13,2.38c-.07,1.33-1.35,2.26-2.64,1.92l-2.3-.61c-.49-.13-1-.13-1.49,0l-2.3.61c-1.29.34-2.56-.59-2.64-1.92l-.13-2.38c-.03-.51-.19-.99-.46-1.42l-1.29-2c-.72-1.12-.24-2.62,1.01-3.1l2.22-.86c.47-.18.89-.48,1.21-.88l1.5-1.85c.84-1.03,2.42-1.03,3.26,0Z"/><path class="cls-3" d="M32.72,30.86c.4-.26.59-.67.59-1.08,0-.56-.36-1.12-1.01-1.27-.63-.14-1.01-.7-1.01-1.27,0-.27.08-.54.26-.78.66-.87.01-2.08-1.02-2.08-.05,0-.11,0-.17,0-.79.1-1.46-.53-1.46-1.28,0-.13.02-.25.06-.39.27-.89-.43-1.69-1.24-1.69-.19,0-.39.05-.59.15-.19.1-.4.15-.59.15-.66,0-1.26-.51-1.29-1.24-.04-.75-.66-1.23-1.3-1.23-.33,0-.68.13-.94.42-.64.69-1.78.49-2.14-.38-.23-.53-.71-.79-1.2-.79s-.97.26-1.19.79c-.22.51-.71.79-1.2.79-.34,0-.69-.13-.95-.41-.26-.28-.61-.42-.94-.42-.64,0-1.26.48-1.3,1.23-.04.73-.64,1.24-1.29,1.24-.2,0-.4-.05-.59-.15-.9-.46-1.89.23-1.89,1.15,0,.13.02.26.06.39.26.84-.38,1.68-1.24,1.68-.05,0-.11,0-.16,0-.83-.1-1.46.56-1.46,1.29,0,.26.08.53.26.77.18.24.26.51.26.78,0,.57-.38,1.12-1.01,1.27-.65.15-1.01.71-1.01,1.27,0,.41.19.82.59,1.08.39.26.59.67.59,1.09s-.2.83-.59,1.09c-.4.26-.59.67-.59,1.08,0,.56.36,1.12,1.01,1.27.63.14,1.01.7,1.01,1.27,0,.27-.08.54-.26.78-.66.87,0,2.08,1.02,2.08.05,0,.11,0,.17,0,.8-.1,1.46.53,1.46,1.28,0,.12-.02.26-.06.38-.27.88.42,1.68,1.24,1.68.2,0,.4-.05.59-.15.19-.1.39-.14.59-.14.66,0,1.26.51,1.3,1.23.04.76.66,1.24,1.3,1.24.33,0,.67-.13.94-.42.26-.28.61-.42.95-.42.5,0,.99.28,1.2.79.22.53.71.79,1.19.79s.97-.26,1.2-.79c.22-.51.71-.79,1.2-.79.34,0,.69.13.95.42.26.28.6.42.94.42.65,0,1.27-.48,1.31-1.24.04-.73.64-1.23,1.3-1.23.2,0,.4.04.59.14.9.46,1.89-.23,1.89-1.15,0-.12-.02-.25-.06-.39-.26-.85.38-1.68,1.23-1.68.05,0,.11,0,.17,0,.83.1,1.46-.57,1.46-1.29,0-.26-.08-.53-.26-.77s-.26-.51-.26-.78c0-.57.38-1.13,1.01-1.27.65-.15,1.01-.71,1.01-1.27,0-.41-.19-.82-.59-1.08-.39-.25-.59-.68-.59-1.09s.2-.83.59-1.09ZM19.67,42.08c-5.6,0-10.14-4.54-10.14-10.14,0-.81.09-1.6.27-2.35.92-3.84,4.01-6.84,7.91-7.6.64-.12,1.28-.19,1.96-.19.48,0,.95.03,1.41.1,4.12.57,7.45,3.62,8.43,7.6.2.78.3,1.6.3,2.44,0,5.6-4.54,10.14-10.14,10.14Z"/><rect class="cls-1" x="2.59" y="14" width="64.87" height="44.77" rx="9.15" ry="9.15"/><rect class="cls-4" x="2.59" y="9.02" width="64.87" height="44.77" rx="9.15" ry="9.15"/><rect class="cls-1" x="38.53" y="16.93" width="22.09" height="7.12" rx="2.13" ry="2.13"/><rect class="cls-1" x="38.53" y="28.01" width="22.09" height="7.12" rx="2.13" ry="2.13"/><rect class="cls-1" x="38.53" y="39.39" width="22.09" height="7.12" rx="2.13" ry="2.13"/><rect class="cls-3" x="12.83" y="3" width="5.69" height="11.38" rx="2.85" ry="2.85"/><rect class="cls-5" x="12.83" y="3" width="5.69" height="9.1" rx="2.54" ry="2.54"/><rect class="cls-3" x="32.17" y="3" width="5.69" height="11.38" rx="2.85" ry="2.85"/><rect class="cls-5" x="32.17" y="3" width="5.69" height="9.1" rx="2.54" ry="2.54"/><rect class="cls-3" x="51.52" y="3" width="5.69" height="11.38" rx="2.85" ry="2.85"/><rect class="cls-5" x="51.52" y="3" width="5.69" height="9.1" rx="2.54" ry="2.54"/><path class="cls-3" d="M21.29,25.1l1.5,1.85c.32.39.74.69,1.21.88l2.22.86c1.24.48,1.73,1.98,1.01,3.1l-1.29,2c-.27.42-.43.91-.46,1.42l-.13,2.38c-.07,1.33-1.35,2.26-2.64,1.92l-2.3-.61c-.49-.13-1-.13-1.49,0l-2.3.61c-1.29.34-2.56-.59-2.64-1.92l-.13-2.38c-.03-.51-.19-.99-.46-1.42l-1.29-2c-.72-1.12-.24-2.62,1.01-3.1l2.22-.86c.47-.18.89-.48,1.21-.88l1.5-1.85c.84-1.03,2.42-1.03,3.26,0Z"/><path class="cls-3" d="M32.72,30.86c.4-.26.59-.67.59-1.08,0-.56-.36-1.12-1.01-1.27-.63-.14-1.01-.7-1.01-1.27,0-.27.08-.54.26-.78.66-.87.01-2.08-1.02-2.08-.05,0-.11,0-.17,0-.79.1-1.46-.53-1.46-1.28,0-.13.02-.25.06-.39.27-.89-.43-1.69-1.24-1.69-.19,0-.39.05-.59.15-.19.1-.4.15-.59.15-.66,0-1.26-.51-1.29-1.24-.04-.75-.66-1.23-1.3-1.23-.33,0-.68.13-.94.42-.64.69-1.78.49-2.14-.38-.23-.53-.71-.79-1.2-.79s-.97.26-1.19.79c-.22.51-.71.79-1.2.79-.34,0-.69-.13-.95-.41-.26-.28-.61-.42-.94-.42-.64,0-1.26.48-1.3,1.23-.04.73-.64,1.24-1.29,1.24-.2,0-.4-.05-.59-.15-.9-.46-1.89.23-1.89,1.15,0,.13.02.26.06.39.26.84-.38,1.68-1.24,1.68-.05,0-.11,0-.16,0-.83-.1-1.46.56-1.46,1.29,0,.26.08.53.26.77.18.24.26.51.26.78,0,.57-.38,1.12-1.01,1.27-.65.15-1.01.71-1.01,1.27,0,.41.19.82.59,1.08.39.26.59.67.59,1.09s-.2.83-.59,1.09c-.4.26-.59.67-.59,1.08,0,.56.36,1.12,1.01,1.27.63.14,1.01.7,1.01,1.27,0,.27-.08.54-.26.78-.66.87,0,2.08,1.02,2.08.05,0,.11,0,.17,0,.8-.1,1.46.53,1.46,1.28,0,.12-.02.26-.06.38-.27.88.42,1.68,1.24,1.68.2,0,.4-.05.59-.15.19-.1.39-.14.59-.14.66,0,1.26.51,1.3,1.23.04.76.66,1.24,1.3,1.24.33,0,.67-.13.94-.42.26-.28.61-.42.95-.42.5,0,.99.28,1.2.79.22.53.71.79,1.19.79s.97-.26,1.2-.79c.22-.51.71-.79,1.2-.79.34,0,.69.13.95.42.26.28.6.42.94.42.65,0,1.27-.48,1.31-1.24.04-.73.64-1.23,1.3-1.23.2,0,.4.04.59.14.9.46,1.89-.23,1.89-1.15,0-.12-.02-.25-.06-.39-.26-.85.38-1.68,1.23-1.68.05,0,.11,0,.17,0,.83.1,1.46-.57,1.46-1.29,0-.26-.08-.53-.26-.77s-.26-.51-.26-.78c0-.57.38-1.13,1.01-1.27.65-.15,1.01-.71,1.01-1.27,0-.41-.19-.82-.59-1.08-.39-.25-.59-.68-.59-1.09s.2-.83.59-1.09ZM19.67,42.08c-5.6,0-10.14-4.54-10.14-10.14,0-.81.09-1.6.27-2.35.92-3.84,4.01-6.84,7.91-7.6.64-.12,1.28-.19,1.96-.19.48,0,.95.03,1.41.1,4.12.57,7.45,3.62,8.43,7.6.2.78.3,1.6.3,2.44,0,5.6-4.54,10.14-10.14,10.14Z"/></g></svg>