<?xml version="1.0" encoding="UTF-8"?><svg id="Layer_2" xmlns="http://www.w3.org/2000/svg" viewBox="0 0 210.67 39.55"><defs><style>.cls-1{fill:#00f726;}.cls-2{fill:#007f63;}.cls-3{fill:#00a185;}</style></defs><g id="Layer_1-2"><path class="cls-1" d="M38.91,23.8c-.54-1.36-1.58-2.43-2.93-3.01-1.59-.68-3.43-.57-4.92.3-.22.13-.42.26-.62.42.16-.93.19-1.86.1-2.79l-3.66,2.12c-2.14,1.25-4.89.51-6.13-1.63s-.52-4.89,1.63-6.13l8.37-4.86c2.14-1.25,4.89-.52,6.13,1.63,2.52,4.35,3.27,9.5,2.17,14.34-.04-.13-.08-.26-.14-.39Z"/><path class="cls-3" d="M35.59,21.71c2.28.98,3.33,3.62,2.35,5.9-.02.06-.05.12-.08.17-1.69,3.84-4.51,6.99-8.15,9.1-9.43,5.48-21.56,2.26-27.03-7.17S.41,8.16,9.84,2.68C13.65.47,17.97-.4,22.33.17c2.46.32,4.19,2.57,3.87,5.03-.19,1.44-1.04,2.62-2.2,3.3-.82.48-1.81.7-2.83.56-2.38-.31-4.74.16-6.82,1.37-5.15,2.99-6.91,9.62-3.92,14.77,2.99,5.15,9.62,6.91,14.77,3.91,2.02-1.17,3.57-2.93,4.49-5.06.4-.92,1.06-1.64,1.86-2.1,1.19-.69,2.67-.83,4.03-.25Z"/><path class="cls-2" d="M140.48,15.06c-.18-.04-.36-.07-.54-.07-.19,0-.34-.01-.46-.04s-.21-.09-.27-.18c-.07-.09-.11-.21-.13-.36-.02-.15-.03-.35-.03-.58V3.86c0-.29-.03-.56-.09-.81-.06-.25-.2-.45-.43-.61-.23-.16-.6-.24-1.13-.24s-.91.08-1.14.24c-.23.16-.38.37-.43.61s-.08.52-.08.81v10.13c0,.72.05,1.32.14,1.81.09.49.24.89.45,1.2.2.31.47.55.8.72.33.18.72.3,1.18.36s.99.1,1.59.1c.19,0,.38-.02.56-.07.18-.04.34-.18.47-.42.13-.23.2-.61.2-1.14s-.07-.88-.2-1.1c-.13-.22-.29-.35-.47-.39Z"/><path class="cls-2" d="M145.36,2.48c-.23-.16-.62-.24-1.16-.24s-.95.08-1.18.23c-.23.15-.38.36-.44.61s-.09.54-.09.84.03.57.08.83c.05.26.19.48.43.64s.63.24,1.18.24.95-.08,1.18-.23c.23-.15.38-.36.43-.62.05-.26.08-.54.08-.83s-.03-.57-.08-.83c-.05-.26-.19-.48-.43-.64Z"/><path class="cls-2" d="M145.32,7.48c-.23-.16-.6-.24-1.13-.24s-.93.08-1.16.23c-.23.15-.38.35-.43.6s-.08.52-.08.81v7.65c0,.28.03.55.08.8.05.26.19.46.42.61.23.15.61.23,1.15.23s.92-.07,1.15-.22c.23-.15.36-.35.42-.6s.08-.52.08-.8v-7.63c0-.31-.03-.58-.08-.83s-.19-.45-.42-.61Z"/><path class="cls-2" d="M161.9,7.84c-.59-.43-1.31-.65-2.16-.65-.5,0-.95.1-1.35.28-.4.19-.75.42-1.04.7-.29.28-.54.56-.75.86-.23-.41-.51-.75-.82-1.02-.31-.27-.67-.48-1.05-.61-.39-.14-.82-.21-1.3-.21-.37,0-.71.07-1.02.21-.32.14-.59.3-.82.49-.23.19-.41.36-.56.54-.02-.4-.14-.71-.36-.9-.25-.21-.64-.32-1.18-.32s-.93.08-1.16.23c-.23.15-.38.35-.43.59-.05.24-.08.51-.08.8v7.68c0,.29.02.56.07.81s.18.45.42.61c.23.16.61.24,1.14.24s.93-.08,1.16-.23.38-.35.43-.6c.05-.25.08-.52.08-.81v-3.95c0-.39.05-.75.16-1.06.11-.31.28-.57.52-.76.23-.19.53-.29.9-.29.34,0,.61.08.81.24.2.16.36.4.46.71s.15.7.15,1.15v3.93c0,.26.02.52.07.78.04.26.18.46.39.62s.59.25,1.12.26.91-.05,1.15-.21c.24-.15.4-.36.47-.61.07-.26.11-.53.11-.82v-3.93c0-.48.06-.88.18-1.2.12-.31.29-.55.53-.7.23-.15.52-.23.86-.23s.59.08.8.25c.21.17.37.41.47.71.1.31.15.69.15,1.14v3.93c0,.28.03.55.08.8.05.26.19.46.42.62.23.16.61.24,1.15.24s.93-.08,1.16-.23c.23-.15.38-.36.43-.61.05-.26.08-.52.08-.8v-3.93c0-1.14-.15-2.11-.46-2.92-.31-.8-.76-1.42-1.35-1.85Z"/><path class="cls-2" d="M175.66,7.45c-.23-.16-.6-.24-1.13-.24-.56,0-.96.09-1.22.27-.26.18-.38.45-.36.8l.18.31c-.13-.19-.33-.39-.58-.59-.26-.2-.57-.38-.95-.54-.38-.15-.84-.23-1.38-.23-.67,0-1.31.15-1.91.44-.6.29-1.14.69-1.61,1.2-.48.5-.85,1.08-1.12,1.73-.27.65-.41,1.33-.41,2.05s.14,1.43.41,2.08c.27.66.64,1.25,1.11,1.77.47.52,1.01.93,1.61,1.22s1.25.44,1.92.44c.58,0,1.07-.08,1.47-.25s.72-.36.97-.57c.25-.21.42-.39.5-.54l-.22.37c0,.28.13.51.38.7.26.19.65.29,1.2.29s.92-.08,1.15-.23c.23-.15.37-.36.42-.63s.08-.53.08-.81v-7.57c0-.29-.03-.57-.08-.83s-.19-.48-.42-.64ZM172.48,13.79c-.18.34-.43.6-.75.8-.32.2-.66.3-1.04.3-.42,0-.81-.1-1.15-.3-.34-.2-.61-.46-.81-.79s-.3-.69-.3-1.09c0-.42.1-.8.3-1.14s.46-.61.79-.81c.33-.2.71-.31,1.13-.31.38,0,.73.1,1.05.3.32.2.58.46.77.79.19.33.29.71.29,1.13s-.09.78-.27,1.12Z"/><path class="cls-2" d="M184.92,7.38c-.25-.05-.51-.08-.79-.08l-1.47.04v-2.13c0-.29-.03-.56-.08-.81-.05-.25-.19-.45-.43-.61-.23-.16-.61-.24-1.14-.24s-.91.08-1.14.23c-.23.15-.38.35-.43.58-.05.23-.08.5-.08.79v2.24h-.68c-.41,0-.72.13-.92.38-.21.26-.31.65-.31,1.17,0,.57.08.98.25,1.22.17.24.46.37.89.38h.77v3.51c0,.72.08,1.33.25,1.85.17.52.43.95.78,1.28s.79.58,1.33.75c.53.16,1.17.24,1.92.24.28,0,.54-.02.8-.07.26-.04.46-.18.62-.42.16-.23.24-.61.24-1.14,0-.48-.07-.83-.21-1.03-.14-.2-.33-.34-.58-.39-.25-.06-.53-.09-.86-.09-.19,0-.35-.01-.48-.04-.13-.03-.23-.08-.31-.15-.07-.07-.13-.19-.16-.34-.04-.15-.06-.35-.06-.58v-3.35l1.47.03c.29,0,.56-.03.81-.1s.45-.22.6-.45c.15-.23.23-.6.23-1.1,0-.54-.08-.93-.24-1.16-.16-.23-.37-.38-.61-.43Z"/><path class="cls-2" d="M196.72,15.63c-.15-.28-.31-.49-.49-.62-.18-.14-.38-.2-.6-.19-.12.01-.24.04-.36.09-.12.04-.27.1-.43.16-.16.07-.34.13-.53.2s-.42.12-.68.15c-.26.04-.57.06-.92.06-.41,0-.8-.07-1.16-.22-.37-.15-.67-.35-.91-.61-.24-.26-.38-.58-.41-.96h5.22c.6,0,1.09-.19,1.48-.58.39-.39.58-.98.58-1.79,0-.45-.1-.93-.3-1.43-.2-.5-.5-.96-.9-1.39-.4-.43-.91-.78-1.54-1.05-.62-.27-1.36-.41-2.2-.41-1.14,0-2.15.25-3.03.73-.88.49-1.56,1.16-2.06,2.01-.5.85-.75,1.82-.75,2.92,0,.67.11,1.35.34,2.02.23.67.57,1.28,1.04,1.83.47.55,1.07.99,1.81,1.33s1.62.5,2.64.5c.92,0,1.71-.08,2.36-.24.65-.16,1.16-.38,1.51-.66.36-.28.54-.59.54-.94,0-.15-.02-.29-.05-.44-.04-.15-.11-.3-.21-.46ZM190.53,10.94c.2-.29.47-.53.82-.7.35-.18.75-.26,1.21-.26.35,0,.66.06.93.16.27.11.49.26.65.46.16.2.24.43.24.69,0,.23-.05.39-.16.47-.11.08-.28.12-.52.12h-3.47c0-.34.1-.65.3-.94Z"/><path class="cls-2" d="M60.1,13.62c-.13-.58-.48-1.08-.99-1.4-.6-.38-1.34-.45-2-.19-.09.04-.19.08-.27.13.12-.36.19-.74.22-1.12l-1.61.62c-.94.37-2-.1-2.37-1.04-.37-.94.1-2,1.04-2.37l3.68-1.43c.94-.37,2,.1,2.37,1.04.74,1.91.71,4.03-.04,5.91,0-.06-.02-.11-.03-.16Z"/><path class="cls-2" d="M58.9,12.57c.85.54,1.11,1.67.57,2.52-.01.02-.03.04-.04.06-.93,1.44-2.26,2.53-3.86,3.15-4.15,1.61-8.83-.46-10.43-4.61s.46-8.83,4.61-10.43c1.67-.65,3.47-.72,5.19-.22.97.29,1.52,1.3,1.24,2.27-.17.57-.58.99-1.1,1.19-.36.14-.77.17-1.18.05-.94-.28-1.92-.24-2.83.12-2.26.88-3.39,3.43-2.52,5.7s3.43,3.39,5.7,2.52c.89-.34,1.63-.95,2.13-1.75.22-.34.53-.59.88-.73.52-.2,1.13-.16,1.64.16Z"/><path class="cls-2" d="M133.47,11.97c.85.54,1.11,1.67.57,2.52-.01.02-.03.04-.04.06-.93,1.44-2.26,2.53-3.86,3.15-4.15,1.61-8.83-.46-10.43-4.61s.46-8.83,4.61-10.43c1.67-.65,3.47-.72,5.19-.22.97.29,1.52,1.3,1.24,2.27-.17.57-.58.99-1.1,1.19-.36.14-.77.17-1.18.05-.94-.28-1.92-.24-2.83.12-2.26.88-3.39,3.43-2.52,5.7.88,2.26,3.43,3.39,5.7,2.52.89-.34,1.63-.95,2.13-1.75.22-.34.53-.59.88-.73.52-.2,1.13-.16,1.64.16Z"/><path class="cls-2" d="M48.02,35.48c-.4,0-.69-.06-.86-.17s-.29-.27-.33-.47c-.04-.2-.07-.4-.07-.61v-9.09c0-.22.02-.43.06-.61.04-.19.15-.34.32-.47.18-.12.47-.18.88-.18s.72.06.89.18c.17.12.28.28.32.47.04.19.06.39.06.61v8.16h4.55c.19,0,.37.02.53.05.17.03.3.13.41.28s.16.41.16.76-.06.6-.17.76-.25.26-.41.29-.33.05-.52.05h-5.82Z"/><path class="cls-2" d="M58.22,23.59c-.18-.12-.47-.18-.88-.18s-.72.06-.9.17c-.18.12-.29.27-.33.47s-.07.41-.07.64.02.43.06.63c.04.2.15.36.32.48s.48.18.9.18.72-.06.9-.17c.18-.12.29-.27.32-.47.04-.2.06-.41.06-.63s-.02-.43-.06-.63c-.04-.2-.15-.36-.32-.48Z"/><path class="cls-2" d="M58.2,27.38c-.17-.12-.46-.18-.86-.18s-.7.06-.88.17c-.18.12-.29.27-.32.46s-.06.39-.06.61v5.8c0,.21.02.41.06.61.04.19.14.35.32.47.17.12.46.17.87.17s.7-.06.87-.17c.17-.11.28-.26.32-.46s.06-.4.06-.61v-5.78c0-.23-.02-.44-.06-.63s-.14-.34-.32-.47Z"/><path class="cls-2" d="M65.33,27.3c-.19-.04-.39-.06-.6-.06l-1.11.03v-1.61c0-.22-.02-.43-.06-.61-.04-.19-.15-.34-.32-.47-.18-.12-.47-.18-.86-.18s-.69.06-.86.17c-.18.12-.29.26-.32.44-.04.18-.06.38-.06.6v1.69h-.52c-.31,0-.54.1-.7.29-.16.19-.23.49-.23.89,0,.43.06.74.19.92.13.18.35.28.67.29h.58v2.66c0,.54.06,1.01.19,1.4.13.39.32.72.59.97s.6.44,1,.56c.4.12.89.18,1.45.18.21,0,.41-.02.61-.05.19-.03.35-.14.47-.32.12-.18.18-.47.18-.86,0-.37-.05-.63-.16-.78-.11-.15-.25-.25-.44-.3-.19-.04-.4-.07-.65-.07-.14,0-.27-.01-.37-.03-.1-.02-.18-.06-.23-.12-.06-.06-.1-.14-.12-.26-.03-.12-.04-.26-.04-.44v-2.53l1.11.03c.22,0,.43-.02.61-.07s.34-.16.46-.34c.12-.18.17-.45.17-.83,0-.41-.06-.7-.18-.88-.12-.18-.28-.28-.47-.32Z"/><path class="cls-2" d="M74.43,31.64c.29-.29.44-.74.44-1.35,0-.34-.07-.7-.22-1.08-.15-.38-.38-.73-.68-1.06-.3-.33-.69-.59-1.16-.8-.47-.2-1.03-.31-1.67-.31-.86,0-1.63.19-2.29.56-.66.37-1.19.88-1.56,1.52-.38.64-.57,1.38-.57,2.21,0,.51.09,1.02.26,1.53.17.51.43.97.79,1.39.35.42.81.75,1.37,1.01s1.23.38,2,.38c.7,0,1.29-.06,1.79-.18.49-.12.88-.29,1.15-.5.27-.21.41-.45.41-.71,0-.11-.01-.22-.04-.33-.03-.11-.08-.23-.16-.35-.11-.21-.24-.37-.37-.47-.14-.11-.29-.15-.46-.14-.09.01-.18.03-.27.07-.09.03-.2.07-.32.12-.12.05-.25.1-.4.15s-.32.09-.52.12c-.2.03-.43.04-.7.04-.31,0-.6-.06-.88-.17-.28-.11-.51-.27-.69-.47-.18-.2-.29-.44-.31-.73h3.95c.45,0,.83-.15,1.12-.44ZM72.37,30.62c-.08.06-.21.09-.39.09h-2.63c0-.25.07-.49.22-.71s.36-.4.62-.53c.27-.13.57-.2.91-.2.27,0,.5.04.71.12.21.08.37.2.49.35.12.15.18.32.18.52,0,.18-.04.3-.12.36Z"/><path class="cls-2" d="M81.62,27.42c-.13-.08-.28-.15-.44-.2s-.32-.08-.47-.1c-.15-.02-.29-.02-.41-.02-.31,0-.58.04-.82.13-.24.09-.44.2-.61.32-.17.13-.3.25-.39.37,0,0,0,0,0,0-.01-.07-.01-.13-.04-.22-.04-.14-.15-.26-.32-.37-.17-.11-.45-.16-.84-.16-.41,0-.7.06-.87.17-.17.12-.28.27-.32.46-.04.19-.07.39-.07.61v5.8c0,.21.02.42.06.61s.14.36.32.47c.17.12.46.17.87.17s.7-.06.88-.17c.18-.11.28-.26.32-.46.04-.19.06-.4.06-.61v-3.66c0-.17.04-.32.11-.46s.17-.25.3-.35c.13-.09.27-.16.42-.21.15-.04.31-.07.47-.07.18,0,.3.01.37.04.07.03.12.06.17.09.05.03.11.07.19.1.08.03.21.05.4.05.32,0,.59-.16.8-.47.21-.32.32-.7.32-1.15,0-.18-.04-.33-.12-.45-.08-.12-.19-.22-.32-.31Z"/><path class="cls-2" d="M90.78,27.36c-.17-.12-.46-.18-.86-.18-.42,0-.73.07-.92.21-.19.14-.29.34-.27.61l.13.23c-.1-.14-.25-.29-.44-.45-.19-.15-.44-.29-.72-.41-.29-.12-.64-.17-1.05-.17-.51,0-.99.11-1.45.33-.45.22-.86.52-1.22.91-.36.38-.64.82-.85,1.31-.21.49-.31,1.01-.31,1.55s.1,1.08.31,1.58c.2.5.48.94.84,1.34.35.39.76.7,1.22.92s.94.33,1.45.33c.44,0,.81-.06,1.11-.19s.54-.27.73-.43c.19-.16.32-.3.38-.41l-.17.28c0,.21.1.39.29.53.19.14.5.22.91.22s.7-.06.87-.17c.17-.12.28-.27.32-.47s.06-.4.06-.61v-5.73c0-.22-.02-.43-.06-.63s-.14-.36-.32-.48ZM88.37,32.16c-.14.25-.33.46-.57.61-.24.15-.5.22-.79.22-.32,0-.61-.07-.87-.22-.26-.15-.47-.35-.61-.6s-.22-.52-.22-.82c0-.32.07-.61.22-.86s.35-.46.6-.61c.25-.16.53-.23.86-.23.29,0,.55.07.8.22.24.15.44.35.58.6.14.25.22.53.22.86s-.07.59-.21.85Z"/><path class="cls-2" d="M98.93,32.49c-.17-.12-.33-.17-.48-.17-.13,0-.26.04-.38.11-.12.07-.25.15-.38.24-.06.03-.13.08-.23.14-.1.06-.22.11-.36.16-.14.04-.3.07-.49.07-.31,0-.59-.07-.84-.22s-.45-.35-.6-.61c-.15-.25-.22-.54-.22-.86s.07-.63.22-.88c.15-.25.35-.45.61-.6.25-.14.54-.22.86-.22.19,0,.35.03.5.08.14.06.28.12.41.21.13.08.26.16.4.24.14.08.29.13.46.17.33.04.66-.17,1-.63.1-.13.18-.26.25-.39.07-.13.1-.25.12-.37.01-.23-.06-.42-.2-.57-.14-.14-.31-.29-.5-.43-.1-.1-.26-.22-.49-.35-.23-.13-.5-.25-.83-.34-.33-.09-.7-.14-1.11-.14-.48,0-.97.09-1.47.27-.5.18-.97.45-1.39.81-.42.35-.76.79-1.01,1.31-.25.52-.38,1.12-.38,1.81s.13,1.29.38,1.82c.25.53.6.97,1.02,1.33.43.36.89.63,1.4.81.5.18,1,.27,1.49.27.41,0,.78-.05,1.1-.15s.6-.21.83-.33c.23-.12.38-.22.47-.3.25-.17.44-.34.57-.51.12-.18.17-.37.14-.57-.03-.2-.13-.42-.31-.65-.2-.25-.38-.44-.55-.56Z"/><path class="cls-2" d="M109.37,27.91c-.07-.23-.33-.45-.77-.66-.45-.18-.79-.22-1.02-.14s-.43.34-.62.77l-1.55,3.47-2.37-3.63c-.24-.38-.48-.6-.72-.66-.24-.06-.57.04-1.01.31-.39.25-.61.5-.66.75-.05.24.05.55.29.91l3.27,4.98-1.43,3.19c-.19.41-.25.74-.17.98.07.24.33.47.79.66.45.2.79.25,1.01.17.22-.09.43-.35.61-.78l4.19-9.39c.18-.39.23-.7.16-.93Z"/><path class="cls-2" d="M125.93,31.34c.65.41.84,1.26.43,1.91-.01.02-.02.03-.03.05-.7,1.09-1.71,1.92-2.93,2.39-3.14,1.22-6.69-.35-7.9-3.49s.35-6.69,3.49-7.9c1.27-.49,2.63-.55,3.93-.16.73.22,1.15.99.94,1.72-.13.43-.44.75-.83.9-.27.11-.59.13-.89.04-.71-.21-1.45-.18-2.15.09-1.72.66-2.57,2.6-1.91,4.32s2.6,2.57,4.32,1.91c.67-.26,1.23-.72,1.61-1.33.17-.26.4-.45.67-.55.4-.15.86-.12,1.24.12Z"/><path class="cls-2" d="M131.23,35.82c-.49,0-.99-.1-1.48-.29-.49-.19-.93-.47-1.33-.83-.4-.36-.72-.79-.95-1.29s-.35-1.06-.35-1.67c0-.57.1-1.1.32-1.59.21-.49.5-.92.88-1.3s.81-.68,1.3-.89c.49-.22,1.01-.32,1.57-.32.76,0,1.45.18,2.06.54.62.36,1.11.86,1.48,1.48s.55,1.31.55,2.07c0,.64-.12,1.21-.36,1.71-.24.5-.55.93-.95,1.29-.39.36-.83.63-1.31.81-.48.18-.96.28-1.45.28ZM131.2,33.43c.25,0,.51-.06.77-.19.26-.13.48-.32.66-.57.18-.25.27-.57.27-.96,0-.34-.07-.63-.22-.88s-.35-.45-.61-.59c-.26-.14-.56-.21-.89-.21-.32,0-.6.07-.84.22-.25.15-.45.35-.6.61-.15.26-.23.55-.23.88,0,.38.09.7.26.96.17.26.39.45.66.57.26.12.52.18.77.18Z"/><path class="cls-2" d="M137.42,35.69c-.38,0-.65-.06-.82-.17-.17-.12-.27-.26-.3-.44-.03-.18-.05-.37-.05-.58v-5.53c0-.21.02-.4.05-.58.04-.17.14-.32.31-.43.17-.11.45-.17.84-.17s.67.08.85.23c.18.15.27.4.27.75l-.21.17c.02-.05.08-.14.19-.27.11-.13.24-.26.41-.4.17-.14.37-.25.59-.35s.47-.15.73-.15c.35,0,.66.05.94.15s.53.25.76.44c.23.2.42.44.59.73.15-.21.33-.42.54-.62.21-.2.46-.37.75-.51.29-.14.61-.21.97-.21.61,0,1.13.16,1.55.47.43.31.75.76.97,1.33.22.58.33,1.28.33,2.1v2.83c0,.2-.02.39-.05.58-.04.18-.14.33-.31.44-.17.11-.45.17-.84.17s-.67-.06-.83-.17c-.16-.12-.26-.27-.3-.45s-.05-.38-.05-.58v-2.83c0-.33-.04-.6-.11-.82-.07-.22-.19-.39-.34-.51-.15-.12-.34-.18-.58-.18s-.45.06-.62.17c-.17.11-.29.28-.38.51s-.13.51-.13.86v2.83c0,.21-.03.41-.08.59-.05.18-.17.33-.34.44-.17.11-.45.16-.83.15-.38-.01-.65-.07-.8-.19s-.25-.27-.28-.45c-.03-.18-.05-.37-.05-.56v-2.83c0-.33-.04-.6-.11-.83-.07-.23-.18-.4-.33-.51-.15-.12-.34-.17-.58-.17-.26,0-.48.07-.65.21-.17.14-.29.32-.37.54-.08.23-.12.48-.12.77v2.84c0,.21-.02.41-.05.58-.04.18-.14.32-.31.43-.17.11-.45.17-.84.17Z"/><path class="cls-2" d="M150.03,38.96c-.38,0-.65-.06-.81-.17-.16-.11-.26-.25-.3-.43-.04-.17-.06-.36-.06-.56v-8.83c0-.21.02-.4.05-.58.03-.17.13-.32.29-.43.16-.12.43-.17.81-.17.33,0,.59.05.78.14.19.09.33.24.42.44v9.41c.01.2,0,.39-.05.57s-.15.32-.31.43c-.16.11-.44.17-.83.17ZM153.08,35.55c-.52,0-.97-.1-1.37-.31-.4-.21-.72-.48-.98-.84-.26-.35-.45-.76-.58-1.22-.13-.46-.19-.96-.18-1.5,0-.52.07-1.01.21-1.48s.33-.88.59-1.25.58-.65.96-.85c.38-.21.83-.31,1.35-.31.46,0,.91.11,1.35.32.44.21.82.5,1.16.86s.6.78.8,1.26c.19.47.29.97.29,1.5s-.1,1.02-.29,1.49c-.2.47-.46.88-.8,1.22-.34.35-.72.62-1.15.81s-.88.29-1.36.29ZM152.75,33.32c.29,0,.56-.07.79-.21s.42-.33.56-.58c.14-.24.21-.51.21-.81s-.07-.58-.21-.81-.32-.42-.55-.56-.5-.21-.79-.21-.54.07-.78.21c-.24.14-.42.33-.55.57-.13.24-.2.5-.2.8s.07.56.21.81c.14.24.32.43.55.58.23.14.48.21.76.21Z"/><path class="cls-2" d="M161.58,35.83c-.74,0-1.37-.12-1.9-.36-.53-.24-.97-.56-1.3-.96-.34-.4-.59-.83-.75-1.32-.16-.48-.25-.97-.25-1.45,0-.79.18-1.49.54-2.1.36-.61.85-1.09,1.48-1.44.63-.35,1.36-.53,2.18-.53.61,0,1.14.1,1.59.29s.82.45,1.11.76c.29.31.5.65.65,1,.14.36.21.7.21,1.03,0,.58-.14,1.01-.42,1.29-.28.28-.63.42-1.07.42h-3.76c.02.27.12.51.29.69s.39.34.66.44c.26.11.54.16.84.16.25,0,.47-.01.66-.04s.35-.06.49-.11.26-.09.38-.14c.12-.05.22-.09.31-.12.09-.03.18-.05.26-.06.16-.01.3.03.43.13.13.1.25.25.36.45.07.12.12.23.15.33.03.11.04.21.04.32,0,.25-.13.48-.39.68-.26.2-.62.36-1.09.47s-1.03.17-1.7.17ZM159.89,31.16h2.49c.17,0,.29-.03.37-.09.08-.06.12-.17.12-.34,0-.19-.06-.36-.17-.5-.12-.14-.27-.25-.47-.33-.2-.08-.42-.12-.67-.12-.33,0-.62.06-.87.19-.25.13-.45.29-.59.5-.14.21-.21.44-.21.68Z"/><path class="cls-2" d="M166.63,27.92h1.74l2.18-.06c.2,0,.39.02.57.06.18.04.33.14.44.31.12.17.17.45.17.84,0,.36-.06.62-.17.79s-.25.28-.43.32c-.18.05-.37.07-.58.07l-2.07-.05h-1.91c-.3-.01-.52-.1-.64-.28-.12-.17-.18-.47-.18-.88,0-.38.07-.66.22-.84s.37-.28.66-.28ZM170.2,35.69c-.54,0-1-.06-1.38-.17-.38-.12-.7-.29-.96-.54-.25-.24-.44-.55-.56-.92-.12-.37-.18-.82-.18-1.33v-6.41c0-.21.02-.4.06-.57s.14-.31.31-.42c.17-.11.44-.17.82-.17s.65.06.82.17c.17.12.27.26.31.44s.06.37.06.58v6.27c0,.17.01.31.04.42.03.11.07.19.12.25s.13.09.22.11.21.03.35.03c.23,0,.44.02.62.06s.32.14.42.28c.1.15.15.4.15.74,0,.38-.06.65-.17.82-.12.17-.27.27-.45.3-.18.03-.38.05-.58.05Z"/><path class="cls-2" d="M173.89,26.66c-.4,0-.68-.06-.85-.17-.17-.12-.27-.27-.31-.46s-.06-.39-.06-.6.02-.42.06-.61c.04-.18.15-.33.32-.44.17-.11.45-.17.85-.17s.67.06.84.17c.17.12.27.27.31.46s.05.39.05.6-.02.41-.05.6c-.04.19-.14.34-.31.45-.17.11-.45.17-.85.17ZM173.89,35.69c-.39,0-.67-.06-.83-.17-.16-.11-.26-.26-.3-.44s-.05-.38-.05-.58v-5.51c0-.21.02-.41.05-.58.04-.18.14-.32.31-.43.17-.11.45-.17.84-.17s.65.06.81.17c.16.12.26.26.3.44.04.18.05.38.05.6v5.5c0,.2-.02.39-.05.58-.04.18-.14.33-.3.43-.16.1-.44.16-.83.16Z"/><path class="cls-2" d="M176.94,27.92h1.74l2.18-.06c.2,0,.39.02.57.06.18.04.33.14.44.31.12.17.17.45.17.84,0,.36-.06.62-.17.79s-.25.28-.43.32c-.18.05-.37.07-.58.07l-2.07-.05h-1.91c-.3-.01-.52-.1-.64-.28-.12-.17-.18-.47-.18-.88,0-.38.07-.66.22-.84s.37-.28.66-.28ZM180.51,35.69c-.54,0-1-.06-1.38-.17-.38-.12-.7-.29-.96-.54-.25-.24-.44-.55-.56-.92-.12-.37-.18-.82-.18-1.33v-6.41c0-.21.02-.4.06-.57s.14-.31.31-.42c.17-.11.44-.17.82-.17s.65.06.82.17c.17.12.27.26.31.44s.06.37.06.58v6.27c0,.17.01.31.04.42.03.11.07.19.12.25s.13.09.22.11.21.03.35.03c.23,0,.44.02.62.06s.32.14.42.28c.1.15.15.4.15.74,0,.38-.06.65-.17.82-.12.17-.27.27-.45.3-.18.03-.38.05-.58.05Z"/><path class="cls-2" d="M184.2,26.66c-.4,0-.68-.06-.85-.17-.17-.12-.27-.27-.31-.46s-.06-.39-.06-.6.02-.42.06-.61c.04-.18.15-.33.32-.44.17-.11.45-.17.85-.17s.67.06.84.17c.17.12.27.27.31.46s.05.39.05.6-.02.41-.05.6c-.04.19-.14.34-.31.45-.17.11-.45.17-.85.17ZM184.2,35.69c-.39,0-.67-.06-.83-.17-.16-.11-.26-.26-.3-.44s-.05-.38-.05-.58v-5.51c0-.21.02-.41.05-.58.04-.18.14-.32.31-.43.17-.11.45-.17.84-.17s.65.06.81.17c.16.12.26.26.3.44.04.18.05.38.05.6v5.5c0,.2-.02.39-.05.58-.04.18-.14.33-.3.43-.16.1-.44.16-.83.16Z"/><path class="cls-2" d="M190.55,35.82c-.49,0-.99-.1-1.48-.29-.49-.19-.93-.47-1.33-.83-.4-.36-.72-.79-.95-1.29s-.35-1.06-.35-1.67c0-.57.1-1.1.32-1.59.21-.49.5-.92.88-1.3s.81-.68,1.3-.89c.49-.22,1.01-.32,1.57-.32.76,0,1.45.18,2.06.54.62.36,1.11.86,1.48,1.48s.55,1.31.55,2.07c0,.64-.12,1.21-.36,1.71-.24.5-.55.93-.95,1.29-.39.36-.83.63-1.31.81-.48.18-.96.28-1.45.28ZM190.52,33.43c.25,0,.51-.06.77-.19.26-.13.48-.32.66-.57.18-.25.27-.57.27-.96,0-.34-.07-.63-.22-.88s-.35-.45-.61-.59c-.26-.14-.56-.21-.89-.21-.32,0-.6.07-.84.22-.25.15-.45.35-.6.61-.15.26-.23.55-.23.88,0,.38.09.7.26.96s.39.45.66.57c.26.12.52.18.77.18Z"/><path class="cls-2" d="M196.77,35.68c-.39,0-.67-.06-.83-.17-.16-.11-.26-.26-.3-.44-.04-.18-.06-.38-.06-.58v-5.56c0-.2.02-.39.06-.56.04-.17.14-.31.31-.42.16-.1.44-.16.83-.16.34,0,.58.04.74.13.16.09.26.2.31.32.05.13.07.24.07.35s0,.19.03.23l-.09.3c.02-.16.1-.32.25-.48.14-.16.32-.31.54-.44.22-.13.45-.23.7-.31.25-.07.49-.11.73-.11.5,0,.96.09,1.35.28s.73.45,1,.8.48.76.62,1.22c.14.47.21.98.21,1.54v2.87c0,.2-.02.39-.06.58s-.14.33-.3.43c-.16.11-.44.16-.83.16s-.68-.06-.84-.17c-.16-.11-.27-.26-.31-.44s-.06-.38-.06-.58v-2.86c0-.32-.05-.58-.16-.81-.11-.22-.26-.39-.47-.51-.21-.12-.47-.18-.77-.18s-.57.06-.79.19c-.22.13-.39.3-.51.52-.12.22-.18.48-.18.79v2.87c0,.2-.02.39-.05.58-.04.18-.14.33-.3.43-.16.11-.44.16-.83.16Z"/><path class="cls-2" d="M207.32,35.82c-.28,0-.59-.03-.92-.09-.33-.06-.66-.16-.97-.28-.32-.12-.58-.26-.79-.43-.21-.16-.33-.35-.36-.56-.02-.11-.02-.22,0-.34.03-.12.08-.25.15-.38.07-.13.16-.27.27-.42.08-.12.18-.19.28-.22.11-.03.23-.03.36.02.17.03.34.09.51.17.17.08.35.16.52.25s.36.17.54.24.38.1.58.1c.29,0,.52-.04.69-.13.16-.09.24-.21.24-.37,0-.12-.03-.21-.1-.28-.07-.07-.16-.14-.28-.2-.12-.06-.26-.11-.42-.15-.16-.04-.33-.09-.51-.13-.18-.05-.37-.1-.56-.15-.26-.07-.52-.17-.76-.28s-.46-.27-.66-.45-.36-.41-.47-.68c-.12-.27-.17-.6-.17-.99,0-.52.12-.95.36-1.29.24-.35.59-.61,1.06-.8.46-.18,1.03-.28,1.69-.28.19,0,.38.01.57.03.19.02.38.06.56.11.18.05.37.12.54.19s.36.16.54.27c.32.15.48.35.49.6.01.25-.08.51-.27.77-.12.18-.24.31-.36.39-.13.08-.26.1-.4.07-.17-.04-.35-.11-.54-.21-.19-.09-.4-.18-.62-.27-.22-.08-.43-.13-.64-.13-.18,0-.33.02-.46.07s-.22.11-.28.19c-.06.08-.09.17-.09.28,0,.14.04.25.12.32.08.08.19.15.32.2s.29.1.47.14c.18.04.37.08.58.13.28.05.58.12.88.21.3.09.57.22.82.39.25.17.45.4.6.68.15.28.23.66.23,1.12,0,.83-.29,1.47-.87,1.91-.58.44-1.41.66-2.48.66Z"/><path class="cls-2" d="M67.47,15.67c-.18-.04-.36-.07-.54-.07-.19,0-.34-.01-.46-.04s-.21-.09-.27-.18c-.07-.09-.11-.21-.13-.36-.02-.15-.03-.35-.03-.58V4.46c0-.29-.03-.56-.09-.81-.06-.25-.2-.45-.43-.61-.23-.16-.6-.24-1.13-.24s-.91.08-1.14.24c-.23.16-.38.37-.43.61s-.08.52-.08.81v10.13c0,.72.05,1.32.14,1.81.09.49.24.89.45,1.2.2.31.47.55.8.72.33.18.72.3,1.18.36s.99.1,1.59.1c.19,0,.38-.02.56-.07.18-.04.34-.18.47-.42.13-.23.2-.61.2-1.14s-.07-.88-.2-1.1c-.13-.22-.29-.35-.47-.39Z"/><path class="cls-2" d="M77.49,8.35c-.86-.5-1.81-.76-2.86-.76-.77,0-1.5.15-2.18.45-.68.3-1.28.71-1.81,1.24s-.94,1.13-1.23,1.81c-.29.68-.44,1.41-.44,2.2,0,.85.16,1.62.48,2.31.32.69.76,1.29,1.32,1.79.56.5,1.17.88,1.85,1.15s1.36.41,2.05.41,1.34-.13,2.01-.38c.67-.26,1.27-.63,1.82-1.13.55-.5.99-1.09,1.32-1.79s.49-1.49.49-2.38c0-1.05-.26-2.01-.77-2.87s-1.2-1.55-2.05-2.05ZM76.62,14.59c-.25.35-.56.61-.92.79s-.72.26-1.07.26-.71-.08-1.07-.25c-.37-.17-.67-.43-.91-.79-.24-.36-.36-.8-.36-1.33,0-.45.11-.86.32-1.22.21-.36.49-.64.83-.84.34-.2.73-.31,1.17-.31.47,0,.88.1,1.24.3.36.2.64.47.84.82.2.35.31.76.31,1.23,0,.54-.12.99-.37,1.34Z"/><path class="cls-2" d="M91.14,9.47c-.47-.5-1.01-.9-1.61-1.2-.61-.29-1.23-.44-1.87-.44-.72,0-1.34.14-1.88.43-.31.16-.57.37-.82.6v-4.37c.01-.28,0-.54-.04-.8-.04-.26-.18-.46-.39-.62-.22-.16-.59-.24-1.12-.24s-.92.08-1.15.23c-.23.15-.37.35-.43.6-.06.25-.09.53-.09.83v12.61c0,.28.03.55.08.8.05.26.19.46.43.62.23.16.61.24,1.14.24s.88-.08,1.12-.24c.23-.16.39-.41.46-.75v-.07c.24.22.5.42.8.58.55.3,1.18.45,1.9.45.66,0,1.29-.14,1.89-.43.6-.29,1.13-.68,1.6-1.2.47-.51.84-1.1,1.11-1.77.27-.67.41-1.37.41-2.12s-.14-1.4-.41-2.05c-.27-.65-.64-1.23-1.11-1.73ZM89.07,14.42c-.2.34-.46.6-.78.8-.32.2-.69.3-1.1.3-.38,0-.73-.1-1.05-.3-.32-.2-.58-.46-.77-.8-.19-.34-.29-.71-.29-1.12s.09-.8.27-1.13.44-.59.77-.78c.33-.19.69-.28,1.09-.28s.77.1,1.1.28c.32.19.58.45.77.78.19.33.29.71.29,1.13s-.1.78-.3,1.12Z"/><path class="cls-2" d="M104.34,8.06c-.23-.16-.6-.24-1.13-.24-.56,0-.96.09-1.22.27-.26.18-.38.45-.36.8l.18.31c-.13-.19-.33-.39-.58-.59-.26-.2-.57-.38-.95-.54-.38-.15-.84-.23-1.38-.23-.67,0-1.31.15-1.91.44-.6.29-1.14.69-1.61,1.2-.48.5-.85,1.08-1.12,1.73-.27.65-.41,1.33-.41,2.05s.14,1.43.41,2.08c.27.66.64,1.25,1.11,1.77.47.52,1.01.93,1.61,1.22s1.25.44,1.92.44c.58,0,1.07-.08,1.47-.25s.72-.36.97-.57c.25-.21.42-.39.5-.54l-.22.37c0,.28.13.51.38.7.26.19.65.29,1.2.29s.92-.08,1.15-.23c.23-.15.37-.36.42-.63s.08-.53.08-.81v-7.57c0-.29-.03-.57-.08-.83s-.19-.48-.42-.64ZM101.16,14.39c-.18.34-.43.6-.75.8-.32.2-.66.3-1.04.3-.42,0-.81-.1-1.15-.3-.34-.2-.61-.46-.81-.79s-.3-.69-.3-1.09c0-.42.1-.8.3-1.14s.46-.61.79-.81c.33-.2.71-.31,1.13-.31.38,0,.73.1,1.05.3.32.2.58.46.77.79.19.33.29.71.29,1.13s-.09.78-.27,1.12Z"/><path class="cls-2" d="M111.94,16.06c-.13-.22-.29-.35-.47-.39-.18-.04-.36-.07-.54-.07-.19,0-.34-.01-.46-.04s-.21-.09-.27-.18c-.07-.09-.11-.21-.13-.36-.02-.15-.03-.35-.03-.58V4.46c0-.29-.03-.56-.09-.81-.06-.25-.2-.45-.43-.61-.23-.16-.6-.24-1.13-.24s-.91.08-1.14.24c-.23.16-.38.37-.43.61s-.08.52-.08.81v10.13c0,.72.05,1.32.14,1.81.09.49.24.89.45,1.2.2.31.47.55.8.72.33.18.72.3,1.18.36s.99.1,1.59.1c.19,0,.38-.02.56-.07.18-.04.34-.18.47-.42.13-.23.2-.61.2-1.14s-.07-.88-.2-1.1Z"/></g></svg>