<svg id="Layer_2" xmlns="http://www.w3.org/2000/svg" xmlns:xlink="http://www.w3.org/1999/xlink" viewBox="0 0 194.23 142.92"><defs><linearGradient id="linear-gradient" x1="92.06" y1="137.37" x2="89.45" y2="38.6" gradientUnits="userSpaceOnUse"><stop offset=".01" stop-color="#c0ffca"/><stop offset="1" stop-color="#bbf2ff"/></linearGradient><linearGradient id="linear-gradient-2" x1="182" y1="32.68" x2="182.76" y2="49.46" xlink:href="#linear-gradient"/><linearGradient id="linear-gradient-3" x1="96.64" y1="46.22" x2="95.36" y2="83.98" gradientUnits="userSpaceOnUse"><stop offset="0" stop-color="#1fb4ff"/><stop offset="1" stop-color="#0096ea"/></linearGradient><style>.cls-11,.cls-12,.cls-15,.cls-16,.cls-17,.cls-18,.cls-6,.cls-7,.cls-9{stroke-width:0}.cls-6{fill:#ffb871}.cls-7{opacity:.73}.cls-11,.cls-12,.cls-7{fill:#000}.cls-9{fill:#ffe97d}.cls-12{opacity:.31}.cls-19{opacity:.39}.cls-15{fill:#00e5b9}.cls-16{fill:#fff}.cls-17{fill:#26160c}.cls-18{fill:#00ad8c}</style></defs><g id="Layer_2-2"><path d="M165.82 77.47c-1.26-12.33-11.46-21.96-23.91-22.14-3.72-8.83-12.37-15.02-22.45-15.02-4.33 0-8.39 1.15-11.91 3.15a38.096 38.096 0 0 0-20.36-5.87c-3.85 0-7.57.58-11.08 1.64a38.099 38.099 0 0 0-18.15-4.58c-21.36 0-38.67 17.54-38.67 39.19v.26C7.9 79.49 0 91.2 0 104.79c0 18.71 14.97 33.88 33.44 33.88h104.34c3.51 1.27 7.3 1.97 11.24 1.97 18.47 0 33.44-15.17 33.44-33.88 0-12.5-6.69-23.42-16.63-29.29Z" style="fill:url(#linear-gradient);stroke-width:0"/><path d="M189.61 39.3a6.28 6.28 0 0 0-6.27-6.07c-2.62 0-4.86 1.6-5.8 3.88-.16-.01-.32-.02-.48-.02-3.47 0-6.28 2.81-6.28 6.28s2.81 6.28 6.28 6.28c.14 0 .28 0 .42-.02h11.17c.13 0 .26.02.39.02 2.87 0 5.19-2.32 5.19-5.19 0-2.67-2.02-4.87-4.61-5.16Z" style="fill:url(#linear-gradient-2);stroke-width:0"/><path style="fill:#bc8044;stroke-width:0" d="m21.44 83.53 69.8-9.54 74.5 3.82-67.15 14.6-77.15-8.88z"/><path style="fill:#f2a961;stroke-width:0" d="M21.44 137.24V83.53l77.15 8.88v45.27l-77.15-.44z"/><path class="cls-12" d="M21.44 99.43v14.82l60.22 14.13c1.61.38 3.26-.49 3.86-2.04l13.07-33.93-77.15 7.02Z"/><path class="cls-6" d="m21.44 83.53 77.15 8.87-13.3 27.49a4.101 4.101 0 0 1-4.5 2.24l-69.23-13.75c-1.5-.3-2.29-1.96-1.57-3.31l11.46-21.55Z"/><path style="fill:#e09448;stroke-width:0" d="M98.59 137.68V92.41l67.15-14.6v59.87H98.59z"/><path class="cls-12" d="m98.59 92.41 12.03 32.21a3.06 3.06 0 0 0 4.06 1.75l51.05-21.49V94.52l-67.15-2.11Z"/><path class="cls-6" d="m110.99 116.86-12.4-24.45 67.15-14.6 9.13 16.27c.96 1.7.17 3.86-1.66 4.54l-55.69 20.78a5.24 5.24 0 0 1-6.52-2.55Z"/><rect x="9.84" y="133.38" width="166.67" height="9.54" rx="4.77" ry="4.77" style="stroke-width:0;fill:#6d6d6d"/><rect class="cls-7" x="59.43" y="98.01" width="4.63" height="14.97" rx="2.09" ry="2.09" transform="rotate(93.59 61.744 105.497)"/><path class="cls-7" d="M78.45 96.7c-5.98-.38-11.13 4.17-11.51 10.15s4.17 11.13 10.15 11.51 11.13-4.17 11.51-10.15c.38-5.98-4.17-11.13-10.15-11.51Zm-1.16 18.48a7.667 7.667 0 0 1-7.17-8.14c.27-4.23 3.91-7.44 8.14-7.17s7.44 3.91 7.17 8.14a7.667 7.667 0 0 1-8.14 7.17Z"/><rect class="cls-18" x="59.34" y="97.32" width="4.63" height="14.97" rx="2.09" ry="2.09" transform="rotate(90 61.66 104.81)"/><path class="cls-18" d="M77.78 94.99c-5.99 0-10.85 4.86-10.85 10.85s4.86 10.85 10.85 10.85c5.99 0 10.85-4.86 10.85-10.85 0-5.99-4.86-10.85-10.85-10.85Zm0 18.51c-4.24 0-7.67-3.43-7.67-7.67s3.43-7.67 7.67-7.67 7.67 3.43 7.67 7.67-3.43 7.67-7.67 7.67Z"/><path class="cls-15" d="M77.78 92.88c-5.99 0-10.85 4.86-10.85 10.85 0 5.99 4.86 10.85 10.85 10.85 5.99 0 10.85-4.86 10.85-10.85 0-5.99-4.86-10.85-10.85-10.85Zm0 18.52c-4.24 0-7.67-3.43-7.67-7.67s3.43-7.67 7.67-7.67 7.67 3.43 7.67 7.67-3.43 7.67-7.67 7.67Z"/><path d="M77.78 97.3c-4.03 0-7.32 3.1-7.64 7.05.32 3.94 3.61 7.05 7.64 7.05 4.03 0 7.32-3.1 7.64-7.05-.32-3.94-3.61-7.05-7.64-7.05Z" style="fill:#c5f4ff;opacity:.53;stroke-width:0"/><path d="m91.28 74.99 66.92 3.43-59.66 12.97-69.09-7.95 61.83-8.46m-.04-.99-69.8 9.55 77.15 8.87 67.15-14.6-74.5-3.82Z" style="fill:#ffd4b0;stroke-width:0"/><path d="M133.63 67.53c0 2.52-.24 5-.72 7.39-.07.29-.13.59-.2.89-.05.25-.12.49-.17.74-.69 2.85-1.71 5.57-3.02 8.12L98.5 91.42l-34.58-3.98c-1.8-2.88-3.21-6.02-4.19-9.36v-.05c-.38-1.25-.67-2.54-.9-3.85-.39-2.16-.6-4.38-.6-6.65 0-20.83 16.88-37.72 37.72-37.72s37.7 16.89 37.7 37.72Z" style="fill:url(#linear-gradient-3);stroke-width:0"/><path class="cls-11" d="M58.85 104.81c-.27 0-.53-.11-.73-.32-11.66-12.44 1.06-28.5 1.19-28.66a1.002 1.002 0 1 1 1.56 1.26c-.03.04-3.04 3.81-4.66 8.92-2.13 6.7-.99 12.46 3.38 17.11.38.4.36 1.04-.05 1.41-.19.18-.44.27-.68.27Z"/><path class="cls-11" d="M62.66 108.12c-.17 0-.34-.03-.51-.09-.9-.32-2.16-1.18-3.1-1.88-.09.15-.18.28-.25.4-.43.71-1.35.93-2.06.51-.71-.43-.94-1.35-.51-2.06.08-.14.82-1.35 1.46-2 .54-.56 1.42-.61 2.03-.12 1 .82 2.73 2.08 3.45 2.34.78.28 1.19 1.14.91 1.92-.22.61-.8.99-1.41.99Z"/><path class="cls-11" d="M60.22 108.45c-.4 0-.8-.16-1.1-.48-1.9-2.04-1.85-3.76-1.76-4.35.05-.43.27-.84.63-1.13.88-.71 2.21-.45 3.39-.09.79.24 1.24 1.07 1.01 1.87-.21.69-.87 1.12-1.55 1.07.13.18.29.38.49.59a1.5 1.5 0 0 1-.07 2.12c-.29.27-.66.4-1.02.4ZM104.53 74.38c-.16 0-.32-.06-.44-.19a.613.613 0 0 1 .03-.86c.53-.49 12.94-11.95 19.27-5.25.23.24.22.63-.02.86s-.62.22-.86-.02c-5.51-5.83-17.45 5.19-17.57 5.3a.59.59 0 0 1-.41.16Z"/><circle class="cls-11" cx="96.18" cy="56.69" r="3.7"/><circle class="cls-11" cx="121.08" cy="56.69" r="3.7"/><path class="cls-11" d="M123.82 42.2c-.2 0-.41-.05-.59-.16-2.6-1.47-5.2-.02-5.22 0a1.21 1.21 0 0 1-1.2-2.1c.15-.09 3.83-2.15 7.62 0 .58.33.79 1.07.46 1.65-.22.39-.63.61-1.05.61ZM98.9 41.8c-.2 0-.41-.05-.6-.16-2.57-1.45-5.12-.06-5.23 0-.58.33-1.32.12-1.65-.46-.33-.58-.13-1.31.45-1.64.15-.09 3.83-2.15 7.62 0 .58.33.79 1.07.46 1.65-.22.39-.63.61-1.05.61Z"/><rect class="cls-17" x="153.75" y="4.26" width="16.23" height="3.61" rx="1.8" ry="1.8" transform="rotate(42.53 161.867 6.075)"/><rect class="cls-17" x="153.22" y="7.96" width="16.23" height="3.61" rx="1.8" ry="1.8" transform="rotate(42.53 161.333 9.76)"/><rect class="cls-17" x="153.38" y="11.84" width="16.23" height="3.61" rx="1.8" ry="1.8" transform="rotate(42.53 161.5 13.645)"/><circle class="cls-17" cx="161.68" cy="15.65" r="10.93"/><rect class="cls-9" x="166.84" y="16.41" width="5.12" height="2.48" rx=".98" ry=".98"/><rect class="cls-16" x="159.36" y="13.95" width="6.1" height=".42" rx=".21" ry=".21"/><rect class="cls-16" x="167.63" y="13.95" width="4.63" height=".42" rx=".18" ry=".18"/><rect class="cls-17" x="145.14" y="18.89" width="10.5" height="2.6" rx="1.3" ry="1.3"/><rect class="cls-17" x="147.24" y="20.72" width="10.5" height="2.6" rx="1.3" ry="1.3"/><rect class="cls-17" x="142.78" y="7.1" width="16.23" height="3.61" rx="1.8" ry="1.8" transform="rotate(31.48 150.901 8.906)"/><rect class="cls-17" x="142.97" y="10.82" width="16.23" height="3.61" rx="1.8" ry="1.8" transform="rotate(31.48 151.088 12.626)"/><rect class="cls-17" x="143.87" y="14.61" width="16.23" height="3.61" rx="1.8" ry="1.8" transform="rotate(31.48 151.983 16.414)"/><rect class="cls-9" x="157.23" y="25.36" width="4.98" height="1.38" rx=".69" ry=".69" transform="rotate(-26.27 159.737 26.046)"/><rect class="cls-9" x="164.05" y="25.36" width="4.98" height="1.38" rx=".69" ry=".69" transform="rotate(-26.27 166.558 26.056)"/><rect class="cls-9" x="160.36" y="26.52" width="1.13" height=".82" rx=".41" ry=".41"/><rect class="cls-9" x="167.07" y="26.52" width="1.13" height=".82" rx=".41" ry=".41"/><rect class="cls-9" x="167.02" y="19.26" width="2.47" height="1.19" rx=".6" ry=".6"/><rect class="cls-15" x="9.84" y="133.38" width="79.85" height="9.54" rx="4.77" ry="4.77"/><path class="cls-11" d="M127.96 92.92c-1.76 0-4.35-1.91-8.72-12.65a.998.998 0 1 1 1.85-.75c4.68 11.5 6.77 11.44 7 11.39 1.62-.32 2.71-7.87 2.67-14.44 0-.55.44-1 .99-1.01.55 0 1 .44 1 .99.02 3.65-.22 15.6-4.28 16.41-.17.03-.34.05-.52.05Z"/><path class="cls-11" d="M119.37 81.34c-.79 0-1.62-.09-1.74-.1-.82-.09-1.42-.83-1.32-1.66.09-.82.83-1.41 1.66-1.33.16.02.36.04.58.05.12-1.54.33-3.79.65-4.78.25-.79 1.1-1.22 1.89-.97.79.25 1.22 1.1.97 1.89-.25.77-.51 3.66-.61 5.46-.04.73-.6 1.32-1.33 1.4-.22.03-.48.04-.74.04Z"/><path class="cls-11" d="M120.27 81.42c-.31 0-.61-.08-.87-.24-.52-.29-1.92-1.3-2.37-4.05a1.49 1.49 0 0 1 1.24-1.72c.81-.13 1.59.42 1.72 1.24.05.29.11.53.17.75.38-.58 1.12-.84 1.79-.58.77.3 1.16 1.16.87 1.94-.44 1.15-1.04 2.37-2.14 2.63-.14.03-.27.05-.41.05Z"/><path class="cls-11" d="M117.8 72.98a.616.616 0 0 1-.57-.82c.31-.84.84-1.43 1.56-1.74 1.32-.57 2.8.03 2.86.06.31.13.45.48.32.79-.13.31-.48.45-.79.32-.02 0-1.08-.43-1.92-.06-.41.18-.71.52-.9 1.05-.09.24-.32.39-.57.39Z" style="opacity:.36"/><g class="cls-19"><path class="cls-11" d="M58.21 102.86h-.02c-.55-.01-.99-.47-.98-1.02.2-10.62 5.15-14.54 5.36-14.7a1.001 1.001 0 0 1 1.22 1.59c-.06.05-4.41 3.6-4.58 13.16-.01.55-.46.98-1 .98Z"/></g><g class="cls-19"><path class="cls-11" d="M128.53 99.39c-3.95 0-6.27-9.93-6.89-13-.11-.54.24-1.07.78-1.18.54-.1 1.07.24 1.18.78 1.11 5.48 3.4 11.49 4.96 11.4.12 0 .3-.05.52-.31 1.46-1.72 1.46-8.14 1.12-11.79a1 1 0 0 1 .9-1.09c.54-.08 1.04.35 1.09.9.1 1.05.89 10.35-1.59 13.27-.52.61-1.18.96-1.9 1.01h-.17Z"/></g><path class="cls-9" d="M162.79 21.52h-.31c-.22 0-.41.18-.41.41s.18.41.41.41h.31c.22 0 .41-.18.41-.41s-.18-.41-.41-.41Z"/><circle class="cls-17" cx="101.13" cy="20.5" r="1.86"/><circle class="cls-17" cx="107.58" cy="20.5" r="1.86"/><circle class="cls-17" cx="114.04" cy="20.5" r="1.86"/><circle class="cls-17" cx="120.49" cy="20.5" r="1.86"/><circle class="cls-17" cx="126.95" cy="20.5" r="1.86"/><circle class="cls-17" cx="133.4" cy="20.5" r="1.86"/></g></svg>