<?xml version="1.0" encoding="UTF-8"?><svg id="Layer_2" xmlns="http://www.w3.org/2000/svg" viewBox="0 0 202.15 71.78"><defs><style>.cls-1{fill:#fff;}</style></defs><g id="Layer_1-2"><path class="cls-1" d="M83.96,8.25c-2.27,0-4.34.77-6,2.03-.32-1.17-1.42-2.03-2.71-2.03-1.58,0-2.84,1.26-2.84,2.84v23.51c0,1.58,1.26,2.84,2.84,2.84s2.84-1.26,2.84-2.84v-6.81c1.62,1.26,3.65,1.95,5.88,1.95,5.71,0,10.01-4.74,10.01-10.74s-4.3-10.74-10.01-10.74ZM83.15,24.46c-2.84,0-5.07-2.31-5.07-5.47v-.2c.08-3,2.27-5.27,5.07-5.27s5.11,2.35,5.11,5.47-2.23,5.47-5.11,5.47Z"/><path class="cls-1" d="M108.04,8.25c-6.28,0-10.82,4.74-10.82,10.74s4.54,10.74,10.82,10.74,10.82-4.74,10.82-10.74-4.54-10.74-10.82-10.74ZM108.04,24.46c-2.96,0-5.11-2.51-5.11-5.47s2.15-5.47,5.11-5.47,5.07,2.51,5.07,5.47-2.11,5.47-5.07,5.47Z"/><path class="cls-1" d="M132.93,29.73c3.48,0,6.28-1.5,7.66-3.16.53-.61.81-1.3.81-1.86,0-1.58-1.22-2.71-2.8-2.71-1.13,0-1.74.69-2.47,1.3-.73.61-1.78,1.17-3.2,1.17-2.88,0-5.11-2.43-5.11-5.47s2.23-5.47,5.11-5.47c1.54,0,2.51.61,3.24,1.22.73.61,1.3,1.22,2.43,1.22,1.58,0,2.8-1.09,2.8-2.67,0-.57-.28-1.3-.81-1.9-1.38-1.66-4.25-3.12-7.66-3.12-6.28,0-10.82,4.74-10.82,10.74s4.54,10.74,10.82,10.74Z"/><path class="cls-1" d="M161.09,29.73c1.5,0,2.88-1.22,2.88-2.84,0-.61-.24-1.3-.69-1.82l-5.35-6.36,5.19-6.16c.45-.53.61-1.09.61-1.7,0-1.5-1.18-2.59-2.71-2.59-.77,0-1.38.28-1.95.93l-6.61,7.86c-.45.53-.73,1.34-.73,1.95,0,.81.32,1.54.77,2.07l6.44,7.66c.53.65,1.38,1.01,2.15,1.01Z"/><path class="cls-1" d="M148.09,29.73c1.58,0,2.84-1.26,2.84-2.84V3.38c0-1.58-1.26-2.84-2.84-2.84s-2.84,1.26-2.84,2.84v23.51c0,1.58,1.26,2.84,2.84,2.84Z"/><path class="cls-1" d="M184.44,26.56c.53-.61.81-1.3.81-1.86,0-1.58-1.22-2.71-2.8-2.71-1.09,0-1.66.61-2.47,1.3-.69.57-1.7,1.17-3.2,1.17-2.92,0-5.11-2.43-5.11-5.47s2.23-5.47,5.11-5.47c.45,0,1.13.08,1.42.2l-3.49,4.01c-.45.49-.61,1.09-.61,1.7,0,1.5,1.18,2.59,2.72,2.59.77,0,1.38-.28,1.95-.93l5.23-6.24c.57-.69.77-1.3.77-1.99,0-.81-.36-1.62-1.01-2.19-1.13-1.05-3.65-2.43-6.97-2.43-6.28,0-10.82,4.74-10.82,10.74s4.58,10.74,10.82,10.74c3.48,0,6.28-1.5,7.66-3.16Z"/><path class="cls-1" d="M199.52,24.46c-2.31,0-4.17-1.62-4.17-4.98v-5.55h4.17c1.46,0,2.63-1.17,2.63-2.63s-1.17-2.63-2.63-2.63h-4.17v-2.43c0-1.58-1.26-2.84-2.84-2.84s-2.84,1.26-2.84,2.84v2.43h-.77c-1.46,0-2.63,1.18-2.63,2.63s1.17,2.63,2.63,2.63h.77v5.55c0,6.28,4.38,10.25,9.85,10.25,1.46,0,2.63-1.17,2.63-2.63s-1.17-2.63-2.63-2.63Z"/><path class="cls-1" d="M90.33,42.54c-1.3,0-2.39.85-2.76,2.03-1.66-1.26-3.73-2.03-5.96-2.03-5.71,0-10.01,4.74-10.01,10.74s4.3,10.74,10.01,10.74c2.15,0,4.13-.69,5.75-1.86-.53,2.43-2.59,4.3-5.23,4.3-1.5,0-2.51-.61-3.2-1.17-.73-.61-1.34-1.3-2.47-1.3-1.58,0-2.8,1.13-2.8,2.71,0,.57.28,1.26.81,1.86,1.38,1.66,4.17,3.16,7.66,3.16,6.16,0,11.02-4.74,11.02-10.74v-15.6c0-1.58-1.26-2.84-2.84-2.84ZM87.49,53.28c0,3.16-2.23,5.47-5.07,5.47s-5.11-2.31-5.11-5.47,2.23-5.47,5.11-5.47,4.94,2.27,5.07,5.27v.2Z"/><path class="cls-1" d="M115.94,42.54c-1.3,0-2.39.85-2.76,2.03-1.66-1.26-3.73-2.03-5.96-2.03-5.71,0-10.01,4.74-10.01,10.74s4.3,10.74,10.01,10.74c2.23,0,4.29-.73,5.96-2.03.37,1.18,1.46,2.03,2.76,2.03,1.58,0,2.84-1.26,2.84-2.84v-15.81c0-1.58-1.26-2.84-2.84-2.84ZM108.04,58.75c-2.88,0-5.11-2.31-5.11-5.47s2.23-5.47,5.11-5.47,5.07,2.35,5.07,5.47-2.23,5.47-5.07,5.47Z"/><path class="cls-1" d="M143.3,42.54c-2.35,0-4.46.77-5.88,3.04-1.46-2.27-3.53-3.04-5.88-3.04-4.42,0-7.9,3.36-7.9,8.47v10.17c0,1.58,1.26,2.84,2.84,2.84s2.84-1.26,2.84-2.84v-10.25c0-2.11,1.18-3.12,2.63-3.12s2.63,1.01,2.63,3.12v10.25c0,1.58,1.26,2.84,2.84,2.84s2.84-1.26,2.84-2.84v-10.25c0-2.11,1.17-3.12,2.63-3.12s2.63,1.01,2.63,3.12v10.25c0,1.58,1.26,2.84,2.84,2.84s2.84-1.26,2.84-2.84v-10.17c0-5.11-3.49-8.47-7.9-8.47Z"/><path class="cls-1" d="M171.75,56.28c-1.09,0-1.66.61-2.47,1.3-.69.57-1.7,1.17-3.2,1.17-2.92,0-5.11-2.43-5.11-5.47s2.23-5.47,5.11-5.47c.45,0,1.13.08,1.42.2l-3.49,4.01c-.45.49-.61,1.09-.61,1.7,0,1.5,1.18,2.59,2.72,2.59.77,0,1.38-.28,1.95-.93l5.23-6.24c.57-.69.77-1.3.77-1.99,0-.81-.36-1.62-1.01-2.19-1.13-1.05-3.65-2.43-6.97-2.43-6.28,0-10.82,4.74-10.82,10.74s4.58,10.74,10.82,10.74c3.48,0,6.28-1.5,7.66-3.16.53-.61.81-1.3.81-1.86,0-1.58-1.22-2.71-2.8-2.71Z"/><path class="cls-1" d="M186.43,51.09c-1.7-.57-3.16-.93-3.16-2.07,0-.77.65-1.42,1.42-1.42,1.26,0,1.99,1.09,3.04,1.62.36.16.73.28,1.22.28,1.46,0,2.63-1.17,2.63-2.63,0-2.35-3.45-4.34-6.89-4.34-3.89,0-6.89,2.92-6.89,6.44,0,4.38,2.88,5.47,5.23,6.28,1.66.57,3.08.97,3.08,2.27,0,.77-.65,1.42-1.42,1.42-1.3,0-1.9-.97-2.76-1.66-.45-.36-.97-.61-1.7-.61-1.46,0-2.63,1.17-2.63,2.63,0,2.43,3.4,4.7,7.09,4.7,3.97,0,7.09-3.04,7.09-6.69,0-4.3-2.92-5.47-5.35-6.24Z"/><path class="cls-1" d="M53.92,18.95l1.03-2.2c1.19-2.55.09-5.58-2.45-6.77L32.19.48c-2.55-1.19-5.58-.09-6.77,2.45l-4.82,10.3-10.45-1.79c-3.43-.59-6.63,1.89-6.93,5.36L.02,54.38c-.19,2.21.87,4.34,2.74,5.53l17.25,10.94c1.34.85,2.97,1.13,4.53.77l19.91-4.6c2.16-.5,3.87-2.16,4.42-4.31l9.45-36.5c.84-3.25-1.18-6.52-4.41-7.28ZM26.54,41.7c-.34,1.69-1.99,2.79-3.68,2.45l-3.16-.63-.63,3.16c-.34,1.69-1.99,2.79-3.68,2.45-1.69-.34-2.79-1.99-2.45-3.68l.63-3.16-3.16-.63c-1.69-.34-2.79-1.99-2.45-3.68.34-1.69,1.99-2.79,3.68-2.45l3.16.63.63-3.16c.34-1.69,1.99-2.79,3.68-2.45,1.69.34,2.79,1.99,2.45,3.68l-.63,3.16,3.16.63c1.69.34,2.79,1.99,2.45,3.68ZM38.03,48.78c-.48,2.37-2.78,3.91-5.16,3.43-2.37-.48-3.91-2.78-3.43-5.16.48-2.37,2.78-3.91,5.16-3.43,2.37.48,3.91,2.78,3.43,5.16ZM47.32,41.71c-.48,2.37-2.78,3.91-5.16,3.43s-3.91-2.78-3.43-5.16c.48-2.37,2.78-3.91,5.16-3.43s3.91,2.78,3.43,5.16Z"/></g></svg>