<svg width="5760" height="3141" viewBox="0 0 5760 3141" fill="none" xmlns="http://www.w3.org/2000/svg">
<path opacity="0.1" fill-rule="evenodd" clip-rule="evenodd" d="M1760.97 183.418C1760.97 189.996 1766.25 195.329 1772.77 195.329C1779.29 195.329 1784.57 189.996 1784.57 183.418C1784.57 176.84 1779.29 171.508 1772.77 171.508C1766.25 171.508 1760.97 176.84 1760.97 183.418ZM1650.03 66.7039C1643.51 66.7039 1638.22 61.3714 1638.22 54.7934C1638.22 48.2154 1643.51 42.8828 1650.03 42.8828C1656.55 42.8828 1661.83 48.2154 1661.83 54.7934C1661.83 61.3714 1656.55 66.7039 1650.03 66.7039ZM1496.59 183.425C1496.59 192.634 1503.99 200.1 1513.11 200.1C1522.24 200.1 1529.63 192.634 1529.63 183.425C1529.63 174.216 1522.24 166.75 1513.11 166.75C1503.99 166.75 1496.59 174.216 1496.59 183.425ZM1373.83 76.236C1360.8 76.236 1350.23 65.5709 1350.23 52.4149C1350.23 39.2588 1360.8 28.5938 1373.83 28.5938C1386.87 28.5938 1397.44 39.2588 1397.44 52.4149C1397.44 65.5709 1386.87 76.236 1373.83 76.236ZM1218.04 185.806C1218.04 198.962 1228.61 209.627 1241.65 209.627C1254.68 209.627 1265.25 198.962 1265.25 185.806C1265.25 172.649 1254.68 161.984 1241.65 161.984C1228.61 161.984 1218.04 172.649 1218.04 185.806ZM1076.39 80.9988C1060.74 80.9988 1048.06 68.2007 1048.06 52.4135C1048.06 36.6262 1060.74 23.8281 1076.39 23.8281C1092.03 23.8281 1104.71 36.6262 1104.71 52.4135C1104.71 68.2007 1092.03 80.9988 1076.39 80.9988ZM906.426 185.812C906.426 201.599 919.108 214.397 934.753 214.397C950.397 214.397 963.079 201.599 963.079 185.812C963.079 170.025 950.397 157.227 934.753 157.227C919.108 157.227 906.426 170.025 906.426 185.812ZM786.054 90.5103C766.498 90.5103 750.645 74.5126 750.645 54.7786C750.645 35.0445 766.498 19.0469 786.054 19.0469C805.609 19.0469 821.462 35.0445 821.462 54.7786C821.462 74.5126 805.609 90.5103 786.054 90.5103ZM594.842 185.8C594.842 209.481 613.866 228.678 637.332 228.678C660.799 228.678 679.822 209.481 679.822 185.8C679.822 162.119 660.799 142.922 637.332 142.922C613.866 142.922 594.842 162.119 594.842 185.8ZM450.862 100.044C426.091 100.044 406.011 79.7801 406.011 54.7836C406.011 29.7871 426.091 9.52344 450.862 9.52344C475.632 9.52344 495.712 29.7871 495.712 54.7836C495.712 79.7801 475.632 100.044 450.862 100.044ZM217.165 185.791C217.165 212.103 238.302 233.433 264.376 233.433C290.45 233.433 311.587 212.103 311.587 185.791C311.587 159.479 290.45 138.148 264.376 138.148C238.302 138.148 217.165 159.479 217.165 185.791ZM-0.00390625 52.4065C-0.0039075 81.3498 23.2469 104.813 51.9282 104.813C80.6096 104.813 103.86 81.3498 103.86 52.4065C103.86 23.4632 80.6096 1.26515e-06 51.9282 0C23.247 -1.26515e-06 -0.003905 23.4632 -0.00390625 52.4065ZM1760.97 474.332C1760.97 480.91 1766.25 486.243 1772.77 486.243C1779.29 486.243 1784.57 480.91 1784.57 474.332C1784.57 467.754 1779.29 462.422 1772.77 462.422C1766.25 462.422 1760.97 467.754 1760.97 474.332ZM1650.03 357.618C1643.51 357.618 1638.22 352.285 1638.22 345.707C1638.22 339.129 1643.51 333.797 1650.03 333.797C1656.55 333.797 1661.83 339.129 1661.83 345.707C1661.83 352.285 1656.55 357.618 1650.03 357.618ZM1496.59 474.339C1496.59 483.548 1503.98 491.014 1513.11 491.014C1522.24 491.014 1529.63 483.548 1529.63 474.339C1529.63 465.13 1522.24 457.664 1513.11 457.664C1503.98 457.664 1496.59 465.13 1496.59 474.339ZM1373.83 367.15C1360.8 367.15 1350.23 356.485 1350.23 343.329C1350.23 330.173 1360.8 319.508 1373.83 319.508C1386.87 319.508 1397.44 330.173 1397.44 343.329C1397.44 356.485 1386.87 367.15 1373.83 367.15ZM1218.04 476.72C1218.04 489.876 1228.61 500.541 1241.65 500.541C1254.68 500.541 1265.25 489.876 1265.25 476.72C1265.25 463.564 1254.68 452.898 1241.65 452.898C1228.61 452.898 1218.04 463.564 1218.04 476.72ZM1076.39 371.905C1060.75 371.905 1048.07 359.107 1048.07 343.32C1048.07 327.533 1060.75 314.735 1076.39 314.735C1092.04 314.735 1104.72 327.533 1104.72 343.32C1104.72 359.107 1092.04 371.905 1076.39 371.905ZM906.426 476.726C906.426 492.513 919.108 505.311 934.753 505.311C950.397 505.311 963.079 492.513 963.079 476.726C963.079 460.939 950.397 448.141 934.753 448.141C919.108 448.141 906.426 460.939 906.426 476.726ZM786.054 381.424C766.498 381.424 750.645 365.427 750.645 345.693C750.645 325.959 766.498 309.961 786.054 309.961C805.609 309.961 821.462 325.959 821.462 345.693C821.462 365.427 805.609 381.424 786.054 381.424ZM594.842 476.714C594.842 500.395 613.866 519.592 637.332 519.592C660.799 519.592 679.822 500.395 679.822 476.714C679.822 453.033 660.799 433.836 637.332 433.836C613.866 433.836 594.842 453.033 594.842 476.714ZM450.862 390.958C426.091 390.958 406.011 370.694 406.011 345.698C406.011 320.701 426.091 300.437 450.862 300.438C475.632 300.438 495.712 320.701 495.712 345.698C495.712 370.694 475.632 390.958 450.862 390.958ZM217.165 476.705C217.165 503.017 238.302 524.347 264.376 524.347C290.45 524.347 311.587 503.017 311.587 476.705C311.587 450.393 290.45 429.063 264.376 429.063C238.302 429.062 217.165 450.393 217.165 476.705ZM-0.00390625 343.321C-0.0039075 372.264 23.2469 395.727 51.9282 395.727C80.6096 395.727 103.86 372.264 103.86 343.321C103.86 314.377 80.6096 290.914 51.9282 290.914C23.247 290.914 -0.003905 314.377 -0.00390625 343.321ZM1772.78 776.329C1766.26 776.329 1760.97 770.996 1760.97 764.418C1760.97 757.84 1766.26 752.508 1772.78 752.508C1779.3 752.508 1784.58 757.84 1784.58 764.418C1784.58 770.996 1779.3 776.329 1772.78 776.329ZM1638.22 635.786C1638.22 642.364 1643.51 647.696 1650.03 647.696C1656.55 647.696 1661.83 642.364 1661.83 635.786C1661.83 629.208 1656.55 623.875 1650.03 623.875C1643.51 623.875 1638.22 629.208 1638.22 635.786ZM1513.12 781.092C1503.99 781.092 1496.59 773.626 1496.59 764.417C1496.59 755.208 1503.99 747.742 1513.12 747.742C1522.24 747.742 1529.64 755.208 1529.64 764.417C1529.64 773.626 1522.24 781.092 1513.12 781.092ZM1350.23 633.415C1350.23 646.571 1360.8 657.236 1373.83 657.236C1386.87 657.236 1397.44 646.571 1397.44 633.415C1397.44 620.259 1386.87 609.594 1373.83 609.594C1360.8 609.594 1350.23 620.259 1350.23 633.415ZM1241.65 790.627C1228.62 790.627 1218.05 779.962 1218.05 766.805C1218.05 753.649 1228.62 742.984 1241.65 742.984C1254.69 742.984 1265.26 753.649 1265.26 766.805C1265.26 779.962 1254.69 790.627 1241.65 790.627ZM1048.07 633.413C1048.07 649.201 1060.76 661.999 1076.4 661.999C1092.05 661.999 1104.73 649.201 1104.73 633.413C1104.73 617.626 1092.05 604.828 1076.4 604.828C1060.76 604.828 1048.07 617.626 1048.07 633.413ZM934.761 795.397C919.116 795.397 906.434 782.599 906.434 766.812C906.434 751.025 919.116 738.227 934.761 738.227C950.405 738.227 963.087 751.025 963.087 766.812C963.087 782.599 950.405 795.397 934.761 795.397ZM750.661 635.779C750.661 655.513 766.514 671.51 786.069 671.51C805.625 671.51 821.478 655.513 821.478 635.779C821.478 616.045 805.625 600.047 786.069 600.047C766.514 600.047 750.661 616.045 750.661 635.779ZM637.34 809.678C613.874 809.678 594.85 790.481 594.85 766.8C594.85 743.119 613.874 723.922 637.34 723.922C660.807 723.922 679.83 743.119 679.83 766.8C679.83 790.481 660.807 809.678 637.34 809.678ZM406.027 635.784C406.027 660.78 426.107 681.044 450.877 681.044C475.647 681.044 495.728 660.78 495.728 635.784C495.728 610.787 475.647 590.523 450.877 590.523C426.107 590.523 406.027 610.787 406.027 635.784ZM264.384 814.441C238.31 814.441 217.173 793.111 217.173 766.799C217.173 740.486 238.31 719.156 264.384 719.156C290.458 719.156 311.595 740.486 311.595 766.799C311.595 793.111 290.458 814.441 264.384 814.441ZM51.936 685.813C23.2548 685.813 0.003905 662.35 0.00390625 633.407C0.0039075 604.463 23.2548 581 51.936 581C80.6174 581 103.868 604.463 103.868 633.407C103.868 662.35 80.6174 685.813 51.936 685.813ZM1760.97 1054.49C1760.97 1061.07 1766.25 1066.4 1772.77 1066.4C1779.29 1066.4 1784.57 1061.07 1784.57 1054.49C1784.57 1047.91 1779.29 1042.58 1772.77 1042.58C1766.25 1042.58 1760.97 1047.91 1760.97 1054.49ZM1650.03 937.766C1643.51 937.766 1638.22 932.434 1638.22 925.856C1638.22 919.278 1643.51 913.945 1650.03 913.945C1656.55 913.945 1661.83 919.278 1661.83 925.856C1661.83 932.434 1656.55 937.766 1650.03 937.766ZM1496.59 1054.49C1496.59 1063.7 1503.99 1071.16 1513.11 1071.16C1522.24 1071.16 1529.63 1063.7 1529.63 1054.49C1529.63 1045.28 1522.24 1037.81 1513.11 1037.81C1503.99 1037.81 1496.59 1045.28 1496.59 1054.49ZM1373.83 947.306C1360.8 947.306 1350.23 936.641 1350.23 923.485C1350.23 910.329 1360.8 899.664 1373.83 899.664C1386.87 899.664 1397.44 910.329 1397.44 923.485C1397.44 936.641 1386.87 947.306 1373.83 947.306ZM1218.04 1056.88C1218.04 1070.03 1228.61 1080.7 1241.65 1080.7C1254.68 1080.7 1265.25 1070.03 1265.25 1056.88C1265.25 1043.72 1254.68 1033.05 1241.65 1033.05C1228.61 1033.05 1218.04 1043.72 1218.04 1056.88ZM1076.39 952.062C1060.74 952.062 1048.06 939.264 1048.06 923.476C1048.06 907.689 1060.74 894.891 1076.39 894.891C1092.03 894.891 1104.71 907.689 1104.71 923.476C1104.71 939.264 1092.03 952.062 1076.39 952.062ZM906.426 1056.87C906.426 1072.66 919.108 1085.46 934.753 1085.46C950.397 1085.46 963.079 1072.66 963.079 1056.87C963.079 1041.09 950.397 1028.29 934.753 1028.29C919.108 1028.29 906.426 1041.09 906.426 1056.87ZM786.054 961.596C766.498 961.596 750.645 945.599 750.645 925.865C750.645 906.13 766.498 890.133 786.054 890.133C805.609 890.133 821.462 906.13 821.462 925.865C821.462 945.599 805.609 961.596 786.054 961.596ZM594.842 1056.87C594.842 1080.55 613.866 1099.75 637.332 1099.75C660.799 1099.75 679.822 1080.55 679.822 1056.87C679.822 1033.19 660.799 1013.99 637.332 1013.99C613.866 1013.99 594.842 1033.19 594.842 1056.87ZM450.869 971.114C426.099 971.114 406.019 950.85 406.019 925.854C406.019 900.857 426.099 880.594 450.869 880.594C475.64 880.594 495.72 900.857 495.72 925.854C495.72 950.85 475.64 971.114 450.869 971.114ZM217.165 1056.86C217.165 1083.17 238.302 1104.5 264.376 1104.5C290.45 1104.5 311.587 1083.17 311.587 1056.86C311.587 1030.55 290.45 1009.22 264.376 1009.22C238.302 1009.22 217.165 1030.55 217.165 1056.86ZM-0.00390625 923.477C-0.0039075 952.42 23.2469 975.883 51.9282 975.883C80.6096 975.883 103.86 952.42 103.86 923.477C103.86 894.534 80.6096 871.07 51.9282 871.07C23.247 871.07 -0.003905 894.533 -0.00390625 923.477ZM1772.77 1356.45C1766.25 1356.45 1760.97 1351.12 1760.97 1344.54C1760.97 1337.97 1766.25 1332.63 1772.77 1332.63C1779.29 1332.63 1784.57 1337.97 1784.57 1344.54C1784.57 1351.12 1779.29 1356.45 1772.77 1356.45ZM1638.22 1215.92C1638.22 1222.5 1643.51 1227.83 1650.03 1227.83C1656.55 1227.83 1661.83 1222.5 1661.83 1215.92C1661.83 1209.34 1656.55 1204.01 1650.03 1204.01C1643.51 1204.01 1638.22 1209.34 1638.22 1215.92ZM1513.1 1361.22C1503.98 1361.22 1496.58 1353.76 1496.58 1344.55C1496.58 1335.34 1503.98 1327.87 1513.1 1327.87C1522.23 1327.87 1529.63 1335.34 1529.63 1344.55C1529.63 1353.76 1522.23 1361.22 1513.1 1361.22ZM1350.23 1213.53C1350.23 1226.69 1360.8 1237.35 1373.83 1237.35C1386.87 1237.35 1397.44 1226.69 1397.44 1213.53C1397.44 1200.38 1386.87 1189.71 1373.83 1189.71C1360.8 1189.71 1350.23 1200.38 1350.23 1213.53ZM1241.65 1370.75C1228.61 1370.75 1218.04 1360.09 1218.04 1346.93C1218.04 1333.77 1228.61 1323.11 1241.65 1323.11C1254.68 1323.11 1265.25 1333.77 1265.25 1346.93C1265.25 1360.09 1254.68 1370.75 1241.65 1370.75ZM1048.07 1213.52C1048.07 1229.31 1060.75 1242.11 1076.39 1242.11C1092.04 1242.11 1104.72 1229.31 1104.72 1213.52C1104.72 1197.74 1092.04 1184.94 1076.39 1184.94C1060.75 1184.94 1048.07 1197.74 1048.07 1213.52ZM934.753 1375.51C919.108 1375.51 906.426 1362.72 906.426 1346.93C906.426 1331.14 919.108 1318.34 934.753 1318.34C950.397 1318.34 963.079 1331.14 963.079 1346.93C963.079 1362.72 950.397 1375.51 934.753 1375.51ZM750.653 1215.9C750.653 1235.64 766.506 1251.64 786.062 1251.64C805.617 1251.64 821.47 1235.64 821.47 1215.9C821.47 1196.17 805.617 1180.17 786.062 1180.17C766.506 1180.17 750.653 1196.17 750.653 1215.9ZM637.331 1389.8C613.865 1389.8 594.841 1370.6 594.841 1346.92C594.841 1323.24 613.865 1304.04 637.331 1304.04C660.798 1304.04 679.821 1323.24 679.821 1346.92C679.821 1370.6 660.798 1389.8 637.331 1389.8ZM406.011 1215.91C406.011 1240.91 426.091 1261.17 450.862 1261.17C475.632 1261.17 495.712 1240.91 495.712 1215.91C495.712 1190.91 475.632 1170.65 450.862 1170.65C426.091 1170.65 406.011 1190.91 406.011 1215.91ZM264.376 1394.57C238.302 1394.57 217.165 1373.24 217.165 1346.92C217.165 1320.61 238.302 1299.28 264.376 1299.28C290.45 1299.28 311.587 1320.61 311.587 1346.92C311.587 1373.24 290.45 1394.57 264.376 1394.57ZM51.9282 1265.94C23.2469 1265.94 -0.0039075 1242.47 -0.00390625 1213.53C-0.003905 1184.59 23.247 1161.12 51.9282 1161.12C80.6096 1161.12 103.86 1184.59 103.86 1213.53C103.86 1242.47 80.6096 1265.94 51.9282 1265.94ZM1760.97 1634.61C1760.97 1641.19 1766.26 1646.52 1772.78 1646.52C1779.3 1646.52 1784.58 1641.19 1784.58 1634.61C1784.58 1628.04 1779.3 1622.7 1772.78 1622.7C1766.26 1622.7 1760.97 1628.04 1760.97 1634.61ZM1650.03 1517.9C1643.52 1517.9 1638.23 1512.57 1638.23 1505.99C1638.23 1499.41 1643.52 1494.08 1650.03 1494.08C1656.55 1494.08 1661.84 1499.41 1661.84 1505.99C1661.84 1512.57 1656.55 1517.9 1650.03 1517.9ZM1496.59 1634.62C1496.59 1643.83 1503.98 1651.29 1513.11 1651.29C1522.24 1651.29 1529.63 1643.83 1529.63 1634.62C1529.63 1625.41 1522.24 1617.95 1513.11 1617.95C1503.98 1617.95 1496.59 1625.41 1496.59 1634.62ZM1373.84 1527.44C1360.8 1527.44 1350.24 1516.77 1350.24 1503.62C1350.24 1490.46 1360.8 1479.8 1373.84 1479.8C1386.88 1479.8 1397.45 1490.46 1397.45 1503.62C1397.45 1516.77 1386.88 1527.44 1373.84 1527.44ZM1218.05 1637C1218.05 1650.16 1228.62 1660.82 1241.65 1660.82C1254.69 1660.82 1265.26 1650.16 1265.26 1637C1265.26 1623.84 1254.69 1613.18 1241.65 1613.18C1228.62 1613.18 1218.05 1623.84 1218.05 1637ZM1076.4 1532.19C1060.76 1532.19 1048.07 1519.4 1048.07 1503.61C1048.07 1487.82 1060.76 1475.02 1076.4 1475.02C1092.05 1475.02 1104.73 1487.82 1104.73 1503.61C1104.73 1519.4 1092.05 1532.19 1076.4 1532.19ZM906.434 1637.01C906.434 1652.79 919.116 1665.59 934.761 1665.59C950.405 1665.59 963.087 1652.79 963.087 1637.01C963.087 1621.22 950.405 1608.42 934.761 1608.42C919.116 1608.42 906.434 1621.22 906.434 1637.01ZM786.062 1541.72C766.506 1541.72 750.653 1525.72 750.653 1505.99C750.653 1486.26 766.506 1470.26 786.062 1470.26C805.617 1470.26 821.47 1486.26 821.47 1505.99C821.47 1525.72 805.617 1541.72 786.062 1541.72ZM594.85 1637C594.85 1660.68 613.874 1679.88 637.34 1679.88C660.807 1679.88 679.83 1660.68 679.83 1637C679.83 1613.32 660.807 1594.12 637.34 1594.12C613.874 1594.12 594.85 1613.32 594.85 1637ZM450.869 1551.24C426.099 1551.24 406.019 1530.98 406.019 1505.98C406.019 1480.98 426.099 1460.72 450.869 1460.72C475.64 1460.72 495.72 1480.98 495.72 1505.98C495.72 1530.98 475.64 1551.24 450.869 1551.24ZM217.173 1636.99C217.173 1663.31 238.31 1684.64 264.384 1684.64C290.458 1684.64 311.595 1663.31 311.595 1636.99C311.595 1610.68 290.458 1589.35 264.384 1589.35C238.31 1589.35 217.173 1610.68 217.173 1636.99ZM0.00390625 1503.6C0.003905 1532.55 23.2548 1556.01 51.936 1556.01C80.6174 1556.01 103.868 1532.55 103.868 1503.6C103.868 1474.66 80.6174 1451.2 51.936 1451.2C23.2548 1451.2 0.0039075 1474.66 0.00390625 1503.6ZM1772.78 1936.59C1766.27 1936.59 1760.98 1931.26 1760.98 1924.68C1760.98 1918.11 1766.27 1912.77 1772.78 1912.77C1779.3 1912.77 1784.59 1918.11 1784.59 1924.68C1784.59 1931.26 1779.3 1936.59 1772.78 1936.59ZM1638.25 1796.06C1638.25 1802.64 1643.53 1807.97 1650.05 1807.97C1656.57 1807.97 1661.85 1802.64 1661.85 1796.06C1661.85 1789.48 1656.57 1784.15 1650.05 1784.15C1643.53 1784.15 1638.25 1789.48 1638.25 1796.06ZM1513.13 1941.37C1504 1941.37 1496.6 1933.9 1496.6 1924.69C1496.6 1915.48 1504 1908.02 1513.13 1908.02C1522.25 1908.02 1529.65 1915.48 1529.65 1924.69C1529.65 1933.9 1522.25 1941.37 1513.13 1941.37ZM1350.24 1793.68C1350.24 1806.84 1360.8 1817.5 1373.84 1817.5C1386.88 1817.5 1397.45 1806.84 1397.45 1793.68C1397.45 1780.52 1386.88 1769.86 1373.84 1769.86C1360.8 1769.86 1350.24 1780.52 1350.24 1793.68ZM1241.66 1950.89C1228.62 1950.89 1218.06 1940.23 1218.06 1927.07C1218.06 1913.92 1228.62 1903.25 1241.66 1903.25C1254.7 1903.25 1265.27 1913.92 1265.27 1927.07C1265.27 1940.23 1254.7 1950.89 1241.66 1950.89ZM1048.09 1793.68C1048.09 1809.47 1060.77 1822.26 1076.42 1822.26C1092.06 1822.26 1104.74 1809.47 1104.74 1793.68C1104.74 1777.89 1092.06 1765.09 1076.42 1765.09C1060.77 1765.09 1048.09 1777.89 1048.09 1793.68ZM934.768 1955.66C919.124 1955.66 906.442 1942.86 906.442 1927.08C906.442 1911.29 919.124 1898.49 934.768 1898.49C950.413 1898.49 963.095 1911.29 963.095 1927.08C963.095 1942.86 950.413 1955.66 934.768 1955.66ZM750.669 1796.05C750.669 1815.79 766.522 1831.78 786.077 1831.78C805.633 1831.78 821.485 1815.79 821.485 1796.05C821.485 1776.32 805.633 1760.32 786.077 1760.32C766.522 1760.32 750.669 1776.32 750.669 1796.05ZM637.355 1969.94C613.888 1969.94 594.865 1950.75 594.865 1927.07C594.865 1903.38 613.888 1884.19 637.355 1884.19C660.821 1884.19 679.845 1903.38 679.845 1927.07C679.845 1950.75 660.821 1969.94 637.355 1969.94ZM406.034 1796.05C406.034 1821.05 426.115 1841.31 450.885 1841.31C475.655 1841.31 495.735 1821.05 495.735 1796.05C495.735 1771.05 475.655 1750.79 450.885 1750.79C426.115 1750.79 406.034 1771.05 406.034 1796.05ZM264.392 1974.71C238.318 1974.71 217.18 1953.38 217.18 1927.06C217.18 1900.75 238.318 1879.42 264.392 1879.42C290.466 1879.42 311.603 1900.75 311.603 1927.06C311.603 1953.38 290.466 1974.71 264.392 1974.71ZM51.9438 1846.08C23.2626 1846.08 0.0117175 1822.62 0.0117188 1793.67C0.01172 1764.73 23.2626 1741.27 51.9438 1741.27C80.6252 1741.27 103.876 1764.73 103.876 1793.67C103.876 1822.62 80.6252 1846.08 51.9438 1846.08ZM1760.98 2214.76C1760.98 2221.34 1766.27 2226.67 1772.78 2226.67C1779.3 2226.67 1784.59 2221.34 1784.59 2214.76C1784.59 2208.18 1779.3 2202.85 1772.78 2202.85C1766.27 2202.85 1760.98 2208.18 1760.98 2214.76ZM1650.05 2098.05C1643.53 2098.05 1638.25 2092.72 1638.25 2086.14C1638.25 2079.56 1643.53 2074.23 1650.05 2074.23C1656.57 2074.23 1661.85 2079.56 1661.85 2086.14C1661.85 2092.72 1656.57 2098.05 1650.05 2098.05ZM1496.59 2214.77C1496.59 2223.98 1503.99 2231.44 1513.12 2231.44C1522.24 2231.44 1529.64 2223.98 1529.64 2214.77C1529.64 2205.56 1522.24 2198.09 1513.12 2198.09C1503.99 2198.09 1496.59 2205.56 1496.59 2214.77ZM1373.84 2107.58C1360.8 2107.58 1350.24 2096.91 1350.24 2083.76C1350.24 2070.6 1360.8 2059.94 1373.84 2059.94C1386.88 2059.94 1397.45 2070.6 1397.45 2083.76C1397.45 2096.91 1386.88 2107.58 1373.84 2107.58ZM1218.06 2217.16C1218.06 2230.31 1228.62 2240.98 1241.66 2240.98C1254.7 2240.98 1265.27 2230.31 1265.27 2217.16C1265.27 2204 1254.7 2193.34 1241.66 2193.34C1228.62 2193.34 1218.06 2204 1218.06 2217.16ZM1076.4 2112.34C1060.76 2112.34 1048.07 2099.54 1048.07 2083.76C1048.07 2067.97 1060.76 2055.17 1076.4 2055.17C1092.05 2055.17 1104.73 2067.97 1104.73 2083.76C1104.73 2099.54 1092.05 2112.34 1076.4 2112.34ZM906.442 2217.16C906.442 2232.94 919.124 2245.74 934.768 2245.74C950.413 2245.74 963.095 2232.94 963.095 2217.16C963.095 2201.37 950.413 2188.57 934.768 2188.57C919.124 2188.57 906.442 2201.37 906.442 2217.16ZM786.077 2121.86C766.522 2121.86 750.669 2105.86 750.669 2086.13C750.669 2066.4 766.522 2050.4 786.077 2050.4C805.633 2050.4 821.485 2066.4 821.485 2086.13C821.485 2105.86 805.633 2121.86 786.077 2121.86ZM594.857 2217.14C594.857 2240.82 613.881 2260.02 637.347 2260.02C660.814 2260.02 679.837 2240.82 679.837 2217.14C679.837 2193.46 660.814 2174.27 637.347 2174.27C613.881 2174.27 594.857 2193.46 594.857 2217.14ZM450.885 2131.4C426.115 2131.4 406.034 2111.13 406.034 2086.14C406.034 2061.14 426.115 2040.88 450.885 2040.88C475.655 2040.88 495.736 2061.14 495.736 2086.14C495.736 2111.13 475.655 2131.4 450.885 2131.4ZM217.18 2217.15C217.18 2243.46 238.318 2264.79 264.392 2264.79C290.466 2264.79 311.603 2243.46 311.603 2217.15C311.603 2190.84 290.466 2169.51 264.392 2169.51C238.318 2169.51 217.18 2190.84 217.18 2217.15ZM0.0117798 2083.75C0.0117785 2112.69 23.2626 2136.16 51.9439 2136.16C80.6253 2136.16 103.876 2112.69 103.876 2083.75C103.876 2054.81 80.6253 2031.34 51.9439 2031.34C23.2626 2031.34 0.011781 2054.81 0.0117798 2083.75ZM1772.78 2516.74C1766.27 2516.74 1760.98 2511.4 1760.98 2504.82C1760.98 2498.25 1766.27 2492.91 1772.78 2492.91C1779.3 2492.91 1784.59 2498.25 1784.59 2504.82C1784.59 2511.4 1779.3 2516.74 1772.78 2516.74ZM1638.23 2376.2C1638.23 2382.78 1643.52 2388.11 1650.03 2388.11C1656.55 2388.11 1661.84 2382.78 1661.84 2376.2C1661.84 2369.62 1656.55 2364.29 1650.03 2364.29C1643.52 2364.29 1638.23 2369.62 1638.23 2376.2ZM1513.12 2521.51C1503.99 2521.51 1496.59 2514.04 1496.59 2504.83C1496.59 2495.62 1503.99 2488.16 1513.12 2488.16C1522.24 2488.16 1529.64 2495.62 1529.64 2504.83C1529.64 2514.04 1522.24 2521.51 1513.12 2521.51ZM1350.24 2373.82C1350.24 2386.98 1360.8 2397.64 1373.84 2397.64C1386.88 2397.64 1397.45 2386.98 1397.45 2373.82C1397.45 2360.67 1386.88 2350 1373.84 2350C1360.8 2350 1350.24 2360.67 1350.24 2373.82ZM1241.66 2531.03C1228.62 2531.03 1218.06 2520.37 1218.06 2507.21C1218.06 2494.06 1228.62 2483.39 1241.66 2483.39C1254.7 2483.39 1265.27 2494.06 1265.27 2507.21C1265.27 2520.37 1254.7 2531.03 1241.66 2531.03ZM1048.09 2373.82C1048.09 2389.61 1060.77 2402.41 1076.42 2402.41C1092.06 2402.41 1104.74 2389.61 1104.74 2373.82C1104.74 2358.03 1092.06 2345.23 1076.42 2345.23C1060.77 2345.23 1048.09 2358.03 1048.09 2373.82ZM934.768 2535.8C919.124 2535.8 906.442 2523.01 906.442 2507.22C906.442 2491.43 919.124 2478.63 934.768 2478.63C950.413 2478.63 963.095 2491.43 963.095 2507.22C963.095 2523.01 950.413 2535.8 934.768 2535.8ZM750.669 2376.19C750.669 2395.93 766.522 2411.92 786.077 2411.92C805.633 2411.92 821.485 2395.93 821.485 2376.19C821.485 2356.46 805.633 2340.46 786.077 2340.46C766.522 2340.46 750.669 2356.46 750.669 2376.19ZM637.356 2550.09C613.889 2550.09 594.866 2530.9 594.866 2507.21C594.866 2483.53 613.889 2464.34 637.356 2464.34C660.822 2464.34 679.846 2483.53 679.846 2507.21C679.846 2530.9 660.822 2550.09 637.356 2550.09ZM406.034 2376.19C406.034 2401.19 426.115 2421.45 450.885 2421.45C475.655 2421.45 495.735 2401.19 495.735 2376.19C495.735 2351.19 475.655 2330.93 450.885 2330.93C426.115 2330.93 406.034 2351.19 406.034 2376.19ZM264.392 2554.85C238.318 2554.85 217.18 2533.52 217.18 2507.2C217.18 2480.89 238.318 2459.56 264.392 2459.56C290.466 2459.56 311.603 2480.89 311.603 2507.2C311.603 2533.52 290.466 2554.85 264.392 2554.85ZM51.9438 2426.22C23.2626 2426.22 0.0117175 2402.76 0.0117188 2373.81C0.01172 2344.87 23.2626 2321.41 51.9438 2321.41C80.6252 2321.41 103.876 2344.87 103.876 2373.81C103.876 2402.76 80.6252 2426.22 51.9438 2426.22ZM1760.98 2794.9C1760.98 2801.48 1766.27 2806.81 1772.78 2806.81C1779.3 2806.81 1784.59 2801.48 1784.59 2794.9C1784.59 2788.32 1779.3 2782.99 1772.78 2782.99C1766.27 2782.99 1760.98 2788.32 1760.98 2794.9ZM1650.03 2678.19C1643.52 2678.19 1638.23 2672.86 1638.23 2666.28C1638.23 2659.7 1643.52 2654.37 1650.03 2654.37C1656.55 2654.37 1661.84 2659.7 1661.84 2666.28C1661.84 2672.86 1656.55 2678.19 1650.03 2678.19ZM1496.59 2794.91C1496.59 2804.12 1503.99 2811.58 1513.12 2811.58C1522.24 2811.58 1529.64 2804.12 1529.64 2794.91C1529.64 2785.7 1522.24 2778.23 1513.12 2778.23C1503.99 2778.23 1496.59 2785.7 1496.59 2794.91ZM1373.84 2687.72C1360.8 2687.72 1350.24 2677.06 1350.24 2663.9C1350.24 2650.74 1360.8 2640.08 1373.84 2640.08C1386.88 2640.08 1397.45 2650.74 1397.45 2663.9C1397.45 2677.06 1386.88 2687.72 1373.84 2687.72ZM1218.06 2797.29C1218.06 2810.45 1228.62 2821.11 1241.66 2821.11C1254.7 2821.11 1265.27 2810.45 1265.27 2797.29C1265.27 2784.13 1254.7 2773.47 1241.66 2773.47C1228.62 2773.47 1218.06 2784.13 1218.06 2797.29ZM1076.41 2692.48C1060.76 2692.48 1048.08 2679.69 1048.08 2663.9C1048.08 2648.11 1060.76 2635.31 1076.41 2635.31C1092.05 2635.31 1104.74 2648.11 1104.74 2663.9C1104.74 2679.69 1092.05 2692.48 1076.41 2692.48ZM906.442 2797.3C906.442 2813.08 919.124 2825.88 934.768 2825.88C950.413 2825.88 963.095 2813.08 963.095 2797.3C963.095 2781.51 950.413 2768.71 934.768 2768.71C919.124 2768.71 906.442 2781.51 906.442 2797.3ZM786.077 2702C766.522 2702 750.669 2686 750.669 2666.27C750.669 2646.54 766.522 2630.54 786.077 2630.54C805.633 2630.54 821.485 2646.54 821.485 2666.27C821.485 2686 805.633 2702 786.077 2702ZM594.857 2797.28C594.857 2820.97 613.881 2840.16 637.347 2840.16C660.814 2840.16 679.837 2820.97 679.837 2797.28C679.837 2773.6 660.814 2754.41 637.347 2754.41C613.881 2754.41 594.857 2773.6 594.857 2797.28ZM450.885 2711.53C426.115 2711.53 406.034 2691.26 406.034 2666.27C406.034 2641.27 426.115 2621.01 450.885 2621.01C475.655 2621.01 495.735 2641.27 495.735 2666.27C495.735 2691.26 475.655 2711.53 450.885 2711.53ZM217.18 2797.28C217.18 2823.59 238.318 2844.93 264.392 2844.93C290.466 2844.93 311.603 2823.59 311.603 2797.28C311.603 2770.97 290.466 2749.64 264.392 2749.64C238.318 2749.64 217.18 2770.97 217.18 2797.28ZM0.0117188 2663.89C0.0117175 2692.83 23.2626 2716.3 51.9438 2716.3C80.6252 2716.3 103.876 2692.83 103.876 2663.89C103.876 2634.95 80.6252 2611.48 51.9438 2611.48C23.2626 2611.48 0.01172 2634.95 0.0117188 2663.89ZM1772.78 3096.88C1766.27 3096.88 1760.98 3091.54 1760.98 3084.97C1760.98 3078.39 1766.27 3073.05 1772.78 3073.05C1779.3 3073.05 1784.59 3078.39 1784.59 3084.97C1784.59 3091.54 1779.3 3096.88 1772.78 3096.88ZM1638.23 2956.34C1638.23 2962.92 1643.52 2968.25 1650.03 2968.25C1656.55 2968.25 1661.84 2962.92 1661.84 2956.34C1661.84 2949.76 1656.55 2944.43 1650.03 2944.43C1643.52 2944.43 1638.23 2949.76 1638.23 2956.34ZM1513.12 3101.65C1503.99 3101.65 1496.59 3094.18 1496.59 3084.97C1496.59 3075.76 1503.99 3068.3 1513.12 3068.3C1522.24 3068.3 1529.64 3075.76 1529.64 3084.97C1529.64 3094.18 1522.24 3101.65 1513.12 3101.65ZM1350.24 2953.96C1350.24 2967.12 1360.8 2977.78 1373.84 2977.78C1386.88 2977.78 1397.45 2967.12 1397.45 2953.96C1397.45 2940.81 1386.88 2930.14 1373.84 2930.14C1360.8 2930.14 1350.24 2940.81 1350.24 2953.96ZM1241.66 3111.17C1228.62 3111.17 1218.06 3100.51 1218.06 3087.35C1218.06 3074.2 1228.62 3063.53 1241.66 3063.53C1254.7 3063.53 1265.27 3074.2 1265.27 3087.35C1265.27 3100.51 1254.7 3111.17 1241.66 3111.17ZM1048.07 2953.96C1048.07 2969.75 1060.76 2982.55 1076.4 2982.55C1092.05 2982.55 1104.73 2969.75 1104.73 2953.96C1104.73 2938.17 1092.05 2925.38 1076.4 2925.38C1060.76 2925.38 1048.07 2938.17 1048.07 2953.96ZM934.768 3115.94C919.124 3115.94 906.442 3103.15 906.442 3087.36C906.442 3071.57 919.124 3058.77 934.768 3058.77C950.413 3058.77 963.095 3071.57 963.095 3087.36C963.095 3103.15 950.413 3115.94 934.768 3115.94ZM750.669 2956.33C750.669 2976.07 766.522 2992.06 786.077 2992.06C805.633 2992.06 821.485 2976.07 821.485 2956.33C821.485 2936.6 805.633 2920.6 786.077 2920.6C766.522 2920.6 750.669 2936.6 750.669 2956.33ZM637.347 3130.22C613.881 3130.22 594.857 3111.03 594.857 3087.35C594.857 3063.67 613.881 3044.47 637.347 3044.47C660.814 3044.47 679.837 3063.67 679.837 3087.35C679.837 3111.03 660.814 3130.22 637.347 3130.22ZM406.034 2956.33C406.034 2981.33 426.115 3001.59 450.885 3001.59C475.655 3001.59 495.735 2981.33 495.735 2956.33C495.735 2931.33 475.655 2911.07 450.885 2911.07C426.115 2911.07 406.034 2931.33 406.034 2956.33ZM264.392 3134.99C238.318 3134.99 217.18 3113.66 217.18 3087.35C217.18 3061.03 238.318 3039.7 264.392 3039.7C290.466 3039.7 311.603 3061.03 311.603 3087.35C311.603 3113.66 290.466 3134.99 264.392 3134.99ZM51.9438 3006.36C23.2626 3006.36 0.0117175 2982.9 0.0117188 2953.95C0.01172 2925.01 23.2626 2901.55 51.9438 2901.55C80.6252 2901.55 103.876 2925.01 103.876 2953.95C103.876 2982.9 80.6252 3006.36 51.9438 3006.36Z" fill="url(#paint0_linear_5544_553)"/>
<path opacity="0.1" fill-rule="evenodd" clip-rule="evenodd" d="M3999.04 2957.11C3999.04 2950.53 3993.75 2945.2 3987.23 2945.2C3980.71 2945.2 3975.43 2950.53 3975.43 2957.11C3975.43 2963.69 3980.71 2969.02 3987.23 2969.02C3993.75 2969.02 3999.04 2963.69 3999.04 2957.11ZM4109.98 3073.83C4116.49 3073.83 4121.78 3079.16 4121.78 3085.74C4121.78 3092.32 4116.49 3097.65 4109.98 3097.65C4103.46 3097.65 4098.17 3092.32 4098.17 3085.74C4098.17 3079.16 4103.46 3073.83 4109.98 3073.83ZM4263.41 2957.11C4263.41 2947.9 4256.02 2940.43 4246.89 2940.43C4237.77 2940.43 4230.37 2947.9 4230.37 2957.11C4230.37 2966.32 4237.77 2973.78 4246.89 2973.78C4256.02 2973.78 4263.41 2966.32 4263.41 2957.11ZM4386.17 3064.3C4399.21 3064.3 4409.77 3074.96 4409.77 3088.12C4409.77 3101.27 4399.21 3111.94 4386.17 3111.94C4373.13 3111.94 4362.56 3101.27 4362.56 3088.12C4362.56 3074.96 4373.13 3064.3 4386.17 3064.3ZM4541.96 2954.73C4541.96 2941.58 4531.39 2930.91 4518.36 2930.91C4505.32 2930.91 4494.75 2941.58 4494.75 2954.73C4494.75 2967.89 4505.32 2978.55 4518.36 2978.55C4531.39 2978.55 4541.96 2967.89 4541.96 2954.73ZM4683.62 3059.54C4699.26 3059.54 4711.94 3072.34 4711.94 3088.13C4711.94 3103.91 4699.26 3116.71 4683.62 3116.71C4667.97 3116.71 4655.29 3103.91 4655.29 3088.13C4655.29 3072.34 4667.97 3059.54 4683.62 3059.54ZM4853.58 2954.72C4853.58 2938.93 4840.89 2926.13 4825.25 2926.13C4809.6 2926.13 4796.92 2938.93 4796.92 2954.72C4796.92 2970.51 4809.6 2983.3 4825.25 2983.3C4840.89 2983.3 4853.58 2970.51 4853.58 2954.72ZM4973.95 3050.02C4993.5 3050.02 5009.36 3066.02 5009.36 3085.75C5009.36 3105.49 4993.5 3121.48 4973.95 3121.48C4954.39 3121.48 4938.54 3105.49 4938.54 3085.75C4938.54 3066.02 4954.39 3050.02 4973.95 3050.02ZM5165.16 2954.73C5165.16 2931.05 5146.14 2911.85 5122.67 2911.85C5099.2 2911.85 5080.18 2931.05 5080.18 2954.73C5080.18 2978.41 5099.2 2997.61 5122.67 2997.61C5146.14 2997.61 5165.16 2978.41 5165.16 2954.73ZM5309.14 3040.49C5333.91 3040.49 5353.99 3060.75 5353.99 3085.75C5353.99 3110.74 5333.91 3131.01 5309.14 3131.01C5284.37 3131.01 5264.29 3110.74 5264.29 3085.75C5264.29 3060.75 5284.37 3040.49 5309.14 3040.49ZM5542.84 2954.74C5542.84 2928.43 5521.7 2907.1 5495.63 2907.1C5469.55 2907.1 5448.41 2928.43 5448.41 2954.74C5448.41 2981.05 5469.55 3002.38 5495.63 3002.38C5521.7 3002.38 5542.84 2981.05 5542.84 2954.74ZM5760.01 3088.12C5760.01 3059.18 5736.76 3035.72 5708.07 3035.72C5679.39 3035.72 5656.14 3059.18 5656.14 3088.12C5656.14 3117.07 5679.39 3140.53 5708.07 3140.53C5736.76 3140.53 5760.01 3117.07 5760.01 3088.12ZM3999.04 2666.2C3999.04 2659.62 3993.75 2654.29 3987.23 2654.29C3980.71 2654.29 3975.43 2659.62 3975.43 2666.2C3975.43 2672.78 3980.71 2678.11 3987.23 2678.11C3993.75 2678.11 3999.04 2672.78 3999.04 2666.2ZM4109.98 2782.91C4116.49 2782.91 4121.78 2788.25 4121.78 2794.82C4121.78 2801.4 4116.49 2806.73 4109.98 2806.73C4103.46 2806.73 4098.17 2801.4 4098.17 2794.82C4098.17 2788.25 4103.46 2782.91 4109.98 2782.91ZM4263.42 2666.2C4263.42 2656.99 4256.02 2649.53 4246.89 2649.53C4237.77 2649.53 4230.37 2656.99 4230.37 2666.2C4230.37 2675.41 4237.77 2682.88 4246.89 2682.88C4256.02 2682.88 4263.42 2675.41 4263.42 2666.2ZM4386.17 2773.38C4399.21 2773.38 4409.77 2784.05 4409.77 2797.2C4409.77 2810.36 4399.21 2821.02 4386.17 2821.02C4373.13 2821.02 4362.56 2810.36 4362.56 2797.2C4362.56 2784.05 4373.13 2773.38 4386.17 2773.38ZM4541.96 2663.82C4541.96 2650.66 4531.39 2640 4518.36 2640C4505.32 2640 4494.75 2650.66 4494.75 2663.82C4494.75 2676.98 4505.32 2687.64 4518.36 2687.64C4531.39 2687.64 4541.96 2676.98 4541.96 2663.82ZM4683.61 2768.63C4699.25 2768.63 4711.93 2781.42 4711.93 2797.21C4711.93 2813 4699.25 2825.8 4683.61 2825.8C4667.96 2825.8 4655.28 2813 4655.28 2797.21C4655.28 2781.42 4667.96 2768.63 4683.61 2768.63ZM4853.58 2663.81C4853.58 2648.02 4840.89 2635.22 4825.25 2635.22C4809.6 2635.22 4796.92 2648.02 4796.92 2663.81C4796.92 2679.59 4809.6 2692.39 4825.25 2692.39C4840.89 2692.39 4853.58 2679.59 4853.58 2663.81ZM4973.95 2759.11C4993.5 2759.11 5009.36 2775.1 5009.36 2794.84C5009.36 2814.57 4993.5 2830.57 4973.95 2830.57C4954.39 2830.57 4938.54 2814.57 4938.54 2794.84C4938.54 2775.1 4954.39 2759.11 4973.95 2759.11ZM5165.16 2663.82C5165.16 2640.14 5146.14 2620.94 5122.67 2620.94C5099.2 2620.94 5080.18 2640.14 5080.18 2663.82C5080.18 2687.5 5099.2 2706.7 5122.67 2706.7C5146.14 2706.7 5165.16 2687.5 5165.16 2663.82ZM5309.14 2749.57C5333.91 2749.57 5353.99 2769.84 5353.99 2794.83C5353.99 2819.83 5333.91 2840.09 5309.14 2840.09C5284.37 2840.09 5264.29 2819.83 5264.29 2794.83C5264.29 2769.84 5284.37 2749.57 5309.14 2749.57ZM5542.84 2663.83C5542.84 2637.51 5521.7 2616.18 5495.63 2616.18C5469.55 2616.18 5448.41 2637.51 5448.41 2663.83C5448.41 2690.14 5469.55 2711.47 5495.63 2711.47C5521.7 2711.47 5542.84 2690.14 5542.84 2663.83ZM5760.01 2797.21C5760.01 2768.27 5736.76 2744.8 5708.07 2744.8C5679.39 2744.8 5656.14 2768.27 5656.14 2797.21C5656.14 2826.15 5679.39 2849.62 5708.07 2849.62C5736.76 2849.62 5760.01 2826.15 5760.01 2797.21ZM3987.23 2364.2C3993.74 2364.2 3999.03 2369.54 3999.03 2376.11C3999.03 2382.69 3993.74 2388.02 3987.23 2388.02C3980.71 2388.02 3975.42 2382.69 3975.42 2376.11C3975.42 2369.54 3980.71 2364.2 3987.23 2364.2ZM4121.78 2504.75C4121.78 2498.17 4116.49 2492.84 4109.98 2492.84C4103.46 2492.84 4098.17 2498.17 4098.17 2504.75C4098.17 2511.32 4103.46 2516.66 4109.98 2516.66C4116.49 2516.66 4121.78 2511.32 4121.78 2504.75ZM4246.88 2359.45C4256.01 2359.45 4263.41 2366.91 4263.41 2376.12C4263.41 2385.33 4256.01 2392.8 4246.88 2392.8C4237.76 2392.8 4230.36 2385.33 4230.36 2376.12C4230.36 2366.91 4237.76 2359.45 4246.88 2359.45ZM4409.77 2507.12C4409.77 2493.96 4399.21 2483.3 4386.17 2483.3C4373.13 2483.3 4362.56 2493.96 4362.56 2507.12C4362.56 2520.27 4373.13 2530.94 4386.17 2530.94C4399.21 2530.94 4409.77 2520.27 4409.77 2507.12ZM4518.35 2349.91C4531.39 2349.91 4541.95 2360.57 4541.95 2373.73C4541.95 2386.88 4531.39 2397.55 4518.35 2397.55C4505.31 2397.55 4494.74 2386.88 4494.74 2373.73C4494.74 2360.57 4505.31 2349.91 4518.35 2349.91ZM4711.93 2507.13C4711.93 2491.34 4699.25 2478.54 4683.6 2478.54C4667.96 2478.54 4655.27 2491.34 4655.27 2507.13C4655.27 2522.91 4667.96 2535.71 4683.6 2535.71C4699.25 2535.71 4711.93 2522.91 4711.93 2507.13ZM4825.24 2345.13C4840.89 2345.13 4853.57 2357.93 4853.57 2373.72C4853.57 2389.51 4840.89 2402.31 4825.24 2402.31C4809.6 2402.31 4796.91 2389.51 4796.91 2373.72C4796.91 2357.93 4809.6 2345.13 4825.24 2345.13ZM5009.34 2504.75C5009.34 2485.02 4993.49 2469.02 4973.93 2469.02C4954.38 2469.02 4938.52 2485.02 4938.52 2504.75C4938.52 2524.49 4954.38 2540.48 4973.93 2540.48C4993.49 2540.48 5009.34 2524.49 5009.34 2504.75ZM5122.66 2330.85C5146.13 2330.85 5165.15 2350.05 5165.15 2373.73C5165.15 2397.41 5146.13 2416.61 5122.66 2416.61C5099.2 2416.61 5080.17 2397.41 5080.17 2373.73C5080.17 2350.05 5099.2 2330.85 5122.66 2330.85ZM5353.98 2504.75C5353.98 2479.75 5333.9 2459.49 5309.12 2459.49C5284.35 2459.49 5264.27 2479.75 5264.27 2504.75C5264.27 2529.74 5284.35 2550.01 5309.12 2550.01C5333.9 2550.01 5353.98 2529.74 5353.98 2504.75ZM5495.62 2326.09C5521.69 2326.09 5542.83 2347.42 5542.83 2373.73C5542.83 2400.05 5521.69 2421.38 5495.62 2421.38C5469.54 2421.38 5448.41 2400.05 5448.41 2373.73C5448.41 2347.42 5469.54 2326.09 5495.62 2326.09ZM5708.07 2454.72C5736.75 2454.72 5760 2478.18 5760 2507.13C5760 2536.07 5736.75 2559.53 5708.07 2559.53C5679.38 2559.53 5656.13 2536.07 5656.13 2507.13C5656.13 2478.18 5679.38 2454.72 5708.07 2454.72ZM3999.04 2086.04C3999.04 2079.47 3993.75 2074.13 3987.23 2074.13C3980.71 2074.13 3975.43 2079.47 3975.43 2086.04C3975.43 2092.62 3980.71 2097.95 3987.23 2097.95C3993.75 2097.95 3999.04 2092.62 3999.04 2086.04ZM4109.98 2202.77C4116.49 2202.77 4121.78 2208.1 4121.78 2214.68C4121.78 2221.25 4116.49 2226.59 4109.98 2226.59C4103.46 2226.59 4098.17 2221.25 4098.17 2214.68C4098.17 2208.1 4103.46 2202.77 4109.98 2202.77ZM4263.41 2086.04C4263.41 2076.84 4256.02 2069.37 4246.89 2069.37C4237.77 2069.37 4230.37 2076.84 4230.37 2086.04C4230.37 2095.25 4237.76 2102.72 4246.89 2102.72C4256.02 2102.72 4263.41 2095.25 4263.41 2086.04ZM4386.17 2193.23C4399.21 2193.23 4409.77 2203.89 4409.77 2217.05C4409.77 2230.2 4399.21 2240.87 4386.17 2240.87C4373.13 2240.87 4362.56 2230.2 4362.56 2217.05C4362.56 2203.89 4373.13 2193.23 4386.17 2193.23ZM4541.96 2083.66C4541.96 2070.5 4531.39 2059.83 4518.36 2059.83C4505.32 2059.83 4494.75 2070.5 4494.75 2083.66C4494.75 2096.81 4505.32 2107.48 4518.36 2107.48C4531.39 2107.48 4541.96 2096.81 4541.96 2083.66ZM4683.62 2188.47C4699.26 2188.47 4711.94 2201.27 4711.94 2217.06C4711.94 2232.84 4699.26 2245.64 4683.62 2245.64C4667.97 2245.64 4655.29 2232.84 4655.29 2217.06C4655.29 2201.27 4667.97 2188.47 4683.62 2188.47ZM4853.58 2083.66C4853.58 2067.87 4840.89 2055.07 4825.25 2055.07C4809.6 2055.07 4796.92 2067.87 4796.92 2083.66C4796.92 2099.44 4809.6 2112.24 4825.25 2112.24C4840.89 2112.24 4853.58 2099.44 4853.58 2083.66ZM4973.95 2178.94C4993.5 2178.94 5009.36 2194.93 5009.36 2214.67C5009.36 2234.4 4993.5 2250.4 4973.95 2250.4C4954.39 2250.4 4938.54 2234.4 4938.54 2214.67C4938.54 2194.93 4954.39 2178.94 4973.95 2178.94ZM5165.16 2083.66C5165.16 2059.98 5146.14 2040.78 5122.67 2040.78C5099.2 2040.78 5080.18 2059.98 5080.18 2083.66C5080.18 2107.34 5099.2 2126.54 5122.67 2126.54C5146.14 2126.54 5165.16 2107.34 5165.16 2083.66ZM5309.13 2169.42C5333.9 2169.42 5353.98 2189.68 5353.98 2214.68C5353.98 2239.67 5333.9 2259.94 5309.13 2259.94C5284.36 2259.94 5264.28 2239.67 5264.28 2214.68C5264.28 2189.68 5284.36 2169.42 5309.13 2169.42ZM5542.84 2083.67C5542.84 2057.36 5521.7 2036.03 5495.63 2036.03C5469.55 2036.03 5448.41 2057.36 5448.41 2083.67C5448.41 2109.98 5469.55 2131.31 5495.63 2131.31C5521.7 2131.31 5542.84 2109.98 5542.84 2083.67ZM5760.01 2217.05C5760.01 2188.11 5736.76 2164.65 5708.07 2164.65C5679.39 2164.65 5656.14 2188.11 5656.14 2217.05C5656.14 2246 5679.39 2269.46 5708.07 2269.46C5736.76 2269.46 5760.01 2246 5760.01 2217.05ZM3987.23 1784.08C3993.75 1784.08 3999.04 1789.41 3999.04 1795.99C3999.04 1802.57 3993.75 1807.9 3987.23 1807.9C3980.71 1807.9 3975.43 1802.57 3975.43 1795.99C3975.43 1789.41 3980.71 1784.08 3987.23 1784.08ZM4121.78 1924.61C4121.78 1918.03 4116.49 1912.7 4109.98 1912.7C4103.46 1912.7 4098.17 1918.03 4098.17 1924.61C4098.17 1931.19 4103.46 1936.52 4109.98 1936.52C4116.49 1936.52 4121.78 1931.19 4121.78 1924.61ZM4246.9 1779.31C4256.03 1779.31 4263.42 1786.78 4263.42 1795.99C4263.42 1805.2 4256.03 1812.66 4246.9 1812.66C4237.77 1812.66 4230.38 1805.2 4230.38 1795.99C4230.38 1786.78 4237.77 1779.31 4246.9 1779.31ZM4409.77 1927C4409.77 1913.84 4399.21 1903.18 4386.17 1903.18C4373.13 1903.18 4362.56 1913.84 4362.56 1927C4362.56 1940.16 4373.13 1950.82 4386.17 1950.82C4399.21 1950.82 4409.77 1940.16 4409.77 1927ZM4518.36 1769.78C4531.39 1769.78 4541.96 1780.44 4541.96 1793.6C4541.96 1806.76 4531.39 1817.42 4518.36 1817.42C4505.32 1817.42 4494.75 1806.76 4494.75 1793.6C4494.75 1780.44 4505.32 1769.78 4518.36 1769.78ZM4711.93 1927.01C4711.93 1911.22 4699.25 1898.42 4683.61 1898.42C4667.96 1898.42 4655.28 1911.22 4655.28 1927.01C4655.28 1942.8 4667.96 1955.59 4683.61 1955.59C4699.25 1955.59 4711.93 1942.8 4711.93 1927.01ZM4825.25 1765.02C4840.89 1765.02 4853.58 1777.81 4853.58 1793.6C4853.58 1809.39 4840.89 1822.19 4825.25 1822.19C4809.6 1822.19 4796.92 1809.39 4796.92 1793.6C4796.92 1777.81 4809.6 1765.02 4825.25 1765.02ZM5009.35 1924.63C5009.35 1904.89 4993.5 1888.9 4973.94 1888.9C4954.38 1888.9 4938.53 1904.89 4938.53 1924.63C4938.53 1944.36 4954.38 1960.36 4973.94 1960.36C4993.5 1960.36 5009.35 1944.36 5009.35 1924.63ZM5122.67 1750.74C5146.14 1750.74 5165.16 1769.93 5165.16 1793.61C5165.16 1817.29 5146.14 1836.49 5122.67 1836.49C5099.2 1836.49 5080.18 1817.29 5080.18 1793.61C5080.18 1769.93 5099.2 1750.74 5122.67 1750.74ZM5353.99 1924.62C5353.99 1899.63 5333.91 1879.36 5309.14 1879.36C5284.37 1879.36 5264.29 1899.63 5264.29 1924.62C5264.29 1949.62 5284.37 1969.88 5309.14 1969.88C5333.91 1969.88 5353.99 1949.62 5353.99 1924.62ZM5495.63 1745.97C5521.7 1745.97 5542.84 1767.3 5542.84 1793.61C5542.84 1819.92 5521.7 1841.25 5495.63 1841.25C5469.55 1841.25 5448.41 1819.92 5448.41 1793.61C5448.41 1767.3 5469.55 1745.97 5495.63 1745.97ZM5708.07 1874.59C5736.75 1874.59 5760.01 1898.06 5760.01 1927C5760.01 1955.94 5736.75 1979.41 5708.07 1979.41C5679.39 1979.41 5656.14 1955.94 5656.14 1927C5656.14 1898.06 5679.39 1874.59 5708.07 1874.59ZM3999.03 1505.92C3999.03 1499.34 3993.74 1494.01 3987.23 1494.01C3980.71 1494.01 3975.42 1499.34 3975.42 1505.92C3975.42 1512.5 3980.71 1517.83 3987.23 1517.83C3993.74 1517.83 3999.03 1512.5 3999.03 1505.92ZM4109.97 1622.63C4116.49 1622.63 4121.77 1627.96 4121.77 1634.54C4121.77 1641.12 4116.49 1646.45 4109.97 1646.45C4103.45 1646.45 4098.16 1641.12 4098.16 1634.54C4098.16 1627.96 4103.45 1622.63 4109.97 1622.63ZM4263.42 1505.92C4263.42 1496.71 4256.02 1489.24 4246.89 1489.24C4237.77 1489.24 4230.37 1496.71 4230.37 1505.92C4230.37 1515.13 4237.77 1522.59 4246.89 1522.59C4256.02 1522.59 4263.42 1515.13 4263.42 1505.92ZM4386.16 1613.1C4399.2 1613.1 4409.77 1623.76 4409.77 1636.92C4409.77 1650.08 4399.2 1660.74 4386.16 1660.74C4373.12 1660.74 4362.56 1650.08 4362.56 1636.92C4362.56 1623.76 4373.12 1613.1 4386.16 1613.1ZM4541.95 1503.53C4541.95 1490.37 4531.39 1479.71 4518.35 1479.71C4505.31 1479.71 4494.74 1490.37 4494.74 1503.53C4494.74 1516.69 4505.31 1527.35 4518.35 1527.35C4531.39 1527.35 4541.95 1516.69 4541.95 1503.53ZM4683.6 1608.34C4699.25 1608.34 4711.93 1621.14 4711.93 1636.93C4711.93 1652.72 4699.25 1665.52 4683.6 1665.52C4667.96 1665.52 4655.27 1652.72 4655.27 1636.93C4655.27 1621.14 4667.96 1608.34 4683.6 1608.34ZM4853.57 1503.52C4853.57 1487.74 4840.89 1474.94 4825.24 1474.94C4809.6 1474.94 4796.91 1487.74 4796.91 1503.52C4796.91 1519.31 4809.6 1532.11 4825.24 1532.11C4840.89 1532.11 4853.57 1519.31 4853.57 1503.52ZM4973.94 1598.81C4993.5 1598.81 5009.35 1614.81 5009.35 1634.54C5009.35 1654.28 4993.5 1670.27 4973.94 1670.27C4954.38 1670.27 4938.53 1654.28 4938.53 1634.54C4938.53 1614.81 4954.38 1598.81 4973.94 1598.81ZM5165.15 1503.53C5165.15 1479.85 5146.13 1460.65 5122.66 1460.65C5099.2 1460.65 5080.17 1479.85 5080.17 1503.53C5080.17 1527.21 5099.2 1546.41 5122.66 1546.41C5146.13 1546.41 5165.15 1527.21 5165.15 1503.53ZM5309.13 1589.29C5333.9 1589.29 5353.98 1609.56 5353.98 1634.55C5353.98 1659.55 5333.9 1679.81 5309.13 1679.81C5284.36 1679.81 5264.28 1659.55 5264.28 1634.55C5264.28 1609.56 5284.36 1589.29 5309.13 1589.29ZM5542.83 1503.54C5542.83 1477.22 5521.69 1455.89 5495.62 1455.89C5469.54 1455.89 5448.41 1477.22 5448.41 1503.54C5448.41 1529.85 5469.54 1551.18 5495.62 1551.18C5521.69 1551.18 5542.83 1529.85 5542.83 1503.54ZM5760 1636.93C5760 1607.99 5736.75 1584.52 5708.07 1584.52C5679.38 1584.52 5656.13 1607.99 5656.13 1636.93C5656.13 1665.87 5679.38 1689.34 5708.07 1689.34C5736.75 1689.34 5760 1665.87 5760 1636.93ZM3987.22 1203.94C3993.74 1203.94 3999.02 1209.27 3999.02 1215.85C3999.02 1222.42 3993.74 1227.76 3987.22 1227.76C3980.7 1227.76 3975.41 1222.42 3975.41 1215.85C3975.41 1209.27 3980.7 1203.94 3987.22 1203.94ZM4121.75 1344.47C4121.75 1337.89 4116.47 1332.56 4109.95 1332.56C4103.43 1332.56 4098.15 1337.89 4098.15 1344.47C4098.15 1351.05 4103.43 1356.38 4109.95 1356.38C4116.47 1356.38 4121.75 1351.05 4121.75 1344.47ZM4246.88 1199.17C4256 1199.17 4263.4 1206.63 4263.4 1215.84C4263.4 1225.05 4256 1232.52 4246.88 1232.52C4237.75 1232.52 4230.35 1225.05 4230.35 1215.84C4230.35 1206.63 4237.75 1199.17 4246.88 1199.17ZM4409.77 1346.85C4409.77 1333.69 4399.2 1323.03 4386.16 1323.03C4373.12 1323.03 4362.56 1333.69 4362.56 1346.85C4362.56 1360.01 4373.12 1370.67 4386.16 1370.67C4399.2 1370.67 4409.77 1360.01 4409.77 1346.85ZM4518.34 1189.65C4531.38 1189.65 4541.95 1200.31 4541.95 1213.47C4541.95 1226.62 4531.38 1237.29 4518.34 1237.29C4505.3 1237.29 4494.74 1226.62 4494.74 1213.47C4494.74 1200.31 4505.3 1189.65 4518.34 1189.65ZM4711.91 1346.86C4711.91 1331.07 4699.23 1318.27 4683.59 1318.27C4667.94 1318.27 4655.26 1331.07 4655.26 1346.86C4655.26 1362.65 4667.94 1375.44 4683.59 1375.44C4699.23 1375.44 4711.91 1362.65 4711.91 1346.86ZM4825.23 1184.87C4840.88 1184.87 4853.56 1197.67 4853.56 1213.45C4853.56 1229.24 4840.88 1242.04 4825.23 1242.04C4809.59 1242.04 4796.91 1229.24 4796.91 1213.45C4796.91 1197.67 4809.59 1184.87 4825.23 1184.87ZM5009.33 1344.48C5009.33 1324.74 4993.48 1308.75 4973.92 1308.75C4954.37 1308.75 4938.52 1324.74 4938.52 1344.48C4938.52 1364.21 4954.37 1380.21 4973.92 1380.21C4993.48 1380.21 5009.33 1364.21 5009.33 1344.48ZM5122.65 1170.59C5146.11 1170.59 5165.14 1189.78 5165.14 1213.47C5165.14 1237.15 5146.11 1256.34 5122.65 1256.34C5099.18 1256.34 5080.16 1237.15 5080.16 1213.47C5080.16 1189.78 5099.18 1170.59 5122.65 1170.59ZM5353.97 1344.48C5353.97 1319.49 5333.89 1299.22 5309.12 1299.22C5284.35 1299.22 5264.27 1319.49 5264.27 1344.48C5264.27 1369.48 5284.35 1389.74 5309.12 1389.74C5333.89 1389.74 5353.97 1369.48 5353.97 1344.48ZM5495.61 1165.82C5521.68 1165.82 5542.82 1187.15 5542.82 1213.47C5542.82 1239.78 5521.68 1261.11 5495.61 1261.11C5469.54 1261.11 5448.4 1239.78 5448.4 1213.47C5448.4 1187.15 5469.54 1165.82 5495.61 1165.82ZM5708.06 1294.45C5736.74 1294.45 5759.99 1317.92 5759.99 1346.86C5759.99 1375.8 5736.74 1399.27 5708.06 1399.27C5679.38 1399.27 5656.13 1375.8 5656.13 1346.86C5656.13 1317.92 5679.38 1294.45 5708.06 1294.45ZM3999.02 925.769C3999.02 919.191 3993.74 913.858 3987.22 913.858C3980.7 913.858 3975.41 919.191 3975.41 925.769C3975.41 932.347 3980.7 937.679 3987.22 937.679C3993.74 937.679 3999.02 932.347 3999.02 925.769ZM4109.95 1042.48C4116.47 1042.48 4121.75 1047.82 4121.75 1054.39C4121.75 1060.97 4116.47 1066.3 4109.95 1066.3C4103.43 1066.3 4098.15 1060.97 4098.15 1054.39C4098.15 1047.82 4103.43 1042.48 4109.95 1042.48ZM4263.41 925.763C4263.41 916.554 4256.01 909.088 4246.88 909.088C4237.76 909.088 4230.36 916.554 4230.36 925.763C4230.36 934.973 4237.76 942.438 4246.88 942.438C4256.01 942.438 4263.41 934.973 4263.41 925.763ZM4386.16 1032.95C4399.2 1032.95 4409.77 1043.62 4409.77 1056.77C4409.77 1069.93 4399.2 1080.59 4386.16 1080.59C4373.12 1080.59 4362.56 1069.93 4362.56 1056.77C4362.56 1043.62 4373.12 1032.95 4386.16 1032.95ZM4541.95 923.381C4541.95 910.225 4531.38 899.56 4518.34 899.56C4505.3 899.56 4494.74 910.225 4494.74 923.381C4494.74 936.538 4505.3 947.203 4518.34 947.203C4531.38 947.203 4541.95 936.538 4541.95 923.381ZM4683.6 1028.2C4699.25 1028.2 4711.93 1040.99 4711.93 1056.78C4711.93 1072.57 4699.25 1085.37 4683.6 1085.37C4667.96 1085.37 4655.27 1072.57 4655.27 1056.78C4655.27 1040.99 4667.96 1028.2 4683.6 1028.2ZM4853.56 923.375C4853.56 907.588 4840.88 894.79 4825.23 894.79C4809.59 894.79 4796.91 907.588 4796.91 923.375C4796.91 939.163 4809.59 951.961 4825.23 951.961C4840.88 951.961 4853.56 939.163 4853.56 923.375ZM4973.92 1018.67C4993.48 1018.67 5009.33 1034.67 5009.33 1054.4C5009.33 1074.13 4993.48 1090.13 4973.92 1090.13C4954.37 1090.13 4938.52 1074.13 4938.52 1054.4C4938.52 1034.67 4954.37 1018.67 4973.92 1018.67ZM5165.14 923.387C5165.14 899.706 5146.12 880.509 5122.65 880.509C5099.19 880.509 5080.16 899.706 5080.16 923.387C5080.16 947.068 5099.19 966.265 5122.65 966.265C5146.12 966.265 5165.14 947.068 5165.14 923.387ZM5309.12 1009.14C5333.89 1009.14 5353.97 1029.41 5353.97 1054.4C5353.97 1079.4 5333.89 1099.66 5309.12 1099.66C5284.35 1099.66 5264.27 1079.4 5264.27 1054.4C5264.27 1029.41 5284.35 1009.14 5309.12 1009.14ZM5542.82 923.381C5542.82 897.069 5521.68 875.739 5495.61 875.739C5469.54 875.738 5448.4 897.069 5448.4 923.381C5448.4 949.693 5469.54 971.023 5495.61 971.023C5521.68 971.023 5542.82 949.693 5542.82 923.381ZM5759.99 1056.78C5759.99 1027.84 5736.74 1004.37 5708.06 1004.37C5679.38 1004.37 5656.13 1027.84 5656.13 1056.78C5656.13 1085.72 5679.38 1109.19 5708.06 1109.19C5736.74 1109.19 5759.99 1085.72 5759.99 1056.78ZM3987.22 623.789C3993.74 623.789 3999.02 629.121 3999.02 635.699C3999.02 642.277 3993.74 647.61 3987.22 647.61C3980.7 647.61 3975.41 642.277 3975.41 635.699C3975.41 629.121 3980.7 623.789 3987.22 623.789ZM4121.77 764.324C4121.77 757.746 4116.49 752.414 4109.97 752.414C4103.45 752.414 4098.16 757.746 4098.16 764.324C4098.16 770.902 4103.45 776.235 4109.97 776.235C4116.49 776.235 4121.77 770.902 4121.77 764.324ZM4246.88 619.026C4256.01 619.026 4263.41 626.492 4263.41 635.701C4263.41 644.91 4256.01 652.376 4246.88 652.376C4237.76 652.376 4230.36 644.91 4230.36 635.701C4230.36 626.492 4237.76 619.026 4246.88 619.026ZM4409.77 766.703C4409.77 753.547 4399.2 742.882 4386.16 742.882C4373.12 742.882 4362.56 753.547 4362.56 766.703C4362.56 779.859 4373.12 790.524 4386.16 790.524C4399.2 790.524 4409.77 779.859 4409.77 766.703ZM4518.34 609.491C4531.38 609.491 4541.95 620.156 4541.95 633.312C4541.95 646.468 4531.38 657.133 4518.34 657.133C4505.3 657.133 4494.74 646.468 4494.74 633.312C4494.74 620.156 4505.3 609.491 4518.34 609.491ZM4711.91 766.712C4711.91 750.925 4699.23 738.127 4683.59 738.127C4667.94 738.127 4655.26 750.925 4655.26 766.712C4655.26 782.499 4667.94 795.298 4683.59 795.298C4699.23 795.298 4711.91 782.499 4711.91 766.712ZM4825.23 604.72C4840.88 604.72 4853.56 617.518 4853.56 633.306C4853.56 649.093 4840.88 661.891 4825.23 661.891C4809.59 661.891 4796.91 649.093 4796.91 633.306C4796.91 617.518 4809.59 604.72 4825.23 604.72ZM5009.33 764.331C5009.33 744.597 4993.48 728.6 4973.92 728.6C4954.37 728.6 4938.52 744.597 4938.52 764.331C4938.52 784.065 4954.37 800.063 4973.92 800.063C4993.48 800.063 5009.33 784.065 5009.33 764.331ZM5122.65 590.432C5146.11 590.432 5165.14 609.629 5165.14 633.31C5165.14 656.991 5146.11 676.188 5122.65 676.188C5099.18 676.188 5080.16 656.991 5080.16 633.31C5080.16 609.629 5099.18 590.432 5122.65 590.432ZM5353.97 764.334C5353.97 739.338 5333.89 719.074 5309.12 719.074C5284.35 719.074 5264.27 739.338 5264.27 764.334C5264.27 789.331 5284.35 809.594 5309.12 809.594C5333.89 809.594 5353.97 789.331 5353.97 764.334ZM5495.61 585.677C5521.68 585.677 5542.82 607.007 5542.82 633.319C5542.82 659.631 5521.68 680.961 5495.61 680.961C5469.54 680.961 5448.4 659.631 5448.4 633.319C5448.4 607.007 5469.54 585.677 5495.61 585.677ZM5708.06 714.305C5736.74 714.305 5759.99 737.768 5759.99 766.711C5759.99 795.655 5736.74 819.118 5708.06 819.118C5679.38 819.118 5656.13 795.655 5656.13 766.711C5656.13 737.768 5679.38 714.305 5708.06 714.305ZM3999.02 345.629C3999.02 339.051 3993.74 333.719 3987.22 333.719C3980.7 333.719 3975.41 339.051 3975.41 345.629C3975.41 352.207 3980.7 357.54 3987.22 357.54C3993.74 357.54 3999.02 352.207 3999.02 345.629ZM4109.97 462.343C4116.49 462.343 4121.77 467.676 4121.77 474.254C4121.77 480.832 4116.49 486.165 4109.97 486.165C4103.45 486.165 4098.16 480.832 4098.16 474.254C4098.16 467.676 4103.45 462.343 4109.97 462.343ZM4263.41 345.63C4263.41 336.421 4256.01 328.956 4246.88 328.956C4237.76 328.956 4230.36 336.421 4230.36 345.63C4230.36 354.84 4237.76 362.305 4246.88 362.305C4256.01 362.305 4263.41 354.84 4263.41 345.63ZM4386.16 452.811C4399.2 452.811 4409.77 463.476 4409.77 476.632C4409.77 489.789 4399.2 500.454 4386.16 500.454C4373.12 500.454 4362.56 489.789 4362.56 476.632C4362.56 463.476 4373.12 452.811 4386.16 452.811ZM4541.95 343.242C4541.95 330.086 4531.38 319.421 4518.34 319.421C4505.3 319.421 4494.74 330.086 4494.74 343.242C4494.74 356.398 4505.3 367.063 4518.34 367.063C4531.38 367.063 4541.95 356.398 4541.95 343.242ZM4683.59 448.056C4699.24 448.056 4711.92 460.854 4711.92 476.642C4711.92 492.429 4699.24 505.227 4683.59 505.227C4667.95 505.227 4655.27 492.429 4655.27 476.642C4655.27 460.854 4667.95 448.056 4683.59 448.056ZM4853.56 343.236C4853.56 327.448 4840.88 314.65 4825.23 314.65C4809.59 314.65 4796.91 327.448 4796.91 343.236C4796.91 359.023 4809.59 371.821 4825.23 371.821C4840.88 371.821 4853.56 359.023 4853.56 343.236ZM4973.92 438.529C4993.48 438.529 5009.33 454.527 5009.33 474.261C5009.33 493.995 4993.48 509.993 4973.92 509.993C4954.37 509.993 4938.52 493.995 4938.52 474.261C4938.52 454.527 4954.37 438.529 4973.92 438.529ZM5165.14 343.248C5165.14 319.567 5146.12 300.37 5122.65 300.37C5099.19 300.37 5080.16 319.567 5080.16 343.247C5080.16 366.928 5099.19 386.125 5122.65 386.125C5146.12 386.125 5165.14 366.928 5165.14 343.248ZM5309.12 429.004C5333.89 429.004 5353.97 449.267 5353.97 474.264C5353.97 499.26 5333.89 519.524 5309.12 519.524C5284.35 519.524 5264.27 499.26 5264.27 474.264C5264.27 449.267 5284.35 429.004 5309.12 429.004ZM5542.82 343.249C5542.82 316.937 5521.68 295.607 5495.61 295.607C5469.54 295.607 5448.4 316.937 5448.4 343.249C5448.4 369.561 5469.54 390.891 5495.61 390.891C5521.68 390.891 5542.82 369.561 5542.82 343.249ZM5759.99 476.641C5759.99 447.698 5736.74 424.234 5708.06 424.234C5679.38 424.234 5656.13 447.698 5656.13 476.641C5656.13 505.584 5679.38 529.047 5708.06 529.047C5736.74 529.047 5759.99 505.584 5759.99 476.641ZM3987.22 43.6561C3993.74 43.6561 3999.02 48.9886 3999.02 55.5665C3999.02 62.1446 3993.74 67.4771 3987.22 67.4771C3980.7 67.4771 3975.41 62.1446 3975.41 55.5665C3975.41 48.9886 3980.7 43.6561 3987.22 43.6561ZM4121.77 184.192C4121.77 177.614 4116.49 172.281 4109.97 172.281C4103.45 172.281 4098.16 177.614 4098.16 184.192C4098.16 190.77 4103.45 196.102 4109.97 196.102C4116.49 196.102 4121.77 190.77 4121.77 184.192ZM4246.88 38.8932C4256.01 38.8932 4263.41 46.3588 4263.41 55.568C4263.41 64.7772 4256.01 72.2428 4246.88 72.2428C4237.76 72.2428 4230.36 64.7772 4230.36 55.568C4230.36 46.3588 4237.76 38.8932 4246.88 38.8932ZM4409.77 186.57C4409.77 173.414 4399.2 162.749 4386.16 162.749C4373.12 162.749 4362.56 173.414 4362.56 186.57C4362.56 199.726 4373.12 210.391 4386.16 210.391C4399.2 210.391 4409.77 199.726 4409.77 186.57ZM4518.34 29.3583C4531.38 29.3583 4541.95 40.0233 4541.95 53.1793C4541.95 66.3356 4531.38 77.0006 4518.34 77.0006C4505.3 77.0006 4494.74 66.3356 4494.74 53.1793C4494.74 40.0233 4505.3 29.3583 4518.34 29.3583ZM4711.93 186.579C4711.93 170.792 4699.25 157.994 4683.6 157.994C4667.96 157.994 4655.27 170.792 4655.27 186.579C4655.27 202.367 4667.96 215.165 4683.6 215.165C4699.25 215.165 4711.93 202.367 4711.93 186.579ZM4825.23 24.5876C4840.88 24.5876 4853.56 37.3857 4853.56 53.173C4853.56 68.9604 4840.88 81.7585 4825.23 81.7585C4809.59 81.7585 4796.91 68.9604 4796.91 53.173C4796.91 37.3857 4809.59 24.5876 4825.23 24.5876ZM5009.33 184.199C5009.33 164.465 4993.48 148.467 4973.92 148.467C4954.37 148.467 4938.52 164.465 4938.52 184.199C4938.52 203.933 4954.37 219.93 4973.92 219.93C4993.48 219.93 5009.33 203.933 5009.33 184.199ZM5122.65 10.3071C5146.12 10.3071 5165.14 29.5041 5165.14 53.185C5165.14 76.8659 5146.12 96.0629 5122.65 96.0629C5099.19 96.0629 5080.16 76.8659 5080.16 53.185C5080.16 29.5041 5099.19 10.3071 5122.65 10.3071ZM5353.97 184.201C5353.97 159.205 5333.89 138.941 5309.12 138.941C5284.35 138.941 5264.27 159.205 5264.27 184.201C5264.27 209.198 5284.35 229.461 5309.12 229.461C5333.89 229.461 5353.97 209.198 5353.97 184.201ZM5495.61 5.54417C5521.68 5.54417 5542.82 26.8742 5542.82 53.1865C5542.82 79.4985 5521.68 100.829 5495.61 100.829C5469.54 100.829 5448.4 79.4985 5448.4 53.1865C5448.4 26.8742 5469.54 5.54416 5495.61 5.54417ZM5708.06 134.172C5736.74 134.172 5759.99 157.635 5759.99 186.578C5759.99 215.522 5736.74 238.985 5708.06 238.985C5679.38 238.985 5656.13 215.522 5656.13 186.578C5656.13 157.635 5679.38 134.172 5708.06 134.172Z" fill="url(#paint1_linear_5544_553)"/>
<defs>
<linearGradient id="paint0_linear_5544_553" x1="-0.00392365" y1="988.116" x2="2130.73" y2="993.112" gradientUnits="userSpaceOnUse">
<stop stop-color="#010101"/>
<stop offset="1" stop-opacity="0.13"/>
</linearGradient>
<linearGradient id="paint1_linear_5544_553" x1="5760.01" y1="2152.42" x2="3629.27" y2="2147.42" gradientUnits="userSpaceOnUse">
<stop stop-color="#010101"/>
<stop offset="1" stop-opacity="0.13"/>
</linearGradient>
</defs>
</svg>
