<?xml version="1.0" encoding="UTF-8"?><svg id="Layer_2" xmlns="http://www.w3.org/2000/svg" viewBox="0 0 77.2 71"><defs><style>.cls-1{fill:#bc1919;}.cls-2{fill:#06ff94;}.cls-3{fill:#a8d650;}.cls-4{fill:#6b9315;}.cls-5{fill:#008e6c;}.cls-6{fill:#cfff83;}.cls-7{fill:#ffa1a1;}.cls-8{fill:#933a3a;}.cls-9{fill:#ff3e3e;}.cls-10{fill:#e4ffb0;}.cls-11{opacity:.53;}.cls-12{opacity:.5;}.cls-13{opacity:.3;}.cls-14{fill:#d18080;}.cls-15{fill:#f88;}.cls-16{fill:#00d37d;}</style></defs><g id="Layer_2-2"><g class="cls-12"><circle cx="37.13" cy="35.5" r="35.5"/></g><path class="cls-8" d="M49.41,22.15l2.59,27.8c.26,2.75-1.79,5.22-4.54,5.47l-36.56,3.41c-2.75.26-5.22-1.79-5.47-4.54L2.2,19.64c-.26-2.75,1.79-5.22,4.54-5.47l29.54-2.75,13.13,10.74Z"/><path class="cls-7" d="M49.23,20.25l2.59,27.8c.26,2.75-1.79,5.22-4.54,5.47l-36.56,3.41c-2.75.26-5.22-1.79-5.47-4.54L2.02,17.74c-.26-2.75,1.79-5.22,4.54-5.47l29.54-2.75,13.13,10.74Z"/><path class="cls-14" d="M45.96,22.1l2.21,23.73c.22,2.35-1.52,4.45-3.87,4.67l-31.2,2.91c-2.35.22-4.45-1.52-4.67-3.87l-2.76-29.57c-.22-2.35,1.52-4.45,3.87-4.67l25.21-2.35,11.21,9.16Z"/><rect class="cls-8" x="11.14" y="19.09" width="22.17" height="6.08" rx="1.91" ry="1.91" transform="translate(-1.96 2.16) rotate(-5.33)"/><rect class="cls-8" x="12.16" y="29.85" width="29.57" height="6.08" rx="2.21" ry="2.21" transform="translate(-2.94 2.64) rotate(-5.33)"/><rect class="cls-8" x="13.2" y="40.95" width="29.57" height="6.08" rx="2.21" ry="2.21" transform="translate(-3.96 2.79) rotate(-5.33)"/><path class="cls-1" d="M19.09,31.15l-3.76-2.79,2.79-3.76c.45-.61.32-1.48-.29-1.94l-1.18-.88c-.61-.45-1.48-.32-1.94.29l-2.79,3.76-3.76-2.79c-.61-.45-1.48-.32-1.94.29l-.88,1.18c-.45.61-.32,1.48.29,1.94l3.76,2.79-2.79,3.76c-.45.61-.32,1.48.29,1.94l1.18.88c.61.45,1.48.32,1.94-.29l2.79-3.76,3.76,2.79c.61.45,1.48.32,1.94-.29l.88-1.18c.45-.61.32-1.48-.29-1.94Z"/><path class="cls-9" d="M18.51,30.72l-3.67-2.72,2.86-3.86c.41-.56.3-1.35-.26-1.76l-.9-.66c-.56-.41-1.35-.3-1.76.26l-2.86,3.85-4.03-2.99c-.46-.34-1.12-.25-1.46.22l-.95,1.29c-.34.46-.25,1.12.22,1.46l4.03,2.99-2.87,3.87c-.41.56-.3,1.35.26,1.76l.9.66c.56.41,1.35.3,1.76-.26l2.87-3.87,3.67,2.72c.46.34,1.12.25,1.46-.22l.95-1.29c.34-.46.25-1.12-.22-1.46Z"/><path class="cls-15" d="M15.55,23.24l-.25-.19c-.2-.15-.48-.11-.63.09l-2.62,3.53-3.53-2.62c-.2-.15-.48-.11-.63.09l-.19.25c-.15.2-.11.48.09.63l3.89,2.89h0l.25.19c.2.15.48.11.63-.09l.19-.25s0,0,0,0l2.89-3.89c.15-.2.11-.48-.09-.63Z"/><path d="M15.8,21.47c.26,0,.52.08.75.25l.1.07.8.59.39.29c.61.45.74,1.32.29,1.94l-2.79,3.76,3.18,2.36.58.43c.61.45.74,1.32.29,1.94l-.88,1.18c-.27.36-.69.56-1.11.56-.29,0-.58-.09-.82-.27l-3.76-2.79-2.79,3.76c-.27.36-.69.56-1.11.56-.29,0-.58-.09-.82-.27l-1.18-.88c-.61-.45-.74-1.32-.29-1.94l.24-.32,2.55-3.43-3.76-2.79c-.61-.45-.74-1.32-.29-1.94l.13-.17.75-1.02.2-.27c.2-.28.52-.42.84-.42.22,0,.44.07.62.2l.27.2,3.76,2.79,2.79-3.76.07-.1c.25-.33.63-.51,1.01-.51M15.8,20.5c-.71,0-1.38.34-1.8.9l-.07.1-2.21,2.97-2.97-2.21-.27-.2c-.35-.26-.77-.4-1.2-.4-.64,0-1.25.3-1.62.82l-.2.27-.75,1.02-.13.17c-.37.5-.53,1.13-.44,1.75.09.62.42,1.17.93,1.55l2.97,2.21-1.97,2.65-.24.32c-.77,1.04-.56,2.52.49,3.3l1.18.88c.41.3.89.46,1.4.46.75,0,1.45-.36,1.9-.95l2.21-2.97,2.97,2.21c.41.3.89.46,1.4.46.75,0,1.45-.36,1.9-.95l.88-1.18c.37-.5.53-1.13.44-1.75-.09-.62-.42-1.17-.93-1.55l-.58-.43-2.4-1.78,2.21-2.97c.37-.5.53-1.13.44-1.75-.09-.62-.42-1.17-.93-1.55l-.39-.29-.8-.59-.1-.07c-.39-.29-.85-.44-1.33-.44h0Z"/><path class="cls-1" d="M21.77,47.23l-3.76-2.79,2.79-3.76c.45-.61.32-1.48-.29-1.94l-1.18-.88c-.61-.45-1.48-.32-1.94.29l-2.79,3.76-3.76-2.79c-.61-.45-1.48-.32-1.94.29l-.88,1.18c-.45.61-.32,1.48.29,1.94l3.76,2.79-2.79,3.76c-.45.61-.32,1.48.29,1.94l1.18.88c.61.45,1.48.32,1.94-.29l2.79-3.76,3.76,2.79c.61.45,1.48.32,1.94-.29l.88-1.18c.45-.61.32-1.48-.29-1.94Z"/><path class="cls-9" d="M21.19,46.8l-3.67-2.72,2.86-3.86c.41-.56.3-1.35-.26-1.76l-.9-.66c-.56-.41-1.35-.3-1.76.26l-2.86,3.85-4.03-2.99c-.46-.34-1.12-.25-1.46.22l-.95,1.29c-.34.46-.25,1.12.22,1.46l4.03,2.99-2.87,3.87c-.41.56-.3,1.35.26,1.76l.9.66c.56.41,1.35.3,1.76-.26l2.87-3.87,3.67,2.72c.46.34,1.12.25,1.46-.22l.95-1.29c.34-.46.25-1.12-.22-1.46Z"/><path class="cls-15" d="M18.23,39.33l-.25-.19c-.2-.15-.48-.11-.63.09l-2.62,3.53-3.53-2.62c-.2-.15-.48-.11-.63.09l-.19.25c-.15.2-.11.48.09.63l3.89,2.89h0l.25.19c.2.15.48.11.63-.09l.19-.25s0,0,0,0l2.89-3.89c.15-.2.11-.48-.09-.63Z"/><path d="M18.48,37.55c.26,0,.52.08.75.25l.1.07.8.59.39.29c.61.45.74,1.32.29,1.94l-2.79,3.76,3.18,2.36.58.43c.61.45.74,1.32.29,1.94l-.88,1.18c-.27.36-.69.56-1.11.56-.29,0-.58-.09-.82-.27l-3.76-2.79-2.79,3.76c-.27.36-.69.56-1.11.56-.29,0-.58-.09-.82-.27l-1.18-.88c-.61-.45-.74-1.32-.29-1.94l.24-.32,2.55-3.43-3.76-2.79c-.61-.45-.74-1.32-.29-1.94l.13-.17.75-1.02.2-.27c.2-.28.52-.42.84-.42.22,0,.44.07.62.2l.27.2,3.76,2.79,2.79-3.76.07-.1c.25-.33.63-.51,1.01-.51M18.48,36.58c-.71,0-1.38.34-1.8.9l-.07.1-2.21,2.97-2.97-2.21-.27-.2c-.35-.26-.77-.4-1.2-.4-.64,0-1.25.3-1.62.82l-.2.27-.75,1.02-.13.17c-.77,1.04-.56,2.52.49,3.3l2.97,2.21-1.97,2.65-.24.32c-.77,1.04-.56,2.52.49,3.3l1.18.88c.41.3.89.46,1.4.46.75,0,1.45-.36,1.9-.95l2.21-2.97,2.97,2.21c.41.3.89.46,1.4.46.75,0,1.45-.36,1.9-.95l.88-1.18c.77-1.04.56-2.52-.49-3.3l-.58-.43-2.4-1.78,2.21-2.97c.37-.5.53-1.13.44-1.75-.09-.62-.42-1.17-.93-1.55l-.39-.29-.8-.59-.1-.07c-.39-.29-.85-.44-1.33-.44h0Z"/><path class="cls-11" d="M49.23,20.25l-13.13-10.74-7.55.7c-.09.19-.19.38-.26.59l-11.22,33.88c-.89,2.69.58,5.62,3.27,6.52l11.4,3.77,15.55-1.45c2.75-.26,4.8-2.72,4.54-5.47l-2.59-27.8Z"/><path class="cls-4" d="M74.58,32.92l-9,27.18c-.89,2.69-3.82,4.17-6.52,3.27l-35.74-11.84c-2.69-.89-4.17-3.82-3.27-6.52L31.27,11.14c.89-2.69,3.82-4.17,6.52-3.27l28.88,9.56,7.92,15.49Z"/><path class="cls-6" d="M75.2,31.06l-9,27.18c-.89,2.69-3.82,4.17-6.52,3.27l-35.74-11.84c-2.69-.89-4.17-3.82-3.27-6.52L31.88,9.28c.89-2.69,3.82-4.17,6.52-3.27l28.88,9.56,7.92,15.49Z"/><path class="cls-3" d="M71.36,31.46l-7.68,23.2c-.76,2.3-3.26,3.55-5.56,2.79l-30.5-10.1c-2.3-.76-3.55-3.26-2.79-5.56l9.58-28.91c.76-2.3,3.26-3.55,5.56-2.79l24.64,8.16,6.76,13.22Z"/><rect class="cls-4" x="37.69" y="18.61" width="22.74" height="6.24" rx="1.96" ry="1.96" transform="translate(9.32 -14.32) rotate(18.33)"/><rect class="cls-4" x="33.9" y="30.65" width="30.32" height="6.24" rx="2.27" ry="2.27" transform="translate(13.11 -13.71) rotate(18.33)"/><path class="cls-13" d="M68.31,18.88l-6.1,5.92c-1.29,3.25,1.06,6.79,4.56,6.87l8.4-.63-6.85-12.16Z"/><rect class="cls-4" x="30.3" y="41.51" width="30.32" height="6.24" rx="2.27" ry="2.27" transform="translate(16.34 -12.03) rotate(18.33)"/><path class="cls-10" d="M67.28,15.57l-3.64,4.52c-2.19,2.73-.99,6.8,2.33,7.91l9.22,3.06-7.92-15.49Z"/><path class="cls-16" d="M36.6,30.51c-.62-.24-1.14-.71-1.43-1.36l-2.81-6.34c-.58-1.3,0-2.83,1.31-3.41s2.83,0,3.41,1.31l1.76,3.98,8.26-3.66c1.3-.58,2.83,0,3.41,1.31s0,2.83-1.31,3.41l-10.62,4.71c-.65.29-1.36.29-1.98.05Z"/><path class="cls-5" d="M49.57,24.79l-10.62,4.71c-.65.29-1.36.29-1.98.05s-1.14-.71-1.43-1.36l-2.81-6.34c-.21-.48-.27-.99-.18-1.47-.45.71-.55,1.62-.19,2.44l2.81,6.34c.29.65.81,1.13,1.43,1.36s1.32.24,1.98-.05l10.62-4.71c.82-.37,1.36-1.11,1.5-1.93-.26.41-.65.76-1.13.97Z"/><rect class="cls-2" x="34.38" y="20.9" width="3.1" height="2.07" rx="1.03" ry="1.03" transform="translate(41.41 -19.8) rotate(66.09)"/><rect class="cls-2" x="45.95" y="21.62" width="2.37" height="2.07" rx="1.03" ry="1.03" transform="translate(99.4 24.26) rotate(156.09)"/><rect class="cls-2" x="39.61" y="23.58" width="6.2" height="2.07" rx="1.03" ry="1.03" transform="translate(91.73 29.81) rotate(156.09)"/><path d="M34.72,19.18c.99,0,1.93.57,2.36,1.54l1.76,3.98,8.26-3.66c.34-.15.7-.22,1.05-.22.99,0,1.93.57,2.36,1.54.58,1.3,0,2.83-1.31,3.41l-10.62,4.71c-.34.15-.7.22-1.05.22-.32,0-.64-.06-.93-.17-.62-.24-1.14-.71-1.43-1.36l-2.81-6.34c-.58-1.3,0-2.83,1.31-3.41.34-.15.7-.22,1.05-.22M34.72,18.15c-.51,0-1,.1-1.46.31-.88.39-1.56,1.1-1.91,2-.35.9-.32,1.88.07,2.77l2.81,6.34c.39.88,1.1,1.56,2,1.91.42.16.86.24,1.3.24.51,0,1-.1,1.46-.31l10.62-4.71c1.82-.81,2.65-2.95,1.84-4.77-.58-1.31-1.88-2.15-3.31-2.15-.51,0-1,.1-1.46.31l-7.31,3.24-1.34-3.03c-.58-1.31-1.88-2.15-3.31-2.15h0Z"/><path class="cls-16" d="M31.82,44.74c-.62-.24-1.14-.71-1.43-1.36l-2.81-6.34c-.58-1.3,0-2.83,1.31-3.41s2.83,0,3.41,1.31l1.76,3.98,8.26-3.66c1.3-.58,2.83,0,3.41,1.31s0,2.83-1.31,3.41l-10.62,4.71c-.65.29-1.36.29-1.98.05Z"/><path class="cls-5" d="M44.79,39.02l-10.62,4.71c-.65.29-1.36.29-1.98.05s-1.14-.71-1.43-1.36l-2.81-6.34c-.21-.48-.27-.99-.18-1.47-.45.71-.55,1.62-.19,2.44l2.81,6.34c.29.65.81,1.13,1.43,1.36s1.32.24,1.98-.05l10.62-4.71c.82-.37,1.36-1.11,1.5-1.93-.26.41-.65.76-1.13.97Z"/><rect class="cls-2" x="29.59" y="35.13" width="3.1" height="2.07" rx="1.03" ry="1.03" transform="translate(51.58 -6.97) rotate(66.09)"/><rect class="cls-2" x="41.16" y="35.85" width="2.37" height="2.07" rx="1.03" ry="1.03" transform="translate(96.01 53.44) rotate(156.09)"/><rect class="cls-2" x="34.83" y="37.81" width="6.2" height="2.07" rx="1.03" ry="1.03" transform="translate(88.34 58.98) rotate(156.09)"/><path d="M29.94,33.41c.99,0,1.93.57,2.36,1.54l1.76,3.98,8.26-3.66c.34-.15.7-.22,1.05-.22.99,0,1.93.57,2.36,1.54.58,1.3,0,2.83-1.31,3.41l-10.62,4.71c-.34.15-.7.22-1.05.22-.32,0-.64-.06-.93-.17-.62-.24-1.14-.71-1.43-1.36l-2.81-6.34c-.58-1.3,0-2.83,1.31-3.41.34-.15.7-.22,1.05-.22M29.94,32.38c-.51,0-1,.1-1.46.31-.88.39-1.56,1.1-1.91,2-.35.9-.32,1.88.07,2.77l2.81,6.34c.39.88,1.1,1.56,2,1.91.42.16.86.24,1.3.24.51,0,1-.1,1.46-.31l10.62-4.71c1.82-.81,2.65-2.95,1.84-4.77-.58-1.31-1.88-2.15-3.31-2.15-.51,0-1,.1-1.46.31l-7.31,3.24-1.34-3.03c-.58-1.31-1.88-2.15-3.31-2.15h0Z"/><path d="M36.79,5.75c.53,0,1.08.08,1.61.26l28.88,9.56,7.92,15.49-9,27.18h0s-.61,1.86-.61,1.86c-.72,2.16-2.74,3.53-4.91,3.53-.53,0-1.08-.08-1.61-.26l-21.28-7.05-26.87,2.51c-.16.01-.31.02-.47.02-2.56,0-4.76-1.96-5.01-4.56l-.18-1.9s0,0,0,0l-1.87-20.09-1.18-12.67h0s-.18-1.9-.18-1.9c-.26-2.75,1.79-5.22,4.54-5.47l21.99-2.05h0s3.12-.29,3.12-.29l.21-.64c.72-2.16,2.74-3.53,4.91-3.53M36.79,3.75c-2.88,0-5.45,1.7-6.57,4.3l-1.85.17-21.99,2.05c-1.86.17-3.55,1.07-4.75,2.51C.42,14.24-.14,16.06.03,17.92l.18,1.9,1.18,12.67,1.87,20.09.18,1.9c.33,3.58,3.41,6.38,7,6.38.22,0,.43-.01.65-.03l26.46-2.47,20.88,6.92c.72.24,1.48.36,2.24.36,3.1,0,5.83-1.97,6.8-4.91l.61-1.86,9-27.18c.17-.51.13-1.06-.12-1.54l-7.92-15.49c-.24-.47-.65-.82-1.15-.99l-28.88-9.56c-.72-.24-1.48-.36-2.24-.36h0Z"/></g></svg>