<?xml version="1.0" encoding="UTF-8"?><svg id="Layer_2" xmlns="http://www.w3.org/2000/svg" viewBox="0 0 73.94 71"><defs><style>.cls-1{fill:#4c8fcc;}.cls-1,.cls-2,.cls-3,.cls-4,.cls-5,.cls-6,.cls-7,.cls-8{stroke-width:0px;}.cls-2{fill:#c47930;}.cls-3{fill:#000;}.cls-4{fill:#76d5ff;}.cls-9{opacity:.6;}.cls-10{opacity:.5;}.cls-5{fill:#fff5bf;}.cls-6{fill:#ffa84a;}.cls-7{fill:#ffb300;}.cls-8{fill:#ffda00;}</style></defs><g id="Layer_2-2"><g class="cls-10"><circle class="cls-3" cx="35.5" cy="35.5" r="35.5"/></g><g class="cls-9"><path class="cls-3" d="M71.07,41.79c.15-.2.28-.41.39-.62,0,0,.01-.02.01-.03.1-.21.19-.42.25-.64,0-.03.02-.05.02-.08.06-.2.1-.41.13-.61,0-.05.01-.1.01-.16.02-.19.02-.37.02-.56,0-.08-.02-.16-.02-.25-.02-.16-.04-.32-.07-.48-.02-.11-.06-.22-.1-.33-.04-.13-.08-.26-.13-.38-.06-.14-.14-.28-.22-.42-.05-.09-.09-.18-.15-.27-.15-.22-.31-.43-.51-.62l-10.14-10.14c-.18-.18-.37-.33-.58-.47-.05-.03-.1-.07-.15-.1-.2-.12-.4-.23-.61-.32-.05-.02-.1-.03-.15-.05-.17-.06-.34-.11-.51-.15-.08-.02-.16-.04-.24-.05-.2-.03-.4-.05-.59-.06-.1,0-.2,0-.3,0-.12,0-.25.02-.37.04-.11.01-.21.03-.31.05-.3-.02-.61-.02-.91.02,0,0-.01,0-.02,0-.28.04-.55.1-.82.19-.03.01-.06.02-.1.03-.24.09-.47.2-.69.33-.05.03-.1.05-.15.08-.26.17-.51.36-.73.58-1.7,1.7-1.7,4.47,0,6.17l2.81,2.81h-5.15v-15.51c0-5.41-4.4-9.81-9.81-9.81h-24.38c-5.41,0-9.81,4.4-9.81,9.81v36.38c0,5.41,4.4,9.81,9.81,9.81h24.38c5.41,0,9.81-4.4,9.81-9.81v-12.15h5.94l-3.6,3.6c-1.7,1.7-1.7,4.47,0,6.17,1.7,1.7,4.47,1.7,6.17,0l10.65-10.65s0,0,0,0h0c.2-.2.38-.42.53-.65.15-.23.28-.47.38-.72Z"/></g><rect class="cls-1" x="8.5" y="7.5" width="41" height="53" rx="8.31" ry="8.31"/><path class="cls-4" d="M41.19,9c3.75,0,6.81,3.07,6.81,6.81v36.38c0,3.75-3.07,6.81-6.81,6.81h-24.38c-3.75,0-6.81-3.07-6.81-6.81V15.81c0-3.75,3.07-6.81,6.81-6.81h24.38M41.19,6h-24.38c-5.41,0-9.81,4.4-9.81,9.81v36.38c0,5.41,4.4,9.81,9.81,9.81h24.38c5.41,0,9.81-4.4,9.81-9.81V15.81c0-5.41-4.4-9.81-9.81-9.81h0Z"/><path class="cls-6" d="M39.24,54.91l-24.09,4.04c-2.05.34-3.94-1.14-3.94-3.1V12.5c0-1.87,1.73-3.33,3.7-3.13l24.09,2.42c1.7.17,2.99,1.52,2.99,3.13v36.89c0,1.52-1.16,2.83-2.76,3.1Z"/><path class="cls-2" d="M15.22,58.67l-3.62-.8c-.75-.17-1.36-.9-1.36-1.64V11.76c0-.74.61-1.47,1.36-1.64l3.62-.8c.81-.18,1.49.31,1.49,1.09v47.16c0,.78-.67,1.27-1.49,1.09Z"/><rect class="cls-7" x="37" y="31.32" width="30.12" height="8.72" rx="4.36" ry="4.36"/><path class="cls-7" d="M70.16,32.99l-10.65-10.65c-1.7-1.7-4.47-1.7-6.17,0-1.7,1.7-1.7,4.47,0,6.17l7.57,7.57-7.57,7.57c-1.7,1.7-1.7,4.47,0,6.17,1.7,1.7,4.47,1.7,6.17,0l10.65-10.65s0,0,0,0h0c1.7-1.7,1.7-4.47,0-6.17Z"/><path class="cls-7" d="M70.16,32.99l-10.65-10.65c-1.7-1.7-4.47-1.7-6.17,0-1.7,1.7-1.7,4.47,0,6.17l7.57,7.57-7.57,7.57c-1.7,1.7-1.7,4.47,0,6.17,1.7,1.7,4.47,1.7,6.17,0l10.65-10.65s0,0,0,0h0c1.7-1.7,1.7-4.47,0-6.17Z"/><path class="cls-8" d="M70.75,32.36l-9.86-10.14c-1.57-1.61-4.14-1.61-5.71,0-1.57,1.62-1.57,4.26,0,5.87l7.01,7.21-7.01,7.21c-1.57,1.61-1.57,4.26,0,5.87,1.57,1.61,4.14,1.61,5.71,0l9.86-10.14s0,0,0,0h0c1.57-1.62,1.57-4.26,0-5.87Z"/><rect class="cls-5" x="67.07" y="30.34" width="2.47" height="4.43" rx="1.13" ry="1.13" transform="translate(-3.02 57.84) rotate(-45)"/><rect class="cls-8" x="40" y="31.52" width="24" height="6.48" rx="3.24" ry="3.24"/><rect class="cls-5" x="51" y="31.52" width="11" height="3.19" rx="1.59" ry="1.59"/><path class="cls-3" d="M57.65,21.01c1.06,0,2.12.4,2.93,1.2l10.14,10.14c1.48,1.48,1.59,3.81.36,5.44-.21.5-.51.96-.92,1.37h0s0,0,0,0l-10.65,10.65c-.85.85-1.97,1.27-3.08,1.27s-2.24-.42-3.08-1.27c-1.7-1.7-1.7-4.47,0-6.17l3.6-3.6h-15.58c-2.4,0-4.36-1.96-4.36-4.36s1.96-4.36,4.36-4.36h14.79l-2.81-2.81c-1.7-1.7-1.7-4.47,0-6.17.84-.85,1.96-1.25,3.07-1.25.11,0,.23,0,.34.01.3-.06.6-.1.9-.1M57.65,18.99c-.35,0-.69.03-1.04.09-.07,0-.13,0-.2,0-1.71,0-3.31.66-4.5,1.85-1.2,1.2-1.86,2.8-1.86,4.51,0,1.42.46,2.77,1.3,3.87h-9.99c-3.52,0-6.38,2.86-6.38,6.38s2.86,6.38,6.38,6.38h10.7l-.15.15c-1.2,1.2-1.86,2.8-1.86,4.51s.66,3.31,1.86,4.51c1.2,1.2,2.8,1.86,4.51,1.86s3.31-.66,4.51-1.86l10.65-10.65c.51-.51.93-1.11,1.25-1.78,1.69-2.43,1.42-5.78-.69-7.88l-10.14-10.14c-1.16-1.16-2.71-1.8-4.36-1.8h0Z"/><path class="cls-3" d="M41.19,6c5.41,0,9.81,4.4,9.81,9.81v15.51h5.15l-2.81-2.81c-1.7-1.7-1.7-4.47,0-6.17.23-.23.47-.42.73-.58.05-.03.1-.05.15-.08.22-.13.45-.24.69-.33.03-.01.06-.02.1-.03.27-.09.54-.16.82-.19,0,0,.01,0,.02,0,.19-.02.38-.04.56-.04.11,0,.23,0,.34.01.1-.02.21-.03.31-.05.12-.02.25-.03.37-.04.09,0,.17-.01.26-.01.01,0,.03,0,.04,0,.2,0,.4.02.59.06.08.01.16.03.24.05.17.04.34.09.51.15.05.02.1.03.15.05.21.09.41.2.61.32.05.03.1.07.15.1.2.14.4.29.58.47l10.14,10.14c.19.19.36.4.51.62.06.09.1.18.15.27.08.14.16.27.22.42.05.12.09.25.13.38.03.11.07.22.1.33.04.16.05.32.07.48,0,.08.02.16.02.25,0,.19,0,.37-.02.56,0,.05,0,.1-.01.16-.03.21-.07.41-.13.61,0,.03-.02.05-.02.08-.07.22-.15.43-.25.64,0,0,0,.02-.01.03-.11.22-.24.42-.39.62-.11.25-.23.49-.38.72-.15.23-.33.45-.53.65h0s0,0,0,0l-10.65,10.65c-.85.85-1.97,1.27-3.08,1.27s-2.24-.42-3.08-1.27c-1.7-1.7-1.7-4.47,0-6.17l3.6-3.6h-5.94v12.15c0,5.41-4.4,9.81-9.81,9.81h-24.38c-5.41,0-9.81-4.4-9.81-9.81V15.81c0-5.41,4.4-9.81,9.81-9.81h24.38M41.19,3.98h-24.38c-6.52,0-11.83,5.31-11.83,11.83v36.38c0,6.52,5.31,11.83,11.83,11.83h24.38c6.52,0,11.83-5.31,11.83-11.83v-.06c1.01.64,2.18.98,3.4.98,1.71,0,3.31-.66,4.51-1.86l10.65-10.65c.29-.29.56-.62.79-.97.17-.25.32-.52.46-.82.16-.23.31-.47.43-.73.01-.02.01-.02.02-.05.15-.3.28-.62.37-.94l.03-.11c.09-.32.15-.61.19-.92,0-.06.01-.13.02-.2.03-.34.04-.6.02-.86,0-.09-.01-.2-.03-.3,0,0,0-.05,0-.06-.02-.22-.05-.45-.11-.71-.03-.14-.07-.28-.12-.42l-.02-.06-.02-.08c-.05-.17-.11-.33-.17-.5-.1-.23-.2-.42-.29-.57l-.03-.05c-.08-.16-.15-.28-.23-.4-.23-.34-.48-.65-.76-.92l-10.14-10.14c-.24-.24-.53-.48-.86-.7-.07-.05-.14-.1-.22-.15-.32-.2-.62-.36-.92-.48-.07-.03-.16-.06-.24-.09-.24-.09-.49-.16-.75-.22-.13-.03-.24-.06-.35-.07-.3-.05-.6-.08-.89-.08-.01,0-.07,0-.09,0-.1,0-.21,0-.31.01h-.05c-.19.01-.37.03-.55.05h-.05s-.06.02-.09.02c-.08,0-.15,0-.23,0-.27,0-.53.02-.8.05,0,0-.02,0-.03,0-.42.06-.8.15-1.18.27-.06.02-.12.03-.18.06-.33.12-.65.27-.98.46-.08.04-.16.08-.23.13v-4.22c0-6.52-5.31-11.83-11.83-11.83h0Z"/></g></svg>