<?xml version="1.0" encoding="UTF-8"?><svg id="Layer_2" xmlns="http://www.w3.org/2000/svg" viewBox="0 0 71.75 71"><defs><style>.cls-1{fill:#d31338;}.cls-2{fill:#e78b7b;}.cls-3,.cls-4{fill:#fff;}.cls-3,.cls-5{opacity:.81;}.cls-6{fill:#c9c9c9;}.cls-7{fill:#ff768a;}.cls-8{opacity:.53;}.cls-9{opacity:.5;}.cls-5{fill:#ffc2c2;}.cls-10{fill:#ff5c7b;}</style></defs><g id="Layer_1-2"><g class="cls-9"><circle cx="36.25" cy="35.5" r="35.5"/></g><path d="M69.67,53l-.39-1.84-5.23-25.5c-.17-.84-.73-1.54-1.49-1.9-.3-.39-.65-.74-1.04-1.03l-.74-.54-2.54-11.97c-.5-2.37-2.63-4.1-5.05-4.1-.36,0-.72.04-1.08.11l-5.71,1.21-1.14-2.57c-.82-1.86-2.67-3.05-4.7-3.05h0c-.72,0-1.42.15-2.08.44l-3.14,1.39-.12-.09c-.89-.65-1.94-.99-3.04-.99-1.84,0-3.56.99-4.48,2.59l-.19.32-5.54-2.49c-.67-.3-1.37-.45-2.1-.45-2.23,0-4.19,1.42-4.88,3.55l-2.5,7.69-9.42,4.17c-2.59,1.15-3.76,4.19-2.61,6.77l4.88,11.01-.28.85c-.15.48-.24.96-.25,1.44-.39.73-.42,1.61-.07,2.38l10.56,23.38.75,1.69c.82,1.86,2.67,3.05,4.7,3.05.42,0,.83-.07,1.23-.16.16-.02.31-.04.47-.07l21.63-4.59,21.28-4.52.35-.07c1.35-.29,2.51-1.08,3.26-2.24.75-1.16,1.01-2.54.72-3.89Z"/><path class="cls-6" d="M62.79,44.78l-10.79-24.35c-.21-.47-.55-.84-.96-1.08-.23-.3-.52-.56-.91-.74L20.85,5.47c-.32-.14-.66-.21-.99-.21-1.01,0-1.97.64-2.3,1.67l-9.93,30.5c-.14.42-.15.83-.08,1.21-.08.46-.03.95.17,1.4l10.79,24.35c.4.9,1.29,1.44,2.22,1.44.33,0,.66-.07.98-.21l39.85-17.66c1.22-.54,1.77-1.97,1.23-3.19Z"/><rect class="cls-7" x="8.08" y="10.89" width="43.59" height="39.55" rx="2.42" ry="2.42" transform="translate(-9.86 14.73) rotate(-23.9)"/><g class="cls-8"><path d="M42.8,34.05l-11.59-5.2c-1.31-.59-2.85.09-3.29,1.46l-3.97,12.2-16.75-3.2,10.56,23.38c.54,1.22,1.97,1.77,3.19,1.23l.32-.14,39.2-17.37.32-.14c1.22-.54,1.77-1.97,1.23-3.2l-10.34-23.48-8.88,14.46Z"/></g><path class="cls-4" d="M20.72,65.44c-.8,0-1.52-.47-1.85-1.2l-10.77-24.3,29.57,8.38,13.97-27.69,10.77,24.31c.45,1.02,0,2.21-1.03,2.66l-39.85,17.66c-.26.12-.54.17-.82.17Z"/><path class="cls-6" d="M51.62,21.57l10.43,23.53c.36.81,0,1.77-.82,2.13l-39.85,17.66c-.21.09-.43.14-.65.14-.64,0-1.22-.38-1.48-.96l-10.42-23.52,28.42,8.06.64.18.3-.59,13.43-26.63M51.67,19.69l-14.2,28.15-30.08-8.53,11.12,25.09c.4.9,1.29,1.44,2.22,1.44.33,0,.66-.07.98-.21l39.85-17.66c1.22-.54,1.77-1.97,1.23-3.19l-11.12-25.09h0Z"/><path class="cls-4" d="M21.04,65.3c-.64,0-1.25-.32-1.63-.85-.38-.53-.48-1.17-.28-1.8l9.93-30.5c.27-.83,1.04-1.39,1.92-1.39.28,0,.56.06.83.18l29.27,13.13c.74.33,1.19,1.04,1.19,1.85,0,.81-.46,1.51-1.2,1.84l-39.2,17.37c-.27.12-.55.18-.83.18h0Z"/><path class="cls-6" d="M30.98,31.16c.23,0,.45.05.66.14l29.27,13.13c.6.27.95.82.95,1.48,0,.66-.36,1.21-.96,1.47l-39.2,17.37c-.22.1-.44.14-.66.14-.51,0-1-.26-1.31-.68-.18-.24-.44-.76-.22-1.44l9.93-30.5c.22-.67.83-1.12,1.54-1.12M30.98,30.35c-1.01,0-1.97.64-2.3,1.67l-9.93,30.5c-.54,1.65.75,3.18,2.29,3.18.32,0,.66-.07.99-.21l39.2-17.37c1.92-.85,1.92-3.57.01-4.42l-29.27-13.13c-.32-.14-.66-.21-.99-.21h0Z"/><rect class="cls-5" x="15.59" y="12.76" width="24.95" height="3.26" rx="1.52" ry="1.52" transform="translate(-3.42 12.6) rotate(-23.9)"/><path class="cls-1" d="M61.68,41.49c-3.85-2.56-7.4-.14-9.24,1.63-.68.65-1.77.65-2.45,0-1.85-1.77-5.4-4.19-9.24-1.63-5.6,3.73-1.24,11.2,1.87,13.69,2.22,1.78,5.77,5.24,7.61,7.07.55.55,1.44.55,1.99,0,1.84-1.84,5.39-5.3,7.61-7.07,3.11-2.49,7.47-9.95,1.87-13.69Z"/><path class="cls-2" d="M51.21,55.18s.06-.02,0-.06c-.06.04,0,.06,0,.06Z"/><path class="cls-10" d="M61.19,41.89c-4.08-2.45-7.81.41-9.34,1.88-.39.37-.88.37-1.27,0-1.53-1.48-5.26-4.33-9.34-1.88-5.33,3.2-1.19,9.59,1.78,11.72.44.32.94.7,1.47,1.12,3.71,2.95,9.75,2.95,13.46,0,.53-.42,1.02-.8,1.47-1.12,2.96-2.13,7.11-8.52,1.78-11.72Z"/><ellipse class="cls-3" cx="45.1" cy="43.36" rx="3.73" ry="1.87"/><ellipse class="cls-3" cx="58.16" cy="43.36" rx="3.73" ry="1.87"/><path d="M58.21,40.38c1.1,0,2.27.31,3.47,1.11,5.6,3.73,1.24,11.2-1.87,13.69-2.22,1.78-5.77,5.24-7.61,7.07-.28.27-.63.41-.99.41s-.72-.14-.99-.41c-1.84-1.84-5.39-5.3-7.61-7.07-3.11-2.49-7.47-9.95-1.87-13.69,1.2-.8,2.37-1.11,3.47-1.11,2.42,0,4.5,1.53,5.77,2.74,0,0,0,0,0,0,.21.13.41.25.57.37.21.08.43.12.65.12s.44-.04.65-.12c.17-.11.36-.24.57-.37,0,0,0,0,0,0,1.27-1.22,3.35-2.74,5.77-2.74M58.21,39.13c-2.75,0-5.06,1.61-6.53,2.99-.13.08-.25.15-.36.23-.03,0-.07.01-.11.01s-.07,0-.11-.01c-.11-.07-.23-.15-.36-.23-1.48-1.39-3.78-2.99-6.53-2.99-1.44,0-2.84.45-4.16,1.32-2.02,1.35-3.15,3.29-3.25,5.61-.19,4.27,2.99,8.45,5.03,10.08,2.41,1.93,6.36,5.83,7.51,6.98.5.5,1.17.78,1.87.78s1.37-.28,1.87-.78c1.15-1.15,5.1-5.06,7.51-6.98,2.04-1.63,5.21-5.82,5.03-10.08-.1-2.32-1.22-4.26-3.25-5.61-1.32-.88-2.72-1.32-4.16-1.32h0Z"/></g></svg>