<svg width="1024" height="987" viewBox="0 0 1024 987" fill="none" xmlns="http://www.w3.org/2000/svg">
<path d="M73.1445 254.687C73.1445 249.885 74.0905 245.129 75.9284 240.692C77.7662 236.255 80.4601 232.223 83.8561 228.827C87.252 225.431 91.2836 222.737 95.7207 220.9C100.158 219.062 104.913 218.116 109.716 218.116H914.287C919.09 218.116 923.846 219.062 928.283 220.9C932.72 222.737 936.751 225.431 940.147 228.827C943.543 232.223 946.237 236.255 948.075 240.692C949.913 245.129 950.859 249.885 950.859 254.687V949.544C950.859 959.244 947.006 968.546 940.147 975.404C933.289 982.263 923.987 986.116 914.287 986.116H109.716C100.017 986.116 90.7145 982.263 83.8561 975.404C76.9976 968.546 73.1445 959.244 73.1445 949.544V254.687Z" fill="#FFAA44"/>
<path d="M524.288 3.07639C516.341 0.241465 507.659 0.241465 499.712 3.07639L24.2834 172.878C17.1762 175.413 11.0272 180.085 6.67968 186.253C2.33216 192.42 -0.00104108 199.782 3.48478e-07 207.328V346.116C3.48478e-07 350.966 1.92653 355.617 5.35577 359.046C8.785 362.476 13.436 364.402 18.2857 364.402H1005.71C1010.56 364.402 1015.22 362.476 1018.64 359.046C1022.07 355.617 1024 350.966 1024 346.116V207.328C1024 199.782 1021.67 192.42 1017.32 186.253C1012.97 180.085 1006.82 175.413 999.717 172.878L524.288 3.07639ZM36.5714 766.688C31.7688 766.688 27.0132 767.634 22.5762 769.472C18.1391 771.31 14.1075 774.003 10.7115 777.399C7.31556 780.795 4.62172 784.827 2.78384 789.264C0.945951 793.701 2.07776e-07 798.457 3.48478e-07 803.259V949.545C3.48478e-07 954.348 0.94595 959.103 2.78384 963.54C4.62172 967.977 7.31556 972.009 10.7115 975.405C14.1075 978.801 18.1391 981.495 22.5762 983.333C27.0132 985.17 31.7688 986.116 36.5714 986.116H987.429C992.231 986.116 996.987 985.17 1001.42 983.333C1005.86 981.495 1009.89 978.801 1013.29 975.405C1016.68 972.009 1019.38 967.977 1021.22 963.54C1023.05 959.103 1024 954.348 1024 949.545V803.259C1024 798.457 1023.05 793.701 1021.22 789.264C1019.38 784.827 1016.68 780.795 1013.29 777.399C1009.89 774.003 1005.86 771.31 1001.42 769.472C996.987 767.634 992.231 766.688 987.429 766.688H36.5714Z" fill="#346D94"/>
<path d="M402.285 254.687C402.285 249.885 403.231 245.129 405.069 240.692C406.906 236.255 409.6 232.223 412.996 228.827C416.392 225.431 420.424 222.737 424.861 220.9C429.298 219.062 434.054 218.116 438.856 218.116H603.428C608.23 218.116 612.986 219.062 617.423 220.9C621.86 222.737 625.891 225.431 629.287 228.827C632.683 232.223 635.377 236.255 637.215 240.692C639.053 245.129 639.999 249.885 639.999 254.687C639.999 259.49 639.053 264.245 637.215 268.682C635.377 273.119 632.683 277.151 629.287 280.547C625.891 283.943 621.86 286.637 617.423 288.475C612.986 290.313 608.23 291.259 603.428 291.259H438.856C429.157 291.259 419.855 287.406 412.996 280.547C406.138 273.689 402.285 264.387 402.285 254.687ZM292.57 437.544C297.373 437.544 302.129 438.49 306.566 440.328C311.003 442.166 315.034 444.86 318.43 448.256C321.826 451.652 324.52 455.683 326.358 460.12C328.196 464.557 329.142 469.313 329.142 474.116V656.973C329.142 661.775 328.196 666.531 326.358 670.968C324.52 675.405 321.826 679.437 318.43 682.833C315.034 686.229 311.003 688.922 306.566 690.76C302.129 692.598 297.373 693.544 292.57 693.544C287.768 693.544 283.012 692.598 278.575 690.76C274.138 688.922 270.107 686.229 266.711 682.833C263.315 679.437 260.621 675.405 258.783 670.968C256.945 666.531 255.999 661.775 255.999 656.973V474.116C255.999 469.313 256.945 464.557 258.783 460.12C260.621 455.683 263.315 451.652 266.711 448.256C270.107 444.86 274.138 442.166 278.575 440.328C283.012 438.49 287.768 437.544 292.57 437.544ZM511.999 437.544C516.802 437.544 521.557 438.49 525.994 440.328C530.431 442.166 534.463 444.86 537.859 448.256C541.255 451.652 543.949 455.683 545.787 460.12C547.624 464.557 548.57 469.313 548.57 474.116V656.973C548.57 661.775 547.624 666.531 545.787 670.968C543.949 675.405 541.255 679.437 537.859 682.833C534.463 686.229 530.431 688.922 525.994 690.76C521.557 692.598 516.802 693.544 511.999 693.544C507.196 693.544 502.441 692.598 498.004 690.76C493.567 688.922 489.535 686.229 486.139 682.833C482.743 679.437 480.049 675.405 478.211 670.968C476.374 666.531 475.428 661.775 475.428 656.973V474.116C475.428 469.313 476.374 464.557 478.211 460.12C480.049 455.683 482.743 451.652 486.139 448.256C489.535 444.86 493.567 442.166 498.004 440.328C502.441 438.49 507.196 437.544 511.999 437.544ZM731.428 437.544C736.23 437.544 740.986 438.49 745.423 440.328C749.86 442.166 753.891 444.86 757.287 448.256C760.683 451.652 763.377 455.683 765.215 460.12C767.053 464.557 767.999 469.313 767.999 474.116V656.973C767.999 666.672 764.146 675.974 757.287 682.833C750.429 689.691 741.127 693.544 731.428 693.544C721.728 693.544 712.426 689.691 705.568 682.833C698.709 675.974 694.856 666.672 694.856 656.973V474.116C694.856 469.313 695.802 464.557 697.64 460.12C699.478 455.683 702.172 451.652 705.568 448.256C708.964 444.86 712.995 442.166 717.432 440.328C721.869 438.49 726.625 437.544 731.428 437.544Z" fill="white"/>
</svg>
