<svg width="469" height="469" viewBox="0 0 469 469" fill="none" xmlns="http://www.w3.org/2000/svg">
<circle cx="234.5" cy="234.5" r="234.5" fill="#FF0E23"/>
<path fill-rule="evenodd" clip-rule="evenodd" d="M154.166 190.885C146.258 183.541 145.8 171.177 153.144 163.268C160.487 155.359 172.852 154.901 180.761 162.245L228.923 206.968L277.086 162.245C284.995 154.901 297.359 155.359 304.703 163.268C312.047 171.177 311.589 183.541 303.68 190.885L257.642 233.635L303.663 276.368C311.571 283.712 312.029 296.077 304.686 303.986C297.342 311.894 284.977 312.352 277.068 305.008L228.923 260.302L180.778 305.008C172.87 312.352 160.505 311.894 153.161 303.986C145.818 296.077 146.275 283.712 154.184 276.368L200.205 233.635L154.166 190.885Z" fill="white"/>
</svg>
