<svg width="1312" height="969" viewBox="0 0 1312 969" fill="none" xmlns="http://www.w3.org/2000/svg">
<path d="M1180.8 968.95H131.2C58.6947 968.95 -1.65214e-06 910.231 0 837.696V132.204C0 59.6692 58.6947 0.950195 131.2 0.950195H1180.8C1253.31 0.950195 1312 59.6692 1312 132.204V837.696C1312 909.368 1253.31 968.95 1180.8 968.95Z" fill="#F2CB51"/>
<path d="M0 212.95H1312V360.95H0V212.95Z" fill="#DBAD2C"/>
<path d="M197.001 796.95C178.764 796.95 164.001 782.069 164.001 763.687V514.213C164.001 495.831 178.764 480.95 197.001 480.95C215.238 480.95 230.001 495.831 230.001 514.213V763.687C230.001 782.069 215.238 796.95 197.001 796.95ZM362.001 796.95C343.764 796.95 329.001 782.069 329.001 763.687V514.213C329.001 495.831 343.764 480.95 362.001 480.95C380.238 480.95 395.001 495.831 395.001 514.213V763.687C395.001 782.069 380.238 796.95 362.001 796.95ZM527.001 796.95C508.764 796.95 494.001 782.069 494.001 763.687V514.213C494.001 495.831 508.764 480.95 527.001 480.95C545.238 480.95 560.001 495.831 560.001 514.213V763.687C560.001 782.069 545.238 796.95 527.001 796.95Z" fill="#E5404F"/>
</svg>
