<?xml version="1.0" encoding="UTF-8"?><svg id="Layer_2" xmlns="http://www.w3.org/2000/svg" xmlns:xlink="http://www.w3.org/1999/xlink" viewBox="0 0 68.76 26.74"><defs><style>.cls-1{fill:url(#linear-gradient);}.cls-1,.cls-2,.cls-3,.cls-4{stroke-width:0px;}.cls-2{fill:#ffc200;}.cls-3{fill:url(#linear-gradient-2);}.cls-4{fill:url(#linear-gradient-3);}.cls-5{filter:url(#outer-glow-3);}.cls-6{filter:url(#outer-glow-1);}.cls-7{filter:url(#outer-glow-2);}</style><filter id="outer-glow-1" filterUnits="userSpaceOnUse"><feOffset dx="0" dy="0"/><feGaussianBlur result="blur" stdDeviation="3.81"/><feFlood flood-color="#fffa39" flood-opacity=".8"/><feComposite in2="blur" operator="in"/><feComposite in="SourceGraphic"/></filter><linearGradient id="linear-gradient" x1="4.93" y1="-221.74" x2="5.03" y2="-206.48" gradientTransform="translate(82.69 215.81) rotate(-20.94)" gradientUnits="userSpaceOnUse"><stop offset="0" stop-color="#fff75a"/><stop offset=".17" stop-color="#ffed3c"/><stop offset=".37" stop-color="#ffe422"/><stop offset=".57" stop-color="#ffde0f"/><stop offset=".78" stop-color="#ffdb03"/><stop offset="1" stop-color="#ffda00"/></linearGradient><filter id="outer-glow-2" filterUnits="userSpaceOnUse"><feOffset dx="0" dy="0"/><feGaussianBlur result="blur-2" stdDeviation="3.81"/><feFlood flood-color="#fffa39" flood-opacity=".8"/><feComposite in2="blur-2" operator="in"/><feComposite in="SourceGraphic"/></filter><linearGradient id="linear-gradient-2" x1="1208.65" y1="239" x2="1208.75" y2="254.25" gradientTransform="translate(1274.95 215.81) rotate(-159.06) scale(1 -1)" xlink:href="#linear-gradient"/><filter id="outer-glow-3" filterUnits="userSpaceOnUse"><feOffset dx="0" dy="0"/><feGaussianBlur result="blur-3" stdDeviation="3.81"/><feFlood flood-color="#fffa39" flood-opacity=".8"/><feComposite in2="blur-3" operator="in"/><feComposite in="SourceGraphic"/></filter><linearGradient id="linear-gradient-3" x1="34.17" y1="2.1" x2="34.26" y2="18.01" gradientTransform="matrix(1,0,0,1,0,0)" xlink:href="#linear-gradient"/></defs><g id="Layer_2-2"><g class="cls-6"><path class="cls-2" d="M10.71,5.53l1.89,1.52c.68.54,1.54.8,2.4.71l2.41-.25c2.44-.25,4.29,2.15,3.42,4.44l-.86,2.26c-.31.81-.28,1.71.07,2.5l.98,2.21c1,2.24-.72,4.74-3.17,4.62l-2.42-.12c-.87-.04-1.72.26-2.36.84l-1.8,1.62c-1.82,1.64-4.73.78-5.38-1.58l-.64-2.34c-.23-.84-.78-1.55-1.53-1.99l-2.1-1.21c-2.12-1.23-2.21-4.26-.16-5.6l2.03-1.33c.73-.48,1.23-1.22,1.42-2.07l.5-2.37c.51-2.4,3.37-3.41,5.28-1.88Z"/><path class="cls-1" d="M10.01,5.46l2.23,1.79c.53.42,1.2.62,1.87.55l2.85-.3c1.9-.2,3.34,1.68,2.67,3.46l-1.02,2.68c-.24.63-.22,1.33.05,1.95l1.16,2.62c.78,1.75-.56,3.7-2.47,3.61l-2.86-.14c-.68-.03-1.34.2-1.84.66l-2.13,1.92c-1.42,1.28-3.69.61-4.19-1.23l-.75-2.76c-.18-.65-.61-1.21-1.19-1.55l-2.48-1.43c-1.65-.96-1.72-3.32-.12-4.37l2.4-1.57c.57-.37.96-.95,1.1-1.61l.6-2.8c.4-1.87,2.63-2.66,4.12-1.47Z"/></g><g class="cls-7"><path class="cls-2" d="M58.04,5.53l-1.89,1.52c-.68.54-1.54.8-2.4.71l-2.41-.25c-2.44-.25-4.29,2.15-3.42,4.44l.86,2.26c.31.81.28,1.71-.07,2.5l-.98,2.21c-1,2.24.72,4.74,3.17,4.62l2.42-.12c.87-.04,1.72.26,2.36.84l1.8,1.62c1.82,1.64,4.73.78,5.38-1.58l.64-2.34c.23-.84.78-1.55,1.53-1.99l2.1-1.21c2.12-1.23,2.21-4.26.16-5.6l-2.03-1.33c-.73-.48-1.23-1.22-1.42-2.07l-.5-2.37c-.51-2.4-3.37-3.41-5.28-1.88Z"/><path class="cls-3" d="M58.75,5.46l-2.23,1.79c-.53.42-1.2.62-1.87.55l-2.85-.3c-1.9-.2-3.34,1.68-2.67,3.46l1.02,2.68c.24.63.22,1.33-.05,1.95l-1.16,2.62c-.78,1.75.56,3.7,2.47,3.61l2.86-.14c.68-.03,1.34.2,1.84.66l2.13,1.92c1.42,1.28,3.69.61,4.19-1.23l.75-2.76c.18-.65.61-1.21,1.19-1.55l2.48-1.43c1.65-.96,1.72-3.32.12-4.37l-2.4-1.57c-.57-.37-.96-.95-1.1-1.61l-.6-2.8c-.4-1.87-2.63-2.66-4.12-1.47Z"/></g><g class="cls-5"><path class="cls-2" d="M37.31,1.7l1.27,2.18c.46.78,1.2,1.35,2.08,1.59l2.44.65c2.47.66,3.38,3.69,1.68,5.6l-1.68,1.89c-.6.68-.91,1.56-.87,2.47l.13,2.52c.13,2.55-2.47,4.35-4.81,3.32l-2.31-1.02c-.83-.36-1.77-.39-2.61-.06l-2.36.91c-2.39.92-4.9-1-4.65-3.55l.25-2.51c.09-.9-.18-1.8-.75-2.5l-1.59-1.96c-1.61-1.99-.56-4.97,1.94-5.52l2.47-.54c.88-.19,1.66-.73,2.15-1.49l1.38-2.12c1.39-2.14,4.56-2.07,5.84.14Z"/><path class="cls-4" d="M36.65,1.37l1.51,2.58c.36.61.94,1.05,1.62,1.24l2.89.77c1.93.52,2.63,2.88,1.31,4.37l-1.99,2.23c-.47.53-.71,1.22-.68,1.92l.16,2.98c.11,1.99-1.92,3.39-3.75,2.59l-2.74-1.2c-.65-.28-1.38-.3-2.04-.05l-2.79,1.07c-1.86.72-3.82-.78-3.62-2.77l.3-2.97c.07-.7-.14-1.4-.58-1.95l-1.88-2.32c-1.26-1.55-.44-3.88,1.51-4.3l2.92-.64c.69-.15,1.29-.57,1.68-1.16l1.63-2.51c1.09-1.67,3.55-1.61,4.56.11Z"/></g></g></svg>