<?xml version="1.0" encoding="UTF-8"?><svg id="Layer_2" xmlns="http://www.w3.org/2000/svg" xmlns:xlink="http://www.w3.org/1999/xlink" viewBox="0 0 14.45 13.96"><defs><style>.cls-1{fill:url(#linear-gradient);}.cls-1,.cls-2{stroke-width:0px;}.cls-2{fill:#ffc200;}.cls-3{filter:url(#outer-glow-1);}</style><filter id="outer-glow-1" filterUnits="userSpaceOnUse"><feOffset dx="0" dy="0"/><feGaussianBlur result="blur" stdDeviation="2.41"/><feFlood flood-color="#fffa39" flood-opacity=".8"/><feComposite in2="blur" operator="in"/><feComposite in="SourceGraphic"/></filter><linearGradient id="linear-gradient" x1="-.45" y1="-45.33" x2="-.39" y2="-35.28" gradientTransform="translate(8.61 46.64) rotate(-1.35)" gradientUnits="userSpaceOnUse"><stop offset="0" stop-color="#fff75a"/><stop offset=".17" stop-color="#ffed3c"/><stop offset=".37" stop-color="#ffe422"/><stop offset=".57" stop-color="#ffde0f"/><stop offset=".78" stop-color="#ffdb03"/><stop offset="1" stop-color="#ffda00"/></linearGradient></defs><g id="Layer_2-2"><g class="cls-3"><path class="cls-2" d="M9.07,1.03l.84,1.36c.3.49.78.84,1.34.97l1.55.38c1.57.38,2.19,2.28,1.14,3.51l-1.03,1.22c-.37.44-.55,1-.51,1.57l.12,1.59c.12,1.61-1.49,2.78-2.99,2.17l-1.47-.61c-.53-.22-1.12-.22-1.65,0l-1.47.61c-1.49.61-3.11-.56-2.99-2.17l.12-1.59c.04-.57-.14-1.13-.51-1.57l-1.03-1.22c-1.05-1.23-.43-3.13,1.14-3.51l1.55-.38c.56-.13,1.04-.48,1.34-.97l.84-1.36c.85-1.37,2.84-1.37,3.69,0Z"/><path class="cls-1" d="M8.65.83l.99,1.61c.23.38.61.65,1.04.76l1.83.44c1.22.3,1.7,1.78.89,2.74l-1.22,1.44c-.29.34-.43.78-.4,1.22l.14,1.88c.1,1.26-1.16,2.17-2.33,1.69l-1.74-.72c-.41-.17-.87-.17-1.29,0l-1.74.72c-1.16.48-2.42-.44-2.33-1.69l.14-1.88c.03-.44-.11-.88-.4-1.22l-1.22-1.44c-.82-.96-.33-2.44.89-2.74l1.83-.44c.43-.11.81-.38,1.04-.76l.99-1.61c.66-1.07,2.22-1.07,2.88,0Z"/></g></g></svg>