<svg width="42" height="44" viewBox="0 0 42 44" fill="none" xmlns="http://www.w3.org/2000/svg">
<path d="M41.8266 12.4201L35.6445 0.833053C35.4238 0.452259 35.1478 0.180263 34.7614 0.0714647C34.375 -0.0373337 33.9334 -0.0373338 33.6022 0.180263L21.8453 6.27297C21.4589 6.43617 21.1829 6.76256 21.0725 7.19776C20.9621 7.57855 20.9621 7.95935 21.1829 8.34014L22.7284 11.2233C22.9492 11.1145 23.2252 11.0057 23.446 10.8425C23.722 10.4073 24.1635 10.0809 24.6603 9.80892C26.4818 8.88413 28.6897 9.59132 29.6281 11.3321C30.0696 12.2025 30.18 13.1817 29.904 14.1065C29.6281 15.0312 28.9657 15.7928 28.0825 16.228C27.5858 16.5 27.0338 16.6088 26.537 16.6088C26.261 16.7176 26.0402 16.8264 25.8195 16.9896L27.365 19.8728C27.5306 20.2536 27.8618 20.4712 28.2481 20.6344C28.6345 20.7432 29.0761 20.7432 29.4073 20.5256L32.8847 18.7304C32.8847 18.7304 32.9399 18.7304 32.9399 18.676C32.9399 18.6216 33.0503 18.676 33.0503 18.6216H33.1607C33.2159 18.6216 33.2711 18.6216 33.3263 18.6216C33.3815 18.6216 33.3815 18.6216 33.4367 18.676C33.4919 18.676 33.547 18.7304 33.6022 18.7304C33.6022 18.7848 33.6574 18.7848 33.7126 18.8392L33.7678 18.8936C34.099 19.3288 34.4302 19.8728 34.7062 20.5256C34.8166 20.6888 34.8166 20.852 34.7614 21.0152C34.7614 21.2871 34.8718 21.5591 34.9822 21.7767C35.2582 22.3207 35.7549 22.7015 36.3621 22.8647C36.9141 23.0279 37.5764 22.9735 38.1284 22.7015C39.2323 22.1031 39.6739 20.7432 39.122 19.6552C38.9564 19.3288 38.6804 19.0568 38.4044 18.8936C38.294 18.8392 38.2388 18.7304 38.1836 18.676C37.7972 18.132 37.5212 17.588 37.3556 17.044V16.9352C37.3556 16.8808 37.3556 16.8264 37.3556 16.8264C37.3556 16.772 37.3556 16.7176 37.3556 16.7176C37.3556 16.6632 37.3556 16.6088 37.4108 16.6088C37.4108 16.5544 37.466 16.5544 37.466 16.5C37.466 16.4456 37.5212 16.4456 37.5212 16.3912C37.5764 16.3368 37.5764 16.3368 37.6316 16.2824L37.6868 16.228L41.1642 14.4328C41.937 14.0521 42.213 13.1273 41.8266 12.4201Z" fill="#FCB401"/>
<path d="M31.9928 27.739H28.7327C28.7327 28.0109 28.6783 28.2285 28.7327 28.5004C28.95 28.9898 29.113 29.4793 29.113 30.0775C29.113 32.0897 27.483 33.6669 25.4726 33.6669C23.4622 33.6669 21.8864 32.0354 21.8864 30.0775C21.8864 29.5337 21.9951 28.9898 22.2668 28.5004C22.2668 28.2285 22.2668 27.9566 22.2668 27.739H19.0067C18.1917 27.739 17.4853 28.3916 17.4853 29.2074V33.123C17.4853 33.1774 17.4853 33.2318 17.4853 33.2318V33.2862C17.4853 33.3406 17.431 33.395 17.3766 33.5037C17.3223 33.5581 17.268 33.6125 17.2136 33.6669C17.1593 33.7213 17.0506 33.7213 16.9963 33.7213H16.9419H16.8876C16.8876 33.7213 16.8876 33.7213 16.8333 33.7213C16.2899 33.83 15.7466 33.83 15.1489 33.7757C15.0402 33.7757 14.8772 33.7213 14.8229 33.6669C14.3882 33.5581 14.0622 33.5037 13.7362 33.5037C12.4865 33.5037 11.4541 34.537 11.4541 35.7879C11.4541 37.0387 12.4865 38.072 13.7362 38.072C14.1165 38.072 14.4425 38.0176 14.7142 37.8545C14.7142 37.8545 14.7685 37.8545 14.7685 37.8001C14.8229 37.7457 14.9315 37.7457 14.9859 37.7457C15.6379 37.6913 16.2356 37.6913 16.8333 37.8001C16.8876 37.8001 16.8876 37.8001 16.9419 37.8545C16.9419 37.8545 16.9963 37.8545 16.9963 37.9089C17.0506 37.9089 17.105 37.9632 17.105 37.9632C17.1593 38.0176 17.1593 38.0176 17.2136 38.072C17.2136 38.1264 17.268 38.1264 17.268 38.1808C17.268 38.2352 17.3223 38.2895 17.3223 38.3439C17.3223 38.3983 17.3223 38.3983 17.3223 38.4527C17.3223 38.5071 17.3223 38.5071 17.3223 38.5615V42.4771C17.3223 43.2929 18.0286 43.9999 18.8437 43.9999H31.8841C32.6991 43.9999 33.4055 43.2929 33.4055 42.4771V29.4249C33.4598 28.3916 32.8078 27.739 31.9928 27.739Z" fill="#02BBFE"/>
<path d="M13.8858 39.6543C11.871 39.6543 10.2373 38.0247 10.2373 36.0148C10.2373 34.0049 11.871 32.3753 13.8858 32.3753C14.4303 32.3753 14.9748 32.4839 15.4649 32.7556C15.7372 32.7556 16.0095 32.7556 16.2273 32.7556V29.442C16.2273 28.6272 15.5194 27.9753 14.7026 27.9753H10.8363C10.673 27.9753 10.5641 27.921 10.4552 27.8123C10.4552 27.8123 10.4007 27.8123 10.4007 27.758C10.2918 27.6494 10.2373 27.5407 10.1829 27.3778C10.1829 27.3778 10.1829 27.3778 10.1829 27.3235C10.074 26.7802 10.074 26.1827 10.1284 25.4765C10.1284 25.3679 10.1829 25.2049 10.2373 25.1506C10.4007 24.879 10.4552 24.5531 10.4552 24.2272C10.4552 22.9778 9.42053 22 8.16809 22C6.91565 22 5.88102 23.0321 5.88102 24.2272C5.88102 24.6074 5.93548 24.9333 6.09884 25.2049V25.2593C6.1533 25.3679 6.15329 25.4222 6.15329 25.4765C6.2622 26.1284 6.20775 26.7259 6.15329 27.3235C6.15329 27.3778 6.1533 27.3778 6.09884 27.4321C6.09884 27.4864 6.09884 27.4864 6.04439 27.5407C6.04439 27.5951 5.98993 27.5951 5.98993 27.6494C5.93548 27.7037 5.93548 27.7037 5.88102 27.758C5.82657 27.8123 5.82657 27.8123 5.77212 27.8123C5.71766 27.8123 5.71766 27.8667 5.66321 27.8667C5.60876 27.8667 5.60876 27.8667 5.5543 27.921C5.49985 27.921 5.49985 27.921 5.44539 27.921H1.52471C0.707901 27.921 0 28.5728 0 29.442V42.479C0 43.2938 0.707901 44 1.52471 44H14.5937C15.4105 44 16.1184 43.3481 16.1184 42.479V39.2198C15.8461 39.2198 15.6283 39.1654 15.356 39.2198C14.9748 39.4914 14.4303 39.6543 13.8858 39.6543Z" fill="#02BBFE"/>
<path d="M1.5216 26.7826H4.78218C4.78218 26.5088 4.83652 26.2898 4.78218 26.0161C4.51046 25.5781 4.40178 25.0306 4.40178 24.4283C4.40178 22.4026 6.03206 20.8148 8.04275 20.8148C10.0534 20.8148 11.6837 22.4573 11.6837 24.4283C11.6837 25.0306 11.575 25.5233 11.3033 26.0161C11.3033 26.2898 11.3033 26.5636 11.3033 26.7826H14.5639C15.3791 26.7826 16.0855 26.0708 16.0855 25.2496V21.3623V21.3076C16.0855 21.2528 16.0855 21.1981 16.1399 21.1433C16.1399 21.0886 16.1942 21.0886 16.1942 21.0338C16.1942 20.9791 16.2485 20.9791 16.2485 20.9243C16.2485 20.8696 16.3029 20.8696 16.3572 20.8148C16.4116 20.8148 16.4116 20.7601 16.4659 20.7601C16.5203 20.7601 16.5203 20.7053 16.5746 20.7053L16.6289 20.6506C17.1724 20.5411 17.7701 20.5411 18.4766 20.5958C18.5853 20.5958 18.7483 20.6506 18.8027 20.7053C19.0744 20.8696 19.4004 20.9243 19.7265 20.9243C20.9764 20.9243 21.9545 19.884 21.9545 18.6248C21.9545 17.3655 20.922 16.3253 19.7265 16.3253C19.3461 16.3253 19.02 16.38 18.7483 16.599C18.6396 16.6538 18.5309 16.7085 18.4223 16.7085C17.7701 16.7633 17.1724 16.7633 16.6289 16.6538C16.5746 16.6538 16.5746 16.6538 16.5746 16.6538C16.5203 16.6538 16.4659 16.599 16.4659 16.599C16.4116 16.599 16.4116 16.5443 16.3572 16.5443C16.3029 16.4895 16.3029 16.4895 16.2485 16.4348C16.1942 16.38 16.1942 16.38 16.1942 16.3253C16.1942 16.2705 16.1399 16.2705 16.1399 16.2158C16.1399 16.161 16.1399 16.1063 16.0855 16.0515V15.9968V12.0547C16.0855 11.2335 15.4334 10.5217 14.5639 10.5217H1.5216C0.706458 10.5217 0 11.1787 0 12.0547V25.1948C0 26.0708 0.706458 26.7826 1.5216 26.7826Z" fill="#02BBFE"/>
</svg>
