<svg width="40" height="43" viewBox="0 0 40 43" fill="none" xmlns="http://www.w3.org/2000/svg">
<path d="M22.1388 7.1836C22.1388 8.12696 21.953 9.06109 21.592 9.93265C21.231 10.8042 20.7018 11.5961 20.0348 12.2632C19.3677 12.9302 18.5758 13.4594 17.7042 13.8204C16.8326 14.1814 15.8985 14.3672 14.9551 14.3672C13.0499 14.3672 11.2227 13.6104 9.87553 12.2632C8.52833 10.916 7.77148 9.08881 7.77148 7.1836C7.77148 5.27839 8.52833 3.45121 9.87553 2.10403C11.2227 0.756842 13.0499 1.25172e-07 14.9551 0C15.8985 -6.19788e-08 16.8326 0.185809 17.7042 0.546819C18.5758 0.907829 19.3677 1.43697 20.0348 2.10403C20.7018 2.77109 21.231 3.563 21.592 4.43456C21.953 5.30611 22.1388 6.24024 22.1388 7.1836Z" fill="#02BBFE"/>
<path d="M13.9633 15.0737C6.22761 15.0737 0 21.3013 0 29.0369C0 29.256 0.00559887 29.4738 0.015485 29.6904C0.00543369 29.873 0 30.0568 0 30.2419V33.2188C-1.41589e-06 38.6376 4.36245 43 9.78133 43H13.9633H15.9478H20.1298C23.2254 43 25.9757 41.5759 27.7655 39.3449C24.8375 38.89 22.1684 37.404 20.2393 35.1549C18.3102 32.9057 17.2481 30.0415 17.2444 27.0784C17.2467 25.0504 17.7452 23.0538 18.6965 21.2627C19.6477 19.4717 21.0227 17.9406 22.7015 16.803C20.7022 15.7008 18.4011 15.0737 15.9478 15.0737H13.9633Z" fill="#02BBFE"/>
<path d="M29.6734 16.8799C28.3341 16.8799 27.0079 17.1436 25.7705 17.6562C24.5331 18.1687 23.4088 18.9199 22.4618 19.8669C21.5147 20.814 20.7635 21.9382 20.251 23.1756C19.7384 24.4129 19.4746 25.7391 19.4746 27.0784C19.4746 28.4177 19.7384 29.7439 20.251 30.9813C20.7635 32.2186 21.5147 33.3429 22.4618 34.2899C23.4088 35.237 24.5331 35.9882 25.7705 36.5007C27.0079 37.0132 28.3341 37.277 29.6734 37.277C32.3782 37.277 34.9723 36.2025 36.8849 34.2899C38.7975 32.3773 39.872 29.7833 39.872 27.0784C39.872 24.3736 38.7975 21.7796 36.8849 19.867C34.9723 17.9544 32.3782 16.8799 29.6734 16.8799ZM29.6732 20.1895C30.3848 20.1895 30.9578 20.7623 30.9578 21.4739V25.7941H35.278C35.9895 25.7941 36.5624 26.3669 36.5624 27.0784C36.5624 27.79 35.9895 28.3629 35.278 28.3629H30.9578V32.6831C30.9578 33.3947 30.3848 33.9675 29.6732 33.9675C28.9617 33.9675 28.3888 33.3947 28.3888 32.6831V28.3629H24.0686C23.3571 28.3629 22.7842 27.79 22.7842 27.0784C22.7842 26.3669 23.3571 25.7941 24.0686 25.7941H28.3888V21.4739C28.3888 20.7623 28.9617 20.1895 29.6732 20.1895Z" fill="#FCB401"/>
</svg>
