<svg width="42" height="36" viewBox="0 0 42 36" fill="none" xmlns="http://www.w3.org/2000/svg">
<path d="M9.33027 35.375C11.264 35.3797 13.1417 34.696 14.6548 33.4363C16.1679 32.1766 17.2262 30.4158 17.6559 28.4434L18.8536 22.987C18.8536 22.4511 19.0571 21.9371 19.4194 21.5581C19.7817 21.1791 20.273 20.9662 20.7853 20.9662C21.2976 20.9662 21.789 21.1791 22.1512 21.5581C22.5135 21.9371 22.717 22.4511 22.717 22.987L23.9147 28.4232C24.3539 30.4311 25.4429 32.2185 26.9974 33.4828C28.5519 34.747 30.4763 35.4103 32.4447 35.3604C34.4131 35.3104 36.3045 34.5503 37.7986 33.2088C39.2927 31.8672 40.2977 30.0266 40.6433 27.9988C41.2443 24.5241 41.5546 21.0012 41.5705 17.4701C41.5676 13.39 40.8133 9.34874 39.3491 5.56716C38.8183 4.20191 37.9729 2.99528 36.8882 2.05482C35.8035 1.11437 34.5131 0.46933 33.1323 0.17721C31.7514 -0.114911 30.3229 -0.0450324 28.9741 0.380615C27.6254 0.806262 26.3982 1.57445 25.4021 2.61669L24.1658 3.91005C24.0765 3.99747 23.9597 4.04777 23.8374 4.05151H17.6946C17.5723 4.04777 17.4555 3.99747 17.3662 3.91005L16.1299 2.61669C15.1338 1.57445 13.9066 0.806262 12.5579 0.380615C11.2091 -0.0450324 9.78058 -0.114911 8.39972 0.17721C7.01885 0.46933 5.72854 1.11437 4.64382 2.05482C3.5591 2.99528 2.71368 4.20191 2.18293 5.56716C0.731315 9.35836 -0.00975699 13.4063 9.69927e-05 17.4903C0.0188505 21.0011 0.329091 24.5037 0.927319 27.9584C1.26499 30.0337 2.29403 31.917 3.83209 33.2746C5.37016 34.6321 7.31793 35.3762 9.33027 35.375ZM32.3563 9.60889C32.7383 9.60889 33.1118 9.72742 33.4295 9.94947C33.7471 10.1715 33.9947 10.4871 34.1409 10.8564C34.2871 11.2257 34.3254 11.632 34.2509 12.024C34.1763 12.416 33.9924 12.7761 33.7222 13.0587C33.452 13.3414 33.1078 13.5338 32.7331 13.6118C32.3584 13.6898 31.97 13.6498 31.617 13.4968C31.2641 13.3438 30.9624 13.0848 30.7501 12.7525C30.5379 12.4202 30.4246 12.0295 30.4246 11.6298C30.4246 11.0938 30.6281 10.5798 30.9903 10.2008C31.3526 9.82181 31.8439 9.60889 32.3563 9.60889ZM28.4928 13.6506C28.8749 13.6506 29.2484 13.7692 29.5661 13.9912C29.8837 14.2133 30.1313 14.5289 30.2775 14.8981C30.4237 15.2674 30.462 15.6737 30.3874 16.0657C30.3129 16.4578 30.1289 16.8178 29.8588 17.1005C29.5886 17.3831 29.2444 17.5756 28.8697 17.6535C28.495 17.7315 28.1066 17.6915 27.7536 17.5385C27.4006 17.3856 27.0989 17.1266 26.8867 16.7942C26.6744 16.4619 26.5611 16.0712 26.5611 15.6715C26.5611 15.1355 26.7647 14.6215 27.1269 14.2425C27.4892 13.8635 27.9805 13.6506 28.4928 13.6506ZM8.20987 12.135H9.65866V10.6193C9.65866 10.2174 9.8113 9.83184 10.083 9.5476C10.3547 9.26336 10.7232 9.10368 11.1074 9.10368C11.4917 9.10368 11.8602 9.26336 12.1319 9.5476C12.4036 9.83184 12.5562 10.2174 12.5562 10.6193V12.135H14.005C14.3892 12.135 14.7578 12.2947 15.0295 12.5789C15.3012 12.8631 15.4538 13.2487 15.4538 13.6506C15.4538 14.0526 15.3012 14.4381 15.0295 14.7224C14.7578 15.0066 14.3892 15.1663 14.005 15.1663H12.5562V16.6819C12.5562 17.0839 12.4036 17.4694 12.1319 17.7537C11.8602 18.0379 11.4917 18.1976 11.1074 18.1976C10.7232 18.1976 10.3547 18.0379 10.083 17.7537C9.8113 17.4694 9.65866 17.0839 9.65866 16.6819V15.1663H8.20987C7.82563 15.1663 7.45713 15.0066 7.18543 14.7224C6.91373 14.4381 6.76109 14.0526 6.76109 13.6506C6.76109 13.2487 6.91373 12.8631 7.18543 12.5789C7.45713 12.2947 7.82563 12.135 8.20987 12.135Z" fill="#02BBFE"/>
<circle cx="32.5586" cy="11.5" r="2.5" fill="#FCB401"/>
<circle cx="28.5586" cy="15.5" r="2.5" fill="#FCB401"/>
</svg>
