<svg width="41" height="41" viewBox="0 0 41 41" fill="none" xmlns="http://www.w3.org/2000/svg">
<path d="M29.6037 36.9435C30.2038 37.7806 30.5282 38.7988 30.5282 39.8452C30.5282 40.1018 30.4308 40.3478 30.2574 40.5292C30.084 40.7106 29.8489 40.8125 29.6037 40.8125H11.1119C10.8667 40.8125 10.6315 40.7106 10.4581 40.5292C10.2847 40.3478 10.1873 40.1018 10.1873 39.8452C10.1873 38.5626 10.6744 37.3324 11.5413 36.4255C12.4083 35.5185 13.5842 35.0089 14.8102 35.0089C15.5459 35.0089 16.2514 34.7032 16.7716 34.159C17.2918 33.6148 17.584 32.8767 17.584 32.1071V31.0818C17.8908 31.121 18.1995 31.1404 18.5086 31.1399H22.2069C22.5213 31.1399 22.8542 31.1205 23.1315 31.1012V32.1071C23.1315 32.8767 23.4238 33.6148 23.944 34.159C24.4641 34.7032 25.1697 35.0089 25.9053 35.0089H19.8955C19.6503 35.0089 19.4151 35.1108 19.2417 35.2922C19.0683 35.4736 18.9709 35.7197 18.9709 35.9762C18.9709 36.2327 19.0683 36.4788 19.2417 36.6601C19.4151 36.8415 19.6503 36.9435 19.8955 36.9435H29.6037ZM39.7741 12.7619V15.5476C39.7746 16.6241 39.4307 17.6697 38.7974 18.5181C38.164 19.3665 37.2776 19.9688 36.2792 20.2292L31.9798 21.3493C31.4397 23.4372 30.303 25.3027 28.7217 26.6963C27.1404 28.0899 25.1901 28.945 23.1315 29.1473C22.8248 29.1865 22.516 29.2059 22.2069 29.2054H18.5086C18.1995 29.2059 17.8908 29.1865 17.584 29.1473C15.5272 28.9452 13.5784 28.0912 11.998 26.6995C10.4175 25.3078 9.28067 23.4446 8.73939 21.3589L4.44375 20.2369C3.44323 19.9754 2.55503 19.3714 1.9204 18.521C1.28578 17.6706 0.941176 16.6226 0.941406 15.5437V12.7619C0.941406 12.5054 1.03882 12.2593 1.21221 12.0779C1.38561 11.8966 1.62078 11.7946 1.866 11.7946H8.33812V8.89286C8.33812 8.63632 8.43553 8.3903 8.60892 8.2089C8.78231 8.0275 9.01749 7.9256 9.2627 7.9256H31.4528C31.698 7.9256 31.9332 8.0275 32.1066 8.2089C32.28 8.3903 32.3774 8.63632 32.3774 8.89286V11.7946H12.9611C12.7158 11.7946 12.4807 11.8966 12.3073 12.0779C12.1339 12.2593 12.0365 12.5054 12.0365 12.7619C12.0365 13.0184 12.1339 13.2645 12.3073 13.4459C12.4807 13.6273 12.7158 13.7292 12.9611 13.7292H32.3774V18.5655C32.3774 18.8112 32.3275 19.0433 32.3108 19.2851L35.8243 18.3527C36.4246 18.1998 36.9583 17.8399 37.3394 17.3311C37.7204 16.8222 37.9267 16.194 37.925 15.5476V13.7292H32.3774V11.7946H38.8495C39.0948 11.7946 39.3299 11.8966 39.5033 12.0779C39.6767 12.2593 39.7741 12.5054 39.7741 12.7619ZM8.40284 19.2793C8.38804 19.0394 8.33812 18.8092 8.33812 18.5655V13.7292H2.79058V15.5437C2.79024 16.1911 2.99682 16.82 3.37746 17.3304C3.7581 17.8408 4.29095 18.2033 4.89125 18.3604L8.40284 19.2793ZM23.4644 19.5327L21.3193 19.2039L20.3578 17.1726L19.3962 19.2039L17.2511 19.5327L18.8045 21.119L18.4346 23.3438L20.3578 22.2991L22.2809 23.3438L21.9111 21.119L23.4644 19.5327ZM33.302 29.2054C33.5472 29.2054 33.7824 29.1035 33.9558 28.9221C34.1292 28.7407 34.2266 28.4946 34.2266 28.2381V26.3036C34.2266 26.047 34.1292 25.801 33.9558 25.6196C33.7824 25.4382 33.5472 25.3363 33.302 25.3363C33.0568 25.3363 32.8216 25.4382 32.6482 25.6196C32.4748 25.801 32.3774 26.047 32.3774 26.3036V28.2381C32.3774 28.4946 32.4748 28.7407 32.6482 28.9221C32.8216 29.1035 33.0568 29.2054 33.302 29.2054ZM33.302 31.1399C33.0568 31.1399 32.8216 31.2418 32.6482 31.4232C32.4748 31.6046 32.3774 31.8506 32.3774 32.1071V34.0417C32.3774 34.2982 32.4748 34.5442 32.6482 34.7256C32.8216 34.907 33.0568 35.0089 33.302 35.0089C33.5472 35.0089 33.7824 34.907 33.9558 34.7256C34.1292 34.5442 34.2266 34.2982 34.2266 34.0417V32.1071C34.2266 31.8506 34.1292 31.6046 33.9558 31.4232C33.7824 31.2418 33.5472 31.1399 33.302 31.1399ZM31.4528 29.2054H30.5282C30.283 29.2054 30.0479 29.3073 29.8745 29.4887C29.7011 29.6701 29.6037 29.9161 29.6037 30.1726C29.6037 30.4292 29.7011 30.6752 29.8745 30.8566C30.0479 31.038 30.283 31.1399 30.5282 31.1399H31.4528C31.698 31.1399 31.9332 31.038 32.1066 30.8566C32.28 30.6752 32.3774 30.4292 32.3774 30.1726C32.3774 29.9161 32.28 29.6701 32.1066 29.4887C31.9332 29.3073 31.698 29.2054 31.4528 29.2054ZM36.0758 29.2054H35.1512C34.906 29.2054 34.6708 29.3073 34.4974 29.4887C34.324 29.6701 34.2266 29.9161 34.2266 30.1726C34.2266 30.4292 34.324 30.6752 34.4974 30.8566C34.6708 31.038 34.906 31.1399 35.1512 31.1399H36.0758C36.321 31.1399 36.5562 31.038 36.7296 30.8566C36.903 30.6752 37.0004 30.4292 37.0004 30.1726C37.0004 29.9161 36.903 29.6701 36.7296 29.4887C36.5562 29.3073 36.321 29.2054 36.0758 29.2054ZM5.56435 4.05655C5.80957 4.05655 6.04474 3.95464 6.21813 3.77324C6.39153 3.59185 6.48894 3.34582 6.48894 3.08929V1.15476C6.48894 0.898228 6.39153 0.652201 6.21813 0.470805C6.04474 0.289408 5.80957 0.1875 5.56435 0.1875C5.31913 0.1875 5.08396 0.289408 4.91057 0.470805C4.73717 0.652201 4.63976 0.898228 4.63976 1.15476V3.08929C4.63976 3.34582 4.73717 3.59185 4.91057 3.77324C5.08396 3.95464 5.31913 4.05655 5.56435 4.05655ZM5.56435 5.99107C5.31913 5.99107 5.08396 6.09298 4.91057 6.27438C4.73717 6.45577 4.63976 6.7018 4.63976 6.95833V8.89286C4.63976 9.14939 4.73717 9.39542 4.91057 9.57681C5.08396 9.75821 5.31913 9.86012 5.56435 9.86012C5.80957 9.86012 6.04474 9.75821 6.21813 9.57681C6.39153 9.39542 6.48894 9.14939 6.48894 8.89286V6.95833C6.48894 6.7018 6.39153 6.45577 6.21813 6.27438C6.04474 6.09298 5.80957 5.99107 5.56435 5.99107ZM2.79058 5.99107H3.71517C3.96039 5.99107 4.19556 5.88916 4.36896 5.70777C4.54235 5.52637 4.63976 5.28034 4.63976 5.02381C4.63976 4.76728 4.54235 4.52125 4.36896 4.33985C4.19556 4.15846 3.96039 4.05655 3.71517 4.05655H2.79058C2.54537 4.05655 2.31019 4.15846 2.1368 4.33985C1.96341 4.52125 1.866 4.76728 1.866 5.02381C1.866 5.28034 1.96341 5.52637 2.1368 5.70777C2.31019 5.88916 2.54537 5.99107 2.79058 5.99107ZM7.41353 5.99107H8.33812C8.58333 5.99107 8.8185 5.88916 8.9919 5.70777C9.16529 5.52637 9.2627 5.28034 9.2627 5.02381C9.2627 4.76728 9.16529 4.52125 8.9919 4.33985C8.8185 4.15846 8.58333 4.05655 8.33812 4.05655H7.41353C7.16831 4.05655 6.93314 4.15846 6.75974 4.33985C6.58635 4.52125 6.48894 4.76728 6.48894 5.02381C6.48894 5.28034 6.58635 5.52637 6.75974 5.70777C6.93314 5.88916 7.16831 5.99107 7.41353 5.99107Z" fill="#02BBFE"/>
<rect x="34.5002" y="25.1875" width="2.5" height="4.375" rx="1.25" fill="#FCB401"/>
<rect x="5.75024" y="0.1875" width="2.5" height="4.375" rx="1.25" fill="#FCB401"/>
<rect x="40.1252" y="28.9375" width="2.5" height="3.75" rx="1.25" transform="rotate(90 40.1252 28.9375)" fill="#FCB401"/>
<rect x="11.3752" y="3.9375" width="2.5" height="3.75" rx="1.25" transform="rotate(90 11.3752 3.9375)" fill="#FCB401"/>
<rect x="35.1252" y="28.9375" width="2.5" height="3.75" rx="1.25" transform="rotate(90 35.1252 28.9375)" fill="#FCB401"/>
<rect x="6.37524" y="3.9375" width="2.5" height="3.75" rx="1.25" transform="rotate(90 6.37524 3.9375)" fill="#FCB401"/>
<rect x="34.5002" y="30.8125" width="2.5" height="4.375" rx="1.25" fill="#FCB401"/>
<rect x="5.75024" y="5.8125" width="2.5" height="4.375" rx="1.25" fill="#FCB401"/>
</svg>
