<svg width="44" height="44" viewBox="0 0 44 44" fill="none" xmlns="http://www.w3.org/2000/svg">
<path d="M21.9157 0.000319091C10.9508 0.000319091 0 8.86947 0 21.9912C0 34.1256 9.87353 44 22.0088 44C34.0032 44 43.7639 34.3561 43.9889 22.414C43.9959 21.2135 42.5763 20.5739 41.6885 21.382C40.8282 22.1704 39.7129 22.6095 38.5459 22.6147C35.9425 22.6142 33.8655 20.5329 33.859 17.9312V17.9174C33.8658 17.3793 33.9713 16.8499 34.1599 16.3443C34.5343 15.3508 33.6869 14.3258 32.6405 14.5025C32.5781 14.5094 32.5247 14.5094 32.4651 14.5163C30.9792 14.5024 29.7993 13.3391 29.7991 11.8503C29.8047 11.7518 29.8269 11.6472 29.8546 11.5099C30.0564 10.4401 28.993 9.57103 27.984 9.97973C27.4321 10.2002 26.8478 10.305 26.2534 10.3057C23.6449 10.3051 21.5615 8.22671 21.5627 5.61862C21.5661 3.40634 22.8134 2.42235 22.8134 2.42235C23.8641 1.34658 23.0057 -0.00141445 21.9157 0.000319091ZM14.6845 9.80425C16.3677 9.80328 17.7329 11.1669 17.7339 12.8501C17.7349 14.5347 16.3691 15.9006 14.6845 15.8995C13.0014 15.8985 11.6378 14.5332 11.6388 12.8501C11.6397 11.1683 13.0028 9.80529 14.6845 9.80425ZM22.0196 18.9632C23.7042 18.9622 25.0701 20.3281 25.0691 22.0127C25.0681 23.6959 23.7028 25.0595 22.0196 25.0585C20.3379 25.0575 18.9747 23.6944 18.9737 22.0127C18.9728 20.3295 20.3364 18.9642 22.0196 18.9632ZM9.80037 22.6326C11.4836 22.6336 12.8472 23.9988 12.8461 25.682C12.8452 27.3637 11.4821 28.7268 9.80037 28.7278C8.11724 28.7288 6.75188 27.3652 6.75091 25.682C6.74994 23.9974 8.11579 22.6316 9.80037 22.6326ZM31.6562 26.162C33.3394 26.1629 34.7029 27.5283 34.7019 29.2114C34.701 30.8931 33.3379 32.2563 31.6562 32.2573C29.9731 32.2582 28.6078 30.8945 28.6068 29.2114C28.6058 27.5269 29.9717 26.161 31.6562 26.162ZM19.5649 31.186C21.2466 31.1869 22.6098 32.5501 22.6107 34.2318C22.6117 35.915 21.2481 37.2803 19.5649 37.2812C17.8804 37.2822 16.5145 35.9164 16.5155 34.2318C16.5165 32.5487 17.8817 31.185 19.5649 31.186Z" fill="#02BBFE"/>
<path d="M30.5725 6.7149C32.2564 6.7149 33.6215 5.34985 33.6215 3.66602C33.6215 1.98219 32.2564 0.617188 30.5725 0.617188C28.8885 0.617188 27.5234 1.98219 27.5234 3.66602C27.5234 5.34985 28.8885 6.7149 30.5725 6.7149Z" fill="#FCB401"/>
<path d="M40.9397 6.09766C42.6236 6.09766 43.9887 4.73266 43.9887 3.04883C43.9887 1.365 42.6236 0 40.9397 0C39.2557 0 37.8906 1.365 37.8906 3.04883C37.8906 4.73266 39.2557 6.09766 40.9397 6.09766Z" fill="#FCB401"/>
<path d="M40.3664 16.5086C42.0504 16.5086 43.4155 15.1436 43.4155 13.4598C43.4155 11.7759 42.0504 10.4109 40.3664 10.4109C38.6825 10.4109 37.3174 11.7759 37.3174 13.4598C37.3174 15.1436 38.6825 16.5086 40.3664 16.5086Z" fill="#FCB401"/>
</svg>
