<svg width="352" height="352" viewBox="0 0 352 352" fill="none" xmlns="http://www.w3.org/2000/svg">
<path fill-rule="evenodd" clip-rule="evenodd" d="M176 264C224.601 264 264 224.601 264 176C264 127.399 224.601 88 176 88C127.399 88 88 127.399 88 176C88 224.601 127.399 264 176 264ZM176 234.667C208.4 234.667 234.667 208.4 234.667 176C234.667 143.599 208.4 117.333 176 117.333C143.599 117.333 117.333 143.599 117.333 176C117.333 208.4 143.599 234.667 176 234.667Z" fill="white"/>
<path d="M263.995 73.3359C255.894 73.3359 249.328 79.9025 249.328 88.0026C249.328 96.1027 255.894 102.669 263.995 102.669C272.095 102.669 278.661 96.1027 278.661 88.0026C278.661 79.9025 272.095 73.3359 263.995 73.3359Z" fill="white"/>
<path fill-rule="evenodd" clip-rule="evenodd" d="M24.2633 62.7129C14.6719 81.5372 14.6719 106.18 14.6719 155.464V196.531C14.6719 245.815 14.6719 270.458 24.2633 289.281C32.7001 305.84 46.1624 319.302 62.7208 327.739C81.545 337.331 106.187 337.331 155.472 337.331H196.539C245.823 337.331 270.466 337.331 289.289 327.739C305.848 319.302 319.31 305.84 327.747 289.281C337.339 270.458 337.339 245.815 337.339 196.531V155.464C337.339 106.18 337.339 81.5372 327.747 62.7129C319.31 46.1546 305.848 32.6923 289.289 24.2555C270.466 14.6641 245.823 14.6641 196.539 14.6641H155.472C106.187 14.6641 81.545 14.6641 62.7208 24.2555C46.1624 32.6923 32.7001 46.1546 24.2633 62.7129ZM196.539 43.9974H155.472C130.346 43.9974 113.265 44.0203 100.062 45.0989C87.2021 46.1496 80.6255 48.054 76.0378 50.3916C64.9989 56.0163 56.0241 64.9911 50.3994 76.03C48.0619 80.6177 46.1574 87.1942 45.1067 100.055C44.0281 113.257 44.0052 130.338 44.0052 155.464V196.531C44.0052 221.658 44.0281 238.737 45.1067 251.94C46.1574 264.801 48.0619 271.378 50.3994 275.965C56.0241 287.004 64.9989 295.978 76.0378 301.603C80.6255 303.941 87.2021 305.846 100.062 306.896C113.265 307.974 130.346 307.997 155.472 307.997H196.539C221.665 307.997 238.745 307.974 251.948 306.896C264.809 305.846 271.385 303.941 275.973 301.603C287.011 295.978 295.986 287.004 301.611 275.965C303.948 271.378 305.854 264.801 306.904 251.94C307.982 238.737 308.005 221.658 308.005 196.531V155.464C308.005 130.338 307.982 113.257 306.904 100.055C305.854 87.1942 303.948 80.6177 301.611 76.03C295.986 64.9911 287.011 56.0163 275.973 50.3916C271.385 48.054 264.809 46.1496 251.948 45.0989C238.745 44.0203 221.665 43.9974 196.539 43.9974Z" fill="white"/>
</svg>
